<?xml version="1.0" encoding="utf-8"?>
<!-- Generator: Adobe Illustrator 21.1.0, SVG Export Plug-In . SVG Version: 6.00 Build 0)  -->
<svg version="1.1" id="Layer_1" xmlns="http://www.w3.org/2000/svg" xmlns:xlink="http://www.w3.org/1999/xlink" x="0px" y="0px"
	 viewBox="0 0 1507.4 656" style="enable-background:new 0 0 1507.4 656;" xml:space="preserve">
<style type="text/css">
	.st0{fill:#FFFFFF;}
	.st1{font-family:'AcuminPro-Black';}
	.st2{font-size:26px;}
	.st3{letter-spacing:1;}
	.st4{font-family:'AcuminPro-Bold';}
	.st5{fill:#FFD600;}
	.st6{fill:#FFB04E;}
	.st7{fill:#F98675;}
	.st8{letter-spacing:2;}
	.st9{fill:#E95F93;}
	.st10{fill:#CC34B4;}
	.st11{fill:#E84524;}
	.st12{letter-spacing:-4;}
	.st13{fill:#EB6D20;}
	.st14{fill:#12E17E;}
	.st15{fill:#29CEF4;}
	.st16{fill:#A9A9A9;}
	.st17{fill:#9C02D6;}
	.st18{fill:#0664FF;}
	.st19{fill:none;stroke:#FFFFFF;stroke-dasharray:4.028,4.028;}
	.st20{fill:none;stroke:#FFFFFF;stroke-width:0.7;stroke-linecap:square;}
	.st21{clip-path:url(#SVGID_2_);fill:#0000D8;}
	.st22{clip-path:url(#SVGID_2_);fill:#0000DA;}
	.st23{clip-path:url(#SVGID_2_);fill:#0000DD;}
	.st24{clip-path:url(#SVGID_4_);fill:#0000F9;}
	.st25{fill:#0000E4;}
	.st26{fill:#0000DA;}
	.st27{fill:#9803D3;}
	.st28{fill:#8B03C1;}
	.st29{fill:#8603B9;}
	.st30{fill:#A5A5A5;}
	.st31{fill:#989898;}
	.st32{fill:#939393;}
	.st33{fill:#29CBEF;}
	.st34{fill:#26B9DA;}
	.st35{fill:#24B1D3;}
	.st36{fill:#12DD7D;}
	.st37{fill:#12CB73;}
	.st38{fill:#0FC16E;}
	.st39{fill:#E76B1F;}
	.st40{fill:#D3611C;}
	.st41{fill:#CB5E1C;}
	.st42{fill:#E24524;}
	.st43{fill:#D04021;}
	.st44{fill:#C83D21;}
	.st45{fill:#C833AF;}
	.st46{fill:#B72EA2;}
	.st47{fill:#AF2E9B;}
	.st48{fill:#E45C90;}
	.st49{fill:#D05784;}
	.st50{fill:#C85480;}
	.st51{fill:#F48473;}
	.st52{fill:#DF7A69;}
	.st53{fill:#D87566;}
	.st54{fill:#F9AC4D;}
	.st55{fill:#E49D47;}
	.st56{fill:#DA9845;}
	.st57{fill:#F9D300;}
	.st58{fill:#E4C100;}
	.st59{fill:#DAB900;}
</style>
<text transform="matrix(1 0 0 1 864 573.1799)"><tspan x="0" y="0" class="st0 st1 st2 st3">TO</tspan><tspan x="38.8" y="0" class="st0 st1 st2">T</tspan><tspan x="54.9" y="0" class="st0 st1 st2 st3">A</tspan><tspan x="75" y="0" class="st0 st1 st2">L</tspan></text>
<text transform="matrix(1 0 0 1 954.8184 573.1799)" class="st0 st4 st2"> </text>
<path class="st0" d="M1265.1,595.2v-4.1c-6.5-0.9-10.1-4.5-10.7-9.7h9.2c0.5,2.3,2.2,3.6,5.1,3.6c3.1,0,4.2-1.4,4.2-3.2
	c0-2.2-1.5-3.2-5.8-4.4c-9.7-2.8-11.9-6.4-11.9-11.4c0-5.4,3.8-9,9.6-10v-3.3h6.9v3.3c6.6,1,9.4,4.9,9.9,9.2h-9.2
	c-0.2-1-0.8-3.1-4.4-3.1c-3,0-3.5,1.8-3.5,2.9c0,1.8,1.2,2.7,6.4,4.2c9,2.6,11.5,6.3,11.5,11.3c0,6-4.1,9.6-10.3,10.5v4.2H1265.1z
	 M1288.3,590.8V590c0-6.6,2.3-11.5,10.5-17.2c4.6-3.2,5.6-4.1,5.6-6.6c0-2.4-1.2-3.7-3.3-3.7c-2.7,0-3.5,1.8-3.8,4.5h-9.4
	c0.4-4.9,3.3-11.3,13.6-11.3c9.4,0,13,5.2,13,10.7c0,4.9-1.9,7.3-8.4,11.5c-3.5,2.2-5.4,4-6.1,5.5h15.6l-1.2,7.4H1288.3z
	 M1320.4,596.1c2.5-6.5,3.2-11.6,3.5-15.7h9c-0.6,5.6-2.5,11.7-5.5,15.7H1320.4z M1367.7,573.4c0,9.2-3.5,18-14.5,18
	c-10.5,0-14.4-8.3-14.4-17.8c0-9,4-17.8,14.5-17.8C1363.6,555.8,1367.7,564.1,1367.7,573.4z M1348.9,573.5c0,7.5,1,11.1,4.4,11.1
	s4.3-3.9,4.3-11c0-7.3-0.9-10.9-4.2-10.9C1350.1,562.7,1348.9,565.8,1348.9,573.5z M1402.9,573.4c0,9.2-3.5,18-14.5,18
	c-10.5,0-14.4-8.3-14.4-17.8c0-9,4-17.8,14.5-17.8C1398.8,555.8,1402.9,564.1,1402.9,573.4z M1384.1,573.5c0,7.5,1,11.1,4.4,11.1
	s4.3-3.9,4.3-11c0-7.3-0.9-10.9-4.2-10.9C1385.3,562.7,1384.1,565.8,1384.1,573.5z M1438.1,573.4c0,9.2-3.5,18-14.5,18
	c-10.5,0-14.4-8.3-14.4-17.8c0-9,4-17.8,14.5-17.8C1434,555.8,1438.1,564.1,1438.1,573.4z M1419.3,573.5c0,7.5,1,11.1,4.4,11.1
	s4.3-3.9,4.3-11c0-7.3-0.9-10.9-4.2-10.9C1420.5,562.7,1419.3,565.8,1419.3,573.5z"/>
<text transform="matrix(1 0 0 1 864 39.1799)"><tspan x="0" y="0" class="st5 st4 st2 st3">H</tspan><tspan x="20.7" y="0" class="st5 st4 st2 st3">O</tspan><tspan x="42.1" y="0" class="st5 st4 st2 st3">U</tspan><tspan x="62.4" y="0" class="st5 st4 st2 st3">S</tspan><tspan x="80.5" y="0" class="st5 st4 st2 st3">E</tspan><tspan x="98.4" y="0" class="st5 st4 st2">W</tspan><tspan x="123.7" y="0" class="st5 st4 st2 st3">A</tspan><tspan x="143.1" y="0" class="st5 st4 st2 st3">R</tspan><tspan x="162" y="0" class="st5 st4 st2">E</tspan></text>
<text transform="matrix(1 0 0 1 1043.7119 39.1799)" class="st5 st4 st2"> </text>
<text transform="matrix(1 0 0 1 1049.9785 39.1799)"><tspan x="0" y="0" class="st5 st4 st2 st3">.....................................</tspan><tspan x="299.2" y="0" class="st5 st4 st2">.</tspan></text>
<path class="st5" d="M1378.7,41.5v-2.2c-3.1-0.4-4.9-2.3-5.2-4.9h3.7c0.3,1.5,1.5,2.3,3.2,2.3c2,0,2.8-0.9,2.8-2.2
	c0-1.4-0.8-2.1-3.4-2.8c-4.6-1.4-5.9-3.1-5.9-5.7c0-2.8,2-4.4,4.6-4.9v-1.8h3.2v1.8c3.4,0.5,4.6,2.6,4.8,4.6h-3.9
	c-0.2-0.6-0.6-1.9-2.7-1.9c-1.8,0-2.3,1.1-2.3,1.9c0,1.2,0.8,1.8,3.6,2.6c4.3,1.3,5.6,3.2,5.6,5.8c0,2.9-2,4.7-5,5.2v2.2H1378.7z
	 M1390.9,26c0.3-2.4,2-5,6.2-5c4.1,0,6,2.2,6,4.8c0,2.1-1,3-2.3,3.6v0.1c1.2,0.4,2.9,1.6,2.9,4.3c0,2.8-1.8,5.8-6.7,5.7
	c-4.2-0.1-6.3-2.6-6.5-5.3h3.7c0.3,1.2,1,2.4,3,2.4c1.9,0,2.8-1.1,2.8-2.7c0-1.7-0.7-2.8-3.1-2.8h-1.3v-2.9h1.2c1.8,0,2.7-0.5,2.7-2
	c0-1.2-0.7-2.2-2.3-2.2c-1.9,0-2.4,1.1-2.6,2.1H1390.9z M1421.2,30.1c0,4.6-1.6,9.4-6.9,9.4c-5.1,0-6.9-4.4-6.9-9.3
	c0-4.5,1.8-9.2,7-9.2C1419.4,21,1421.2,25.4,1421.2,30.1z M1411.3,30.2c0,3.6,0.7,6.3,3,6.3c2.3,0,3-2.8,3-6.3
	c0-3.5-0.6-6.1-2.9-6.1S1411.3,26.3,1411.3,30.2z M1438.8,30.1c0,4.6-1.6,9.4-6.9,9.4c-5.1,0-6.9-4.4-6.9-9.3c0-4.5,1.8-9.2,7-9.2
	C1437,21,1438.8,25.4,1438.8,30.1z M1428.9,30.2c0,3.6,0.7,6.3,3,6.3c2.3,0,3-2.8,3-6.3c0-3.5-0.6-6.1-2.9-6.1
	S1428.9,26.3,1428.9,30.2z"/>
<text transform="matrix(1 0 0 1 864 79.1677)"><tspan x="0" y="0" class="st6 st4 st2 st3">FU</tspan><tspan x="37.3" y="0" class="st6 st4 st2 st3">R</tspan><tspan x="56.3" y="0" class="st6 st4 st2 st3">N</tspan><tspan x="77.4" y="0" class="st6 st4 st2 st3">I</tspan><tspan x="86.9" y="0" class="st6 st4 st2 st3">TU</tspan><tspan x="124.3" y="0" class="st6 st4 st2 st3">R</tspan><tspan x="143.2" y="0" class="st6 st4 st2 st3">E</tspan><tspan x="160.8" y="0" class="st6 st4 st2"> </tspan></text>
<text transform="matrix(1 0 0 1 1032.7139 79.1677)" class="st6 st4 st2"> </text>
<text transform="matrix(1 0 0 1 1033.8057 79.1677)"><tspan x="0" y="0" class="st6 st4 st2 st3">...........................................</tspan><tspan x="347.7" y="0" class="st6 st4 st2">.</tspan></text>
<path class="st6" d="M1399.6,79.2V65.8c-0.8,0.4-2.5,0.6-3.4,0.6v-2.7c1.6-0.3,3.5-1.3,4.6-2.4h2.7v17.9H1399.6z M1420.3,64.3h-7.4
	c-0.1,1.3-0.3,2.8-0.5,3.5c0.7-0.5,1.6-0.9,3.3-0.9c3.3,0,5.6,2.4,5.6,6c0,3.7-2.2,6.6-6.8,6.6c-3.5,0-6.1-1.8-6.5-5.1h3.7
	c0.3,1.1,1.2,2.2,2.9,2.2c2.1,0,2.9-1.3,2.9-3.3c0-1.7-0.7-3.4-2.9-3.4c-1.8,0-2.4,0.8-2.8,1.9l-3.4-0.5c0.5-2.1,1.2-7.5,1.4-10h11
	L1420.3,64.3z M1438.9,70.1c0,4.6-1.6,9.4-6.9,9.4c-5.1,0-6.9-4.4-6.9-9.3c0-4.5,1.8-9.2,7-9.2C1437,61,1438.9,65.4,1438.9,70.1z
	 M1429,70.2c0,3.6,0.7,6.3,3,6.3c2.3,0,3-2.8,3-6.3c0-3.5-0.6-6.1-2.9-6.1S1429,66.3,1429,70.2z"/>
<text transform="matrix(1 0 0 1 864.0254 119.1559)"><tspan x="0" y="0" class="st7 st4 st2 st3">HO</tspan><tspan x="42" y="0" class="st7 st4 st2 st3">B</tspan><tspan x="61.2" y="0" class="st7 st4 st2 st3">B</tspan><tspan x="79.9" y="0" class="st7 st4 st2 st3">Y </tspan><tspan x="105.5" y="0" class="st7 st4 st2 st3">R</tspan><tspan x="124.4" y="0" class="st7 st4 st2 st3">E</tspan><tspan x="142.2" y="0" class="st7 st4 st2 st8">L</tspan><tspan x="159.7" y="0" class="st7 st4 st2">A</tspan><tspan x="177.4" y="0" class="st7 st4 st2 st3">T</tspan><tspan x="194.1" y="0" class="st7 st4 st2 st3">E</tspan><tspan x="211.9" y="0" class="st7 st4 st2 st3">D</tspan><tspan x="232.6" y="0" class="st7 st4 st2 st3"> </tspan><tspan x="240.5" y="0" class="st7 st4 st2 st3">O</tspan><tspan x="261.8" y="0" class="st7 st4 st2 st3">B</tspan><tspan x="280.9" y="0" class="st7 st4 st2 st3">J</tspan><tspan x="292.9" y="0" class="st7 st4 st2 st3">E</tspan><tspan x="310.6" y="0" class="st7 st4 st2 st3">C</tspan><tspan x="330.7" y="0" class="st7 st4 st2 st3">T</tspan><tspan x="347.7" y="0" class="st7 st4 st2">S</tspan></text>
<text transform="matrix(1 0 0 1 1229.9756 119.1559)"><tspan x="0" y="0" class="st7 st4 st2"> </tspan><tspan x="6" y="0" class="st7 st4 st2 st3">................</tspan><tspan x="135.4" y="0" class="st7 st4 st2">.</tspan></text>
<path class="st7" d="M1383.9,121.5v-2.2c-3.1-0.4-4.9-2.3-5.2-4.9h3.7c0.3,1.5,1.5,2.3,3.2,2.3c2,0,2.8-0.9,2.8-2.2
	c0-1.4-0.8-2.1-3.4-2.8c-4.6-1.4-5.9-3.1-5.9-5.7c0-2.8,2-4.4,4.6-4.9v-1.8h3.2v1.8c3.4,0.5,4.6,2.6,4.8,4.6h-3.9
	c-0.2-0.6-0.6-1.9-2.7-1.9c-1.8,0-2.3,1.1-2.3,1.9c0,1.2,0.8,1.8,3.6,2.6c4.3,1.3,5.6,3.2,5.6,5.8c0,2.9-2,4.7-5,5.2v2.2H1383.9z
	 M1398.9,119.2v-13.4c-0.8,0.4-2.5,0.6-3.4,0.6v-2.7c1.6-0.3,3.5-1.3,4.6-2.4h2.7v17.9H1398.9z M1421.3,110.1c0,4.6-1.6,9.4-6.9,9.4
	c-5.1,0-6.9-4.4-6.9-9.3c0-4.5,1.8-9.2,7-9.2C1419.4,101,1421.3,105.3,1421.3,110.1z M1411.4,110.2c0,3.6,0.7,6.3,3,6.3
	c2.3,0,3-2.8,3-6.3c0-3.5-0.6-6.1-2.9-6.1S1411.4,106.3,1411.4,110.2z M1438.9,110.1c0,4.6-1.6,9.4-6.9,9.4c-5.1,0-6.9-4.4-6.9-9.3
	c0-4.5,1.8-9.2,7-9.2C1437,101,1438.9,105.3,1438.9,110.1z M1429,110.2c0,3.6,0.7,6.3,3,6.3c2.3,0,3-2.8,3-6.3
	c0-3.5-0.6-6.1-2.9-6.1S1429,106.3,1429,110.2z"/>
<text transform="matrix(1 0 0 1 864.0518 159.1437)"><tspan x="0" y="0" class="st9 st4 st2 st3">P</tspan><tspan x="18" y="0" class="st9 st4 st2 st3">ER</tspan><tspan x="54.9" y="0" class="st9 st4 st2 st3">S</tspan><tspan x="72.8" y="0" class="st9 st4 st2 st3">ONA</tspan><tspan x="134.6" y="0" class="st9 st4 st2 st3">L</tspan><tspan x="151.3" y="0" class="st9 st4 st2 st3"> </tspan><tspan x="159.2" y="0" class="st9 st4 st2 st3">I</tspan><tspan x="168.8" y="0" class="st9 st4 st2 st3">T</tspan><tspan x="185.5" y="0" class="st9 st4 st2 st3">E</tspan><tspan x="203.3" y="0" class="st9 st4 st2 st3">M</tspan><tspan x="227.9" y="0" class="st9 st4 st2">S</tspan></text>
<text transform="matrix(1 0 0 1 1110.2461 159.1437)" class="st7 st4 st2"> </text>
<text transform="matrix(1 0 0 1 1114.7178 159.1437)"><tspan x="0" y="0" class="st7 st4 st2 st3">...................................</tspan><tspan x="283" y="0" class="st7 st4 st2">.</tspan></text>
<path class="st7" d="M1413.3,161.5v-2.2c-3.1-0.4-4.9-2.3-5.2-4.9h3.7c0.3,1.5,1.5,2.3,3.2,2.3c2,0,2.8-0.9,2.8-2.2
	c0-1.4-0.8-2.1-3.4-2.8c-4.6-1.4-5.9-3.1-5.9-5.7c0-2.8,2-4.4,4.6-4.9v-1.8h3.2v1.8c3.4,0.5,4.6,2.6,4.8,4.6h-3.9
	c-0.2-0.6-0.6-1.9-2.7-1.9c-1.8,0-2.3,1.1-2.3,1.9c0,1.2,0.8,1.8,3.6,2.6c4.3,1.3,5.6,3.2,5.6,5.8c0,2.9-2,4.7-5,5.2v2.2H1413.3z
	 M1438.9,150.1c0,4.6-1.6,9.4-6.9,9.4c-5.1,0-6.9-4.4-6.9-9.3c0-4.5,1.8-9.2,7-9.2C1437.1,141,1438.9,145.3,1438.9,150.1z
	 M1429,150.1c0,3.6,0.7,6.3,3,6.3c2.3,0,3-2.8,3-6.3c0-3.5-0.6-6.1-2.9-6.1S1429,146.3,1429,150.1z"/>
<text transform="matrix(1 0 0 1 864.0781 199.132)"><tspan x="0" y="0" class="st10 st4 st2 st3">C</tspan><tspan x="20" y="0" class="st10 st4 st2 st3">L</tspan><tspan x="36.4" y="0" class="st10 st4 st2 st3">O</tspan><tspan x="57.5" y="0" class="st10 st4 st2 st3">T</tspan><tspan x="74.3" y="0" class="st10 st4 st2 st3">H</tspan><tspan x="95" y="0" class="st10 st4 st2 st3">I</tspan><tspan x="104.6" y="0" class="st10 st4 st2 st3">N</tspan><tspan x="125.7" y="0" class="st10 st4 st2">G</tspan></text>
<text transform="matrix(1 0 0 1 1010.9258 199.132)" class="st10 st4 st2"> </text>
<text transform="matrix(1 0 0 1 1017.7119 199.132)"><tspan x="0" y="0" class="st10 st4 st2 st3">.............................................</tspan><tspan x="363.9" y="0" class="st10 st4 st2">.</tspan></text>
<path class="st10" d="M1396.2,201.5v-2.2c-3.1-0.4-4.9-2.3-5.2-4.9h3.7c0.3,1.5,1.5,2.3,3.2,2.3c2,0,2.8-0.9,2.8-2.2
	c0-1.4-0.8-2.1-3.4-2.8c-4.6-1.4-5.9-3.1-5.9-5.7c0-2.8,2-4.4,4.6-4.9v-1.8h3.2v1.8c3.4,0.5,4.6,2.6,4.8,4.6h-3.9
	c-0.2-0.6-0.6-1.9-2.7-1.9c-1.8,0-2.3,1.1-2.3,1.9c0,1.2,0.8,1.8,3.6,2.6c4.3,1.3,5.6,3.2,5.6,5.8c0,2.9-2,4.7-5,5.2v2.2H1396.2z
	 M1420.4,184.3h-7.4c-0.1,1.3-0.3,2.8-0.5,3.5c0.7-0.5,1.6-0.9,3.3-0.9c3.3,0,5.6,2.4,5.6,6c0,3.7-2.2,6.6-6.8,6.6
	c-3.5,0-6.1-1.8-6.5-5.1h3.7c0.3,1.1,1.2,2.2,2.9,2.2c2.1,0,2.9-1.3,2.9-3.3c0-1.7-0.7-3.4-2.9-3.4c-1.8,0-2.4,0.8-2.8,1.9l-3.4-0.5
	c0.5-2.1,1.2-7.5,1.4-10h11L1420.4,184.3z M1438.9,190.1c0,4.6-1.6,9.4-6.9,9.4c-5.1,0-6.9-4.4-6.9-9.3c0-4.5,1.8-9.2,7-9.2
	C1437.1,181,1438.9,185.3,1438.9,190.1z M1429,190.1c0,3.6,0.7,6.3,3,6.3c2.3,0,3-2.8,3-6.3c0-3.5-0.6-6.1-2.9-6.1
	S1429,186.3,1429,190.1z"/>
<text transform="matrix(1 0 0 1 864.1035 239.1198)"><tspan x="0" y="0" class="st11 st4 st2 st3">HOLI</tspan><tspan x="68.3" y="0" class="st11 st4 st2">D</tspan><tspan x="88.2" y="0" class="st11 st4 st2">A</tspan><tspan x="106.1" y="0" class="st11 st4 st2 st3">Y</tspan><tspan x="123.7" y="0" class="st11 st4 st2 st3"> </tspan><tspan x="131.5" y="0" class="st11 st4 st2 st3">S</tspan><tspan x="149.6" y="0" class="st11 st4 st2 st3">E</tspan><tspan x="167.6" y="0" class="st11 st4 st2 st3">A</tspan><tspan x="186.8" y="0" class="st11 st4 st2 st3">S</tspan><tspan x="204.8" y="0" class="st11 st4 st2 st3">ONA</tspan><tspan x="266.5" y="0" class="st11 st4 st2 st3">L </tspan><tspan x="291.2" y="0" class="st11 st4 st2 st3">I</tspan><tspan x="300.8" y="0" class="st11 st4 st2 st3">T</tspan><tspan x="317.5" y="0" class="st11 st4 st2 st3">E</tspan><tspan x="335.3" y="0" class="st11 st4 st2 st3">M</tspan><tspan x="359.9" y="0" class="st11 st4 st2">S</tspan></text>
<text transform="matrix(1 0 0 1 1242.3262 239.1198)"><tspan x="0" y="0" class="st7 st4 st2 st12"> </tspan><tspan x="1.8" y="0" class="st7 st4 st2 st3">...............</tspan><tspan x="123.1" y="0" class="st7 st4 st2">.</tspan></text>
<path class="st7" d="M1384,241.5v-2.2c-3.1-0.4-4.9-2.3-5.2-4.9h3.7c0.3,1.5,1.5,2.3,3.2,2.3c2,0,2.8-0.9,2.8-2.2
	c0-1.4-0.8-2.1-3.4-2.8c-4.6-1.4-5.9-3.1-5.9-5.7c0-2.8,2-4.4,4.6-4.9v-1.8h3.2v1.8c3.4,0.5,4.6,2.6,4.8,4.6h-3.9
	c-0.2-0.6-0.6-1.9-2.7-1.9c-1.8,0-2.3,1.1-2.3,1.9c0,1.2,0.8,1.8,3.6,2.6c4.3,1.3,5.6,3.2,5.6,5.8c0,2.9-2,4.7-5,5.2v2.2H1384z
	 M1399,239.1v-13.4c-0.8,0.4-2.5,0.6-3.4,0.6v-2.7c1.6-0.3,3.5-1.3,4.6-2.4h2.7v17.9H1399z M1421.3,230c0,4.6-1.6,9.4-6.9,9.4
	c-5.1,0-6.9-4.4-6.9-9.3c0-4.5,1.8-9.2,7-9.2C1419.5,220.9,1421.3,225.3,1421.3,230z M1411.5,230.1c0,3.6,0.7,6.3,3,6.3
	c2.3,0,3-2.8,3-6.3c0-3.5-0.6-6.1-2.9-6.1S1411.5,226.2,1411.5,230.1z M1438.9,230c0,4.6-1.6,9.4-6.9,9.4c-5.1,0-6.9-4.4-6.9-9.3
	c0-4.5,1.8-9.2,7-9.2C1437.1,220.9,1438.9,225.3,1438.9,230z M1429.1,230.1c0,3.6,0.7,6.3,3,6.3c2.3,0,3-2.8,3-6.3
	c0-3.5-0.6-6.1-2.9-6.1S1429.1,226.2,1429.1,230.1z"/>
<text transform="matrix(1 0 0 1 864.1299 279.1076)"><tspan x="0" y="0" class="st13 st4 st2 st3">B</tspan><tspan x="19" y="0" class="st13 st4 st2 st3">O</tspan><tspan x="40.4" y="0" class="st13 st4 st2 st3">O</tspan><tspan x="61.7" y="0" class="st13 st4 st2 st3">K</tspan><tspan x="80.5" y="0" class="st13 st4 st2">S</tspan><tspan x="97.8" y="0" class="st13 st4 st2 st3">/</tspan><tspan x="111" y="0" class="st13 st4 st2 st3">M</tspan><tspan x="135.5" y="0" class="st13 st4 st2">A</tspan><tspan x="154.2" y="0" class="st13 st4 st2 st3">G</tspan><tspan x="175.4" y="0" class="st13 st4 st2 st8">A</tspan><tspan x="195.4" y="0" class="st13 st4 st2 st3">Z</tspan><tspan x="213.1" y="0" class="st13 st4 st2 st3">I</tspan><tspan x="222.6" y="0" class="st13 st4 st2 st3">N</tspan><tspan x="243.7" y="0" class="st13 st4 st2 st3">E</tspan><tspan x="261.6" y="0" class="st13 st4 st2">S</tspan></text>
<text transform="matrix(1 0 0 1 1143.8896 279.1076)" class="st13 st4 st2"> </text>
<text transform="matrix(1 0 0 1 1147.1396 279.1076)"><tspan x="0" y="0" class="st13 st4 st2 st3">...........................</tspan><tspan x="218.3" y="0" class="st13 st4 st2">.</tspan></text>
<path class="st13" d="M1384,281.5v-2.2c-3.1-0.4-4.9-2.3-5.2-4.9h3.7c0.3,1.5,1.5,2.3,3.2,2.3c2,0,2.8-0.9,2.8-2.2
	c0-1.4-0.8-2.1-3.4-2.8c-4.6-1.4-5.9-3.1-5.9-5.7c0-2.8,2-4.4,4.6-4.9v-1.8h3.2v1.8c3.4,0.5,4.6,2.6,4.8,4.6h-3.9
	c-0.2-0.6-0.6-1.9-2.7-1.9c-1.8,0-2.3,1.1-2.3,1.9c0,1.2,0.8,1.8,3.6,2.6c4.3,1.3,5.6,3.2,5.6,5.8c0,2.9-2,4.7-5,5.2v2.2H1384z
	 M1399,279.1v-13.4c-0.8,0.4-2.5,0.6-3.4,0.6v-2.7c1.6-0.3,3.5-1.3,4.6-2.4h2.7v17.9H1399z M1421.3,270c0,4.6-1.6,9.4-6.9,9.4
	c-5.1,0-6.9-4.4-6.9-9.3c0-4.5,1.8-9.2,7-9.2C1419.5,260.9,1421.3,265.3,1421.3,270z M1411.5,270.1c0,3.6,0.7,6.3,3,6.3
	c2.3,0,3-2.8,3-6.3c0-3.5-0.6-6.1-2.9-6.1S1411.5,266.2,1411.5,270.1z M1438.9,270c0,4.6-1.6,9.4-6.9,9.4c-5.1,0-6.9-4.4-6.9-9.3
	c0-4.5,1.8-9.2,7-9.2C1437.1,260.9,1438.9,265.3,1438.9,270z M1429.1,270.1c0,3.6,0.7,6.3,3,6.3c2.3,0,3-2.8,3-6.3
	c0-3.5-0.6-6.1-2.9-6.1S1429.1,266.2,1429.1,270.1z"/>
<text transform="matrix(1 0 0 1 864.1299 319.0959)"><tspan x="0" y="0" class="st14 st4 st2 st3">S</tspan><tspan x="18" y="0" class="st14 st4 st2 st3">P</tspan><tspan x="36.4" y="0" class="st14 st4 st2 st3">O</tspan><tspan x="57.8" y="0" class="st14 st4 st2 st3">R</tspan><tspan x="76.8" y="0" class="st14 st4 st2 st3">TI</tspan><tspan x="103.2" y="0" class="st14 st4 st2 st3">N</tspan><tspan x="124.3" y="0" class="st14 st4 st2 st3">G</tspan><tspan x="145.4" y="0" class="st14 st4 st2 st3"> </tspan><tspan x="153.2" y="0" class="st14 st4 st2 st3">E</tspan><tspan x="170.8" y="0" class="st14 st4 st2 st3">Q</tspan><tspan x="192.2" y="0" class="st14 st4 st2 st3">U</tspan><tspan x="212.6" y="0" class="st14 st4 st2 st3">I</tspan><tspan x="222.2" y="0" class="st14 st4 st2 st3">P</tspan><tspan x="240.3" y="0" class="st14 st4 st2 st3">M</tspan><tspan x="264.8" y="0" class="st14 st4 st2 st3">E</tspan><tspan x="282.6" y="0" class="st14 st4 st2 st3">N</tspan><tspan x="303.7" y="0" class="st14 st4 st2">T</tspan></text>
<text transform="matrix(1 0 0 1 1184.8662 319.0959)" class="st14 st4 st2"> </text>
<text transform="matrix(1 0 0 1 1187.5439 319.0959)"><tspan x="0" y="0" class="st14 st4 st2 st3">......................</tspan><tspan x="177.9" y="0" class="st14 st4 st2">.</tspan></text>
<path class="st14" d="M1379.5,321.5v-2.2c-3.1-0.4-4.9-2.3-5.2-4.9h3.7c0.3,1.5,1.5,2.3,3.2,2.3c2,0,2.8-0.9,2.8-2.2
	c0-1.4-0.8-2.1-3.4-2.8c-4.6-1.4-5.9-3.1-5.9-5.7c0-2.8,2-4.4,4.6-4.9v-1.8h3.2v1.8c3.4,0.5,4.6,2.6,4.8,4.6h-3.9
	c-0.2-0.6-0.6-1.9-2.7-1.9c-1.8,0-2.3,1.1-2.3,1.9c0,1.2,0.8,1.8,3.6,2.6c4.3,1.3,5.6,3.2,5.6,5.8c0,2.9-2,4.7-5,5.2v2.2H1379.5z
	 M1391.2,319.1v-0.2c0-3,0.9-5.5,5.5-8.8c2.4-1.7,3-2.2,3-3.7c0-1.5-0.8-2.4-2.2-2.4c-1.7,0-2.3,1-2.6,2.6h-3.8
	c0.3-3,2.2-5.6,6.4-5.6c4.6,0,6.1,2.9,6.1,5.3c0,2.8-1.1,3.9-4.4,6.2c-2.3,1.5-3.3,2.6-3.6,3.6h8.7l-0.5,3.1H1391.2z M1421.3,310
	c0,4.6-1.6,9.4-6.9,9.4c-5.1,0-6.9-4.4-6.9-9.3c0-4.5,1.8-9.2,7-9.2C1419.5,300.9,1421.3,305.3,1421.3,310z M1411.5,310.1
	c0,3.6,0.7,6.3,3,6.3c2.3,0,3-2.8,3-6.3c0-3.5-0.6-6.1-2.9-6.1S1411.5,306.2,1411.5,310.1z M1438.9,310c0,4.6-1.6,9.4-6.9,9.4
	c-5.1,0-6.9-4.4-6.9-9.3c0-4.5,1.8-9.2,7-9.2C1437.1,300.9,1438.9,305.3,1438.9,310z M1429.1,310.1c0,3.6,0.7,6.3,3,6.3
	c2.3,0,3-2.8,3-6.3c0-3.5-0.6-6.1-2.9-6.1S1429.1,306.2,1429.1,310.1z"/>
<text transform="matrix(1 0 0 1 864.1035 359.0842)"><tspan x="0" y="0" class="st15 st4 st2 st3">E</tspan><tspan x="17.8" y="0" class="st15 st4 st2 st3">L</tspan><tspan x="34.5" y="0" class="st15 st4 st2 st3">E</tspan><tspan x="52.2" y="0" class="st15 st4 st2 st3">C</tspan><tspan x="72.3" y="0" class="st15 st4 st2 st3">T</tspan><tspan x="89.1" y="0" class="st15 st4 st2 st3">R</tspan><tspan x="107.9" y="0" class="st15 st4 st2 st3">O</tspan><tspan x="129.2" y="0" class="st15 st4 st2 st3">N</tspan><tspan x="150.3" y="0" class="st15 st4 st2 st3">I</tspan><tspan x="159.9" y="0" class="st15 st4 st2 st3">C </tspan><tspan x="187.8" y="0" class="st15 st4 st2 st3">D</tspan><tspan x="208.4" y="0" class="st15 st4 st2 st8">E</tspan><tspan x="226.5" y="0" class="st15 st4 st2 st3">V</tspan><tspan x="245.6" y="0" class="st15 st4 st2 st3">IC</tspan><tspan x="275.1" y="0" class="st15 st4 st2">E</tspan></text>
<text transform="matrix(1 0 0 1 1157.0195 359.0842)" class="st15 st4 st2"> </text>
<text transform="matrix(1 0 0 1 1163.2861 359.0842)"><tspan x="0" y="0" class="st15 st4 st2 st3">........................</tspan><tspan x="194.1" y="0" class="st15 st4 st2">.</tspan></text>
<path class="st15" d="M1378.4,361.4v-2.2c-3.1-0.4-4.9-2.3-5.2-4.9h3.7c0.3,1.5,1.5,2.3,3.2,2.3c2,0,2.8-0.9,2.8-2.2
	c0-1.4-0.8-2.1-3.4-2.8c-4.6-1.4-5.9-3.1-5.9-5.7c0-2.8,2-4.4,4.6-4.9v-1.8h3.2v1.8c3.4,0.5,4.6,2.6,4.8,4.6h-3.9
	c-0.2-0.6-0.6-1.9-2.7-1.9c-1.8,0-2.3,1.1-2.3,1.9c0,1.2,0.8,1.8,3.6,2.6c4.3,1.3,5.6,3.2,5.6,5.8c0,2.9-2,4.7-5,5.2v2.2H1378.4z
	 M1398.3,359.1v-4.2h-8.1v-3.2l7.5-10.5h4.2v10.7h2.2l-0.4,2.9h-1.8v4.2H1398.3z M1398.3,348.6c0-2,0-3.1,0.1-4.2
	c-0.7,1.5-3.5,5.3-4.9,7.5h4.8V348.6z M1421.3,350c0,4.6-1.6,9.4-6.9,9.4c-5.1,0-6.9-4.4-6.9-9.3c0-4.5,1.8-9.2,7-9.2
	C1419.5,340.9,1421.3,345.3,1421.3,350z M1411.5,350.1c0,3.6,0.7,6.3,3,6.3c2.3,0,3-2.8,3-6.3c0-3.5-0.6-6.1-2.9-6.1
	S1411.5,346.2,1411.5,350.1z M1438.9,350c0,4.6-1.6,9.4-6.9,9.4c-5.1,0-6.9-4.4-6.9-9.3c0-4.5,1.8-9.2,7-9.2
	C1437.1,340.9,1438.9,345.3,1438.9,350z M1429.1,350.1c0,3.6,0.7,6.3,3,6.3c2.3,0,3-2.8,3-6.3c0-3.5-0.6-6.1-2.9-6.1
	S1429.1,346.2,1429.1,350.1z"/>
<text transform="matrix(1 0 0 1 864.1045 399.0715)"><tspan x="0" y="0" class="st16 st4 st2 st3">C</tspan><tspan x="20" y="0" class="st16 st4 st2 st3">H</tspan><tspan x="40.7" y="0" class="st16 st4 st2 st3">I</tspan><tspan x="50.3" y="0" class="st16 st4 st2 st3">LD</tspan><tspan x="87.5" y="0" class="st16 st4 st2 st3">R</tspan><tspan x="106.5" y="0" class="st16 st4 st2 st3">E</tspan><tspan x="124.3" y="0" class="st16 st4 st2 st3">N</tspan><tspan x="145.7" y="0" class="st16 st4 st2 st3">’S</tspan><tspan x="172.5" y="0" class="st16 st4 st2 st3"> </tspan><tspan x="180.3" y="0" class="st16 st4 st2 st3">T</tspan><tspan x="196.8" y="0" class="st16 st4 st2">O</tspan><tspan x="217.3" y="0" class="st16 st4 st2 st3">Y</tspan><tspan x="234.5" y="0" class="st16 st4 st2">S</tspan></text>
<text transform="matrix(1 0 0 1 1116.9023 399.0715)" class="st16 st4 st2"> </text>
<text transform="matrix(1 0 0 1 1122.8564 399.0715)"><tspan x="0" y="0" class="st16 st4 st2 st3">..............................</tspan><tspan x="242.6" y="0" class="st16 st4 st2">.</tspan></text>
<path class="st16" d="M1384,401.4v-2.2c-3.1-0.4-4.9-2.3-5.2-4.9h3.7c0.3,1.5,1.5,2.3,3.2,2.3c2,0,2.8-0.9,2.8-2.2
	c0-1.4-0.8-2.1-3.4-2.8c-4.6-1.4-5.9-3.1-5.9-5.7c0-2.8,2-4.4,4.6-4.9v-1.8h3.2v1.8c3.4,0.5,4.6,2.6,4.8,4.6h-3.9
	c-0.2-0.6-0.6-1.9-2.7-1.9c-1.8,0-2.3,1.1-2.3,1.9c0,1.2,0.8,1.8,3.6,2.6c4.3,1.3,5.6,3.2,5.6,5.8c0,2.9-2,4.7-5,5.2v2.2H1384z
	 M1399,399.1v-13.4c-0.8,0.4-2.5,0.6-3.4,0.6v-2.7c1.6-0.3,3.5-1.3,4.6-2.4h2.7v17.9H1399z M1421.3,390c0,4.6-1.6,9.4-6.9,9.4
	c-5.1,0-6.9-4.4-6.9-9.3c0-4.5,1.8-9.2,7-9.2C1419.5,380.9,1421.3,385.3,1421.3,390z M1411.5,390.1c0,3.6,0.7,6.3,3,6.3
	c2.3,0,3-2.8,3-6.3c0-3.5-0.6-6.1-2.9-6.1S1411.5,386.2,1411.5,390.1z M1438.9,390c0,4.6-1.6,9.4-6.9,9.4c-5.1,0-6.9-4.4-6.9-9.3
	c0-4.5,1.8-9.2,7-9.2C1437.1,380.9,1438.9,385.3,1438.9,390z M1429.1,390.1c0,3.6,0.7,6.3,3,6.3c2.3,0,3-2.8,3-6.3
	c0-3.5-0.6-6.1-2.9-6.1S1429.1,386.2,1429.1,390.1z"/>
<text transform="matrix(1 0 0 1 864.1299 439.0598)"><tspan x="0" y="0" class="st17 st4 st2 st3">O</tspan><tspan x="21.1" y="0" class="st17 st4 st2 st3">T</tspan><tspan x="37.8" y="0" class="st17 st4 st2 st3">H</tspan><tspan x="58.6" y="0" class="st17 st4 st2 st3">E</tspan><tspan x="76.4" y="0" class="st17 st4 st2">R</tspan></text>
<text transform="matrix(1 0 0 1 959.3682 439.0598)" class="st17 st4 st2"> </text>
<text transform="matrix(1 0 0 1 961.1621 439.0598)"><tspan x="0" y="0" class="st17 st4 st2 st3">..................................................</tspan><tspan x="404.3" y="0" class="st17 st4 st2">.</tspan></text>
<path class="st17" d="M1384,441.4v-2.2c-3.1-0.4-4.9-2.3-5.2-4.9h3.7c0.3,1.5,1.5,2.3,3.2,2.3c2,0,2.8-0.9,2.8-2.2
	c0-1.4-0.8-2.1-3.4-2.8c-4.6-1.4-5.9-3.1-5.9-5.7c0-2.8,2-4.4,4.6-4.9v-1.8h3.2v1.8c3.4,0.5,4.6,2.6,4.8,4.6h-3.9
	c-0.2-0.6-0.6-1.9-2.7-1.9c-1.8,0-2.3,1.1-2.3,1.9c0,1.2,0.8,1.8,3.6,2.6c4.3,1.3,5.6,3.2,5.6,5.8c0,2.9-2,4.7-5,5.2v2.2H1384z
	 M1399,439.1v-13.4c-0.8,0.4-2.5,0.6-3.4,0.6v-2.7c1.6-0.3,3.5-1.3,4.6-2.4h2.7v17.9H1399z M1421.4,430c0,4.6-1.6,9.4-6.9,9.4
	c-5.1,0-6.9-4.4-6.9-9.3c0-4.5,1.8-9.2,7-9.2C1419.6,420.9,1421.4,425.3,1421.4,430z M1411.5,430.1c0,3.6,0.7,6.3,3,6.3
	c2.3,0,3-2.8,3-6.3c0-3.5-0.6-6.1-2.9-6.1S1411.5,426.2,1411.5,430.1z M1439,430c0,4.6-1.6,9.4-6.9,9.4c-5.1,0-6.9-4.4-6.9-9.3
	c0-4.5,1.8-9.2,7-9.2C1437.1,420.9,1439,425.3,1439,430z M1429.1,430.1c0,3.6,0.7,6.3,3,6.3c2.3,0,3-2.8,3-6.3
	c0-3.5-0.6-6.1-2.9-6.1S1429.1,426.2,1429.1,430.1z"/>
<text transform="matrix(1 0 0 1 864.1562 479.048)"><tspan x="0" y="0" class="st18 st4 st2 st3">M</tspan><tspan x="24.5" y="0" class="st18 st4 st2 st8">A</tspan><tspan x="44.5" y="0" class="st18 st4 st2 st3">JO</tspan><tspan x="77.8" y="0" class="st18 st4 st2 st3">R </tspan><tspan x="104.4" y="0" class="st18 st4 st2 st3">A</tspan><tspan x="123.8" y="0" class="st18 st4 st2 st3">PP</tspan><tspan x="159.8" y="0" class="st18 st4 st2 st3">L</tspan><tspan x="176.5" y="0" class="st18 st4 st2 st3">I</tspan><tspan x="186.1" y="0" class="st18 st4 st2 st3">A</tspan><tspan x="205.4" y="0" class="st18 st4 st2 st3">N</tspan><tspan x="226.5" y="0" class="st18 st4 st2 st3">C</tspan><tspan x="246.5" y="0" class="st18 st4 st2 st3">E</tspan><tspan x="264.3" y="0" class="st18 st4 st2">S</tspan></text>
<text transform="matrix(1 0 0 1 1146.6982 479.048)" class="st18 st4 st2"> </text>
<text transform="matrix(1 0 0 1 1147.166 479.048)"><tspan x="0" y="0" class="st18 st4 st2 st3">..........................</tspan><tspan x="210.2" y="0" class="st18 st4 st2">.</tspan></text>
<path class="st18" d="M1378.4,481.4v-2.2c-3.1-0.4-4.9-2.3-5.2-4.9h3.7c0.3,1.5,1.5,2.3,3.2,2.3c2,0,2.8-0.9,2.8-2.2
	c0-1.4-0.8-2.1-3.4-2.8c-4.6-1.4-5.9-3.1-5.9-5.7c0-2.8,2-4.4,4.6-4.9v-1.8h3.2v1.8c3.4,0.5,4.6,2.6,4.8,4.6h-3.9
	c-0.2-0.6-0.6-1.9-2.7-1.9c-1.8,0-2.3,1.1-2.3,1.9c0,1.2,0.8,1.8,3.6,2.6c4.3,1.3,5.6,3.2,5.6,5.8c0,2.9-2,4.7-5,5.2v2.2H1378.4z
	 M1398.4,479v-4.2h-8.1v-3.2l7.5-10.5h4.2v10.7h2.2l-0.4,2.9h-1.8v4.2H1398.4z M1398.4,468.5c0-2,0-3.1,0.1-4.2
	c-0.7,1.5-3.5,5.3-4.9,7.5h4.8V468.5z M1421.4,470c0,4.6-1.6,9.4-6.9,9.4c-5.1,0-6.9-4.4-6.9-9.3c0-4.5,1.8-9.2,7-9.2
	C1419.6,460.9,1421.4,465.2,1421.4,470z M1411.5,470.1c0,3.6,0.7,6.3,3,6.3c2.3,0,3-2.8,3-6.3c0-3.5-0.6-6.1-2.9-6.1
	S1411.5,466.2,1411.5,470.1z M1439,470c0,4.6-1.6,9.4-6.9,9.4c-5.1,0-6.9-4.4-6.9-9.3c0-4.5,1.8-9.2,7-9.2
	C1437.2,460.9,1439,465.2,1439,470z M1429.1,470.1c0,3.6,0.7,6.3,3,6.3c2.3,0,3-2.8,3-6.3c0-3.5-0.6-6.1-2.9-6.1
	S1429.1,466.2,1429.1,470.1z"/>
<line class="st19" x1="864" y1="509.6" x2="1440" y2="509.6"/>
<line class="st20" x1="75.7" y1="98.5" x2="115" y2="98.5"/>
<path class="st5" d="M12.5,104.7v-0.1c0-1.8,0.5-3.4,3.4-5.4c1.5-1.1,1.9-1.3,1.9-2.3c0-0.9-0.5-1.5-1.4-1.5c-1,0-1.4,0.6-1.6,1.6
	h-2.4c0.2-1.8,1.4-3.4,3.9-3.4c2.8,0,3.8,1.8,3.8,3.3c0,1.7-0.7,2.4-2.7,3.8c-1.4,0.9-2,1.6-2.2,2.2h5.4l-0.3,1.9H12.5z M22.9,104.7
	v-0.1c0-1.8,0.5-3.4,3.4-5.4c1.5-1.1,1.9-1.3,1.9-2.3c0-0.9-0.5-1.5-1.4-1.5c-1,0-1.4,0.6-1.6,1.6h-2.4c0.2-1.8,1.4-3.4,3.9-3.4
	c2.8,0,3.8,1.8,3.8,3.3c0,1.7-0.7,2.4-2.7,3.8c-1.4,0.9-2,1.6-2.2,2.2H31l-0.3,1.9H22.9z M33.6,104.7v-2.8h2.4v2.8H33.6z M46.8,99.1
	c0,2.8-1,5.8-4.2,5.8c-3.2,0-4.2-2.7-4.2-5.7c0-2.8,1.1-5.7,4.3-5.7C45.7,93.5,46.8,96.2,46.8,99.1z M40.7,99.2
	c0,2.2,0.4,3.9,1.9,3.9c1.4,0,1.8-1.7,1.8-3.9c0-2.1-0.4-3.8-1.8-3.8S40.7,96.8,40.7,99.2z M54.8,97c0,1.8-1,3-2.8,3
	c-1.7,0-2.8-1-2.8-3c0-1.7,1-3,2.8-3C53.6,94,54.8,95,54.8,97z M50.9,97c0,1,0.4,1.6,1.1,1.6c0.7,0,1.1-0.5,1.1-1.6
	c0-1.2-0.4-1.6-1.1-1.6S50.9,96,50.9,97z M51.9,104.7l6.5-10.5h1.7l-6.5,10.5H51.9z M62.9,101.9c0,1.8-1,3.1-2.8,3.1
	c-1.7,0-2.8-1.1-2.8-3c0-1.7,1-3,2.8-3C61.7,98.9,62.9,99.9,62.9,101.9z M59,101.9c0,1,0.4,1.6,1.1,1.6s1.1-0.5,1.1-1.6
	c0-1.1-0.4-1.6-1.1-1.6S59,100.8,59,101.9z"/>
<line class="st20" x1="75.7" y1="204" x2="115" y2="204"/>
<path class="st6" d="M18.2,210.3V202c-0.5,0.2-1.6,0.4-2.1,0.4v-1.7c1-0.2,2.2-0.8,2.8-1.5h1.7v11H18.2z M23.5,202.2
	c0.2-1.5,1.2-3.1,3.8-3.1c2.5,0,3.7,1.4,3.7,2.9c0,1.3-0.6,1.9-1.4,2.2v0c0.8,0.3,1.8,1,1.8,2.7c0,1.7-1.1,3.6-4.1,3.5
	c-2.6,0-3.9-1.6-4-3.3h2.3c0.2,0.8,0.6,1.5,1.8,1.5c1.2,0,1.7-0.7,1.7-1.7c0-1-0.4-1.7-1.9-1.7h-0.8v-1.8h0.8c1.1,0,1.6-0.3,1.6-1.2
	c0-0.8-0.4-1.3-1.4-1.3c-1.2,0-1.5,0.7-1.6,1.3H23.5z M34,210.3v-2.8h2.4v2.8H34z M46.6,201.1H42c-0.1,0.8-0.2,1.7-0.3,2.2
	c0.4-0.3,1-0.6,2-0.6c2,0,3.5,1.5,3.5,3.7c0,2.3-1.4,4.1-4.2,4.1c-2.1,0-3.7-1.1-4-3.2h2.3c0.2,0.7,0.7,1.3,1.8,1.3
	c1.3,0,1.8-0.8,1.8-2c0-1-0.4-2.1-1.8-2.1c-1.1,0-1.5,0.5-1.7,1.2l-2.1-0.3c0.3-1.3,0.7-4.6,0.9-6.1h6.8L46.6,201.1z M54.8,202.6
	c0,1.8-1,3-2.8,3c-1.7,0-2.8-1-2.8-3c0-1.7,1-3,2.8-3C53.6,199.5,54.8,200.6,54.8,202.6z M50.9,202.6c0,1,0.4,1.6,1.1,1.6
	c0.7,0,1.1-0.5,1.1-1.6c0-1.2-0.4-1.6-1.1-1.6S50.9,201.5,50.9,202.6z M51.9,210.3l6.5-10.5h1.7l-6.5,10.5H51.9z M62.9,207.4
	c0,1.8-1,3.1-2.8,3.1c-1.7,0-2.8-1.1-2.8-3c0-1.7,1-3,2.8-3C61.7,204.4,62.9,205.4,62.9,207.4z M59,207.4c0,1,0.4,1.6,1.1,1.6
	s1.1-0.5,1.1-1.6c0-1.1-0.4-1.6-1.1-1.6S59,206.3,59,207.4z"/>
<line class="st20" x1="75.7" y1="268.3" x2="115" y2="268.3"/>
<path class="st7" d="M17.6,274.5v-8.3c-0.5,0.2-1.6,0.4-2.1,0.4V265c1-0.2,2.2-0.8,2.8-1.5H20v11H17.6z M22.9,274.5v-0.1
	c0-1.8,0.5-3.4,3.4-5.4c1.5-1.1,1.9-1.3,1.9-2.3c0-0.9-0.5-1.5-1.4-1.5c-1,0-1.4,0.6-1.6,1.6h-2.4c0.2-1.8,1.4-3.4,3.9-3.4
	c2.8,0,3.8,1.8,3.8,3.3c0,1.7-0.7,2.4-2.7,3.8c-1.4,0.9-2,1.6-2.2,2.2H31l-0.3,1.9H22.9z M33.6,274.5v-2.8h2.4v2.8H33.6z
	 M46.8,268.9c0,2.8-1,5.8-4.2,5.8c-3.2,0-4.2-2.7-4.2-5.7c0-2.8,1.1-5.7,4.3-5.7C45.7,263.3,46.8,266,46.8,268.9z M40.7,269
	c0,2.2,0.4,3.9,1.9,3.9c1.4,0,1.8-1.7,1.8-3.9c0-2.1-0.4-3.8-1.8-3.8S40.7,266.6,40.7,269z M54.8,266.8c0,1.8-1,3-2.8,3
	c-1.7,0-2.8-1-2.8-3c0-1.7,1-3,2.8-3C53.6,263.8,54.8,264.8,54.8,266.8z M50.9,266.8c0,1,0.4,1.6,1.1,1.6c0.7,0,1.1-0.5,1.1-1.6
	c0-1.2-0.4-1.6-1.1-1.6S50.9,265.7,50.9,266.8z M51.9,274.5l6.5-10.5h1.7l-6.5,10.5H51.9z M62.9,271.6c0,1.8-1,3.1-2.8,3.1
	c-1.7,0-2.8-1.1-2.8-3c0-1.7,1-3,2.8-3C61.7,268.6,62.9,269.7,62.9,271.6z M59,271.6c0,1,0.4,1.6,1.1,1.6s1.1-0.5,1.1-1.6
	c0-1.1-0.4-1.6-1.1-1.6S59,270.6,59,271.6z"/>
<line class="st20" x1="75.7" y1="321.8" x2="115" y2="321.8"/>
<path class="st9" d="M22.3,328v-8.3c-0.5,0.2-1.6,0.4-2.1,0.4v-1.7c1-0.2,2.2-0.8,2.8-1.5h1.7v11H22.3z M29.5,328v-8.3
	c-0.5,0.2-1.6,0.4-2.1,0.4v-1.7c1-0.2,2.2-0.8,2.8-1.5h1.7v11H29.5z M35.1,328v-2.8h2.4v2.8H35.1z M47.1,317v1.7
	c-1.8,2.6-3.2,5.7-3.9,9.3h-2.6c0.5-3.6,2.4-7.2,4-9.1h-5.2V317H47.1z M54.8,320.3c0,1.8-1,3-2.8,3c-1.7,0-2.8-1-2.8-3
	c0-1.7,1-3,2.8-3C53.6,317.3,54.8,318.3,54.8,320.3z M50.9,320.3c0,1,0.4,1.6,1.1,1.6c0.7,0,1.1-0.5,1.1-1.6c0-1.2-0.4-1.6-1.1-1.6
	S50.9,319.2,50.9,320.3z M51.9,328l6.5-10.5h1.7L53.6,328H51.9z M62.9,325.2c0,1.8-1,3.1-2.8,3.1c-1.7,0-2.8-1.1-2.8-3
	c0-1.7,1-3,2.8-3C61.7,322.1,62.9,323.2,62.9,325.2z M59,325.2c0,1,0.4,1.6,1.1,1.6s1.1-0.5,1.1-1.6c0-1.1-0.4-1.6-1.1-1.6
	S59,324.1,59,325.2z"/>
<line class="st20" x1="75.7" y1="367.1" x2="115" y2="367.1"/>
<path class="st10" d="M22.9,370.2c0-1.5,1-2.2,1.8-2.6c-0.8-0.5-1.3-1.3-1.3-2.3c0-1.7,1.4-3.1,3.8-3.1c2.3,0,3.7,1.3,3.7,3
	c0,1.2-0.6,1.9-1.3,2.2c0.8,0.3,1.7,1.1,1.7,2.6c0,2.4-1.8,3.5-4.3,3.5C24.8,373.6,22.9,372.4,22.9,370.2z M29,370.1
	c0-1.1-0.7-1.6-1.9-1.6c-1.3,0-1.9,0.6-1.9,1.6c0,1,0.7,1.7,1.9,1.7C28.3,371.8,29,371.2,29,370.1z M25.6,365.3
	c0,0.8,0.5,1.3,1.6,1.3c1,0,1.6-0.5,1.6-1.3c0-0.9-0.6-1.4-1.6-1.4C26.1,364,25.6,364.5,25.6,365.3z M33.9,373.4v-2.8h2.4v2.8H33.9z
	 M39,365.3c0.2-1.5,1.2-3.1,3.8-3.1c2.5,0,3.7,1.4,3.7,2.9c0,1.3-0.6,1.9-1.4,2.2v0c0.8,0.3,1.8,1,1.8,2.7c0,1.7-1.1,3.6-4.1,3.5
	c-2.6,0-3.9-1.6-4-3.3h2.3c0.2,0.8,0.6,1.5,1.8,1.5c1.2,0,1.7-0.7,1.7-1.7c0-1-0.4-1.7-1.9-1.7h-0.8v-1.8h0.8c1.1,0,1.6-0.3,1.6-1.2
	c0-0.8-0.4-1.3-1.4-1.3c-1.2,0-1.5,0.7-1.6,1.3H39z M54.8,365.7c0,1.8-1,3-2.8,3c-1.7,0-2.8-1-2.8-3c0-1.7,1-3,2.8-3
	C53.6,362.6,54.8,363.7,54.8,365.7z M50.9,365.7c0,1,0.4,1.6,1.1,1.6c0.7,0,1.1-0.5,1.1-1.6c0-1.2-0.4-1.6-1.1-1.6
	S50.9,364.6,50.9,365.7z M51.9,373.4l6.5-10.5h1.7l-6.5,10.5H51.9z M62.9,370.5c0,1.8-1,3.1-2.8,3.1c-1.7,0-2.8-1.1-2.8-3
	c0-1.7,1-3,2.8-3C61.7,367.5,62.9,368.5,62.9,370.5z M59,370.5c0,1,0.4,1.6,1.1,1.6s1.1-0.5,1.1-1.6c0-1.1-0.4-1.6-1.1-1.6
	S59,369.5,59,370.5z"/>
<line class="st20" x1="75.7" y1="406" x2="115" y2="406"/>
<path class="st11" d="M33.1,401.2v1.7c-1.8,2.6-3.2,5.7-3.9,9.3h-2.6c0.5-3.6,2.4-7.2,4-9.1h-5.2v-1.9H33.1z M34,412.3v-2.8h2.4v2.8
	H34z M46.6,403.1H42c-0.1,0.8-0.2,1.7-0.3,2.2c0.4-0.3,1-0.6,2-0.6c2,0,3.5,1.5,3.5,3.7c0,2.3-1.4,4.1-4.2,4.1c-2.1,0-3.7-1.1-4-3.2
	h2.3c0.2,0.7,0.7,1.3,1.8,1.3c1.3,0,1.8-0.8,1.8-2c0-1-0.4-2.1-1.8-2.1c-1.1,0-1.5,0.5-1.7,1.2l-2.1-0.3c0.3-1.3,0.7-4.6,0.9-6.1
	h6.8L46.6,403.1z M54.8,404.6c0,1.8-1,3-2.8,3c-1.7,0-2.8-1-2.8-3c0-1.7,1-3,2.8-3C53.6,401.5,54.8,402.6,54.8,404.6z M50.9,404.6
	c0,1,0.4,1.6,1.1,1.6c0.7,0,1.1-0.5,1.1-1.6c0-1.2-0.4-1.6-1.1-1.6S50.9,403.5,50.9,404.6z M51.9,412.3l6.5-10.5h1.7l-6.5,10.5H51.9
	z M62.9,409.4c0,1.8-1,3.1-2.8,3.1c-1.7,0-2.8-1.1-2.8-3c0-1.7,1-3,2.8-3C61.7,406.4,62.9,407.4,62.9,409.4z M59,409.4
	c0,1,0.4,1.6,1.1,1.6s1.1-0.5,1.1-1.6c0-1.1-0.4-1.6-1.1-1.6S59,408.3,59,409.4z"/>
<line class="st20" x1="75.7" y1="439.5" x2="115" y2="439.5"/>
<path class="st13" d="M29.2,437.4c-0.1-0.5-0.5-1.1-1.5-1.1c-1.6,0-1.9,1.6-2,3.1c0.5-0.6,1.2-1.1,2.5-1.1c2,0,3.5,1.4,3.5,3.6
	c0,2.3-1.4,4-4.1,4c-3.1,0-4.3-2.3-4.3-5.6c0-2.4,0.8-5.8,4.4-5.8c2.5,0,3.5,1.5,3.7,2.8H29.2z M29.4,442.1c0-1.1-0.4-2-1.8-2
	c-1,0-1.7,0.6-1.7,1.9c0,1.1,0.5,2.1,1.7,2.1C28.8,444.1,29.4,443.3,29.4,442.1z M34.2,445.7v-2.8h2.4v2.8H34.2z M44,445.7v-2.6h-5
	v-2l4.6-6.5h2.6v6.6h1.3l-0.2,1.8h-1.1v2.6H44z M44,439.3c0-1.2,0-1.9,0-2.6c-0.4,0.9-2.2,3.2-3,4.6h3V439.3z M54.8,438
	c0,1.8-1,3-2.8,3c-1.7,0-2.8-1-2.8-3c0-1.7,1-3,2.8-3C53.6,435,54.8,436,54.8,438z M50.9,438c0,1,0.4,1.6,1.1,1.6
	c0.7,0,1.1-0.5,1.1-1.6c0-1.2-0.4-1.6-1.1-1.6S50.9,437,50.9,438z M51.9,445.7l6.5-10.5h1.7l-6.5,10.5H51.9z M62.9,442.9
	c0,1.8-1,3.1-2.8,3.1c-1.7,0-2.8-1.1-2.8-3c0-1.7,1-3,2.8-3C61.7,439.9,62.9,440.9,62.9,442.9z M59,442.9c0,1,0.4,1.6,1.1,1.6
	s1.1-0.5,1.1-1.6c0-1.1-0.4-1.6-1.1-1.6S59,441.8,59,442.9z"/>
<line class="st20" x1="75.7" y1="466" x2="115" y2="466"/>
<path class="st14" d="M30.7,463.1h-4.6c-0.1,0.8-0.2,1.7-0.3,2.2c0.4-0.3,1-0.6,2-0.6c2,0,3.5,1.5,3.5,3.7c0,2.3-1.4,4.1-4.2,4.1
	c-2.1,0-3.7-1.1-4-3.2h2.3c0.2,0.7,0.7,1.3,1.8,1.3c1.3,0,1.8-0.8,1.8-2c0-1-0.4-2.1-1.8-2.1c-1.1,0-1.5,0.5-1.7,1.2l-2.1-0.3
	c0.3-1.3,0.7-4.6,0.9-6.1H31L30.7,463.1z M33.8,472.3v-2.8h2.4v2.8H33.8z M39,472.3v-0.1c0-1.8,0.5-3.4,3.4-5.4
	c1.5-1.1,1.9-1.3,1.9-2.3c0-0.9-0.5-1.5-1.4-1.5c-1,0-1.4,0.6-1.6,1.6H39c0.2-1.8,1.4-3.4,3.9-3.4c2.8,0,3.8,1.8,3.8,3.3
	c0,1.7-0.7,2.4-2.7,3.8c-1.4,0.9-2,1.6-2.2,2.2h5.4l-0.3,1.9H39z M54.8,464.6c0,1.8-1,3-2.8,3c-1.7,0-2.8-1-2.8-3c0-1.7,1-3,2.8-3
	C53.6,461.5,54.8,462.6,54.8,464.6z M50.9,464.6c0,1,0.4,1.6,1.1,1.6c0.7,0,1.1-0.5,1.1-1.6c0-1.2-0.4-1.6-1.1-1.6
	S50.9,463.5,50.9,464.6z M51.9,472.3l6.5-10.5h1.7l-6.5,10.5H51.9z M62.9,469.4c0,1.8-1,3.1-2.8,3.1c-1.7,0-2.8-1.1-2.8-3
	c0-1.7,1-3,2.8-3C61.7,466.4,62.9,467.4,62.9,469.4z M59,469.4c0,1,0.4,1.6,1.1,1.6s1.1-0.5,1.1-1.6c0-1.1-0.4-1.6-1.1-1.6
	S59,468.3,59,469.4z"/>
<line class="st20" x1="75.7" y1="488.5" x2="115" y2="488.5"/>
<path class="st15" d="M27.8,494.8v-2.6h-5v-2l4.6-6.5H30v6.6h1.3l-0.2,1.8H30v2.6H27.8z M27.8,488.3c0-1.2,0-1.9,0-2.6
	c-0.4,0.9-2.2,3.2-3,4.6h3V488.3z M33.5,494.8v-2.8H36v2.8H33.5z M38.6,491.6c0-1.5,1-2.2,1.8-2.6c-0.8-0.5-1.3-1.3-1.3-2.3
	c0-1.7,1.4-3.1,3.8-3.1c2.3,0,3.7,1.3,3.7,3c0,1.2-0.6,1.9-1.3,2.2c0.8,0.3,1.7,1.1,1.7,2.6c0,2.4-1.8,3.5-4.3,3.5
	C40.4,495,38.6,493.8,38.6,491.6z M44.7,491.5c0-1.1-0.7-1.6-1.9-1.6c-1.3,0-1.9,0.6-1.9,1.6c0,1,0.7,1.7,1.9,1.7
	C44,493.1,44.7,492.6,44.7,491.5z M41.2,486.7c0,0.8,0.5,1.3,1.6,1.3c1,0,1.6-0.5,1.6-1.3c0-0.9-0.6-1.4-1.6-1.4
	C41.7,485.4,41.2,485.8,41.2,486.7z M54.8,487.1c0,1.8-1,3-2.8,3c-1.7,0-2.8-1-2.8-3c0-1.7,1-3,2.8-3
	C53.6,484,54.8,485.1,54.8,487.1z M50.9,487.1c0,1,0.4,1.6,1.1,1.6c0.7,0,1.1-0.5,1.1-1.6c0-1.2-0.4-1.6-1.1-1.6
	S50.9,486,50.9,487.1z M51.9,494.8l6.5-10.5h1.7l-6.5,10.5H51.9z M62.9,491.9c0,1.8-1,3.1-2.8,3.1c-1.7,0-2.8-1.1-2.8-3
	c0-1.7,1-3,2.8-3C61.7,488.9,62.9,489.9,62.9,491.9z M59,491.9c0,1,0.4,1.6,1.1,1.6s1.1-0.5,1.1-1.6c0-1.1-0.4-1.6-1.1-1.6
	S59,490.9,59,491.9z"/>
<line class="st20" x1="75.7" y1="506.8" x2="115" y2="506.8"/>
<path class="st16" d="M23.1,505c0.2-1.5,1.2-3.1,3.8-3.1c2.5,0,3.7,1.4,3.7,2.9c0,1.3-0.6,1.9-1.4,2.2v0c0.8,0.3,1.8,1,1.8,2.7
	c0,1.7-1.1,3.6-4.1,3.5c-2.6,0-3.9-1.6-4-3.3h2.3c0.2,0.8,0.6,1.5,1.8,1.5c1.2,0,1.7-0.7,1.7-1.7c0-1-0.4-1.7-1.9-1.7H26v-1.8h0.8
	c1.1,0,1.6-0.3,1.6-1.2c0-0.8-0.4-1.3-1.4-1.3c-1.2,0-1.5,0.7-1.6,1.3H23.1z M33.6,513.1v-2.8h2.4v2.8H33.6z M46.8,507.5
	c0,2.8-1,5.8-4.2,5.8c-3.2,0-4.2-2.7-4.2-5.7c0-2.8,1.1-5.7,4.3-5.7C45.7,501.9,46.8,504.6,46.8,507.5z M40.7,507.5
	c0,2.2,0.4,3.9,1.9,3.9c1.4,0,1.8-1.7,1.8-3.9c0-2.1-0.4-3.8-1.8-3.8S40.7,505.1,40.7,507.5z M54.8,505.4c0,1.8-1,3-2.8,3
	c-1.7,0-2.8-1-2.8-3c0-1.7,1-3,2.8-3C53.6,502.3,54.8,503.4,54.8,505.4z M50.9,505.4c0,1,0.4,1.6,1.1,1.6c0.7,0,1.1-0.5,1.1-1.6
	c0-1.2-0.4-1.6-1.1-1.6S50.9,504.3,50.9,505.4z M51.9,513.1l6.5-10.5h1.7l-6.5,10.5H51.9z M62.9,510.2c0,1.8-1,3.1-2.8,3.1
	c-1.7,0-2.8-1.1-2.8-3c0-1.7,1-3,2.8-3C61.7,507.2,62.9,508.2,62.9,510.2z M59,510.2c0,1,0.4,1.6,1.1,1.6s1.1-0.5,1.1-1.6
	c0-1.1-0.4-1.6-1.1-1.6S59,509.2,59,510.2z"/>
<line class="st20" x1="75.7" y1="521.6" x2="115" y2="521.6"/>
<path class="st17" d="M23.1,519.7c0.2-1.5,1.2-3.1,3.8-3.1c2.5,0,3.7,1.4,3.7,2.9c0,1.3-0.6,1.9-1.4,2.2v0c0.8,0.3,1.8,1,1.8,2.7
	c0,1.7-1.1,3.6-4.1,3.5c-2.6,0-3.9-1.6-4-3.3h2.3c0.2,0.8,0.6,1.5,1.8,1.5c1.2,0,1.7-0.7,1.7-1.7c0-1-0.4-1.7-1.9-1.7H26V521h0.8
	c1.1,0,1.6-0.3,1.6-1.2c0-0.8-0.4-1.3-1.4-1.3c-1.2,0-1.5,0.7-1.6,1.3H23.1z M33.6,527.8V525h2.4v2.8H33.6z M46.8,522.2
	c0,2.8-1,5.8-4.2,5.8c-3.2,0-4.2-2.7-4.2-5.7c0-2.8,1.1-5.7,4.3-5.7C45.7,516.6,46.8,519.3,46.8,522.2z M40.7,522.3
	c0,2.2,0.4,3.9,1.9,3.9c1.4,0,1.8-1.7,1.8-3.9c0-2.1-0.4-3.8-1.8-3.8S40.7,519.9,40.7,522.3z M54.8,520.1c0,1.8-1,3-2.8,3
	c-1.7,0-2.8-1-2.8-3c0-1.7,1-3,2.8-3C53.6,517.1,54.8,518.1,54.8,520.1z M50.9,520.1c0,1,0.4,1.6,1.1,1.6c0.7,0,1.1-0.5,1.1-1.6
	c0-1.2-0.4-1.6-1.1-1.6S50.9,519.1,50.9,520.1z M51.9,527.8l6.5-10.5h1.7l-6.5,10.5H51.9z M62.9,525c0,1.8-1,3.1-2.8,3.1
	c-1.7,0-2.8-1.1-2.8-3c0-1.7,1-3,2.8-3C61.7,522,62.9,523,62.9,525z M59,525c0,1,0.4,1.6,1.1,1.6s1.1-0.5,1.1-1.6
	c0-1.1-0.4-1.6-1.1-1.6S59,523.9,59,525z"/>
<line class="st20" x1="75.7" y1="536.4" x2="115" y2="536.4"/>
<path class="st18" d="M23.1,542.6v-0.1c0-1.8,0.5-3.4,3.4-5.4c1.5-1.1,1.9-1.3,1.9-2.3c0-0.9-0.5-1.5-1.4-1.5c-1,0-1.4,0.6-1.6,1.6
	h-2.4c0.2-1.8,1.4-3.4,3.9-3.4c2.8,0,3.8,1.8,3.8,3.3c0,1.7-0.7,2.4-2.7,3.8c-1.4,0.9-2,1.6-2.2,2.2h5.4l-0.3,1.9H23.1z M33.9,542.6
	v-2.8h2.4v2.8H33.9z M44.4,534.2c-0.1-0.5-0.5-1.1-1.5-1.1c-1.6,0-1.9,1.6-2,3.1c0.5-0.6,1.2-1.1,2.5-1.1c2,0,3.5,1.4,3.5,3.6
	c0,2.3-1.4,4-4.1,4c-3.1,0-4.3-2.3-4.3-5.6c0-2.4,0.8-5.8,4.4-5.8c2.5,0,3.5,1.5,3.7,2.8H44.4z M44.7,538.9c0-1.1-0.4-2-1.8-2
	c-1,0-1.7,0.6-1.7,1.9c0,1.1,0.5,2.1,1.7,2.1C44,540.9,44.7,540.2,44.7,538.9z M54.8,534.9c0,1.8-1,3-2.8,3c-1.7,0-2.8-1-2.8-3
	c0-1.7,1-3,2.8-3C53.6,531.9,54.8,532.9,54.8,534.9z M50.9,534.9c0,1,0.4,1.6,1.1,1.6c0.7,0,1.1-0.5,1.1-1.6c0-1.2-0.4-1.6-1.1-1.6
	S50.9,533.8,50.9,534.9z M51.9,542.6l6.5-10.5h1.7l-6.5,10.5H51.9z M62.9,539.7c0,1.8-1,3.1-2.8,3.1c-1.7,0-2.8-1.1-2.8-3
	c0-1.7,1-3,2.8-3C61.7,536.7,62.9,537.8,62.9,539.7z M59,539.7c0,1,0.4,1.6,1.1,1.6s1.1-0.5,1.1-1.6c0-1.1-0.4-1.6-1.1-1.6
	S59,538.7,59,539.7z"/>
<g>
	<defs>
		<path id="SVGID_1_" d="M100.6,540.5l226.6,114.9c-0.9-0.5-1.5-1.2-1.5-2.2L99,538.4C99.1,539.3,99.6,540.1,100.6,540.5"/>
	</defs>
	<clipPath id="SVGID_2_">
		<use xlink:href="#SVGID_1_"  style="overflow:visible;"/>
	</clipPath>
	<path class="st21" d="M327.1,655.5L100.6,540.5c-0.2-0.1-0.4-0.2-0.5-0.3l226.6,114.9C326.8,655.2,326.9,655.4,327.1,655.5"/>
	<path class="st21" d="M326.6,655.1L100,540.2c-0.1-0.1-0.2-0.1-0.2-0.2l226.6,114.9C326.4,655,326.5,655.1,326.6,655.1"/>
	<path class="st21" d="M326.4,654.9L99.8,540c-0.1,0-0.1-0.1-0.2-0.2l226.6,114.9C326.3,654.8,326.3,654.9,326.4,654.9"/>
	<path class="st21" d="M326.2,654.8L99.7,539.9c0,0-0.1-0.1-0.1-0.1l226.6,114.9C326.1,654.7,326.2,654.7,326.2,654.8"/>
	<path class="st21" d="M326.1,654.7L99.5,539.7c0,0-0.1-0.1-0.1-0.1L326,654.5C326,654.6,326.1,654.6,326.1,654.7"/>
	<path class="st21" d="M326,654.5L99.5,539.6c0,0,0-0.1-0.1-0.1l226.6,114.9C326,654.5,326,654.5,326,654.5"/>
	<path class="st21" d="M325.9,654.4L99.4,539.5c0,0,0-0.1-0.1-0.1l226.6,114.9C325.9,654.4,325.9,654.4,325.9,654.4"/>
	<path class="st22" d="M325.9,654.3L99.3,539.4c0,0,0-0.1,0-0.1L325.9,654.3C325.8,654.3,325.9,654.3,325.9,654.3"/>
	<path class="st22" d="M325.8,654.2L99.3,539.3c0,0,0-0.1,0-0.1L325.8,654.2C325.8,654.2,325.8,654.2,325.8,654.2"/>
	<path class="st22" d="M325.8,654.1L99.2,539.2c0,0,0-0.1,0-0.1L325.8,654.1C325.8,654.1,325.8,654.1,325.8,654.1"/>
	<path class="st22" d="M325.8,654L99.2,539.1c0,0,0-0.1,0-0.1L325.8,654C325.7,654,325.7,654,325.8,654"/>
	<path class="st22" d="M325.7,654L99.2,539.1c0,0,0-0.1,0-0.1L325.7,654C325.7,653.9,325.7,653.9,325.7,654"/>
	<path class="st23" d="M325.7,653.9L99.1,539c0,0,0-0.1,0-0.1L325.7,653.9C325.7,653.8,325.7,653.8,325.7,653.9"/>
	<path class="st23" d="M325.7,653.8L99.1,538.9c0,0,0-0.1,0-0.1L325.7,653.8C325.7,653.7,325.7,653.8,325.7,653.8"/>
	<path class="st23" d="M325.6,653.7L99.1,538.8c0,0,0-0.1,0-0.1L325.6,653.7C325.6,653.6,325.6,653.7,325.6,653.7"/>
	<path class="st23" d="M325.6,653.6L99.1,538.7c0,0,0-0.1,0-0.1L325.6,653.6C325.6,653.5,325.6,653.6,325.6,653.6"/>
	<path class="st23" d="M325.6,653.5L99.1,538.6c0,0,0-0.1,0-0.1L325.6,653.5C325.6,653.4,325.6,653.5,325.6,653.5"/>
	<path class="st23" d="M325.6,653.4L99.1,538.5c0,0,0-0.1,0-0.1L325.6,653.4C325.6,653.3,325.6,653.4,325.6,653.4"/>
	<path class="st23" d="M325.6,653.3L99,538.4c0,0,0,0,0,0L325.6,653.3C325.6,653.3,325.6,653.3,325.6,653.3"/>
</g>
<g>
	<defs>
		<rect id="SVGID_3_" y="0" width="1507.4" height="656"/>
	</defs>
	<clipPath id="SVGID_4_">
		<use xlink:href="#SVGID_3_"  style="overflow:visible;"/>
	</clipPath>
	<path class="st24" d="M767.9,582.7l0.1,8.4c0,1.8-2.3,3.7-5.1,4.1l-432.1,60.7c-2.9,0.4-5.2-0.8-5.2-2.6l-0.1-8.4L767.9,582.7z"/>
</g>
<polygon class="st25" points="325.6,653.3 99,538.4 99,530 325.6,644.9 "/>
<polygon class="st26" points="325.6,644.9 99,530 541.4,467.8 767.9,582.7 "/>
<polygon class="st27" points="767.8,567.6 767.9,582.7 325.6,644.9 325.5,629.8 "/>
<polygon class="st28" points="325.6,644.9 99,530 98.9,514.9 325.5,629.8 "/>
<polygon class="st29" points="325.5,629.8 98.9,514.9 541.3,452.7 767.9,567.6 "/>
<polygon class="st30" points="767.8,552.6 767.8,567.6 325.5,629.8 325.4,614.7 "/>
<polygon class="st31" points="325.5,629.8 98.9,514.9 98.8,499.8 325.4,614.7 "/>
<polygon class="st32" points="325.4,614.7 98.8,499.8 541.2,437.6 767.8,552.6 "/>
<polygon class="st33" points="767.6,530.7 767.8,552.6 325.4,614.7 325.2,592.9 "/>
<polygon class="st34" points="325.4,614.7 98.8,499.8 98.7,478 325.2,592.9 "/>
<polygon class="st35" points="325.2,592.9 98.7,478 541.1,415.8 767.6,530.7 "/>
<polygon class="st36" points="767.5,505.6 767.6,530.7 325.2,592.9 325.1,567.8 "/>
<polygon class="st37" points="325.2,592.9 98.7,478 98.5,452.9 325.1,567.8 "/>
<polygon class="st38" points="325.1,567.8 98.5,452.9 540.9,390.7 767.5,505.6 "/>
<polygon class="st39" points="767.2,473.7 767.5,505.6 325.1,567.8 324.9,535.9 "/>
<polygon class="st40" points="325.1,567.8 98.5,452.9 98.3,421 324.9,535.9 "/>
<polygon class="st41" points="324.9,535.9 98.3,421 540.7,358.8 767.2,473.7 "/>
<polygon class="st42" points="767,438.5 767.2,473.7 324.9,535.9 324.6,500.7 "/>
<polygon class="st43" points="324.9,535.9 98.3,421 98.1,385.8 324.6,500.7 "/>
<polygon class="st44" points="324.6,500.7 98.1,385.8 540.5,323.6 767,438.5 "/>
<polygon class="st45" points="766.8,398.3 767,438.5 324.6,500.7 324.4,460.5 "/>
<polygon class="st46" points="324.6,500.7 98.1,385.8 97.8,345.5 324.4,460.5 "/>
<polygon class="st47" points="324.4,460.5 97.8,345.5 540.2,283.4 766.8,398.3 "/>
<polygon class="st48" points="766.4,342.9 766.8,398.3 324.4,460.5 324,405.1 "/>
<polygon class="st49" points="324.4,460.5 97.8,345.5 97.5,290.2 324,405.1 "/>
<polygon class="st50" points="324,405.1 97.5,290.2 539.8,228 766.4,342.9 "/>
<polygon class="st51" points="766,284.3 766.4,342.9 324,405.1 323.6,346.4 "/>
<polygon class="st52" points="324,405.1 97.5,290.2 97.1,231.5 323.6,346.4 "/>
<polygon class="st53" points="323.6,346.4 97.1,231.5 539.5,169.4 766,284.3 "/>
<polygon class="st54" points="765.6,220.5 766,284.3 323.6,346.4 323.2,282.7 "/>
<polygon class="st55" points="323.6,346.4 97.1,231.5 96.7,167.8 323.2,282.7 "/>
<polygon class="st56" points="323.2,282.7 96.7,167.8 539.1,105.6 765.6,220.5 "/>
<polygon class="st57" points="765,114.9 765.6,220.5 323.2,282.7 322.6,177.1 "/>
<polygon class="st58" points="323.2,282.7 96.7,167.8 96,62.2 322.6,177.1 "/>
<polygon class="st59" points="538.4,0 96,62.2 322.6,177.1 765,114.9 "/>
</svg>
