<?xml version="1.0" encoding="utf-8"?>
<!-- Generator: Adobe Illustrator 21.1.0, SVG Export Plug-In . SVG Version: 6.00 Build 0)  -->
<svg version="1.1" xmlns="http://www.w3.org/2000/svg" xmlns:xlink="http://www.w3.org/1999/xlink" x="0px" y="0px"
	 viewBox="0 0 1237.1 473.2" style="enable-background:new 0 0 1237.1 473.2;" xml:space="preserve">
<style type="text/css">
	.st0{clip-path:url(#SVGID_2_);fill:#FFFFFF;}
	.st1{clip-path:url(#SVGID_2_);fill:#00FFFF;}
	.st2{clip-path:url(#SVGID_2_);fill:#E95F93;}
	.st3{clip-path:url(#SVGID_2_);fill:none;stroke:#FAFAFF;stroke-dasharray:3.986,3.986;}
	.st4{clip-path:url(#SVGID_2_);fill:none;stroke:#FAFAFF;stroke-dasharray:3.96,3.96;}
	.st5{clip-path:url(#SVGID_2_);fill:none;stroke:#FAFAFF;stroke-dasharray:4.055,4.055;}
	.st6{clip-path:url(#SVGID_2_);fill:none;stroke:#FAFAFF;stroke-dasharray:4.13,4.13;}
	.st7{clip-path:url(#SVGID_2_);fill:none;stroke:#FAFAFF;stroke-width:2;}
	.st8{clip-path:url(#SVGID_2_);fill:none;stroke:#FAFAFF;stroke-dasharray:3.976,3.976;}
	.st9{clip-path:url(#SVGID_2_);fill:none;stroke:#FAFAFF;stroke-dasharray:4.032,4.032;}
	.st10{clip-path:url(#SVGID_2_);fill:none;stroke:#FAFAFF;stroke-dasharray:4.172,4.172;}
	.st11{clip-path:url(#SVGID_2_);fill:none;stroke:#FAFAFF;stroke-width:0.4;}
	.st12{clip-path:url(#SVGID_2_);fill:#FFB04E;}
	.st13{clip-path:url(#SVGID_2_);fill:none;stroke:#FAFAFF;stroke-dasharray:3.944,3.944;}
	.st14{clip-path:url(#SVGID_2_);fill:none;stroke:#FAFAFF;stroke-dasharray:4.011,4.011;}
	.st15{clip-path:url(#SVGID_2_);}
	.st16{clip-path:url(#SVGID_4_);fill:#00FFFF;}
	.st17{clip-path:url(#SVGID_4_);fill:#29CEF4;}
	.st18{clip-path:url(#SVGID_4_);fill:#12E17E;}
	.st19{clip-path:url(#SVGID_2_);fill:#29CEF4;}
	.st20{clip-path:url(#SVGID_2_);fill:#12E17E;}
	.st21{clip-path:url(#SVGID_6_);fill:#FFB04E;}
	.st22{clip-path:url(#SVGID_6_);fill:#E95F93;}
	.st23{fill:#FFFFFF;}
	.st24{font-family:'AcuminPro-SemiboldItalic';}
	.st25{font-size:16px;}
	.st26{clip-path:url(#SVGID_2_);fill:none;stroke:#FFFFFF;stroke-width:1.5;}
	.st27{clip-path:url(#SVGID_2_);fill:#FF2119;}
	.st28{display:none;}
	.st29{display:inline;fill:none;stroke:#FF2119;stroke-width:1.5;stroke-dasharray:5.984,5.984;}
	.st30{display:inline;fill:none;stroke:#FF2119;stroke-width:1.5;stroke-dasharray:6.053,6.053;}
	.st31{display:inline;fill:#FF2119;}
	.st32{display:inline;fill:#FFFFFF;}
	.st33{display:inline;fill:none;stroke:#231F20;}
	.st34{display:inline;}
	.st35{fill:#231F20;}
	.st36{font-family:'AcuminPro-Bold';}
	.st37{display:inline;fill:none;}
</style>
<g id="Layer_1">
	<g>
		<defs>
			<rect id="SVGID_1_" width="1237.1" height="473.2"/>
		</defs>
		<clipPath id="SVGID_2_">
			<use xlink:href="#SVGID_1_"  style="overflow:visible;"/>
		</clipPath>
		<path class="st0" d="M82.2,436.4c0,2.8-1,5.8-4.2,5.8c-3.2,0-4.2-2.7-4.2-5.7c0-2.8,1.1-5.7,4.3-5.7
			C81.1,430.8,82.2,433.5,82.2,436.4z M76.1,436.4c0,2.2,0.4,3.9,1.9,3.9c1.4,0,1.8-1.7,1.8-3.9c0-2.1-0.4-3.8-1.8-3.8
			S76.1,434,76.1,436.4z M99.3,437.8c0-1.9,0-4,0.1-5.2h-0.1c-0.5,2.3-1.6,5.9-2.7,9.4h-2c-0.8-3-2-7.2-2.4-9.4h-0.1
			c0.1,1.3,0.1,3.6,0.1,5.5v4H90v-11h3.6c0.9,2.9,1.8,6.5,2.2,8.1h0c0.3-1.4,1.5-5.3,2.4-8.1h3.4v11h-2.3V437.8z M115.3,436.4
			c0,3.1-1.8,5.7-5.4,5.7c-3.5,0-5.3-2.5-5.3-5.7c0-3.2,2-5.7,5.4-5.7C113.3,430.8,115.3,433,115.3,436.4z M107.1,436.4
			c0,2.2,0.9,3.8,2.9,3.8c2.1,0,2.9-1.8,2.9-3.7c0-2.1-0.9-3.7-2.9-3.7C108,432.7,107.1,434.2,107.1,436.4z"/>
		<path class="st1" d="M457.6,442v-8.3c-0.5,0.2-1.6,0.4-2.1,0.4v-1.7c1-0.2,2.2-0.8,2.8-1.5h1.7v11H457.6z M471,442v-3.9
			c0-0.1,0-0.2-0.1-0.4l-3.8-6.8h2.7c0.8,1.7,2,3.9,2.5,5.1c0.5-1.2,1.7-3.5,2.5-5.1h2.5l-3.9,6.7c0,0.1-0.1,0.1-0.1,0.4v3.9H471z
			 M481.9,437.5v4.4h-2.3v-11h4.8c2.4,0,3.7,1.3,3.7,3c0,1.5-0.8,2.3-1.6,2.6c0.5,0.2,1.4,0.8,1.4,2.8v0.5c0,0.7,0,1.6,0.2,2.1h-2.3
			c-0.2-0.5-0.2-1.3-0.2-2.5v-0.2c0-1.2-0.3-1.8-2.1-1.8H481.9z M481.9,435.6h2c1.3,0,1.8-0.5,1.8-1.4c0-0.9-0.6-1.4-1.8-1.4h-2
			V435.6z"/>
		<path class="st2" d="M1168.1,433.9c0.2-1.5,1.2-3.1,3.8-3.1c2.5,0,3.7,1.4,3.7,2.9c0,1.3-0.6,1.9-1.4,2.2v0c0.8,0.3,1.8,1,1.8,2.7
			c0,1.7-1.1,3.6-4.1,3.5c-2.6,0-3.9-1.6-4-3.3h2.3c0.2,0.8,0.6,1.5,1.8,1.5c1.2,0,1.7-0.7,1.7-1.7c0-1-0.4-1.7-1.9-1.7h-0.8v-1.8
			h0.8c1.1,0,1.6-0.3,1.6-1.2c0-0.8-0.4-1.3-1.4-1.3c-1.2,0-1.5,0.7-1.6,1.3H1168.1z M1186.2,442v-3.9c0-0.1,0-0.2-0.1-0.4l-3.8-6.8
			h2.7c0.8,1.7,2,3.9,2.5,5.1c0.5-1.2,1.7-3.5,2.5-5.1h2.5l-3.9,6.7c0,0.1-0.1,0.1-0.1,0.4v3.9H1186.2z M1197.2,437.5v4.4h-2.3v-11
			h4.8c2.4,0,3.7,1.3,3.7,3c0,1.5-0.8,2.3-1.6,2.6c0.5,0.2,1.4,0.8,1.4,2.8v0.5c0,0.7,0,1.6,0.2,2.1h-2.3c-0.2-0.5-0.2-1.3-0.2-2.5
			v-0.2c0-1.2-0.3-1.8-2.1-1.8H1197.2z M1197.2,435.6h2c1.3,0,1.8-0.5,1.8-1.4c0-0.9-0.6-1.4-1.8-1.4h-2V435.6z M1208.2,438.7
			c0.3,1.1,1,1.6,2.3,1.6s1.8-0.5,1.8-1.3c0-0.9-0.5-1.3-2.4-1.7c-3-0.7-3.7-1.8-3.7-3.3c0-1.9,1.4-3.2,4-3.2c2.9,0,4.1,1.6,4.3,3.2
			h-2.4c-0.1-0.7-0.5-1.4-1.9-1.4c-1,0-1.6,0.4-1.6,1.2c0,0.8,0.5,1.1,2.3,1.5c3.2,0.8,3.9,2,3.9,3.5c0,2-1.5,3.4-4.4,3.4
			c-2.8,0-4.3-1.4-4.5-3.4H1208.2z"/>
		<line class="st3" x1="88.2" y1="147.3" x2="817.7" y2="147.3"/>
		<line class="st4" x1="88.2" y1="246.3" x2="472.3" y2="246.3"/>
		<line class="st5" x1="88.2" y1="286.8" x2="286.9" y2="286.8"/>
		<line class="st6" x1="88.2" y1="334.5" x2="183.2" y2="334.5"/>
		<path class="st0" d="M38,394.9v-1.4c-1.9-0.3-3-1.4-3.2-3h2.3c0.2,0.9,0.9,1.4,2,1.4c1.2,0,1.7-0.6,1.7-1.3c0-0.8-0.5-1.3-2.1-1.7
			c-2.8-0.8-3.6-1.9-3.6-3.5c0-1.7,1.2-2.7,2.8-3v-1.1h2v1.1c2.1,0.3,2.8,1.6,3,2.8h-2.4c-0.1-0.4-0.4-1.2-1.7-1.2
			c-1.1,0-1.4,0.7-1.4,1.2c0,0.8,0.5,1.1,2.2,1.6c2.7,0.8,3.5,2,3.5,3.6c0,1.8-1.2,2.9-3.1,3.2v1.4H38z M53.8,387.9
			c0,2.8-1,5.8-4.2,5.8c-3.2,0-4.2-2.7-4.2-5.7c0-2.8,1.1-5.7,4.3-5.7C52.6,382.3,53.8,385,53.8,387.9z M47.7,387.9
			c0,2.2,0.4,3.9,1.9,3.9c1.4,0,1.8-1.7,1.8-3.9c0-2.1-0.4-3.8-1.8-3.8S47.7,385.5,47.7,387.9z M56.1,393.5v-2.8h2.4v2.8H56.1z
			 M69.3,387.9c0,2.8-1,5.8-4.2,5.8c-3.2,0-4.2-2.7-4.2-5.7c0-2.8,1.1-5.7,4.3-5.7C68.2,382.3,69.3,385,69.3,387.9z M63.2,387.9
			c0,2.2,0.4,3.9,1.9,3.9c1.4,0,1.8-1.7,1.8-3.9c0-2.1-0.4-3.8-1.8-3.8C63.7,384.1,63.2,385.5,63.2,387.9z M80.2,387.9
			c0,2.8-1,5.8-4.2,5.8c-3.2,0-4.2-2.7-4.2-5.7c0-2.8,1.1-5.7,4.3-5.7C79.1,382.3,80.2,385,80.2,387.9z M74.1,387.9
			c0,2.2,0.4,3.9,1.9,3.9c1.4,0,1.8-1.7,1.8-3.9c0-2.1-0.4-3.8-1.8-3.8S74.1,385.5,74.1,387.9z"/>
		<path class="st0" d="M42.9,302.8v-1.4c-1.9-0.3-3-1.4-3.2-3H42c0.2,0.9,0.9,1.4,2,1.4c1.2,0,1.7-0.6,1.7-1.3
			c0-0.8-0.5-1.3-2.1-1.7c-2.8-0.8-3.6-1.9-3.6-3.5c0-1.7,1.2-2.7,2.8-3v-1.1h2v1.1c2.1,0.3,2.8,1.6,3,2.8h-2.4
			c-0.1-0.4-0.4-1.2-1.7-1.2c-1.1,0-1.4,0.7-1.4,1.2c0,0.8,0.5,1.1,2.2,1.6c2.7,0.8,3.5,2,3.5,3.6c0,1.8-1.2,2.9-3.1,3.2v1.4H42.9z
			 M57.9,292.2h-4.6c-0.1,0.8-0.2,1.7-0.3,2.2c0.4-0.3,1-0.6,2-0.6c2,0,3.5,1.5,3.5,3.7c0,2.3-1.4,4.1-4.2,4.1c-2.1,0-3.7-1.1-4-3.2
			h2.3c0.2,0.7,0.7,1.3,1.8,1.3c1.3,0,1.8-0.8,1.8-2c0-1-0.4-2.1-1.8-2.1c-1.1,0-1.5,0.5-1.7,1.2l-2.1-0.3c0.3-1.3,0.7-4.6,0.9-6.1
			h6.8L57.9,292.2z M69.3,295.8c0,2.8-1,5.8-4.2,5.8c-3.2,0-4.2-2.7-4.2-5.7c0-2.8,1.1-5.7,4.3-5.7
			C68.2,290.2,69.3,292.8,69.3,295.8z M63.2,295.8c0,2.2,0.4,3.9,1.9,3.9c1.4,0,1.8-1.7,1.8-3.9c0-2.1-0.4-3.8-1.8-3.8
			S63.2,293.4,63.2,295.8z M80.2,295.8c0,2.8-1,5.8-4.2,5.8c-3.2,0-4.2-2.7-4.2-5.7c0-2.8,1.1-5.7,4.3-5.7
			C79.1,290.2,80.2,292.8,80.2,295.8z M74.1,295.8c0,2.2,0.4,3.9,1.9,3.9c1.4,0,1.8-1.7,1.8-3.9c0-2.1-0.4-3.8-1.8-3.8
			S74.1,293.4,74.1,295.8z"/>
		<path class="st0" d="M27.2,118.6v-1.4c-1.9-0.3-3-1.4-3.2-3h2.3c0.2,0.9,0.9,1.4,2,1.4c1.2,0,1.7-0.6,1.7-1.3
			c0-0.8-0.5-1.3-2.1-1.7c-2.8-0.8-3.6-1.9-3.6-3.5c0-1.7,1.2-2.7,2.8-3v-1.1h2v1.1c2.1,0.3,2.8,1.6,3,2.8h-2.4
			c-0.1-0.4-0.4-1.2-1.7-1.2c-1.1,0-1.4,0.7-1.4,1.2c0,0.8,0.5,1.1,2.2,1.6c2.7,0.8,3.5,2,3.5,3.6c0,1.8-1.2,2.9-3.1,3.2v1.4H27.2z
			 M34.5,117.1V117c0-1.8,0.5-3.4,3.4-5.4c1.5-1.1,1.9-1.3,1.9-2.3c0-0.9-0.5-1.5-1.4-1.5c-1,0-1.4,0.6-1.6,1.6h-2.4
			c0.2-1.8,1.4-3.4,3.9-3.4c2.8,0,3.8,1.8,3.8,3.3c0,1.7-0.7,2.4-2.7,3.8c-1.4,0.9-2,1.6-2.2,2.2h5.4l-0.3,1.9H34.5z M44.4,119
			c0.9-2.1,1.1-3.5,1.2-4.7h2.4c-0.2,1.6-0.7,3.4-1.8,4.7H44.4z M57.9,108h-4.6c-0.1,0.8-0.2,1.7-0.3,2.2c0.4-0.3,1-0.6,2-0.6
			c2,0,3.5,1.5,3.5,3.7c0,2.3-1.4,4.1-4.2,4.1c-2.1,0-3.7-1.1-4-3.2h2.3c0.2,0.7,0.7,1.3,1.8,1.3c1.3,0,1.8-0.8,1.8-2
			c0-1-0.4-2.1-1.8-2.1c-1.1,0-1.5,0.5-1.7,1.2l-2.1-0.3c0.3-1.3,0.7-4.6,0.9-6.1h6.8L57.9,108z M69.3,111.5c0,2.8-1,5.8-4.2,5.8
			c-3.2,0-4.2-2.7-4.2-5.7c0-2.8,1.1-5.7,4.3-5.7C68.2,105.9,69.3,108.6,69.3,111.5z M63.2,111.6c0,2.2,0.4,3.9,1.9,3.9
			c1.4,0,1.8-1.7,1.8-3.9c0-2.1-0.4-3.8-1.8-3.8S63.2,109.2,63.2,111.6z M80.2,111.5c0,2.8-1,5.8-4.2,5.8c-3.2,0-4.2-2.7-4.2-5.7
			c0-2.8,1.1-5.7,4.3-5.7C79.1,105.9,80.2,108.6,80.2,111.5z M74.1,111.6c0,2.2,0.4,3.9,1.9,3.9c1.4,0,1.8-1.7,1.8-3.9
			c0-2.1-0.4-3.8-1.8-3.8S74.1,109.2,74.1,111.6z"/>
		<path class="st0" d="M30.3,210.7v-1.4c-1.9-0.3-3-1.4-3.2-3h2.3c0.2,0.9,0.9,1.4,2,1.4c1.2,0,1.7-0.6,1.7-1.3
			c0-0.8-0.5-1.3-2.1-1.7c-2.8-0.8-3.6-1.9-3.6-3.5c0-1.7,1.2-2.7,2.8-3V197h2v1.1c2.1,0.3,2.8,1.6,3,2.8h-2.4
			c-0.1-0.4-0.4-1.2-1.7-1.2c-1.1,0-1.4,0.7-1.4,1.2c0,0.8,0.5,1.1,2.2,1.6c2.7,0.8,3.5,2,3.5,3.6c0,1.8-1.2,2.9-3.1,3.2v1.4H30.3z
			 M39.6,209.2V201c-0.5,0.2-1.6,0.4-2.1,0.4v-1.7c1-0.2,2.2-0.8,2.8-1.5H42v11H39.6z M44.4,211.1c0.9-2.1,1.1-3.5,1.2-4.7h2.4
			c-0.2,1.6-0.7,3.4-1.8,4.7H44.4z M57.9,200.1h-4.6c-0.1,0.8-0.2,1.7-0.3,2.2c0.4-0.3,1-0.6,2-0.6c2,0,3.5,1.5,3.5,3.7
			c0,2.3-1.4,4.1-4.2,4.1c-2.1,0-3.7-1.1-4-3.2h2.3c0.2,0.7,0.7,1.3,1.8,1.3c1.3,0,1.8-0.8,1.8-2c0-1-0.4-2.1-1.8-2.1
			c-1.1,0-1.5,0.5-1.7,1.2l-2.1-0.3c0.3-1.3,0.7-4.6,0.9-6.1h6.8L57.9,200.1z M69.3,203.7c0,2.8-1,5.8-4.2,5.8
			c-3.2,0-4.2-2.7-4.2-5.7c0-2.8,1.1-5.7,4.3-5.7C68.2,198.1,69.3,200.7,69.3,203.7z M63.2,203.7c0,2.2,0.4,3.9,1.9,3.9
			c1.4,0,1.8-1.7,1.8-3.9c0-2.1-0.4-3.8-1.8-3.8C63.7,199.9,63.2,201.3,63.2,203.7z M80.2,203.7c0,2.8-1,5.8-4.2,5.8
			c-3.2,0-4.2-2.7-4.2-5.7c0-2.8,1.1-5.7,4.3-5.7C79.1,198.1,80.2,200.7,80.2,203.7z M74.1,203.7c0,2.2,0.4,3.9,1.9,3.9
			c1.4,0,1.8-1.7,1.8-3.9c0-2.1-0.4-3.8-1.8-3.8S74.1,201.3,74.1,203.7z"/>
		<path class="st0" d="M27.3,26.5v-1.4c-1.9-0.3-3-1.4-3.2-3h2.3c0.2,0.9,0.9,1.4,2,1.4c1.2,0,1.7-0.6,1.7-1.3
			c0-0.8-0.5-1.3-2.1-1.7c-2.8-0.8-3.6-1.9-3.6-3.5c0-1.7,1.2-2.7,2.8-3v-1.1h2v1.1c2.1,0.3,2.8,1.6,3,2.8h-2.4
			c-0.1-0.4-0.4-1.2-1.7-1.2c-1.1,0-1.4,0.7-1.4,1.2c0,0.8,0.5,1.1,2.2,1.6c2.7,0.8,3.5,2,3.5,3.6c0,1.8-1.2,2.9-3.1,3.2v1.4H27.3z
			 M34.8,17c0.2-1.5,1.2-3.1,3.8-3.1c2.5,0,3.7,1.4,3.7,2.9c0,1.3-0.6,1.9-1.4,2.2v0c0.8,0.3,1.8,1,1.8,2.7c0,1.7-1.1,3.6-4.1,3.5
			c-2.6,0-3.9-1.6-4-3.3h2.3c0.2,0.8,0.6,1.5,1.8,1.5c1.2,0,1.7-0.7,1.7-1.7c0-1-0.4-1.7-1.9-1.7h-0.8v-1.8h0.8
			c1.1,0,1.6-0.3,1.6-1.2c0-0.8-0.4-1.3-1.4-1.3c-1.2,0-1.5,0.7-1.6,1.3H34.8z M44.4,26.9c0.9-2.1,1.1-3.5,1.2-4.7h2.4
			c-0.2,1.6-0.7,3.4-1.8,4.7H44.4z M57.9,15.9h-4.6c-0.1,0.8-0.2,1.7-0.3,2.2c0.4-0.3,1-0.6,2-0.6c2,0,3.5,1.5,3.5,3.7
			c0,2.3-1.4,4.1-4.2,4.1c-2.1,0-3.7-1.1-4-3.2h2.3c0.2,0.7,0.7,1.3,1.8,1.3c1.3,0,1.8-0.8,1.8-2c0-1-0.4-2.1-1.8-2.1
			c-1.1,0-1.5,0.5-1.7,1.2l-2.1-0.3c0.3-1.3,0.7-4.6,0.9-6.1h6.8L57.9,15.9z M69.3,19.4c0,2.8-1,5.8-4.2,5.8c-3.2,0-4.2-2.7-4.2-5.7
			c0-2.8,1.1-5.7,4.3-5.7C68.2,13.8,69.3,16.5,69.3,19.4z M63.2,19.5c0,2.2,0.4,3.9,1.9,3.9c1.4,0,1.8-1.7,1.8-3.9
			c0-2.1-0.4-3.8-1.8-3.8C63.7,15.7,63.2,17.1,63.2,19.5z M80.2,19.4c0,2.8-1,5.8-4.2,5.8c-3.2,0-4.2-2.7-4.2-5.7
			c0-2.8,1.1-5.7,4.3-5.7C79.1,13.8,80.2,16.5,80.2,19.4z M74.1,19.5c0,2.2,0.4,3.9,1.9,3.9c1.4,0,1.8-1.7,1.8-3.9
			c0-2.1-0.4-3.8-1.8-3.8S74.1,17.1,74.1,19.5z"/>
		<line class="st7" x1="87.9" y1="386.9" x2="1191.9" y2="386.9"/>
		<line class="st8" x1="472.1" y1="255.9" x2="472.1" y2="418.9"/>
		<line class="st9" x1="280" y1="293.9" x2="280" y2="418.9"/>
		<line class="st10" x1="183.5" y1="348" x2="183.5" y2="418.9"/>
		<line class="st11" x1="88.1" y1="14" x2="88.1" y2="418.9"/>
		<path class="st12" d="M794.4,442v-0.1c0-1.8,0.5-3.4,3.4-5.4c1.5-1.1,1.9-1.3,1.9-2.3c0-0.9-0.5-1.5-1.4-1.5c-1,0-1.4,0.6-1.6,1.6
			h-2.4c0.2-1.8,1.4-3.4,3.9-3.4c2.8,0,3.8,1.8,3.8,3.3c0,1.7-0.7,2.4-2.7,3.8c-1.4,0.9-2,1.6-2.2,2.2h5.4l-0.3,1.9H794.4z
			 M812.5,442v-3.9c0-0.1,0-0.2-0.1-0.4l-3.8-6.8h2.7c0.8,1.7,2,3.9,2.5,5.1c0.5-1.2,1.7-3.5,2.5-5.1h2.5l-3.9,6.7
			c0,0.1-0.1,0.1-0.1,0.4v3.9H812.5z M823.4,437.5v4.4h-2.3v-11h4.8c2.4,0,3.7,1.3,3.7,3c0,1.5-0.8,2.3-1.6,2.6
			c0.5,0.2,1.4,0.8,1.4,2.8v0.5c0,0.7,0,1.6,0.2,2.1h-2.3c-0.2-0.5-0.2-1.3-0.2-2.5v-0.2c0-1.2-0.3-1.8-2.1-1.8H823.4z M823.4,435.6
			h2c1.3,0,1.8-0.5,1.8-1.4c0-0.9-0.6-1.4-1.8-1.4h-2V435.6z M834.4,438.7c0.3,1.1,1,1.6,2.3,1.6s1.8-0.5,1.8-1.3
			c0-0.9-0.5-1.3-2.4-1.7c-3-0.7-3.7-1.8-3.7-3.3c0-1.9,1.4-3.2,4-3.2c2.9,0,4.1,1.6,4.3,3.2h-2.4c-0.1-0.7-0.5-1.4-1.9-1.4
			c-1,0-1.6,0.4-1.6,1.2c0,0.8,0.5,1.1,2.3,1.5c3.2,0.8,3.9,2,3.9,3.5c0,2-1.5,3.4-4.4,3.4c-2.8,0-4.3-1.4-4.5-3.4H834.4z"/>
		<line class="st13" x1="817.9" y1="146.8" x2="817.9" y2="418.9"/>
		<line class="st4" x1="1191.4" y1="42.7" x2="1191.4" y2="418.9"/>
		<line class="st14" x1="1183.4" y1="42.2" x2="88.3" y2="42.2"/>
		<g class="st15">
			<defs>
				<rect id="SVGID_3_" width="1237.1" height="473.2"/>
			</defs>
			<clipPath id="SVGID_4_">
				<use xlink:href="#SVGID_3_"  style="overflow:visible;"/>
			</clipPath>
			<path class="st16" d="M472.3,258.8c7.2,0,13-5.8,13-13c0-7.2-5.8-13-13-13c-7.2,0-13,5.8-13,13
				C459.3,253,465.1,258.8,472.3,258.8"/>
			<path class="st17" d="M279.7,299.3c7.2,0,13-5.8,13-13s-5.8-13-13-13c-7.2,0-13,5.8-13,13S272.5,299.3,279.7,299.3"/>
			<path class="st18" d="M183.5,344.9c7.2,0,13-5.8,13-13s-5.8-13-13-13c-7.2,0-13,5.8-13,13S176.4,344.9,183.5,344.9"/>
		</g>
		<path class="st12" d="M725.1,176.4V175c-1.9-0.3-3-1.4-3.2-3h2.3c0.2,0.9,0.9,1.4,2,1.4c1.2,0,1.7-0.6,1.7-1.3
			c0-0.8-0.5-1.3-2.1-1.7c-2.8-0.8-3.6-1.9-3.6-3.5c0-1.7,1.2-2.7,2.8-3v-1.1h2v1.1c2.1,0.3,2.8,1.6,3,2.8h-2.4
			c-0.1-0.4-0.4-1.2-1.7-1.2c-1.1,0-1.4,0.7-1.4,1.2c0,0.8,0.5,1.1,2.2,1.6c2.7,0.8,3.5,2,3.5,3.6c0,1.8-1.2,2.9-3.1,3.2v1.4H725.1z
			 M732.3,174.9v-0.1c0-1.8,0.5-3.4,3.4-5.4c1.5-1.1,1.9-1.3,1.9-2.3c0-0.9-0.5-1.5-1.4-1.5c-1,0-1.4,0.6-1.6,1.6h-2.4
			c0.2-1.8,1.4-3.4,3.9-3.4c2.8,0,3.8,1.8,3.8,3.3c0,1.7-0.7,2.4-2.7,3.8c-1.4,0.9-2,1.6-2.2,2.2h5.4l-0.3,1.9H732.3z M742.2,176.8
			c0.9-2.1,1.1-3.5,1.2-4.7h2.4c-0.2,1.6-0.7,3.4-1.8,4.7H742.2z M749.4,174.9v-8.3c-0.5,0.2-1.6,0.4-2.1,0.4v-1.7
			c1-0.2,2.2-0.8,2.8-1.5h1.7v11H749.4z M754.7,166.9c0.2-1.5,1.2-3.1,3.8-3.1c2.5,0,3.7,1.4,3.7,2.9c0,1.3-0.6,1.9-1.4,2.2v0
			c0.8,0.3,1.8,1,1.8,2.7c0,1.7-1.1,3.6-4.1,3.5c-2.6,0-3.9-1.6-4-3.3h2.3c0.2,0.8,0.6,1.5,1.8,1.5c1.2,0,1.7-0.7,1.7-1.7
			c0-1-0.4-1.7-1.9-1.7h-0.8v-1.8h0.8c1.1,0,1.6-0.3,1.6-1.2c0-0.8-0.4-1.3-1.4-1.3c-1.2,0-1.5,0.7-1.6,1.3H754.7z M764.8,174.9
			v-0.1c0-1.8,0.5-3.4,3.4-5.4c1.5-1.1,1.9-1.3,1.9-2.3c0-0.9-0.5-1.5-1.4-1.5c-1,0-1.4,0.6-1.6,1.6h-2.4c0.2-1.8,1.4-3.4,3.9-3.4
			c2.8,0,3.8,1.8,3.8,3.3c0,1.7-0.7,2.4-2.7,3.8c-1.4,0.9-2,1.6-2.2,2.2h5.4l-0.3,1.9H764.8z M775.6,174.9v-2.8h2.4v2.8H775.6z
			 M785.4,174.9v-2.6h-5v-2l4.6-6.5h2.6v6.6h1.3l-0.2,1.8h-1.1v2.6H785.4z M785.4,168.5c0-1.2,0-1.9,0-2.6c-0.4,0.9-2.2,3.2-3,4.6h3
			V168.5z M799.6,169.4c0,2.8-1,5.8-4.2,5.8c-3.2,0-4.2-2.7-4.2-5.7c0-2.8,1.1-5.7,4.3-5.7C798.5,163.8,799.6,166.4,799.6,169.4z
			 M793.5,169.4c0,2.2,0.4,3.9,1.9,3.9c1.4,0,1.8-1.7,1.8-3.9c0-2.1-0.4-3.8-1.8-3.8S793.5,167,793.5,169.4z"/>
		<path class="st19" d="M259.6,433.6c-0.1-0.5-0.5-1.1-1.5-1.1c-1.6,0-1.9,1.6-2,3.1c0.5-0.6,1.2-1.1,2.5-1.1c2,0,3.5,1.4,3.5,3.6
			c0,2.3-1.4,4-4.1,4c-3.1,0-4.3-2.3-4.3-5.6c0-2.4,0.8-5.8,4.4-5.8c2.5,0,3.5,1.5,3.7,2.8H259.6z M259.8,438.3c0-1.1-0.4-2-1.8-2
			c-1,0-1.7,0.6-1.7,1.9c0,1.1,0.5,2.1,1.7,2.1C259.2,440.3,259.8,439.5,259.8,438.3z M279.1,437.8c0-1.9,0-4,0.1-5.2h-0.1
			c-0.5,2.3-1.6,5.9-2.7,9.4h-2c-0.8-3-2-7.2-2.4-9.4h-0.1c0.1,1.3,0.1,3.6,0.1,5.5v4h-2.2v-11h3.6c0.9,2.9,1.8,6.5,2.2,8.1h0
			c0.3-1.4,1.5-5.3,2.4-8.1h3.4v11h-2.3V437.8z M295.1,436.4c0,3.1-1.8,5.7-5.4,5.7c-3.5,0-5.3-2.5-5.3-5.7c0-3.2,2-5.7,5.4-5.7
			C293.1,430.8,295.1,433,295.1,436.4z M286.9,436.4c0,2.2,0.9,3.8,2.9,3.8c2.1,0,2.9-1.8,2.9-3.7c0-2.1-0.9-3.7-2.9-3.7
			C287.8,432.7,286.9,434.2,286.9,436.4z M299.7,438.7c0.3,1.1,1,1.6,2.3,1.6s1.8-0.5,1.8-1.3c0-0.9-0.5-1.3-2.4-1.7
			c-3-0.7-3.7-1.8-3.7-3.3c0-1.9,1.4-3.2,4-3.2c2.9,0,4.1,1.6,4.3,3.2h-2.4c-0.1-0.7-0.5-1.4-1.9-1.4c-1,0-1.6,0.4-1.6,1.2
			c0,0.8,0.5,1.1,2.3,1.5c3.2,0.8,3.9,2,3.9,3.5c0,2-1.5,3.4-4.4,3.4c-2.8,0-4.3-1.4-4.5-3.4H299.7z"/>
		<path class="st20" d="M157.1,433.9c0.2-1.5,1.2-3.1,3.8-3.1c2.5,0,3.7,1.4,3.7,2.9c0,1.3-0.6,1.9-1.4,2.2v0c0.8,0.3,1.8,1,1.8,2.7
			c0,1.7-1.1,3.6-4.1,3.5c-2.6,0-3.9-1.6-4-3.3h2.3c0.2,0.8,0.6,1.5,1.8,1.5c1.2,0,1.7-0.7,1.7-1.7c0-1-0.4-1.7-1.9-1.7H160v-1.8
			h0.8c1.1,0,1.6-0.3,1.6-1.2c0-0.8-0.4-1.3-1.4-1.3c-1.2,0-1.5,0.7-1.6,1.3H157.1z M182.1,437.8c0-1.9,0-4,0.1-5.2h-0.1
			c-0.5,2.3-1.6,5.9-2.7,9.4h-2c-0.8-3-2-7.2-2.4-9.4h-0.1c0.1,1.3,0.1,3.6,0.1,5.5v4h-2.2v-11h3.6c0.9,2.9,1.8,6.5,2.2,8.1h0
			c0.3-1.4,1.5-5.3,2.4-8.1h3.4v11h-2.3V437.8z M198.1,436.4c0,3.1-1.8,5.7-5.4,5.7c-3.5,0-5.3-2.5-5.3-5.7c0-3.2,2-5.7,5.4-5.7
			C196.1,430.8,198.1,433,198.1,436.4z M189.9,436.4c0,2.2,0.9,3.8,2.9,3.8c2.1,0,2.9-1.8,2.9-3.7c0-2.1-0.9-3.7-2.9-3.7
			C190.8,432.7,189.9,434.2,189.9,436.4z M202.8,438.7c0.3,1.1,1,1.6,2.3,1.6s1.8-0.5,1.8-1.3c0-0.9-0.5-1.3-2.4-1.7
			c-3-0.7-3.7-1.8-3.7-3.3c0-1.9,1.4-3.2,4-3.2c2.9,0,4.1,1.6,4.3,3.2h-2.4c-0.1-0.7-0.5-1.4-1.9-1.4c-1,0-1.6,0.4-1.6,1.2
			c0,0.8,0.5,1.1,2.3,1.5c3.2,0.8,3.9,2,3.9,3.5c0,2-1.5,3.4-4.4,3.4c-2.8,0-4.3-1.4-4.5-3.4H202.8z"/>
		<g class="st15">
			<defs>
				<rect id="SVGID_5_" width="1237.1" height="473.2"/>
			</defs>
			<clipPath id="SVGID_6_">
				<use xlink:href="#SVGID_5_"  style="overflow:visible;"/>
			</clipPath>
			<path class="st21" d="M817.7,159.9c7.2,0,13-5.8,13-13c0-7.2-5.8-13-13-13c-7.2,0-13,5.8-13,13
				C804.7,154.1,810.5,159.9,817.7,159.9"/>
			<path class="st22" d="M1191.9,54.7c7.2,0,13-5.8,13-13c0-7.2-5.8-13-13-13c-7.2,0-13,5.8-13,13
				C1178.9,48.9,1184.7,54.7,1191.9,54.7"/>
		</g>
		<g class="st15">
			<text transform="matrix(1 0 0 1 606.4653 107.513)"><tspan x="0" y="0" class="st23 st24 st25">T</tspan><tspan x="8.9" y="0" class="st23 st24 st25">h</tspan><tspan x="18" y="0" class="st23 st24 st25">e </tspan><tspan x="30.9" y="0" class="st23 st24 st25">av</tspan><tspan x="47.3" y="0" class="st23 st24 st25">e</tspan><tspan x="56" y="0" class="st23 st24 st25">r</tspan><tspan x="61.9" y="0" class="st23 st24 st25">a</tspan><tspan x="70.7" y="0" class="st23 st24 st25">g</tspan><tspan x="80" y="0" class="st23 st24 st25">e</tspan><tspan x="88.7" y="0" class="st23 st24 st25"> s</tspan><tspan x="100.7" y="0" class="st23 st24 st25">e</tspan><tspan x="109.4" y="0" class="st23 st24 st25">l</tspan><tspan x="113.6" y="0" class="st23 st24 st25">f</tspan><tspan x="118.3" y="0" class="st23 st24 st25">-</tspan><tspan x="124.5" y="0" class="st23 st24 st25">s</tspan><tspan x="132.3" y="0" class="st23 st24 st25">t</tspan><tspan x="137.6" y="0" class="st23 st24 st25">o</tspan><tspan x="146.6" y="0" class="st23 st24 st25">r</tspan><tspan x="152.5" y="0" class="st23 st24 st25">a</tspan><tspan x="161.3" y="0" class="st23 st24 st25">g</tspan><tspan x="170.6" y="0" class="st23 st24 st25">e </tspan></text>
		</g>
		<g class="st15">
			<text transform="matrix(1 0 0 1 785.6973 107.513)" class="st23 st24 st25"> </text>
		</g>
		<g class="st15">
			<text transform="matrix(1 0 0 1 637.6177 125.513)"><tspan x="0" y="0" class="st23 st24 st25">c</tspan><tspan x="8.4" y="0" class="st23 st24 st25">o</tspan><tspan x="17.5" y="0" class="st23 st24 st25">s</tspan><tspan x="25.3" y="0" class="st23 st24 st25">t</tspan><tspan x="30.8" y="0" class="st23 st24 st25"> </tspan><tspan x="34.9" y="0" class="st23 st24 st25">a</tspan><tspan x="43.6" y="0" class="st23 st24 st25">n</tspan><tspan x="52.8" y="0" class="st23 st24 st25">d </tspan><tspan x="66.4" y="0" class="st23 st24 st25">r</tspan><tspan x="72.3" y="0" class="st23 st24 st25">e</tspan><tspan x="81" y="0" class="st23 st24 st25">n</tspan><tspan x="90.1" y="0" class="st23 st24 st25">t</tspan><tspan x="95.4" y="0" class="st23 st24 st25">a</tspan><tspan x="104.2" y="0" class="st23 st24 st25">l</tspan><tspan x="108.4" y="0" class="st23 st24 st25"> </tspan><tspan x="112.5" y="0" class="st23 st24 st25">t</tspan><tspan x="117.8" y="0" class="st23 st24 st25">i</tspan><tspan x="122" y="0" class="st23 st24 st25">m</tspan><tspan x="135.4" y="0" class="st23 st24 st25">e</tspan><tspan x="144.3" y="0" class="st23 st24 st25">. </tspan></text>
		</g>
		<line class="st26" x1="791.2" y1="113" x2="805.9" y2="127.6"/>
		<polyline class="st26" points="799.7,127.4 805.9,127.6 805.7,121.4 		"/>
		<path class="st1" d="M378.9,276.3v-1.4c-1.9-0.3-3-1.4-3.2-3h2.3c0.2,0.9,0.9,1.4,2,1.4c1.2,0,1.7-0.6,1.7-1.3
			c0-0.8-0.5-1.3-2.1-1.7c-2.8-0.8-3.6-1.9-3.6-3.5c0-1.7,1.2-2.7,2.8-3v-1.1h2v1.1c2.1,0.3,2.8,1.6,3,2.8h-2.4
			c-0.1-0.4-0.4-1.2-1.7-1.2c-1.1,0-1.4,0.7-1.4,1.2c0,0.8,0.5,1.1,2.2,1.6c2.7,0.8,3.5,2,3.5,3.6c0,1.8-1.2,2.9-3.1,3.2v1.4H378.9z
			 M388.2,274.8v-8.3c-0.5,0.2-1.6,0.4-2.1,0.4v-1.7c1-0.2,2.2-0.8,2.8-1.5h1.7v11H388.2z M393,276.7c0.9-2.1,1.1-3.5,1.2-4.7h2.4
			c-0.2,1.6-0.7,3.4-1.8,4.7H393z M407.2,269.2c0,2.8-1,5.8-4.2,5.8c-3.2,0-4.2-2.7-4.2-5.7c0-2.8,1.1-5.7,4.3-5.7
			C406.1,263.6,407.2,266.3,407.2,269.2z M401.1,269.3c0,2.2,0.4,3.9,1.9,3.9c1.4,0,1.8-1.7,1.8-3.9c0-2.1-0.4-3.8-1.8-3.8
			S401.1,266.9,401.1,269.3z M415.4,266.4c-0.1-0.5-0.5-1.1-1.5-1.1c-1.6,0-1.9,1.6-2,3.1c0.5-0.6,1.2-1.1,2.5-1.1
			c2,0,3.5,1.4,3.5,3.6c0,2.3-1.4,4-4.1,4c-3.1,0-4.3-2.3-4.3-5.6c0-2.4,0.8-5.8,4.4-5.8c2.5,0,3.5,1.5,3.7,2.8H415.4z M415.6,271.2
			c0-1.1-0.4-2-1.8-2c-1,0-1.7,0.6-1.7,1.9c0,1.1,0.5,2.1,1.7,2.1C415,273.2,415.6,272.4,415.6,271.2z M426.1,266.4
			c-0.1-0.5-0.5-1.1-1.5-1.1c-1.6,0-1.9,1.6-2,3.1c0.5-0.6,1.2-1.1,2.5-1.1c2,0,3.5,1.4,3.5,3.6c0,2.3-1.4,4-4.1,4
			c-3.1,0-4.3-2.3-4.3-5.6c0-2.4,0.8-5.8,4.4-5.8c2.5,0,3.5,1.5,3.7,2.8H426.1z M426.3,271.2c0-1.1-0.4-2-1.8-2
			c-1,0-1.7,0.6-1.7,1.9c0,1.1,0.5,2.1,1.7,2.1C425.6,273.2,426.3,272.4,426.3,271.2z M431,274.8V272h2.4v2.8H431z M436.3,274.8
			v-0.1c0-1.8,0.5-3.4,3.4-5.4c1.5-1.1,1.9-1.3,1.9-2.3c0-0.9-0.5-1.5-1.4-1.5c-1,0-1.4,0.6-1.6,1.6h-2.4c0.2-1.8,1.4-3.4,3.9-3.4
			c2.8,0,3.8,1.8,3.8,3.3c0,1.7-0.7,2.4-2.7,3.8c-1.4,0.9-2,1.6-2.2,2.2h5.4l-0.3,1.9H436.3z M454.9,269.2c0,2.8-1,5.8-4.2,5.8
			c-3.2,0-4.2-2.7-4.2-5.7c0-2.8,1.1-5.7,4.3-5.7C453.8,263.6,454.9,266.3,454.9,269.2z M448.8,269.3c0,2.2,0.4,3.9,1.9,3.9
			c1.4,0,1.8-1.7,1.8-3.9c0-2.1-0.4-3.8-1.8-3.8S448.8,266.9,448.8,269.3z"/>
		<path class="st19" d="M203,316.8v-1.4c-1.9-0.3-3-1.4-3.2-3h2.3c0.2,0.9,0.9,1.4,2,1.4c1.2,0,1.7-0.6,1.7-1.3
			c0-0.8-0.5-1.3-2.1-1.7c-2.8-0.8-3.6-1.9-3.6-3.5c0-1.7,1.2-2.7,2.8-3v-1.1h2v1.1c2.1,0.3,2.8,1.6,3,2.8h-2.4
			c-0.1-0.4-0.4-1.2-1.7-1.2c-1.1,0-1.4,0.7-1.4,1.2c0,0.8,0.5,1.1,2.2,1.6c2.7,0.8,3.5,2,3.5,3.6c0,1.8-1.2,2.9-3.1,3.2v1.4H203z
			 M218,306.2h-4.6c-0.1,0.8-0.2,1.7-0.3,2.2c0.4-0.3,1-0.6,2-0.6c2,0,3.5,1.5,3.5,3.7c0,2.3-1.4,4.1-4.2,4.1c-2.1,0-3.7-1.1-4-3.2
			h2.3c0.2,0.7,0.7,1.3,1.8,1.3c1.3,0,1.8-0.8,1.8-2c0-1-0.4-2.1-1.8-2.1c-1.1,0-1.5,0.5-1.7,1.2l-2.1-0.3c0.3-1.3,0.7-4.6,0.9-6.1
			h6.8L218,306.2z M221.1,307.3c0.2-1.5,1.2-3.1,3.8-3.1c2.5,0,3.7,1.4,3.7,2.9c0,1.3-0.6,1.9-1.4,2.2v0c0.8,0.3,1.8,1,1.8,2.7
			c0,1.7-1.1,3.6-4.1,3.5c-2.6,0-3.9-1.6-4-3.3h2.3c0.2,0.8,0.6,1.5,1.8,1.5c1.2,0,1.7-0.7,1.7-1.7c0-1-0.4-1.7-1.9-1.7H224v-1.8
			h0.8c1.1,0,1.6-0.3,1.6-1.2c0-0.8-0.4-1.3-1.4-1.3c-1.2,0-1.5,0.7-1.6,1.3H221.1z M231.5,307.3c0.2-1.5,1.2-3.1,3.8-3.1
			c2.5,0,3.7,1.4,3.7,2.9c0,1.3-0.6,1.9-1.4,2.2v0c0.8,0.3,1.8,1,1.8,2.7c0,1.7-1.1,3.6-4.1,3.5c-2.6,0-3.9-1.6-4-3.3h2.3
			c0.2,0.8,0.6,1.5,1.8,1.5c1.2,0,1.7-0.7,1.7-1.7c0-1-0.4-1.7-1.9-1.7h-0.8v-1.8h0.8c1.1,0,1.6-0.3,1.6-1.2c0-0.8-0.4-1.3-1.4-1.3
			c-1.2,0-1.5,0.7-1.6,1.3H231.5z M242,315.3v-2.8h2.4v2.8H242z M248.3,315.3v-8.3c-0.5,0.2-1.6,0.4-2.1,0.4v-1.7
			c1-0.2,2.2-0.8,2.8-1.5h1.7v11H248.3z M262.1,309.8c0,2.8-1,5.8-4.2,5.8c-3.2,0-4.2-2.7-4.2-5.7c0-2.8,1.1-5.7,4.3-5.7
			C261,304.2,262.1,306.8,262.1,309.8z M256,309.8c0,2.2,0.4,3.9,1.9,3.9c1.4,0,1.8-1.7,1.8-3.9c0-2.1-0.4-3.8-1.8-3.8
			S256,307.4,256,309.8z"/>
		<path class="st20" d="M103.8,363.5v-1.4c-1.9-0.3-3-1.4-3.2-3h2.3c0.2,0.9,0.9,1.4,2,1.4c1.2,0,1.7-0.6,1.7-1.3
			c0-0.8-0.5-1.3-2.1-1.7c-2.8-0.8-3.6-1.9-3.6-3.5c0-1.7,1.2-2.7,2.8-3v-1.1h2v1.1c2.1,0.3,2.8,1.6,3,2.8h-2.4
			c-0.1-0.4-0.4-1.2-1.7-1.2c-1.1,0-1.4,0.7-1.4,1.2c0,0.8,0.5,1.1,2.2,1.6c2.7,0.8,3.5,2,3.5,3.6c0,1.8-1.2,2.9-3.1,3.2v1.4H103.8z
			 M111.1,362.1v-0.1c0-1.8,0.5-3.4,3.4-5.4c1.5-1.1,1.9-1.3,1.9-2.3c0-0.9-0.5-1.5-1.4-1.5c-1,0-1.4,0.6-1.6,1.6H111
			c0.2-1.8,1.4-3.4,3.9-3.4c2.8,0,3.8,1.8,3.8,3.3c0,1.7-0.7,2.4-2.7,3.8c-1.4,0.9-2,1.6-2.2,2.2h5.4l-0.3,1.9H111.1z M127,353.7
			c-0.1-0.5-0.5-1.1-1.5-1.1c-1.6,0-1.9,1.6-2,3.1c0.5-0.6,1.2-1.1,2.5-1.1c2,0,3.5,1.4,3.5,3.6c0,2.3-1.4,4-4.1,4
			c-3.1,0-4.3-2.3-4.3-5.6c0-2.4,0.8-5.8,4.4-5.8c2.5,0,3.5,1.5,3.7,2.8H127z M127.2,358.4c0-1.1-0.4-2-1.8-2c-1,0-1.7,0.6-1.7,1.9
			c0,1.1,0.5,2.1,1.7,2.1C126.6,360.4,127.2,359.6,127.2,358.4z M137.7,353.7c-0.1-0.5-0.5-1.1-1.5-1.1c-1.6,0-1.9,1.6-2,3.1
			c0.5-0.6,1.2-1.1,2.5-1.1c2,0,3.5,1.4,3.5,3.6c0,2.3-1.4,4-4.1,4c-3.1,0-4.3-2.3-4.3-5.6c0-2.4,0.8-5.8,4.4-5.8
			c2.5,0,3.5,1.5,3.7,2.8H137.7z M137.9,358.4c0-1.1-0.4-2-1.8-2c-1,0-1.7,0.6-1.7,1.9c0,1.1,0.5,2.1,1.7,2.1
			C137.3,360.4,137.9,359.6,137.9,358.4z M142.7,362.1v-2.8h2.4v2.8H142.7z M155.2,352.9h-4.6c-0.1,0.8-0.2,1.7-0.3,2.2
			c0.4-0.3,1-0.6,2-0.6c2,0,3.5,1.5,3.5,3.7c0,2.3-1.4,4.1-4.2,4.1c-2.1,0-3.7-1.1-4-3.2h2.3c0.2,0.7,0.7,1.3,1.8,1.3
			c1.3,0,1.8-0.8,1.8-2c0-1-0.4-2.1-1.8-2.1c-1.1,0-1.5,0.5-1.7,1.2l-2.1-0.3c0.3-1.3,0.7-4.6,0.9-6.1h6.8L155.2,352.9z
			 M165.8,352.9h-4.6c-0.1,0.8-0.2,1.7-0.3,2.2c0.4-0.3,1-0.6,2-0.6c2,0,3.5,1.5,3.5,3.7c0,2.3-1.4,4.1-4.2,4.1
			c-2.1,0-3.7-1.1-4-3.2h2.3c0.2,0.7,0.7,1.3,1.8,1.3c1.3,0,1.8-0.8,1.8-2c0-1-0.4-2.1-1.8-2.1c-1.1,0-1.5,0.5-1.7,1.2l-2.1-0.3
			c0.3-1.3,0.7-4.6,0.9-6.1h6.8L165.8,352.9z"/>
		<path class="st2" d="M1097.7,70.7v-1.4c-1.9-0.3-3-1.4-3.2-3h2.3c0.2,0.9,0.9,1.4,2,1.4c1.2,0,1.7-0.6,1.7-1.3
			c0-0.8-0.5-1.3-2.1-1.7c-2.8-0.8-3.6-1.9-3.6-3.5c0-1.7,1.2-2.7,2.8-3V57h2v1.1c2.1,0.3,2.8,1.6,3,2.8h-2.4
			c-0.1-0.4-0.4-1.2-1.7-1.2c-1.1,0-1.4,0.7-1.4,1.2c0,0.8,0.5,1.1,2.2,1.6c2.7,0.8,3.5,2,3.5,3.6c0,1.8-1.2,2.9-3.1,3.2v1.4H1097.7
			z M1105.2,61.2c0.2-1.5,1.2-3.1,3.8-3.1c2.5,0,3.7,1.4,3.7,2.9c0,1.3-0.6,1.9-1.4,2.2v0c0.8,0.3,1.8,1,1.8,2.7
			c0,1.7-1.1,3.6-4.1,3.5c-2.6,0-3.9-1.6-4-3.3h2.3c0.2,0.8,0.6,1.5,1.8,1.5c1.2,0,1.7-0.7,1.7-1.7c0-1-0.4-1.7-1.9-1.7h-0.8v-1.8
			h0.8c1.1,0,1.6-0.3,1.6-1.2c0-0.8-0.4-1.3-1.4-1.3c-1.2,0-1.5,0.7-1.6,1.3H1105.2z M1114.9,71.1c0.9-2.1,1.1-3.5,1.2-4.7h2.4
			c-0.2,1.6-0.7,3.4-1.8,4.7H1114.9z M1122,69.3V61c-0.5,0.2-1.6,0.4-2.1,0.4v-1.7c1-0.2,2.2-0.8,2.8-1.5h1.7v11H1122z M1129.8,66.6
			c0.2,0.7,0.7,1.1,1.5,1.1c1.5,0,1.8-1.6,1.9-3.2c-0.5,0.6-1.4,0.9-2.3,0.9c-2.2,0-3.6-1.4-3.6-3.5c0-2.1,1.5-3.8,4-3.8
			c3,0,4.2,2.1,4.2,5.2c0,2.8-0.7,6.2-4.4,6.2c-2.3,0-3.5-1.3-3.7-2.8H1129.8z M1129.7,61.7c0,1.2,0.7,1.9,1.7,1.9
			c1.1,0,1.7-0.5,1.7-1.8c0-0.9-0.3-2-1.7-2C1130.4,59.8,1129.7,60.5,1129.7,61.7z M1137.9,66.1c0-1.5,1-2.2,1.8-2.6
			c-0.8-0.5-1.3-1.3-1.3-2.3c0-1.7,1.4-3.1,3.8-3.1c2.3,0,3.7,1.3,3.7,3c0,1.2-0.6,1.9-1.3,2.2c0.8,0.3,1.7,1.1,1.7,2.6
			c0,2.4-1.8,3.5-4.3,3.5C1139.7,69.5,1137.9,68.3,1137.9,66.1z M1144,66c0-1.1-0.7-1.6-1.9-1.6c-1.3,0-1.9,0.6-1.9,1.6
			c0,1,0.7,1.7,1.9,1.7C1143.3,67.7,1144,67.1,1144,66z M1140.5,61.2c0,0.8,0.5,1.3,1.6,1.3c1,0,1.6-0.5,1.6-1.3
			c0-0.9-0.6-1.4-1.6-1.4C1141.1,59.9,1140.5,60.4,1140.5,61.2z M1148.9,69.3v-2.8h2.4v2.8H1148.9z M1159.5,60.9
			c-0.1-0.5-0.5-1.1-1.5-1.1c-1.6,0-1.9,1.6-2,3.1c0.5-0.6,1.2-1.1,2.5-1.1c2,0,3.5,1.4,3.5,3.6c0,2.3-1.4,4-4.1,4
			c-3.1,0-4.3-2.3-4.3-5.6c0-2.4,0.8-5.8,4.4-5.8c2.5,0,3.5,1.5,3.7,2.8H1159.5z M1159.7,65.6c0-1.1-0.4-2-1.8-2
			c-1,0-1.7,0.6-1.7,1.9c0,1.1,0.5,2.1,1.7,2.1C1159.1,67.6,1159.7,66.9,1159.7,65.6z M1172.8,63.7c0,2.8-1,5.8-4.2,5.8
			c-3.2,0-4.2-2.7-4.2-5.7c0-2.8,1.1-5.7,4.3-5.7C1171.7,58.1,1172.8,60.8,1172.8,63.7z M1166.8,63.7c0,2.2,0.4,3.9,1.9,3.9
			c1.4,0,1.8-1.7,1.8-3.9c0-2.1-0.4-3.8-1.8-3.8S1166.8,61.4,1166.8,63.7z"/>
		<path class="st27" d="M725.6,442v-0.1c0-1.8,0.5-3.4,3.4-5.4c1.5-1.1,1.9-1.3,1.9-2.3c0-0.9-0.5-1.5-1.4-1.5c-1,0-1.4,0.6-1.6,1.6
			h-2.4c0.2-1.8,1.4-3.4,3.9-3.4c2.8,0,3.8,1.8,3.8,3.3c0,1.7-0.7,2.4-2.7,3.8c-1.4,0.9-2,1.6-2.2,2.2h5.4l-0.3,1.9H725.6z
			 M736,433.9c0.2-1.5,1.2-3.1,3.8-3.1c2.5,0,3.7,1.4,3.7,2.9c0,1.3-0.6,1.9-1.4,2.2v0c0.8,0.3,1.8,1,1.8,2.7c0,1.7-1.1,3.6-4.1,3.5
			c-2.6,0-3.9-1.6-4-3.3h2.3c0.2,0.8,0.6,1.5,1.8,1.5c1.2,0,1.7-0.7,1.7-1.7c0-1-0.4-1.7-1.9-1.7h-0.8v-1.8h0.8
			c1.1,0,1.6-0.3,1.6-1.2c0-0.8-0.4-1.3-1.4-1.3c-1.2,0-1.5,0.7-1.6,1.3H736z M760.9,437.8c0-1.9,0-4,0.1-5.2h-0.1
			c-0.5,2.3-1.6,5.9-2.7,9.4h-2c-0.8-3-2-7.2-2.4-9.4h-0.1c0.1,1.3,0.1,3.6,0.1,5.5v4h-2.2v-11h3.6c0.9,2.9,1.8,6.5,2.2,8.1h0
			c0.3-1.4,1.5-5.3,2.4-8.1h3.4v11h-2.3V437.8z M777,436.4c0,3.1-1.8,5.7-5.4,5.7c-3.5,0-5.3-2.5-5.3-5.7c0-3.2,2-5.7,5.4-5.7
			C774.9,430.8,777,433,777,436.4z M768.8,436.4c0,2.2,0.9,3.8,2.9,3.8c2.1,0,2.9-1.8,2.9-3.7c0-2.1-0.9-3.7-2.9-3.7
			C769.6,432.7,768.8,434.3,768.8,436.4z M781.6,438.7c0.3,1.1,1,1.6,2.3,1.6s1.8-0.5,1.8-1.3c0-0.9-0.5-1.3-2.4-1.7
			c-3-0.7-3.7-1.8-3.7-3.3c0-1.9,1.4-3.2,4-3.2c2.9,0,4.1,1.6,4.3,3.2h-2.4c-0.1-0.7-0.5-1.4-1.9-1.4c-1,0-1.6,0.4-1.6,1.2
			c0,0.8,0.5,1.1,2.3,1.5c3.2,0.8,3.9,2,3.9,3.5c0,2-1.5,3.4-4.4,3.4c-2.8,0-4.3-1.4-4.5-3.4H781.6z"/>
		<g class="st15">
			<defs>
				<rect id="SVGID_7_" width="1237.1" height="473.2"/>
			</defs>
			<clipPath id="SVGID_8_">
				<use xlink:href="#SVGID_7_"  style="overflow:visible;"/>
			</clipPath>
		</g>
	</g>
</g>
<g id="Layer_2" class="st28">
	<line class="st29" x1="27.4" y1="195.5" x2="787.3" y2="195.5"/>
	<line class="st30" x1="788.1" y1="195" x2="788.1" y2="418.9"/>
	<path class="st31" d="M788.6,208.5c7.2,0,13-5.8,13-13c0-7.2-5.8-13-13-13c-7.2,0-13,5.8-13,13
		C775.6,202.7,781.4,208.5,788.6,208.5"/>
	<polyline class="st32" points="788.8,195 559.6,225.1 743.7,366.1 	"/>
	<rect x="559.6" y="225.6" class="st33" width="184" height="140"/>
	<rect x="559.6" y="225.6" class="st32" width="184" height="140"/>
	<text transform="matrix(1 0 0 1 570.0938 247.0843)" class="st34"><tspan x="0" y="0" class="st35 st36 st25">T</tspan><tspan x="9.6" y="0" class="st35 st36 st25">h</tspan><tspan x="19.2" y="0" class="st35 st36 st25">e</tspan><tspan x="28.2" y="0" class="st35 st36 st25"> </tspan><tspan x="32.3" y="0" class="st35 st36 st25">p</tspan><tspan x="42" y="0" class="st35 st36 st25">r</tspan><tspan x="48.3" y="0" class="st35 st36 st25">i</tspan><tspan x="52.7" y="0" class="st35 st36 st25">c</tspan><tspan x="61.5" y="0" class="st35 st36 st25">e</tspan><tspan x="70.5" y="0" class="st35 st36 st25"> </tspan><tspan x="74.5" y="0" class="st35 st36 st25">o</tspan><tspan x="83.9" y="0" class="st35 st36 st25">f </tspan><tspan x="93.4" y="0" class="st35 st36 st25">s</tspan><tspan x="101.7" y="0" class="st35 st36 st25">e</tspan><tspan x="110.8" y="0" class="st35 st36 st25">l</tspan><tspan x="115.3" y="0" class="st35 st36 st25">f</tspan><tspan x="120.5" y="0" class="st35 st36 st25">-</tspan></text>
	<text transform="matrix(1 0 0 1 570.0938 265.0843)" class="st34"><tspan x="0" y="0" class="st35 st36 st25">s</tspan><tspan x="8.4" y="0" class="st35 st36 st25">t</tspan><tspan x="14.2" y="0" class="st35 st36 st25">o</tspan><tspan x="23.6" y="0" class="st35 st36 st25">ra</tspan><tspan x="38.9" y="0" class="st35 st36 st25">g</tspan><tspan x="48.6" y="0" class="st35 st36 st25">e </tspan><tspan x="61.7" y="0" class="st35 st36 st25">r</tspan><tspan x="68.1" y="0" class="st35 st36 st25">e</tspan><tspan x="77.1" y="0" class="st35 st36 st25">al</tspan><tspan x="90.5" y="0" class="st35 st36 st25">l</tspan><tspan x="95" y="0" class="st35 st36 st25">y</tspan><tspan x="103.4" y="0" class="st35 st36 st25"> </tspan><tspan x="107.4" y="0" class="st35 st36 st25">s</tspan><tspan x="115.9" y="0" class="st35 st36 st25">ta</tspan><tspan x="130.8" y="0" class="st35 st36 st25">r</tspan><tspan x="137.5" y="0" class="st35 st36 st25">t</tspan><tspan x="143.4" y="0" class="st35 st36 st25">s </tspan></text>
	<text transform="matrix(1 0 0 1 570.0938 283.0843)" class="st34"><tspan x="0" y="0" class="st35 st36 st25">t</tspan><tspan x="5.8" y="0" class="st35 st36 st25">o </tspan><tspan x="19.3" y="0" class="st35 st36 st25">o</tspan><tspan x="28.7" y="0" class="st35 st36 st25">u</tspan><tspan x="38.1" y="0" class="st35 st36 st25">t </tspan><tspan x="48.1" y="0" class="st35 st36 st25">v</tspan><tspan x="56.3" y="0" class="st35 st36 st25">a</tspan><tspan x="65.2" y="0" class="st35 st36 st25">l</tspan><tspan x="69.7" y="0" class="st35 st36 st25">u</tspan><tspan x="79.1" y="0" class="st35 st36 st25">e</tspan><tspan x="88.2" y="0" class="st35 st36 st25"> </tspan><tspan x="92.2" y="0" class="st35 st36 st25">t</tspan><tspan x="98.1" y="0" class="st35 st36 st25">h</tspan><tspan x="107.7" y="0" class="st35 st36 st25">e </tspan></text>
	<text transform="matrix(1 0 0 1 570.0938 301.0843)" class="st34"><tspan x="0" y="0" class="st35 st36 st25">w</tspan><tspan x="12.7" y="0" class="st35 st36 st25">o</tspan><tspan x="22.1" y="0" class="st35 st36 st25">r</tspan><tspan x="28.8" y="0" class="st35 st36 st25">t</tspan><tspan x="34.7" y="0" class="st35 st36 st25">h</tspan><tspan x="44.4" y="0" class="st35 st36 st25"> </tspan><tspan x="48.4" y="0" class="st35 st36 st25">o</tspan><tspan x="57.8" y="0" class="st35 st36 st25">f</tspan><tspan x="63.2" y="0" class="st35 st36 st25"> </tspan><tspan x="67.2" y="0" class="st35 st36 st25">t</tspan><tspan x="73.2" y="0" class="st35 st36 st25">h</tspan><tspan x="82.8" y="0" class="st35 st36 st25">e</tspan><tspan x="91.8" y="0" class="st35 st36 st25"> </tspan><tspan x="95.8" y="0" class="st35 st36 st25">a</tspan><tspan x="104.6" y="0" class="st35 st36 st25">v</tspan><tspan x="112.8" y="0" class="st35 st36 st25">e</tspan><tspan x="121.8" y="0" class="st35 st36 st25">ra</tspan><tspan x="137.1" y="0" class="st35 st36 st25">g</tspan><tspan x="146.8" y="0" class="st35 st36 st25">e </tspan></text>
	<text transform="matrix(1 0 0 1 570.0938 319.0843)" class="st34"><tspan x="0" y="0" class="st35 st36 st25">u</tspan><tspan x="9.4" y="0" class="st35 st36 st25">n</tspan><tspan x="19" y="0" class="st35 st36 st25">i</tspan><tspan x="23.4" y="0" class="st35 st36 st25">t </tspan><tspan x="33.4" y="0" class="st35 st36 st25">(</tspan><tspan x="39" y="0" class="st35 st36 st25">$</tspan><tspan x="48" y="0" class="st35 st36 st25">2</tspan><tspan x="57.5" y="0" class="st35 st36 st25">,</tspan><tspan x="62" y="0" class="st35 st36 st25">00</tspan><tspan x="81.8" y="0" class="st35 st36 st25">0</tspan><tspan x="90.8" y="0" class="st35 st36 st25">) </tspan><tspan x="100.9" y="0" class="st35 st36 st25">j</tspan><tspan x="105.3" y="0" class="st35 st36 st25">u</tspan><tspan x="114.8" y="0" class="st35 st36 st25">s</tspan><tspan x="123.2" y="0" class="st35 st36 st25">t </tspan><tspan x="133.2" y="0" class="st35 st36 st25">s</tspan><tspan x="141.6" y="0" class="st35 st36 st25">h</tspan><tspan x="151" y="0" class="st35 st36 st25">y </tspan></text>
	<text transform="matrix(1 0 0 1 570.0938 355.0843)" class="st34"><tspan x="0" y="0" class="st35 st36 st25">p</tspan><tspan x="9.7" y="0" class="st35 st36 st25">r</tspan><tspan x="16" y="0" class="st35 st36 st25">i</tspan><tspan x="20.4" y="0" class="st35 st36 st25">c</tspan><tspan x="29.2" y="0" class="st35 st36 st25">e</tspan><tspan x="38.3" y="0" class="st35 st36 st25">d </tspan><tspan x="52.1" y="0" class="st35 st36 st25">a</tspan><tspan x="61.1" y="0" class="st35 st36 st25">t </tspan><tspan x="71.1" y="0" class="st35 st36 st25">$</tspan><tspan x="80.1" y="0" class="st35 st36 st25">2</tspan><tspan x="89.6" y="0" class="st35 st36 st25">,</tspan><tspan x="94.1" y="0" class="st35 st36 st25">0</tspan><tspan x="103.8" y="0" class="st35 st36 st25">4</tspan><tspan x="113.3" y="0" class="st35 st36 st25">3</tspan><tspan x="122.8" y="0" class="st35 st36 st25">.</tspan><tspan x="127.3" y="0" class="st35 st36 st25">5</tspan><tspan x="136.7" y="0" class="st35 st36 st25">5</tspan><tspan x="146.3" y="0" class="st35 st36 st25">. </tspan></text>
	<text transform="matrix(1 0 0 1 570.0938 337.0843)" class="st34"><tspan x="0" y="0" class="st35 st36 st25">o</tspan><tspan x="9.4" y="0" class="st35 st36 st25">f a 2 </tspan><tspan x="45" y="0" class="st35 st36 st25">y</tspan><tspan x="53.3" y="0" class="st35 st36 st25">e</tspan><tspan x="62.3" y="0" class="st35 st36 st25">a</tspan><tspan x="71.2" y="0" class="st35 st36 st25">r</tspan><tspan x="77.7" y="0" class="st35 st36 st25">s </tspan><tspan x="90.1" y="0" class="st35 st36 st25">r</tspan><tspan x="96.5" y="0" class="st35 st36 st25">e</tspan><tspan x="105.5" y="0" class="st35 st36 st25">n</tspan><tspan x="115" y="0" class="st35 st36 st25">t</tspan><tspan x="120.9" y="0" class="st35 st36 st25">a</tspan><tspan x="129.9" y="0" class="st35 st36 st25">l</tspan><tspan x="134.4" y="0" class="st35 st36 st25">, </tspan></text>
	<rect x="550.6" y="188" class="st37" width="247.3" height="179.1"/>
</g>
<g id="caption" class="st28">
</g>
</svg>
