<svg id="Layer_1" data-name="Layer 1" xmlns="http://www.w3.org/2000/svg" xmlns:xlink="http://www.w3.org/1999/xlink" viewBox="0 0 58 58.44"><defs><style>.cls-1{fill:none;}.cls-2{clip-path:url(#clip-path);}</style><clipPath id="clip-path" transform="translate(-2 -1.56)"><rect class="cls-1" x="2" y="1.56" width="58" height="58.44"/></clipPath></defs><title>cube</title><g class="cls-2"><path d="M58.1,44.14,45.8,56.43V17.56L58.1,5.27ZM44.46,16.22H4.89L17.63,3.47H57.21ZM43.9,58.09h-40v-40h40ZM59,1.56H17.17a.94.94,0,0,0-.82.49L2.27,16.14a.94.94,0,0,0-.23.93.87.87,0,0,0,0,.1V59a1,1,0,0,0,1,1H44.85a.94.94,0,0,0,.93-.86l14-14-.07-.07a1,1,0,0,0,.27-.66V2.51a1,1,0,0,0-1-1" transform="translate(-2 -1.56)"/></g></svg>