<?xml version="1.0" encoding="utf-8"?>
<!-- Generator: Adobe Illustrator 21.1.0, SVG Export Plug-In . SVG Version: 6.00 Build 0)  -->
<svg version="1.1" xmlns="http://www.w3.org/2000/svg" xmlns:xlink="http://www.w3.org/1999/xlink" x="0px" y="0px"
	 viewBox="0 0 627 319.5" style="enable-background:new 0 0 627 319.5;" xml:space="preserve">
<style type="text/css">
	.st0{fill:#231F20;}
	.st1{fill:none;stroke:#231F20;stroke-width:0.7;stroke-dasharray:12.199,12.199;}
	.st2{clip-path:url(#SVGID_4_);}
	.st3{clip-path:url(#SVGID_6_);fill:#055EF2;}
	.st4{clip-path:url(#SVGID_8_);fill:#0563FC;}
	.st5{fill:#055EF2;}
	.st6{fill:#0561F7;}
	.st7{fill:#9403CC;}
	.st8{fill:#9903D1;}
	.st9{fill:#9C03D4;}
	.st10{fill:#A8A8A8;}
	.st11{fill:#A3A3A3;}
	.st12{fill:#A6A6A6;}
	.st13{fill:#29CCF2;}
	.st14{fill:#26C4E8;}
	.st15{fill:#29C9ED;}
	.st16{fill:#12DE7D;}
	.st17{fill:#12D678;}
	.st18{fill:#12DB7A;}
	.st19{fill:#E86B21;}
	.st20{fill:#E0691F;}
	.st21{fill:#E56B1F;}
	.st22{fill:#E54524;}
	.st23{fill:#DE4221;}
	.st24{fill:#E34224;}
	.st25{fill:#C933B2;}
	.st26{fill:#C230AB;}
	.st27{fill:#C733B0;}
	.st28{fill:#E85E91;}
	.st29{fill:#DE598C;}
	.st30{fill:#E35C8F;}
	.st31{fill:#F78573;}
	.st32{fill:#ED8070;}
	.st33{fill:#F28273;}
	.st34{fill:#FCB04D;}
	.st35{fill:#F2A84A;}
	.st36{fill:#F7AB4D;}
	.st37{fill:#FCD400;}
	.st38{fill:#F2CC00;}
	.st39{fill:#F7D100;}
	.st40{fill:none;stroke:#231F20;stroke-width:7.724;}
</style>
<g id="contentsbox">
	<g>
		<defs>
			<path id="SVGID_1_" d="M625.2,281.7l-207.1,29.1h6.4l201.1-28.3V61.7L625.2,281.7z"/>
		</defs>
		<clipPath id="SVGID_2_">
			<use xlink:href="#SVGID_1_"  style="overflow:visible;"/>
		</clipPath>
	</g>
	<g>
		<g>
			<path class="st0" d="M530.9,309.8l-4.5,0.6c0,0.8,0,1.7,0,2.2c0.4-0.4,0.9-0.7,1.9-0.8c2-0.3,3.6,1,3.9,3.2
				c0.3,2.3-0.8,4.2-3.6,4.6c-2.1,0.3-3.8-0.6-4.4-2.6l2.3-0.3c0.3,0.7,0.9,1.2,1.9,1.1c1.3-0.2,1.7-1,1.5-2.3c-0.1-1-0.7-2-2-1.8
				c-1.1,0.1-1.4,0.7-1.6,1.4l-2.1,0c0.1-1.3,0.1-4.7,0.1-6.2l6.7-0.9L530.9,309.8z M535.2,318.4l-0.4-2.8l2.4-0.3l0.4,2.8
				L535.2,318.4z M544.9,317.2l-0.3-2.6l-5,0.7l-0.3-2l3.7-7l2.6-0.3l0.9,6.6l1.3-0.2l0,1.8l-1.1,0.1l0.3,2.6L544.9,317.2z
				 M544.1,310.8c-0.2-1.2-0.3-1.9-0.3-2.5c-0.3,1-1.7,3.5-2.4,5l3-0.4L544.1,310.8z M549.3,309.6c0.2-1.6,0.3-3.5,0.1-4.8l2.4-0.3
				c0.1,1.5-0.2,3.5-0.7,4.9L549.3,309.6z"/>
		</g>
	</g>
	<line class="st1" x1="420.6" y1="317.9" x2="626" y2="289.1"/>
	<g>
		<g>
			<defs>
				<path id="SVGID_3_" d="M314.7,251.8l105.9,57.6c-0.4-0.2-0.7-0.6-0.7-1L314,250.8C314,251.2,314.3,251.5,314.7,251.8"/>
			</defs>
			<clipPath id="SVGID_4_">
				<use xlink:href="#SVGID_3_"  style="overflow:visible;"/>
			</clipPath>
			<g class="st2">
				<defs>
					<rect id="SVGID_5_" x="313.7" width="194.7" height="192.4"/>
				</defs>
				<clipPath id="SVGID_6_">
					<use xlink:href="#SVGID_5_"  style="overflow:visible;"/>
				</clipPath>
				<path class="st3" d="M380.3,192.4l-65.8-35.8c-0.3-0.1-0.4-0.4-0.4-0.6l65.8,35.8C379.8,192.1,380,192.3,380.3,192.4"/>
			</g>
		</g>
		<g>
			<defs>
				<rect id="SVGID_7_" x="314" y="0.2" width="313" height="309.5"/>
			</defs>
			<clipPath id="SVGID_8_">
				<use xlink:href="#SVGID_7_"  style="overflow:visible;"/>
			</clipPath>
			<path class="st4" d="M626.6,275.4l0,3.9c0,0.9-1.1,1.7-2.4,1.9l-201.9,28.4c-1.3,0.2-2.4-0.4-2.4-1.2l0-3.9L626.6,275.4z"/>
		</g>
		<polygon class="st5" points="314,250.8 419.9,308.4 419.9,304.5 314,246.9 		"/>
		<polygon class="st6" points="314,246.9 419.9,304.5 626.6,275.4 520.7,217.8 		"/>
		<polygon class="st7" points="314,246.9 419.9,304.5 419.9,297.4 314,239.8 		"/>
		<polygon class="st8" points="314,239.8 419.9,297.4 626.6,268.4 520.7,210.8 		"/>
		<polygon class="st9" points="626.6,268.4 626.6,275.4 419.9,304.5 419.9,297.4 		"/>
		<polygon class="st10" points="626.6,261.4 626.6,268.4 419.9,297.4 419.9,290.4 		"/>
		<polygon class="st11" points="314,239.8 419.9,297.4 419.9,290.4 314,232.8 		"/>
		<polygon class="st12" points="314,232.8 419.9,290.4 626.6,261.4 520.7,203.8 		"/>
		<polygon class="st13" points="626.6,251.2 626.6,261.4 419.9,290.4 419.9,280.3 		"/>
		<polygon class="st14" points="314,232.8 419.9,290.4 419.9,280.3 314.1,222.7 		"/>
		<polygon class="st15" points="314.1,222.7 419.9,280.3 626.6,251.2 520.8,193.6 		"/>
		<polygon class="st16" points="626.7,239.5 626.6,251.2 419.9,280.3 419.9,268.6 		"/>
		<polygon class="st17" points="314.1,222.7 419.9,280.3 419.9,268.6 314.1,211 		"/>
		<polygon class="st18" points="314.1,211 419.9,268.6 626.7,239.5 520.8,181.9 		"/>
		<polygon class="st19" points="626.7,224.7 626.7,239.5 419.9,268.6 420,253.8 		"/>
		<polygon class="st20" points="314.1,211 419.9,268.6 420,253.8 314.1,196.2 		"/>
		<polygon class="st21" points="314.1,196.2 420,253.8 626.7,224.7 520.8,167.1 		"/>
		<polygon class="st22" points="626.7,208.3 626.7,224.7 420,253.8 420,237.4 		"/>
		<polygon class="st23" points="314.1,196.2 420,253.8 420,237.4 314.1,179.8 		"/>
		<polygon class="st24" points="314.1,179.8 420,237.4 626.7,208.3 520.8,150.7 		"/>
		<polygon class="st25" points="626.8,189.6 626.7,208.3 420,237.4 420,218.6 		"/>
		<polygon class="st26" points="314.1,179.8 420,237.4 420,218.6 314.2,161.1 		"/>
		<polygon class="st27" points="314.2,161.1 420,218.6 626.8,189.6 520.9,132 		"/>
		<polygon class="st28" points="626.8,163.9 626.8,189.6 420,218.6 420.1,192.9 		"/>
		<polygon class="st29" points="314.2,161.1 420,218.6 420.1,192.9 314.2,135.3 		"/>
		<polygon class="st30" points="314.2,135.3 420.1,192.9 626.8,163.9 520.9,106.3 		"/>
		<polygon class="st31" points="420.1,165.6 420.1,192.9 626.8,163.9 626.9,136.5 		"/>
		<polygon class="st32" points="314.2,135.3 420.1,192.9 420.1,165.6 314.3,108 		"/>
		<polygon class="st33" points="314.3,108 420.1,165.6 626.9,136.5 521,79 		"/>
		<polygon class="st34" points="420.2,136 420.1,165.6 626.9,136.5 626.9,106.9 		"/>
		<polygon class="st35" points="314.3,108 420.1,165.6 420.2,136 314.3,78.4 		"/>
		<polygon class="st36" points="314.3,78.4 420.2,136 626.9,106.9 521,49.3 		"/>
		<polygon class="st37" points="420.3,86.8 420.2,136 626.9,106.9 627,57.8 		"/>
		<polygon class="st38" points="314.3,78.4 420.2,136 420.3,86.8 314.4,29.2 		"/>
		<polygon class="st39" points="521.1,0.2 314.4,29.2 420.3,86.8 627,57.8 		"/>
	</g>
</g>
<g id="person">
	<g>
		<polygon points="79.7,89.5 163.6,89.5 79.7,173.4 		"/>
		<polygon points="81.2,278.2 110.9,248.5 110.9,307.9 		"/>
		<g>
			<path d="M0,211.1v42c14-14,28-28,42-42H0z"/>
		</g>
		<rect x="84.2" y="34.3" transform="matrix(0.7071 -0.7071 0.7071 0.7071 -8.2785 90.5886)" width="42" height="42"/>
		<polygon points="115.4,278.2 157.4,236.2 115.4,194.3 		"/>
		<g>
			<path d="M33.2,173.4v-42c14-14,28-28,42-42v42L33.2,173.4z"/>
		</g>
		<polygon points="110.9,232.1 27,232.1 110.9,148.2 		"/>
	</g>
	<g>
		<line class="st40" x1="176.1" y1="150.4" x2="251" y2="150.4"/>
		<line class="st40" x1="176.1" y1="187" x2="251" y2="187"/>
	</g>
</g>
</svg>
