<?xml version="1.0" encoding="utf-8"?>
<!-- Generator: Adobe Illustrator 21.1.0, SVG Export Plug-In . SVG Version: 6.00 Build 0)  -->
<svg version="1.1" xmlns="http://www.w3.org/2000/svg" xmlns:xlink="http://www.w3.org/1999/xlink" x="0px" y="0px"
	 viewBox="0 0 608.5 319.7" style="enable-background:new 0 0 608.5 319.7;" xml:space="preserve">
<style type="text/css">
	.st0{fill:#231F20;}
	.st1{fill:none;stroke:#231F20;stroke-width:0.7;stroke-dasharray:12.199,12.199;}
	.st2{fill:#EDEDED;}
	.st3{fill:#E8E8E8;}
	.st4{fill:#F2F2F2;}
	.st5{fill:none;stroke:#231F20;stroke-width:7.724;}
</style>
<g id="contentsbox_copy">
	<g>
		<defs>
			<path id="SVGID_1_" d="M607.2,281.9L400.1,311h6.4l201.1-28.3V61.9L607.2,281.9z"/>
		</defs>
		<clipPath id="SVGID_2_">
			<use xlink:href="#SVGID_1_"  style="overflow:visible;"/>
		</clipPath>
	</g>
	<g>
		<g>
			<path class="st0" d="M512.9,309.9l-4.5,0.6c0,0.8,0,1.7,0,2.2c0.4-0.4,0.9-0.7,1.9-0.8c2-0.3,3.6,1,3.9,3.2
				c0.3,2.3-0.8,4.2-3.6,4.6c-2.1,0.3-3.8-0.6-4.4-2.6l2.3-0.3c0.3,0.7,0.9,1.2,1.9,1.1c1.3-0.2,1.7-1,1.5-2.3c-0.1-1-0.7-2-2-1.8
				c-1.1,0.1-1.4,0.7-1.6,1.4l-2.1,0c0.1-1.3,0.1-4.7,0.1-6.2l6.7-0.9L512.9,309.9z M517.2,318.6l-0.4-2.8l2.4-0.3l0.4,2.8
				L517.2,318.6z M526.9,317.3l-0.3-2.6l-5,0.7l-0.3-2l3.7-7l2.6-0.3l0.9,6.6l1.3-0.2l0,1.8l-1.1,0.1l0.3,2.6L526.9,317.3z
				 M526.1,310.9c-0.2-1.2-0.3-1.9-0.3-2.5c-0.3,1-1.7,3.5-2.4,5l3-0.4L526.1,310.9z M531.3,309.8c0.2-1.6,0.3-3.5,0.1-4.8l2.4-0.3
				c0.1,1.5-0.2,3.5-0.7,4.9L531.3,309.8z"/>
		</g>
	</g>
	<line class="st1" x1="402.6" y1="318.1" x2="608" y2="289.2"/>
	<g>
		<polygon points="502.5,221.7 607.7,278.9 608.1,57.7 502.9,0.5 		"/>
		<polygon points="297.6,250.5 402.8,307.7 607.7,278.9 502.5,221.7 		"/>
		<polygon class="st2" points="298,29.3 403.2,86.5 608.1,57.7 502.9,0.5 		"/>
		<polygon class="st3" points="297.6,250.5 402.8,307.7 403.2,86.5 298,29.3 		"/>
		<path d="M403.2,86.5l204.9-28.8l-0.4,221.2l-204.9,28.8L403.2,86.5z M402.8,86.1l-0.4,222l205.7-28.9l0.4-222L402.8,86.1z"/>
		<polygon class="st4" points="403.2,86.5 402.8,307.7 607.7,278.9 608.1,57.7 		"/>
		<polygon points="297.2,251 402.4,308.2 402.8,86.1 297.6,28.9 		"/>
		<polygon points="503.3,0 297.6,28.9 402.8,86.1 608.5,57.2 		"/>
	</g>
</g>
<g id="person">
	<g>
		<polygon points="79.7,89.6 163.6,89.6 79.7,173.5 		"/>
		<polygon points="81.2,278.4 110.9,248.7 110.9,308 		"/>
		<g>
			<path d="M0,211.3v42c14-14,28-28,42-42H0z"/>
		</g>
		<rect x="84.2" y="34.5" transform="matrix(0.7071 -0.7071 0.7071 0.7071 -8.3944 90.6367)" width="42" height="42"/>
		<polygon points="115.4,278.4 157.4,236.4 115.4,194.5 		"/>
		<g>
			<path d="M33.2,173.6v-42c14-14,28-28,42-42v42L33.2,173.6z"/>
		</g>
		<polygon points="110.9,232.3 27,232.3 110.9,148.4 		"/>
	</g>
	<g>
		<line class="st5" x1="176.1" y1="150.6" x2="251" y2="150.6"/>
		<line class="st5" x1="176.1" y1="187.2" x2="251" y2="187.2"/>
	</g>
</g>
</svg>
