<?xml version="1.0" encoding="utf-8"?>
<!-- Generator: Adobe Illustrator 21.1.0, SVG Export Plug-In . SVG Version: 6.00 Build 0)  -->
<svg version="1.1" id="Layer_1" xmlns="http://www.w3.org/2000/svg" xmlns:xlink="http://www.w3.org/1999/xlink" x="0px" y="0px"
	 viewBox="0 0 748.1 330.2" style="enable-background:new 0 0 748.1 330.2;" xml:space="preserve">
<style type="text/css">
	.st0{clip-path:url(#SVGID_2_);}
	.st1{clip-path:url(#SVGID_4_);}
	.st2{fill:none;stroke:#231F20;stroke-width:7.724;}
	.st3{clip-path:url(#SVGID_6_);fill:none;stroke:#231F20;stroke-width:0.47;stroke-miterlimit:10;}
	.st4{clip-path:url(#SVGID_8_);fill:none;stroke:#231F20;stroke-width:0.47;stroke-miterlimit:10;}
	.st5{clip-path:url(#SVGID_10_);fill:none;stroke:#231F20;stroke-width:0.47;stroke-miterlimit:10;}
	.st6{clip-path:url(#SVGID_12_);fill:none;stroke:#231F20;stroke-width:0.47;stroke-miterlimit:10;}
	.st7{clip-path:url(#SVGID_14_);fill:none;stroke:#231F20;stroke-width:0.47;stroke-miterlimit:10;}
	.st8{clip-path:url(#SVGID_16_);fill:none;stroke:#231F20;stroke-width:0.47;stroke-miterlimit:10;}
	.st9{clip-path:url(#SVGID_18_);fill:none;stroke:#231F20;stroke-width:0.47;stroke-miterlimit:10;}
	.st10{clip-path:url(#SVGID_20_);fill:none;stroke:#231F20;stroke-width:0.47;stroke-miterlimit:10;}
	.st11{clip-path:url(#SVGID_22_);fill:none;stroke:#231F20;stroke-width:0.47;stroke-miterlimit:10;}
	.st12{clip-path:url(#SVGID_24_);fill:none;stroke:#231F20;stroke-width:0.47;stroke-miterlimit:10;}
	.st13{clip-path:url(#SVGID_26_);fill:#231F20;}
	.st14{fill:none;stroke:#231F20;stroke-width:0.7;stroke-dasharray:12.199,12.199;}
</style>
<polygon points="79.7,63.9 163.6,63.9 79.7,147.8 "/>
<polygon points="81.2,252.6 110.9,222.9 110.9,282.2 "/>
<g>
	<defs>
		<rect id="SVGID_1_" width="748.1" height="330.2"/>
	</defs>
	<clipPath id="SVGID_2_">
		<use xlink:href="#SVGID_1_"  style="overflow:visible;"/>
	</clipPath>
	<path class="st0" d="M0,185.5v42c14-14,28-28,42-42H0z"/>
</g>
<rect x="84.2" y="8.7" transform="matrix(0.7071 -0.7071 0.7071 0.7071 9.8397 83.0838)" width="42" height="42"/>
<polygon points="115.4,252.6 157.4,210.6 115.4,168.7 "/>
<g>
	<defs>
		<rect id="SVGID_3_" width="748.1" height="330.2"/>
	</defs>
	<clipPath id="SVGID_4_">
		<use xlink:href="#SVGID_3_"  style="overflow:visible;"/>
	</clipPath>
	<path class="st1" d="M33.2,147.8v-42c14-14,28-28,42-42v42L33.2,147.8z"/>
</g>
<polygon points="110.9,206.5 27,206.5 110.9,122.6 "/>
<line class="st2" x1="223.1" y1="122.8" x2="339.9" y2="122.8"/>
<line class="st2" x1="223.1" y1="159.4" x2="339.9" y2="159.4"/>
<g>
	<defs>
		<path id="SVGID_5_" d="M431.2,30.3L639.5,1l-0.4,224.8l-208.3,29.3L431.2,30.3z M640.3,0L430.4,29.5L430,256.1l209.9-29.5L640.3,0
			z"/>
	</defs>
	<clipPath id="SVGID_6_">
		<use xlink:href="#SVGID_5_"  style="overflow:visible;"/>
	</clipPath>
	<path class="st3" d="M639.1,225.8L639.5,1L431.2,30.3l-0.4,224.8L639.1,225.8z M430.4,29.5L640.3,0l-0.4,226.6L430,256.1
		L430.4,29.5z"/>
</g>
<g>
	<defs>
		<path id="SVGID_7_" d="M746.2,284.1l-207.1,29.1h6.4l201.1-28.3V64.1L746.2,284.1z M537.5,87.8l-0.4,225.4h0.8l0.4-224.6
			l208.3-29.3v-0.9L537.5,87.8z"/>
	</defs>
	<clipPath id="SVGID_8_">
		<use xlink:href="#SVGID_7_"  style="overflow:visible;"/>
	</clipPath>
	<path class="st4" d="M746.2,284.1l0.4-224.8L538.3,88.5l-0.4,224.8L746.2,284.1z M537.5,87.8l209.9-29.5L747,284.9l-209.9,29.5
		L537.5,87.8z"/>
</g>
<g>
	<defs>
		<polygon id="SVGID_9_" points="430.4,29.5 537.5,87.8 746.6,58.4 746.6,57.8 640.3,0 		"/>
	</defs>
	<clipPath id="SVGID_10_">
		<use xlink:href="#SVGID_9_"  style="overflow:visible;"/>
	</clipPath>
	<polygon class="st5" points="537.5,87.8 430.4,29.5 640.3,0 747.5,58.3 	"/>
</g>
<g>
	<defs>
		<polygon id="SVGID_11_" points="639.9,226.6 746.6,284.6 746.6,57.8 640.3,0 		"/>
	</defs>
	<clipPath id="SVGID_12_">
		<use xlink:href="#SVGID_11_"  style="overflow:visible;"/>
	</clipPath>
	<polygon class="st6" points="747.5,58.3 747,284.9 639.9,226.6 640.3,0 	"/>
</g>
<g>
	<defs>
		<polygon id="SVGID_13_" points="430,256.1 534.9,313.2 545.5,313.2 746.6,284.9 746.6,284.6 639.9,226.6 		"/>
	</defs>
	<clipPath id="SVGID_14_">
		<use xlink:href="#SVGID_13_"  style="overflow:visible;"/>
	</clipPath>
	<polygon class="st7" points="747,284.9 537.1,314.4 430,256.1 639.9,226.6 	"/>
</g>
<g>
	<defs>
		<polygon id="SVGID_15_" points="430,256.1 534.9,313.2 537.1,313.2 537.5,87.8 430.4,29.5 		"/>
	</defs>
	<clipPath id="SVGID_16_">
		<use xlink:href="#SVGID_15_"  style="overflow:visible;"/>
	</clipPath>
	<polygon class="st8" points="537.1,314.4 430,256.1 430.4,29.5 537.5,87.8 	"/>
</g>
<g>
	<defs>
		<polygon id="SVGID_17_" points="639.1,225.8 746.2,284.1 746.6,64.1 746.6,59.3 639.5,1 		"/>
	</defs>
	<clipPath id="SVGID_18_">
		<use xlink:href="#SVGID_17_"  style="overflow:visible;"/>
	</clipPath>
	<polygon class="st9" points="746.2,284.1 639.1,225.8 639.5,1 746.6,59.3 	"/>
</g>
<g>
	<defs>
		<polygon id="SVGID_19_" points="432.8,32.2 539.9,90.5 748.1,61.2 748.1,61.2 641,2.9 		"/>
	</defs>
	<clipPath id="SVGID_20_">
		<use xlink:href="#SVGID_19_"  style="overflow:visible;"/>
	</clipPath>
	<polygon class="st10" points="748.1,61.2 539.9,90.5 432.8,32.2 641,2.9 	"/>
</g>
<g>
	<defs>
		<polygon id="SVGID_21_" points="430.8,255.1 537.6,313.2 537.9,313.2 538.3,88.5 431.2,30.3 		"/>
	</defs>
	<clipPath id="SVGID_22_">
		<use xlink:href="#SVGID_21_"  style="overflow:visible;"/>
	</clipPath>
	<polygon class="st11" points="538.3,88.5 537.9,313.4 430.8,255.1 431.2,30.3 	"/>
</g>
<g>
	<defs>
		<polygon id="SVGID_23_" points="430.8,255.1 537.6,313.2 539.1,313.2 746.2,284.1 639.1,225.8 		"/>
	</defs>
	<clipPath id="SVGID_24_">
		<use xlink:href="#SVGID_23_"  style="overflow:visible;"/>
	</clipPath>
	<polygon class="st12" points="537.9,313.4 430.8,255.1 639.1,225.8 746.2,284.1 	"/>
</g>
<g>
	<defs>
		<rect id="SVGID_25_" width="748.1" height="330.2"/>
	</defs>
	<clipPath id="SVGID_26_">
		<use xlink:href="#SVGID_25_"  style="overflow:visible;"/>
	</clipPath>
	<path class="st13" d="M609.9,318.1l-4.5,0.6c0,0.8,0,1.7,0,2.2c0.4-0.4,0.9-0.7,1.9-0.8c2-0.3,3.6,1,3.9,3.2
		c0.3,2.3-0.8,4.2-3.6,4.6c-2.1,0.3-3.8-0.6-4.4-2.6l2.3-0.3c0.3,0.7,0.9,1.2,1.9,1.1c1.3-0.2,1.7-1,1.5-2.3c-0.1-1-0.7-2-2-1.8
		c-1.1,0.1-1.4,0.7-1.6,1.4l-2.1,0c0.1-1.3,0.1-4.7,0.1-6.2l6.7-0.9L609.9,318.1z M614.2,326.8l-0.4-2.8l2.4-0.3l0.4,2.8
		L614.2,326.8z M623.9,325.5l-0.3-2.6l-5,0.7l-0.3-2l3.7-7l2.6-0.3l0.9,6.6l1.3-0.2l0,1.8l-1.1,0.1l0.3,2.6L623.9,325.5z
		 M623.1,319.1c-0.2-1.2-0.3-1.9-0.3-2.5c-0.3,1-1.7,3.5-2.4,5l3-0.4L623.1,319.1z M628.3,318c0.2-1.6,0.3-3.5,0.1-4.8l2.4-0.3
		c0.1,1.5-0.2,3.5-0.7,4.9L628.3,318z M645.8,322.7l-2.8-3.5l0,0l-1.9,4.2l-2.6,0.3l2.9-6l-4.2-5l2.7-0.4l2.7,3.3l0,0l1.8-3.9
		l2.5-0.3l-2.8,5.7l4.5,5.2L645.8,322.7z M661.1,311.4l-4.5,0.6c0,0.8,0,1.7,0,2.2c0.4-0.4,0.9-0.7,1.9-0.8c2-0.3,3.6,1,3.9,3.2
		c0.3,2.3-0.8,4.2-3.6,4.6c-2.1,0.3-3.8-0.6-4.4-2.6l2.3-0.3c0.3,0.7,0.9,1.2,1.9,1.1c1.3-0.2,1.7-1,1.5-2.3c-0.1-1-0.7-2-2-1.8
		c-1.1,0.1-1.4,0.7-1.6,1.4l-2.1,0c0.1-1.3,0.1-4.7,0.1-6.2l6.7-0.9L661.1,311.4z M665.4,320.1l-0.4-2.8l2.4-0.3l0.4,2.8
		L665.4,320.1z M675.1,318.8l-0.3-2.6l-5,0.7l-0.3-2l3.7-7l2.6-0.3l0.9,6.6l1.3-0.2l0,1.8l-1.1,0.1l0.3,2.6L675.1,318.8z
		 M674.3,312.4c-0.2-1.2-0.3-1.9-0.3-2.5c-0.3,1-1.7,3.5-2.4,5l3-0.4L674.3,312.4z M679.5,311.2c0.2-1.6,0.3-3.5,0.1-4.8l2.4-0.3
		c0.1,1.5-0.2,3.5-0.7,4.9L679.5,311.2z"/>
</g>
<line class="st14" x1="541.6" y1="320.3" x2="747" y2="291.4"/>
</svg>
