<?xml version="1.0" encoding="utf-8"?>
<!-- Generator: Adobe Illustrator 21.1.0, SVG Export Plug-In . SVG Version: 6.00 Build 0)  -->
<svg version="1.1" id="Layer_1" xmlns="http://www.w3.org/2000/svg" xmlns:xlink="http://www.w3.org/1999/xlink" x="0px" y="0px"
	 viewBox="0 0 864.8 105" style="enable-background:new 0 0 864.8 105;" xml:space="preserve">
<style type="text/css">
	.st0{clip-path:url(#SVGID_2_);}
	.st1{fill:#FFFFFF;}
	.st2{font-family:'AcuminPro-Bold';}
	.st3{font-size:20px;}
	.st4{letter-spacing:-1;}
	.st5{fill:#29CEF4;}
	.st6{clip-path:url(#SVGID_4_);}
	.st7{fill:#12E17E;}
	.st8{clip-path:url(#SVGID_6_);}
	.st9{clip-path:url(#SVGID_8_);}
	.st10{fill:#00FFFF;}
	.st11{clip-path:url(#SVGID_10_);}
	.st12{fill:#FFB04E;}
	.st13{clip-path:url(#SVGID_12_);}
	.st14{fill:#E95F93;}
	.st15{clip-path:url(#SVGID_14_);}
</style>
<g>
	<g>
		<defs>
			<rect id="SVGID_1_" width="864.8" height="105"/>
		</defs>
		<clipPath id="SVGID_2_">
			<use xlink:href="#SVGID_1_"  style="overflow:visible;"/>
		</clipPath>
		<g class="st0">
			<text transform="matrix(1 0 0 1 0 13.7798)" class="st1 st2 st3">A </text>
			<text transform="matrix(1 0 0 1 18.6 13.7798)" class="st1 st2 st3">m</text>
			<text transform="matrix(1 0 0 1 35.9 13.7798)" class="st1 st2 st3">a</text>
			<text transform="matrix(1 0 0 1 47 13.7798)" class="st1 st2 st3">j</text>
			<text transform="matrix(1 0 0 1 52.3 13.7798)" class="st1 st2 st3">o</text>
			<text transform="matrix(1 0 0 1 63.9 13.7798)" class="st1 st2 st3">r</text>
			<text transform="matrix(1 0 0 1 71.5 13.7798)" class="st1 st2 st3">i</text>
			<text transform="matrix(1 0 0 1 76.9 13.7798)" class="st1 st2 st3">t</text>
			<text transform="matrix(1 0 0 1 84.5 13.7798)" class="st1 st2 st3">y </text>
			<text transform="matrix(1 0 0 1 99.7 13.7798)" class="st1 st2 st3">o</text>
			<text transform="matrix(1 0 0 1 111.2 13.7798)" class="st1 st2 st3">f </text>
			<text transform="matrix(1 0 0 1 122.6 13.7798)" class="st1 st2 st3">cu</text>
			<text transform="matrix(1 0 0 1 145 13.7798)" class="st1 st2 st3">s</text>
			<text transform="matrix(1 0 0 1 155.3 13.7798)" class="st1 st2 st3">t</text>
			<text transform="matrix(1 0 0 1 162.3 13.7798)" class="st1 st2 st3">o</text>
			<text transform="matrix(1 0 0 1 173.9 13.7798)" class="st1 st2 st3">mer</text>
			<text transform="matrix(1 0 0 1 210.1 13.7798)" class="st1 st2 st3">s </text>
			<text transform="matrix(1 0 0 1 225.3 13.7798)" class="st1 st2 st3">r</text>
			<text transform="matrix(1 0 0 1 233.1 13.7798)" class="st1 st2 st3">e</text>
			<text transform="matrix(1 0 0 1 244.1 13.7798)" class="st1 st2 st3">n</text>
			<text transform="matrix(1 0 0 1 255.8 13.7798)" class="st1 st2 st3">t </text>
			<text transform="matrix(1 0 0 1 267.9 13.7798)" class="st1 st2 st3">f</text>
			<text transform="matrix(1 0 0 1 274.3 13.7798)" class="st1 st2 st3">o</text>
			<text transform="matrix(1 0 0 1 285.9 13.7798)" class="st1 st2 st3">r </text>
			<text transform="matrix(1 0 0 1 298.6 13.7798)" class="st1 st2 st3">o</text>
			<text transform="matrix(1 0 0 1 309.8 13.7798)" class="st1 st2 st3">v</text>
			<text transform="matrix(1 0 0 1 319.9 13.7798)" class="st1 st2 st3">e</text>
			<text transform="matrix(1 0 0 1 330.9 13.7798)" class="st1 st2 st3">r a </text>
			<text transform="matrix(1 0 0 1 359.7 13.7798)" class="st1 st2 st3">y</text>
			<text transform="matrix(1 0 0 1 369.7 13.7798)" class="st1 st2 st3">e</text>
			<text transform="matrix(1 0 0 1 380.8 13.7798)" class="st1 st2 st3">a</text>
			<text transform="matrix(1 0 0 1 391.8 13.7798)" class="st1 st2 st3 st4">r</text>
			<text transform="matrix(1 0 0 1 398.7 13.7798)" class="st1 st2 st3">. </text>
		</g>
	</g>
</g>
<rect x="147.3" y="35.6" class="st5" width="172.9" height="23.4"/>
<g>
	<g>
		<defs>
			<rect id="SVGID_3_" width="864.8" height="105"/>
		</defs>
		<clipPath id="SVGID_4_">
			<use xlink:href="#SVGID_3_"  style="overflow:visible;"/>
		</clipPath>
		<g class="st6">
			<text transform="matrix(1 0 0 1 0 80.022)" class="st7 st2 st3">&gt; 3 </text>
			<text transform="matrix(1 0 0 1 33.2 80.022)" class="st7 st2 st3">m</text>
			<text transform="matrix(1 0 0 1 50.5 80.022)" class="st7 st2 st3">o</text>
			<text transform="matrix(1 0 0 1 62 80.022)" class="st7 st2 st3">s </text>
		</g>
	</g>
	<g>
		<defs>
			<rect id="SVGID_5_" width="864.8" height="105"/>
		</defs>
		<clipPath id="SVGID_6_">
			<use xlink:href="#SVGID_5_"  style="overflow:visible;"/>
		</clipPath>
		<g class="st8">
			<text transform="matrix(1 0 0 1 0 105.022)" class="st7 st2 st3">1</text>
			<text transform="matrix(1 0 0 1 7.8 105.022)" class="st7 st2 st3">7</text>
			<text transform="matrix(1 0 0 1 18 105.022)" class="st7 st2 st3">%</text>
		</g>
	</g>
</g>
<text transform="matrix(1 0 0 1 146.96 80.022)" class="st5 st2 st3">3 </text>
<text transform="matrix(1 0 0 1 162.96 80.022)" class="st5 st2 st3">t</text>
<text transform="matrix(1 0 0 1 169.96 80.022)" class="st5 st2 st3">o 6  </text>
<text transform="matrix(1 0 0 1 202.16 80.022)" class="st5 st2 st3">m</text>
<text transform="matrix(1 0 0 1 219.46 80.022)" class="st5 st2 st3">o</text>
<text transform="matrix(1 0 0 1 230.96 80.022)" class="st5 st2 st3">s </text>
<g>
	<g>
		<defs>
			<rect id="SVGID_7_" width="864.8" height="105"/>
		</defs>
		<clipPath id="SVGID_8_">
			<use xlink:href="#SVGID_7_"  style="overflow:visible;"/>
		</clipPath>
		<g class="st9">
			<text transform="matrix(1 0 0 1 146.96 105.022)" class="st5 st2 st3">2</text>
			<text transform="matrix(1 0 0 1 158.06 105.022)" class="st5 st2 st3">0</text>
			<text transform="matrix(1 0 0 1 169.96 105.022)" class="st5 st2 st3">%</text>
		</g>
	</g>
</g>
<text transform="matrix(1 0 0 1 319.854 80.022)" class="st10 st2 st3">7 </text>
<text transform="matrix(1 0 0 1 334.554 80.022)" class="st10 st2 st3">t</text>
<text transform="matrix(1 0 0 1 341.554 80.022)" class="st10 st2 st3">o </text>
<text transform="matrix(1 0 0 1 358.054 80.022)" class="st10 st2 st3">1</text>
<text transform="matrix(1 0 0 1 365.954 80.022)" class="st10 st2 st3">2 </text>
<text transform="matrix(1 0 0 1 381.854 80.022)" class="st10 st2 st3">m</text>
<text transform="matrix(1 0 0 1 399.254 80.022)" class="st10 st2 st3">o</text>
<text transform="matrix(1 0 0 1 410.754 80.022)" class="st10 st2 st3">s </text>
<g>
	<g>
		<defs>
			<rect id="SVGID_9_" width="864.8" height="105"/>
		</defs>
		<clipPath id="SVGID_10_">
			<use xlink:href="#SVGID_9_"  style="overflow:visible;"/>
		</clipPath>
		<g class="st11">
			<text transform="matrix(1 0 0 1 319.854 105.022)" class="st10 st2 st3">1</text>
			<text transform="matrix(1 0 0 1 327.654 105.022)" class="st10 st2 st3">7</text>
			<text transform="matrix(1 0 0 1 337.854 105.022)" class="st10 st2 st3">%</text>
		</g>
	</g>
</g>
<text transform="matrix(1 0 0 1 466.8145 80.022)" class="st12 st2 st3">1 </text>
<text transform="matrix(1 0 0 1 479.6145 80.022)" class="st12 st2 st3">t</text>
<text transform="matrix(1 0 0 1 486.6145 80.022)" class="st12 st2 st3">o 2 </text>
<text transform="matrix(1 0 0 1 519.0145 80.022)" class="st12 st2 st3">yr</text>
<text transform="matrix(1 0 0 1 537.2145 80.022)" class="st12 st2 st3">s</text>
<g>
	<g>
		<defs>
			<rect id="SVGID_11_" width="864.8" height="105"/>
		</defs>
		<clipPath id="SVGID_12_">
			<use xlink:href="#SVGID_11_"  style="overflow:visible;"/>
		</clipPath>
		<g class="st13">
			<text transform="matrix(1 0 0 1 466.8145 105.022)" class="st12 st2 st3">2</text>
			<text transform="matrix(1 0 0 1 477.8145 105.022)" class="st12 st2 st3">1</text>
			<text transform="matrix(1 0 0 1 485.5145 105.022)" class="st12 st2 st3">%</text>
		</g>
	</g>
</g>
<text transform="matrix(1 0 0 1 648.353 80.022)" class="st14 st2 st3">&lt; 2 </text>
<text transform="matrix(1 0 0 1 681.453 80.022)" class="st14 st2 st3">yr</text>
<text transform="matrix(1 0 0 1 699.653 80.022)" class="st14 st2 st3">s</text>
<g>
	<g>
		<defs>
			<rect id="SVGID_13_" width="864.8" height="105"/>
		</defs>
		<clipPath id="SVGID_14_">
			<use xlink:href="#SVGID_13_"  style="overflow:visible;"/>
		</clipPath>
		<g class="st15">
			<text transform="matrix(1 0 0 1 648.353 105.022)" class="st14 st2 st3">2</text>
			<text transform="matrix(1 0 0 1 659.453 105.022)" class="st14 st2 st3">5</text>
			<text transform="matrix(1 0 0 1 670.653 105.022)" class="st14 st2 st3">%</text>
		</g>
	</g>
</g>
<rect x="648.7" y="35.6" class="st14" width="216.1" height="23.4"/>
<rect x="0.4" y="35.6" class="st7" width="147" height="23.4"/>
<rect x="320.2" y="35.6" class="st10" width="147" height="23.4"/>
<rect x="467.2" y="35.6" class="st12" width="181.5" height="23.4"/>
</svg>
