<?xml version="1.0" encoding="utf-8"?>
<!-- Generator: Adobe Illustrator 21.1.0, SVG Export Plug-In . SVG Version: 6.00 Build 0)  -->
<svg version="1.1" id="Layer_1" xmlns="http://www.w3.org/2000/svg" xmlns:xlink="http://www.w3.org/1999/xlink" x="0px" y="0px"
	 viewBox="0 0 1240.7 507.7" style="enable-background:new 0 0 1240.7 507.7;" xml:space="preserve">
<style type="text/css">
	.st0{fill:#FFFFFF;}
	.st1{fill:#00FFFF;}
	.st2{fill:#FFB04E;}
	.st3{fill:#E95F93;}
	.st4{fill:none;stroke:#FAFAFF;stroke-dasharray:4.019,4.019;}
	.st5{fill:none;stroke:#FAFAFF;stroke-dasharray:3.96,3.96;}
	.st6{fill:none;stroke:#FAFAFF;stroke-dasharray:4.055,4.055;}
	.st7{fill:none;stroke:#FAFAFF;stroke-dasharray:4.13,4.13;}
	.st8{fill:none;stroke:#FAFAFF;stroke-width:2;}
	.st9{fill:none;stroke:#FAFAFF;stroke-dasharray:4.101,4.101;}
	.st10{fill:none;stroke:#FAFAFF;stroke-dasharray:3.994,3.994;}
	.st11{fill:none;stroke:#FAFAFF;stroke-dasharray:4.172,4.172;}
	.st12{fill:none;stroke:#FAFAFF;stroke-width:0.4;}
	.st13{fill:none;stroke:#FAFAFF;stroke-dasharray:3.984,3.984;}
	.st14{fill:none;stroke:#FAFAFF;stroke-dasharray:3.974,3.974;}
	.st15{fill:none;stroke:#FAFAFF;stroke-dasharray:3.99,3.99;}
	.st16{fill:none;stroke:#FAFAFF;stroke-dasharray:3.997,3.997;}
	.st17{fill:none;stroke:#FAFAFF;stroke-dasharray:4.013,4.013;}
	.st18{clip-path:url(#SVGID_2_);fill:#00FFFF;}
	.st19{clip-path:url(#SVGID_2_);fill:#29CEF4;}
	.st20{clip-path:url(#SVGID_2_);fill:#12E17E;}
	.st21{fill:#29CEF4;}
	.st22{fill:#12E17E;}
	.st23{clip-path:url(#SVGID_4_);fill:#FFB04E;}
	.st24{clip-path:url(#SVGID_6_);fill:none;stroke:#FFFFFF;stroke-width:0.331;}
	.st25{clip-path:url(#SVGID_8_);fill:#E95F93;}
	.st26{font-family:'AcuminPro-Bold';}
	.st27{font-size:16px;}
	.st28{fill:none;stroke:#FFFFFF;}
	.st29{fill:#231F20;}
</style>
<path class="st0" d="M82.2,470.8c0,2.8-1,5.8-4.2,5.8c-3.2,0-4.2-2.7-4.2-5.7c0-2.8,1.1-5.7,4.3-5.7
	C81.1,465.2,82.2,467.9,82.2,470.8z M76.1,470.9c0,2.2,0.4,3.9,1.9,3.9c1.4,0,1.8-1.7,1.8-3.9c0-2.1-0.4-3.8-1.8-3.8
	S76.1,468.5,76.1,470.9z M99.3,472.3c0-1.9,0-4,0.1-5.2h-0.1c-0.5,2.3-1.6,5.9-2.7,9.4h-2c-0.8-3-2-7.2-2.4-9.4h-0.1
	c0.1,1.3,0.1,3.6,0.1,5.5v4H90v-11h3.6c0.9,2.9,1.8,6.5,2.2,8.1h0c0.3-1.4,1.5-5.3,2.4-8.1h3.4v11h-2.3V472.3z M115.3,470.9
	c0,3.1-1.8,5.7-5.4,5.7c-3.5,0-5.3-2.5-5.3-5.7c0-3.2,2-5.7,5.4-5.7C113.3,465.2,115.3,467.5,115.3,470.9z M107.1,470.8
	c0,2.2,0.9,3.8,2.9,3.8c2.1,0,2.9-1.8,2.9-3.7c0-2.1-0.9-3.7-2.9-3.7C108,467.2,107.1,468.7,107.1,470.8z"/>
<path class="st1" d="M457.6,476.4v-8.3c-0.5,0.2-1.6,0.4-2.1,0.4v-1.7c1-0.2,2.2-0.8,2.8-1.5h1.7v11H457.6z M471,476.4v-3.9
	c0-0.1,0-0.2-0.1-0.4l-3.8-6.8h2.7c0.8,1.7,2,3.9,2.5,5.1c0.5-1.2,1.7-3.5,2.5-5.1h2.5l-3.9,6.7c0,0.1-0.1,0.1-0.1,0.4v3.9H471z
	 M481.9,472v4.4h-2.3v-11h4.8c2.4,0,3.7,1.3,3.7,3c0,1.5-0.8,2.3-1.6,2.6c0.5,0.2,1.4,0.8,1.4,2.8v0.5c0,0.7,0,1.6,0.2,2.1h-2.3
	c-0.2-0.5-0.2-1.3-0.2-2.5v-0.2c0-1.2-0.3-1.8-2.1-1.8H481.9z M481.9,470.1h2c1.3,0,1.8-0.5,1.8-1.4c0-0.9-0.6-1.4-1.8-1.4h-2V470.1
	z"/>
<path class="st2" d="M832.6,476.4v-0.1c0-1.8,0.5-3.4,3.4-5.4c1.5-1.1,1.9-1.3,1.9-2.3c0-0.9-0.5-1.5-1.4-1.5c-1,0-1.4,0.6-1.6,1.6
	h-2.4c0.2-1.8,1.4-3.4,3.9-3.4c2.8,0,3.8,1.8,3.8,3.3c0,1.7-0.7,2.4-2.7,3.8c-1.4,0.9-2,1.6-2.2,2.2h5.4l-0.3,1.9H832.6z
	 M850.7,476.4v-3.9c0-0.1,0-0.2-0.1-0.4l-3.8-6.8h2.7c0.8,1.7,2,3.9,2.5,5.1c0.5-1.2,1.7-3.5,2.5-5.1h2.5l-3.9,6.7
	c0,0.1-0.1,0.1-0.1,0.4v3.9H850.7z M861.6,472v4.4h-2.3v-11h4.8c2.4,0,3.7,1.3,3.7,3c0,1.5-0.8,2.3-1.6,2.6c0.5,0.2,1.4,0.8,1.4,2.8
	v0.5c0,0.7,0,1.6,0.2,2.1h-2.3c-0.2-0.5-0.2-1.3-0.2-2.5v-0.2c0-1.2-0.3-1.8-2.1-1.8H861.6z M861.6,470.1h2c1.3,0,1.8-0.5,1.8-1.4
	c0-0.9-0.6-1.4-1.8-1.4h-2V470.1z M872.7,473.2c0.3,1.1,1,1.6,2.3,1.6s1.8-0.5,1.8-1.3c0-0.9-0.5-1.3-2.4-1.7
	c-3-0.7-3.7-1.8-3.7-3.3c0-1.9,1.4-3.2,4-3.2c2.9,0,4.1,1.6,4.3,3.2h-2.4c-0.1-0.7-0.5-1.4-1.9-1.4c-1,0-1.6,0.4-1.6,1.2
	c0,0.8,0.5,1.1,2.3,1.5c3.2,0.8,3.9,2,3.9,3.5c0,2-1.5,3.4-4.4,3.4c-2.8,0-4.3-1.4-4.5-3.4H872.7z"/>
<path class="st3" d="M954.3,468c-0.1-0.5-0.5-1.1-1.5-1.1c-1.6,0-1.9,1.6-2,3.1c0.5-0.6,1.2-1.1,2.5-1.1c2,0,3.5,1.4,3.5,3.6
	c0,2.3-1.4,4-4.1,4c-3.1,0-4.3-2.3-4.3-5.6c0-2.4,0.8-5.8,4.4-5.8c2.5,0,3.5,1.5,3.7,2.8H954.3z M954.5,472.8c0-1.1-0.4-2-1.8-2
	c-1,0-1.7,0.6-1.7,1.9c0,1.1,0.5,2.1,1.7,2.1C953.9,474.8,954.5,474,954.5,472.8z M967,476.4v-3.9c0-0.1,0-0.2-0.1-0.4l-3.8-6.8h2.7
	c0.8,1.7,2,3.9,2.5,5.1c0.5-1.2,1.7-3.5,2.5-5.1h2.5l-3.9,6.7c0,0.1-0.1,0.1-0.1,0.4v3.9H967z M977.9,472v4.4h-2.3v-11h4.8
	c2.4,0,3.7,1.3,3.7,3c0,1.5-0.8,2.3-1.6,2.6c0.5,0.2,1.4,0.8,1.4,2.8v0.5c0,0.7,0,1.6,0.2,2.1h-2.3c-0.2-0.5-0.2-1.3-0.2-2.5v-0.2
	c0-1.2-0.3-1.8-2.1-1.8H977.9z M977.9,470.1h2c1.3,0,1.8-0.5,1.8-1.4c0-0.9-0.6-1.4-1.8-1.4h-2V470.1z M988.9,473.2
	c0.3,1.1,1,1.6,2.3,1.6s1.8-0.5,1.8-1.3c0-0.9-0.5-1.3-2.4-1.7c-3-0.7-3.7-1.8-3.7-3.3c0-1.9,1.4-3.2,4-3.2c2.9,0,4.1,1.6,4.3,3.2
	h-2.4c-0.1-0.7-0.5-1.4-1.9-1.4c-1,0-1.6,0.4-1.6,1.2c0,0.8,0.5,1.1,2.3,1.5c3.2,0.8,3.9,2,3.9,3.5c0,2-1.5,3.4-4.4,3.4
	c-2.8,0-4.3-1.4-4.5-3.4H988.9z"/>
<path class="st3" d="M1166.4,476.4v-8.3c-0.5,0.2-1.6,0.4-2.1,0.4v-1.7c1-0.2,2.2-0.8,2.8-1.5h1.7v11H1166.4z M1171.7,476.4v-0.1
	c0-1.8,0.5-3.4,3.4-5.4c1.5-1.1,1.9-1.3,1.9-2.3c0-0.9-0.5-1.5-1.4-1.5c-1,0-1.4,0.6-1.6,1.6h-2.4c0.2-1.8,1.4-3.4,3.9-3.4
	c2.8,0,3.8,1.8,3.8,3.3c0,1.7-0.7,2.4-2.7,3.8c-1.4,0.9-2,1.6-2.2,2.2h5.4l-0.3,1.9H1171.7z M1189.8,476.4v-3.9c0-0.1,0-0.2-0.1-0.4
	l-3.8-6.8h2.7c0.8,1.7,2,3.9,2.5,5.1c0.5-1.2,1.7-3.5,2.5-5.1h2.5l-3.9,6.7c0,0.1-0.1,0.1-0.1,0.4v3.9H1189.8z M1200.7,472v4.4h-2.3
	v-11h4.8c2.4,0,3.7,1.3,3.7,3c0,1.5-0.8,2.3-1.6,2.6c0.5,0.2,1.4,0.8,1.4,2.8v0.5c0,0.7,0,1.6,0.2,2.1h-2.3
	c-0.2-0.5-0.2-1.3-0.2-2.5v-0.2c0-1.2-0.3-1.8-2.1-1.8H1200.7z M1200.7,470.1h2c1.3,0,1.8-0.5,1.8-1.4c0-0.9-0.6-1.4-1.8-1.4h-2
	V470.1z M1211.8,473.2c0.3,1.1,1,1.6,2.3,1.6s1.8-0.5,1.8-1.3c0-0.9-0.5-1.3-2.4-1.7c-3-0.7-3.7-1.8-3.7-3.3c0-1.9,1.4-3.2,4-3.2
	c2.9,0,4.1,1.6,4.3,3.2h-2.4c-0.1-0.7-0.5-1.4-1.9-1.4c-1,0-1.6,0.4-1.6,1.2c0,0.8,0.5,1.1,2.3,1.5c3.2,0.8,3.9,2,3.9,3.5
	c0,2-1.5,3.4-4.4,3.4c-2.8,0-4.3-1.4-4.5-3.4H1211.8z"/>
<line class="st4" x1="88.2" y1="210.7" x2="855.9" y2="210.7"/>
<line class="st5" x1="88.2" y1="302" x2="472.3" y2="302"/>
<line class="st6" x1="88.2" y1="342.7" x2="286.9" y2="342.7"/>
<line class="st7" x1="88.2" y1="381.2" x2="183.2" y2="381.2"/>
<path class="st0" d="M38,436.9v-1.4c-1.9-0.3-3-1.4-3.2-3h2.3c0.2,0.9,0.9,1.4,2,1.4c1.2,0,1.7-0.6,1.7-1.3c0-0.8-0.5-1.3-2.1-1.7
	c-2.8-0.8-3.6-1.9-3.6-3.5c0-1.7,1.2-2.7,2.8-3v-1.1h2v1.1c2.1,0.3,2.8,1.6,3,2.8h-2.4c-0.1-0.4-0.4-1.2-1.7-1.2
	c-1.1,0-1.4,0.7-1.4,1.2c0,0.8,0.5,1.1,2.2,1.6c2.7,0.8,3.5,2,3.5,3.6c0,1.8-1.2,2.9-3.1,3.2v1.4H38z M53.8,429.8
	c0,2.8-1,5.8-4.2,5.8c-3.2,0-4.2-2.7-4.2-5.7c0-2.8,1.1-5.7,4.3-5.7C52.6,424.2,53.8,426.9,53.8,429.8z M47.7,429.9
	c0,2.2,0.4,3.9,1.9,3.9c1.4,0,1.8-1.7,1.8-3.9c0-2.1-0.4-3.8-1.8-3.8S47.7,427.5,47.7,429.9z M56.1,435.4v-2.8h2.4v2.8H56.1z
	 M69.3,429.8c0,2.8-1,5.8-4.2,5.8c-3.2,0-4.2-2.7-4.2-5.7c0-2.8,1.1-5.7,4.3-5.7C68.2,424.2,69.3,426.9,69.3,429.8z M63.2,429.9
	c0,2.2,0.4,3.9,1.9,3.9c1.4,0,1.8-1.7,1.8-3.9c0-2.1-0.4-3.8-1.8-3.8C63.7,426.1,63.2,427.5,63.2,429.9z M80.2,429.8
	c0,2.8-1,5.8-4.2,5.8c-3.2,0-4.2-2.7-4.2-5.7c0-2.8,1.1-5.7,4.3-5.7C79.1,424.2,80.2,426.9,80.2,429.8z M74.1,429.9
	c0,2.2,0.4,3.9,1.9,3.9c1.4,0,1.8-1.7,1.8-3.9c0-2.1-0.4-3.8-1.8-3.8S74.1,427.5,74.1,429.9z"/>
<path class="st0" d="M42.9,354.9v-1.4c-1.9-0.3-3-1.4-3.2-3H42c0.2,0.9,0.9,1.4,2,1.4c1.2,0,1.7-0.6,1.7-1.3c0-0.8-0.5-1.3-2.1-1.7
	c-2.8-0.8-3.6-1.9-3.6-3.5c0-1.7,1.2-2.7,2.8-3v-1.1h2v1.1c2.1,0.3,2.8,1.6,3,2.8h-2.4c-0.1-0.4-0.4-1.2-1.7-1.2
	c-1.1,0-1.4,0.7-1.4,1.2c0,0.8,0.5,1.1,2.2,1.6c2.7,0.8,3.5,2,3.5,3.6c0,1.8-1.2,2.9-3.1,3.2v1.4H42.9z M57.9,344.3h-4.6
	c-0.1,0.8-0.2,1.7-0.3,2.2c0.4-0.3,1-0.6,2-0.6c2,0,3.5,1.5,3.5,3.7c0,2.3-1.4,4.1-4.2,4.1c-2.1,0-3.7-1.1-4-3.2h2.3
	c0.2,0.7,0.7,1.3,1.8,1.3c1.3,0,1.8-0.8,1.8-2c0-1-0.4-2.1-1.8-2.1c-1.1,0-1.5,0.5-1.7,1.2l-2.1-0.3c0.3-1.3,0.7-4.6,0.9-6.1h6.8
	L57.9,344.3z M69.3,347.8c0,2.8-1,5.8-4.2,5.8c-3.2,0-4.2-2.7-4.2-5.7c0-2.8,1.1-5.7,4.3-5.7C68.2,342.2,69.3,344.9,69.3,347.8z
	 M63.2,347.9c0,2.2,0.4,3.9,1.9,3.9c1.4,0,1.8-1.7,1.8-3.9c0-2.1-0.4-3.8-1.8-3.8S63.2,345.5,63.2,347.9z M80.2,347.8
	c0,2.8-1,5.8-4.2,5.8c-3.2,0-4.2-2.7-4.2-5.7c0-2.8,1.1-5.7,4.3-5.7C79.1,342.2,80.2,344.9,80.2,347.8z M74.1,347.9
	c0,2.2,0.4,3.9,1.9,3.9c1.4,0,1.8-1.7,1.8-3.9c0-2.1-0.4-3.8-1.8-3.8S74.1,345.5,74.1,347.9z"/>
<path class="st0" d="M27.2,190.9v-1.4c-1.9-0.3-3-1.4-3.2-3h2.3c0.2,0.9,0.9,1.4,2,1.4c1.2,0,1.7-0.6,1.7-1.3c0-0.8-0.5-1.3-2.1-1.7
	c-2.8-0.8-3.6-1.9-3.6-3.5c0-1.7,1.2-2.7,2.8-3v-1.1h2v1.1c2.1,0.3,2.8,1.6,3,2.8h-2.4c-0.1-0.4-0.4-1.2-1.7-1.2
	c-1.1,0-1.4,0.7-1.4,1.2c0,0.8,0.5,1.1,2.2,1.6c2.7,0.8,3.5,2,3.5,3.6c0,1.8-1.2,2.9-3.1,3.2v1.4H27.2z M34.5,189.5v-0.1
	c0-1.8,0.5-3.4,3.4-5.4c1.5-1.1,1.9-1.3,1.9-2.3c0-0.9-0.5-1.5-1.4-1.5c-1,0-1.4,0.6-1.6,1.6h-2.4c0.2-1.8,1.4-3.4,3.9-3.4
	c2.8,0,3.8,1.8,3.8,3.3c0,1.7-0.7,2.4-2.7,3.8c-1.4,0.9-2,1.6-2.2,2.2h5.4l-0.3,1.9H34.5z M44.4,191.3c0.9-2.1,1.1-3.5,1.2-4.7h2.4
	c-0.2,1.6-0.7,3.4-1.8,4.7H44.4z M57.9,180.3h-4.6c-0.1,0.8-0.2,1.7-0.3,2.2c0.4-0.3,1-0.6,2-0.6c2,0,3.5,1.5,3.5,3.7
	c0,2.3-1.4,4.1-4.2,4.1c-2.1,0-3.7-1.1-4-3.2h2.3c0.2,0.7,0.7,1.3,1.8,1.3c1.3,0,1.8-0.8,1.8-2c0-1-0.4-2.1-1.8-2.1
	c-1.1,0-1.5,0.5-1.7,1.2l-2.1-0.3c0.3-1.3,0.7-4.6,0.9-6.1h6.8L57.9,180.3z M69.3,183.9c0,2.8-1,5.8-4.2,5.8c-3.2,0-4.2-2.7-4.2-5.7
	c0-2.8,1.1-5.7,4.3-5.7C68.2,178.3,69.3,181,69.3,183.9z M63.2,183.9c0,2.2,0.4,3.9,1.9,3.9c1.4,0,1.8-1.7,1.8-3.9
	c0-2.1-0.4-3.8-1.8-3.8S63.2,181.5,63.2,183.9z M80.2,183.9c0,2.8-1,5.8-4.2,5.8c-3.2,0-4.2-2.7-4.2-5.7c0-2.8,1.1-5.7,4.3-5.7
	C79.1,178.3,80.2,181,80.2,183.9z M74.1,183.9c0,2.2,0.4,3.9,1.9,3.9c1.4,0,1.8-1.7,1.8-3.9c0-2.1-0.4-3.8-1.8-3.8
	S74.1,181.5,74.1,183.9z"/>
<path class="st0" d="M30.3,272.9v-1.4c-1.9-0.3-3-1.4-3.2-3h2.3c0.2,0.9,0.9,1.4,2,1.4c1.2,0,1.7-0.6,1.7-1.3c0-0.8-0.5-1.3-2.1-1.7
	c-2.8-0.8-3.6-1.9-3.6-3.5c0-1.7,1.2-2.7,2.8-3v-1.1h2v1.1c2.1,0.3,2.8,1.6,3,2.8h-2.4c-0.1-0.4-0.4-1.2-1.7-1.2
	c-1.1,0-1.4,0.7-1.4,1.2c0,0.8,0.5,1.1,2.2,1.6c2.7,0.8,3.5,2,3.5,3.6c0,1.8-1.2,2.9-3.1,3.2v1.4H30.3z M39.6,271.5v-8.3
	c-0.5,0.2-1.6,0.4-2.1,0.4v-1.7c1-0.2,2.2-0.8,2.8-1.5H42v11H39.6z M44.4,273.3c0.9-2.1,1.1-3.5,1.2-4.7h2.4
	c-0.2,1.6-0.7,3.4-1.8,4.7H44.4z M57.9,262.3h-4.6c-0.1,0.8-0.2,1.7-0.3,2.2c0.4-0.3,1-0.6,2-0.6c2,0,3.5,1.5,3.5,3.7
	c0,2.3-1.4,4.1-4.2,4.1c-2.1,0-3.7-1.1-4-3.2h2.3c0.2,0.7,0.7,1.3,1.8,1.3c1.3,0,1.8-0.8,1.8-2c0-1-0.4-2.1-1.8-2.1
	c-1.1,0-1.5,0.5-1.7,1.2l-2.1-0.3c0.3-1.3,0.7-4.6,0.9-6.1h6.8L57.9,262.3z M69.3,265.9c0,2.8-1,5.8-4.2,5.8c-3.2,0-4.2-2.7-4.2-5.7
	c0-2.8,1.1-5.7,4.3-5.7C68.2,260.3,69.3,263,69.3,265.9z M63.2,265.9c0,2.2,0.4,3.9,1.9,3.9c1.4,0,1.8-1.7,1.8-3.9
	c0-2.1-0.4-3.8-1.8-3.8C63.7,262.1,63.2,263.5,63.2,265.9z M80.2,265.9c0,2.8-1,5.8-4.2,5.8c-3.2,0-4.2-2.7-4.2-5.7
	c0-2.8,1.1-5.7,4.3-5.7C79.1,260.3,80.2,263,80.2,265.9z M74.1,265.9c0,2.2,0.4,3.9,1.9,3.9c1.4,0,1.8-1.7,1.8-3.9
	c0-2.1-0.4-3.8-1.8-3.8S74.1,263.5,74.1,265.9z"/>
<path class="st0" d="M19.6,109v-1.4c-1.9-0.3-3-1.4-3.2-3h2.3c0.2,0.9,0.9,1.4,2,1.4c1.2,0,1.7-0.6,1.7-1.3c0-0.8-0.5-1.3-2.1-1.7
	c-2.8-0.8-3.6-1.9-3.6-3.5c0-1.7,1.2-2.7,2.8-3v-1.1h2v1.1c2.1,0.3,2.8,1.6,3,2.8H22c-0.1-0.4-0.4-1.2-1.7-1.2
	c-1.1,0-1.4,0.7-1.4,1.2c0,0.8,0.5,1.1,2.2,1.6c2.7,0.8,3.5,2,3.5,3.6c0,1.8-1.2,2.9-3.1,3.2v1.4H19.6z M28.9,107.5v-8.3
	c-0.5,0.2-1.6,0.4-2.1,0.4V98c1-0.2,2.2-0.8,2.8-1.5h1.7v11H28.9z M42.7,101.9c0,2.8-1,5.8-4.2,5.8c-3.2,0-4.2-2.7-4.2-5.7
	c0-2.8,1.1-5.7,4.3-5.7C41.6,96.3,42.7,99,42.7,101.9z M36.7,102c0,2.2,0.4,3.9,1.9,3.9c1.4,0,1.8-1.7,1.8-3.9
	c0-2.1-0.4-3.8-1.8-3.8S36.7,99.6,36.7,102z M44.2,109.4c0.9-2.1,1.1-3.5,1.2-4.7h2.4c-0.2,1.6-0.7,3.4-1.8,4.7H44.2z M58.4,101.9
	c0,2.8-1,5.8-4.2,5.8c-3.2,0-4.2-2.7-4.2-5.7c0-2.8,1.1-5.7,4.3-5.7C57.3,96.3,58.4,99,58.4,101.9z M52.3,102c0,2.2,0.4,3.9,1.9,3.9
	c1.4,0,1.8-1.7,1.8-3.9c0-2.1-0.4-3.8-1.8-3.8S52.3,99.6,52.3,102z M69.3,101.9c0,2.8-1,5.8-4.2,5.8c-3.2,0-4.2-2.7-4.2-5.7
	c0-2.8,1.1-5.7,4.3-5.7C68.2,96.3,69.3,99,69.3,101.9z M63.2,102c0,2.2,0.4,3.9,1.9,3.9c1.4,0,1.8-1.7,1.8-3.9
	c0-2.1-0.4-3.8-1.8-3.8S63.2,99.6,63.2,102z M80.2,101.9c0,2.8-1,5.8-4.2,5.8c-3.2,0-4.2-2.7-4.2-5.7c0-2.8,1.1-5.7,4.3-5.7
	C79.1,96.3,80.2,99,80.2,101.9z M74.1,102c0,2.2,0.4,3.9,1.9,3.9c1.4,0,1.8-1.7,1.8-3.9c0-2.1-0.4-3.8-1.8-3.8S74.1,99.6,74.1,102z"
	/>
<path class="st0" d="M19.9,27v-1.4c-1.9-0.3-3-1.4-3.2-3H19c0.2,0.9,0.9,1.4,2,1.4c1.2,0,1.7-0.6,1.7-1.3c0-0.8-0.5-1.3-2.1-1.7
	c-2.8-0.8-3.6-1.9-3.6-3.5c0-1.7,1.2-2.7,2.8-3v-1.1h2v1.1c2.1,0.3,2.8,1.6,3,2.8h-2.4C22.2,16.8,22,16,20.7,16
	c-1.1,0-1.4,0.7-1.4,1.2c0,0.8,0.5,1.1,2.2,1.6c2.7,0.8,3.5,2,3.5,3.6c0,1.8-1.2,2.9-3.1,3.2V27H19.9z M29.2,25.5v-8.3
	c-0.5,0.2-1.6,0.4-2.1,0.4V16c1-0.2,2.2-0.8,2.8-1.5h1.7v11H29.2z M34.5,25.5v-0.1c0-1.8,0.5-3.4,3.4-5.4c1.5-1.1,1.9-1.3,1.9-2.3
	c0-0.9-0.5-1.5-1.4-1.5c-1,0-1.4,0.6-1.6,1.6h-2.4c0.2-1.8,1.4-3.4,3.9-3.4c2.8,0,3.8,1.8,3.8,3.3c0,1.7-0.7,2.4-2.7,3.8
	c-1.4,0.9-2,1.6-2.2,2.2h5.4l-0.3,1.9H34.5z M44.4,27.4c0.9-2.1,1.1-3.5,1.2-4.7h2.4c-0.2,1.6-0.7,3.4-1.8,4.7H44.4z M57.9,16.4
	h-4.6c-0.1,0.8-0.2,1.7-0.3,2.2c0.4-0.3,1-0.6,2-0.6c2,0,3.5,1.5,3.5,3.7c0,2.3-1.4,4.1-4.2,4.1c-2.1,0-3.7-1.1-4-3.2h2.3
	c0.2,0.7,0.7,1.3,1.8,1.3c1.3,0,1.8-0.8,1.8-2c0-1-0.4-2.1-1.8-2.1c-1.1,0-1.5,0.5-1.7,1.2l-2.1-0.3c0.3-1.3,0.7-4.6,0.9-6.1h6.8
	L57.9,16.4z M69.3,19.9c0,2.8-1,5.8-4.2,5.8c-3.2,0-4.2-2.7-4.2-5.7c0-2.8,1.1-5.7,4.3-5.7C68.2,14.3,69.3,17,69.3,19.9z M63.2,20
	c0,2.2,0.4,3.9,1.9,3.9c1.4,0,1.8-1.7,1.8-3.9c0-2.1-0.4-3.8-1.8-3.8C63.7,16.2,63.2,17.6,63.2,20z M80.2,19.9c0,2.8-1,5.8-4.2,5.8
	c-3.2,0-4.2-2.7-4.2-5.7c0-2.8,1.1-5.7,4.3-5.7C79.1,14.3,80.2,17,80.2,19.9z M74.1,20c0,2.2,0.4,3.9,1.9,3.9c1.4,0,1.8-1.7,1.8-3.9
	c0-2.1-0.4-3.8-1.8-3.8S74.1,17.6,74.1,20z"/>
<line class="st8" x1="87.9" y1="421.4" x2="1191.9" y2="421.4"/>
<line class="st9" x1="472.1" y1="301.6" x2="472.1" y2="453.4"/>
<line class="st10" x1="280" y1="337.6" x2="280" y2="453.4"/>
<line class="st11" x1="183.5" y1="382.5" x2="183.5" y2="453.4"/>
<line class="st12" x1="88.1" y1="7.5" x2="88.1" y2="453.4"/>
<line class="st13" x1="856.1" y1="210.4" x2="856.1" y2="453.4"/>
<line class="st14" x1="972" y1="147.4" x2="972" y2="453.4"/>
<line class="st15" x1="1191.4" y1="18.5" x2="1191.4" y2="453.4"/>
<line class="st16" x1="971.6" y1="135.4" x2="88.3" y2="135.4"/>
<line class="st17" x1="1191.9" y1="8" x2="88.3" y2="8"/>
<g>
	<defs>
		<rect id="SVGID_1_" width="1240.7" height="507.7"/>
	</defs>
	<clipPath id="SVGID_2_">
		<use xlink:href="#SVGID_1_"  style="overflow:visible;"/>
	</clipPath>
	<path class="st18" d="M472.3,315.3c7.2,0,13-5.8,13-13s-5.8-13-13-13c-7.2,0-13,5.8-13,13S465.1,315.3,472.3,315.3"/>
	<path class="st19" d="M279.7,353.1c7.2,0,13-5.8,13-13c0-7.2-5.8-13-13-13c-7.2,0-13,5.8-13,13
		C266.7,347.3,272.5,353.1,279.7,353.1"/>
	<path class="st20" d="M183.5,395.5c7.2,0,13-5.8,13-13c0-7.2-5.8-13-13-13c-7.2,0-13,5.8-13,13
		C170.5,389.7,176.4,395.5,183.5,395.5"/>
</g>
<path class="st2" d="M880.1,216.9v-1.4c-1.9-0.3-3-1.4-3.2-3h2.3c0.2,0.9,0.9,1.4,2,1.4c1.2,0,1.7-0.6,1.7-1.3
	c0-0.8-0.5-1.3-2.1-1.7c-2.8-0.8-3.6-1.9-3.6-3.5c0-1.7,1.2-2.7,2.8-3v-1.1h2v1.1c2.1,0.3,2.8,1.6,3,2.8h-2.4
	c-0.1-0.4-0.4-1.2-1.7-1.2c-1.1,0-1.4,0.7-1.4,1.2c0,0.8,0.5,1.1,2.2,1.6c2.7,0.8,3.5,2,3.5,3.6c0,1.8-1.2,2.9-3.1,3.2v1.4H880.1z
	 M887.3,215.4v-0.1c0-1.8,0.5-3.4,3.4-5.4c1.5-1.1,1.9-1.3,1.9-2.3c0-0.9-0.5-1.5-1.4-1.5c-1,0-1.4,0.6-1.6,1.6h-2.4
	c0.2-1.8,1.4-3.4,3.9-3.4c2.8,0,3.8,1.8,3.8,3.3c0,1.7-0.7,2.4-2.7,3.8c-1.4,0.9-2,1.6-2.2,2.2h5.4l-0.3,1.9H887.3z M897.2,217.3
	c0.9-2.1,1.1-3.5,1.2-4.7h2.4c-0.2,1.6-0.7,3.4-1.8,4.7H897.2z M904.4,215.4v-8.3c-0.5,0.2-1.6,0.4-2.1,0.4v-1.7
	c1-0.2,2.2-0.8,2.8-1.5h1.7v11H904.4z M909.7,207.3c0.2-1.5,1.2-3.1,3.8-3.1c2.5,0,3.7,1.4,3.7,2.9c0,1.3-0.6,1.9-1.4,2.2v0
	c0.8,0.3,1.8,1,1.8,2.7c0,1.7-1.1,3.6-4.1,3.5c-2.6,0-3.9-1.6-4-3.3h2.3c0.2,0.8,0.6,1.5,1.8,1.5c1.2,0,1.7-0.7,1.7-1.7
	c0-1-0.4-1.7-1.9-1.7h-0.8v-1.8h0.8c1.1,0,1.6-0.3,1.6-1.2c0-0.8-0.4-1.3-1.4-1.3c-1.2,0-1.5,0.7-1.6,1.3H909.7z M919.9,215.4v-0.1
	c0-1.8,0.5-3.4,3.4-5.4c1.5-1.1,1.9-1.3,1.9-2.3c0-0.9-0.5-1.5-1.4-1.5c-1,0-1.4,0.6-1.6,1.6h-2.4c0.2-1.8,1.4-3.4,3.9-3.4
	c2.8,0,3.8,1.8,3.8,3.3c0,1.7-0.7,2.4-2.7,3.8c-1.4,0.9-2,1.6-2.2,2.2h5.4l-0.3,1.9H919.9z M930.6,215.4v-2.8h2.4v2.8H930.6z
	 M940.4,215.4v-2.6h-5v-2l4.6-6.5h2.6v6.6h1.3l-0.2,1.8h-1.1v2.6H940.4z M940.4,208.9c0-1.2,0-1.9,0-2.6c-0.4,0.9-2.2,3.2-3,4.6h3
	V208.9z M954.6,209.8c0,2.8-1,5.8-4.2,5.8c-3.2,0-4.2-2.7-4.2-5.7c0-2.8,1.1-5.7,4.3-5.7C953.5,204.2,954.6,206.9,954.6,209.8z
	 M948.5,209.9c0,2.2,0.4,3.9,1.9,3.9c1.4,0,1.8-1.7,1.8-3.9c0-2.1-0.4-3.8-1.8-3.8S948.5,207.5,948.5,209.9z"/>
<path class="st21" d="M259.6,468.1c-0.1-0.5-0.5-1.1-1.5-1.1c-1.6,0-1.9,1.6-2,3.1c0.5-0.6,1.2-1.1,2.5-1.1c2,0,3.5,1.4,3.5,3.6
	c0,2.3-1.4,4-4.1,4c-3.1,0-4.3-2.3-4.3-5.6c0-2.4,0.8-5.8,4.4-5.8c2.5,0,3.5,1.5,3.7,2.8H259.6z M259.8,472.8c0-1.1-0.4-2-1.8-2
	c-1,0-1.7,0.6-1.7,1.9c0,1.1,0.5,2.1,1.7,2.1C259.2,474.8,259.8,474,259.8,472.8z M279.1,472.3c0-1.9,0-4,0.1-5.2h-0.1
	c-0.5,2.3-1.6,5.9-2.7,9.4h-2c-0.8-3-2-7.2-2.4-9.4h-0.1c0.1,1.3,0.1,3.6,0.1,5.5v4h-2.2v-11h3.6c0.9,2.9,1.8,6.5,2.2,8.1h0
	c0.3-1.4,1.5-5.3,2.4-8.1h3.4v11h-2.3V472.3z M295.1,470.9c0,3.1-1.8,5.7-5.4,5.7c-3.5,0-5.3-2.5-5.3-5.7c0-3.2,2-5.7,5.4-5.7
	C293.1,465.2,295.1,467.5,295.1,470.9z M286.9,470.9c0,2.2,0.9,3.8,2.9,3.8c2.1,0,2.9-1.8,2.9-3.7c0-2.1-0.9-3.7-2.9-3.7
	C287.8,467.2,286.9,468.7,286.9,470.9z M299.7,473.2c0.3,1.1,1,1.6,2.3,1.6s1.8-0.5,1.8-1.3c0-0.9-0.5-1.3-2.4-1.7
	c-3-0.7-3.7-1.8-3.7-3.3c0-1.9,1.4-3.2,4-3.2c2.9,0,4.1,1.6,4.3,3.2h-2.4c-0.1-0.7-0.5-1.4-1.9-1.4c-1,0-1.6,0.4-1.6,1.2
	c0,0.8,0.5,1.1,2.3,1.5c3.2,0.8,3.9,2,3.9,3.5c0,2-1.5,3.4-4.4,3.4c-2.8,0-4.3-1.4-4.5-3.4H299.7z"/>
<path class="st22" d="M157.1,468.3c0.2-1.5,1.2-3.1,3.8-3.1c2.5,0,3.7,1.4,3.7,2.9c0,1.3-0.6,1.9-1.4,2.2v0c0.8,0.3,1.8,1,1.8,2.7
	c0,1.7-1.1,3.6-4.1,3.5c-2.6,0-3.9-1.6-4-3.3h2.3c0.2,0.8,0.6,1.5,1.8,1.5c1.2,0,1.7-0.7,1.7-1.7c0-1-0.4-1.7-1.9-1.7H160v-1.8h0.8
	c1.1,0,1.6-0.3,1.6-1.2c0-0.8-0.4-1.3-1.4-1.3c-1.2,0-1.5,0.7-1.6,1.3H157.1z M182.1,472.3c0-1.9,0-4,0.1-5.2h-0.1
	c-0.5,2.3-1.6,5.9-2.7,9.4h-2c-0.8-3-2-7.2-2.4-9.4h-0.1c0.1,1.3,0.1,3.6,0.1,5.5v4h-2.2v-11h3.6c0.9,2.9,1.8,6.5,2.2,8.1h0
	c0.3-1.4,1.5-5.3,2.4-8.1h3.4v11h-2.3V472.3z M198.1,470.9c0,3.1-1.8,5.7-5.4,5.7c-3.5,0-5.3-2.5-5.3-5.7c0-3.2,2-5.7,5.4-5.7
	C196.1,465.2,198.1,467.5,198.1,470.9z M189.9,470.9c0,2.2,0.9,3.8,2.9,3.8c2.1,0,2.9-1.8,2.9-3.7c0-2.1-0.9-3.7-2.9-3.7
	C190.8,467.2,189.9,468.7,189.9,470.9z M202.8,473.2c0.3,1.1,1,1.6,2.3,1.6s1.8-0.5,1.8-1.3c0-0.9-0.5-1.3-2.4-1.7
	c-3-0.7-3.7-1.8-3.7-3.3c0-1.9,1.4-3.2,4-3.2c2.9,0,4.1,1.6,4.3,3.2h-2.4c-0.1-0.7-0.5-1.4-1.9-1.4c-1,0-1.6,0.4-1.6,1.2
	c0,0.8,0.5,1.1,2.3,1.5c3.2,0.8,3.9,2,3.9,3.5c0,2-1.5,3.4-4.4,3.4c-2.8,0-4.3-1.4-4.5-3.4H202.8z"/>
<g>
	<defs>
		<rect id="SVGID_3_" width="1240.7" height="507.7"/>
	</defs>
	<clipPath id="SVGID_4_">
		<use xlink:href="#SVGID_3_"  style="overflow:visible;"/>
	</clipPath>
	<path class="st23" d="M855.9,223.4c7.2,0,13-5.8,13-13c0-7.2-5.8-13-13-13c-7.2,0-13,5.8-13,13
		C842.9,217.6,848.7,223.4,855.9,223.4"/>
</g>
<g>
	<defs>
		<polygon id="SVGID_5_" points="87.9,7.5 87.9,135.7 972.5,135.7 972.5,422.4 1191.9,422.4 1191.9,135.7 1191.9,7.5 		"/>
	</defs>
	<clipPath id="SVGID_6_">
		<use xlink:href="#SVGID_5_"  style="overflow:visible;"/>
	</clipPath>
	<line class="st24" x1="1009.8" y1="-435" x2="420" y2="697.9"/>
	<line class="st24" x1="1166.3" y1="-353.5" x2="576.5" y2="779.4"/>
	<line class="st24" x1="1057.4" y1="-410.2" x2="467.7" y2="722.7"/>
	<line class="st24" x1="1282" y1="-293.3" x2="692.2" y2="839.6"/>
	<line class="st24" x1="1213.9" y1="-328.7" x2="624.2" y2="804.2"/>
	<line class="st24" x1="1329.6" y1="-268.5" x2="739.9" y2="864.4"/>
	<line class="st24" x1="1241.1" y1="-314.5" x2="651.4" y2="818.4"/>
	<line class="st24" x1="1465.7" y1="-197.6" x2="876" y2="935.3"/>
	<line class="st24" x1="1492.9" y1="-183.5" x2="903.2" y2="949.4"/>
	<line class="st24" x1="1016.6" y1="-431.4" x2="426.8" y2="701.5"/>
	<line class="st24" x1="1173.1" y1="-350" x2="583.3" y2="782.9"/>
	<line class="st24" x1="1064.2" y1="-406.6" x2="474.5" y2="726.3"/>
	<line class="st24" x1="1288.8" y1="-289.7" x2="699" y2="843.2"/>
	<line class="st24" x1="1438.5" y1="-211.8" x2="848.7" y2="921.1"/>
	<line class="st24" x1="1350" y1="-257.9" x2="760.3" y2="875"/>
	<line class="st24" x1="1071" y1="-403.1" x2="481.3" y2="729.8"/>
	<line class="st24" x1="1220.7" y1="-325.2" x2="631" y2="807.7"/>
	<line class="st24" x1="1111.9" y1="-381.9" x2="522.1" y2="751.1"/>
	<line class="st24" x1="1336.4" y1="-265" x2="746.7" y2="868"/>
	<line class="st24" x1="1479.3" y1="-190.6" x2="889.6" y2="942.4"/>
	<line class="st24" x1="1390.9" y1="-236.6" x2="801.1" y2="896.3"/>
	<line class="st24" x1="1023.4" y1="-427.9" x2="433.6" y2="705"/>
	<line class="st24" x1="1179.9" y1="-346.4" x2="590.1" y2="786.5"/>
	<line class="st24" x1="1077.8" y1="-399.6" x2="488.1" y2="733.4"/>
	<line class="st24" x1="1295.6" y1="-286.2" x2="705.8" y2="846.7"/>
	<line class="st24" x1="1445.3" y1="-208.3" x2="855.5" y2="924.6"/>
	<line class="st24" x1="1356.8" y1="-254.3" x2="767.1" y2="878.6"/>
	<line class="st24" x1="1084.6" y1="-396" x2="494.9" y2="736.9"/>
	<line class="st24" x1="1227.5" y1="-321.6" x2="637.8" y2="811.3"/>
	<line class="st24" x1="1118.7" y1="-378.3" x2="528.9" y2="754.6"/>
	<line class="st24" x1="1343.2" y1="-261.4" x2="753.5" y2="871.5"/>
	<line class="st24" x1="1486.1" y1="-187" x2="896.4" y2="945.9"/>
	<line class="st24" x1="1397.7" y1="-233.1" x2="807.9" y2="899.8"/>
	<line class="st24" x1="1145.9" y1="-364.1" x2="556.1" y2="768.8"/>
	<line class="st24" x1="1275.2" y1="-296.8" x2="685.4" y2="836.1"/>
	<line class="st24" x1="1207.1" y1="-332.3" x2="617.4" y2="800.7"/>
	<line class="st24" x1="1404.5" y1="-229.5" x2="814.7" y2="903.4"/>
	<line class="st24" x1="1472.5" y1="-194.1" x2="882.8" y2="938.8"/>
	<line class="st24" x1="1125.5" y1="-374.8" x2="535.7" y2="758.1"/>
	<line class="st24" x1="1268.4" y1="-300.4" x2="678.6" y2="832.5"/>
	<line class="st24" x1="1186.7" y1="-342.9" x2="597" y2="790"/>
	<line class="st24" x1="1384.1" y1="-240.2" x2="794.3" y2="892.8"/>
	<line class="st24" x1="1431.7" y1="-215.4" x2="841.9" y2="917.6"/>
	<line class="st24" x1="996.2" y1="-442.1" x2="406.4" y2="690.8"/>
	<line class="st24" x1="1132.3" y1="-371.2" x2="542.5" y2="761.7"/>
	<line class="st24" x1="1030.2" y1="-424.4" x2="440.4" y2="708.6"/>
	<line class="st24" x1="1248" y1="-311" x2="658.2" y2="821.9"/>
	<line class="st24" x1="1411.3" y1="-226" x2="821.5" y2="906.9"/>
	<line class="st24" x1="1316" y1="-275.6" x2="726.2" y2="857.3"/>
	<line class="st24" x1="1037" y1="-420.8" x2="447.2" y2="712.1"/>
	<line class="st24" x1="1193.5" y1="-339.3" x2="603.8" y2="793.6"/>
	<line class="st24" x1="1091.4" y1="-392.5" x2="501.7" y2="740.4"/>
	<line class="st24" x1="1302.4" y1="-282.7" x2="712.6" y2="850.3"/>
	<line class="st24" x1="1452.1" y1="-204.7" x2="862.3" y2="928.2"/>
	<line class="st24" x1="1363.6" y1="-250.8" x2="773.9" y2="882.1"/>
	<line class="st24" x1="1003" y1="-438.5" x2="413.2" y2="694.4"/>
	<line class="st24" x1="1139.1" y1="-367.7" x2="549.3" y2="765.2"/>
	<line class="st24" x1="1043.8" y1="-417.3" x2="454.1" y2="715.6"/>
	<line class="st24" x1="1254.8" y1="-307.5" x2="665" y2="825.5"/>
	<line class="st24" x1="1418.1" y1="-222.4" x2="828.3" y2="910.5"/>
	<line class="st24" x1="1322.8" y1="-272" x2="733" y2="860.9"/>
	<line class="st24" x1="1050.6" y1="-413.7" x2="460.9" y2="719.2"/>
	<line class="st24" x1="1200.3" y1="-335.8" x2="610.6" y2="797.1"/>
	<line class="st24" x1="1098.2" y1="-388.9" x2="508.5" y2="744"/>
	<line class="st24" x1="1309.2" y1="-279.1" x2="719.4" y2="853.8"/>
	<line class="st24" x1="1458.9" y1="-201.2" x2="869.1" y2="931.7"/>
	<line class="st24" x1="1370.4" y1="-247.2" x2="780.7" y2="885.7"/>
	<line class="st24" x1="1105.1" y1="-385.4" x2="515.3" y2="747.5"/>
	<line class="st24" x1="1261.6" y1="-303.9" x2="671.8" y2="829"/>
	<line class="st24" x1="1159.5" y1="-357.1" x2="569.7" y2="775.9"/>
	<line class="st24" x1="1234.3" y1="-318.1" x2="644.6" y2="814.8"/>
	<line class="st24" x1="1152.7" y1="-360.6" x2="562.9" y2="772.3"/>
	<line class="st24" x1="1377.2" y1="-243.7" x2="787.5" y2="889.2"/>
	<line class="st24" x1="1499.7" y1="-179.9" x2="910" y2="953"/>
	<line class="st24" x1="1424.9" y1="-218.9" x2="835.1" y2="914"/>
	<line class="st24" x1="479" y1="-711.3" x2="-110.8" y2="421.6"/>
	<line class="st24" x1="635.5" y1="-629.8" x2="45.8" y2="503.1"/>
	<line class="st24" x1="526.6" y1="-686.5" x2="-63.1" y2="446.4"/>
	<line class="st24" x1="751.2" y1="-569.6" x2="161.4" y2="563.3"/>
	<line class="st24" x1="683.2" y1="-605" x2="93.4" y2="527.9"/>
	<line class="st24" x1="798.8" y1="-544.8" x2="209.1" y2="588.1"/>
	<line class="st24" x1="710.4" y1="-590.9" x2="120.6" y2="542.1"/>
	<line class="st24" x1="934.9" y1="-474" x2="345.2" y2="659"/>
	<line class="st24" x1="989.4" y1="-445.6" x2="399.6" y2="687.3"/>
	<line class="st24" x1="962.2" y1="-459.8" x2="372.4" y2="673.1"/>
	<line class="st24" x1="485.8" y1="-707.7" x2="-103.9" y2="425.2"/>
	<line class="st24" x1="642.3" y1="-626.3" x2="52.6" y2="506.6"/>
	<line class="st24" x1="533.4" y1="-683" x2="-56.3" y2="450"/>
	<line class="st24" x1="758" y1="-566.1" x2="168.2" y2="566.9"/>
	<line class="st24" x1="907.7" y1="-488.1" x2="318" y2="644.8"/>
	<line class="st24" x1="819.2" y1="-534.2" x2="229.5" y2="598.7"/>
	<line class="st24" x1="540.2" y1="-679.4" x2="-49.5" y2="453.5"/>
	<line class="st24" x1="690" y1="-601.5" x2="100.2" y2="531.4"/>
	<line class="st24" x1="581.1" y1="-658.2" x2="-8.7" y2="474.8"/>
	<line class="st24" x1="805.6" y1="-541.3" x2="215.9" y2="591.7"/>
	<line class="st24" x1="948.5" y1="-466.9" x2="358.8" y2="666"/>
	<line class="st24" x1="860.1" y1="-512.9" x2="270.3" y2="620"/>
	<line class="st24" x1="492.6" y1="-704.2" x2="-97.1" y2="428.7"/>
	<line class="st24" x1="649.1" y1="-622.7" x2="59.4" y2="510.2"/>
	<line class="st24" x1="547.1" y1="-675.9" x2="-42.7" y2="457"/>
	<line class="st24" x1="764.8" y1="-562.5" x2="175.1" y2="570.4"/>
	<line class="st24" x1="914.5" y1="-484.6" x2="324.8" y2="648.3"/>
	<line class="st24" x1="826.1" y1="-530.6" x2="236.3" y2="602.3"/>
	<line class="st24" x1="553.9" y1="-672.3" x2="-35.9" y2="460.6"/>
	<line class="st24" x1="696.8" y1="-597.9" x2="107" y2="535"/>
	<line class="st24" x1="587.9" y1="-654.6" x2="-1.9" y2="478.3"/>
	<line class="st24" x1="812.4" y1="-537.7" x2="222.7" y2="595.2"/>
	<line class="st24" x1="955.3" y1="-463.3" x2="365.6" y2="669.6"/>
	<line class="st24" x1="866.9" y1="-509.4" x2="277.1" y2="623.5"/>
	<line class="st24" x1="615.1" y1="-640.4" x2="25.3" y2="492.5"/>
	<line class="st24" x1="744.4" y1="-573.1" x2="154.6" y2="559.8"/>
	<line class="st24" x1="676.3" y1="-608.6" x2="86.6" y2="524.4"/>
	<line class="st24" x1="873.7" y1="-505.8" x2="283.9" y2="627.1"/>
	<line class="st24" x1="982.6" y1="-449.2" x2="392.8" y2="683.8"/>
	<line class="st24" x1="941.7" y1="-470.4" x2="352" y2="662.5"/>
	<line class="st24" x1="594.7" y1="-651.1" x2="4.9" y2="481.8"/>
	<line class="st24" x1="737.6" y1="-576.7" x2="147.8" y2="556.2"/>
	<line class="st24" x1="655.9" y1="-619.2" x2="66.2" y2="513.7"/>
	<line class="st24" x1="853.3" y1="-516.5" x2="263.5" y2="616.5"/>
	<line class="st24" x1="975.8" y1="-452.7" x2="386" y2="680.2"/>
	<line class="st24" x1="900.9" y1="-491.7" x2="311.1" y2="641.3"/>
	<line class="st24" x1="601.5" y1="-647.5" x2="11.7" y2="485.4"/>
	<line class="st24" x1="499.4" y1="-700.7" x2="-90.3" y2="432.3"/>
	<line class="st24" x1="717.2" y1="-587.3" x2="127.4" y2="545.6"/>
	<line class="st24" x1="880.5" y1="-502.3" x2="290.7" y2="630.6"/>
	<line class="st24" x1="785.2" y1="-551.9" x2="195.5" y2="581"/>
	<line class="st24" x1="506.2" y1="-697.1" x2="-83.5" y2="435.8"/>
	<line class="st24" x1="662.7" y1="-615.6" x2="73" y2="517.3"/>
	<line class="st24" x1="560.7" y1="-668.8" x2="-29.1" y2="464.1"/>
	<line class="st24" x1="771.6" y1="-559" x2="181.9" y2="573.9"/>
	<line class="st24" x1="921.3" y1="-481" x2="331.6" y2="651.9"/>
	<line class="st24" x1="832.9" y1="-527.1" x2="243.1" y2="605.8"/>
	<line class="st24" x1="472.2" y1="-714.8" x2="-117.6" y2="418.1"/>
	<line class="st24" x1="608.3" y1="-644" x2="18.5" y2="488.9"/>
	<line class="st24" x1="513" y1="-693.6" x2="-76.7" y2="439.3"/>
	<line class="st24" x1="724" y1="-583.8" x2="134.2" y2="549.2"/>
	<line class="st24" x1="887.3" y1="-498.7" x2="297.5" y2="634.2"/>
	<line class="st24" x1="792" y1="-548.3" x2="202.3" y2="584.6"/>
	<line class="st24" x1="519.8" y1="-690" x2="-69.9" y2="442.9"/>
	<line class="st24" x1="669.5" y1="-612.1" x2="79.8" y2="520.8"/>
	<line class="st24" x1="567.5" y1="-665.2" x2="-22.3" y2="467.7"/>
	<line class="st24" x1="778.4" y1="-555.4" x2="188.7" y2="577.5"/>
	<line class="st24" x1="928.1" y1="-477.5" x2="338.4" y2="655.4"/>
	<line class="st24" x1="839.7" y1="-523.5" x2="249.9" y2="609.4"/>
	<line class="st24" x1="574.3" y1="-661.7" x2="-15.5" y2="471.2"/>
	<line class="st24" x1="730.8" y1="-580.2" x2="141" y2="552.7"/>
	<line class="st24" x1="628.7" y1="-633.4" x2="39" y2="499.6"/>
	<line class="st24" x1="703.6" y1="-594.4" x2="113.8" y2="538.5"/>
	<line class="st24" x1="621.9" y1="-636.9" x2="32.2" y2="496"/>
	<line class="st24" x1="846.5" y1="-520" x2="256.7" y2="612.9"/>
	<line class="st24" x1="969" y1="-456.2" x2="379.2" y2="676.7"/>
	<line class="st24" x1="894.1" y1="-495.2" x2="304.3" y2="637.7"/>
</g>
<g>
	<defs>
		<rect id="SVGID_7_" width="1240.7" height="507.7"/>
	</defs>
	<clipPath id="SVGID_8_">
		<use xlink:href="#SVGID_7_"  style="overflow:visible;"/>
	</clipPath>
	<path class="st25" d="M971.6,148c7.2,0,13-5.8,13-13c0-7.2-5.8-13-13-13c-7.2,0-13,5.8-13,13C958.6,142.2,964.5,148,971.6,148"/>
	<path class="st25" d="M1191.4,26c7.2,0,13-5.8,13-13c0-7.2-5.8-13-13-13c-7.2,0-13,5.8-13,13C1178.4,20.2,1184.2,26,1191.4,26"/>
</g>
<text transform="matrix(1 0 0 1 631.3062 170.9201)"><tspan x="0" y="0" class="st0 st26 st27">T</tspan><tspan x="9.6" y="0" class="st0 st26 st27">h</tspan><tspan x="19.2" y="0" class="st0 st26 st27">e</tspan><tspan x="28.2" y="0" class="st0 st26 st27"> </tspan><tspan x="32.3" y="0" class="st0 st26 st27">a</tspan><tspan x="41" y="0" class="st0 st26 st27">v</tspan><tspan x="49.2" y="0" class="st0 st26 st27">e</tspan><tspan x="58.2" y="0" class="st0 st26 st27">ra</tspan><tspan x="73.6" y="0" class="st0 st26 st27">g</tspan><tspan x="83.2" y="0" class="st0 st26 st27">e </tspan><tspan x="96.3" y="0" class="st0 st26 st27">s</tspan><tspan x="104.7" y="0" class="st0 st26 st27">e</tspan><tspan x="113.7" y="0" class="st0 st26 st27">l</tspan><tspan x="118.3" y="0" class="st0 st26 st27">f</tspan><tspan x="123.5" y="0" class="st0 st26 st27">-</tspan><tspan x="129.9" y="0" class="st0 st26 st27">s</tspan><tspan x="138.3" y="0" class="st0 st26 st27">t</tspan><tspan x="144.1" y="0" class="st0 st26 st27">o</tspan><tspan x="153.5" y="0" class="st0 st26 st27">ra</tspan><tspan x="168.8" y="0" class="st0 st26 st27">g</tspan><tspan x="178.5" y="0" class="st0 st26 st27">e </tspan></text>
<text transform="matrix(1 0 0 1 818.8105 170.9201)" class="st0 st26 st27"> </text>
<text transform="matrix(1 0 0 1 663.9141 188.9201)"><tspan x="0" y="0" class="st0 st26 st27">c</tspan><tspan x="8.8" y="0" class="st0 st26 st27">o</tspan><tspan x="18.1" y="0" class="st0 st26 st27">s</tspan><tspan x="26.6" y="0" class="st0 st26 st27">t </tspan><tspan x="36.6" y="0" class="st0 st26 st27">a</tspan><tspan x="45.6" y="0" class="st0 st26 st27">n</tspan><tspan x="55.2" y="0" class="st0 st26 st27">d </tspan><tspan x="69" y="0" class="st0 st26 st27">r</tspan><tspan x="75.3" y="0" class="st0 st26 st27">e</tspan><tspan x="84.3" y="0" class="st0 st26 st27">n</tspan><tspan x="93.8" y="0" class="st0 st26 st27">t</tspan><tspan x="99.7" y="0" class="st0 st26 st27">a</tspan><tspan x="108.7" y="0" class="st0 st26 st27">l </tspan><tspan x="117.2" y="0" class="st0 st26 st27">t</tspan><tspan x="123.2" y="0" class="st0 st26 st27">i</tspan><tspan x="127.6" y="0" class="st0 st26 st27">m</tspan><tspan x="141.7" y="0" class="st0 st26 st27">e</tspan><tspan x="150.8" y="0" class="st0 st26 st27">. </tspan></text>
<line class="st28" x1="824.4" y1="176.4" x2="839.3" y2="191.3"/>
<polyline class="st28" points="833.8,191.1 839.3,191.3 839.1,185.9 "/>
<path class="st1" d="M383.4,326.3V325c-1.9-0.3-3-1.4-3.2-3h2.3c0.2,0.9,0.9,1.4,2,1.4c1.2,0,1.7-0.6,1.7-1.3c0-0.8-0.5-1.3-2.1-1.7
	c-2.8-0.8-3.6-1.9-3.6-3.5c0-1.7,1.2-2.7,2.8-3v-1.1h2v1.1c2.1,0.3,2.8,1.6,3,2.8h-2.4c-0.1-0.4-0.4-1.2-1.7-1.2
	c-1.1,0-1.4,0.7-1.4,1.2c0,0.8,0.5,1.1,2.2,1.6c2.7,0.8,3.5,2,3.5,3.6c0,1.8-1.2,2.9-3.1,3.2v1.4H383.4z M392.7,324.9v-8.3
	c-0.5,0.2-1.6,0.4-2.1,0.4v-1.7c1-0.2,2.2-0.8,2.8-1.5h1.7v11H392.7z M397.5,326.7c0.9-2.1,1.1-3.5,1.2-4.7h2.4
	c-0.2,1.6-0.7,3.4-1.8,4.7H397.5z M411.7,319.3c0,2.8-1,5.8-4.2,5.8c-3.2,0-4.2-2.7-4.2-5.7c0-2.8,1.1-5.7,4.3-5.7
	C410.6,313.7,411.7,316.4,411.7,319.3z M405.7,319.3c0,2.2,0.4,3.9,1.9,3.9c1.4,0,1.8-1.7,1.8-3.9c0-2.1-0.4-3.8-1.8-3.8
	S405.7,317,405.7,319.3z M419.9,316.5c-0.1-0.5-0.5-1.1-1.5-1.1c-1.6,0-1.9,1.6-2,3.1c0.5-0.6,1.2-1.1,2.5-1.1c2,0,3.5,1.4,3.5,3.6
	c0,2.3-1.4,4-4.1,4c-3.1,0-4.3-2.3-4.3-5.6c0-2.4,0.8-5.8,4.4-5.8c2.5,0,3.5,1.5,3.7,2.8H419.9z M420.2,321.2c0-1.1-0.4-2-1.8-2
	c-1,0-1.7,0.6-1.7,1.9c0,1.1,0.5,2.1,1.7,2.1C419.5,323.2,420.2,322.5,420.2,321.2z M430.6,316.5c-0.1-0.5-0.5-1.1-1.5-1.1
	c-1.6,0-1.9,1.6-2,3.1c0.5-0.6,1.2-1.1,2.5-1.1c2,0,3.5,1.4,3.5,3.6c0,2.3-1.4,4-4.1,4c-3.1,0-4.3-2.3-4.3-5.6
	c0-2.4,0.8-5.8,4.4-5.8c2.5,0,3.5,1.5,3.7,2.8H430.6z M430.8,321.2c0-1.1-0.4-2-1.8-2c-1,0-1.7,0.6-1.7,1.9c0,1.1,0.5,2.1,1.7,2.1
	C430.2,323.2,430.8,322.5,430.8,321.2z M435.6,324.9v-2.8h2.4v2.8H435.6z M440.8,324.9v-0.1c0-1.8,0.5-3.4,3.4-5.4
	c1.5-1.1,1.9-1.3,1.9-2.3c0-0.9-0.5-1.5-1.4-1.5c-1,0-1.4,0.6-1.6,1.6h-2.4c0.2-1.8,1.4-3.4,3.9-3.4c2.8,0,3.8,1.8,3.8,3.3
	c0,1.7-0.7,2.4-2.7,3.8c-1.4,0.9-2,1.6-2.2,2.2h5.4l-0.3,1.9H440.8z M459.4,319.3c0,2.8-1,5.8-4.2,5.8c-3.2,0-4.2-2.7-4.2-5.7
	c0-2.8,1.1-5.7,4.3-5.7C458.3,313.7,459.4,316.4,459.4,319.3z M453.4,319.3c0,2.2,0.4,3.9,1.9,3.9c1.4,0,1.8-1.7,1.8-3.9
	c0-2.1-0.4-3.8-1.8-3.8S453.4,317,453.4,319.3z"/>
<path class="st21" d="M210.2,364.9v-1.4c-1.9-0.3-3-1.4-3.2-3h2.3c0.2,0.9,0.9,1.4,2,1.4c1.2,0,1.7-0.6,1.7-1.3
	c0-0.8-0.5-1.3-2.1-1.7c-2.8-0.8-3.6-1.9-3.6-3.5c0-1.7,1.2-2.7,2.8-3v-1.1h2v1.1c2.1,0.3,2.8,1.6,3,2.8h-2.4
	c-0.1-0.4-0.4-1.2-1.7-1.2c-1.1,0-1.4,0.7-1.4,1.2c0,0.8,0.5,1.1,2.2,1.6c2.7,0.8,3.5,2,3.5,3.6c0,1.8-1.2,2.9-3.1,3.2v1.4H210.2z
	 M225.1,354.3h-4.6c-0.1,0.8-0.2,1.7-0.3,2.2c0.4-0.3,1-0.6,2-0.6c2,0,3.5,1.5,3.5,3.7c0,2.3-1.4,4.1-4.2,4.1c-2.1,0-3.7-1.1-4-3.2
	h2.3c0.2,0.7,0.7,1.3,1.8,1.3c1.3,0,1.8-0.8,1.8-2c0-1-0.4-2.1-1.8-2.1c-1.1,0-1.5,0.5-1.7,1.2l-2.1-0.3c0.3-1.3,0.7-4.6,0.9-6.1
	h6.8L225.1,354.3z M228.2,355.4c0.2-1.5,1.2-3.1,3.8-3.1c2.5,0,3.7,1.4,3.7,2.9c0,1.3-0.6,1.9-1.4,2.2v0c0.8,0.3,1.8,1,1.8,2.7
	c0,1.7-1.1,3.6-4.1,3.5c-2.6,0-3.9-1.6-4-3.3h2.3c0.2,0.8,0.6,1.5,1.8,1.5c1.2,0,1.7-0.7,1.7-1.7c0-1-0.4-1.7-1.9-1.7h-0.8v-1.8h0.8
	c1.1,0,1.6-0.3,1.6-1.2c0-0.8-0.4-1.3-1.4-1.3c-1.2,0-1.5,0.7-1.6,1.3H228.2z M238.7,355.4c0.2-1.5,1.2-3.1,3.8-3.1
	c2.5,0,3.7,1.4,3.7,2.9c0,1.3-0.6,1.9-1.4,2.2v0c0.8,0.3,1.8,1,1.8,2.7c0,1.7-1.1,3.6-4.1,3.5c-2.6,0-3.9-1.6-4-3.3h2.3
	c0.2,0.8,0.6,1.5,1.8,1.5c1.2,0,1.7-0.7,1.7-1.7c0-1-0.4-1.7-1.9-1.7h-0.8v-1.8h0.8c1.1,0,1.6-0.3,1.6-1.2c0-0.8-0.4-1.3-1.4-1.3
	c-1.2,0-1.5,0.7-1.6,1.3H238.7z M249.1,363.5v-2.8h2.4v2.8H249.1z M255.4,363.5v-8.3c-0.5,0.2-1.6,0.4-2.1,0.4v-1.7
	c1-0.2,2.2-0.8,2.8-1.5h1.7v11H255.4z M269.2,357.9c0,2.8-1,5.8-4.2,5.8c-3.2,0-4.2-2.7-4.2-5.7c0-2.8,1.1-5.7,4.3-5.7
	C268.1,352.3,269.2,355,269.2,357.9z M263.2,357.9c0,2.2,0.4,3.9,1.9,3.9c1.4,0,1.8-1.7,1.8-3.9c0-2.1-0.4-3.8-1.8-3.8
	S263.2,355.6,263.2,357.9z"/>
<path class="st22" d="M108.2,404v-1.4c-1.9-0.3-3-1.4-3.2-3h2.3c0.2,0.9,0.9,1.4,2,1.4c1.2,0,1.7-0.6,1.7-1.3c0-0.8-0.5-1.3-2.1-1.7
	c-2.8-0.8-3.6-1.9-3.6-3.5c0-1.7,1.2-2.7,2.8-3v-1.1h2v1.1c2.1,0.3,2.8,1.6,3,2.8h-2.4c-0.1-0.4-0.4-1.2-1.7-1.2
	c-1.1,0-1.4,0.7-1.4,1.2c0,0.8,0.5,1.1,2.2,1.6c2.7,0.8,3.5,2,3.5,3.6c0,1.8-1.2,2.9-3.1,3.2v1.4H108.2z M115.4,402.6v-0.1
	c0-1.8,0.5-3.4,3.4-5.4c1.5-1.1,1.9-1.3,1.9-2.3c0-0.9-0.5-1.5-1.4-1.5c-1,0-1.4,0.6-1.6,1.6h-2.4c0.2-1.8,1.4-3.4,3.9-3.4
	c2.8,0,3.8,1.8,3.8,3.3c0,1.7-0.7,2.4-2.7,3.8c-1.4,0.9-2,1.6-2.2,2.2h5.4l-0.3,1.9H115.4z M131.4,394.2c-0.1-0.5-0.5-1.1-1.5-1.1
	c-1.6,0-1.9,1.6-2,3.1c0.5-0.6,1.2-1.1,2.5-1.1c2,0,3.5,1.4,3.5,3.6c0,2.3-1.4,4-4.1,4c-3.1,0-4.3-2.3-4.3-5.6
	c0-2.4,0.8-5.8,4.4-5.8c2.5,0,3.5,1.5,3.7,2.8H131.4z M131.6,398.9c0-1.1-0.4-2-1.8-2c-1,0-1.7,0.6-1.7,1.9c0,1.1,0.5,2.1,1.7,2.1
	C130.9,400.9,131.6,400.2,131.6,398.9z M142,394.2c-0.1-0.5-0.5-1.1-1.5-1.1c-1.6,0-1.9,1.6-2,3.1c0.5-0.6,1.2-1.1,2.5-1.1
	c2,0,3.5,1.4,3.5,3.6c0,2.3-1.4,4-4.1,4c-3.1,0-4.3-2.3-4.3-5.6c0-2.4,0.8-5.8,4.4-5.8c2.5,0,3.5,1.5,3.7,2.8H142z M142.2,398.9
	c0-1.1-0.4-2-1.8-2c-1,0-1.7,0.6-1.7,1.9c0,1.1,0.5,2.1,1.7,2.1C141.6,400.9,142.2,400.2,142.2,398.9z M147,402.6v-2.8h2.4v2.8H147z
	 M159.6,393.4H155c-0.1,0.8-0.2,1.7-0.3,2.2c0.4-0.3,1-0.6,2-0.6c2,0,3.5,1.5,3.5,3.7c0,2.3-1.4,4.1-4.2,4.1c-2.1,0-3.7-1.1-4-3.2
	h2.3c0.2,0.7,0.7,1.3,1.8,1.3c1.3,0,1.8-0.8,1.8-2c0-1-0.4-2.1-1.8-2.1c-1.1,0-1.5,0.5-1.7,1.2l-2.1-0.3c0.3-1.3,0.7-4.6,0.9-6.1
	h6.8L159.6,393.4z M170.1,393.4h-4.6c-0.1,0.8-0.2,1.7-0.3,2.2c0.4-0.3,1-0.6,2-0.6c2,0,3.5,1.5,3.5,3.7c0,2.3-1.4,4.1-4.2,4.1
	c-2.1,0-3.7-1.1-4-3.2h2.3c0.2,0.7,0.7,1.3,1.8,1.3c1.3,0,1.8-0.8,1.8-2c0-1-0.4-2.1-1.8-2.1c-1.1,0-1.5,0.5-1.7,1.2l-2.1-0.3
	c0.3-1.3,0.7-4.6,0.9-6.1h6.8L170.1,393.4z"/>
<path class="st3" d="M882.5,159.4V158c-1.9-0.3-3-1.4-3.2-3h2.3c0.2,0.9,0.9,1.4,2,1.4c1.2,0,1.7-0.6,1.7-1.3c0-0.8-0.5-1.3-2.1-1.7
	c-2.8-0.8-3.6-1.9-3.6-3.5c0-1.7,1.2-2.7,2.8-3v-1.1h2v1.1c2.1,0.3,2.8,1.6,3,2.8h-2.4c-0.1-0.4-0.4-1.2-1.7-1.2
	c-1.1,0-1.4,0.7-1.4,1.2c0,0.8,0.5,1.1,2.2,1.6c2.7,0.8,3.5,2,3.5,3.6c0,1.8-1.2,2.9-3.1,3.2v1.4H882.5z M895.6,149.5
	c-0.1-0.5-0.5-1.1-1.5-1.1c-1.6,0-1.9,1.6-2,3.1c0.5-0.6,1.2-1.1,2.5-1.1c2,0,3.5,1.4,3.5,3.6c0,2.3-1.4,4-4.1,4
	c-3.1,0-4.3-2.3-4.3-5.6c0-2.4,0.8-5.8,4.4-5.8c2.5,0,3.5,1.5,3.7,2.8H895.6z M895.9,154.2c0-1.1-0.4-2-1.8-2c-1,0-1.7,0.6-1.7,1.9
	c0,1.1,0.5,2.1,1.7,2.1C895.2,156.2,895.9,155.5,895.9,154.2z M899.8,159.8c0.9-2.1,1.1-3.5,1.2-4.7h2.4c-0.2,1.6-0.7,3.4-1.8,4.7
	H899.8z M905.8,149.8c0.2-1.5,1.2-3.1,3.8-3.1c2.5,0,3.7,1.4,3.7,2.9c0,1.3-0.6,1.9-1.4,2.2v0c0.8,0.3,1.8,1,1.8,2.7
	c0,1.7-1.1,3.6-4.1,3.5c-2.6,0-3.9-1.6-4-3.3h2.3c0.2,0.8,0.6,1.5,1.8,1.5c1.2,0,1.7-0.7,1.7-1.7c0-1-0.4-1.7-1.9-1.7h-0.8v-1.8h0.8
	c1.1,0,1.6-0.3,1.6-1.2c0-0.8-0.4-1.3-1.4-1.3c-1.2,0-1.5,0.7-1.6,1.3H905.8z M918.5,155.3c0.2,0.7,0.7,1.1,1.5,1.1
	c1.5,0,1.8-1.6,1.9-3.2c-0.5,0.6-1.4,0.9-2.3,0.9c-2.2,0-3.6-1.4-3.6-3.5c0-2.1,1.5-3.8,4-3.8c3,0,4.2,2.1,4.2,5.2
	c0,2.8-0.7,6.2-4.4,6.2c-2.3,0-3.5-1.3-3.7-2.8H918.5z M918.3,150.4c0,1.2,0.7,1.9,1.7,1.9c1.1,0,1.7-0.5,1.7-1.8c0-0.9-0.3-2-1.7-2
	C919,148.5,918.3,149.2,918.3,150.4z M933.8,146.9v1.7c-1.8,2.6-3.2,5.7-3.9,9.3h-2.6c0.5-3.6,2.4-7.2,4-9.1h-5.2v-1.9H933.8z
	 M934.7,157.9v-2.8h2.4v2.8H934.7z M939.9,157.9v-0.1c0-1.8,0.5-3.4,3.4-5.4c1.5-1.1,1.9-1.3,1.9-2.3c0-0.9-0.5-1.5-1.4-1.5
	c-1,0-1.4,0.6-1.6,1.6h-2.4c0.2-1.8,1.4-3.4,3.9-3.4c2.8,0,3.8,1.8,3.8,3.3c0,1.7-0.7,2.4-2.7,3.8c-1.4,0.9-2,1.6-2.2,2.2h5.4
	l-0.3,1.9H939.9z M958.6,152.3c0,2.8-1,5.8-4.2,5.8c-3.2,0-4.2-2.7-4.2-5.7c0-2.8,1.1-5.7,4.3-5.7
	C957.4,146.7,958.6,149.4,958.6,152.3z M952.5,152.4c0,2.2,0.4,3.9,1.9,3.9c1.4,0,1.8-1.7,1.8-3.9c0-2.1-0.4-3.8-1.8-3.8
	S952.5,150,952.5,152.4z"/>
<rect x="1074.9" y="21.5" class="st29" width="103" height="25"/>
<path class="st3" d="M1085.5,41v-1.4c-1.9-0.3-3-1.4-3.2-3h2.3c0.2,0.9,0.9,1.4,2,1.4c1.2,0,1.7-0.6,1.7-1.3c0-0.8-0.5-1.3-2.1-1.7
	c-2.8-0.8-3.6-1.9-3.6-3.5c0-1.7,1.2-2.7,2.8-3v-1.1h2v1.1c2.1,0.3,2.8,1.6,3,2.8h-2.4c-0.1-0.4-0.4-1.2-1.7-1.2
	c-1.1,0-1.4,0.7-1.4,1.2c0,0.8,0.5,1.1,2.2,1.6c2.7,0.8,3.5,2,3.5,3.6c0,1.8-1.2,2.9-3.1,3.2V41H1085.5z M1094.7,39.5v-8.3
	c-0.5,0.2-1.6,0.4-2.1,0.4V30c1-0.2,2.2-0.8,2.8-1.5h1.7v11H1094.7z M1100,39.5v-0.1c0-1.8,0.5-3.4,3.4-5.4c1.5-1.1,1.9-1.3,1.9-2.3
	c0-0.9-0.5-1.5-1.4-1.5c-1,0-1.4,0.6-1.6,1.6h-2.4c0.2-1.8,1.4-3.4,3.9-3.4c2.8,0,3.8,1.8,3.8,3.3c0,1.7-0.7,2.4-2.7,3.8
	c-1.4,0.9-2,1.6-2.2,2.2h5.4l-0.3,1.9H1100z M1109.9,41.4c0.9-2.1,1.1-3.5,1.2-4.7h2.4c-0.2,1.6-0.7,3.4-1.8,4.7H1109.9z
	 M1122.9,28.5v1.7c-1.8,2.6-3.2,5.7-3.9,9.3h-2.6c0.5-3.6,2.4-7.2,4-9.1h-5.2v-1.9H1122.9z M1127.3,36.9c0.2,0.7,0.7,1.1,1.5,1.1
	c1.5,0,1.8-1.6,1.9-3.2c-0.5,0.6-1.4,0.9-2.3,0.9c-2.2,0-3.6-1.4-3.6-3.5c0-2.1,1.5-3.8,4-3.8c3,0,4.2,2.1,4.2,5.2
	c0,2.8-0.7,6.2-4.4,6.2c-2.3,0-3.5-1.3-3.7-2.8H1127.3z M1127.2,32c0,1.2,0.7,1.9,1.7,1.9c1.1,0,1.7-0.5,1.7-1.8c0-0.9-0.3-2-1.7-2
	C1127.9,30.1,1127.2,30.8,1127.2,32z M1140.4,39.5v-2.6h-5v-2l4.6-6.5h2.6v6.6h1.3l-0.2,1.8h-1.1v2.6H1140.4z M1140.4,33
	c0-1.2,0-1.9,0-2.6c-0.4,0.9-2.2,3.2-3,4.6h3V33z M1146.2,39.5v-2.8h2.4v2.8H1146.2z M1155.9,39.5v-2.6h-5v-2l4.6-6.5h2.6v6.6h1.3
	l-0.2,1.8h-1.1v2.6H1155.9z M1155.9,33c0-1.2,0-1.9,0-2.6c-0.4,0.9-2.2,3.2-3,4.6h3V33z M1170.2,33.9c0,2.8-1,5.8-4.2,5.8
	c-3.2,0-4.2-2.7-4.2-5.7c0-2.8,1.1-5.7,4.3-5.7C1169,28.3,1170.2,31,1170.2,33.9z M1164.1,34c0,2.2,0.4,3.9,1.9,3.9
	c1.4,0,1.8-1.7,1.8-3.9c0-2.1-0.4-3.8-1.8-3.8S1164.1,31.6,1164.1,34z"/>
</svg>
