<svg id="Layer_1" data-name="Layer 1" xmlns="http://www.w3.org/2000/svg" xmlns:xlink="http://www.w3.org/1999/xlink" viewBox="0 0 864.54 115.51"><defs><style>.cls-1{fill:none;}.cls-2{clip-path:url(#clip-path);}.cls-11,.cls-15,.cls-17,.cls-19,.cls-20,.cls-21,.cls-3{font-size:22px;}.cls-3,.cls-30{fill:#ffd600;}.cls-11,.cls-15,.cls-17,.cls-19,.cls-20,.cls-21,.cls-3,.cls-31{font-family:AcuminPro-Bold, Acumin Pro;font-weight:700;}.cls-4{letter-spacing:0em;}.cls-5{letter-spacing:-0.01em;}.cls-6{letter-spacing:0em;}.cls-7{letter-spacing:-0.01em;}.cls-8{letter-spacing:0em;}.cls-9{letter-spacing:0em;}.cls-10{letter-spacing:0em;}.cls-11,.cls-15,.cls-28{fill:#f98675;}.cls-12{letter-spacing:0em;}.cls-13{letter-spacing:0em;}.cls-14{letter-spacing:-0.02em;}.cls-15,.cls-20{letter-spacing:0em;}.cls-16{letter-spacing:0em;}.cls-17,.cls-19,.cls-20,.cls-29{fill:aqua;}.cls-17,.cls-22{letter-spacing:0em;}.cls-18{letter-spacing:0em;}.cls-21,.cls-27{fill:#12e17e;}.cls-23{letter-spacing:-0.01em;}.cls-24{letter-spacing:-0.01em;}.cls-25{letter-spacing:-0.01em;}.cls-26{letter-spacing:0em;}.cls-31{font-size:20px;fill:#fff;}.cls-32{letter-spacing:0em;}.cls-33{letter-spacing:-0.01em;}.cls-34{letter-spacing:0.02em;}.cls-35{letter-spacing:0em;}.cls-36{letter-spacing:-0.01em;}.cls-37{letter-spacing:0em;}.cls-38{letter-spacing:-0.01em;}.cls-39{letter-spacing:0em;}.cls-40{letter-spacing:0em;}.cls-41{letter-spacing:0em;}.cls-42{letter-spacing:0em;}.cls-43{letter-spacing:0.01em;}.cls-44{letter-spacing:0em;}.cls-45{letter-spacing:-0.01em;}.cls-46{letter-spacing:-0.01em;}.cls-47{letter-spacing:-0.01em;}</style><clipPath id="clip-path" transform="translate(0 3.1)"><rect class="cls-1" width="864.47" height="106.56"/></clipPath></defs><title>ss_generational_barchart</title><g class="cls-2"><text class="cls-3" transform="translate(0 84.66)"><tspan class="cls-4">M</tspan><tspan class="cls-5" x="19.43" y="0">il</tspan><tspan class="cls-6" x="31.08" y="0">l</tspan><tspan class="cls-4" x="37.02" y="0">e</tspan><tspan class="cls-5" x="49.17" y="0">n</tspan><tspan class="cls-7" x="62.06" y="0">n</tspan><tspan class="cls-4" x="74.97" y="0">i</tspan><tspan class="cls-5" x="80.89" y="0">a</tspan><tspan class="cls-8" x="93.04" y="0">l</tspan><tspan x="98.93" y="0">s </tspan></text><text class="cls-3" transform="translate(0 109.65)"><tspan class="cls-9">2</tspan><tspan class="cls-10" x="12.28" y="0">8</tspan><tspan x="25.04" y="0">%</tspan></text></g><text class="cls-11" transform="translate(242.13 84.66)"><tspan class="cls-12">G</tspan><tspan class="cls-4" x="16.63" y="0">e</tspan><tspan class="cls-13" x="28.78" y="0">n</tspan><tspan class="cls-14" x="41.93" y="0">-</tspan><tspan x="49.94" y="0">X </tspan></text><g class="cls-2"><text class="cls-15" transform="translate(242.13 109.66)">3<tspan class="cls-16" x="12.3" y="0">2%</tspan></text></g><text class="cls-17" transform="translate(518.44 84.66)">B<tspan class="cls-6" x="14.89" y="0">o</tspan><tspan class="cls-4" x="27.61" y="0">o</tspan><tspan class="cls-6" x="40.3" y="0">me</tspan><tspan class="cls-18" x="71.59" y="0">r</tspan><tspan class="cls-16" x="80.19" y="0">s </tspan></text><text class="cls-19" transform="translate(615.24 84.66)"> </text><g class="cls-2"><text class="cls-20" transform="translate(518.44 109.66)">3<tspan class="cls-16" x="12.3" y="0">2%</tspan></text><text class="cls-21" transform="translate(775.99 84.67)"><tspan class="cls-22">G</tspan><tspan class="cls-23" x="16.57" y="0">r</tspan><tspan class="cls-8" x="25.1" y="0">e</tspan><tspan class="cls-24" x="37.22" y="0">a</tspan><tspan class="cls-25" x="49.3" y="0">t</tspan><tspan class="cls-6" x="57.04" y="0">e</tspan><tspan x="69.21" y="0">st</tspan></text><text class="cls-21" transform="translate(831.34 109.66)"><tspan class="cls-26">8</tspan><tspan x="12.74" y="0">%</tspan></text></g><rect class="cls-27" x="794.74" y="38.73" width="69.73" height="23.41"/><rect class="cls-28" x="242.13" y="38.73" width="276.96" height="23.41"/><rect class="cls-29" x="518.44" y="38.73" width="276.96" height="23.41"/><rect class="cls-30" x="0.37" y="38.73" width="242.42" height="23.41"/><g class="cls-2"><text class="cls-31" transform="translate(0 16.88)"><tspan class="cls-32">S</tspan><tspan x="12.76" y="0">el</tspan><tspan class="cls-33" x="29.3" y="0">f</tspan><tspan class="cls-34" x="35.6" y="0">-</tspan><tspan class="cls-35" x="43.64" y="0">S</tspan><tspan class="cls-36" x="56.38" y="0">t</tspan><tspan class="cls-37" x="63.4" y="0">o</tspan><tspan class="cls-38" x="74.96" y="0">ra</tspan><tspan class="cls-37" x="93.7" y="0">g</tspan><tspan x="105.62" y="0">e </tspan><tspan class="cls-39" x="121.56" y="0">C</tspan><tspan class="cls-40" x="135.7" y="0">u</tspan><tspan class="cls-41" x="147.32" y="0">s</tspan><tspan class="cls-36" x="157.66" y="0">t</tspan><tspan class="cls-37" x="164.68" y="0">omer</tspan><tspan class="cls-42" x="212.52" y="0">s </tspan><tspan class="cls-43" x="227.68" y="0">G</tspan><tspan class="cls-37" x="242.8" y="0">en</tspan><tspan class="cls-44" x="265.68" y="0">e</tspan><tspan class="cls-45" x="276.72" y="0">r</tspan><tspan class="cls-46" x="284.44" y="0">a</tspan><tspan class="cls-37" x="295.44" y="0">t</tspan><tspan class="cls-44" x="302.65" y="0">io</tspan><tspan class="cls-40" x="319.57" y="0">n</tspan><tspan class="cls-47" x="331.35" y="0">a</tspan><tspan class="cls-42" x="342.39" y="0">l </tspan><tspan class="cls-37" x="352.67" y="0">M</tspan><tspan class="cls-41" x="370.35" y="0">i</tspan><tspan x="375.81" y="0">x </tspan></text></g></svg>