<svg id="average" xmlns="http://www.w3.org/2000/svg" xmlns:xlink="http://www.w3.org/1999/xlink" viewBox="0 0 798.69 725.76"><defs><style>.cls-1,.cls-85{fill:none;}.cls-12,.cls-15,.cls-16,.cls-18,.cls-2,.cls-29,.cls-30,.cls-32,.cls-36,.cls-38,.cls-42,.cls-43,.cls-45,.cls-51,.cls-52,.cls-54,.cls-60,.cls-66,.cls-71,.cls-78,.cls-81,.cls-83{font-size:16px;font-family:AcuminPro-Bold, Acumin Pro;font-weight:700;}.cls-11,.cls-2{fill:#ffd600;}.cls-18,.cls-3,.cls-38,.cls-45{letter-spacing:0.06em;}.cls-16,.cls-4,.cls-43,.cls-81{letter-spacing:0.06em;}.cls-5{letter-spacing:0.06em;}.cls-6{letter-spacing:0.06em;}.cls-7{letter-spacing:0.07em;}.cls-8{letter-spacing:0.03em;}.cls-9{letter-spacing:0.07em;}.cls-10,.cls-30,.cls-52{letter-spacing:0.06em;}.cls-12,.cls-15,.cls-16,.cls-17{fill:#ffb04e;}.cls-12,.cls-58{letter-spacing:0.06em;}.cls-13{letter-spacing:0.06em;}.cls-14{letter-spacing:0em;}.cls-18,.cls-29,.cls-30,.cls-31{fill:#f98675;}.cls-19{letter-spacing:0.07em;}.cls-20{letter-spacing:0.05em;}.cls-21{letter-spacing:0.07em;}.cls-22{letter-spacing:0.09em;}.cls-23{letter-spacing:0em;}.cls-24{letter-spacing:0.06em;}.cls-25{letter-spacing:0.06em;}.cls-26{letter-spacing:0.07em;}.cls-27{letter-spacing:0.07em;}.cls-28{letter-spacing:0em;}.cls-32,.cls-36,.cls-37{fill:#e95f93;}.cls-32,.cls-64{letter-spacing:0.04em;}.cls-33{letter-spacing:0.07em;}.cls-34{letter-spacing:0.07em;}.cls-35{letter-spacing:0.06em;}.cls-38,.cls-42,.cls-43,.cls-44{fill:#cc34b4;}.cls-39{letter-spacing:0.05em;}.cls-40{letter-spacing:0.05em;}.cls-41{letter-spacing:0.06em;}.cls-45,.cls-51,.cls-52,.cls-53{fill:#e84524;}.cls-46{letter-spacing:0.03em;}.cls-47{letter-spacing:0em;}.cls-48{letter-spacing:0.08em;}.cls-49{letter-spacing:0.05em;}.cls-50{letter-spacing:0.06em;}.cls-54,.cls-59{fill:#eb6d20;}.cls-55{letter-spacing:0.03em;}.cls-56{letter-spacing:0.04em;}.cls-57{letter-spacing:0.09em;}.cls-60,.cls-65{fill:#12e17e;}.cls-61{letter-spacing:0.06em;}.cls-62{letter-spacing:0.06em;}.cls-63{letter-spacing:0.06em;}.cls-66,.cls-70{fill:#29cef4;}.cls-67{letter-spacing:0.07em;}.cls-68{letter-spacing:0.06em;}.cls-69{letter-spacing:0.08em;}.cls-71,.cls-77{fill:#a9a9a9;}.cls-72{letter-spacing:0.07em;}.cls-73{letter-spacing:0.06em;}.cls-74{letter-spacing:0.05em;}.cls-75{letter-spacing:0.03em;}.cls-76{letter-spacing:0.05em;}.cls-78,.cls-80{fill:#9c02d6;}.cls-79{letter-spacing:-0.18em;}.cls-81,.cls-83,.cls-84{fill:#0664ff;}.cls-82{letter-spacing:0.08em;}.cls-85{stroke:#fff;stroke-dasharray:11.66 11.66;}.cls-86{fill:#fff;}.cls-87{clip-path:url(#clip-path);}.cls-88{clip-path:url(#clip-path-2);}.cls-89{fill:#055ef1;}.cls-90{clip-path:url(#clip-path-3);}.cls-91{fill:#0563fb;}.cls-92{fill:#0561f6;}.cls-93{fill:#9303cb;}.cls-94{fill:#9803d0;}.cls-95{fill:#9b03d3;}.cls-96{fill:#a7a7a7;}.cls-97{fill:#a2a2a2;}.cls-98{fill:#a5a5a5;}.cls-99{fill:#29cbf1;}.cls-100{fill:#26c3e7;}.cls-101{fill:#29c8ec;}.cls-102{fill:#12dd7d;}.cls-103{fill:#12d578;}.cls-104{fill:#12da7a;}.cls-105{fill:#e76b21;}.cls-106{fill:#df691f;}.cls-107{fill:#e46b1f;}.cls-108{fill:#e44524;}.cls-109{fill:#dd4221;}.cls-110{fill:#e24224;}.cls-111{fill:#c833b1;}.cls-112{fill:#c130aa;}.cls-113{fill:#c633af;}.cls-114{fill:#e75e90;}.cls-115{fill:#dd598b;}.cls-116{fill:#e25c8e;}.cls-117{fill:#f68473;}.cls-118{fill:#ec8070;}.cls-119{fill:#f18173;}.cls-120{fill:#fbaf4d;}.cls-121{fill:#f1a74a;}.cls-122{fill:#f6aa4d;}.cls-123{fill:#fbd300;}.cls-124{fill:#f1cb00;}.cls-125{fill:#f6d000;}.cls-126{font-size:17px;fill:#231f20;font-family:AcuminPro-Regular, Acumin Pro;}.cls-127{letter-spacing:0.05em;}.cls-128{letter-spacing:0.06em;}.cls-129{letter-spacing:0.04em;}.cls-130{letter-spacing:0.04em;}.cls-131{letter-spacing:0.05em;}.cls-132{letter-spacing:0.05em;}.cls-133{letter-spacing:0.06em;}.cls-134{letter-spacing:0.06em;}.cls-135{letter-spacing:0.05em;}.cls-136{letter-spacing:0.04em;}.cls-137{letter-spacing:0.06em;}.cls-138{letter-spacing:0.04em;}.cls-139{letter-spacing:0.05em;}.cls-140{letter-spacing:0.06em;}.cls-141{letter-spacing:0.05em;}.cls-142{letter-spacing:0.05em;}.cls-143{letter-spacing:0.05em;}.cls-144{letter-spacing:0.06em;}.cls-145{letter-spacing:0.07em;}.cls-146{letter-spacing:0.04em;}.cls-147{letter-spacing:0.05em;}.cls-148{letter-spacing:0.06em;}.cls-149{letter-spacing:0.05em;}.cls-150{letter-spacing:0.05em;}.cls-151{letter-spacing:0.06em;}.cls-152{letter-spacing:0.05em;}</style><clipPath id="clip-path"><path class="cls-1" d="M123.25,459.69l183.26,99.69a2,2,0,0,1-1.14-1.71L122.1,458a2,2,0,0,0,1.14,1.71"/></clipPath><clipPath id="clip-path-2"><rect class="cls-1" x="121.56" y="23.92" width="337" height="333"/></clipPath><clipPath id="clip-path-3"><rect class="cls-1" width="798.69" height="725.76"/></clipPath></defs><title>Artboard 1</title><text class="cls-2" transform="translate(9 600.53)"><tspan class="cls-3">H</tspan><tspan class="cls-4" x="12.78" y="0">O</tspan><tspan class="cls-5" x="25.98" y="0">U</tspan><tspan class="cls-6" x="38.56" y="0">S</tspan><tspan class="cls-7" x="49.73" y="0">E</tspan><tspan class="cls-8" x="60.8" y="0">W</tspan><tspan class="cls-4" x="76.46" y="0">A</tspan><tspan class="cls-9" x="88.43" y="0">R</tspan><tspan x="100.14" y="0">E</tspan></text><text class="cls-2" transform="translate(120.02 600.53)"> </text><text class="cls-2" transform="translate(123.45 600.53)"><tspan class="cls-10">.........................................</tspan><tspan x="204.01" y="0">.</tspan></text><path class="cls-11" d="M333.16,600.53v-.14c0-1.82.53-3.39,3.41-5.44,1.49-1.06,1.87-1.33,1.87-2.27a1.31,1.31,0,0,0-1.38-1.49c-1,0-1.42.59-1.58,1.58h-2.35a3.61,3.61,0,0,1,3.94-3.43c2.85,0,3.78,1.76,3.78,3.28,0,1.7-.67,2.42-2.74,3.79-1.41.93-2,1.62-2.21,2.21h5.38l-.3,1.9Zm10.32,0v-.14c0-1.82.53-3.39,3.41-5.44,1.49-1.06,1.87-1.33,1.87-2.27a1.31,1.31,0,0,0-1.38-1.49c-1,0-1.42.59-1.58,1.58h-2.35a3.61,3.61,0,0,1,3.94-3.43c2.85,0,3.78,1.76,3.78,3.28,0,1.7-.67,2.42-2.74,3.79-1.41.93-2,1.62-2.21,2.21h5.38l-.3,1.9Z"/><text class="cls-2" transform="translate(353.43 600.53)">.</text><path class="cls-11" d="M367.44,594.95c0,2.83-1,5.78-4.24,5.78S359,598,359,595c0-2.77,1.12-5.67,4.29-5.67S367.44,592,367.44,594.95Zm-6.08,0c0,2.21.4,3.86,1.86,3.86S365,597.14,365,595s-.37-3.78-1.78-3.78S361.35,592.61,361.35,595Zm14-2.16a2.75,2.75,0,0,1-2.85,3c-1.7,0-2.83-1-2.83-3a2.77,2.77,0,0,1,2.85-3A2.7,2.7,0,0,1,375.4,592.83Zm-3.91,0c0,1,.38,1.6,1.09,1.6s1.09-.5,1.09-1.6-.45-1.58-1.1-1.58S371.49,591.76,371.49,592.83Zm1,7.7L379,590h1.68l-6.48,10.55Zm11-2.85a2.76,2.76,0,0,1-2.85,3.06c-1.71,0-2.83-1.06-2.83-3a2.76,2.76,0,0,1,2.85-3A2.69,2.69,0,0,1,383.5,597.68Zm-3.92,0c0,1,.38,1.62,1.09,1.62s1.1-.51,1.1-1.62-.45-1.57-1.1-1.57S379.58,596.63,379.58,597.68Z"/><text class="cls-12" transform="translate(9 624.53)">FU<tspan class="cls-9" x="23.06" y="0">R</tspan><tspan class="cls-4" x="34.77" y="0">N</tspan><tspan class="cls-13" x="47.81" y="0">I</tspan><tspan x="53.74" y="0">TU</tspan><tspan class="cls-9" x="76.8" y="0">R</tspan><tspan class="cls-14" x="88.51" y="0">E</tspan></text><text class="cls-15" transform="translate(108.39 624.53)"> </text><text class="cls-16" transform="translate(108.52 624.53)">............................................<tspan class="cls-14" x="218.94" y="0">.</tspan></text><path class="cls-17" d="M338.83,624.53v-8.26a7,7,0,0,1-2.06.38V615a5.54,5.54,0,0,0,2.8-1.49h1.66v11Zm5.3-8.08a3.53,3.53,0,0,1,3.84-3.11c2.51,0,3.71,1.38,3.71,2.93a2.24,2.24,0,0,1-1.39,2.22v0a2.62,2.62,0,0,1,1.78,2.66c0,1.73-1.09,3.57-4.15,3.54-2.59,0-3.91-1.62-4-3.27h2.27a1.72,1.72,0,0,0,1.84,1.46,1.55,1.55,0,0,0,1.73-1.68c0-1-.42-1.74-1.94-1.74H347v-1.76h.75c1.1,0,1.63-.32,1.63-1.25a1.27,1.27,0,0,0-1.44-1.34,1.47,1.47,0,0,0-1.6,1.31Z"/><text class="cls-15" transform="translate(353.83 624.53)">.</text><path class="cls-17" d="M367.18,615.38h-4.56c-.08.8-.21,1.71-.29,2.18a3,3,0,0,1,2-.58,3.4,3.4,0,0,1,3.46,3.68,3.81,3.81,0,0,1-4.16,4.07,3.7,3.7,0,0,1-4-3.17h2.29a1.7,1.7,0,0,0,1.76,1.34c1.28,0,1.79-.82,1.79-2,0-1-.4-2.06-1.78-2.06a1.63,1.63,0,0,0-1.74,1.17l-2.11-.32c.29-1.31.72-4.63.86-6.13h6.77Zm8.22,1.46a2.75,2.75,0,0,1-2.85,3c-1.7,0-2.83-1-2.83-3a2.77,2.77,0,0,1,2.85-3A2.7,2.7,0,0,1,375.4,616.83Zm-3.91,0c0,1,.38,1.6,1.09,1.6s1.09-.5,1.09-1.6-.45-1.58-1.1-1.58S371.5,615.76,371.5,616.83Zm1,7.7L379,614h1.68l-6.48,10.55Zm11-2.85a2.76,2.76,0,0,1-2.85,3.06c-1.71,0-2.83-1.06-2.83-3a2.76,2.76,0,0,1,2.85-3A2.69,2.69,0,0,1,383.5,621.68Zm-3.92,0c0,1,.38,1.62,1.09,1.62s1.1-.51,1.1-1.62-.45-1.57-1.1-1.57S379.58,620.63,379.58,621.68Z"/><text class="cls-18" transform="translate(9 648.53)">HO<tspan class="cls-19" x="25.97" y="0">B</tspan><tspan class="cls-20" x="37.82" y="0">B</tspan><tspan class="cls-10" x="49.41" y="0">Y </tspan><tspan class="cls-9" x="65.1" y="0">R</tspan><tspan class="cls-21" x="76.81" y="0">E</tspan><tspan class="cls-22" x="87.85" y="0">L</tspan><tspan class="cls-23" x="98.62" y="0">A</tspan><tspan x="109.57" y="0">T</tspan><tspan class="cls-21" x="119.92" y="0">E</tspan><tspan class="cls-4" x="130.96" y="0">D O</tspan><tspan class="cls-24" x="161.73" y="0">B</tspan><tspan class="cls-25" x="173.52" y="0">J</tspan><tspan class="cls-26" x="180.94" y="0">E</tspan><tspan class="cls-19" x="191.87" y="0">C</tspan><tspan class="cls-27" x="204.32" y="0">T</tspan><tspan class="cls-28" x="214.81" y="0">S</tspan></text><text class="cls-29" transform="translate(235.04 648.53)"> </text><text class="cls-30" transform="translate(237.88 648.53)">..................<tspan class="cls-14" x="89.57" y="0">.</tspan></text><path class="cls-31" d="M338.19,648.53v-8.26a7,7,0,0,1-2.06.38V639a5.54,5.54,0,0,0,2.8-1.49h1.66v11Zm5.29,0v-.14c0-1.82.53-3.39,3.41-5.44,1.49-1.06,1.87-1.33,1.87-2.27a1.31,1.31,0,0,0-1.38-1.49c-1,0-1.42.59-1.58,1.58h-2.35a3.61,3.61,0,0,1,3.94-3.43c2.85,0,3.78,1.76,3.78,3.28,0,1.7-.67,2.42-2.74,3.79-1.41.93-2,1.62-2.21,2.21h5.38l-.3,1.9Z"/><text class="cls-29" transform="translate(353.43 648.53)">.</text><path class="cls-31" d="M367.44,642.95c0,2.83-1,5.78-4.24,5.78S359,646,359,643c0-2.77,1.12-5.67,4.29-5.67S367.44,640,367.44,642.95Zm-6.08,0c0,2.21.4,3.86,1.86,3.86S365,645.14,365,643s-.37-3.78-1.78-3.78S361.35,640.61,361.35,643Zm14-2.16a2.75,2.75,0,0,1-2.85,3c-1.7,0-2.83-1-2.83-3a2.77,2.77,0,0,1,2.85-3A2.7,2.7,0,0,1,375.4,640.83Zm-3.91,0c0,1,.38,1.6,1.09,1.6s1.09-.5,1.09-1.6-.45-1.58-1.1-1.58S371.49,639.76,371.49,640.83Zm1,7.7L379,638h1.68l-6.48,10.55Zm11-2.85a2.76,2.76,0,0,1-2.85,3.06c-1.71,0-2.83-1.06-2.83-3a2.76,2.76,0,0,1,2.85-3A2.69,2.69,0,0,1,383.5,645.68Zm-3.92,0c0,1,.38,1.62,1.09,1.62s1.1-.51,1.1-1.62-.45-1.57-1.1-1.57S379.58,644.63,379.58,645.68Z"/><text class="cls-32" transform="translate(9 672.53)">P<tspan class="cls-21" x="11.17" y="0">E</tspan><tspan class="cls-33" x="22.21" y="0">R</tspan><tspan class="cls-13" x="33.94" y="0">S</tspan><tspan class="cls-3" x="45.02" y="0">O</tspan><tspan class="cls-4" x="58.21" y="0">NA</tspan><tspan class="cls-3" x="83.22" y="0">L</tspan><tspan class="cls-4" x="93.54" y="0"> </tspan><tspan class="cls-13" x="98.37" y="0">I</tspan><tspan class="cls-3" x="104.3" y="0">T</tspan><tspan class="cls-34" x="114.65" y="0">E</tspan><tspan class="cls-35" x="125.68" y="0">M</tspan><tspan class="cls-28" x="140.86" y="0">S</tspan></text><text class="cls-36" transform="translate(161.1 672.53)"> </text><text class="cls-36" transform="translate(163.26 672.53)"><tspan class="cls-10">..................................</tspan><tspan x="169.18" y="0">.</tspan></text><path class="cls-37" d="M342.92,672.53v-8.26a7,7,0,0,1-2.06.38V663a5.54,5.54,0,0,0,2.8-1.49h1.66v11Zm7.15,0v-8.26a7,7,0,0,1-2.06.38V663a5.54,5.54,0,0,0,2.8-1.49h1.66v11Z"/><text class="cls-36" transform="translate(354.89 672.53)">.</text><path class="cls-37" d="M367.69,661.51v1.71a22.46,22.46,0,0,0-3.86,9.32h-2.58a20.88,20.88,0,0,1,4-9.14H360v-1.89Zm7.68,3.33a2.75,2.75,0,0,1-2.85,3c-1.7,0-2.83-1-2.83-3a2.77,2.77,0,0,1,2.85-3A2.7,2.7,0,0,1,375.38,664.83Zm-3.91,0c0,1,.38,1.6,1.09,1.6s1.09-.5,1.09-1.6-.45-1.58-1.1-1.58S371.47,663.76,371.47,664.83Zm1,7.7L379,662h1.68l-6.48,10.55Zm11-2.85a2.76,2.76,0,0,1-2.85,3.06c-1.71,0-2.83-1.06-2.83-3a2.76,2.76,0,0,1,2.85-3A2.69,2.69,0,0,1,383.47,669.68Zm-3.92,0c0,1,.38,1.62,1.09,1.62s1.1-.51,1.1-1.62-.45-1.57-1.1-1.57S379.55,668.63,379.55,669.68Z"/><text class="cls-38" transform="translate(8.98 696.53)">C<tspan class="cls-39" x="12.34" y="0">L</tspan><tspan class="cls-40" x="22.53" y="0">O</tspan><tspan class="cls-41" x="35.57" y="0">TH</tspan><tspan x="58.74" y="0">I</tspan><tspan class="cls-25" x="64.69" y="0">N</tspan><tspan class="cls-14" x="77.74" y="0">G</tspan></text><text class="cls-42" transform="translate(99.72 696.53)"> </text><text class="cls-43" transform="translate(103.51 696.53)">...............................................<tspan class="cls-14" x="233.87" y="0">.</tspan></text><path class="cls-44" d="M343.48,693.33a2.81,2.81,0,0,1,1.76-2.63,2.46,2.46,0,0,1-1.3-2.29c0-1.73,1.38-3.07,3.83-3.07,2.27,0,3.75,1.26,3.75,3a2.35,2.35,0,0,1-1.33,2.24,2.74,2.74,0,0,1,1.74,2.63c0,2.38-1.82,3.49-4.34,3.49C345.34,696.73,343.48,695.57,343.48,693.33Zm6.11-.06c0-1.07-.7-1.63-1.89-1.63s-1.87.64-1.87,1.57a1.67,1.67,0,0,0,1.9,1.71C348.87,694.92,349.59,694.34,349.59,693.27Zm-3.46-4.77c0,.75.54,1.3,1.6,1.3s1.57-.48,1.57-1.26-.58-1.41-1.58-1.41S346.14,687.62,346.14,688.5Z"/><text class="cls-42" transform="translate(353.72 696.53)">.</text><path class="cls-44" d="M359.62,688.45a3.53,3.53,0,0,1,3.84-3.11c2.51,0,3.71,1.38,3.71,2.93a2.24,2.24,0,0,1-1.39,2.22v0a2.62,2.62,0,0,1,1.78,2.66c0,1.73-1.09,3.57-4.15,3.54-2.59,0-3.91-1.62-4-3.27h2.27a1.72,1.72,0,0,0,1.84,1.46,1.55,1.55,0,0,0,1.73-1.68c0-1-.42-1.74-1.94-1.74h-.8v-1.76h.75c1.1,0,1.63-.32,1.63-1.25a1.27,1.27,0,0,0-1.44-1.34,1.47,1.47,0,0,0-1.6,1.31Zm15.75.38a2.75,2.75,0,0,1-2.85,3c-1.7,0-2.83-1-2.83-3a2.77,2.77,0,0,1,2.85-3A2.7,2.7,0,0,1,375.37,688.83Zm-3.91,0c0,1,.38,1.6,1.09,1.6s1.09-.5,1.09-1.6-.45-1.58-1.1-1.58S371.46,687.76,371.46,688.83Zm1,7.7L379,686h1.68l-6.48,10.55Zm11-2.85a2.76,2.76,0,0,1-2.85,3.06c-1.71,0-2.83-1.06-2.83-3a2.76,2.76,0,0,1,2.85-3A2.69,2.69,0,0,1,383.47,693.68Zm-3.92,0c0,1,.38,1.62,1.09,1.62s1.1-.51,1.1-1.62-.45-1.57-1.1-1.57S379.55,692.63,379.55,693.68Z"/><text class="cls-45" transform="translate(8.97 720.53)">HOLI<tspan class="cls-46" x="42.24" y="0">D</tspan><tspan class="cls-47" x="54.53" y="0">A</tspan><tspan class="cls-4" x="65.55" y="0">Y </tspan><tspan class="cls-6" x="81.25" y="0">S</tspan><tspan class="cls-48" x="92.42" y="0">E</tspan><tspan class="cls-49" x="103.57" y="0">A</tspan><tspan class="cls-13" x="115.45" y="0">S</tspan><tspan class="cls-4" x="126.54" y="0">ONAL </tspan><tspan class="cls-50" x="179.92" y="0">I</tspan><tspan class="cls-41" x="185.85" y="0">T</tspan><tspan class="cls-34" x="196.22" y="0">E</tspan><tspan class="cls-35" x="207.25" y="0">M</tspan><tspan class="cls-28" x="222.43" y="0">S</tspan></text><text class="cls-51" transform="translate(242.65 720.53)"> </text><text class="cls-52" transform="translate(242.84 720.53)">...................<tspan class="cls-14" x="94.54" y="0">.</tspan></text><path class="cls-53" d="M353.71,709.51v1.71a22.46,22.46,0,0,0-3.86,9.32h-2.58a20.88,20.88,0,0,1,4-9.14H346v-1.89Z"/><text class="cls-51" transform="translate(353.8 720.53)">.</text><path class="cls-53" d="M367.13,711.38h-4.56c-.08.8-.21,1.71-.29,2.18a3,3,0,0,1,2-.58,3.4,3.4,0,0,1,3.46,3.68,3.81,3.81,0,0,1-4.16,4.07,3.7,3.7,0,0,1-4-3.17h2.29a1.7,1.7,0,0,0,1.76,1.34c1.28,0,1.79-.82,1.79-2,0-1-.4-2.06-1.78-2.06A1.63,1.63,0,0,0,361.9,716l-2.11-.32c.29-1.31.72-4.63.86-6.13h6.77Zm8.22,1.46a2.75,2.75,0,0,1-2.85,3c-1.7,0-2.83-1-2.83-3a2.77,2.77,0,0,1,2.85-3A2.7,2.7,0,0,1,375.35,712.83Zm-3.91,0c0,1,.38,1.6,1.09,1.6s1.09-.5,1.09-1.6-.45-1.58-1.1-1.58S371.45,711.76,371.45,712.83Zm1,7.7L379,710h1.68l-6.48,10.55Zm11-2.85a2.76,2.76,0,0,1-2.85,3.06c-1.71,0-2.83-1.06-2.83-3a2.76,2.76,0,0,1,2.85-3A2.69,2.69,0,0,1,383.45,717.68Zm-3.92,0c0,1,.38,1.62,1.09,1.62s1.1-.51,1.1-1.62-.45-1.57-1.1-1.57S379.53,716.63,379.53,717.68Z"/><text class="cls-54" transform="translate(401.96 600.53)"><tspan class="cls-5">B</tspan><tspan class="cls-13" x="11.78" y="0">O</tspan><tspan class="cls-3" x="24.94" y="0">O</tspan><tspan class="cls-39" x="38.13" y="0">K</tspan><tspan class="cls-55" x="49.76" y="0">S</tspan><tspan class="cls-4" x="60.42" y="0">/ M</tspan><tspan class="cls-56" x="88.8" y="0">A</tspan><tspan class="cls-19" x="100.38" y="0">G</tspan><tspan class="cls-57" x="113.45" y="0">A</tspan><tspan class="cls-58" x="125.84" y="0">Z</tspan><tspan class="cls-3" x="136.73" y="0">I</tspan><tspan class="cls-4" x="142.69" y="0">N</tspan><tspan class="cls-9" x="155.73" y="0">E</tspan><tspan x="166.73" y="0">S</tspan></text><text class="cls-54" transform="translate(579.92 600.53)"> </text><text class="cls-54" transform="translate(581.09 600.53)"><tspan class="cls-10">..............................</tspan><tspan x="149.28" y="0">.</tspan></text><path class="cls-59" d="M742.78,592.16a1.34,1.34,0,0,0-1.49-1.07c-1.55,0-1.94,1.6-2,3.07a3,3,0,0,1,2.55-1.09,3.37,3.37,0,0,1,3.47,3.63,3.75,3.75,0,0,1-4.07,4c-3.14,0-4.26-2.27-4.26-5.55,0-2.43.82-5.83,4.37-5.83,2.48,0,3.47,1.46,3.67,2.82Zm.21,4.72c0-1.07-.45-2-1.76-2-1,0-1.74.56-1.74,1.87,0,1.06.51,2.11,1.74,2.11S743,598.12,743,596.88Z"/><text class="cls-54" transform="translate(746.98 600.53)">.</text><path class="cls-59" d="M757.56,600.53v-2.61h-5v-2l4.63-6.45h2.59v6.61h1.33l-.22,1.81h-1.1v2.61Zm0-6.47c0-1.22,0-1.89,0-2.56-.43.93-2.18,3.25-3,4.61h3Zm10.78-1.23a2.75,2.75,0,0,1-2.85,3c-1.7,0-2.83-1-2.83-3a2.77,2.77,0,0,1,2.85-3A2.7,2.7,0,0,1,768.35,592.83Zm-3.91,0c0,1,.38,1.6,1.09,1.6s1.09-.5,1.09-1.6-.45-1.58-1.1-1.58S764.44,591.76,764.44,592.83Zm1,7.7L771.95,590h1.68l-6.48,10.55Zm11-2.85a2.76,2.76,0,0,1-2.85,3.06c-1.71,0-2.83-1.06-2.83-3a2.76,2.76,0,0,1,2.85-3A2.69,2.69,0,0,1,776.45,597.68Zm-3.92,0c0,1,.38,1.62,1.09,1.62s1.1-.51,1.1-1.62-.45-1.57-1.1-1.57S772.52,596.63,772.52,597.68Z"/><text class="cls-60" transform="translate(401.96 624.53)"><tspan class="cls-6">S</tspan><tspan class="cls-61" x="11.17" y="0">P</tspan><tspan class="cls-3" x="22.53" y="0">O</tspan><tspan class="cls-7" x="35.71" y="0">R</tspan><tspan class="cls-3" x="47.49" y="0">TI</tspan><tspan class="cls-25" x="63.79" y="0">N</tspan><tspan class="cls-10" x="76.85" y="0">G </tspan><tspan class="cls-62" x="94.65" y="0">E</tspan><tspan class="cls-4" x="105.54" y="0">Q</tspan><tspan class="cls-58" x="118.75" y="0">U</tspan><tspan class="cls-63" x="131.37" y="0">I</tspan><tspan class="cls-64" x="137.33" y="0">P</tspan><tspan class="cls-5" x="148.49" y="0">M</tspan><tspan class="cls-34" x="163.65" y="0">E</tspan><tspan class="cls-41" x="174.67" y="0">N</tspan><tspan x="187.71" y="0">T</tspan></text><text class="cls-60" transform="translate(600.13 624.53)"> </text><text class="cls-60" transform="translate(601 624.53)"><tspan class="cls-10">..........................</tspan><tspan x="129.37" y="0">.</tspan></text><path class="cls-65" d="M744.25,615.38h-4.56c-.08.8-.21,1.71-.29,2.18a3,3,0,0,1,2-.58,3.4,3.4,0,0,1,3.46,3.68,3.81,3.81,0,0,1-4.16,4.07,3.7,3.7,0,0,1-4-3.17H739a1.7,1.7,0,0,0,1.76,1.34c1.28,0,1.79-.82,1.79-2,0-1-.4-2.06-1.78-2.06A1.63,1.63,0,0,0,739,620l-2.11-.32c.29-1.31.72-4.63.86-6.13h6.77Z"/><text class="cls-60" transform="translate(746.57 624.53)">.</text><path class="cls-65" d="M752.58,624.53v-.14c0-1.82.53-3.39,3.41-5.44,1.49-1.06,1.87-1.33,1.87-2.27a1.31,1.31,0,0,0-1.38-1.49c-1,0-1.42.59-1.58,1.58h-2.35a3.61,3.61,0,0,1,3.94-3.43c2.85,0,3.78,1.76,3.78,3.28,0,1.7-.67,2.42-2.74,3.79-1.41.93-2,1.62-2.21,2.21h5.38l-.3,1.9Zm15.78-7.7a2.75,2.75,0,0,1-2.85,3c-1.7,0-2.83-1-2.83-3a2.77,2.77,0,0,1,2.85-3A2.7,2.7,0,0,1,768.36,616.83Zm-3.91,0c0,1,.38,1.6,1.09,1.6s1.09-.5,1.09-1.6-.45-1.58-1.1-1.58S764.46,615.76,764.46,616.83Zm1,7.7L772,614h1.68l-6.48,10.55Zm11-2.85a2.76,2.76,0,0,1-2.85,3.06c-1.71,0-2.83-1.06-2.83-3a2.76,2.76,0,0,1,2.85-3A2.69,2.69,0,0,1,776.46,621.68Zm-3.92,0c0,1,.38,1.62,1.09,1.62s1.1-.51,1.1-1.62-.45-1.57-1.1-1.57S772.54,620.63,772.54,621.68Z"/><text class="cls-66" transform="translate(401.98 648.53)"><tspan class="cls-67">E</tspan><tspan class="cls-3" x="11.04" y="0">L</tspan><tspan class="cls-26" x="21.36" y="0">E</tspan><tspan class="cls-19" x="32.29" y="0">C</tspan><tspan class="cls-3" x="44.74" y="0">T</tspan><tspan class="cls-58" x="55.09" y="0">R</tspan><tspan class="cls-68" x="66.7" y="0">O</tspan><tspan class="cls-4" x="79.89" y="0">N</tspan><tspan class="cls-3" x="92.93" y="0">I</tspan><tspan class="cls-10" x="98.88" y="0">C </tspan><tspan class="cls-3" x="116.06" y="0">D</tspan><tspan class="cls-69" x="128.78" y="0">E</tspan><tspan class="cls-26" x="139.98" y="0">V</tspan><tspan class="cls-3" x="151.74" y="0">IC</tspan><tspan class="cls-9" x="170.03" y="0">E</tspan><tspan x="181.04" y="0">S</tspan></text><text class="cls-66" transform="translate(594.25 648.53)"> </text><text class="cls-66" transform="translate(596.02 648.53)"><tspan class="cls-10">...........................</tspan><tspan x="134.35" y="0">.</tspan></text><path class="cls-70" d="M741.39,648.53v-2.61h-5v-2l4.63-6.45h2.59v6.61h1.33l-.22,1.81h-1.1v2.61Zm0-6.47c0-1.22,0-1.89,0-2.56-.43.93-2.18,3.25-3,4.61h3Z"/><text class="cls-66" transform="translate(746.34 648.53)">.</text><path class="cls-70" d="M752.14,645.33a2.81,2.81,0,0,1,1.76-2.63,2.46,2.46,0,0,1-1.3-2.29c0-1.73,1.38-3.07,3.83-3.07,2.27,0,3.75,1.26,3.75,3a2.35,2.35,0,0,1-1.33,2.24,2.74,2.74,0,0,1,1.74,2.63c0,2.38-1.82,3.49-4.34,3.49C754,648.73,752.14,647.57,752.14,645.33Zm6.11-.06c0-1.07-.7-1.63-1.89-1.63s-1.87.64-1.87,1.57a1.67,1.67,0,0,0,1.9,1.71C757.53,646.92,758.25,646.34,758.25,645.27Zm-3.46-4.77c0,.75.54,1.3,1.6,1.3s1.57-.48,1.57-1.26-.58-1.41-1.58-1.41S754.79,639.62,754.79,640.5Zm13.57.34a2.75,2.75,0,0,1-2.85,3c-1.7,0-2.83-1-2.83-3a2.77,2.77,0,0,1,2.85-3A2.7,2.7,0,0,1,768.36,640.83Zm-3.91,0c0,1,.38,1.6,1.09,1.6s1.09-.5,1.09-1.6-.45-1.58-1.1-1.58S764.46,639.76,764.46,640.83Zm1,7.7L772,638h1.68l-6.48,10.55Zm11-2.85a2.76,2.76,0,0,1-2.85,3.06c-1.71,0-2.83-1.06-2.83-3a2.76,2.76,0,0,1,2.85-3A2.69,2.69,0,0,1,776.46,645.68Zm-3.92,0c0,1,.38,1.62,1.09,1.62s1.1-.51,1.1-1.62-.45-1.57-1.1-1.57S772.54,644.63,772.54,645.68Z"/><text class="cls-71" transform="translate(401.98 672.53)"><tspan class="cls-3">C</tspan><tspan class="cls-4" x="12.34" y="0">H</tspan><tspan class="cls-3" x="25.14" y="0">ILD</tspan><tspan class="cls-9" x="54.13" y="0">R</tspan><tspan class="cls-72" x="65.84" y="0">EN</tspan><tspan class="cls-73" x="90.11" y="0">’</tspan><tspan class="cls-3" x="95.52" y="0">S</tspan><tspan class="cls-4" x="106.62" y="0"> </tspan><tspan class="cls-74" x="111.45" y="0">T</tspan><tspan class="cls-75" x="121.63" y="0">O</tspan><tspan class="cls-76" x="134.32" y="0">Y</tspan><tspan x="145.01" y="0">S</tspan></text><text class="cls-71" transform="translate(558.18 672.53)"> </text><text class="cls-71" transform="translate(561.21 672.53)"><tspan class="cls-10">..................................</tspan><tspan x="169.18" y="0">.</tspan></text><path class="cls-77" d="M736.87,664.45a3.53,3.53,0,0,1,3.84-3.11c2.51,0,3.71,1.38,3.71,2.93A2.24,2.24,0,0,1,743,666.5v0a2.62,2.62,0,0,1,1.78,2.66c0,1.73-1.09,3.57-4.15,3.54-2.59,0-3.91-1.62-4-3.27h2.27a1.72,1.72,0,0,0,1.84,1.46,1.55,1.55,0,0,0,1.73-1.68c0-1-.42-1.74-1.94-1.74h-.8v-1.76h.75c1.1,0,1.63-.32,1.63-1.25a1.27,1.27,0,0,0-1.44-1.34,1.47,1.47,0,0,0-1.6,1.31Z"/><text class="cls-71" transform="translate(746.58 672.53)">.</text><path class="cls-77" d="M752.6,672.53v-.14c0-1.82.53-3.39,3.41-5.44,1.49-1.06,1.87-1.33,1.87-2.27a1.31,1.31,0,0,0-1.38-1.49c-1,0-1.42.59-1.58,1.58h-2.35a3.61,3.61,0,0,1,3.94-3.43c2.85,0,3.78,1.76,3.78,3.28,0,1.7-.67,2.42-2.74,3.79-1.41.93-2,1.62-2.21,2.21h5.38l-.3,1.9Zm15.78-7.7a2.75,2.75,0,0,1-2.85,3c-1.7,0-2.83-1-2.83-3a2.77,2.77,0,0,1,2.85-3A2.7,2.7,0,0,1,768.38,664.83Zm-3.91,0c0,1,.38,1.6,1.09,1.6s1.09-.5,1.09-1.6-.45-1.58-1.1-1.58S764.47,663.76,764.47,664.83Zm1,7.7L772,662h1.68l-6.48,10.55Zm11-2.85a2.76,2.76,0,0,1-2.85,3.06c-1.71,0-2.83-1.06-2.83-3a2.76,2.76,0,0,1,2.85-3A2.69,2.69,0,0,1,776.48,669.68Zm-3.92,0c0,1,.38,1.62,1.09,1.62s1.1-.51,1.1-1.62-.45-1.57-1.1-1.57S772.56,668.63,772.56,669.68Z"/><text class="cls-78" transform="translate(401.99 696.53)"><tspan class="cls-76">O</tspan><tspan class="cls-4" x="13.02" y="0">TH</tspan><tspan class="cls-34" x="36.19" y="0">E</tspan><tspan x="47.22" y="0">R</tspan></text><text class="cls-78" transform="translate(460.81 696.53)"><tspan class="cls-79"> </tspan><tspan class="cls-10" x="0.91" y="0">......................................................</tspan><tspan x="269.61" y="0">.</tspan></text><path class="cls-80" d="M736.73,688.45a3.53,3.53,0,0,1,3.84-3.11c2.51,0,3.71,1.38,3.71,2.93a2.24,2.24,0,0,1-1.39,2.22v0a2.62,2.62,0,0,1,1.78,2.66c0,1.73-1.09,3.57-4.15,3.54-2.59,0-3.91-1.62-4-3.27h2.27a1.72,1.72,0,0,0,1.84,1.46,1.55,1.55,0,0,0,1.73-1.68c0-1-.42-1.74-1.94-1.74h-.8v-1.76h.75c1.1,0,1.63-.32,1.63-1.25a1.27,1.27,0,0,0-1.44-1.34,1.47,1.47,0,0,0-1.6,1.31Z"/><text class="cls-78" transform="translate(746.44 696.53)">.</text><path class="cls-80" d="M760.44,690.95c0,2.83-1,5.78-4.24,5.78S752,694,752,691c0-2.77,1.12-5.67,4.29-5.67S760.44,688,760.44,690.95Zm-6.08,0c0,2.21.4,3.86,1.86,3.86S758,693.14,758,691s-.37-3.78-1.78-3.78S754.36,688.61,754.36,691Zm14-2.16a2.75,2.75,0,0,1-2.85,3c-1.7,0-2.83-1-2.83-3a2.77,2.77,0,0,1,2.85-3A2.7,2.7,0,0,1,768.41,688.83Zm-3.91,0c0,1,.38,1.6,1.09,1.6s1.09-.5,1.09-1.6-.45-1.58-1.1-1.58S764.5,687.76,764.5,688.83Zm1,7.7L772,686h1.68l-6.48,10.55Zm11-2.85a2.76,2.76,0,0,1-2.85,3.06c-1.71,0-2.83-1.06-2.83-3a2.76,2.76,0,0,1,2.85-3A2.69,2.69,0,0,1,776.51,693.68Zm-3.92,0c0,1,.38,1.62,1.09,1.62s1.1-.51,1.1-1.62-.45-1.57-1.1-1.57S772.58,692.63,772.58,693.68Z"/><text class="cls-81" transform="translate(402.01 720.53)">M<tspan class="cls-82" x="15.14" y="0">A</tspan><tspan class="cls-3" x="27.5" y="0">JO</tspan><tspan x="48.08" y="0">R A</tspan><tspan class="cls-64" x="76.43" y="0">PP</tspan><tspan x="98.77" y="0">L</tspan><tspan class="cls-13" x="109.1" y="0">I</tspan><tspan class="cls-10" x="115.04" y="0">A</tspan><tspan class="cls-25" x="127.01" y="0">N</tspan><tspan class="cls-63" x="140.06" y="0">C</tspan><tspan class="cls-9" x="152.4" y="0">E</tspan><tspan class="cls-28" x="163.41" y="0">S</tspan></text><text class="cls-83" transform="translate(576.59 720.53)"> </text><text class="cls-83" transform="translate(581.15 720.53)"><tspan class="cls-10">..............................</tspan><tspan x="149.28" y="0">.</tspan></text><path class="cls-84" d="M736.74,720.53v-.14c0-1.82.53-3.39,3.41-5.44,1.49-1.06,1.87-1.33,1.87-2.27a1.31,1.31,0,0,0-1.38-1.49c-1,0-1.42.59-1.58,1.58h-2.35a3.61,3.61,0,0,1,3.94-3.43c2.85,0,3.78,1.76,3.78,3.28,0,1.7-.67,2.42-2.74,3.79-1.41.93-2,1.62-2.21,2.21h5.38l-.3,1.9Z"/><text class="cls-83" transform="translate(746.71 720.53)">.</text><path class="cls-84" d="M758.07,712.16a1.34,1.34,0,0,0-1.49-1.07c-1.55,0-1.94,1.6-2,3.07a3,3,0,0,1,2.55-1.09,3.37,3.37,0,0,1,3.47,3.63,3.75,3.75,0,0,1-4.07,4c-3.14,0-4.26-2.27-4.26-5.55,0-2.43.82-5.83,4.37-5.83,2.48,0,3.47,1.46,3.67,2.82Zm.21,4.72c0-1.07-.45-2-1.76-2-1,0-1.74.56-1.74,1.87,0,1.06.51,2.11,1.74,2.11S758.28,718.12,758.28,716.88Zm10.13-4a2.75,2.75,0,0,1-2.85,3c-1.7,0-2.83-1-2.83-3a2.77,2.77,0,0,1,2.85-3A2.7,2.7,0,0,1,768.41,712.83Zm-3.91,0c0,1,.38,1.6,1.09,1.6s1.09-.5,1.09-1.6-.45-1.58-1.1-1.58S764.51,711.76,764.51,712.83Zm1,7.7L772,710h1.68l-6.48,10.55Zm11-2.85a2.76,2.76,0,0,1-2.85,3.06c-1.71,0-2.83-1.06-2.83-3a2.76,2.76,0,0,1,2.85-3A2.69,2.69,0,0,1,776.51,717.68Zm-3.92,0c0,1,.38,1.62,1.09,1.62s1.1-.51,1.1-1.62-.45-1.57-1.1-1.57S772.59,716.63,772.59,717.68Z"/><line class="cls-85" x1="122.17" y1="60.78" x2="480.58" y2="13.59"/><path class="cls-86" d="M271.42,28.64l-1.08-8.19a7,7,0,0,1-2,.65l-.22-1.65a5.54,5.54,0,0,0,2.58-1.84l1.65-.22,1.44,10.93Zm13-7.35c.37,2.81-.21,5.86-3.45,6.28s-4.54-2.13-4.94-5.11c-.36-2.75.37-5.76,3.51-6.18S284,18.4,284.41,21.29Zm-6,.84c.29,2.19.9,3.77,2.34,3.58s1.59-1.94,1.3-4.09-.86-3.7-2.25-3.51S278.08,19.77,278.39,22.13Zm8.4-2.57-.61-3.16L286,14.93l2.25-.3.19,1.48.21,3.2Zm16.41,4.89-2.84-3.55h0l-1.89,4.17-2.55.34,2.91-6-4.24-5,2.75-.36L300,17.43h0l1.81-3.92,2.51-.33-2.84,5.67,4.45,5.24ZM314.14,23l-1.08-8.19a7,7,0,0,1-2,.65l-.22-1.65A5.54,5.54,0,0,0,313.43,12l1.65-.22,1.44,10.93Zm13-7.35c.37,2.81-.21,5.86-3.45,6.28s-4.54-2.13-4.94-5.11c-.36-2.75.37-5.76,3.51-6.18S326.76,12.78,327.14,15.66Zm-6,.84c.29,2.19.9,3.77,2.34,3.58s1.59-1.94,1.3-4.09-.86-3.7-2.25-3.51S320.8,14.14,321.11,16.51ZM329.27,14a21.75,21.75,0,0,0,.13-4.81l2.4-.32a13.55,13.55,0,0,1-.7,4.89Z"/><g class="cls-87"><g class="cls-88"><path class="cls-89" d="M236.78,357l-114-62a1.21,1.21,0,0,1-.71-1.06l114,62a1.21,1.21,0,0,0,.71,1.06"/></g></g><g class="cls-90"><path class="cls-91" d="M663.2,500.64v6.74c0,1.5-1.87,3-4.17,3.3L309.52,559.8c-2.29.32-4.16-.62-4.16-2.13v-6.74Z"/></g><polygon class="cls-89" points="305.37 557.67 122.1 457.98 122.11 451.24 305.38 550.93 305.37 557.67"/><polygon class="cls-92" points="305.38 550.93 122.12 451.24 479.93 400.95 663.2 500.64 305.38 550.93"/><polygon class="cls-93" points="305.38 550.93 122.12 451.24 122.14 439.08 305.4 538.78 305.38 550.93"/><polygon class="cls-94" points="305.4 538.78 122.14 439.08 479.95 388.8 663.22 488.49 305.4 538.78"/><polygon class="cls-95" points="663.22 488.49 663.2 500.64 305.38 550.93 305.4 538.78 663.22 488.49"/><polygon class="cls-96" points="663.24 476.33 663.22 488.49 305.4 538.78 305.43 526.62 663.24 476.33"/><polygon class="cls-97" points="305.4 538.78 122.14 439.08 122.16 426.92 305.43 526.61 305.4 538.78"/><polygon class="cls-98" points="305.43 526.61 122.16 426.92 479.98 376.63 663.24 476.33 305.43 526.61"/><polygon class="cls-99" points="663.27 458.78 663.24 476.33 305.43 526.62 305.46 509.07 663.27 458.78"/><polygon class="cls-100" points="305.43 526.61 122.16 426.92 122.19 409.37 305.46 509.07 305.43 526.61"/><polygon class="cls-101" points="305.46 509.07 122.19 409.37 480.01 359.09 663.27 458.78 305.46 509.07"/><polygon class="cls-102" points="663.31 438.52 663.27 458.78 305.46 509.07 305.5 488.81 663.31 438.52"/><polygon class="cls-103" points="305.46 509.07 122.19 409.37 122.23 389.12 305.5 488.81 305.46 509.07"/><polygon class="cls-104" points="305.5 488.81 122.23 389.12 480.05 338.83 663.31 438.52 305.5 488.81"/><polygon class="cls-105" points="663.36 412.87 663.31 438.52 305.5 488.81 305.54 463.16 663.36 412.87"/><polygon class="cls-106" points="305.5 488.81 122.23 389.12 122.28 363.47 305.54 463.16 305.5 488.81"/><polygon class="cls-107" points="305.54 463.16 122.28 363.47 480.1 313.18 663.36 412.87 305.54 463.16"/><polygon class="cls-108" points="663.41 384.51 663.36 412.87 305.54 463.16 305.6 434.8 663.41 384.51"/><polygon class="cls-109" points="305.54 463.16 122.28 363.47 122.33 335.1 305.6 434.8 305.54 463.16"/><polygon class="cls-110" points="305.6 434.8 122.33 335.1 480.15 284.82 663.41 384.51 305.6 434.8"/><polygon class="cls-111" points="663.47 352.1 663.41 384.51 305.6 434.8 305.66 402.39 663.47 352.1"/><polygon class="cls-112" points="305.6 434.8 122.33 335.1 122.39 302.69 305.66 402.39 305.6 434.8"/><polygon class="cls-113" points="305.66 402.39 122.39 302.7 480.21 252.41 663.47 352.1 305.66 402.39"/><polygon class="cls-114" points="663.55 307.54 663.47 352.1 305.66 402.39 305.74 357.83 663.55 307.54"/><polygon class="cls-115" points="305.66 402.39 122.39 302.7 122.47 258.14 305.74 357.83 305.66 402.39"/><polygon class="cls-116" points="305.74 357.83 122.47 258.14 480.29 207.85 663.55 307.54 305.74 357.83"/><polygon class="cls-117" points="663.64 260.27 663.55 307.54 305.74 357.83 305.83 310.56 663.64 260.27"/><polygon class="cls-118" points="305.74 357.83 122.47 258.14 122.56 210.87 305.83 310.56 305.74 357.83"/><polygon class="cls-119" points="305.83 310.56 122.56 210.87 480.38 160.58 663.64 260.27 305.83 310.56"/><polygon class="cls-120" points="663.74 208.97 663.64 260.27 305.83 310.56 305.92 259.26 663.74 208.97"/><polygon class="cls-121" points="305.83 310.56 122.56 210.87 122.66 159.56 305.92 259.26 305.83 310.56"/><polygon class="cls-122" points="305.92 259.26 122.66 159.56 480.47 109.28 663.74 208.97 305.92 259.26"/><polygon class="cls-123" points="663.9 123.9 663.74 208.97 305.92 259.26 306.08 174.18 663.9 123.9"/><polygon class="cls-124" points="305.92 259.26 122.66 159.56 122.81 74.49 306.08 174.18 305.92 259.26"/><polygon class="cls-125" points="306.08 174.18 122.82 74.49 480.63 24.2 663.9 123.9 306.08 174.18"/><rect class="cls-86" x="563" y="4.75" width="192" height="76.7"/><polyline class="cls-86" points="653.67 33.44 578.67 33.44 578.67 108.44"/><text class="cls-126" transform="translate(575 29.24)"><tspan class="cls-24">T</tspan><tspan class="cls-127" x="10.54" y="0">h</tspan><tspan class="cls-128" x="21.05" y="0">e </tspan><tspan class="cls-129" x="36.28" y="0">a</tspan><tspan class="cls-130" x="45.88" y="0">v</tspan><tspan class="cls-131" x="54.79" y="0">e</tspan><tspan class="cls-132" x="64.6" y="0">ra</tspan><tspan class="cls-127" x="81.24" y="0">g</tspan><tspan class="cls-133" x="91.76" y="0">e</tspan><tspan class="cls-128" x="101.66" y="0"> </tspan><tspan class="cls-134" x="106.98" y="0">s</tspan><tspan class="cls-135" x="115.99" y="0">el</tspan><tspan class="cls-136" x="130.75" y="0">f</tspan><tspan x="136.2" y="0">-</tspan></text><text class="cls-126" transform="translate(575 50.23)"><tspan class="cls-137">s</tspan><tspan class="cls-138" x="9.09" y="0">t</tspan><tspan class="cls-139" x="15.27" y="0">o</tspan><tspan class="cls-132" x="25.5" y="0">ra</tspan><tspan class="cls-139" x="42.14" y="0">g</tspan><tspan class="cls-140" x="52.67" y="0">e</tspan><tspan class="cls-128" x="62.56" y="0"> </tspan><tspan class="cls-141" x="67.88" y="0">un</tspan><tspan class="cls-142" x="88.53" y="0">i</tspan><tspan class="cls-128" x="93.48" y="0">t </tspan><tspan class="cls-143" x="105.25" y="0">i</tspan><tspan class="cls-144" x="110.14" y="0">s </tspan><tspan class="cls-145" x="124.52" y="0">f</tspan><tspan class="cls-146" x="130.44" y="0">il</tspan><tspan class="cls-147" x="140.03" y="0">l</tspan><tspan class="cls-148" x="144.96" y="0">e</tspan><tspan x="154.88" y="0">d </tspan></text><text class="cls-126" transform="translate(575 71.23)"><tspan class="cls-149">w</tspan><tspan class="cls-135" x="13.85" y="0">i</tspan><tspan class="cls-149" x="18.8" y="0">t</tspan><tspan class="cls-128" x="25.04" y="0">h </tspan><tspan class="cls-150" x="41" y="0">h</tspan><tspan class="cls-127" x="51.48" y="0">om</tspan><tspan class="cls-133" x="76.98" y="0">e</tspan><tspan class="cls-128" x="86.87" y="0"> </tspan><tspan class="cls-137" x="92.19" y="0">s</tspan><tspan class="cls-132" x="101.28" y="0">t</tspan><tspan class="cls-151" x="107.54" y="0">u</tspan><tspan class="cls-152" x="117.94" y="0">ff</tspan><tspan x="128.18" y="0">. </tspan></text></svg>