<svg id="boomers" xmlns="http://www.w3.org/2000/svg" xmlns:xlink="http://www.w3.org/1999/xlink" viewBox="0 0 798.69 725.76">
  <defs>
    <style>
      .cls-1 {
        fill: none;
      }

      .cls-2 {
        clip-path: url(#clip-path);
      }

      .cls-3 {
        fill: #055ef2;
      }

      .cls-4 {
        fill: #0563fc;
      }

      .cls-5 {
        fill: #0561f7;
      }

      .cls-6 {
        fill: #9c03d4;
      }

      .cls-7 {
        fill: #9403cc;
      }

      .cls-8 {
        fill: #9903d1;
      }

      .cls-9 {
        fill: #a8a8a8;
      }

      .cls-10 {
        fill: #a3a3a3;
      }

      .cls-11 {
        fill: #a6a6a6;
      }

      .cls-12 {
        fill: #29ccf2;
      }

      .cls-13 {
        fill: #26c4e8;
      }

      .cls-14 {
        fill: #29c9ed;
      }

      .cls-15 {
        fill: #12de7d;
      }

      .cls-16 {
        fill: #12d678;
      }

      .cls-17 {
        fill: #12db7a;
      }

      .cls-18 {
        fill: #e86b21;
      }

      .cls-19 {
        fill: #e0691f;
      }

      .cls-20 {
        fill: #e56b1f;
      }

      .cls-21 {
        fill: #e54524;
      }

      .cls-22 {
        fill: #de4221;
      }

      .cls-23 {
        fill: #e34224;
      }

      .cls-24 {
        fill: #c933b2;
      }

      .cls-25 {
        fill: #c230ab;
      }

      .cls-26 {
        fill: #c733b0;
      }

      .cls-27 {
        fill: #e85e91;
      }

      .cls-28 {
        fill: #de598c;
      }

      .cls-29 {
        fill: #e35c8f;
      }

      .cls-30 {
        fill: #f78573;
      }

      .cls-31 {
        fill: #ed8070;
      }

      .cls-32 {
        fill: #f28273;
      }

      .cls-33 {
        fill: #fcb04d;
      }

      .cls-34 {
        fill: #f2a84a;
      }

      .cls-35 {
        fill: #f7ab4d;
      }

      .cls-36 {
        fill: #fcd400;
      }

      .cls-37 {
        fill: #f2cc00;
      }

      .cls-38 {
        fill: #f7d100;
      }

      .cls-39 {
        fill: #ffd600;
      }

      .cls-40 {
        fill: #ffb04e;
      }

      .cls-41 {
        fill: #f98675;
      }

      .cls-42 {
        fill: #e95f93;
      }

      .cls-43 {
        fill: #cc34b4;
      }

      .cls-44 {
        fill: #e84524;
      }

      .cls-45 {
        fill: #eb6d20;
      }

      .cls-46 {
        fill: #12e17e;
      }

      .cls-47 {
        fill: #29cef4;
      }

      .cls-48 {
        fill: #a9a9a9;
      }

      .cls-49 {
        fill: #9c02d6;
      }

      .cls-50 {
        fill: #0664ff;
      }

      .cls-51 {
        fill: #fff;
      }

      .cls-52 {
        fill: #231f20;
      }
    </style>
    <clipPath id="clip-path">
      <path class="cls-1" d="M131.41,466.22l186,101.2a2.41,2.41,0,0,1-1.41-2.12L130,464.11a2.41,2.41,0,0,0,1.41,2.11"/>
    </clipPath>
  </defs>
  <title>storage_contents_boomers</title>
  <g class="cls-2">
    <path class="cls-3" d="M244.83,365.13l-114-62a1.48,1.48,0,0,1-.86-1.3l114,62a1.48,1.48,0,0,0,.86,1.29"/>
  </g>
  <path class="cls-4" d="M679.29,506l0,8.27c0,1.83-2.23,3.63-5,4L321,567.93c-2.75.39-5-.78-5-2.62l0-8.27Z"/>
  <polygon class="cls-3" points="130 464.11 316.04 565.31 316.06 557.04 130.01 455.83 130 464.11"/>
  <polygon class="cls-5" points="130.01 455.83 316.06 557.04 679.29 505.99 493.25 404.79 130.01 455.83"/>
  <polygon class="cls-6" points="316.08 543.81 316.06 557.04 679.29 505.99 679.32 492.76 316.08 543.81"/>
  <polygon class="cls-7" points="130.01 455.83 316.06 557.04 316.08 543.82 130.04 442.61 130.01 455.83"/>
  <polygon class="cls-8" points="130.04 442.61 316.08 543.81 679.32 492.76 493.28 391.56 130.04 442.61"/>
  <polygon class="cls-9" points="316.09 537.2 316.08 543.82 679.32 492.76 679.33 486.15 316.09 537.2"/>
  <polygon class="cls-10" points="130.04 442.61 316.08 543.81 316.09 537.2 130.05 435.99 130.04 442.61"/>
  <polygon class="cls-11" points="130.05 435.99 316.09 537.2 679.33 486.15 493.29 384.94 130.05 435.99"/>
  <polygon class="cls-12" points="316.13 519 316.09 537.2 679.33 486.15 679.36 467.95 316.13 519"/>
  <polygon class="cls-13" points="130.05 435.99 316.09 537.2 316.13 519 130.09 417.8 130.05 435.99"/>
  <polygon class="cls-14" points="130.09 417.8 316.13 519 679.36 467.95 493.32 366.75 130.09 417.8"/>
  <polygon class="cls-15" points="316.17 497.49 316.13 519 679.36 467.95 679.4 446.44 316.17 497.49"/>
  <polygon class="cls-16" points="130.09 417.8 316.13 519 316.17 497.49 130.13 396.29 130.09 417.8"/>
  <polygon class="cls-17" points="130.13 396.29 316.17 497.49 679.4 446.44 493.36 345.24 130.13 396.29"/>
  <polygon class="cls-18" points="316.21 474.33 316.17 497.49 679.4 446.44 679.45 423.28 316.21 474.33"/>
  <polygon class="cls-19" points="130.13 396.29 316.17 497.49 316.21 474.33 130.17 373.13 130.13 396.29"/>
  <polygon class="cls-20" points="130.17 373.13 316.21 474.33 679.45 423.28 493.4 322.08 130.17 373.13"/>
  <polygon class="cls-21" points="316.27 441.25 316.21 474.33 679.45 423.28 679.51 390.2 316.27 441.25"/>
  <polygon class="cls-22" points="130.17 373.13 316.21 474.33 316.27 441.25 130.23 340.05 130.17 373.13"/>
  <polygon class="cls-23" points="130.23 340.05 316.27 441.25 679.51 390.2 493.47 289 130.23 340.05"/>
  <polygon class="cls-24" points="316.33 409.82 316.27 441.25 679.51 390.2 679.57 358.77 316.33 409.82"/>
  <polygon class="cls-25" points="130.23 340.05 316.27 441.25 316.33 409.82 130.29 308.61 130.23 340.05"/>
  <polygon class="cls-26" points="130.29 308.61 316.33 409.82 679.57 358.77 493.52 257.56 130.29 308.61"/>
  <polygon class="cls-27" points="316.42 363.5 316.33 409.82 679.57 358.77 679.65 312.45 316.42 363.5"/>
  <polygon class="cls-28" points="130.29 308.61 316.33 409.82 316.42 363.5 130.38 262.29 130.29 308.61"/>
  <polygon class="cls-29" points="130.37 262.29 316.42 363.5 679.65 312.45 493.61 211.24 130.37 262.29"/>
  <polygon class="cls-30" points="316.5 317.18 316.42 363.5 679.65 312.45 679.74 266.13 316.5 317.18"/>
  <polygon class="cls-31" points="130.37 262.29 316.42 363.5 316.5 317.18 130.46 215.97 130.37 262.29"/>
  <polygon class="cls-32" points="130.46 215.97 316.5 317.18 679.74 266.13 493.7 164.92 130.46 215.97"/>
  <polygon class="cls-33" points="316.6 262.6 316.5 317.18 679.74 266.13 679.84 211.55 316.6 262.6"/>
  <polygon class="cls-34" points="130.46 215.97 316.5 317.18 316.6 262.6 130.56 161.39 130.46 215.97"/>
  <polygon class="cls-35" points="130.56 161.39 316.6 262.6 679.84 211.55 493.8 110.34 130.56 161.39"/>
  <polygon class="cls-36" points="316.76 176.57 316.6 262.6 679.84 211.55 680 125.53 316.76 176.57"/>
  <polygon class="cls-37" points="130.56 161.39 316.6 262.6 316.76 176.57 130.72 75.37 130.56 161.39"/>
  <polygon class="cls-38" points="493.96 24.32 130.72 75.37 316.76 176.57 680 125.53 493.96 24.32"/>
  <g>
    <path class="cls-39" d="M10.31,589.92H12.7v4.29h4.45v-4.29h2.38v11H17.15v-4.77H12.7v4.77H10.31Z"/>
    <path class="cls-39" d="M33.26,595.39c0,3.07-1.84,5.71-5.43,5.71s-5.28-2.51-5.28-5.68,2-5.67,5.43-5.67C31.21,589.76,33.26,592,33.26,595.39Zm-8.24,0c0,2.16.94,3.79,2.9,3.79,2.13,0,2.88-1.78,2.88-3.75s-.86-3.73-2.91-3.73S25,593.23,25,595.37Z"/>
    <path class="cls-39" d="M38.54,589.92v6.56c0,2.13,1.09,2.75,2.29,2.75,1.36,0,2.21-.74,2.21-2.75v-6.56h2.4v6.45c0,3.78-2.21,4.74-4.64,4.74s-4.64-1-4.64-4.69v-6.5Z"/>
    <path class="cls-39" d="M50.49,597.71a2.05,2.05,0,0,0,2.32,1.6c1.28,0,1.82-.51,1.82-1.31s-.53-1.3-2.42-1.73c-3-.7-3.75-1.81-3.75-3.3,0-1.92,1.44-3.22,4-3.22,2.93,0,4.1,1.57,4.26,3.19h-2.4c-.13-.69-.5-1.42-1.92-1.42-1,0-1.55.4-1.55,1.18s.46,1.09,2.26,1.49c3.2.77,3.91,2,3.91,3.52,0,2-1.52,3.39-4.43,3.39s-4.29-1.38-4.55-3.39Z"/>
    <path class="cls-39" d="M67.64,596.19H62.36V599h5.83l-.29,2H60v-11h7.83v2H62.36v2.35h5.28Z"/>
    <path class="cls-39" d="M72.89,600.94l-2.82-11h2.54c1,5.06,1.5,7.31,1.63,8.53h0c.42-2,1.49-5.87,2.13-8.53h2.15c.58,2.11,1.68,6.39,2,8.42h0c.37-2.43,1.44-6.71,1.84-8.42h2.31l-3,11H79.29c-.58-2.45-1.55-6-1.94-7.91h0c-.4,2-1.39,5.68-2,7.91Z"/>
    <path class="cls-39" d="M88.84,598.4,88,600.94H85.64l3.75-11h3l3.92,11H93.79l-.91-2.54Zm3.52-2c-.78-2.34-1.28-3.83-1.55-4.82h0c-.27,1.09-.82,2.82-1.44,4.82Z"/>
    <path class="cls-39" d="M101.08,596.53v4.42H98.74v-11h4.85c2.4,0,3.7,1.31,3.7,3a2.65,2.65,0,0,1-1.6,2.61c.54.21,1.38.77,1.38,2.75v.54a8.33,8.33,0,0,0,.16,2.1H105a7.9,7.9,0,0,1-.22-2.48v-.16c0-1.2-.3-1.78-2.08-1.78Zm0-1.9h2c1.3,0,1.81-.5,1.81-1.41s-.59-1.41-1.76-1.41h-2Z"/>
    <path class="cls-39" d="M118.06,596.19h-5.28V599h5.83l-.29,2h-7.86v-11h7.83v2h-5.51v2.35h5.28Z"/>
  </g>
  <g>
    <path class="cls-39" d="M124.23,600.94v-2.82h2.45v2.82Z"/>
    <path class="cls-39" d="M129.2,600.94v-2.82h2.45v2.82Z"/>
    <path class="cls-39" d="M134.18,600.94v-2.82h2.45v2.82Z"/>
    <path class="cls-39" d="M139.15,600.94v-2.82h2.45v2.82Z"/>
    <path class="cls-39" d="M144.13,600.94v-2.82h2.45v2.82Z"/>
    <path class="cls-39" d="M149.11,600.94v-2.82h2.45v2.82Z"/>
    <path class="cls-39" d="M154.08,600.94v-2.82h2.45v2.82Z"/>
    <path class="cls-39" d="M159.06,600.94v-2.82h2.45v2.82Z"/>
    <path class="cls-39" d="M164,600.94v-2.82h2.45v2.82Z"/>
    <path class="cls-39" d="M169,600.94v-2.82h2.45v2.82Z"/>
    <path class="cls-39" d="M174,600.94v-2.82h2.45v2.82Z"/>
    <path class="cls-39" d="M179,600.94v-2.82h2.45v2.82Z"/>
    <path class="cls-39" d="M183.94,600.94v-2.82h2.45v2.82Z"/>
    <path class="cls-39" d="M188.91,600.94v-2.82h2.45v2.82Z"/>
    <path class="cls-39" d="M193.89,600.94v-2.82h2.45v2.82Z"/>
    <path class="cls-39" d="M198.86,600.94v-2.82h2.45v2.82Z"/>
    <path class="cls-39" d="M203.84,600.94v-2.82h2.45v2.82Z"/>
    <path class="cls-39" d="M208.82,600.94v-2.82h2.45v2.82Z"/>
    <path class="cls-39" d="M213.79,600.94v-2.82h2.45v2.82Z"/>
    <path class="cls-39" d="M218.77,600.94v-2.82h2.45v2.82Z"/>
    <path class="cls-39" d="M223.74,600.94v-2.82h2.45v2.82Z"/>
    <path class="cls-39" d="M228.72,600.94v-2.82h2.45v2.82Z"/>
    <path class="cls-39" d="M233.7,600.94v-2.82h2.45v2.82Z"/>
    <path class="cls-39" d="M238.67,600.94v-2.82h2.45v2.82Z"/>
    <path class="cls-39" d="M243.65,600.94v-2.82h2.45v2.82Z"/>
    <path class="cls-39" d="M248.62,600.94v-2.82h2.45v2.82Z"/>
    <path class="cls-39" d="M253.6,600.94v-2.82H256v2.82Z"/>
    <path class="cls-39" d="M258.58,600.94v-2.82H261v2.82Z"/>
    <path class="cls-39" d="M263.55,600.94v-2.82H266v2.82Z"/>
    <path class="cls-39" d="M268.53,600.94v-2.82H271v2.82Z"/>
    <path class="cls-39" d="M273.5,600.94v-2.82H276v2.82Z"/>
    <path class="cls-39" d="M278.48,600.94v-2.82h2.45v2.82Z"/>
    <path class="cls-39" d="M283.45,600.94v-2.82h2.45v2.82Z"/>
    <path class="cls-39" d="M288.43,600.94v-2.82h2.45v2.82Z"/>
    <path class="cls-39" d="M293.41,600.94v-2.82h2.45v2.82Z"/>
    <path class="cls-39" d="M298.38,600.94v-2.82h2.45v2.82Z"/>
    <path class="cls-39" d="M303.36,600.94v-2.82h2.45v2.82Z"/>
    <path class="cls-39" d="M308.33,600.94v-2.82h2.45v2.82Z"/>
    <path class="cls-39" d="M313.31,600.94v-2.82h2.45v2.82Z"/>
    <path class="cls-39" d="M318.29,600.94v-2.82h2.45v2.82Z"/>
    <path class="cls-39" d="M323.26,600.94v-2.82h2.45v2.82Z"/>
    <path class="cls-39" d="M328.24,600.94v-2.82h2.45v2.82Z"/>
  </g>
  <path class="cls-39" d="M336.5,600.94v-.14c0-1.82.53-3.39,3.41-5.44,1.49-1.06,1.87-1.33,1.87-2.27a1.31,1.31,0,0,0-1.38-1.49c-1,0-1.42.59-1.58,1.58h-2.35a3.61,3.61,0,0,1,3.94-3.43c2.85,0,3.78,1.76,3.78,3.28,0,1.7-.67,2.42-2.74,3.79-1.41.93-2,1.62-2.21,2.21h5.38l-.3,1.9Zm12.18,0v-8.26a7,7,0,0,1-2.06.38V591.4a5.54,5.54,0,0,0,2.8-1.49h1.66v11Z"/>
  <path class="cls-39" d="M354.27,600.94v-2.82h2.45v2.82Z"/>
  <path class="cls-39" d="M361.65,598.3a1.43,1.43,0,0,0,1.52,1.06c1.5,0,1.84-1.58,1.9-3.2a2.93,2.93,0,0,1-2.34.88,3.32,3.32,0,0,1-3.57-3.52,3.72,3.72,0,0,1,4-3.76c3,0,4.23,2.14,4.23,5.15,0,2.85-.69,6.23-4.35,6.23-2.32,0-3.46-1.28-3.68-2.83Zm-.14-4.9a1.68,1.68,0,0,0,1.74,1.9c1.07,0,1.66-.53,1.66-1.82,0-.94-.27-2-1.68-2A1.69,1.69,0,0,0,361.51,593.41Zm13.89-.16a2.75,2.75,0,0,1-2.85,3c-1.7,0-2.83-1-2.83-3a2.77,2.77,0,0,1,2.85-3A2.7,2.7,0,0,1,375.4,593.25Zm-3.91,0c0,1,.38,1.6,1.09,1.6s1.09-.5,1.09-1.6-.45-1.58-1.1-1.58S371.49,592.17,371.49,593.25Zm1,7.7L379,590.4h1.68l-6.48,10.55Zm11-2.85a2.76,2.76,0,0,1-2.85,3.06c-1.71,0-2.83-1.06-2.83-3a2.76,2.76,0,0,1,2.85-3A2.69,2.69,0,0,1,383.5,598.1Zm-3.92,0c0,1,.38,1.62,1.09,1.62s1.1-.51,1.1-1.62-.45-1.57-1.1-1.57S379.58,597,379.58,598.1Z"/>
  <g>
    <path class="cls-40" d="M10.31,613.92H18v2H12.65v2.71h5v2h-5v4.42H10.31Z"/>
    <path class="cls-40" d="M23,613.92v6.56c0,2.13,1.09,2.75,2.29,2.75,1.36,0,2.21-.74,2.21-2.75v-6.56h2.4v6.45c0,3.78-2.21,4.74-4.64,4.74s-4.64-1-4.64-4.69v-6.5Z"/>
    <path class="cls-40" d="M35.71,620.53v4.42H33.37v-11h4.85c2.4,0,3.7,1.31,3.7,3a2.65,2.65,0,0,1-1.6,2.61c.54.21,1.38.77,1.38,2.75v.54a8.33,8.33,0,0,0,.16,2.1H39.58a7.9,7.9,0,0,1-.22-2.48v-.16c0-1.2-.3-1.78-2.08-1.78Zm0-1.9h2c1.3,0,1.81-.5,1.81-1.41s-.59-1.41-1.76-1.41h-2Z"/>
    <path class="cls-40" d="M45.08,624.94v-11h3c1.38,2.46,3.92,6.95,4.43,8.15h0c-.13-1.15-.13-3.07-.13-4.88v-3.27h2.16v11h-2.8c-1.18-2.16-4-7.28-4.56-8.56h0c.08,1,.11,3.23.11,5.2v3.36Z"/>
    <path class="cls-40" d="M60.5,613.92v11H58.12v-11Z"/>
    <path class="cls-40" d="M66.26,615.87H62.9v-2H72v2H68.65v9.08H66.26Z"/>
    <path class="cls-40" d="M76.73,613.92v6.56c0,2.13,1.09,2.75,2.29,2.75,1.36,0,2.21-.74,2.21-2.75v-6.56h2.4v6.45c0,3.78-2.21,4.74-4.64,4.74s-4.64-1-4.64-4.69v-6.5Z"/>
    <path class="cls-40" d="M89.45,620.53v4.42H87.11v-11H92c2.4,0,3.7,1.31,3.7,3a2.65,2.65,0,0,1-1.6,2.61c.54.21,1.38.77,1.38,2.75v.54a8.33,8.33,0,0,0,.16,2.1H93.32a7.9,7.9,0,0,1-.22-2.48v-.16c0-1.2-.3-1.78-2.08-1.78Zm0-1.9h2c1.3,0,1.81-.5,1.81-1.41s-.59-1.41-1.76-1.41h-2Z"/>
    <path class="cls-40" d="M106.43,620.19h-5.28V623H107l-.29,2H98.82v-11h7.83v2h-5.51v2.35h5.28Z"/>
  </g>
  <g>
    <path class="cls-40" d="M109.31,624.94v-2.82h2.45v2.82Z"/>
    <path class="cls-40" d="M114.29,624.94v-2.82h2.45v2.82Z"/>
    <path class="cls-40" d="M119.26,624.94v-2.82h2.45v2.82Z"/>
    <path class="cls-40" d="M124.24,624.94v-2.82h2.45v2.82Z"/>
    <path class="cls-40" d="M129.21,624.94v-2.82h2.45v2.82Z"/>
    <path class="cls-40" d="M134.19,624.94v-2.82h2.45v2.82Z"/>
    <path class="cls-40" d="M139.16,624.94v-2.82h2.45v2.82Z"/>
    <path class="cls-40" d="M144.14,624.94v-2.82h2.45v2.82Z"/>
    <path class="cls-40" d="M149.12,624.94v-2.82h2.45v2.82Z"/>
    <path class="cls-40" d="M154.09,624.94v-2.82h2.45v2.82Z"/>
    <path class="cls-40" d="M159.07,624.94v-2.82h2.45v2.82Z"/>
    <path class="cls-40" d="M164,624.94v-2.82h2.45v2.82Z"/>
    <path class="cls-40" d="M169,624.94v-2.82h2.45v2.82Z"/>
    <path class="cls-40" d="M174,624.94v-2.82h2.45v2.82Z"/>
    <path class="cls-40" d="M179,624.94v-2.82h2.45v2.82Z"/>
    <path class="cls-40" d="M183.95,624.94v-2.82h2.45v2.82Z"/>
    <path class="cls-40" d="M188.92,624.94v-2.82h2.45v2.82Z"/>
    <path class="cls-40" d="M193.9,624.94v-2.82h2.45v2.82Z"/>
    <path class="cls-40" d="M198.88,624.94v-2.82h2.45v2.82Z"/>
    <path class="cls-40" d="M203.85,624.94v-2.82h2.45v2.82Z"/>
    <path class="cls-40" d="M208.83,624.94v-2.82h2.45v2.82Z"/>
    <path class="cls-40" d="M213.8,624.94v-2.82h2.45v2.82Z"/>
    <path class="cls-40" d="M218.78,624.94v-2.82h2.45v2.82Z"/>
    <path class="cls-40" d="M223.75,624.94v-2.82h2.45v2.82Z"/>
    <path class="cls-40" d="M228.73,624.94v-2.82h2.45v2.82Z"/>
    <path class="cls-40" d="M233.71,624.94v-2.82h2.45v2.82Z"/>
    <path class="cls-40" d="M238.68,624.94v-2.82h2.45v2.82Z"/>
    <path class="cls-40" d="M243.66,624.94v-2.82h2.45v2.82Z"/>
    <path class="cls-40" d="M248.63,624.94v-2.82h2.45v2.82Z"/>
    <path class="cls-40" d="M253.61,624.94v-2.82h2.45v2.82Z"/>
    <path class="cls-40" d="M258.59,624.94v-2.82H261v2.82Z"/>
    <path class="cls-40" d="M263.56,624.94v-2.82H266v2.82Z"/>
    <path class="cls-40" d="M268.54,624.94v-2.82H271v2.82Z"/>
    <path class="cls-40" d="M273.51,624.94v-2.82H276v2.82Z"/>
    <path class="cls-40" d="M278.49,624.94v-2.82h2.45v2.82Z"/>
    <path class="cls-40" d="M283.46,624.94v-2.82h2.45v2.82Z"/>
    <path class="cls-40" d="M288.44,624.94v-2.82h2.45v2.82Z"/>
    <path class="cls-40" d="M293.42,624.94v-2.82h2.45v2.82Z"/>
    <path class="cls-40" d="M298.39,624.94v-2.82h2.45v2.82Z"/>
    <path class="cls-40" d="M303.37,624.94v-2.82h2.45v2.82Z"/>
    <path class="cls-40" d="M308.34,624.94v-2.82h2.45v2.82Z"/>
    <path class="cls-40" d="M313.32,624.94v-2.82h2.45v2.82Z"/>
    <path class="cls-40" d="M318.3,624.94v-2.82h2.45v2.82Z"/>
    <path class="cls-40" d="M323.27,624.94v-2.82h2.45v2.82Z"/>
    <path class="cls-40" d="M328.25,624.94v-2.82h2.45v2.82Z"/>
  </g>
  <path class="cls-40" d="M339.9,624.94v-8.26a7,7,0,0,1-2.06.38V615.4a5.54,5.54,0,0,0,2.8-1.49h1.66v11Zm5.3-8.08a3.53,3.53,0,0,1,3.84-3.11c2.51,0,3.71,1.38,3.71,2.93a2.24,2.24,0,0,1-1.39,2.22v0a2.62,2.62,0,0,1,1.78,2.66c0,1.73-1.09,3.57-4.15,3.54-2.59,0-3.91-1.62-4-3.27h2.27a1.72,1.72,0,0,0,1.84,1.46,1.55,1.55,0,0,0,1.73-1.68c0-1-.42-1.74-1.94-1.74h-.8v-1.76h.75c1.1,0,1.63-.32,1.63-1.25a1.27,1.27,0,0,0-1.44-1.34,1.47,1.47,0,0,0-1.6,1.31Z"/>
  <path class="cls-40" d="M355.69,624.94v-2.82h2.45v2.82Z"/>
  <path class="cls-40" d="M367.71,613.92v1.71a22.46,22.46,0,0,0-3.86,9.32h-2.58a20.88,20.88,0,0,1,4-9.14H360v-1.89Zm7.68,3.33a2.75,2.75,0,0,1-2.85,3c-1.7,0-2.83-1-2.83-3a2.77,2.77,0,0,1,2.85-3A2.7,2.7,0,0,1,375.4,617.25Zm-3.91,0c0,1,.38,1.6,1.09,1.6s1.09-.5,1.09-1.6-.45-1.58-1.1-1.58S371.49,616.17,371.49,617.25Zm1,7.7L379,614.4h1.68l-6.48,10.55Zm11-2.85a2.76,2.76,0,0,1-2.85,3.06c-1.71,0-2.83-1.06-2.83-3a2.76,2.76,0,0,1,2.85-3A2.69,2.69,0,0,1,383.5,622.1Zm-3.92,0c0,1,.38,1.62,1.09,1.62s1.1-.51,1.1-1.62-.45-1.57-1.1-1.57S379.57,621,379.57,622.1Z"/>
  <g>
    <path class="cls-41" d="M10.31,637.92H12.7v4.29h4.45v-4.29h2.38v11H17.15v-4.77H12.7v4.77H10.31Z"/>
    <path class="cls-41" d="M33.26,643.39c0,3.07-1.84,5.71-5.43,5.71s-5.28-2.51-5.28-5.68,2-5.67,5.43-5.67C31.21,637.76,33.26,640,33.26,643.39Zm-8.24,0c0,2.16.94,3.79,2.9,3.79,2.13,0,2.88-1.78,2.88-3.75s-.86-3.73-2.91-3.73S25,641.23,25,643.37Z"/>
    <path class="cls-41" d="M36.28,637.92H41.1c2.67,0,3.68,1.38,3.68,2.82a2.49,2.49,0,0,1-1.41,2.38,2.65,2.65,0,0,1,1.73,2.53c0,1.89-1.49,3.3-3.83,3.3h-5Zm4.55,4.35c1.14,0,1.6-.51,1.6-1.3s-.61-1.22-1.52-1.22H38.62v2.51Zm-2.21,4.83h2.16c1.3,0,1.87-.54,1.87-1.54s-.58-1.46-1.89-1.46H38.62Z"/>
    <path class="cls-41" d="M48.14,637.92H53c2.67,0,3.68,1.38,3.68,2.82a2.49,2.49,0,0,1-1.41,2.38A2.65,2.65,0,0,1,57,645.65c0,1.89-1.49,3.3-3.83,3.3h-5Zm4.55,4.35c1.14,0,1.6-.51,1.6-1.3s-.61-1.22-1.52-1.22H50.47v2.51Zm-2.21,4.83h2.16c1.3,0,1.87-.54,1.87-1.54s-.58-1.46-1.89-1.46H50.47Z"/>
    <path class="cls-41" d="M62.15,648.94V645a.62.62,0,0,0-.1-.35l-3.81-6.77H61c.85,1.66,2,3.87,2.51,5.07.48-1.15,1.68-3.49,2.51-5.07h2.5l-3.86,6.74a.65.65,0,0,0-.08.35v3.94Z"/>
    <path class="cls-41" d="M77.75,644.53v4.42H75.42v-11h4.85c2.4,0,3.7,1.31,3.7,3a2.65,2.65,0,0,1-1.6,2.61c.54.21,1.38.77,1.38,2.75v.54a8.33,8.33,0,0,0,.16,2.1H81.63a7.9,7.9,0,0,1-.22-2.48v-.16c0-1.2-.3-1.78-2.08-1.78Zm0-1.9h2c1.3,0,1.81-.5,1.81-1.41S81,639.8,79.8,639.8h-2Z"/>
    <path class="cls-41" d="M94.73,644.19H89.45V647h5.83l-.29,2H87.13v-11H95v2H89.45v2.35h5.28Z"/>
    <path class="cls-41" d="M98.17,637.92h2.38V647h5.51l-.27,2H98.17Z"/>
    <path class="cls-41" d="M111,646.4l-.85,2.54H107.8l3.75-11h3l3.92,11h-2.51L115,646.4Zm3.52-2c-.78-2.34-1.28-3.83-1.55-4.82h0c-.27,1.09-.82,2.82-1.44,4.82Z"/>
    <path class="cls-41" d="M122.09,639.87h-3.36v-2h9.09v2h-3.35v9.08h-2.38Z"/>
    <path class="cls-41" d="M137.83,644.19h-5.28V647h5.83l-.29,2h-7.86v-11h7.83v2h-5.51v2.35h5.28Z"/>
    <path class="cls-41" d="M141.27,637.92h4.39a5,5,0,0,1,5.31,5.38c0,3.22-2,5.65-5.43,5.65h-4.27Zm2.38,9.11h1.79c2.11,0,3.06-1.58,3.06-3.73,0-1.81-.88-3.46-3-3.46h-1.81Z"/>
    <path class="cls-41" d="M169,643.39c0,3.07-1.84,5.71-5.43,5.71s-5.28-2.51-5.28-5.68,2-5.67,5.43-5.67C167,637.76,169,640,169,643.39Zm-8.24,0c0,2.16.94,3.79,2.9,3.79,2.13,0,2.88-1.78,2.88-3.75s-.86-3.73-2.91-3.73S160.76,641.23,160.76,643.37Z"/>
    <path class="cls-41" d="M172,637.92h4.82c2.67,0,3.68,1.38,3.68,2.82a2.49,2.49,0,0,1-1.41,2.38,2.65,2.65,0,0,1,1.73,2.53c0,1.89-1.49,3.3-3.83,3.3h-5Zm4.55,4.35c1.14,0,1.6-.51,1.6-1.3s-.61-1.22-1.52-1.22h-2.29v2.51Zm-2.21,4.83h2.16c1.3,0,1.87-.54,1.87-1.54s-.58-1.46-1.89-1.46h-2.15Z"/>
    <path class="cls-41" d="M187.74,645.41c0,2.54-.83,3.7-3.25,3.7A6.6,6.6,0,0,1,183,649v-1.89a9.66,9.66,0,0,0,1.09.06c1.09,0,1.26-.74,1.26-1.57v-7.65h2.39Z"/>
    <path class="cls-41" d="M198.86,644.19h-5.28V647h5.83l-.29,2h-7.86v-11h7.83v2h-5.51v2.35h5.28Z"/>
    <path class="cls-41" d="M211.55,645.54c-.43,2.06-2,3.57-4.75,3.57-3.51,0-5.15-2.48-5.15-5.62s1.71-5.73,5.27-5.73c2.94,0,4.37,1.71,4.64,3.57h-2.38a2.18,2.18,0,0,0-2.34-1.71c-2,0-2.72,1.78-2.72,3.79,0,1.86.66,3.83,2.79,3.83a2.18,2.18,0,0,0,2.26-1.7Z"/>
    <path class="cls-41" d="M216.84,639.87h-3.36v-2h9.09v2h-3.35v9.08h-2.38Z"/>
    <path class="cls-41" d="M226.74,645.71a2.05,2.05,0,0,0,2.32,1.6c1.28,0,1.82-.51,1.82-1.31s-.53-1.3-2.42-1.73c-3-.7-3.75-1.81-3.75-3.3,0-1.92,1.44-3.22,4-3.22,2.93,0,4.1,1.57,4.26,3.19h-2.4c-.13-.69-.5-1.42-1.92-1.42-1,0-1.55.4-1.55,1.18s.46,1.09,2.26,1.49c3.2.77,3.91,2,3.91,3.52,0,2-1.52,3.39-4.43,3.39s-4.29-1.38-4.55-3.39Z"/>
  </g>
  <g>
    <path class="cls-41" d="M238.69,648.94v-2.82h2.45v2.82Z"/>
    <path class="cls-41" d="M243.66,648.94v-2.82h2.45v2.82Z"/>
    <path class="cls-41" d="M248.64,648.94v-2.82h2.45v2.82Z"/>
    <path class="cls-41" d="M253.61,648.94v-2.82h2.45v2.82Z"/>
    <path class="cls-41" d="M258.59,648.94v-2.82H261v2.82Z"/>
    <path class="cls-41" d="M263.57,648.94v-2.82H266v2.82Z"/>
    <path class="cls-41" d="M268.54,648.94v-2.82H271v2.82Z"/>
    <path class="cls-41" d="M273.52,648.94v-2.82H276v2.82Z"/>
    <path class="cls-41" d="M278.49,648.94v-2.82h2.45v2.82Z"/>
    <path class="cls-41" d="M283.47,648.94v-2.82h2.45v2.82Z"/>
    <path class="cls-41" d="M288.45,648.94v-2.82h2.45v2.82Z"/>
    <path class="cls-41" d="M293.42,648.94v-2.82h2.45v2.82Z"/>
    <path class="cls-41" d="M298.4,648.94v-2.82h2.45v2.82Z"/>
    <path class="cls-41" d="M303.37,648.94v-2.82h2.45v2.82Z"/>
    <path class="cls-41" d="M308.35,648.94v-2.82h2.45v2.82Z"/>
    <path class="cls-41" d="M313.33,648.94v-2.82h2.45v2.82Z"/>
    <path class="cls-41" d="M318.3,648.94v-2.82h2.45v2.82Z"/>
    <path class="cls-41" d="M323.28,648.94v-2.82h2.45v2.82Z"/>
    <path class="cls-41" d="M328.25,648.94v-2.82h2.45v2.82Z"/>
    <path class="cls-41" d="M333.23,648.94v-2.82h2.45v2.82Z"/>
  </g>
  <path class="cls-41" d="M341.41,648.94v-8.26a7,7,0,0,1-2.06.38V639.4a5.54,5.54,0,0,0,2.8-1.49h1.66v11Zm7.15,0v-8.26a7,7,0,0,1-2.06.38V639.4a5.54,5.54,0,0,0,2.8-1.49H351v11Z"/>
  <path class="cls-41" d="M354.16,648.94v-2.82h2.45v2.82Z"/>
  <path class="cls-41" d="M359.17,645.74a2.81,2.81,0,0,1,1.76-2.63,2.46,2.46,0,0,1-1.3-2.29c0-1.73,1.38-3.07,3.83-3.07,2.27,0,3.75,1.26,3.75,3a2.35,2.35,0,0,1-1.33,2.24,2.74,2.74,0,0,1,1.74,2.63c0,2.38-1.82,3.49-4.34,3.49C361,649.14,359.17,648,359.17,645.74Zm6.11-.06c0-1.07-.7-1.63-1.89-1.63s-1.87.64-1.87,1.57a1.67,1.67,0,0,0,1.9,1.71C364.56,647.33,365.28,646.75,365.28,645.68Zm-3.46-4.77c0,.75.54,1.3,1.6,1.3s1.57-.48,1.57-1.26-.58-1.41-1.58-1.41S361.82,640,361.82,640.91Zm13.57.34a2.75,2.75,0,0,1-2.85,3c-1.7,0-2.83-1-2.83-3a2.77,2.77,0,0,1,2.85-3A2.7,2.7,0,0,1,375.4,641.25Zm-3.91,0c0,1,.38,1.6,1.09,1.6s1.09-.5,1.09-1.6-.45-1.58-1.1-1.58S371.49,640.17,371.49,641.25Zm1,7.7L379,638.4h1.68l-6.48,10.55Zm11-2.85a2.76,2.76,0,0,1-2.85,3.06c-1.71,0-2.83-1.06-2.83-3a2.76,2.76,0,0,1,2.85-3A2.69,2.69,0,0,1,383.49,646.1Zm-3.92,0c0,1,.38,1.62,1.09,1.62s1.1-.51,1.1-1.62-.45-1.57-1.1-1.57S379.57,645,379.57,646.1Z"/>
  <g>
    <path class="cls-42" d="M10.31,661.92h4.56c2.35,0,3.94,1.31,3.94,3.41,0,2.4-1.81,3.51-4,3.51H12.7v4.11H10.31Zm2.38,5h1.83c1.1,0,1.89-.43,1.89-1.55s-.83-1.57-1.84-1.57H12.7Z"/>
    <path class="cls-42" d="M29.08,668.19H23.8V671h5.83l-.29,2H21.48v-11h7.83v2H23.8v2.35h5.28Z"/>
    <path class="cls-42" d="M34.86,668.53v4.42H32.52v-11h4.85c2.4,0,3.7,1.31,3.7,3a2.65,2.65,0,0,1-1.6,2.61c.54.21,1.38.77,1.38,2.75v.54a8.33,8.33,0,0,0,.16,2.1H38.73a7.9,7.9,0,0,1-.22-2.48v-.16c0-1.2-.3-1.78-2.08-1.78Zm0-1.9h2c1.3,0,1.81-.5,1.81-1.41s-.59-1.41-1.76-1.41h-2Z"/>
    <path class="cls-42" d="M45.86,669.71a2.05,2.05,0,0,0,2.32,1.6c1.28,0,1.82-.51,1.82-1.31s-.53-1.3-2.42-1.73c-3-.7-3.75-1.81-3.75-3.3,0-1.92,1.44-3.22,4-3.22,2.93,0,4.1,1.57,4.26,3.19h-2.4c-.13-.69-.5-1.42-1.92-1.42-1,0-1.55.4-1.55,1.18s.46,1.09,2.26,1.49c3.2.77,3.91,2,3.91,3.52,0,2-1.52,3.39-4.43,3.39s-4.29-1.38-4.55-3.39Z"/>
    <path class="cls-42" d="M65.5,667.39c0,3.07-1.84,5.71-5.43,5.71s-5.28-2.51-5.28-5.68,2-5.67,5.43-5.67C63.45,661.76,65.5,664,65.5,667.39Zm-8.24,0c0,2.16.94,3.79,2.9,3.79,2.13,0,2.88-1.78,2.88-3.75s-.86-3.73-2.91-3.73S57.26,665.23,57.26,667.37Z"/>
    <path class="cls-42" d="M68.52,672.94v-11h3c1.38,2.46,3.92,6.95,4.43,8.15h0c-.13-1.15-.13-3.07-.13-4.88v-3.27H78v11h-2.8c-1.18-2.16-4-7.28-4.56-8.56h0c.08,1,.11,3.23.11,5.2v3.36Z"/>
    <path class="cls-42" d="M83.63,670.4l-.85,2.54H80.42l3.75-11h3l3.92,11H88.57l-.91-2.54Zm3.52-2c-.78-2.34-1.28-3.83-1.55-4.82h0c-.27,1.09-.82,2.82-1.44,4.82Z"/>
    <path class="cls-42" d="M93.53,661.92h2.38V671h5.51l-.27,2H93.53Z"/>
    <path class="cls-42" d="M111.06,661.92v11h-2.38v-11Z"/>
    <path class="cls-42" d="M116.82,663.87h-3.36v-2h9.09v2h-3.35v9.08h-2.38Z"/>
    <path class="cls-42" d="M132.57,668.19h-5.28V671h5.83l-.29,2H125v-11h7.83v2h-5.51v2.35h5.28Z"/>
    <path class="cls-42" d="M145.24,668.8c0-1.87,0-4,.08-5.23h-.08c-.51,2.26-1.62,5.92-2.67,9.38h-2c-.82-3-2-7.2-2.43-9.41H138c.1,1.3.14,3.57.14,5.46v4H136v-11h3.55c.86,2.88,1.82,6.5,2.16,8.13h0c.27-1.44,1.47-5.31,2.4-8.13h3.43v11h-2.3Z"/>
    <path class="cls-42" d="M152.79,669.71a2.05,2.05,0,0,0,2.32,1.6c1.28,0,1.82-.51,1.82-1.31s-.53-1.3-2.42-1.73c-3-.7-3.75-1.81-3.75-3.3,0-1.92,1.44-3.22,4-3.22,2.93,0,4.1,1.57,4.26,3.19h-2.4c-.13-.69-.5-1.42-1.92-1.42-1,0-1.55.4-1.55,1.18s.46,1.09,2.26,1.49c3.2.77,3.91,2,3.91,3.52,0,2-1.52,3.39-4.43,3.39s-4.29-1.38-4.55-3.39Z"/>
  </g>
  <g>
    <path class="cls-42" d="M164,672.94v-2.82h2.45v2.82Z"/>
    <path class="cls-42" d="M169,672.94v-2.82h2.45v2.82Z"/>
    <path class="cls-42" d="M174,672.94v-2.82h2.45v2.82Z"/>
    <path class="cls-42" d="M179,672.94v-2.82h2.45v2.82Z"/>
    <path class="cls-42" d="M183.94,672.94v-2.82h2.45v2.82Z"/>
    <path class="cls-42" d="M188.92,672.94v-2.82h2.45v2.82Z"/>
    <path class="cls-42" d="M193.89,672.94v-2.82h2.45v2.82Z"/>
    <path class="cls-42" d="M198.87,672.94v-2.82h2.45v2.82Z"/>
    <path class="cls-42" d="M203.84,672.94v-2.82h2.45v2.82Z"/>
    <path class="cls-42" d="M208.82,672.94v-2.82h2.45v2.82Z"/>
    <path class="cls-42" d="M213.79,672.94v-2.82h2.45v2.82Z"/>
    <path class="cls-42" d="M218.77,672.94v-2.82h2.45v2.82Z"/>
    <path class="cls-42" d="M223.75,672.94v-2.82h2.45v2.82Z"/>
    <path class="cls-42" d="M228.72,672.94v-2.82h2.45v2.82Z"/>
    <path class="cls-42" d="M233.7,672.94v-2.82h2.45v2.82Z"/>
    <path class="cls-42" d="M238.67,672.94v-2.82h2.45v2.82Z"/>
    <path class="cls-42" d="M243.65,672.94v-2.82h2.45v2.82Z"/>
    <path class="cls-42" d="M248.63,672.94v-2.82h2.45v2.82Z"/>
    <path class="cls-42" d="M253.6,672.94v-2.82h2.45v2.82Z"/>
    <path class="cls-42" d="M258.58,672.94v-2.82H261v2.82Z"/>
    <path class="cls-42" d="M263.55,672.94v-2.82H266v2.82Z"/>
    <path class="cls-42" d="M268.53,672.94v-2.82H271v2.82Z"/>
    <path class="cls-42" d="M273.5,672.94v-2.82H276v2.82Z"/>
    <path class="cls-42" d="M278.48,672.94v-2.82h2.45v2.82Z"/>
    <path class="cls-42" d="M283.46,672.94v-2.82h2.45v2.82Z"/>
    <path class="cls-42" d="M288.43,672.94v-2.82h2.45v2.82Z"/>
    <path class="cls-42" d="M293.41,672.94v-2.82h2.45v2.82Z"/>
    <path class="cls-42" d="M298.38,672.94v-2.82h2.45v2.82Z"/>
    <path class="cls-42" d="M303.36,672.94v-2.82h2.45v2.82Z"/>
    <path class="cls-42" d="M308.34,672.94v-2.82h2.45v2.82Z"/>
    <path class="cls-42" d="M313.31,672.94v-2.82h2.45v2.82Z"/>
    <path class="cls-42" d="M318.29,672.94v-2.82h2.45v2.82Z"/>
    <path class="cls-42" d="M323.26,672.94v-2.82h2.45v2.82Z"/>
    <path class="cls-42" d="M328.24,672.94v-2.82h2.45v2.82Z"/>
    <path class="cls-42" d="M333.22,672.94v-2.82h2.45v2.82Z"/>
  </g>
  <path class="cls-42" d="M342.31,672.94v-8.26a7,7,0,0,1-2.06.38V663.4a5.54,5.54,0,0,0,2.8-1.49h1.66v11Zm5.29,0v-.14c0-1.82.53-3.39,3.41-5.44,1.49-1.06,1.87-1.33,1.87-2.27a1.31,1.31,0,0,0-1.38-1.49c-1,0-1.42.59-1.58,1.58h-2.35a3.61,3.61,0,0,1,3.94-3.43c2.85,0,3.78,1.76,3.78,3.28,0,1.7-.67,2.42-2.74,3.79-1.41.93-2,1.62-2.21,2.21h5.38l-.3,1.9Z"/>
  <path class="cls-42" d="M358.34,672.94v-2.82h2.45v2.82Z"/>
  <path class="cls-42" d="M364.58,672.94v-8.26a7,7,0,0,1-2.06.38V663.4a5.54,5.54,0,0,0,2.8-1.49H367v11Zm10.8-7.7a2.75,2.75,0,0,1-2.85,3c-1.7,0-2.83-1-2.83-3a2.77,2.77,0,0,1,2.85-3A2.7,2.7,0,0,1,375.38,665.25Zm-3.91,0c0,1,.38,1.6,1.09,1.6s1.09-.5,1.09-1.6-.45-1.58-1.1-1.58S371.47,664.17,371.47,665.25Zm1,7.7L379,662.4h1.68l-6.48,10.55Zm11-2.85a2.76,2.76,0,0,1-2.85,3.06c-1.71,0-2.83-1.06-2.83-3a2.76,2.76,0,0,1,2.85-3A2.69,2.69,0,0,1,383.48,670.1Zm-3.92,0c0,1,.38,1.62,1.09,1.62s1.1-.51,1.1-1.62-.45-1.57-1.1-1.57S379.56,669,379.56,670.1Z"/>
  <g>
    <path class="cls-43" d="M19.68,693.54c-.43,2.06-2,3.57-4.75,3.57-3.51,0-5.15-2.48-5.15-5.62s1.71-5.73,5.27-5.73c2.94,0,4.37,1.71,4.64,3.57H17.29A2.18,2.18,0,0,0,15,687.61c-2,0-2.72,1.78-2.72,3.79,0,1.86.66,3.83,2.79,3.83a2.18,2.18,0,0,0,2.26-1.7Z"/>
    <path class="cls-43" d="M22.65,685.92H25V695h5.51l-.27,2H22.65Z"/>
    <path class="cls-43" d="M43,691.39c0,3.07-1.84,5.71-5.43,5.71s-5.28-2.51-5.28-5.68,2-5.67,5.43-5.67C41,685.76,43,688,43,691.39Zm-8.24,0c0,2.16.94,3.79,2.9,3.79,2.13,0,2.88-1.78,2.88-3.75s-.86-3.73-2.91-3.73S34.76,689.23,34.76,691.37Z"/>
    <path class="cls-43" d="M48.09,687.87H44.73v-2h9.09v2H50.47v9.08H48.09Z"/>
    <path class="cls-43" d="M56.25,685.92h2.38v4.29h4.45v-4.29h2.38v11H63.08v-4.77H58.63v4.77H56.25Z"/>
    <path class="cls-43" d="M71.43,685.92v11H69v-11Z"/>
    <path class="cls-43" d="M75,696.94v-11h3c1.38,2.46,3.92,6.95,4.43,8.15h0c-.13-1.15-.13-3.07-.13-4.88v-3.27h2.16v11h-2.8c-1.18-2.16-4-7.28-4.56-8.56h0c.08,1,.11,3.23.11,5.2v3.36Z"/>
    <path class="cls-43" d="M97.66,696.94H95.92a6,6,0,0,1-.19-1.09,3.74,3.74,0,0,1-3.22,1.28c-3.2,0-5-2.43-5-5.57,0-3.31,1.94-5.81,5.41-5.81,2.83,0,4.51,1.6,4.77,3.47H95.31a2.24,2.24,0,0,0-2.42-1.62c-2.27,0-2.91,1.91-2.91,3.84s.74,3.78,2.93,3.78a2.19,2.19,0,0,0,2.42-2.4v-.11H92.91v-2h4.75Z"/>
  </g>
  <g>
    <path class="cls-43" d="M104.32,696.94v-2.82h2.45v2.82Z"/>
    <path class="cls-43" d="M109.29,696.94v-2.82h2.45v2.82Z"/>
    <path class="cls-43" d="M114.27,696.94v-2.82h2.45v2.82Z"/>
    <path class="cls-43" d="M119.25,696.94v-2.82h2.45v2.82Z"/>
    <path class="cls-43" d="M124.22,696.94v-2.82h2.45v2.82Z"/>
    <path class="cls-43" d="M129.2,696.94v-2.82h2.45v2.82Z"/>
    <path class="cls-43" d="M134.17,696.94v-2.82h2.45v2.82Z"/>
    <path class="cls-43" d="M139.15,696.94v-2.82h2.45v2.82Z"/>
    <path class="cls-43" d="M144.13,696.94v-2.82h2.45v2.82Z"/>
    <path class="cls-43" d="M149.1,696.94v-2.82h2.45v2.82Z"/>
    <path class="cls-43" d="M154.08,696.94v-2.82h2.45v2.82Z"/>
    <path class="cls-43" d="M159.05,696.94v-2.82h2.45v2.82Z"/>
    <path class="cls-43" d="M164,696.94v-2.82h2.45v2.82Z"/>
    <path class="cls-43" d="M169,696.94v-2.82h2.45v2.82Z"/>
    <path class="cls-43" d="M174,696.94v-2.82h2.45v2.82Z"/>
    <path class="cls-43" d="M179,696.94v-2.82h2.45v2.82Z"/>
    <path class="cls-43" d="M183.93,696.94v-2.82h2.45v2.82Z"/>
    <path class="cls-43" d="M188.91,696.94v-2.82h2.45v2.82Z"/>
    <path class="cls-43" d="M193.88,696.94v-2.82h2.45v2.82Z"/>
    <path class="cls-43" d="M198.86,696.94v-2.82h2.45v2.82Z"/>
    <path class="cls-43" d="M203.84,696.94v-2.82h2.45v2.82Z"/>
    <path class="cls-43" d="M208.81,696.94v-2.82h2.45v2.82Z"/>
    <path class="cls-43" d="M213.79,696.94v-2.82h2.45v2.82Z"/>
    <path class="cls-43" d="M218.76,696.94v-2.82h2.45v2.82Z"/>
    <path class="cls-43" d="M223.74,696.94v-2.82h2.45v2.82Z"/>
    <path class="cls-43" d="M228.71,696.94v-2.82h2.45v2.82Z"/>
    <path class="cls-43" d="M233.69,696.94v-2.82h2.45v2.82Z"/>
    <path class="cls-43" d="M238.67,696.94v-2.82h2.45v2.82Z"/>
    <path class="cls-43" d="M243.64,696.94v-2.82h2.45v2.82Z"/>
    <path class="cls-43" d="M248.62,696.94v-2.82h2.45v2.82Z"/>
    <path class="cls-43" d="M253.59,696.94v-2.82H256v2.82Z"/>
    <path class="cls-43" d="M258.57,696.94v-2.82H261v2.82Z"/>
    <path class="cls-43" d="M263.55,696.94v-2.82H266v2.82Z"/>
    <path class="cls-43" d="M268.52,696.94v-2.82H271v2.82Z"/>
    <path class="cls-43" d="M273.5,696.94v-2.82h2.45v2.82Z"/>
    <path class="cls-43" d="M278.47,696.94v-2.82h2.45v2.82Z"/>
    <path class="cls-43" d="M283.45,696.94v-2.82h2.45v2.82Z"/>
    <path class="cls-43" d="M288.42,696.94v-2.82h2.45v2.82Z"/>
    <path class="cls-43" d="M293.4,696.94v-2.82h2.45v2.82Z"/>
    <path class="cls-43" d="M298.38,696.94v-2.82h2.45v2.82Z"/>
    <path class="cls-43" d="M303.35,696.94v-2.82h2.45v2.82Z"/>
    <path class="cls-43" d="M308.33,696.94v-2.82h2.45v2.82Z"/>
    <path class="cls-43" d="M313.3,696.94v-2.82h2.45v2.82Z"/>
    <path class="cls-43" d="M318.28,696.94v-2.82h2.45v2.82Z"/>
    <path class="cls-43" d="M323.26,696.94v-2.82h2.45v2.82Z"/>
    <path class="cls-43" d="M328.23,696.94v-2.82h2.45v2.82Z"/>
    <path class="cls-43" d="M333.21,696.94v-2.82h2.45v2.82Z"/>
    <path class="cls-43" d="M338.18,696.94v-2.82h2.45v2.82Z"/>
  </g>
  <path class="cls-43" d="M353.28,685.92v1.71a22.46,22.46,0,0,0-3.86,9.32h-2.58a20.88,20.88,0,0,1,4-9.14h-5.22v-1.89Z"/>
  <path class="cls-43" d="M354.16,696.94v-2.82h2.45v2.82Z"/>
  <path class="cls-43" d="M359.17,693.74a2.81,2.81,0,0,1,1.76-2.63,2.46,2.46,0,0,1-1.3-2.29c0-1.73,1.38-3.07,3.83-3.07,2.27,0,3.75,1.26,3.75,3a2.35,2.35,0,0,1-1.33,2.24,2.74,2.74,0,0,1,1.74,2.63c0,2.38-1.82,3.49-4.34,3.49C361,697.14,359.17,696,359.17,693.74Zm6.11-.06c0-1.07-.7-1.63-1.89-1.63s-1.87.64-1.87,1.57a1.67,1.67,0,0,0,1.9,1.71C364.56,695.33,365.28,694.75,365.28,693.68Zm-3.46-4.77c0,.75.54,1.3,1.6,1.3s1.57-.48,1.57-1.26-.58-1.41-1.58-1.41S361.82,688,361.82,688.91Zm13.57.34a2.75,2.75,0,0,1-2.85,3c-1.7,0-2.83-1-2.83-3a2.77,2.77,0,0,1,2.85-3A2.7,2.7,0,0,1,375.39,689.25Zm-3.91,0c0,1,.38,1.6,1.09,1.6s1.09-.5,1.09-1.6-.45-1.58-1.1-1.58S371.49,688.17,371.49,689.25Zm1,7.7L379,686.4h1.68l-6.48,10.55Zm11-2.85a2.76,2.76,0,0,1-2.85,3.06c-1.71,0-2.83-1.06-2.83-3a2.76,2.76,0,0,1,2.85-3A2.69,2.69,0,0,1,383.49,694.1Zm-3.92,0c0,1,.38,1.62,1.09,1.62s1.1-.51,1.1-1.62-.45-1.57-1.1-1.57S379.57,693,379.57,694.1Z"/>
  <g>
    <g>
      <path class="cls-44" d="M10.31,709.92H12.7v4.29h4.45v-4.29h2.38v11H17.15v-4.77H12.7v4.77H10.31Z"/>
      <path class="cls-44" d="M33.26,715.39c0,3.07-1.84,5.71-5.43,5.71s-5.28-2.51-5.28-5.68,2-5.67,5.43-5.67C31.21,709.76,33.26,712,33.26,715.39Zm-8.24,0c0,2.16.94,3.79,2.9,3.79,2.13,0,2.88-1.78,2.88-3.75s-.86-3.73-2.91-3.73S25,713.23,25,715.37Z"/>
      <path class="cls-44" d="M36.28,709.92h2.38V719h5.51l-.27,2H36.28Z"/>
      <path class="cls-44" d="M49,709.92v11H46.6v-11Z"/>
      <path class="cls-44" d="M52.55,709.92h4.39a5,5,0,0,1,5.31,5.38c0,3.22-2,5.65-5.43,5.65H52.55ZM54.94,719h1.79c2.11,0,3.06-1.58,3.06-3.73,0-1.81-.88-3.46-3-3.46H54.94Z"/>
      <path class="cls-44" d="M66.9,718.4l-.85,2.54H63.7l3.75-11h3l3.92,11H71.85l-.91-2.54Zm3.52-2c-.78-2.34-1.28-3.83-1.55-4.82h0c-.27,1.09-.82,2.82-1.44,4.82Z"/>
      <path class="cls-44" d="M78.3,720.94V717a.62.62,0,0,0-.1-.35l-3.81-6.77H77.1c.85,1.66,2,3.87,2.51,5.07.48-1.15,1.68-3.49,2.51-5.07h2.5l-3.86,6.74a.65.65,0,0,0-.08.35v3.94Z"/>
      <path class="cls-44" d="M93.18,717.71a2.05,2.05,0,0,0,2.32,1.6c1.28,0,1.82-.51,1.82-1.31s-.53-1.3-2.42-1.73c-3-.7-3.75-1.81-3.75-3.3,0-1.92,1.44-3.22,4-3.22,2.93,0,4.1,1.57,4.26,3.19h-2.4c-.13-.69-.5-1.42-1.92-1.42-1,0-1.55.4-1.55,1.18s.46,1.09,2.26,1.49c3.2.77,3.91,2,3.91,3.52,0,2-1.52,3.39-4.43,3.39s-4.29-1.38-4.55-3.39Z"/>
      <path class="cls-44" d="M110.33,716.19H105V719h5.83l-.29,2h-7.86v-11h7.83v2H105v2.35h5.28Z"/>
      <path class="cls-44" d="M115.94,718.4l-.85,2.54h-2.35l3.75-11h3l3.92,11h-2.51L120,718.4Zm3.52-2c-.78-2.34-1.28-3.83-1.55-4.82h0c-.27,1.09-.82,2.82-1.44,4.82Z"/>
      <path class="cls-44" d="M127.38,717.71a2.05,2.05,0,0,0,2.32,1.6c1.28,0,1.82-.51,1.82-1.31s-.53-1.3-2.42-1.73c-3-.7-3.75-1.81-3.75-3.3,0-1.92,1.44-3.22,4-3.22,2.93,0,4.1,1.57,4.26,3.19h-2.4c-.13-.69-.5-1.42-1.92-1.42-1,0-1.55.4-1.55,1.18s.46,1.09,2.26,1.49c3.2.77,3.91,2,3.91,3.52,0,2-1.52,3.39-4.43,3.39s-4.29-1.38-4.55-3.39Z"/>
      <path class="cls-44" d="M147,715.39c0,3.07-1.84,5.71-5.43,5.71s-5.28-2.51-5.28-5.68,2-5.67,5.43-5.67C145,709.76,147,712,147,715.39Zm-8.24,0c0,2.16.94,3.79,2.9,3.79,2.13,0,2.88-1.78,2.88-3.75s-.86-3.73-2.91-3.73S138.78,713.23,138.78,715.37Z"/>
      <path class="cls-44" d="M150,720.94v-11h3c1.38,2.46,3.92,6.95,4.43,8.15h0c-.13-1.15-.13-3.07-.13-4.88v-3.27h2.16v11h-2.8c-1.18-2.16-4-7.28-4.56-8.56h0c.08,1,.11,3.23.11,5.2v3.36Z"/>
      <path class="cls-44" d="M165.14,718.4l-.85,2.54h-2.35l3.75-11h3l3.92,11h-2.51l-.91-2.54Zm3.52-2c-.78-2.34-1.28-3.83-1.55-4.82h0c-.27,1.09-.82,2.82-1.44,4.82Z"/>
      <path class="cls-44" d="M175,709.92h2.38V719h5.51l-.27,2H175Z"/>
      <path class="cls-44" d="M192.6,709.92v11h-2.38v-11Z"/>
      <path class="cls-44" d="M198.36,711.87H195v-2h9.09v2h-3.35v9.08h-2.38Z"/>
      <path class="cls-44" d="M214.12,716.19h-5.28V719h5.83l-.29,2h-7.86v-11h7.83v2h-5.51v2.35h5.28Z"/>
      <path class="cls-44" d="M226.79,716.8c0-1.87,0-4,.08-5.23h-.08c-.51,2.26-1.62,5.92-2.67,9.38h-2c-.82-3-2-7.2-2.43-9.41h-.08c.1,1.3.14,3.57.14,5.46v4h-2.18v-11h3.55c.86,2.88,1.82,6.5,2.16,8.13h0c.27-1.44,1.47-5.31,2.4-8.13h3.43v11h-2.3Z"/>
      <path class="cls-44" d="M234.34,717.71a2.05,2.05,0,0,0,2.32,1.6c1.28,0,1.82-.51,1.82-1.31s-.53-1.3-2.42-1.73c-3-.7-3.75-1.81-3.75-3.3,0-1.92,1.44-3.22,4-3.22,2.93,0,4.1,1.57,4.26,3.19h-2.4c-.13-.69-.5-1.42-1.92-1.42-1,0-1.55.4-1.55,1.18s.46,1.09,2.26,1.49c3.2.77,3.91,2,3.91,3.52,0,2-1.52,3.39-4.43,3.39s-4.29-1.38-4.55-3.39Z"/>
    </g>
    <g>
      <path class="cls-44" d="M243.68,720.94v-2.82h2.45v2.82Z"/>
      <path class="cls-44" d="M248.65,720.94v-2.82h2.45v2.82Z"/>
      <path class="cls-44" d="M253.63,720.94v-2.82h2.45v2.82Z"/>
      <path class="cls-44" d="M258.6,720.94v-2.82h2.45v2.82Z"/>
      <path class="cls-44" d="M263.58,720.94v-2.82H266v2.82Z"/>
      <path class="cls-44" d="M268.56,720.94v-2.82H271v2.82Z"/>
      <path class="cls-44" d="M273.53,720.94v-2.82H276v2.82Z"/>
      <path class="cls-44" d="M278.51,720.94v-2.82H281v2.82Z"/>
      <path class="cls-44" d="M283.48,720.94v-2.82h2.45v2.82Z"/>
      <path class="cls-44" d="M288.46,720.94v-2.82h2.45v2.82Z"/>
      <path class="cls-44" d="M293.44,720.94v-2.82h2.45v2.82Z"/>
      <path class="cls-44" d="M298.41,720.94v-2.82h2.45v2.82Z"/>
      <path class="cls-44" d="M303.39,720.94v-2.82h2.45v2.82Z"/>
      <path class="cls-44" d="M308.36,720.94v-2.82h2.45v2.82Z"/>
      <path class="cls-44" d="M313.34,720.94v-2.82h2.45v2.82Z"/>
      <path class="cls-44" d="M318.31,720.94v-2.82h2.45v2.82Z"/>
      <path class="cls-44" d="M323.29,720.94v-2.82h2.45v2.82Z"/>
      <path class="cls-44" d="M328.27,720.94v-2.82h2.45v2.82Z"/>
      <path class="cls-44" d="M333.24,720.94v-2.82h2.45v2.82Z"/>
      <path class="cls-44" d="M338.22,720.94v-2.82h2.45v2.82Z"/>
    </g>
    <path class="cls-44" d="M343.78,717.74a2.81,2.81,0,0,1,1.76-2.63,2.46,2.46,0,0,1-1.3-2.29c0-1.73,1.38-3.07,3.83-3.07,2.27,0,3.75,1.26,3.75,3a2.35,2.35,0,0,1-1.33,2.24,2.74,2.74,0,0,1,1.74,2.63c0,2.38-1.82,3.49-4.34,3.49C345.64,721.14,343.78,720,343.78,717.74Zm6.11-.06c0-1.07-.7-1.63-1.89-1.63s-1.87.64-1.87,1.57a1.67,1.67,0,0,0,1.9,1.71C349.18,719.33,349.9,718.75,349.9,717.68Zm-3.46-4.77c0,.75.54,1.3,1.6,1.3s1.57-.48,1.57-1.26-.58-1.41-1.58-1.41S346.44,712,346.44,712.91Z"/>
    <path class="cls-44" d="M354.81,720.94v-2.82h2.45v2.82Z"/>
    <path class="cls-44" d="M364.6,720.94v-2.61h-5v-2l4.63-6.45h2.59v6.61h1.33l-.22,1.81h-1.1v2.61Zm0-6.47c0-1.22,0-1.89,0-2.56-.43.93-2.18,3.25-3,4.61h3Zm10.78-1.23a2.75,2.75,0,0,1-2.85,3c-1.7,0-2.83-1-2.83-3a2.77,2.77,0,0,1,2.85-3A2.7,2.7,0,0,1,375.39,713.25Zm-3.91,0c0,1,.38,1.6,1.09,1.6s1.09-.5,1.09-1.6-.45-1.58-1.1-1.58S371.48,712.17,371.48,713.25Zm1,7.7L379,710.4h1.68l-6.48,10.55Zm11-2.85a2.76,2.76,0,0,1-2.85,3.06c-1.71,0-2.83-1.06-2.83-3a2.76,2.76,0,0,1,2.85-3A2.69,2.69,0,0,1,383.49,718.1Zm-3.92,0c0,1,.38,1.62,1.09,1.62s1.1-.51,1.1-1.62-.45-1.57-1.1-1.57S379.56,717,379.56,718.1Z"/>
  </g>
  <g>
    <path class="cls-45" d="M403.31,589.92h4.82c2.67,0,3.68,1.38,3.68,2.82a2.49,2.49,0,0,1-1.41,2.38,2.65,2.65,0,0,1,1.73,2.53c0,1.89-1.49,3.3-3.83,3.3h-5Zm4.55,4.35c1.14,0,1.6-.51,1.6-1.3s-.61-1.22-1.52-1.22h-2.29v2.51Zm-2.21,4.83h2.16c1.3,0,1.87-.54,1.87-1.54s-.58-1.46-1.89-1.46h-2.15Z"/>
    <path class="cls-45" d="M425.25,595.39c0,3.07-1.84,5.71-5.43,5.71s-5.28-2.51-5.28-5.68,2-5.67,5.43-5.67C423.2,589.76,425.25,592,425.25,595.39Zm-8.24,0c0,2.16.94,3.79,2.9,3.79,2.13,0,2.88-1.78,2.88-3.75s-.86-3.73-2.91-3.73S417,593.23,417,595.37Z"/>
    <path class="cls-45" d="M438.42,595.39c0,3.07-1.84,5.71-5.43,5.71s-5.28-2.51-5.28-5.68,2-5.67,5.43-5.67C436.37,589.76,438.42,592,438.42,595.39Zm-8.24,0c0,2.16.94,3.79,2.9,3.79,2.13,0,2.88-1.78,2.88-3.75s-.86-3.73-2.91-3.73S430.18,593.23,430.18,595.37Z"/>
    <path class="cls-45" d="M441.44,589.92h2.35v4.91c.74-.85,3-3.33,4.4-4.91H451l-4.43,4.58,4.61,6.45h-2.87L445,596l-1.17,1.1v3.79h-2.35Z"/>
    <path class="cls-45" d="M454.69,597.71a2.05,2.05,0,0,0,2.32,1.6c1.28,0,1.82-.51,1.82-1.31s-.53-1.3-2.42-1.73c-3-.7-3.75-1.81-3.75-3.3,0-1.92,1.44-3.22,4-3.22,2.93,0,4.1,1.57,4.26,3.19h-2.4c-.13-.69-.5-1.42-1.92-1.42-1,0-1.55.4-1.55,1.18s.46,1.09,2.26,1.49c3.2.77,3.91,2,3.91,3.52,0,2-1.52,3.39-4.43,3.39s-4.29-1.38-4.55-3.39Z"/>
    <path class="cls-45" d="M463,601.76l4.43-12h1.9l-4.42,12Z"/>
    <path class="cls-45" d="M486.23,596.8c0-1.87,0-4,.08-5.23h-.08c-.51,2.26-1.62,5.92-2.67,9.38h-2c-.82-3-2-7.2-2.43-9.41H479c.1,1.3.14,3.57.14,5.46v4H477v-11h3.55c.86,2.88,1.82,6.5,2.16,8.13h0c.27-1.44,1.47-5.31,2.4-8.13h3.42v11h-2.3Z"/>
    <path class="cls-45" d="M494.18,598.4l-.85,2.54H491l3.75-11h3l3.92,11h-2.51l-.91-2.54Zm3.52-2c-.78-2.34-1.28-3.83-1.55-4.82h0c-.27,1.09-.82,2.82-1.44,4.82Z"/>
    <path class="cls-45" d="M513.3,600.94h-1.74a6,6,0,0,1-.19-1.09,3.74,3.74,0,0,1-3.22,1.28c-3.2,0-5-2.43-5-5.57,0-3.31,1.94-5.81,5.41-5.81,2.83,0,4.51,1.6,4.77,3.47h-2.38a2.23,2.23,0,0,0-2.42-1.62c-2.27,0-2.91,1.91-2.91,3.84s.74,3.78,2.93,3.78a2.19,2.19,0,0,0,2.42-2.4v-.11h-2.42v-2h4.75Z"/>
    <path class="cls-45" d="M518.83,598.4l-.85,2.54h-2.35l3.75-11h3l3.92,11h-2.51l-.91-2.54Zm3.52-2c-.79-2.34-1.28-3.83-1.55-4.82h0c-.27,1.09-.82,2.82-1.44,4.82Z"/>
    <path class="cls-45" d="M528.3,599.2l6.07-7.33h-5.79v-2h8.5v1.92L531.23,599h6.16l-.3,2H528.3Z"/>
    <path class="cls-45" d="M542.43,589.92v11H540v-11Z"/>
    <path class="cls-45" d="M546,600.94v-11h3c1.38,2.46,3.92,6.95,4.43,8.15h0c-.13-1.15-.13-3.07-.13-4.88v-3.27h2.16v11h-2.8c-1.18-2.16-4-7.28-4.56-8.56h0c.08,1,.11,3.23.11,5.2v3.36Z"/>
    <path class="cls-45" d="M566.64,596.19h-5.28V599h5.83l-.29,2H559v-11h7.83v2h-5.51v2.35h5.28Z"/>
    <path class="cls-45" d="M571.66,597.71a2.05,2.05,0,0,0,2.32,1.6c1.28,0,1.82-.51,1.82-1.31s-.53-1.3-2.42-1.73c-3-.7-3.75-1.81-3.75-3.3,0-1.92,1.44-3.22,4-3.22,2.93,0,4.1,1.57,4.26,3.19h-2.4c-.13-.69-.5-1.42-1.92-1.42-1,0-1.55.4-1.55,1.18s.46,1.09,2.26,1.49c3.2.77,3.91,2,3.91,3.52,0,2-1.52,3.39-4.43,3.39s-4.29-1.38-4.55-3.39Z"/>
  </g>
  <g>
    <path class="cls-45" d="M581.92,600.94v-2.82h2.45v2.82Z"/>
    <path class="cls-45" d="M586.89,600.94v-2.82h2.45v2.82Z"/>
    <path class="cls-45" d="M591.87,600.94v-2.82h2.45v2.82Z"/>
    <path class="cls-45" d="M596.84,600.94v-2.82h2.45v2.82Z"/>
    <path class="cls-45" d="M601.82,600.94v-2.82h2.45v2.82Z"/>
    <path class="cls-45" d="M606.79,600.94v-2.82h2.45v2.82Z"/>
    <path class="cls-45" d="M611.77,600.94v-2.82h2.45v2.82Z"/>
    <path class="cls-45" d="M616.75,600.94v-2.82h2.45v2.82Z"/>
    <path class="cls-45" d="M621.72,600.94v-2.82h2.45v2.82Z"/>
    <path class="cls-45" d="M626.7,600.94v-2.82h2.45v2.82Z"/>
    <path class="cls-45" d="M631.67,600.94v-2.82h2.45v2.82Z"/>
    <path class="cls-45" d="M636.65,600.94v-2.82h2.45v2.82Z"/>
    <path class="cls-45" d="M641.63,600.94v-2.82h2.45v2.82Z"/>
    <path class="cls-45" d="M646.6,600.94v-2.82h2.45v2.82Z"/>
    <path class="cls-45" d="M651.58,600.94v-2.82H654v2.82Z"/>
    <path class="cls-45" d="M656.55,600.94v-2.82H659v2.82Z"/>
    <path class="cls-45" d="M661.53,600.94v-2.82H664v2.82Z"/>
    <path class="cls-45" d="M666.51,600.94v-2.82H669v2.82Z"/>
    <path class="cls-45" d="M671.48,600.94v-2.82h2.45v2.82Z"/>
    <path class="cls-45" d="M676.46,600.94v-2.82h2.45v2.82Z"/>
    <path class="cls-45" d="M681.43,600.94v-2.82h2.45v2.82Z"/>
    <path class="cls-45" d="M686.41,600.94v-2.82h2.45v2.82Z"/>
    <path class="cls-45" d="M691.38,600.94v-2.82h2.45v2.82Z"/>
    <path class="cls-45" d="M696.36,600.94v-2.82h2.45v2.82Z"/>
    <path class="cls-45" d="M701.34,600.94v-2.82h2.45v2.82Z"/>
    <path class="cls-45" d="M706.31,600.94v-2.82h2.45v2.82Z"/>
    <path class="cls-45" d="M711.29,600.94v-2.82h2.45v2.82Z"/>
    <path class="cls-45" d="M716.26,600.94v-2.82h2.45v2.82Z"/>
    <path class="cls-45" d="M721.24,600.94v-2.82h2.45v2.82Z"/>
    <path class="cls-45" d="M726.22,600.94v-2.82h2.45v2.82Z"/>
    <path class="cls-45" d="M731.19,600.94v-2.82h2.45v2.82Z"/>
  </g>
  <g>
    <path class="cls-45" d="M742.4,592.57a1.34,1.34,0,0,0-1.49-1.07c-1.55,0-1.94,1.6-2,3.07a3,3,0,0,1,2.55-1.09,3.37,3.37,0,0,1,3.47,3.63,3.75,3.75,0,0,1-4.07,4c-3.14,0-4.26-2.27-4.26-5.55,0-2.43.82-5.83,4.37-5.83,2.48,0,3.47,1.46,3.67,2.82Zm.21,4.72c0-1.07-.45-2-1.76-2-1,0-1.74.56-1.74,1.87,0,1.06.51,2.11,1.74,2.11S742.6,598.53,742.6,597.3Z"/>
    <path class="cls-45" d="M747.38,600.94v-2.82h2.45v2.82Z"/>
    <path class="cls-45" d="M752.62,600.94v-.14c0-1.82.53-3.39,3.41-5.44,1.49-1.06,1.87-1.33,1.87-2.27a1.31,1.31,0,0,0-1.38-1.49c-1,0-1.42.59-1.58,1.58h-2.35a3.61,3.61,0,0,1,3.94-3.43c2.85,0,3.78,1.76,3.78,3.28,0,1.7-.67,2.42-2.74,3.79-1.41.93-2,1.62-2.21,2.21h5.38l-.3,1.9Zm15.78-7.7a2.75,2.75,0,0,1-2.85,3c-1.7,0-2.83-1-2.83-3a2.77,2.77,0,0,1,2.85-3A2.7,2.7,0,0,1,768.39,593.25Zm-3.91,0c0,1,.38,1.6,1.09,1.6s1.09-.5,1.09-1.6-.45-1.58-1.1-1.58S764.49,592.17,764.49,593.25Zm1,7.7L772,590.4h1.68l-6.48,10.55Zm11-2.85a2.76,2.76,0,0,1-2.85,3.06c-1.71,0-2.83-1.06-2.83-3a2.76,2.76,0,0,1,2.85-3A2.69,2.69,0,0,1,776.49,598.1Zm-3.92,0c0,1,.38,1.62,1.09,1.62s1.1-.51,1.1-1.62-.45-1.57-1.1-1.57S772.57,597,772.57,598.1Z"/>
  </g>
  <g>
    <path class="cls-46" d="M404.93,621.71a2.05,2.05,0,0,0,2.32,1.6c1.28,0,1.82-.51,1.82-1.31s-.53-1.3-2.42-1.73c-3-.7-3.75-1.81-3.75-3.3,0-1.92,1.44-3.22,4-3.22,2.93,0,4.1,1.57,4.26,3.19h-2.4c-.13-.69-.5-1.42-1.92-1.42-1,0-1.55.4-1.55,1.18s.46,1.09,2.26,1.49c3.2.77,3.91,2,3.91,3.52,0,2-1.52,3.39-4.43,3.39s-4.29-1.38-4.55-3.39Z"/>
    <path class="cls-46" d="M414.48,613.92H419c2.35,0,3.94,1.31,3.94,3.41,0,2.4-1.81,3.51-4,3.51h-2.13v4.11h-2.38Zm2.38,5h1.83c1.1,0,1.89-.43,1.89-1.55s-.83-1.57-1.84-1.57h-1.87Z"/>
    <path class="cls-46" d="M436,619.39c0,3.07-1.84,5.71-5.43,5.71s-5.28-2.51-5.28-5.68,2-5.67,5.43-5.67C434,613.76,436,616,436,619.39Zm-8.24,0c0,2.16.94,3.79,2.9,3.79,2.13,0,2.88-1.78,2.88-3.75s-.86-3.73-2.91-3.73S427.76,617.23,427.76,619.37Z"/>
    <path class="cls-46" d="M441.36,620.53v4.42H439v-11h4.85c2.4,0,3.7,1.31,3.7,3a2.65,2.65,0,0,1-1.6,2.61c.54.21,1.38.77,1.38,2.75v.54a8.33,8.33,0,0,0,.16,2.1h-2.27a7.92,7.92,0,0,1-.22-2.48v-.16c0-1.2-.3-1.78-2.08-1.78Zm0-1.9h2c1.3,0,1.81-.5,1.81-1.41s-.59-1.41-1.76-1.41h-2Z"/>
    <path class="cls-46" d="M453,615.87h-3.36v-2h9.09v2h-3.35v9.08H453Z"/>
    <path class="cls-46" d="M463.54,613.92v11h-2.38v-11Z"/>
    <path class="cls-46" d="M467.1,624.94v-11h3c1.38,2.46,3.92,6.95,4.43,8.15h0c-.13-1.15-.13-3.07-.13-4.88v-3.27h2.16v11h-2.8c-1.18-2.16-4-7.28-4.56-8.56h0c.08,1,.11,3.23.11,5.2v3.36Z"/>
    <path class="cls-46" d="M489.76,624.94H488a6,6,0,0,1-.19-1.09,3.74,3.74,0,0,1-3.22,1.28c-3.2,0-5-2.43-5-5.57,0-3.31,1.94-5.81,5.41-5.81,2.83,0,4.51,1.6,4.77,3.47h-2.38a2.23,2.23,0,0,0-2.42-1.62c-2.27,0-2.91,1.91-2.91,3.84s.74,3.78,2.93,3.78a2.19,2.19,0,0,0,2.42-2.4v-.11H485v-2h4.75Z"/>
    <path class="cls-46" d="M505.57,620.19h-5.28V623h5.83l-.29,2H498v-11h7.83v2h-5.51v2.35h5.28Z"/>
    <path class="cls-46" d="M519,619.39a5.93,5.93,0,0,1-1.66,4.32l2.48,1.7L518.44,627l-3.07-2.13a6.11,6.11,0,0,1-1.78.24c-3.47,0-5.28-2.51-5.28-5.68s2-5.67,5.43-5.67C517,613.76,519,616,519,619.39Zm-8.24,0c0,2.16.94,3.79,2.9,3.79,2.13,0,2.88-1.78,2.88-3.75s-.86-3.73-2.91-3.73S510.77,617.23,510.77,619.37Z"/>
    <path class="cls-46" d="M524.3,613.92v6.56c0,2.13,1.09,2.75,2.29,2.75,1.36,0,2.21-.74,2.21-2.75v-6.56h2.4v6.45c0,3.78-2.21,4.74-4.64,4.74s-4.64-1-4.64-4.69v-6.5Z"/>
    <path class="cls-46" d="M537.07,613.92v11h-2.38v-11Z"/>
    <path class="cls-46" d="M540.62,613.92h4.56c2.35,0,3.94,1.31,3.94,3.41,0,2.4-1.81,3.51-4,3.51H543v4.11h-2.38Zm2.38,5h1.83c1.1,0,1.89-.43,1.89-1.55s-.83-1.57-1.84-1.57H543Z"/>
    <path class="cls-46" d="M561,620.8c0-1.87,0-4,.08-5.23H561c-.51,2.26-1.62,5.92-2.67,9.38h-2c-.82-3-2-7.2-2.43-9.41h-.08c.1,1.3.14,3.57.14,5.46v4h-2.18v-11h3.55c.86,2.88,1.83,6.5,2.16,8.13h0c.27-1.44,1.47-5.31,2.4-8.13h3.43v11H561Z"/>
    <path class="cls-46" d="M574.55,620.19h-5.28V623h5.83l-.29,2h-7.86v-11h7.83v2h-5.51v2.35h5.28Z"/>
    <path class="cls-46" d="M578,624.94v-11h3c1.38,2.46,3.92,6.95,4.43,8.15h0c-.13-1.15-.13-3.07-.13-4.88v-3.27h2.16v11h-2.8c-1.18-2.16-4-7.28-4.56-8.56h0c.08,1,.11,3.23.11,5.2v3.36Z"/>
    <path class="cls-46" d="M593.23,615.87h-3.36v-2H599v2h-3.35v9.08h-2.38Z"/>
  </g>
  <g>
    <path class="cls-46" d="M601.82,624.94v-2.82h2.45v2.82Z"/>
    <path class="cls-46" d="M606.8,624.94v-2.82h2.45v2.82Z"/>
    <path class="cls-46" d="M611.78,624.94v-2.82h2.45v2.82Z"/>
    <path class="cls-46" d="M616.75,624.94v-2.82h2.45v2.82Z"/>
    <path class="cls-46" d="M621.73,624.94v-2.82h2.45v2.82Z"/>
    <path class="cls-46" d="M626.7,624.94v-2.82h2.45v2.82Z"/>
    <path class="cls-46" d="M631.68,624.94v-2.82h2.45v2.82Z"/>
    <path class="cls-46" d="M636.65,624.94v-2.82h2.45v2.82Z"/>
    <path class="cls-46" d="M641.63,624.94v-2.82h2.45v2.82Z"/>
    <path class="cls-46" d="M646.61,624.94v-2.82h2.45v2.82Z"/>
    <path class="cls-46" d="M651.58,624.94v-2.82H654v2.82Z"/>
    <path class="cls-46" d="M656.56,624.94v-2.82H659v2.82Z"/>
    <path class="cls-46" d="M661.53,624.94v-2.82H664v2.82Z"/>
    <path class="cls-46" d="M666.51,624.94v-2.82H669v2.82Z"/>
    <path class="cls-46" d="M671.49,624.94v-2.82h2.45v2.82Z"/>
    <path class="cls-46" d="M676.46,624.94v-2.82h2.45v2.82Z"/>
    <path class="cls-46" d="M681.44,624.94v-2.82h2.45v2.82Z"/>
    <path class="cls-46" d="M686.41,624.94v-2.82h2.45v2.82Z"/>
    <path class="cls-46" d="M691.39,624.94v-2.82h2.45v2.82Z"/>
    <path class="cls-46" d="M696.37,624.94v-2.82h2.45v2.82Z"/>
    <path class="cls-46" d="M701.34,624.94v-2.82h2.45v2.82Z"/>
    <path class="cls-46" d="M706.32,624.94v-2.82h2.45v2.82Z"/>
    <path class="cls-46" d="M711.29,624.94v-2.82h2.45v2.82Z"/>
    <path class="cls-46" d="M716.27,624.94v-2.82h2.45v2.82Z"/>
    <path class="cls-46" d="M721.24,624.94v-2.82h2.45v2.82Z"/>
    <path class="cls-46" d="M726.22,624.94v-2.82h2.45v2.82Z"/>
    <path class="cls-46" d="M731.2,624.94v-2.82h2.45v2.82Z"/>
  </g>
  <g>
    <path class="cls-46" d="M744.45,615.79h-4.56c-.08.8-.21,1.71-.29,2.18a3,3,0,0,1,2-.58,3.4,3.4,0,0,1,3.46,3.68,3.81,3.81,0,0,1-4.16,4.07,3.7,3.7,0,0,1-4-3.17h2.29a1.7,1.7,0,0,0,1.76,1.34c1.28,0,1.79-.82,1.79-2,0-1-.4-2.06-1.78-2.06a1.63,1.63,0,0,0-1.74,1.17L737.1,620c.29-1.31.72-4.63.86-6.13h6.77Z"/>
    <path class="cls-46" d="M747.55,624.94v-2.82H750v2.82Z"/>
    <path class="cls-46" d="M752.67,616.86a3.53,3.53,0,0,1,3.84-3.11c2.51,0,3.71,1.38,3.71,2.93a2.24,2.24,0,0,1-1.39,2.22v0a2.62,2.62,0,0,1,1.78,2.66c0,1.73-1.09,3.57-4.15,3.54-2.59,0-3.91-1.62-4-3.27h2.27a1.72,1.72,0,0,0,1.84,1.46,1.55,1.55,0,0,0,1.73-1.68c0-1-.42-1.74-1.94-1.74h-.8v-1.76h.75c1.1,0,1.63-.32,1.63-1.25a1.27,1.27,0,0,0-1.44-1.34,1.47,1.47,0,0,0-1.6,1.31Zm15.75.38a2.75,2.75,0,0,1-2.85,3c-1.7,0-2.83-1-2.83-3a2.77,2.77,0,0,1,2.85-3A2.7,2.7,0,0,1,768.41,617.25Zm-3.91,0c0,1,.38,1.6,1.09,1.6s1.09-.5,1.09-1.6-.45-1.58-1.1-1.58S764.51,616.17,764.51,617.25Zm1,7.7L772,614.4h1.68l-6.48,10.55Zm11-2.85a2.76,2.76,0,0,1-2.85,3.06c-1.71,0-2.83-1.06-2.83-3a2.76,2.76,0,0,1,2.85-3A2.69,2.69,0,0,1,776.51,622.1Zm-3.92,0c0,1,.38,1.62,1.09,1.62s1.1-.51,1.1-1.62-.45-1.57-1.1-1.57S772.59,621,772.59,622.1Z"/>
  </g>
  <g>
    <path class="cls-47" d="M410.92,644.19h-5.28V647h5.83l-.29,2h-7.86v-11h7.83v2h-5.51v2.35h5.28Z"/>
    <path class="cls-47" d="M414.35,637.92h2.38V647h5.51l-.27,2h-7.62Z"/>
    <path class="cls-47" d="M432.28,644.19H427V647h5.83l-.29,2h-7.86v-11h7.83v2H427v2.35h5.28Z"/>
    <path class="cls-47" d="M445,645.54c-.43,2.06-2,3.57-4.75,3.57-3.51,0-5.15-2.48-5.15-5.62s1.71-5.73,5.27-5.73c2.95,0,4.37,1.71,4.64,3.57h-2.38a2.18,2.18,0,0,0-2.34-1.71c-2,0-2.72,1.78-2.72,3.79,0,1.86.66,3.83,2.79,3.83a2.18,2.18,0,0,0,2.26-1.7Z"/>
    <path class="cls-47" d="M450.26,639.87H446.9v-2H456v2h-3.35v9.08h-2.38Z"/>
    <path class="cls-47" d="M460.75,644.53v4.42h-2.34v-11h4.85c2.4,0,3.7,1.31,3.7,3a2.65,2.65,0,0,1-1.6,2.61c.54.21,1.38.77,1.38,2.75v.54a8.33,8.33,0,0,0,.16,2.1h-2.27a7.88,7.88,0,0,1-.22-2.48v-.16c0-1.2-.3-1.78-2.08-1.78Zm0-1.9h2c1.3,0,1.81-.5,1.81-1.41s-.59-1.41-1.76-1.41h-2Z"/>
    <path class="cls-47" d="M480.2,643.39c0,3.07-1.84,5.71-5.43,5.71s-5.28-2.51-5.28-5.68,2-5.67,5.43-5.67C478.15,637.76,480.2,640,480.2,643.39Zm-8.24,0c0,2.16.94,3.79,2.9,3.79,2.13,0,2.88-1.78,2.88-3.75s-.86-3.73-2.91-3.73S472,641.23,472,643.37Z"/>
    <path class="cls-47" d="M483.22,648.94v-11h3c1.38,2.46,3.92,6.95,4.43,8.15h0c-.13-1.15-.13-3.07-.13-4.88v-3.27h2.16v11h-2.8c-1.19-2.16-4-7.28-4.56-8.56h0c.08,1,.11,3.23.11,5.2v3.36Z"/>
    <path class="cls-47" d="M498.64,637.92v11h-2.38v-11Z"/>
    <path class="cls-47" d="M511.57,645.54c-.43,2.06-2,3.57-4.75,3.57-3.5,0-5.15-2.48-5.15-5.62s1.71-5.73,5.27-5.73c2.95,0,4.37,1.71,4.64,3.57h-2.38a2.18,2.18,0,0,0-2.34-1.71c-2,0-2.72,1.78-2.72,3.79,0,1.86.66,3.83,2.79,3.83a2.18,2.18,0,0,0,2.26-1.7Z"/>
    <path class="cls-47" d="M519.39,637.92h4.39a5,5,0,0,1,5.31,5.38c0,3.22-2,5.65-5.43,5.65h-4.27Zm2.38,9.11h1.79c2.11,0,3.06-1.58,3.06-3.73,0-1.81-.88-3.46-3-3.46h-1.81Z"/>
    <path class="cls-47" d="M539.71,644.19h-5.28V647h5.83l-.29,2h-7.86v-11h7.83v2h-5.51v2.35h5.28Z"/>
    <path class="cls-47" d="M545.9,648.94l-3.89-11h2.56l1.63,5.09c.51,1.54.88,2.85,1.14,4h0a40.27,40.27,0,0,1,1.18-4l1.73-5.12h2.43l-4,11Z"/>
    <path class="cls-47" d="M557.46,637.92v11h-2.38v-11Z"/>
    <path class="cls-47" d="M570.39,645.54c-.43,2.06-2,3.57-4.75,3.57-3.51,0-5.15-2.48-5.15-5.62s1.71-5.73,5.27-5.73c2.94,0,4.37,1.71,4.64,3.57H568a2.18,2.18,0,0,0-2.34-1.71c-2,0-2.72,1.78-2.72,3.79,0,1.86.66,3.83,2.79,3.83a2.18,2.18,0,0,0,2.26-1.7Z"/>
    <path class="cls-47" d="M581,644.19h-5.28V647h5.83l-.29,2h-7.86v-11h7.83v2h-5.51v2.35H581Z"/>
    <path class="cls-47" d="M586,645.71a2.05,2.05,0,0,0,2.32,1.6c1.28,0,1.82-.51,1.82-1.31s-.53-1.3-2.42-1.73c-3-.7-3.75-1.81-3.75-3.3,0-1.92,1.44-3.22,4-3.22,2.93,0,4.1,1.57,4.26,3.19h-2.4c-.13-.69-.5-1.42-1.92-1.42-1,0-1.55.4-1.55,1.18s.46,1.09,2.26,1.49c3.2.77,3.91,2,3.91,3.52,0,2-1.52,3.39-4.43,3.39s-4.29-1.38-4.55-3.39Z"/>
  </g>
  <g>
    <path class="cls-47" d="M596.83,648.94v-2.82h2.45v2.82Z"/>
    <path class="cls-47" d="M601.81,648.94v-2.82h2.45v2.82Z"/>
    <path class="cls-47" d="M606.78,648.94v-2.82h2.45v2.82Z"/>
    <path class="cls-47" d="M611.76,648.94v-2.82h2.45v2.82Z"/>
    <path class="cls-47" d="M616.73,648.94v-2.82h2.45v2.82Z"/>
    <path class="cls-47" d="M621.71,648.94v-2.82h2.45v2.82Z"/>
    <path class="cls-47" d="M626.69,648.94v-2.82h2.45v2.82Z"/>
    <path class="cls-47" d="M631.66,648.94v-2.82h2.45v2.82Z"/>
    <path class="cls-47" d="M636.64,648.94v-2.82h2.45v2.82Z"/>
    <path class="cls-47" d="M641.61,648.94v-2.82h2.45v2.82Z"/>
    <path class="cls-47" d="M646.59,648.94v-2.82H649v2.82Z"/>
    <path class="cls-47" d="M651.56,648.94v-2.82H654v2.82Z"/>
    <path class="cls-47" d="M656.54,648.94v-2.82H659v2.82Z"/>
    <path class="cls-47" d="M661.52,648.94v-2.82H664v2.82Z"/>
    <path class="cls-47" d="M666.49,648.94v-2.82h2.45v2.82Z"/>
    <path class="cls-47" d="M671.47,648.94v-2.82h2.45v2.82Z"/>
    <path class="cls-47" d="M676.44,648.94v-2.82h2.45v2.82Z"/>
    <path class="cls-47" d="M681.42,648.94v-2.82h2.45v2.82Z"/>
    <path class="cls-47" d="M686.4,648.94v-2.82h2.45v2.82Z"/>
    <path class="cls-47" d="M691.37,648.94v-2.82h2.45v2.82Z"/>
    <path class="cls-47" d="M696.35,648.94v-2.82h2.45v2.82Z"/>
    <path class="cls-47" d="M701.32,648.94v-2.82h2.45v2.82Z"/>
    <path class="cls-47" d="M706.3,648.94v-2.82h2.45v2.82Z"/>
    <path class="cls-47" d="M711.28,648.94v-2.82h2.45v2.82Z"/>
    <path class="cls-47" d="M716.25,648.94v-2.82h2.45v2.82Z"/>
    <path class="cls-47" d="M721.23,648.94v-2.82h2.45v2.82Z"/>
    <path class="cls-47" d="M726.2,648.94v-2.82h2.45v2.82Z"/>
    <path class="cls-47" d="M731.18,648.94v-2.82h2.45v2.82Z"/>
  </g>
  <g>
    <path class="cls-47" d="M742.94,648.94v-2.61h-5v-2l4.63-6.45h2.59v6.61h1.33l-.22,1.81h-1.1v2.61Zm0-6.47c0-1.22,0-1.89,0-2.56-.43.93-2.18,3.25-3,4.61h3Z"/>
    <path class="cls-47" d="M748.68,648.94v-2.82h2.45v2.82Z"/>
    <path class="cls-47" d="M760.7,637.92v1.71a22.46,22.46,0,0,0-3.86,9.32h-2.58a20.88,20.88,0,0,1,4-9.14H753v-1.89Zm7.68,3.33a2.75,2.75,0,0,1-2.85,3c-1.7,0-2.83-1-2.83-3a2.77,2.77,0,0,1,2.85-3A2.7,2.7,0,0,1,768.38,641.25Zm-3.91,0c0,1,.38,1.6,1.09,1.6s1.09-.5,1.09-1.6-.45-1.58-1.1-1.58S764.48,640.17,764.48,641.25Zm1,7.7L772,638.4h1.68l-6.48,10.55Zm11-2.85a2.76,2.76,0,0,1-2.85,3.06c-1.71,0-2.83-1.06-2.83-3a2.76,2.76,0,0,1,2.85-3A2.69,2.69,0,0,1,776.48,646.1Zm-3.92,0c0,1,.38,1.62,1.09,1.62s1.1-.51,1.1-1.62-.45-1.57-1.1-1.57S772.56,645,772.56,646.1Z"/>
  </g>
  <g>
    <path class="cls-48" d="M412.68,669.54c-.43,2.06-2,3.57-4.75,3.57-3.5,0-5.15-2.48-5.15-5.62s1.71-5.73,5.27-5.73c2.94,0,4.37,1.71,4.64,3.57h-2.38a2.18,2.18,0,0,0-2.34-1.71c-2,0-2.72,1.78-2.72,3.79,0,1.86.66,3.83,2.79,3.83a2.18,2.18,0,0,0,2.26-1.7Z"/>
    <path class="cls-48" d="M415.65,661.92H418v4.29h4.45v-4.29h2.38v11h-2.38v-4.77H418v4.77h-2.38Z"/>
    <path class="cls-48" d="M430.83,661.92v11h-2.38v-11Z"/>
    <path class="cls-48" d="M434.4,661.92h2.38V671h5.51l-.27,2H434.4Z"/>
    <path class="cls-48" d="M444.72,661.92h4.38a5,5,0,0,1,5.31,5.38c0,3.22-2,5.65-5.43,5.65h-4.27Zm2.38,9.11h1.79c2.11,0,3.06-1.58,3.06-3.73,0-1.81-.88-3.46-3-3.46h-1.81Z"/>
    <path class="cls-48" d="M459.78,668.53v4.42h-2.34v-11h4.85c2.4,0,3.7,1.31,3.7,3a2.65,2.65,0,0,1-1.6,2.61c.54.21,1.38.77,1.38,2.75v.54a8.33,8.33,0,0,0,.16,2.1h-2.27a7.91,7.91,0,0,1-.22-2.48v-.16c0-1.2-.3-1.78-2.08-1.78Zm0-1.9h2c1.3,0,1.81-.5,1.81-1.41s-.59-1.41-1.76-1.41h-2Z"/>
    <path class="cls-48" d="M476.75,668.19h-5.28V671h5.83l-.29,2h-7.86v-11H477v2h-5.51v2.35h5.28Z"/>
    <path class="cls-48" d="M480.19,672.94v-11h3c1.38,2.46,3.92,6.95,4.43,8.15h0c-.13-1.15-.13-3.07-.13-4.88v-3.27h2.16v11h-2.8c-1.18-2.16-4-7.28-4.56-8.56h0c.08,1,.11,3.23.11,5.2v3.36Z"/>
    <path class="cls-48" d="M492.72,666a21.69,21.69,0,0,0,.75-4.75h2.42a13.59,13.59,0,0,1-1.33,4.75Z"/>
    <path class="cls-48" d="M500.45,669.71a2.05,2.05,0,0,0,2.32,1.6c1.28,0,1.83-.51,1.83-1.31s-.53-1.3-2.42-1.73c-3-.7-3.74-1.81-3.74-3.3,0-1.92,1.44-3.22,4-3.22,2.93,0,4.1,1.57,4.26,3.19h-2.4c-.13-.69-.5-1.42-1.92-1.42-1,0-1.55.4-1.55,1.18s.46,1.09,2.26,1.49c3.2.77,3.91,2,3.91,3.52,0,2-1.52,3.39-4.43,3.39s-4.29-1.38-4.55-3.39Z"/>
    <path class="cls-48" d="M517,663.87h-3.36v-2h9.09v2h-3.35v9.08H517Z"/>
    <path class="cls-48" d="M535.11,667.39c0,3.07-1.84,5.71-5.43,5.71s-5.28-2.51-5.28-5.68,2-5.67,5.43-5.67C533.06,661.76,535.11,664,535.11,667.39Zm-8.24,0c0,2.16.95,3.79,2.9,3.79,2.13,0,2.88-1.78,2.88-3.75s-.87-3.73-2.91-3.73S526.86,665.23,526.86,667.37Z"/>
    <path class="cls-48" d="M540.06,672.94V669a.62.62,0,0,0-.1-.35l-3.81-6.77h2.71c.85,1.66,2,3.87,2.51,5.07.48-1.15,1.68-3.49,2.51-5.07h2.5l-3.86,6.74a.65.65,0,0,0-.08.35v3.94Z"/>
    <path class="cls-48" d="M549.94,669.71a2.05,2.05,0,0,0,2.32,1.6c1.28,0,1.83-.51,1.83-1.31s-.53-1.3-2.42-1.73c-3-.7-3.75-1.81-3.75-3.3,0-1.92,1.44-3.22,4-3.22,2.93,0,4.1,1.57,4.26,3.19h-2.4c-.13-.69-.5-1.42-1.92-1.42-1,0-1.55.4-1.55,1.18s.46,1.09,2.26,1.49c3.2.77,3.91,2,3.91,3.52,0,2-1.52,3.39-4.43,3.39s-4.29-1.38-4.54-3.39Z"/>
  </g>
  <g>
    <path class="cls-48" d="M562,672.94v-2.82h2.45v2.82Z"/>
    <path class="cls-48" d="M567,672.94v-2.82h2.45v2.82Z"/>
    <path class="cls-48" d="M572,672.94v-2.82h2.45v2.82Z"/>
    <path class="cls-48" d="M576.94,672.94v-2.82h2.45v2.82Z"/>
    <path class="cls-48" d="M581.92,672.94v-2.82h2.45v2.82Z"/>
    <path class="cls-48" d="M586.89,672.94v-2.82h2.45v2.82Z"/>
    <path class="cls-48" d="M591.87,672.94v-2.82h2.45v2.82Z"/>
    <path class="cls-48" d="M596.84,672.94v-2.82h2.45v2.82Z"/>
    <path class="cls-48" d="M601.82,672.94v-2.82h2.45v2.82Z"/>
    <path class="cls-48" d="M606.8,672.94v-2.82h2.45v2.82Z"/>
    <path class="cls-48" d="M611.77,672.94v-2.82h2.45v2.82Z"/>
    <path class="cls-48" d="M616.75,672.94v-2.82h2.45v2.82Z"/>
    <path class="cls-48" d="M621.72,672.94v-2.82h2.45v2.82Z"/>
    <path class="cls-48" d="M626.7,672.94v-2.82h2.45v2.82Z"/>
    <path class="cls-48" d="M631.68,672.94v-2.82h2.45v2.82Z"/>
    <path class="cls-48" d="M636.65,672.94v-2.82h2.45v2.82Z"/>
    <path class="cls-48" d="M641.63,672.94v-2.82h2.45v2.82Z"/>
    <path class="cls-48" d="M646.6,672.94v-2.82h2.45v2.82Z"/>
    <path class="cls-48" d="M651.58,672.94v-2.82H654v2.82Z"/>
    <path class="cls-48" d="M656.55,672.94v-2.82H659v2.82Z"/>
    <path class="cls-48" d="M661.53,672.94v-2.82H664v2.82Z"/>
    <path class="cls-48" d="M666.51,672.94v-2.82H669v2.82Z"/>
    <path class="cls-48" d="M671.48,672.94v-2.82h2.45v2.82Z"/>
    <path class="cls-48" d="M676.46,672.94v-2.82h2.45v2.82Z"/>
    <path class="cls-48" d="M681.43,672.94v-2.82h2.45v2.82Z"/>
    <path class="cls-48" d="M686.41,672.94v-2.82h2.45v2.82Z"/>
    <path class="cls-48" d="M691.39,672.94v-2.82h2.45v2.82Z"/>
    <path class="cls-48" d="M696.36,672.94v-2.82h2.45v2.82Z"/>
    <path class="cls-48" d="M701.34,672.94v-2.82h2.45v2.82Z"/>
    <path class="cls-48" d="M706.31,672.94v-2.82h2.45v2.82Z"/>
    <path class="cls-48" d="M711.29,672.94v-2.82h2.45v2.82Z"/>
    <path class="cls-48" d="M716.26,672.94v-2.82h2.45v2.82Z"/>
    <path class="cls-48" d="M721.24,672.94v-2.82h2.45v2.82Z"/>
    <path class="cls-48" d="M726.22,672.94v-2.82h2.45v2.82Z"/>
    <path class="cls-48" d="M731.19,672.94v-2.82h2.45v2.82Z"/>
  </g>
  <g>
    <path class="cls-48" d="M741.67,672.94v-8.26a7,7,0,0,1-2.06.38V663.4a5.54,5.54,0,0,0,2.8-1.49h1.66v11Z"/>
    <path class="cls-48" d="M747.27,672.94v-2.82h2.45v2.82Z"/>
    <path class="cls-48" d="M754.65,670.3a1.43,1.43,0,0,0,1.52,1.06c1.5,0,1.84-1.58,1.9-3.2a2.93,2.93,0,0,1-2.34.88,3.32,3.32,0,0,1-3.57-3.52,3.72,3.72,0,0,1,4-3.76c3,0,4.23,2.14,4.23,5.15,0,2.85-.69,6.23-4.35,6.23-2.32,0-3.46-1.28-3.68-2.83Zm-.14-4.9a1.68,1.68,0,0,0,1.74,1.9c1.07,0,1.66-.53,1.66-1.82,0-.94-.27-2-1.68-2A1.69,1.69,0,0,0,754.5,665.41Zm13.89-.16a2.75,2.75,0,0,1-2.85,3c-1.7,0-2.83-1-2.83-3a2.77,2.77,0,0,1,2.85-3A2.7,2.7,0,0,1,768.4,665.25Zm-3.91,0c0,1,.38,1.6,1.09,1.6s1.09-.5,1.09-1.6-.45-1.58-1.1-1.58S764.49,664.17,764.49,665.25Zm1,7.7L772,662.4h1.68l-6.48,10.55Zm11-2.85a2.76,2.76,0,0,1-2.85,3.06c-1.71,0-2.83-1.06-2.83-3a2.76,2.76,0,0,1,2.85-3A2.69,2.69,0,0,1,776.5,670.1Zm-3.92,0c0,1,.38,1.62,1.09,1.62s1.1-.51,1.1-1.62-.45-1.57-1.1-1.57S772.57,669,772.57,670.1Z"/>
  </g>
  <g>
    <path class="cls-49" d="M413.48,691.39c0,3.07-1.84,5.71-5.43,5.71s-5.28-2.51-5.28-5.68,2-5.67,5.43-5.67C411.43,685.76,413.48,688,413.48,691.39Zm-8.24,0c0,2.16.94,3.79,2.9,3.79,2.13,0,2.88-1.78,2.88-3.75s-.86-3.73-2.91-3.73S405.23,689.23,405.23,691.37Z"/>
    <path class="cls-49" d="M418.54,687.87h-3.36v-2h9.09v2h-3.35v9.08h-2.38Z"/>
    <path class="cls-49" d="M426.71,685.92h2.38v4.29h4.45v-4.29h2.38v11h-2.38v-4.77h-4.45v4.77h-2.38Z"/>
    <path class="cls-49" d="M447.11,692.19h-5.28V695h5.83l-.29,2H439.5v-11h7.83v2h-5.51v2.35h5.28Z"/>
    <path class="cls-49" d="M452.87,692.53v4.42h-2.34v-11h4.85c2.4,0,3.7,1.31,3.7,3a2.65,2.65,0,0,1-1.6,2.61c.54.21,1.38.77,1.38,2.75v.54a8.33,8.33,0,0,0,.16,2.1h-2.27a7.92,7.92,0,0,1-.22-2.48v-.16c0-1.2-.3-1.78-2.08-1.78Zm0-1.9h2c1.3,0,1.81-.5,1.81-1.41s-.59-1.41-1.76-1.41h-2Z"/>
  </g>
  <g>
    <path class="cls-49" d="M462.51,696.94v-2.82H465v2.82Z"/>
    <path class="cls-49" d="M467.49,696.94v-2.82h2.45v2.82Z"/>
    <path class="cls-49" d="M472.46,696.94v-2.82h2.45v2.82Z"/>
    <path class="cls-49" d="M477.44,696.94v-2.82h2.45v2.82Z"/>
    <path class="cls-49" d="M482.42,696.94v-2.82h2.45v2.82Z"/>
    <path class="cls-49" d="M487.39,696.94v-2.82h2.45v2.82Z"/>
    <path class="cls-49" d="M492.37,696.94v-2.82h2.45v2.82Z"/>
    <path class="cls-49" d="M497.34,696.94v-2.82h2.45v2.82Z"/>
    <path class="cls-49" d="M502.32,696.94v-2.82h2.45v2.82Z"/>
    <path class="cls-49" d="M507.29,696.94v-2.82h2.45v2.82Z"/>
    <path class="cls-49" d="M512.27,696.94v-2.82h2.45v2.82Z"/>
    <path class="cls-49" d="M517.25,696.94v-2.82h2.45v2.82Z"/>
    <path class="cls-49" d="M522.22,696.94v-2.82h2.45v2.82Z"/>
    <path class="cls-49" d="M527.2,696.94v-2.82h2.45v2.82Z"/>
    <path class="cls-49" d="M532.17,696.94v-2.82h2.45v2.82Z"/>
    <path class="cls-49" d="M537.15,696.94v-2.82h2.45v2.82Z"/>
    <path class="cls-49" d="M542.13,696.94v-2.82h2.45v2.82Z"/>
    <path class="cls-49" d="M547.1,696.94v-2.82h2.45v2.82Z"/>
    <path class="cls-49" d="M552.08,696.94v-2.82h2.45v2.82Z"/>
    <path class="cls-49" d="M557.05,696.94v-2.82h2.45v2.82Z"/>
    <path class="cls-49" d="M562,696.94v-2.82h2.45v2.82Z"/>
    <path class="cls-49" d="M567,696.94v-2.82h2.45v2.82Z"/>
    <path class="cls-49" d="M572,696.94v-2.82h2.45v2.82Z"/>
    <path class="cls-49" d="M577,696.94v-2.82h2.45v2.82Z"/>
    <path class="cls-49" d="M581.93,696.94v-2.82h2.45v2.82Z"/>
    <path class="cls-49" d="M586.91,696.94v-2.82h2.45v2.82Z"/>
    <path class="cls-49" d="M591.88,696.94v-2.82h2.45v2.82Z"/>
    <path class="cls-49" d="M596.86,696.94v-2.82h2.45v2.82Z"/>
    <path class="cls-49" d="M601.84,696.94v-2.82h2.45v2.82Z"/>
    <path class="cls-49" d="M606.81,696.94v-2.82h2.45v2.82Z"/>
    <path class="cls-49" d="M611.79,696.94v-2.82h2.45v2.82Z"/>
    <path class="cls-49" d="M616.76,696.94v-2.82h2.45v2.82Z"/>
    <path class="cls-49" d="M621.74,696.94v-2.82h2.45v2.82Z"/>
    <path class="cls-49" d="M626.72,696.94v-2.82h2.45v2.82Z"/>
    <path class="cls-49" d="M631.69,696.94v-2.82h2.45v2.82Z"/>
    <path class="cls-49" d="M636.67,696.94v-2.82h2.45v2.82Z"/>
    <path class="cls-49" d="M641.64,696.94v-2.82h2.45v2.82Z"/>
    <path class="cls-49" d="M646.62,696.94v-2.82h2.45v2.82Z"/>
    <path class="cls-49" d="M651.59,696.94v-2.82H654v2.82Z"/>
    <path class="cls-49" d="M656.57,696.94v-2.82H659v2.82Z"/>
    <path class="cls-49" d="M661.55,696.94v-2.82H664v2.82Z"/>
    <path class="cls-49" d="M666.52,696.94v-2.82H669v2.82Z"/>
    <path class="cls-49" d="M671.5,696.94v-2.82h2.45v2.82Z"/>
    <path class="cls-49" d="M676.47,696.94v-2.82h2.45v2.82Z"/>
    <path class="cls-49" d="M681.45,696.94v-2.82h2.45v2.82Z"/>
    <path class="cls-49" d="M686.43,696.94v-2.82h2.45v2.82Z"/>
    <path class="cls-49" d="M691.4,696.94v-2.82h2.45v2.82Z"/>
    <path class="cls-49" d="M696.38,696.94v-2.82h2.45v2.82Z"/>
    <path class="cls-49" d="M701.35,696.94v-2.82h2.45v2.82Z"/>
    <path class="cls-49" d="M706.33,696.94v-2.82h2.45v2.82Z"/>
    <path class="cls-49" d="M711.31,696.94v-2.82h2.45v2.82Z"/>
    <path class="cls-49" d="M716.28,696.94v-2.82h2.45v2.82Z"/>
    <path class="cls-49" d="M721.26,696.94v-2.82h2.45v2.82Z"/>
    <path class="cls-49" d="M726.23,696.94v-2.82h2.45v2.82Z"/>
    <path class="cls-49" d="M731.21,696.94v-2.82h2.45v2.82Z"/>
  </g>
  <g>
    <path class="cls-49" d="M737.32,688.86a3.53,3.53,0,0,1,3.84-3.11c2.51,0,3.71,1.38,3.71,2.93a2.24,2.24,0,0,1-1.39,2.22v0a2.62,2.62,0,0,1,1.78,2.66c0,1.73-1.09,3.57-4.15,3.54-2.59,0-3.91-1.62-4-3.27h2.27a1.72,1.72,0,0,0,1.84,1.46,1.55,1.55,0,0,0,1.73-1.68c0-1-.42-1.74-1.94-1.74h-.8v-1.76H741c1.1,0,1.63-.32,1.63-1.25a1.27,1.27,0,0,0-1.44-1.34,1.47,1.47,0,0,0-1.6,1.31Z"/>
    <path class="cls-49" d="M747.81,696.94v-2.82h2.45v2.82Z"/>
    <path class="cls-49" d="M757.61,696.94v-2.61h-5v-2l4.63-6.45h2.59v6.61h1.33l-.22,1.81h-1.1v2.61Zm0-6.47c0-1.22,0-1.89,0-2.56-.43.93-2.18,3.25-3,4.61h3Zm10.78-1.23a2.75,2.75,0,0,1-2.85,3c-1.7,0-2.83-1-2.83-3a2.77,2.77,0,0,1,2.85-3A2.7,2.7,0,0,1,768.39,689.25Zm-3.91,0c0,1,.38,1.6,1.09,1.6s1.09-.5,1.09-1.6-.45-1.58-1.1-1.58S764.49,688.17,764.49,689.25Zm1,7.7L772,686.4h1.68l-6.48,10.55Zm11-2.85a2.76,2.76,0,0,1-2.85,3.06c-1.71,0-2.83-1.06-2.83-3a2.76,2.76,0,0,1,2.85-3A2.69,2.69,0,0,1,776.49,694.1Zm-3.92,0c0,1,.38,1.62,1.09,1.62s1.1-.51,1.1-1.62-.45-1.57-1.1-1.57S772.57,693,772.57,694.1Z"/>
    <g>
      <path class="cls-50" d="M412.57,716.8c0-1.87,0-4,.08-5.23h-.08c-.51,2.26-1.62,5.92-2.67,9.38h-2c-.82-3-2-7.2-2.43-9.41h-.08c.1,1.3.14,3.57.14,5.46v4h-2.18v-11h3.55c.87,2.88,1.83,6.5,2.16,8.13h0c.27-1.44,1.47-5.31,2.4-8.13h3.43v11h-2.3Z"/>
      <path class="cls-50" d="M420.52,718.4l-.85,2.54h-2.35l3.75-11h3l3.92,11h-2.51l-.91-2.54Zm3.52-2c-.78-2.34-1.28-3.83-1.55-4.82h0c-.27,1.09-.82,2.82-1.44,4.82Z"/>
      <path class="cls-50" d="M434.73,717.41c0,2.54-.83,3.7-3.25,3.7A6.61,6.61,0,0,1,430,721v-1.89a9.69,9.69,0,0,0,1.09.06c1.09,0,1.26-.74,1.26-1.57v-7.65h2.38Z"/>
      <path class="cls-50" d="M448.38,715.39c0,3.07-1.84,5.71-5.43,5.71s-5.28-2.51-5.28-5.68,2-5.67,5.43-5.67C446.33,709.76,448.38,712,448.38,715.39Zm-8.24,0c0,2.16.94,3.79,2.9,3.79,2.13,0,2.88-1.78,2.88-3.75s-.86-3.73-2.91-3.73S440.13,713.23,440.13,715.37Z"/>
      <path class="cls-50" d="M453.73,716.53v4.42H451.4v-11h4.85c2.4,0,3.7,1.31,3.7,3a2.65,2.65,0,0,1-1.6,2.61c.54.21,1.38.77,1.38,2.75v.54a8.33,8.33,0,0,0,.16,2.1h-2.27a7.92,7.92,0,0,1-.22-2.48v-.16c0-1.2-.3-1.78-2.08-1.78Zm0-1.9h2c1.3,0,1.81-.5,1.81-1.41s-.59-1.41-1.76-1.41h-2Z"/>
      <path class="cls-50" d="M469.85,718.4l-.85,2.54h-2.35l3.75-11h3l3.92,11h-2.51l-.91-2.54Zm3.52-2c-.78-2.34-1.28-3.83-1.55-4.82h0c-.27,1.09-.82,2.82-1.44,4.82Z"/>
      <path class="cls-50" d="M479.75,709.92h4.56c2.35,0,3.94,1.31,3.94,3.41,0,2.4-1.81,3.51-4,3.51h-2.13v4.11h-2.38Zm2.38,5H484c1.1,0,1.89-.43,1.89-1.55S485,711.8,484,711.8h-1.87Z"/>
      <path class="cls-50" d="M490.92,709.92h4.56c2.35,0,3.94,1.31,3.94,3.41,0,2.4-1.81,3.51-4,3.51H493.3v4.11h-2.38Zm2.38,5h1.83c1.1,0,1.89-.43,1.89-1.55s-.83-1.57-1.84-1.57H493.3Z"/>
      <path class="cls-50" d="M502.08,709.92h2.38V719H510l-.27,2h-7.62Z"/>
      <path class="cls-50" d="M514.79,709.92v11H512.4v-11Z"/>
      <path class="cls-50" d="M520.41,718.4l-.85,2.54h-2.35l3.74-11h3l3.92,11h-2.51l-.91-2.54Zm3.52-2c-.79-2.34-1.28-3.83-1.55-4.82h0c-.27,1.09-.82,2.82-1.44,4.82Z"/>
      <path class="cls-50" d="M530.31,720.94v-11h3c1.38,2.46,3.92,6.95,4.43,8.15h0c-.13-1.15-.13-3.07-.13-4.88v-3.27h2.16v11H537c-1.18-2.16-4-7.28-4.56-8.56h0c.08,1,.11,3.23.11,5.2v3.36Z"/>
      <path class="cls-50" d="M552.73,717.54c-.43,2.06-2,3.57-4.75,3.57-3.51,0-5.15-2.48-5.15-5.62s1.71-5.73,5.27-5.73c2.95,0,4.37,1.71,4.64,3.57h-2.38a2.18,2.18,0,0,0-2.34-1.71c-2,0-2.72,1.78-2.72,3.79,0,1.86.66,3.83,2.79,3.83a2.18,2.18,0,0,0,2.26-1.7Z"/>
      <path class="cls-50" d="M563.3,716.19H558V719h5.83l-.29,2H555.7v-11h7.83v2H558v2.35h5.28Z"/>
      <path class="cls-50" d="M568.32,717.71a2.05,2.05,0,0,0,2.32,1.6c1.28,0,1.83-.51,1.83-1.31s-.53-1.3-2.42-1.73c-3-.7-3.74-1.81-3.74-3.3,0-1.92,1.44-3.22,4-3.22,2.93,0,4.1,1.57,4.26,3.19h-2.4c-.13-.69-.5-1.42-1.92-1.42-1,0-1.55.4-1.55,1.18s.46,1.09,2.26,1.49c3.2.77,3.91,2,3.91,3.52,0,2-1.52,3.39-4.43,3.39s-4.29-1.38-4.55-3.39Z"/>
    </g>
    <g>
      <path class="cls-50" d="M581.93,720.94v-2.82h2.45v2.82Z"/>
      <path class="cls-50" d="M586.91,720.94v-2.82h2.45v2.82Z"/>
      <path class="cls-50" d="M591.88,720.94v-2.82h2.45v2.82Z"/>
      <path class="cls-50" d="M596.86,720.94v-2.82h2.45v2.82Z"/>
      <path class="cls-50" d="M601.83,720.94v-2.82h2.45v2.82Z"/>
      <path class="cls-50" d="M606.81,720.94v-2.82h2.45v2.82Z"/>
      <path class="cls-50" d="M611.79,720.94v-2.82h2.45v2.82Z"/>
      <path class="cls-50" d="M616.76,720.94v-2.82h2.45v2.82Z"/>
      <path class="cls-50" d="M621.74,720.94v-2.82h2.45v2.82Z"/>
      <path class="cls-50" d="M626.71,720.94v-2.82h2.45v2.82Z"/>
      <path class="cls-50" d="M631.69,720.94v-2.82h2.45v2.82Z"/>
      <path class="cls-50" d="M636.67,720.94v-2.82h2.45v2.82Z"/>
      <path class="cls-50" d="M641.64,720.94v-2.82h2.45v2.82Z"/>
      <path class="cls-50" d="M646.62,720.94v-2.82h2.45v2.82Z"/>
      <path class="cls-50" d="M651.59,720.94v-2.82H654v2.82Z"/>
      <path class="cls-50" d="M656.57,720.94v-2.82H659v2.82Z"/>
      <path class="cls-50" d="M661.54,720.94v-2.82H664v2.82Z"/>
      <path class="cls-50" d="M666.52,720.94v-2.82H669v2.82Z"/>
      <path class="cls-50" d="M671.5,720.94v-2.82h2.45v2.82Z"/>
      <path class="cls-50" d="M676.47,720.94v-2.82h2.45v2.82Z"/>
      <path class="cls-50" d="M681.45,720.94v-2.82h2.45v2.82Z"/>
      <path class="cls-50" d="M686.42,720.94v-2.82h2.45v2.82Z"/>
      <path class="cls-50" d="M691.4,720.94v-2.82h2.45v2.82Z"/>
      <path class="cls-50" d="M696.38,720.94v-2.82h2.45v2.82Z"/>
      <path class="cls-50" d="M701.35,720.94v-2.82h2.45v2.82Z"/>
      <path class="cls-50" d="M706.33,720.94v-2.82h2.45v2.82Z"/>
      <path class="cls-50" d="M711.3,720.94v-2.82h2.45v2.82Z"/>
      <path class="cls-50" d="M716.28,720.94v-2.82h2.45v2.82Z"/>
      <path class="cls-50" d="M721.25,720.94v-2.82h2.45v2.82Z"/>
      <path class="cls-50" d="M726.23,720.94v-2.82h2.45v2.82Z"/>
      <path class="cls-50" d="M731.21,720.94v-2.82h2.45v2.82Z"/>
    </g>
    <path class="cls-50" d="M736.42,720.94v-.14c0-1.82.53-3.39,3.41-5.44,1.49-1.06,1.87-1.33,1.87-2.27a1.31,1.31,0,0,0-1.38-1.49c-1,0-1.42.59-1.58,1.58h-2.35a3.61,3.61,0,0,1,3.94-3.43c2.85,0,3.78,1.76,3.78,3.28,0,1.7-.67,2.42-2.74,3.79-1.41.93-2,1.62-2.21,2.21h5.38l-.3,1.9Z"/>
    <path class="cls-50" d="M747.17,720.94v-2.82h2.45v2.82Z"/>
    <path class="cls-50" d="M752.18,717.74a2.81,2.81,0,0,1,1.76-2.63,2.46,2.46,0,0,1-1.3-2.29c0-1.73,1.38-3.07,3.83-3.07,2.27,0,3.75,1.26,3.75,3a2.35,2.35,0,0,1-1.33,2.24,2.74,2.74,0,0,1,1.74,2.63c0,2.38-1.82,3.49-4.34,3.49C754,721.14,752.18,720,752.18,717.74Zm6.11-.06c0-1.07-.7-1.63-1.89-1.63s-1.87.64-1.87,1.57a1.67,1.67,0,0,0,1.9,1.71C757.58,719.33,758.3,718.75,758.3,717.68Zm-3.46-4.77c0,.75.54,1.3,1.6,1.3s1.57-.48,1.57-1.26-.58-1.41-1.58-1.41S754.84,712,754.84,712.91Zm13.57.34a2.75,2.75,0,0,1-2.85,3c-1.7,0-2.83-1-2.83-3a2.77,2.77,0,0,1,2.85-3A2.7,2.7,0,0,1,768.41,713.25Zm-3.91,0c0,1,.38,1.6,1.09,1.6s1.09-.5,1.09-1.6-.45-1.58-1.1-1.58S764.5,712.17,764.5,713.25Zm1,7.7L772,710.4h1.68l-6.48,10.55Zm11-2.85a2.76,2.76,0,0,1-2.85,3.06c-1.71,0-2.83-1.06-2.83-3a2.76,2.76,0,0,1,2.85-3A2.69,2.69,0,0,1,776.51,718.1Zm-3.92,0c0,1,.38,1.62,1.09,1.62s1.1-.51,1.1-1.62-.45-1.57-1.1-1.57S772.59,717,772.59,718.1Z"/>
  </g>
  <g id="boomers_caption">
    <rect class="cls-51" x="605" y="317.68" width="163" height="99.75"/>
    <g>
      <polyline class="cls-51" points="695.67 369.43 620.67 369.43 620.67 444.43"/>
      <g>
        <path class="cls-52" d="M618.56,330.35h4.54c2.5,0,3.65,1.33,3.65,3a2.61,2.61,0,0,1-1.7,2.58,2.9,2.9,0,0,1,2.09,2.82c0,2.23-1.7,3.47-3.94,3.47h-4.64Zm4.23,4.93c1.72,0,2.38-.68,2.38-1.84s-.75-1.79-2.14-1.79h-2.94v3.62Zm-2.7,5.61H623c1.48,0,2.52-.7,2.52-2.18,0-1.27-.82-2.14-2.82-2.14h-2.62Z"/>
        <path class="cls-52" d="M637.69,337.84c0,2.5-1.43,4.54-4.06,4.54-2.46,0-4-1.9-4-4.5s1.46-4.52,4.06-4.52C636.12,333.36,637.69,335.14,637.69,337.84Zm-6.49,0c0,1.9,1,3.28,2.5,3.28s2.46-1.31,2.46-3.26-.88-3.28-2.5-3.28S631.2,335.91,631.2,337.86Z"/>
        <path class="cls-52" d="M648,337.84c0,2.5-1.43,4.54-4.06,4.54-2.46,0-4-1.9-4-4.5s1.46-4.52,4.06-4.52C646.46,333.36,648,335.14,648,337.84Zm-6.49,0c0,1.9,1,3.28,2.5,3.28s2.46-1.31,2.46-3.26-.88-3.28-2.5-3.28S641.53,335.91,641.53,337.86Z"/>
        <path class="cls-52" d="M650.85,335.79c0-.75,0-1.53,0-2.23h1.43c0,.25.07.88.07,1.33a2.66,2.66,0,0,1,2.5-1.53,2.38,2.38,0,0,1,2.4,1.55,2.93,2.93,0,0,1,2.74-1.55c1.41,0,2.72.83,2.72,3.16v5.66h-1.46v-5.49c0-1-.36-2-1.7-2s-2,1.05-2,2.58v4.95H656v-5.44c0-1.1-.31-2.09-1.67-2.09s-2,1.12-2,2.75v4.78h-1.48Z"/>
        <path class="cls-52" d="M667,338.13c0,1.75.9,3,2.36,3a2,2,0,0,0,2.07-1.34h1.51a3.52,3.52,0,0,1-3.64,2.58c-2.7,0-3.81-2.21-3.81-4.42,0-2.57,1.29-4.61,3.91-4.61,2.79,0,3.69,2.23,3.69,4.06,0,.27,0,.49,0,.71Zm4.59-1c0-1.43-.73-2.57-2.19-2.57s-2.19,1.05-2.35,2.57Z"/>
        <path class="cls-52" d="M675.92,335.91c0-1.21,0-1.89,0-2.35h1.46c0,.24.05.92.05,1.75a3,3,0,0,1,2.89-2v1.48c-1.77.05-2.89,1-2.89,3.16v4.18h-1.5Z"/>
        <path class="cls-52" d="M683.64,339.71a2,2,0,0,0,2.11,1.5c1.26,0,1.75-.54,1.75-1.33s-.39-1.19-2-1.58c-2.46-.59-3-1.36-3-2.53s.9-2.41,3.11-2.41,3.14,1.29,3.25,2.48h-1.43a1.72,1.72,0,0,0-1.87-1.33c-1.21,0-1.58.58-1.58,1.14s.36,1,1.94,1.34c2.62.63,3.14,1.5,3.14,2.77,0,1.51-1.21,2.62-3.35,2.62s-3.33-1.12-3.55-2.67Z"/>
        <path class="cls-52" d="M698,339.71a2,2,0,0,0,2.11,1.5c1.26,0,1.75-.54,1.75-1.33s-.39-1.19-2-1.58c-2.46-.59-3-1.36-3-2.53s.9-2.41,3.11-2.41,3.15,1.29,3.25,2.48h-1.43a1.72,1.72,0,0,0-1.87-1.33c-1.21,0-1.58.58-1.58,1.14s.36,1,1.94,1.34c2.62.63,3.14,1.5,3.14,2.77,0,1.51-1.21,2.62-3.35,2.62s-3.33-1.12-3.55-2.67Z"/>
        <path class="cls-52" d="M705.28,333.56h1.5V331h1.48v2.55h1.9v1.21h-1.9v5c0,.85.21,1.27,1,1.27A3.89,3.89,0,0,0,710,341v1.12a4,4,0,0,1-1.29.15c-1.34,0-1.92-.7-1.92-2.12v-5.41h-1.5Z"/>
        <path class="cls-52" d="M720,337.84c0,2.5-1.43,4.54-4.06,4.54-2.46,0-4-1.9-4-4.5s1.46-4.52,4.06-4.52C718.4,333.36,720,335.14,720,337.84Zm-6.49,0c0,1.9,1,3.28,2.5,3.28s2.46-1.31,2.46-3.26-.88-3.28-2.5-3.28S713.47,335.91,713.47,337.86Z"/>
        <path class="cls-52" d="M722.79,335.91c0-1.21,0-1.89,0-2.35h1.46c0,.24.05.92.05,1.75a3,3,0,0,1,2.89-2v1.48c-1.77.05-2.89,1-2.89,3.16v4.18h-1.5Z"/>
        <path class="cls-52" d="M730.46,338.13c0,1.75.9,3,2.36,3a2,2,0,0,0,2.07-1.34h1.51a3.52,3.52,0,0,1-3.64,2.58c-2.7,0-3.81-2.21-3.81-4.42,0-2.57,1.29-4.61,3.91-4.61,2.79,0,3.69,2.23,3.69,4.06,0,.27,0,.49,0,.71Zm4.59-1c0-1.43-.73-2.57-2.19-2.57s-2.19,1.05-2.35,2.57Z"/>
      </g>
      <g>
        <path class="cls-52" d="M617.17,354.56h1.5V352h1.48v2.55H622v1.21h-1.9v5c0,.85.2,1.27,1,1.27a3.89,3.89,0,0,0,.75-.07v1.12a4,4,0,0,1-1.29.15c-1.34,0-1.92-.7-1.92-2.12v-5.41h-1.5Z"/>
        <path class="cls-52" d="M626,350.7v5.13a2.86,2.86,0,0,1,2.69-1.48c1.38,0,2.91.75,2.91,3.31v5.51h-1.5v-5.25c0-1.46-.61-2.28-1.87-2.28-1.55,0-2.23,1-2.23,2.82v4.71h-1.5V350.7Z"/>
        <path class="cls-52" d="M635.9,359.13c0,1.75.9,3,2.36,3a2,2,0,0,0,2.07-1.34h1.51a3.52,3.52,0,0,1-3.64,2.58c-2.7,0-3.81-2.21-3.81-4.42,0-2.57,1.29-4.61,3.91-4.61,2.79,0,3.69,2.23,3.69,4.06,0,.27,0,.49,0,.71Zm4.59-1c0-1.43-.73-2.57-2.19-2.57s-2.19,1.05-2.35,2.57Z"/>
        <path class="cls-52" d="M650.25,363.17V350.7h1.5v12.48Z"/>
        <path class="cls-52" d="M656.06,359.13c0,1.75.9,3,2.36,3a2,2,0,0,0,2.07-1.34H662a3.52,3.52,0,0,1-3.64,2.58c-2.7,0-3.81-2.21-3.81-4.42,0-2.57,1.29-4.61,3.91-4.61,2.79,0,3.69,2.23,3.69,4.06,0,.27,0,.49,0,.71Zm4.59-1c0-1.43-.73-2.57-2.19-2.57s-2.19,1.05-2.35,2.57Z"/>
        <path class="cls-52" d="M671.42,361.29a13.25,13.25,0,0,0,.12,1.89h-1.43a4.5,4.5,0,0,1-.14-1.12,2.75,2.75,0,0,1-2.67,1.33,2.61,2.61,0,0,1-2.91-2.63c0-1.92,1.51-2.8,4.08-2.8h1.46v-.73c0-.76-.24-1.68-1.85-1.68-1.43,0-1.68.71-1.84,1.38H664.8c.12-1.19.85-2.55,3.33-2.55,2.11,0,3.28.87,3.28,2.82ZM670,359h-1.39c-1.72,0-2.63.48-2.63,1.68a1.51,1.51,0,0,0,1.68,1.55c2.07,0,2.35-1.39,2.35-3Z"/>
        <path class="cls-52" d="M675.56,360.71a2,2,0,0,0,2.11,1.5c1.26,0,1.75-.54,1.75-1.33s-.39-1.19-2-1.58c-2.46-.59-3-1.36-3-2.53s.9-2.41,3.11-2.41,3.15,1.29,3.25,2.48h-1.43a1.72,1.72,0,0,0-1.87-1.33c-1.21,0-1.58.58-1.58,1.14s.36,1,1.94,1.34c2.62.63,3.14,1.5,3.14,2.77,0,1.51-1.21,2.62-3.35,2.62s-3.33-1.12-3.55-2.67Z"/>
        <path class="cls-52" d="M682.82,354.56h1.5V352h1.48v2.55h1.9v1.21h-1.9v5c0,.85.21,1.27,1,1.27a3.89,3.89,0,0,0,.75-.07v1.12a4,4,0,0,1-1.29.15c-1.34,0-1.92-.7-1.92-2.12v-5.41h-1.5Z"/>
        <path class="cls-52" d="M702.12,361.29a13.25,13.25,0,0,0,.12,1.89h-1.43a4.5,4.5,0,0,1-.14-1.12,2.75,2.75,0,0,1-2.67,1.33,2.61,2.61,0,0,1-2.91-2.63c0-1.92,1.51-2.8,4.08-2.8h1.46v-.73c0-.76-.24-1.68-1.85-1.68-1.43,0-1.68.71-1.84,1.38H695.5c.12-1.19.85-2.55,3.33-2.55,2.11,0,3.28.87,3.28,2.82ZM700.65,359h-1.39c-1.72,0-2.63.48-2.63,1.68a1.51,1.51,0,0,0,1.68,1.55c2.07,0,2.35-1.39,2.35-3Z"/>
        <path class="cls-52" d="M705.45,356.78c0-.75,0-1.53,0-2.23h1.43a13,13,0,0,1,.07,1.33,2.66,2.66,0,0,1,2.5-1.53,2.38,2.38,0,0,1,2.4,1.55,2.93,2.93,0,0,1,2.74-1.55c1.41,0,2.72.83,2.72,3.16v5.66h-1.46v-5.49c0-1-.36-2-1.7-2s-2,1.05-2,2.58v4.95h-1.46v-5.44c0-1.1-.31-2.09-1.67-2.09s-2,1.12-2,2.75v4.78h-1.48Z"/>
        <path class="cls-52" d="M728.13,358.84c0,2.5-1.43,4.54-4.06,4.54-2.46,0-4-1.9-4-4.5s1.46-4.52,4.06-4.52C726.56,354.35,728.13,356.14,728.13,358.84Zm-6.49,0c0,1.9,1,3.28,2.5,3.28s2.46-1.31,2.46-3.26-.88-3.28-2.5-3.28S721.63,356.9,721.63,358.86Z"/>
        <path class="cls-52" d="M737.85,360.66c0,.85,0,2,0,2.52h-1.45c0-.22-.05-.75-.07-1.29a2.55,2.55,0,0,1-2.6,1.5c-1.46,0-2.86-.73-2.86-3.16v-5.66h1.48v5.35c0,1.12.36,2.18,1.79,2.18,1.58,0,2.19-.88,2.19-3v-4.49h1.5Z"/>
        <path class="cls-52" d="M741.18,356.73c0-.75,0-1.51,0-2.18h1.45a13.13,13.13,0,0,1,.07,1.41,2.7,2.7,0,0,1,2.7-1.62c1.63,0,2.89,1,2.89,3.28v5.54h-1.5v-5.35c0-1.31-.51-2.18-1.82-2.18-1.63,0-2.28,1.24-2.28,3v4.56h-1.5Z"/>
        <path class="cls-52" d="M750.52,354.56H752V352h1.48v2.55h1.9v1.21h-1.9v5c0,.85.2,1.27,1,1.27a3.89,3.89,0,0,0,.75-.07v1.12a4,4,0,0,1-1.29.15c-1.34,0-1.92-.7-1.92-2.12v-5.41h-1.5Z"/>
      </g>
      <g>
        <path class="cls-52" d="M625.69,379.83c0,2.5-1.43,4.54-4.06,4.54-2.46,0-4-1.9-4-4.5s1.46-4.52,4.06-4.52C624.12,375.35,625.69,377.13,625.69,379.83Zm-6.49,0c0,1.9,1,3.28,2.5,3.28s2.46-1.31,2.46-3.26-.88-3.28-2.5-3.28S619.19,377.9,619.19,379.85Z"/>
        <path class="cls-52" d="M628.76,384.17v-7.41h-1.38v-1.21h1.38v-1c0-1.58.61-3,2.52-3a3.82,3.82,0,0,1,1,.1v1.28a3.55,3.55,0,0,0-.75-.08c-.88,0-1.22.54-1.22,1.8v.93H632v1.21h-1.73v7.41Z"/>
        <path class="cls-52" d="M639.66,371.69h1.5v5.08a2.81,2.81,0,0,1,2.74-1.43c2.18,0,3.54,1.79,3.54,4.33s-1.33,4.69-3.76,4.69a2.51,2.51,0,0,1-2.53-1.34,9,9,0,0,1-.07,1.14h-1.43c0-1,0-1.94,0-2.89Zm3.89,4.91c-1.84,0-2.48,1.22-2.48,3.28,0,1.8.58,3.23,2.4,3.23,1.53,0,2.43-1.31,2.43-3.4C645.9,377.85,645,376.6,643.55,376.6Z"/>
        <path class="cls-52" d="M657.8,379.83c0,2.5-1.43,4.54-4.06,4.54-2.46,0-4-1.9-4-4.5s1.46-4.52,4.06-4.52C656.23,375.35,657.8,377.13,657.8,379.83Zm-6.49,0c0,1.9,1,3.28,2.5,3.28s2.46-1.31,2.46-3.26-.88-3.28-2.5-3.28S651.3,377.9,651.3,379.85Z"/>
        <path class="cls-52" d="M668.13,379.83c0,2.5-1.43,4.54-4.06,4.54-2.46,0-4-1.9-4-4.5s1.46-4.52,4.06-4.52C666.57,375.35,668.13,377.13,668.13,379.83Zm-6.49,0c0,1.9,1,3.28,2.5,3.28s2.46-1.31,2.46-3.26-.88-3.28-2.5-3.28S661.64,377.9,661.64,379.85Z"/>
        <path class="cls-52" d="M672.47,379.66c.71-.85,2.62-2.84,3.77-4.11H678l-3.25,3.35,3.62,5.27h-1.75l-2.89-4.3-1.29,1.24v3.06H671V371.69h1.5Z"/>
        <path class="cls-52" d="M681.22,381.7a2,2,0,0,0,2.11,1.5c1.26,0,1.75-.54,1.75-1.33s-.39-1.19-2-1.58c-2.46-.59-3-1.36-3-2.53s.9-2.41,3.11-2.41,3.14,1.29,3.25,2.48H685a1.72,1.72,0,0,0-1.87-1.33c-1.21,0-1.58.58-1.58,1.14s.36,1,1.94,1.34c2.62.63,3.14,1.5,3.14,2.77,0,1.51-1.21,2.62-3.35,2.62s-3.33-1.12-3.55-2.67Z"/>
        <path class="cls-52" d="M701.3,382.28a13.4,13.4,0,0,0,.12,1.89H700a4.44,4.44,0,0,1-.14-1.12,2.74,2.74,0,0,1-2.67,1.33,2.61,2.61,0,0,1-2.91-2.63c0-1.92,1.51-2.8,4.08-2.8h1.46v-.73c0-.76-.24-1.68-1.85-1.68-1.43,0-1.68.71-1.84,1.38h-1.44c.12-1.19.85-2.55,3.33-2.55,2.11,0,3.28.87,3.28,2.82ZM699.84,380h-1.39c-1.72,0-2.63.48-2.63,1.68a1.51,1.51,0,0,0,1.68,1.55c2.07,0,2.35-1.39,2.35-3Z"/>
        <path class="cls-52" d="M704.63,377.73c0-.75,0-1.51,0-2.18h1.44a12.88,12.88,0,0,1,.07,1.41,2.7,2.7,0,0,1,2.7-1.62c1.63,0,2.89,1,2.89,3.28v5.54h-1.5v-5.35c0-1.31-.51-2.18-1.82-2.18-1.63,0-2.28,1.24-2.28,3v4.56h-1.5Z"/>
        <path class="cls-52" d="M722.31,371.69v10c0,.8,0,1.6,0,2.43H720.9a8.48,8.48,0,0,1-.08-1.22,2.69,2.69,0,0,1-2.7,1.43c-2.23,0-3.59-1.8-3.59-4.42s1.48-4.61,3.86-4.61c1.53,0,2.21.61,2.43,1.11v-4.76Zm-3.89,11.42c2,0,2.46-1.5,2.46-3.38s-.41-3.13-2.35-3.13c-1.53,0-2.46,1.21-2.46,3.3S717.06,383.12,718.42,383.12Z"/>
      </g>
      <g>
        <path class="cls-52" d="M618.28,398.77c0-.75,0-1.53,0-2.23h1.43c0,.25.07.88.07,1.33a2.66,2.66,0,0,1,2.5-1.53,2.38,2.38,0,0,1,2.4,1.55,2.93,2.93,0,0,1,2.74-1.55c1.41,0,2.72.83,2.72,3.16v5.66h-1.46v-5.49c0-1-.36-2-1.7-2s-2,1.05-2,2.58v4.95h-1.46v-5.44c0-1.1-.31-2.09-1.67-2.09s-2,1.12-2,2.75v4.78h-1.48Z"/>
        <path class="cls-52" d="M639.93,403.28a13.4,13.4,0,0,0,.12,1.89h-1.43a4.41,4.41,0,0,1-.14-1.12,2.74,2.74,0,0,1-2.67,1.33,2.61,2.61,0,0,1-2.91-2.63c0-1.92,1.51-2.8,4.08-2.8h1.46v-.73c0-.76-.24-1.68-1.85-1.68-1.43,0-1.68.71-1.84,1.38h-1.44c.12-1.19.85-2.55,3.33-2.55,2.11,0,3.28.87,3.28,2.82ZM638.47,401h-1.39c-1.72,0-2.63.48-2.63,1.68a1.51,1.51,0,0,0,1.68,1.55c2.07,0,2.35-1.39,2.35-3Z"/>
        <path class="cls-52" d="M650.44,404.38c0,2.77-1.14,4.33-4,4.33-2.62,0-3.42-1.46-3.57-2.63h1.51a2,2,0,0,0,2.13,1.44c2,0,2.43-1.24,2.43-3.21v-.7a2.64,2.64,0,0,1-2.69,1.51c-2.12,0-3.57-1.73-3.57-4.27,0-2.8,1.65-4.52,3.72-4.52,1.65,0,2.35.76,2.53,1.34,0-.39.07-1,.08-1.14h1.39c0,.49,0,1.67,0,2.48Zm-3.81-.53c1.85,0,2.4-1.26,2.4-3.16s-.51-3.09-2.35-3.09c-1.6,0-2.41,1.34-2.41,3.2S645.22,403.85,646.63,403.85Z"/>
        <path class="cls-52" d="M660.25,403.28a13.4,13.4,0,0,0,.12,1.89h-1.43a4.41,4.41,0,0,1-.14-1.12,2.74,2.74,0,0,1-2.67,1.33,2.61,2.61,0,0,1-2.91-2.63c0-1.92,1.51-2.8,4.08-2.8h1.46v-.73c0-.76-.24-1.68-1.85-1.68-1.43,0-1.68.71-1.84,1.38h-1.44c.12-1.19.85-2.55,3.33-2.55,2.11,0,3.28.87,3.28,2.82ZM658.79,401h-1.39c-1.72,0-2.63.48-2.63,1.68a1.51,1.51,0,0,0,1.68,1.55c2.07,0,2.35-1.39,2.35-3Z"/>
        <path class="cls-52" d="M662.81,404l5-6.15h-4.71v-1.26h6.41v1.24l-4.9,6.12h5.13l-.24,1.26h-6.66Z"/>
        <path class="cls-52" d="M672.18,394.54v-1.85h1.5v1.85Zm0,2h1.5v8.62h-1.5Z"/>
        <path class="cls-52" d="M677,398.72c0-.75,0-1.51,0-2.18h1.44a12.88,12.88,0,0,1,.07,1.41,2.7,2.7,0,0,1,2.7-1.62c1.63,0,2.89,1,2.89,3.28v5.54h-1.5v-5.35c0-1.31-.51-2.18-1.82-2.18-1.63,0-2.28,1.24-2.28,3v4.56H677Z"/>
        <path class="cls-52" d="M688.37,401.12c0,1.75.9,3,2.36,3a2,2,0,0,0,2.07-1.34h1.51a3.52,3.52,0,0,1-3.64,2.58c-2.7,0-3.81-2.21-3.81-4.42,0-2.57,1.29-4.61,3.91-4.61,2.79,0,3.69,2.23,3.69,4.06,0,.27,0,.49,0,.71Zm4.59-1c0-1.43-.73-2.57-2.19-2.57s-2.19,1.05-2.35,2.57Z"/>
        <path class="cls-52" d="M698.11,402.7a2,2,0,0,0,2.11,1.5c1.26,0,1.75-.54,1.75-1.33s-.39-1.19-2-1.58c-2.46-.59-3-1.36-3-2.53s.9-2.41,3.11-2.41,3.14,1.29,3.25,2.48h-1.43A1.72,1.72,0,0,0,700,397.5c-1.21,0-1.58.58-1.58,1.14s.36,1,1.94,1.34c2.62.63,3.14,1.5,3.14,2.77,0,1.51-1.21,2.62-3.35,2.62s-3.33-1.12-3.55-2.67Z"/>
        <path class="cls-52" d="M706.35,405.16v-2.52h1.56v2.52Z"/>
      </g>
    </g>
  </g>
</svg>
