<svg id="average" xmlns="http://www.w3.org/2000/svg" xmlns:xlink="http://www.w3.org/1999/xlink" viewBox="0 0 798.69 725.76">
  <defs>
    <style>
      .cls-1 {
        fill: none;
      }

      .cls-2 {
        fill: #ffd600;
      }

      .cls-3 {
        fill: #ffb04e;
      }

      .cls-4 {
        fill: #f98675;
      }

      .cls-5 {
        fill: #e95f93;
      }

      .cls-6 {
        fill: #cc34b4;
      }

      .cls-7 {
        fill: #e84524;
      }

      .cls-8 {
        fill: #eb6d20;
      }

      .cls-9 {
        fill: #12e17e;
      }

      .cls-10 {
        fill: #29cef4;
      }

      .cls-11 {
        fill: #a9a9a9;
      }

      .cls-12 {
        fill: #9c02d6;
      }

      .cls-13 {
        fill: #0664ff;
      }

      .cls-14 {
        clip-path: url(#clip-path);
      }

      .cls-15 {
        clip-path: url(#clip-path-2);
      }

      .cls-16 {
        fill: #055ef2;
      }

      .cls-17 {
        clip-path: url(#clip-path-3);
      }

      .cls-18 {
        fill: #0563fc;
      }

      .cls-19 {
        fill: #0561f7;
      }

      .cls-20 {
        fill: #9403cc;
      }

      .cls-21 {
        fill: #9903d1;
      }

      .cls-22 {
        fill: #9c03d4;
      }

      .cls-23 {
        fill: #a8a8a8;
      }

      .cls-24 {
        fill: #a3a3a3;
      }

      .cls-25 {
        fill: #a6a6a6;
      }

      .cls-26 {
        fill: #29ccf2;
      }

      .cls-27 {
        fill: #26c4e8;
      }

      .cls-28 {
        fill: #29c9ed;
      }

      .cls-29 {
        fill: #12de7d;
      }

      .cls-30 {
        fill: #12d678;
      }

      .cls-31 {
        fill: #12db7a;
      }

      .cls-32 {
        fill: #e86b21;
      }

      .cls-33 {
        fill: #e0691f;
      }

      .cls-34 {
        fill: #e56b1f;
      }

      .cls-35 {
        fill: #e54524;
      }

      .cls-36 {
        fill: #de4221;
      }

      .cls-37 {
        fill: #e34224;
      }

      .cls-38 {
        fill: #c933b2;
      }

      .cls-39 {
        fill: #c230ab;
      }

      .cls-40 {
        fill: #c733b0;
      }

      .cls-41 {
        fill: #e85e91;
      }

      .cls-42 {
        fill: #de598c;
      }

      .cls-43 {
        fill: #e35c8f;
      }

      .cls-44 {
        fill: #f78573;
      }

      .cls-45 {
        fill: #ed8070;
      }

      .cls-46 {
        fill: #f28273;
      }

      .cls-47 {
        fill: #fcb04d;
      }

      .cls-48 {
        fill: #f2a84a;
      }

      .cls-49 {
        fill: #f7ab4d;
      }

      .cls-50 {
        fill: #fcd400;
      }

      .cls-51 {
        fill: #f2cc00;
      }

      .cls-52 {
        fill: #f7d100;
      }

      .cls-53 {
        fill: #fff;
      }

      .cls-54 {
        fill: #231f20;
      }
    </style>
    <clipPath id="clip-path">
      <path class="cls-1" d="M125.16,466.31l186,101.21a2,2,0,0,1-1.16-1.73L124,464.57a2,2,0,0,0,1.16,1.73"/>
    </clipPath>
    <clipPath id="clip-path-2">
      <rect class="cls-1" x="336.54" y="23.94" width="337" height="333"/>
    </clipPath>
    <clipPath id="clip-path-3">
      <rect class="cls-1" x="124" y="24.22" width="550" height="543.78"/>
    </clipPath>
  </defs>
  <title>storagecontents</title>
  <g>
    <path class="cls-2" d="M10.31,589.51H12.7v4.29h4.45v-4.29h2.38v11H17.15v-4.77H12.7v4.77H10.31Z"/>
    <path class="cls-2" d="M33.26,595c0,3.07-1.84,5.71-5.43,5.71s-5.28-2.51-5.28-5.68,2-5.67,5.43-5.67C31.21,589.35,33.26,591.6,33.26,595ZM25,595c0,2.16.94,3.79,2.9,3.79,2.13,0,2.88-1.78,2.88-3.75s-.86-3.73-2.91-3.73S25,592.82,25,595Z"/>
    <path class="cls-2" d="M38.54,589.51v6.56c0,2.13,1.09,2.75,2.29,2.75,1.36,0,2.21-.74,2.21-2.75v-6.56h2.4V596c0,3.78-2.21,4.74-4.64,4.74s-4.64-1-4.64-4.69v-6.5Z"/>
    <path class="cls-2" d="M50.49,597.3a2.05,2.05,0,0,0,2.32,1.6c1.28,0,1.82-.51,1.82-1.31s-.53-1.3-2.42-1.73c-3-.7-3.75-1.81-3.75-3.3,0-1.92,1.44-3.22,4-3.22,2.93,0,4.1,1.57,4.26,3.19h-2.4c-.13-.69-.5-1.42-1.92-1.42-1,0-1.55.4-1.55,1.18s.46,1.09,2.26,1.49c3.2.77,3.91,2,3.91,3.52,0,2-1.52,3.39-4.43,3.39s-4.29-1.38-4.55-3.39Z"/>
    <path class="cls-2" d="M67.64,595.78H62.36v2.8h5.83l-.29,2H60v-11h7.83v2H62.36v2.35h5.28Z"/>
    <path class="cls-2" d="M72.89,600.53l-2.82-11h2.54c1,5.06,1.5,7.31,1.63,8.53h0c.42-2,1.49-5.87,2.13-8.53h2.15c.58,2.11,1.68,6.39,2,8.42h0c.37-2.43,1.44-6.71,1.84-8.42h2.31l-3,11H79.29c-.58-2.45-1.55-6-1.94-7.91h0c-.4,2-1.39,5.68-2,7.91Z"/>
    <path class="cls-2" d="M88.84,598,88,600.53H85.64l3.75-11h3l3.92,11H93.79L92.87,598Zm3.52-2c-.78-2.34-1.28-3.83-1.55-4.82h0c-.27,1.09-.82,2.82-1.44,4.82Z"/>
    <path class="cls-2" d="M101.08,596.12v4.42H98.74v-11h4.85c2.4,0,3.7,1.31,3.7,3a2.65,2.65,0,0,1-1.6,2.61c.54.21,1.38.77,1.38,2.75v.54a8.32,8.32,0,0,0,.16,2.1H105a7.9,7.9,0,0,1-.22-2.48v-.16c0-1.2-.3-1.78-2.08-1.78Zm0-1.9h2c1.3,0,1.81-.5,1.81-1.41s-.59-1.41-1.76-1.41h-2Z"/>
    <path class="cls-2" d="M118.06,595.78h-5.28v2.8h5.83l-.29,2h-7.86v-11h7.83v2h-5.51v2.35h5.28Z"/>
  </g>
  <g>
    <path class="cls-2" d="M124.23,600.53v-2.82h2.45v2.82Z"/>
    <path class="cls-2" d="M129.21,600.53v-2.82h2.45v2.82Z"/>
    <path class="cls-2" d="M134.18,600.53v-2.82h2.45v2.82Z"/>
    <path class="cls-2" d="M139.16,600.53v-2.82h2.45v2.82Z"/>
    <path class="cls-2" d="M144.14,600.53v-2.82h2.45v2.82Z"/>
    <path class="cls-2" d="M149.11,600.53v-2.82h2.45v2.82Z"/>
    <path class="cls-2" d="M154.09,600.53v-2.82h2.45v2.82Z"/>
    <path class="cls-2" d="M159.06,600.53v-2.82h2.45v2.82Z"/>
    <path class="cls-2" d="M164,600.53v-2.82h2.45v2.82Z"/>
    <path class="cls-2" d="M169,600.53v-2.82h2.45v2.82Z"/>
    <path class="cls-2" d="M174,600.53v-2.82h2.45v2.82Z"/>
    <path class="cls-2" d="M179,600.53v-2.82h2.45v2.82Z"/>
    <path class="cls-2" d="M183.94,600.53v-2.82h2.45v2.82Z"/>
    <path class="cls-2" d="M188.92,600.53v-2.82h2.45v2.82Z"/>
    <path class="cls-2" d="M193.89,600.53v-2.82h2.45v2.82Z"/>
    <path class="cls-2" d="M198.87,600.53v-2.82h2.45v2.82Z"/>
    <path class="cls-2" d="M203.85,600.53v-2.82h2.45v2.82Z"/>
    <path class="cls-2" d="M208.82,600.53v-2.82h2.45v2.82Z"/>
    <path class="cls-2" d="M213.8,600.53v-2.82h2.45v2.82Z"/>
    <path class="cls-2" d="M218.77,600.53v-2.82h2.45v2.82Z"/>
    <path class="cls-2" d="M223.75,600.53v-2.82h2.45v2.82Z"/>
    <path class="cls-2" d="M228.73,600.53v-2.82h2.45v2.82Z"/>
    <path class="cls-2" d="M233.7,600.53v-2.82h2.45v2.82Z"/>
    <path class="cls-2" d="M238.68,600.53v-2.82h2.45v2.82Z"/>
    <path class="cls-2" d="M243.65,600.53v-2.82h2.45v2.82Z"/>
    <path class="cls-2" d="M248.63,600.53v-2.82h2.45v2.82Z"/>
    <path class="cls-2" d="M253.6,600.53v-2.82h2.45v2.82Z"/>
    <path class="cls-2" d="M258.58,600.53v-2.82H261v2.82Z"/>
    <path class="cls-2" d="M263.56,600.53v-2.82H266v2.82Z"/>
    <path class="cls-2" d="M268.53,600.53v-2.82H271v2.82Z"/>
    <path class="cls-2" d="M273.51,600.53v-2.82H276v2.82Z"/>
    <path class="cls-2" d="M278.48,600.53v-2.82h2.45v2.82Z"/>
    <path class="cls-2" d="M283.46,600.53v-2.82h2.45v2.82Z"/>
    <path class="cls-2" d="M288.44,600.53v-2.82h2.45v2.82Z"/>
    <path class="cls-2" d="M293.41,600.53v-2.82h2.45v2.82Z"/>
    <path class="cls-2" d="M298.39,600.53v-2.82h2.45v2.82Z"/>
    <path class="cls-2" d="M303.36,600.53v-2.82h2.45v2.82Z"/>
    <path class="cls-2" d="M308.34,600.53v-2.82h2.45v2.82Z"/>
    <path class="cls-2" d="M313.32,600.53v-2.82h2.45v2.82Z"/>
    <path class="cls-2" d="M318.29,600.53v-2.82h2.45v2.82Z"/>
    <path class="cls-2" d="M323.27,600.53v-2.82h2.45v2.82Z"/>
    <path class="cls-2" d="M328.24,600.53v-2.82h2.45v2.82Z"/>
  </g>
  <path class="cls-2" d="M333.16,600.53v-.14c0-1.82.53-3.39,3.41-5.44,1.49-1.06,1.87-1.33,1.87-2.27a1.31,1.31,0,0,0-1.38-1.49c-1,0-1.42.59-1.58,1.58h-2.35a3.61,3.61,0,0,1,3.94-3.43c2.85,0,3.78,1.76,3.78,3.28,0,1.7-.67,2.42-2.74,3.79-1.41.93-2,1.62-2.21,2.21h5.38l-.3,1.9Zm10.32,0v-.14c0-1.82.53-3.39,3.41-5.44,1.49-1.06,1.87-1.33,1.87-2.27a1.31,1.31,0,0,0-1.38-1.49c-1,0-1.42.59-1.58,1.58h-2.35a3.61,3.61,0,0,1,3.94-3.43c2.85,0,3.78,1.76,3.78,3.28,0,1.7-.67,2.42-2.74,3.79-1.41.93-2,1.62-2.21,2.21h5.38l-.3,1.9Z"/>
  <path class="cls-2" d="M354.22,600.53v-2.82h2.45v2.82Z"/>
  <path class="cls-2" d="M367.44,594.95c0,2.83-1,5.78-4.24,5.78S359,598,359,595c0-2.77,1.12-5.67,4.29-5.67S367.44,592,367.44,594.95Zm-6.08,0c0,2.21.4,3.86,1.86,3.86S365,597.14,365,595s-.37-3.78-1.78-3.78S361.35,592.61,361.35,595Zm14-2.16a2.75,2.75,0,0,1-2.85,3c-1.7,0-2.83-1-2.83-3a2.77,2.77,0,0,1,2.85-3A2.7,2.7,0,0,1,375.4,592.83Zm-3.91,0c0,1,.38,1.6,1.09,1.6s1.09-.5,1.09-1.6-.45-1.58-1.1-1.58S371.49,591.76,371.49,592.83Zm1,7.7L379,590h1.68l-6.48,10.55Zm11-2.85a2.76,2.76,0,0,1-2.85,3.06c-1.71,0-2.83-1.06-2.83-3a2.76,2.76,0,0,1,2.85-3A2.69,2.69,0,0,1,383.5,597.68Zm-3.92,0c0,1,.38,1.62,1.09,1.62s1.1-.51,1.1-1.62-.45-1.57-1.1-1.57S379.58,596.63,379.58,597.68Z"/>
  <g>
    <path class="cls-3" d="M10.31,613.51H18v2H12.65v2.71h5v2h-5v4.42H10.31Z"/>
    <path class="cls-3" d="M23,613.51v6.56c0,2.13,1.09,2.75,2.29,2.75,1.36,0,2.21-.74,2.21-2.75v-6.56h2.4V620c0,3.78-2.21,4.74-4.64,4.74s-4.64-1-4.64-4.69v-6.5Z"/>
    <path class="cls-3" d="M35.71,620.12v4.42H33.37v-11h4.85c2.4,0,3.7,1.31,3.7,3a2.65,2.65,0,0,1-1.6,2.61c.54.21,1.38.77,1.38,2.75v.54a8.32,8.32,0,0,0,.16,2.1H39.58a7.9,7.9,0,0,1-.22-2.48v-.16c0-1.2-.3-1.78-2.08-1.78Zm0-1.9h2c1.3,0,1.81-.5,1.81-1.41s-.59-1.41-1.76-1.41h-2Z"/>
    <path class="cls-3" d="M45.08,624.53v-11h3c1.38,2.46,3.92,6.95,4.43,8.15h0c-.13-1.15-.13-3.07-.13-4.88v-3.27h2.16v11h-2.8c-1.18-2.16-4-7.28-4.56-8.56h0c.08,1,.11,3.23.11,5.2v3.36Z"/>
    <path class="cls-3" d="M60.5,613.51v11H58.12v-11Z"/>
    <path class="cls-3" d="M66.26,615.46H62.9v-2H72v2H68.65v9.08H66.26Z"/>
    <path class="cls-3" d="M76.73,613.51v6.56c0,2.13,1.09,2.75,2.29,2.75,1.36,0,2.21-.74,2.21-2.75v-6.56h2.4V620c0,3.78-2.21,4.74-4.64,4.74s-4.64-1-4.64-4.69v-6.5Z"/>
    <path class="cls-3" d="M89.45,620.12v4.42H87.11v-11H92c2.4,0,3.7,1.31,3.7,3a2.65,2.65,0,0,1-1.6,2.61c.54.21,1.38.77,1.38,2.75v.54a8.32,8.32,0,0,0,.16,2.1H93.32a7.9,7.9,0,0,1-.22-2.48v-.16c0-1.2-.3-1.78-2.08-1.78Zm0-1.9h2c1.3,0,1.81-.5,1.81-1.41s-.59-1.41-1.76-1.41h-2Z"/>
    <path class="cls-3" d="M106.43,619.78h-5.28v2.8H107l-.29,2H98.82v-11h7.83v2h-5.51v2.35h5.28Z"/>
  </g>
  <g>
    <path class="cls-3" d="M109.3,624.53v-2.82h2.45v2.82Z"/>
    <path class="cls-3" d="M114.28,624.53v-2.82h2.45v2.82Z"/>
    <path class="cls-3" d="M119.26,624.53v-2.82h2.45v2.82Z"/>
    <path class="cls-3" d="M124.23,624.53v-2.82h2.45v2.82Z"/>
    <path class="cls-3" d="M129.21,624.53v-2.82h2.45v2.82Z"/>
    <path class="cls-3" d="M134.18,624.53v-2.82h2.45v2.82Z"/>
    <path class="cls-3" d="M139.16,624.53v-2.82h2.45v2.82Z"/>
    <path class="cls-3" d="M144.14,624.53v-2.82h2.45v2.82Z"/>
    <path class="cls-3" d="M149.11,624.53v-2.82h2.45v2.82Z"/>
    <path class="cls-3" d="M154.09,624.53v-2.82h2.45v2.82Z"/>
    <path class="cls-3" d="M159.06,624.53v-2.82h2.45v2.82Z"/>
    <path class="cls-3" d="M164,624.53v-2.82h2.45v2.82Z"/>
    <path class="cls-3" d="M169,624.53v-2.82h2.45v2.82Z"/>
    <path class="cls-3" d="M174,624.53v-2.82h2.45v2.82Z"/>
    <path class="cls-3" d="M179,624.53v-2.82h2.45v2.82Z"/>
    <path class="cls-3" d="M183.94,624.53v-2.82h2.45v2.82Z"/>
    <path class="cls-3" d="M188.92,624.53v-2.82h2.45v2.82Z"/>
    <path class="cls-3" d="M193.89,624.53v-2.82h2.45v2.82Z"/>
    <path class="cls-3" d="M198.87,624.53v-2.82h2.45v2.82Z"/>
    <path class="cls-3" d="M203.85,624.53v-2.82h2.45v2.82Z"/>
    <path class="cls-3" d="M208.82,624.53v-2.82h2.45v2.82Z"/>
    <path class="cls-3" d="M213.8,624.53v-2.82h2.45v2.82Z"/>
    <path class="cls-3" d="M218.77,624.53v-2.82h2.45v2.82Z"/>
    <path class="cls-3" d="M223.75,624.53v-2.82h2.45v2.82Z"/>
    <path class="cls-3" d="M228.73,624.53v-2.82h2.45v2.82Z"/>
    <path class="cls-3" d="M233.7,624.53v-2.82h2.45v2.82Z"/>
    <path class="cls-3" d="M238.68,624.53v-2.82h2.45v2.82Z"/>
    <path class="cls-3" d="M243.65,624.53v-2.82h2.45v2.82Z"/>
    <path class="cls-3" d="M248.63,624.53v-2.82h2.45v2.82Z"/>
    <path class="cls-3" d="M253.6,624.53v-2.82h2.45v2.82Z"/>
    <path class="cls-3" d="M258.58,624.53v-2.82H261v2.82Z"/>
    <path class="cls-3" d="M263.56,624.53v-2.82H266v2.82Z"/>
    <path class="cls-3" d="M268.53,624.53v-2.82H271v2.82Z"/>
    <path class="cls-3" d="M273.51,624.53v-2.82H276v2.82Z"/>
    <path class="cls-3" d="M278.48,624.53v-2.82h2.45v2.82Z"/>
    <path class="cls-3" d="M283.46,624.53v-2.82h2.45v2.82Z"/>
    <path class="cls-3" d="M288.44,624.53v-2.82h2.45v2.82Z"/>
    <path class="cls-3" d="M293.41,624.53v-2.82h2.45v2.82Z"/>
    <path class="cls-3" d="M298.39,624.53v-2.82h2.45v2.82Z"/>
    <path class="cls-3" d="M303.36,624.53v-2.82h2.45v2.82Z"/>
    <path class="cls-3" d="M308.34,624.53v-2.82h2.45v2.82Z"/>
    <path class="cls-3" d="M313.31,624.53v-2.82h2.45v2.82Z"/>
    <path class="cls-3" d="M318.29,624.53v-2.82h2.45v2.82Z"/>
    <path class="cls-3" d="M323.27,624.53v-2.82h2.45v2.82Z"/>
    <path class="cls-3" d="M328.24,624.53v-2.82h2.45v2.82Z"/>
  </g>
  <path class="cls-3" d="M338.83,624.53v-8.26a7,7,0,0,1-2.06.38V615a5.54,5.54,0,0,0,2.8-1.49h1.66v11Zm5.3-8.08a3.53,3.53,0,0,1,3.84-3.11c2.51,0,3.71,1.38,3.71,2.93a2.24,2.24,0,0,1-1.39,2.22v0a2.62,2.62,0,0,1,1.78,2.66c0,1.73-1.09,3.57-4.15,3.54-2.59,0-3.91-1.62-4-3.27h2.27a1.72,1.72,0,0,0,1.84,1.46,1.55,1.55,0,0,0,1.73-1.68c0-1-.42-1.74-1.94-1.74H347v-1.76h.75c1.1,0,1.63-.32,1.63-1.25a1.27,1.27,0,0,0-1.44-1.34,1.47,1.47,0,0,0-1.6,1.31Z"/>
  <path class="cls-3" d="M354.62,624.53v-2.82h2.45v2.82Z"/>
  <path class="cls-3" d="M367.18,615.38h-4.56c-.08.8-.21,1.71-.29,2.18a3,3,0,0,1,2-.58,3.4,3.4,0,0,1,3.46,3.68,3.81,3.81,0,0,1-4.16,4.07,3.7,3.7,0,0,1-4-3.17h2.29a1.7,1.7,0,0,0,1.76,1.34c1.28,0,1.79-.82,1.79-2,0-1-.4-2.06-1.78-2.06a1.63,1.63,0,0,0-1.74,1.17l-2.11-.32c.29-1.31.72-4.63.86-6.13h6.77Zm8.22,1.46a2.75,2.75,0,0,1-2.85,3c-1.7,0-2.83-1-2.83-3a2.77,2.77,0,0,1,2.85-3A2.7,2.7,0,0,1,375.4,616.83Zm-3.91,0c0,1,.38,1.6,1.09,1.6s1.09-.5,1.09-1.6-.45-1.58-1.1-1.58S371.5,615.76,371.5,616.83Zm1,7.7L379,614h1.68l-6.48,10.55Zm11-2.85a2.76,2.76,0,0,1-2.85,3.06c-1.71,0-2.83-1.06-2.83-3a2.76,2.76,0,0,1,2.85-3A2.69,2.69,0,0,1,383.5,621.68Zm-3.92,0c0,1,.38,1.62,1.09,1.62s1.1-.51,1.1-1.62-.45-1.57-1.1-1.57S379.58,620.63,379.58,621.68Z"/>
  <g>
    <path class="cls-4" d="M10.31,637.51H12.7v4.29h4.45v-4.29h2.38v11H17.15v-4.77H12.7v4.77H10.31Z"/>
    <path class="cls-4" d="M33.26,643c0,3.07-1.84,5.71-5.43,5.71s-5.28-2.51-5.28-5.68,2-5.67,5.43-5.67C31.21,637.35,33.26,639.6,33.26,643ZM25,643c0,2.16.94,3.79,2.9,3.79,2.13,0,2.88-1.78,2.88-3.75s-.86-3.73-2.91-3.73S25,640.82,25,643Z"/>
    <path class="cls-4" d="M36.28,637.51H41.1c2.67,0,3.68,1.38,3.68,2.82a2.49,2.49,0,0,1-1.41,2.38,2.65,2.65,0,0,1,1.73,2.53c0,1.89-1.49,3.3-3.83,3.3h-5Zm4.55,4.35c1.14,0,1.6-.51,1.6-1.3s-.61-1.22-1.52-1.22H38.62v2.51Zm-2.21,4.83h2.16c1.3,0,1.87-.54,1.87-1.54s-.58-1.46-1.89-1.46H38.62Z"/>
    <path class="cls-4" d="M48.14,637.51H53c2.67,0,3.68,1.38,3.68,2.82a2.49,2.49,0,0,1-1.41,2.38A2.65,2.65,0,0,1,57,645.24c0,1.89-1.49,3.3-3.83,3.3h-5Zm4.55,4.35c1.14,0,1.6-.51,1.6-1.3s-.61-1.22-1.52-1.22H50.47v2.51Zm-2.21,4.83h2.16c1.3,0,1.87-.54,1.87-1.54s-.58-1.46-1.89-1.46H50.47Z"/>
    <path class="cls-4" d="M62.15,648.53v-3.91a.62.62,0,0,0-.1-.35l-3.81-6.77H61c.85,1.66,2,3.87,2.51,5.07.48-1.15,1.68-3.49,2.51-5.07h2.5l-3.86,6.74a.65.65,0,0,0-.08.35v3.94Z"/>
    <path class="cls-4" d="M77.75,644.12v4.42H75.42v-11h4.85c2.4,0,3.7,1.31,3.7,3a2.65,2.65,0,0,1-1.6,2.61c.54.21,1.38.77,1.38,2.75v.54a8.32,8.32,0,0,0,.16,2.1H81.63a7.9,7.9,0,0,1-.22-2.48v-.16c0-1.2-.3-1.78-2.08-1.78Zm0-1.9h2c1.3,0,1.81-.5,1.81-1.41s-.59-1.41-1.76-1.41h-2Z"/>
    <path class="cls-4" d="M94.73,643.78H89.45v2.8h5.83l-.29,2H87.13v-11H95v2H89.45v2.35h5.28Z"/>
    <path class="cls-4" d="M98.17,637.51h2.38v9.08h5.51l-.27,2H98.17Z"/>
    <path class="cls-4" d="M111,646l-.85,2.54H107.8l3.75-11h3l3.92,11h-2.51L115,646Zm3.52-2c-.78-2.34-1.28-3.83-1.55-4.82h0c-.27,1.09-.82,2.82-1.44,4.82Z"/>
    <path class="cls-4" d="M122.09,639.46h-3.36v-2h9.09v2h-3.35v9.08h-2.38Z"/>
    <path class="cls-4" d="M137.83,643.78h-5.28v2.8h5.83l-.29,2h-7.86v-11h7.83v2h-5.51v2.35h5.28Z"/>
    <path class="cls-4" d="M141.27,637.51h4.39a5,5,0,0,1,5.31,5.38c0,3.22-2,5.65-5.43,5.65h-4.27Zm2.38,9.11h1.79c2.11,0,3.06-1.58,3.06-3.73,0-1.81-.88-3.46-3-3.46h-1.81Z"/>
    <path class="cls-4" d="M169,643c0,3.07-1.84,5.71-5.43,5.71s-5.28-2.51-5.28-5.68,2-5.67,5.43-5.67C167,637.35,169,639.6,169,643Zm-8.24,0c0,2.16.94,3.79,2.9,3.79,2.13,0,2.88-1.78,2.88-3.75s-.86-3.73-2.91-3.73S160.76,640.82,160.76,643Z"/>
    <path class="cls-4" d="M172,637.51h4.82c2.67,0,3.68,1.38,3.68,2.82a2.49,2.49,0,0,1-1.41,2.38,2.65,2.65,0,0,1,1.73,2.53c0,1.89-1.49,3.3-3.83,3.3h-5Zm4.55,4.35c1.14,0,1.6-.51,1.6-1.3s-.61-1.22-1.52-1.22h-2.29v2.51Zm-2.21,4.83h2.16c1.3,0,1.87-.54,1.87-1.54s-.58-1.46-1.89-1.46h-2.15Z"/>
    <path class="cls-4" d="M187.74,645c0,2.54-.83,3.7-3.25,3.7a6.6,6.6,0,0,1-1.49-.14v-1.89a9.66,9.66,0,0,0,1.09.06c1.09,0,1.26-.74,1.26-1.57v-7.65h2.39Z"/>
    <path class="cls-4" d="M198.86,643.78h-5.28v2.8h5.83l-.29,2h-7.86v-11h7.83v2h-5.51v2.35h5.28Z"/>
    <path class="cls-4" d="M211.55,645.13c-.43,2.06-2,3.57-4.75,3.57-3.51,0-5.15-2.48-5.15-5.62s1.71-5.73,5.27-5.73c2.94,0,4.37,1.71,4.64,3.57h-2.38a2.18,2.18,0,0,0-2.34-1.71c-2,0-2.72,1.78-2.72,3.79,0,1.86.66,3.83,2.79,3.83a2.18,2.18,0,0,0,2.26-1.7Z"/>
    <path class="cls-4" d="M216.84,639.46h-3.36v-2h9.09v2h-3.35v9.08h-2.38Z"/>
    <path class="cls-4" d="M226.74,645.3a2.05,2.05,0,0,0,2.32,1.6c1.28,0,1.82-.51,1.82-1.31s-.53-1.3-2.42-1.73c-3-.7-3.75-1.81-3.75-3.3,0-1.92,1.44-3.22,4-3.22,2.93,0,4.1,1.57,4.26,3.19h-2.4c-.13-.69-.5-1.42-1.92-1.42-1,0-1.55.4-1.55,1.18s.46,1.09,2.26,1.49c3.2.77,3.91,2,3.91,3.52,0,2-1.52,3.39-4.43,3.39s-4.29-1.38-4.55-3.39Z"/>
  </g>
  <g>
    <path class="cls-4" d="M238.67,648.53v-2.82h2.45v2.82Z"/>
    <path class="cls-4" d="M243.65,648.53v-2.82h2.45v2.82Z"/>
    <path class="cls-4" d="M248.62,648.53v-2.82h2.45v2.82Z"/>
    <path class="cls-4" d="M253.6,648.53v-2.82H256v2.82Z"/>
    <path class="cls-4" d="M258.57,648.53v-2.82H261v2.82Z"/>
    <path class="cls-4" d="M263.55,648.53v-2.82H266v2.82Z"/>
    <path class="cls-4" d="M268.52,648.53v-2.82H271v2.82Z"/>
    <path class="cls-4" d="M273.5,648.53v-2.82h2.45v2.82Z"/>
    <path class="cls-4" d="M278.48,648.53v-2.82h2.45v2.82Z"/>
    <path class="cls-4" d="M283.45,648.53v-2.82h2.45v2.82Z"/>
    <path class="cls-4" d="M288.43,648.53v-2.82h2.45v2.82Z"/>
    <path class="cls-4" d="M293.4,648.53v-2.82h2.45v2.82Z"/>
    <path class="cls-4" d="M298.38,648.53v-2.82h2.45v2.82Z"/>
    <path class="cls-4" d="M303.36,648.53v-2.82h2.45v2.82Z"/>
    <path class="cls-4" d="M308.33,648.53v-2.82h2.45v2.82Z"/>
    <path class="cls-4" d="M313.31,648.53v-2.82h2.45v2.82Z"/>
    <path class="cls-4" d="M318.28,648.53v-2.82h2.45v2.82Z"/>
    <path class="cls-4" d="M323.26,648.53v-2.82h2.45v2.82Z"/>
    <path class="cls-4" d="M328.23,648.53v-2.82h2.45v2.82Z"/>
  </g>
  <path class="cls-4" d="M338.19,648.53v-8.26a7,7,0,0,1-2.06.38V639a5.54,5.54,0,0,0,2.8-1.49h1.66v11Zm5.29,0v-.14c0-1.82.53-3.39,3.41-5.44,1.49-1.06,1.87-1.33,1.87-2.27a1.31,1.31,0,0,0-1.38-1.49c-1,0-1.42.59-1.58,1.58h-2.35a3.61,3.61,0,0,1,3.94-3.43c2.85,0,3.78,1.76,3.78,3.28,0,1.7-.67,2.42-2.74,3.79-1.41.93-2,1.62-2.21,2.21h5.38l-.3,1.9Z"/>
  <path class="cls-4" d="M354.22,648.53v-2.82h2.45v2.82Z"/>
  <path class="cls-4" d="M367.44,642.95c0,2.83-1,5.78-4.24,5.78S359,646,359,643c0-2.77,1.12-5.67,4.29-5.67S367.44,640,367.44,642.95Zm-6.08,0c0,2.21.4,3.86,1.86,3.86S365,645.14,365,643s-.37-3.78-1.78-3.78S361.35,640.61,361.35,643Zm14-2.16a2.75,2.75,0,0,1-2.85,3c-1.7,0-2.83-1-2.83-3a2.77,2.77,0,0,1,2.85-3A2.7,2.7,0,0,1,375.4,640.83Zm-3.91,0c0,1,.38,1.6,1.09,1.6s1.09-.5,1.09-1.6-.45-1.58-1.1-1.58S371.49,639.76,371.49,640.83Zm1,7.7L379,638h1.68l-6.48,10.55Zm11-2.85a2.76,2.76,0,0,1-2.85,3.06c-1.71,0-2.83-1.06-2.83-3a2.76,2.76,0,0,1,2.85-3A2.69,2.69,0,0,1,383.5,645.68Zm-3.92,0c0,1,.38,1.62,1.09,1.62s1.1-.51,1.1-1.62-.45-1.57-1.1-1.57S379.58,644.63,379.58,645.68Z"/>
  <g>
    <path class="cls-5" d="M10.31,661.51h4.56c2.35,0,3.94,1.31,3.94,3.41,0,2.4-1.81,3.51-4,3.51H12.7v4.11H10.31Zm2.38,5h1.83c1.1,0,1.89-.43,1.89-1.55s-.83-1.57-1.84-1.57H12.7Z"/>
    <path class="cls-5" d="M29.08,667.78H23.8v2.8h5.83l-.29,2H21.48v-11h7.83v2H23.8v2.35h5.28Z"/>
    <path class="cls-5" d="M34.86,668.12v4.42H32.52v-11h4.85c2.4,0,3.7,1.31,3.7,3a2.65,2.65,0,0,1-1.6,2.61c.54.21,1.38.77,1.38,2.75v.54a8.32,8.32,0,0,0,.16,2.1H38.73a7.9,7.9,0,0,1-.22-2.48v-.16c0-1.2-.3-1.78-2.08-1.78Zm0-1.9h2c1.3,0,1.81-.5,1.81-1.41s-.59-1.41-1.76-1.41h-2Z"/>
    <path class="cls-5" d="M45.86,669.3a2.05,2.05,0,0,0,2.32,1.6c1.28,0,1.82-.51,1.82-1.31s-.53-1.3-2.42-1.73c-3-.7-3.75-1.81-3.75-3.3,0-1.92,1.44-3.22,4-3.22,2.93,0,4.1,1.57,4.26,3.19h-2.4c-.13-.69-.5-1.42-1.92-1.42-1,0-1.55.4-1.55,1.18s.46,1.09,2.26,1.49c3.2.77,3.91,2,3.91,3.52,0,2-1.52,3.39-4.43,3.39s-4.29-1.38-4.55-3.39Z"/>
    <path class="cls-5" d="M65.5,667c0,3.07-1.84,5.71-5.43,5.71s-5.28-2.51-5.28-5.68,2-5.67,5.43-5.67C63.45,661.35,65.5,663.6,65.5,667Zm-8.24,0c0,2.16.94,3.79,2.9,3.79C62.28,670.76,63,669,63,667s-.86-3.73-2.91-3.73S57.26,664.82,57.26,667Z"/>
    <path class="cls-5" d="M68.52,672.53v-11h3c1.38,2.46,3.92,6.95,4.43,8.15h0c-.13-1.15-.13-3.07-.13-4.88v-3.27H78v11h-2.8c-1.18-2.16-4-7.28-4.56-8.56h0c.08,1,.11,3.23.11,5.2v3.36Z"/>
    <path class="cls-5" d="M83.63,670l-.85,2.54H80.42l3.75-11h3l3.92,11H88.57L87.66,670Zm3.52-2c-.78-2.34-1.28-3.83-1.55-4.82h0c-.27,1.09-.82,2.82-1.44,4.82Z"/>
    <path class="cls-5" d="M93.53,661.51h2.38v9.08h5.51l-.27,2H93.53Z"/>
    <path class="cls-5" d="M111.06,661.51v11h-2.38v-11Z"/>
    <path class="cls-5" d="M116.82,663.46h-3.36v-2h9.09v2h-3.35v9.08h-2.38Z"/>
    <path class="cls-5" d="M132.57,667.78h-5.28v2.8h5.83l-.29,2H125v-11h7.83v2h-5.51v2.35h5.28Z"/>
    <path class="cls-5" d="M145.24,668.39c0-1.87,0-4,.08-5.23h-.08c-.51,2.26-1.62,5.92-2.67,9.38h-2c-.82-3-2-7.2-2.43-9.41H138c.1,1.3.14,3.57.14,5.46v4H136v-11h3.55c.86,2.88,1.82,6.5,2.16,8.13h0c.27-1.44,1.47-5.31,2.4-8.13h3.43v11h-2.3Z"/>
    <path class="cls-5" d="M152.79,669.3a2.05,2.05,0,0,0,2.32,1.6c1.28,0,1.82-.51,1.82-1.31s-.53-1.3-2.42-1.73c-3-.7-3.75-1.81-3.75-3.3,0-1.92,1.44-3.22,4-3.22,2.93,0,4.1,1.57,4.26,3.19h-2.4c-.13-.69-.5-1.42-1.92-1.42-1,0-1.55.4-1.55,1.18s.46,1.09,2.26,1.49c3.2.77,3.91,2,3.91,3.52,0,2-1.52,3.39-4.43,3.39s-4.29-1.38-4.55-3.39Z"/>
  </g>
  <g>
    <path class="cls-5" d="M164,672.53v-2.82h2.45v2.82Z"/>
    <path class="cls-5" d="M169,672.53v-2.82h2.45v2.82Z"/>
    <path class="cls-5" d="M174,672.53v-2.82h2.45v2.82Z"/>
    <path class="cls-5" d="M179,672.53v-2.82h2.45v2.82Z"/>
    <path class="cls-5" d="M183.94,672.53v-2.82h2.45v2.82Z"/>
    <path class="cls-5" d="M188.92,672.53v-2.82h2.45v2.82Z"/>
    <path class="cls-5" d="M193.9,672.53v-2.82h2.45v2.82Z"/>
    <path class="cls-5" d="M198.87,672.53v-2.82h2.45v2.82Z"/>
    <path class="cls-5" d="M203.85,672.53v-2.82h2.45v2.82Z"/>
    <path class="cls-5" d="M208.82,672.53v-2.82h2.45v2.82Z"/>
    <path class="cls-5" d="M213.8,672.53v-2.82h2.45v2.82Z"/>
    <path class="cls-5" d="M218.77,672.53v-2.82h2.45v2.82Z"/>
    <path class="cls-5" d="M223.75,672.53v-2.82h2.45v2.82Z"/>
    <path class="cls-5" d="M228.73,672.53v-2.82h2.45v2.82Z"/>
    <path class="cls-5" d="M233.7,672.53v-2.82h2.45v2.82Z"/>
    <path class="cls-5" d="M238.68,672.53v-2.82h2.45v2.82Z"/>
    <path class="cls-5" d="M243.65,672.53v-2.82h2.45v2.82Z"/>
    <path class="cls-5" d="M248.63,672.53v-2.82h2.45v2.82Z"/>
    <path class="cls-5" d="M253.61,672.53v-2.82h2.45v2.82Z"/>
    <path class="cls-5" d="M258.58,672.53v-2.82H261v2.82Z"/>
    <path class="cls-5" d="M263.56,672.53v-2.82H266v2.82Z"/>
    <path class="cls-5" d="M268.53,672.53v-2.82H271v2.82Z"/>
    <path class="cls-5" d="M273.51,672.53v-2.82H276v2.82Z"/>
    <path class="cls-5" d="M278.48,672.53v-2.82h2.45v2.82Z"/>
    <path class="cls-5" d="M283.46,672.53v-2.82h2.45v2.82Z"/>
    <path class="cls-5" d="M288.44,672.53v-2.82h2.45v2.82Z"/>
    <path class="cls-5" d="M293.41,672.53v-2.82h2.45v2.82Z"/>
    <path class="cls-5" d="M298.39,672.53v-2.82h2.45v2.82Z"/>
    <path class="cls-5" d="M303.36,672.53v-2.82h2.45v2.82Z"/>
    <path class="cls-5" d="M308.34,672.53v-2.82h2.45v2.82Z"/>
    <path class="cls-5" d="M313.32,672.53v-2.82h2.45v2.82Z"/>
    <path class="cls-5" d="M318.29,672.53v-2.82h2.45v2.82Z"/>
    <path class="cls-5" d="M323.27,672.53v-2.82h2.45v2.82Z"/>
    <path class="cls-5" d="M328.24,672.53v-2.82h2.45v2.82Z"/>
    <path class="cls-5" d="M333.22,672.53v-2.82h2.45v2.82Z"/>
  </g>
  <path class="cls-5" d="M342.92,672.53v-8.26a7,7,0,0,1-2.06.38V663a5.54,5.54,0,0,0,2.8-1.49h1.66v11Zm7.15,0v-8.26a7,7,0,0,1-2.06.38V663a5.54,5.54,0,0,0,2.8-1.49h1.66v11Z"/>
  <path class="cls-5" d="M355.67,672.53v-2.82h2.45v2.82Z"/>
  <path class="cls-5" d="M367.69,661.51v1.71a22.46,22.46,0,0,0-3.86,9.32h-2.58a20.88,20.88,0,0,1,4-9.14H360v-1.89Zm7.68,3.33a2.75,2.75,0,0,1-2.85,3c-1.7,0-2.83-1-2.83-3a2.77,2.77,0,0,1,2.85-3A2.7,2.7,0,0,1,375.38,664.83Zm-3.91,0c0,1,.38,1.6,1.09,1.6s1.09-.5,1.09-1.6-.45-1.58-1.1-1.58S371.47,663.76,371.47,664.83Zm1,7.7L379,662h1.68l-6.48,10.55Zm11-2.85a2.76,2.76,0,0,1-2.85,3.06c-1.71,0-2.83-1.06-2.83-3a2.76,2.76,0,0,1,2.85-3A2.69,2.69,0,0,1,383.47,669.68Zm-3.92,0c0,1,.38,1.62,1.09,1.62s1.1-.51,1.1-1.62-.45-1.57-1.1-1.57S379.55,668.63,379.55,669.68Z"/>
  <g>
    <path class="cls-6" d="M19.66,693.13c-.43,2.06-2,3.57-4.75,3.57-3.51,0-5.15-2.48-5.15-5.62s1.71-5.73,5.27-5.73c2.94,0,4.37,1.71,4.64,3.57H17.28a2.18,2.18,0,0,0-2.34-1.71c-2,0-2.72,1.78-2.72,3.79,0,1.86.66,3.83,2.79,3.83a2.18,2.18,0,0,0,2.26-1.7Z"/>
    <path class="cls-6" d="M22.63,685.51H25v9.08h5.51l-.27,2H22.63Z"/>
    <path class="cls-6" d="M43,691c0,3.07-1.84,5.71-5.43,5.71s-5.28-2.51-5.28-5.68,2-5.67,5.43-5.67C40.94,685.35,43,687.6,43,691Zm-8.24,0c0,2.16.94,3.79,2.9,3.79,2.13,0,2.88-1.78,2.88-3.75s-.86-3.73-2.91-3.73S34.75,688.82,34.75,691Z"/>
    <path class="cls-6" d="M48.07,687.46H44.71v-2H53.8v2H50.46v9.08H48.07Z"/>
    <path class="cls-6" d="M56.23,685.51h2.38v4.29h4.45v-4.29h2.38v11H63.07v-4.77H58.62v4.77H56.23Z"/>
    <path class="cls-6" d="M71.42,685.51v11H69v-11Z"/>
    <path class="cls-6" d="M75,696.53v-11h3c1.38,2.46,3.92,6.95,4.43,8.15h0c-.13-1.15-.13-3.07-.13-4.88v-3.27h2.16v11h-2.8c-1.18-2.16-4-7.28-4.56-8.56h0c.08,1,.11,3.23.11,5.2v3.36Z"/>
    <path class="cls-6" d="M97.64,696.53H95.9a6,6,0,0,1-.19-1.09,3.74,3.74,0,0,1-3.22,1.28c-3.2,0-5-2.43-5-5.57,0-3.31,1.94-5.81,5.41-5.81,2.83,0,4.51,1.6,4.77,3.47H95.29a2.24,2.24,0,0,0-2.42-1.62C90.6,687.2,90,689.11,90,691s.74,3.78,2.93,3.78a2.19,2.19,0,0,0,2.42-2.4v-.11H92.89v-2h4.75Z"/>
  </g>
  <g>
    <path class="cls-6" d="M104.3,696.53v-2.82h2.45v2.82Z"/>
    <path class="cls-6" d="M109.27,696.53v-2.82h2.45v2.82Z"/>
    <path class="cls-6" d="M114.25,696.53v-2.82h2.45v2.82Z"/>
    <path class="cls-6" d="M119.22,696.53v-2.82h2.45v2.82Z"/>
    <path class="cls-6" d="M124.2,696.53v-2.82h2.45v2.82Z"/>
    <path class="cls-6" d="M129.18,696.53v-2.82h2.45v2.82Z"/>
    <path class="cls-6" d="M134.15,696.53v-2.82h2.45v2.82Z"/>
    <path class="cls-6" d="M139.13,696.53v-2.82h2.45v2.82Z"/>
    <path class="cls-6" d="M144.1,696.53v-2.82h2.45v2.82Z"/>
    <path class="cls-6" d="M149.08,696.53v-2.82h2.45v2.82Z"/>
    <path class="cls-6" d="M154.06,696.53v-2.82h2.45v2.82Z"/>
    <path class="cls-6" d="M159,696.53v-2.82h2.45v2.82Z"/>
    <path class="cls-6" d="M164,696.53v-2.82h2.45v2.82Z"/>
    <path class="cls-6" d="M169,696.53v-2.82h2.45v2.82Z"/>
    <path class="cls-6" d="M174,696.53v-2.82h2.45v2.82Z"/>
    <path class="cls-6" d="M178.93,696.53v-2.82h2.45v2.82Z"/>
    <path class="cls-6" d="M183.91,696.53v-2.82h2.45v2.82Z"/>
    <path class="cls-6" d="M188.89,696.53v-2.82h2.45v2.82Z"/>
    <path class="cls-6" d="M193.86,696.53v-2.82h2.45v2.82Z"/>
    <path class="cls-6" d="M198.84,696.53v-2.82h2.45v2.82Z"/>
    <path class="cls-6" d="M203.81,696.53v-2.82h2.45v2.82Z"/>
    <path class="cls-6" d="M208.79,696.53v-2.82h2.45v2.82Z"/>
    <path class="cls-6" d="M213.77,696.53v-2.82h2.45v2.82Z"/>
    <path class="cls-6" d="M218.74,696.53v-2.82h2.45v2.82Z"/>
    <path class="cls-6" d="M223.72,696.53v-2.82h2.45v2.82Z"/>
    <path class="cls-6" d="M228.69,696.53v-2.82h2.45v2.82Z"/>
    <path class="cls-6" d="M233.67,696.53v-2.82h2.45v2.82Z"/>
    <path class="cls-6" d="M238.65,696.53v-2.82h2.45v2.82Z"/>
    <path class="cls-6" d="M243.62,696.53v-2.82h2.45v2.82Z"/>
    <path class="cls-6" d="M248.6,696.53v-2.82H251v2.82Z"/>
    <path class="cls-6" d="M253.57,696.53v-2.82H256v2.82Z"/>
    <path class="cls-6" d="M258.55,696.53v-2.82H261v2.82Z"/>
    <path class="cls-6" d="M263.52,696.53v-2.82H266v2.82Z"/>
    <path class="cls-6" d="M268.5,696.53v-2.82h2.45v2.82Z"/>
    <path class="cls-6" d="M273.48,696.53v-2.82h2.45v2.82Z"/>
    <path class="cls-6" d="M278.45,696.53v-2.82h2.45v2.82Z"/>
    <path class="cls-6" d="M283.43,696.53v-2.82h2.45v2.82Z"/>
    <path class="cls-6" d="M288.4,696.53v-2.82h2.45v2.82Z"/>
    <path class="cls-6" d="M293.38,696.53v-2.82h2.45v2.82Z"/>
    <path class="cls-6" d="M298.36,696.53v-2.82h2.45v2.82Z"/>
    <path class="cls-6" d="M303.33,696.53v-2.82h2.45v2.82Z"/>
    <path class="cls-6" d="M308.31,696.53v-2.82h2.45v2.82Z"/>
    <path class="cls-6" d="M313.28,696.53v-2.82h2.45v2.82Z"/>
    <path class="cls-6" d="M318.26,696.53v-2.82h2.45v2.82Z"/>
    <path class="cls-6" d="M323.23,696.53v-2.82h2.45v2.82Z"/>
    <path class="cls-6" d="M328.21,696.53v-2.82h2.45v2.82Z"/>
    <path class="cls-6" d="M333.19,696.53v-2.82h2.45v2.82Z"/>
    <path class="cls-6" d="M338.16,696.53v-2.82h2.45v2.82Z"/>
  </g>
  <path class="cls-6" d="M343.48,693.33a2.81,2.81,0,0,1,1.76-2.63,2.46,2.46,0,0,1-1.3-2.29c0-1.73,1.38-3.07,3.83-3.07,2.27,0,3.75,1.26,3.75,3a2.35,2.35,0,0,1-1.33,2.24,2.74,2.74,0,0,1,1.74,2.63c0,2.38-1.82,3.49-4.34,3.49C345.34,696.73,343.48,695.57,343.48,693.33Zm6.11-.06c0-1.07-.7-1.63-1.89-1.63s-1.87.64-1.87,1.57a1.67,1.67,0,0,0,1.9,1.71C348.87,694.92,349.59,694.34,349.59,693.27Zm-3.46-4.77c0,.75.54,1.3,1.6,1.3s1.57-.48,1.57-1.26-.58-1.41-1.58-1.41S346.14,687.62,346.14,688.5Z"/>
  <path class="cls-6" d="M354.5,696.53v-2.82H357v2.82Z"/>
  <path class="cls-6" d="M359.62,688.45a3.53,3.53,0,0,1,3.84-3.11c2.51,0,3.71,1.38,3.71,2.93a2.24,2.24,0,0,1-1.39,2.22v0a2.62,2.62,0,0,1,1.78,2.66c0,1.73-1.09,3.57-4.15,3.54-2.59,0-3.91-1.62-4-3.27h2.27a1.72,1.72,0,0,0,1.84,1.46,1.55,1.55,0,0,0,1.73-1.68c0-1-.42-1.74-1.94-1.74h-.8v-1.76h.75c1.1,0,1.63-.32,1.63-1.25a1.27,1.27,0,0,0-1.44-1.34,1.47,1.47,0,0,0-1.6,1.31Zm15.75.38a2.75,2.75,0,0,1-2.85,3c-1.7,0-2.83-1-2.83-3a2.77,2.77,0,0,1,2.85-3A2.7,2.7,0,0,1,375.37,688.83Zm-3.91,0c0,1,.38,1.6,1.09,1.6s1.09-.5,1.09-1.6-.45-1.58-1.1-1.58S371.46,687.76,371.46,688.83Zm1,7.7L379,686h1.68l-6.48,10.55Zm11-2.85a2.76,2.76,0,0,1-2.85,3.06c-1.71,0-2.83-1.06-2.83-3a2.76,2.76,0,0,1,2.85-3A2.69,2.69,0,0,1,383.47,693.68Zm-3.92,0c0,1,.38,1.62,1.09,1.62s1.1-.51,1.1-1.62-.45-1.57-1.1-1.57S379.55,692.63,379.55,693.68Z"/>
  <g>
    <path class="cls-7" d="M10.28,709.51h2.38v4.29h4.45v-4.29H19.5v11H17.12v-4.77H12.67v4.77H10.28Z"/>
    <path class="cls-7" d="M33.23,715c0,3.07-1.84,5.71-5.43,5.71s-5.28-2.51-5.28-5.68,2-5.67,5.43-5.67C31.18,709.35,33.23,711.6,33.23,715ZM25,715c0,2.16.94,3.79,2.9,3.79,2.13,0,2.88-1.78,2.88-3.75s-.86-3.73-2.91-3.73S25,712.82,25,715Z"/>
    <path class="cls-7" d="M36.25,709.51h2.38v9.08h5.51l-.27,2H36.25Z"/>
    <path class="cls-7" d="M49,709.51v11H46.57v-11Z"/>
    <path class="cls-7" d="M52.52,709.51h4.39a5,5,0,0,1,5.31,5.38c0,3.22-2,5.65-5.43,5.65H52.52Zm2.38,9.11H56.7c2.11,0,3.06-1.58,3.06-3.73,0-1.81-.88-3.46-3-3.46H54.9Z"/>
    <path class="cls-7" d="M66.87,718,66,720.53H63.67l3.75-11h3l3.92,11H71.82L70.91,718Zm3.52-2c-.78-2.34-1.28-3.83-1.55-4.82h0c-.27,1.09-.82,2.82-1.44,4.82Z"/>
    <path class="cls-7" d="M78.26,720.53v-3.91a.62.62,0,0,0-.1-.35l-3.81-6.77h2.71c.85,1.66,2,3.87,2.51,5.07.48-1.15,1.68-3.49,2.51-5.07h2.5l-3.86,6.74a.65.65,0,0,0-.08.35v3.94Z"/>
    <path class="cls-7" d="M93.14,717.3a2.05,2.05,0,0,0,2.32,1.6c1.28,0,1.82-.51,1.82-1.31s-.53-1.3-2.42-1.73c-3-.7-3.75-1.81-3.75-3.3,0-1.92,1.44-3.22,4-3.22,2.93,0,4.1,1.57,4.26,3.19H97c-.13-.69-.5-1.42-1.92-1.42-1,0-1.55.4-1.55,1.18s.46,1.09,2.26,1.49c3.2.77,3.91,2,3.91,3.52,0,2-1.52,3.39-4.43,3.39s-4.29-1.38-4.55-3.39Z"/>
    <path class="cls-7" d="M110.3,715.78H105v2.8h5.83l-.29,2H102.7v-11h7.83v2H105v2.35h5.28Z"/>
    <path class="cls-7" d="M115.91,718l-.85,2.54h-2.35l3.75-11h3l3.92,11h-2.51l-.91-2.54Zm3.52-2c-.78-2.34-1.28-3.83-1.55-4.82h0c-.27,1.09-.82,2.82-1.44,4.82Z"/>
    <path class="cls-7" d="M127.35,717.3a2.05,2.05,0,0,0,2.32,1.6c1.28,0,1.82-.51,1.82-1.31s-.53-1.3-2.42-1.73c-3-.7-3.75-1.81-3.75-3.3,0-1.92,1.44-3.22,4-3.22,2.93,0,4.1,1.57,4.26,3.19h-2.4c-.13-.69-.5-1.42-1.92-1.42-1,0-1.55.4-1.55,1.18s.46,1.09,2.26,1.49c3.2.77,3.91,2,3.91,3.52,0,2-1.52,3.39-4.43,3.39s-4.29-1.38-4.55-3.39Z"/>
    <path class="cls-7" d="M147,715c0,3.07-1.84,5.71-5.43,5.71s-5.28-2.51-5.28-5.68,2-5.67,5.43-5.67C144.94,709.35,147,711.6,147,715Zm-8.24,0c0,2.16.94,3.79,2.9,3.79,2.13,0,2.88-1.78,2.88-3.75s-.86-3.73-2.91-3.73S138.74,712.82,138.74,715Z"/>
    <path class="cls-7" d="M150,720.53v-11h3c1.38,2.46,3.92,6.95,4.43,8.15h0c-.13-1.15-.13-3.07-.13-4.88v-3.27h2.16v11h-2.8c-1.18-2.16-4-7.28-4.56-8.56h0c.08,1,.11,3.23.11,5.2v3.36Z"/>
    <path class="cls-7" d="M165.13,718l-.85,2.54h-2.35l3.75-11h3l3.92,11h-2.51l-.91-2.54Zm3.52-2c-.78-2.34-1.28-3.83-1.55-4.82h0c-.27,1.09-.82,2.82-1.44,4.82Z"/>
    <path class="cls-7" d="M175,709.51h2.38v9.08h5.51l-.27,2H175Z"/>
    <path class="cls-7" d="M192.58,709.51v11H190.2v-11Z"/>
    <path class="cls-7" d="M198.34,711.46H195v-2h9.09v2h-3.35v9.08h-2.38Z"/>
    <path class="cls-7" d="M214.1,715.78h-5.28v2.8h5.83l-.29,2H206.5v-11h7.83v2h-5.51v2.35h5.28Z"/>
    <path class="cls-7" d="M226.78,716.39c0-1.87,0-4,.08-5.23h-.08c-.51,2.26-1.62,5.92-2.67,9.38h-2c-.82-3-2-7.2-2.43-9.41h-.08c.1,1.3.14,3.57.14,5.46v4h-2.18v-11h3.55c.86,2.88,1.83,6.5,2.16,8.13h0c.27-1.44,1.47-5.31,2.4-8.13h3.43v11h-2.3Z"/>
    <path class="cls-7" d="M234.33,717.3a2.05,2.05,0,0,0,2.32,1.6c1.28,0,1.82-.51,1.82-1.31s-.53-1.3-2.42-1.73c-3-.7-3.75-1.81-3.75-3.3,0-1.92,1.44-3.22,4-3.22,2.93,0,4.1,1.57,4.26,3.19h-2.4c-.13-.69-.5-1.42-1.92-1.42-1,0-1.55.4-1.55,1.18s.46,1.09,2.26,1.49c3.2.77,3.91,2,3.91,3.52,0,2-1.52,3.39-4.43,3.39s-4.29-1.38-4.55-3.39Z"/>
  </g>
  <g>
    <path class="cls-7" d="M243.63,720.53v-2.82h2.45v2.82Z"/>
    <path class="cls-7" d="M248.6,720.53v-2.82h2.45v2.82Z"/>
    <path class="cls-7" d="M253.58,720.53v-2.82H256v2.82Z"/>
    <path class="cls-7" d="M258.56,720.53v-2.82H261v2.82Z"/>
    <path class="cls-7" d="M263.53,720.53v-2.82H266v2.82Z"/>
    <path class="cls-7" d="M268.51,720.53v-2.82H271v2.82Z"/>
    <path class="cls-7" d="M273.48,720.53v-2.82h2.45v2.82Z"/>
    <path class="cls-7" d="M278.46,720.53v-2.82h2.45v2.82Z"/>
    <path class="cls-7" d="M283.44,720.53v-2.82h2.45v2.82Z"/>
    <path class="cls-7" d="M288.41,720.53v-2.82h2.45v2.82Z"/>
    <path class="cls-7" d="M293.39,720.53v-2.82h2.45v2.82Z"/>
    <path class="cls-7" d="M298.36,720.53v-2.82h2.45v2.82Z"/>
    <path class="cls-7" d="M303.34,720.53v-2.82h2.45v2.82Z"/>
    <path class="cls-7" d="M308.32,720.53v-2.82h2.45v2.82Z"/>
    <path class="cls-7" d="M313.29,720.53v-2.82h2.45v2.82Z"/>
    <path class="cls-7" d="M318.27,720.53v-2.82h2.45v2.82Z"/>
    <path class="cls-7" d="M323.24,720.53v-2.82h2.45v2.82Z"/>
    <path class="cls-7" d="M328.22,720.53v-2.82h2.45v2.82Z"/>
    <path class="cls-7" d="M333.19,720.53v-2.82h2.45v2.82Z"/>
    <path class="cls-7" d="M338.17,720.53v-2.82h2.45v2.82Z"/>
  </g>
  <path class="cls-7" d="M353.71,709.51v1.71a22.46,22.46,0,0,0-3.86,9.32h-2.58a20.88,20.88,0,0,1,4-9.14H346v-1.89Z"/>
  <path class="cls-7" d="M354.58,720.53v-2.82H357v2.82Z"/>
  <path class="cls-7" d="M367.13,711.38h-4.56c-.08.8-.21,1.71-.29,2.18a3,3,0,0,1,2-.58,3.4,3.4,0,0,1,3.46,3.68,3.81,3.81,0,0,1-4.16,4.07,3.7,3.7,0,0,1-4-3.17h2.29a1.7,1.7,0,0,0,1.76,1.34c1.28,0,1.79-.82,1.79-2,0-1-.4-2.06-1.78-2.06A1.63,1.63,0,0,0,361.9,716l-2.11-.32c.29-1.31.72-4.63.86-6.13h6.77Zm8.22,1.46a2.75,2.75,0,0,1-2.85,3c-1.7,0-2.83-1-2.83-3a2.77,2.77,0,0,1,2.85-3A2.7,2.7,0,0,1,375.35,712.83Zm-3.91,0c0,1,.38,1.6,1.09,1.6s1.09-.5,1.09-1.6-.45-1.58-1.1-1.58S371.45,711.76,371.45,712.83Zm1,7.7L379,710h1.68l-6.48,10.55Zm11-2.85a2.76,2.76,0,0,1-2.85,3.06c-1.71,0-2.83-1.06-2.83-3a2.76,2.76,0,0,1,2.85-3A2.69,2.69,0,0,1,383.45,717.68Zm-3.92,0c0,1,.38,1.62,1.09,1.62s1.1-.51,1.1-1.62-.45-1.57-1.1-1.57S379.53,716.63,379.53,717.68Z"/>
  <g>
    <path class="cls-8" d="M403.27,589.51h4.82c2.67,0,3.68,1.38,3.68,2.82a2.49,2.49,0,0,1-1.41,2.38,2.65,2.65,0,0,1,1.73,2.53c0,1.89-1.49,3.3-3.83,3.3h-5Zm4.55,4.35c1.14,0,1.6-.51,1.6-1.3s-.61-1.22-1.52-1.22h-2.29v2.51Zm-2.21,4.83h2.16c1.3,0,1.87-.54,1.87-1.54s-.58-1.46-1.89-1.46h-2.14Z"/>
    <path class="cls-8" d="M425.21,595c0,3.07-1.84,5.71-5.43,5.71s-5.28-2.51-5.28-5.68,2-5.67,5.43-5.67C423.16,589.35,425.21,591.6,425.21,595ZM417,595c0,2.16.95,3.79,2.9,3.79,2.13,0,2.88-1.78,2.88-3.75s-.87-3.73-2.91-3.73S417,592.82,417,595Z"/>
    <path class="cls-8" d="M438.38,595c0,3.07-1.84,5.71-5.43,5.71s-5.28-2.51-5.28-5.68,2-5.67,5.43-5.67C436.33,589.35,438.38,591.6,438.38,595Zm-8.24,0c0,2.16.95,3.79,2.9,3.79,2.13,0,2.88-1.78,2.88-3.75s-.87-3.73-2.91-3.73S430.14,592.82,430.14,595Z"/>
    <path class="cls-8" d="M441.4,589.51h2.35v4.91c.74-.85,3-3.33,4.4-4.91H451l-4.43,4.58,4.61,6.45h-2.86l-3.39-4.9-1.17,1.1v3.79H441.4Z"/>
    <path class="cls-8" d="M454.65,597.3a2.05,2.05,0,0,0,2.32,1.6c1.28,0,1.83-.51,1.83-1.31s-.53-1.3-2.42-1.73c-3-.7-3.74-1.81-3.74-3.3,0-1.92,1.44-3.22,4-3.22,2.93,0,4.1,1.57,4.26,3.19h-2.4c-.13-.69-.5-1.42-1.92-1.42-1,0-1.55.4-1.55,1.18s.46,1.09,2.26,1.49c3.2.77,3.91,2,3.91,3.52,0,2-1.52,3.39-4.43,3.39s-4.29-1.38-4.55-3.39Z"/>
    <path class="cls-8" d="M462.94,601.35l4.43-12h1.91l-4.42,12Z"/>
    <path class="cls-8" d="M486.19,596.39c0-1.87,0-4,.08-5.23h-.08c-.51,2.26-1.62,5.92-2.67,9.38h-2c-.82-3-2-7.2-2.43-9.41H479c.1,1.3.14,3.57.14,5.46v4h-2.18v-11h3.55c.86,2.88,1.83,6.5,2.16,8.13h0c.27-1.44,1.47-5.31,2.4-8.13h3.43v11h-2.3Z"/>
    <path class="cls-8" d="M494.14,598l-.85,2.54h-2.35l3.74-11h3l3.92,11h-2.51l-.91-2.54Zm3.52-2c-.79-2.34-1.28-3.83-1.55-4.82h0c-.27,1.09-.82,2.82-1.44,4.82Z"/>
    <path class="cls-8" d="M513.26,600.53h-1.75a5.91,5.91,0,0,1-.19-1.09,3.74,3.74,0,0,1-3.22,1.28c-3.2,0-5-2.43-5-5.57,0-3.31,1.94-5.81,5.41-5.81,2.83,0,4.51,1.6,4.77,3.47h-2.38a2.24,2.24,0,0,0-2.42-1.62c-2.27,0-2.91,1.91-2.91,3.84s.74,3.78,2.93,3.78a2.19,2.19,0,0,0,2.42-2.4v-.11h-2.42v-2h4.75Z"/>
    <path class="cls-8" d="M518.79,598l-.85,2.54h-2.35l3.75-11h3l3.92,11h-2.51l-.91-2.54Zm3.52-2c-.78-2.34-1.28-3.83-1.55-4.82h0c-.27,1.09-.82,2.82-1.44,4.82Z"/>
    <path class="cls-8" d="M528.26,598.79l6.07-7.33h-5.79v-2H537v1.92l-5.84,7.15h6.16l-.3,2h-8.79Z"/>
    <path class="cls-8" d="M542.39,589.51v11H540v-11Z"/>
    <path class="cls-8" d="M546,600.53v-11h3c1.38,2.46,3.92,6.95,4.43,8.15h0c-.13-1.15-.13-3.07-.13-4.88v-3.27h2.16v11h-2.8c-1.18-2.16-4-7.28-4.56-8.56h0c.08,1,.11,3.23.11,5.2v3.36Z"/>
    <path class="cls-8" d="M566.6,595.78h-5.28v2.8h5.83l-.29,2H559v-11h7.83v2h-5.51v2.35h5.28Z"/>
    <path class="cls-8" d="M571.62,597.3a2.05,2.05,0,0,0,2.32,1.6c1.28,0,1.83-.51,1.83-1.31s-.53-1.3-2.42-1.73c-3-.7-3.75-1.81-3.75-3.3,0-1.92,1.44-3.22,4-3.22,2.93,0,4.1,1.57,4.26,3.19h-2.4c-.13-.69-.5-1.42-1.92-1.42-1,0-1.55.4-1.55,1.18s.46,1.09,2.26,1.49c3.2.77,3.91,2,3.91,3.52,0,2-1.52,3.39-4.43,3.39s-4.29-1.38-4.54-3.39Z"/>
  </g>
  <g>
    <path class="cls-8" d="M581.88,600.53v-2.82h2.45v2.82Z"/>
    <path class="cls-8" d="M586.85,600.53v-2.82h2.45v2.82Z"/>
    <path class="cls-8" d="M591.83,600.53v-2.82h2.45v2.82Z"/>
    <path class="cls-8" d="M596.8,600.53v-2.82h2.45v2.82Z"/>
    <path class="cls-8" d="M601.78,600.53v-2.82h2.45v2.82Z"/>
    <path class="cls-8" d="M606.76,600.53v-2.82h2.45v2.82Z"/>
    <path class="cls-8" d="M611.73,600.53v-2.82h2.45v2.82Z"/>
    <path class="cls-8" d="M616.71,600.53v-2.82h2.45v2.82Z"/>
    <path class="cls-8" d="M621.68,600.53v-2.82h2.45v2.82Z"/>
    <path class="cls-8" d="M626.66,600.53v-2.82h2.45v2.82Z"/>
    <path class="cls-8" d="M631.63,600.53v-2.82h2.45v2.82Z"/>
    <path class="cls-8" d="M636.61,600.53v-2.82h2.45v2.82Z"/>
    <path class="cls-8" d="M641.59,600.53v-2.82H644v2.82Z"/>
    <path class="cls-8" d="M646.56,600.53v-2.82H649v2.82Z"/>
    <path class="cls-8" d="M651.54,600.53v-2.82H654v2.82Z"/>
    <path class="cls-8" d="M656.51,600.53v-2.82H659v2.82Z"/>
    <path class="cls-8" d="M661.49,600.53v-2.82h2.45v2.82Z"/>
    <path class="cls-8" d="M666.47,600.53v-2.82h2.45v2.82Z"/>
    <path class="cls-8" d="M671.44,600.53v-2.82h2.45v2.82Z"/>
    <path class="cls-8" d="M676.42,600.53v-2.82h2.45v2.82Z"/>
    <path class="cls-8" d="M681.39,600.53v-2.82h2.45v2.82Z"/>
    <path class="cls-8" d="M686.37,600.53v-2.82h2.45v2.82Z"/>
    <path class="cls-8" d="M691.34,600.53v-2.82h2.45v2.82Z"/>
    <path class="cls-8" d="M696.32,600.53v-2.82h2.45v2.82Z"/>
    <path class="cls-8" d="M701.3,600.53v-2.82h2.45v2.82Z"/>
    <path class="cls-8" d="M706.27,600.53v-2.82h2.45v2.82Z"/>
    <path class="cls-8" d="M711.25,600.53v-2.82h2.45v2.82Z"/>
    <path class="cls-8" d="M716.22,600.53v-2.82h2.45v2.82Z"/>
    <path class="cls-8" d="M721.2,600.53v-2.82h2.45v2.82Z"/>
    <path class="cls-8" d="M726.18,600.53v-2.82h2.45v2.82Z"/>
    <path class="cls-8" d="M731.15,600.53v-2.82h2.45v2.82Z"/>
  </g>
  <path class="cls-8" d="M742.78,592.16a1.34,1.34,0,0,0-1.49-1.07c-1.55,0-1.94,1.6-2,3.07a3,3,0,0,1,2.55-1.09,3.37,3.37,0,0,1,3.47,3.63,3.75,3.75,0,0,1-4.07,4c-3.14,0-4.26-2.27-4.26-5.55,0-2.43.82-5.83,4.37-5.83,2.48,0,3.47,1.46,3.67,2.82Zm.21,4.72c0-1.07-.45-2-1.76-2-1,0-1.74.56-1.74,1.87,0,1.06.51,2.11,1.74,2.11S743,598.12,743,596.88Z"/>
  <path class="cls-8" d="M747.77,600.53v-2.82h2.45v2.82Z"/>
  <path class="cls-8" d="M757.56,600.53v-2.61h-5v-2l4.63-6.45h2.59v6.61h1.33l-.22,1.81h-1.1v2.61Zm0-6.47c0-1.22,0-1.89,0-2.56-.43.93-2.18,3.25-3,4.61h3Zm10.78-1.23a2.75,2.75,0,0,1-2.85,3c-1.7,0-2.83-1-2.83-3a2.77,2.77,0,0,1,2.85-3A2.7,2.7,0,0,1,768.35,592.83Zm-3.91,0c0,1,.38,1.6,1.09,1.6s1.09-.5,1.09-1.6-.45-1.58-1.1-1.58S764.44,591.76,764.44,592.83Zm1,7.7L771.95,590h1.68l-6.48,10.55Zm11-2.85a2.76,2.76,0,0,1-2.85,3.06c-1.71,0-2.83-1.06-2.83-3a2.76,2.76,0,0,1,2.85-3A2.69,2.69,0,0,1,776.45,597.68Zm-3.92,0c0,1,.38,1.62,1.09,1.62s1.1-.51,1.1-1.62-.45-1.57-1.1-1.57S772.52,596.63,772.52,597.68Z"/>
  <g>
    <path class="cls-9" d="M404.89,621.3a2.05,2.05,0,0,0,2.32,1.6c1.28,0,1.83-.51,1.83-1.31s-.53-1.3-2.42-1.73c-3-.7-3.74-1.81-3.74-3.3,0-1.92,1.44-3.22,4-3.22,2.93,0,4.1,1.57,4.26,3.19h-2.4c-.13-.69-.5-1.42-1.92-1.42-1,0-1.55.4-1.55,1.18s.46,1.09,2.26,1.49c3.2.77,3.91,2,3.91,3.52,0,2-1.52,3.39-4.43,3.39s-4.29-1.38-4.55-3.39Z"/>
    <path class="cls-9" d="M414.44,613.51H419c2.35,0,3.94,1.31,3.94,3.41,0,2.4-1.81,3.51-4,3.51h-2.13v4.11h-2.38Zm2.38,5h1.83c1.1,0,1.89-.43,1.89-1.55s-.83-1.57-1.84-1.57h-1.87Z"/>
    <path class="cls-9" d="M436,619c0,3.07-1.84,5.71-5.43,5.71s-5.28-2.51-5.28-5.68,2-5.67,5.43-5.67C433.92,613.35,436,615.6,436,619Zm-8.24,0c0,2.16.95,3.79,2.9,3.79,2.13,0,2.88-1.78,2.88-3.75s-.87-3.73-2.91-3.73S427.72,616.82,427.72,619Z"/>
    <path class="cls-9" d="M441.32,620.12v4.42H439v-11h4.85c2.4,0,3.7,1.31,3.7,3a2.65,2.65,0,0,1-1.6,2.61c.54.21,1.38.77,1.38,2.75v.54a8.32,8.32,0,0,0,.16,2.1H445.2a7.88,7.88,0,0,1-.22-2.48v-.16c0-1.2-.3-1.78-2.08-1.78Zm0-1.9h2c1.3,0,1.81-.5,1.81-1.41s-.59-1.41-1.76-1.41h-2Z"/>
    <path class="cls-9" d="M453,615.46h-3.36v-2h9.09v2h-3.35v9.08H453Z"/>
    <path class="cls-9" d="M463.5,613.51v11h-2.38v-11Z"/>
    <path class="cls-9" d="M467.06,624.53v-11h3c1.38,2.46,3.92,6.95,4.43,8.15h0c-.13-1.15-.13-3.07-.13-4.88v-3.27h2.16v11h-2.8c-1.18-2.16-4-7.28-4.56-8.56h0c.08,1,.11,3.23.11,5.2v3.36Z"/>
    <path class="cls-9" d="M489.72,624.53H488a5.91,5.91,0,0,1-.19-1.09,3.74,3.74,0,0,1-3.22,1.28c-3.2,0-5-2.43-5-5.57,0-3.31,1.94-5.81,5.41-5.81,2.83,0,4.51,1.6,4.77,3.47h-2.38A2.24,2.24,0,0,0,485,615.2c-2.27,0-2.91,1.91-2.91,3.84s.74,3.78,2.93,3.78a2.19,2.19,0,0,0,2.42-2.4v-.11H485v-2h4.75Z"/>
    <path class="cls-9" d="M505.53,619.78h-5.28v2.8h5.83l-.29,2h-7.86v-11h7.83v2h-5.51v2.35h5.28Z"/>
    <path class="cls-9" d="M519,619a5.92,5.92,0,0,1-1.67,4.32l2.48,1.7-1.39,1.58-3.07-2.13a6.12,6.12,0,0,1-1.78.24c-3.47,0-5.28-2.51-5.28-5.68s2-5.67,5.43-5.67C516.92,613.35,519,615.6,519,619Zm-8.24,0c0,2.16.94,3.79,2.9,3.79,2.13,0,2.88-1.78,2.88-3.75s-.86-3.73-2.91-3.73S510.73,616.82,510.73,619Z"/>
    <path class="cls-9" d="M524.26,613.51v6.56c0,2.13,1.09,2.75,2.29,2.75,1.36,0,2.21-.74,2.21-2.75v-6.56h2.4V620c0,3.78-2.21,4.74-4.64,4.74s-4.64-1-4.64-4.69v-6.5Z"/>
    <path class="cls-9" d="M537,613.51v11h-2.38v-11Z"/>
    <path class="cls-9" d="M540.6,613.51h4.56c2.35,0,3.94,1.31,3.94,3.41,0,2.4-1.81,3.51-4,3.51H543v4.11H540.6Zm2.38,5h1.82c1.1,0,1.89-.43,1.89-1.55s-.83-1.57-1.84-1.57H543Z"/>
    <path class="cls-9" d="M561,620.39c0-1.87,0-4,.08-5.23H561c-.51,2.26-1.62,5.92-2.67,9.38h-2c-.82-3-2-7.2-2.43-9.41h-.08c.1,1.3.14,3.57.14,5.46v4h-2.18v-11h3.55c.87,2.88,1.83,6.5,2.16,8.13h0c.27-1.44,1.47-5.31,2.4-8.13h3.43v11H561Z"/>
    <path class="cls-9" d="M574.52,619.78h-5.28v2.8h5.83l-.29,2h-7.86v-11h7.83v2h-5.51v2.35h5.28Z"/>
    <path class="cls-9" d="M577.94,624.53v-11h3c1.38,2.46,3.92,6.95,4.43,8.15h0c-.13-1.15-.13-3.07-.13-4.88v-3.27h2.16v11h-2.8c-1.18-2.16-4-7.28-4.56-8.56h0c.08,1,.11,3.23.11,5.2v3.36Z"/>
    <path class="cls-9" d="M593.19,615.46h-3.36v-2h9.09v2h-3.35v9.08h-2.38Z"/>
  </g>
  <g>
    <path class="cls-9" d="M601.78,624.53v-2.82h2.45v2.82Z"/>
    <path class="cls-9" d="M606.76,624.53v-2.82h2.45v2.82Z"/>
    <path class="cls-9" d="M611.73,624.53v-2.82h2.45v2.82Z"/>
    <path class="cls-9" d="M616.71,624.53v-2.82h2.45v2.82Z"/>
    <path class="cls-9" d="M621.69,624.53v-2.82h2.45v2.82Z"/>
    <path class="cls-9" d="M626.66,624.53v-2.82h2.45v2.82Z"/>
    <path class="cls-9" d="M631.64,624.53v-2.82h2.45v2.82Z"/>
    <path class="cls-9" d="M636.61,624.53v-2.82h2.45v2.82Z"/>
    <path class="cls-9" d="M641.59,624.53v-2.82H644v2.82Z"/>
    <path class="cls-9" d="M646.57,624.53v-2.82H649v2.82Z"/>
    <path class="cls-9" d="M651.54,624.53v-2.82H654v2.82Z"/>
    <path class="cls-9" d="M656.52,624.53v-2.82H659v2.82Z"/>
    <path class="cls-9" d="M661.49,624.53v-2.82h2.45v2.82Z"/>
    <path class="cls-9" d="M666.47,624.53v-2.82h2.45v2.82Z"/>
    <path class="cls-9" d="M671.45,624.53v-2.82h2.45v2.82Z"/>
    <path class="cls-9" d="M676.42,624.53v-2.82h2.45v2.82Z"/>
    <path class="cls-9" d="M681.4,624.53v-2.82h2.45v2.82Z"/>
    <path class="cls-9" d="M686.37,624.53v-2.82h2.45v2.82Z"/>
    <path class="cls-9" d="M691.35,624.53v-2.82h2.45v2.82Z"/>
    <path class="cls-9" d="M696.33,624.53v-2.82h2.45v2.82Z"/>
    <path class="cls-9" d="M701.3,624.53v-2.82h2.45v2.82Z"/>
    <path class="cls-9" d="M706.28,624.53v-2.82h2.45v2.82Z"/>
    <path class="cls-9" d="M711.25,624.53v-2.82h2.45v2.82Z"/>
    <path class="cls-9" d="M716.23,624.53v-2.82h2.45v2.82Z"/>
    <path class="cls-9" d="M721.2,624.53v-2.82h2.45v2.82Z"/>
    <path class="cls-9" d="M726.18,624.53v-2.82h2.45v2.82Z"/>
    <path class="cls-9" d="M731.16,624.53v-2.82h2.45v2.82Z"/>
  </g>
  <path class="cls-9" d="M744.25,615.38h-4.56c-.08.8-.21,1.71-.29,2.18a3,3,0,0,1,2-.58,3.4,3.4,0,0,1,3.46,3.68,3.81,3.81,0,0,1-4.16,4.07,3.7,3.7,0,0,1-4-3.17H739a1.7,1.7,0,0,0,1.76,1.34c1.28,0,1.79-.82,1.79-2,0-1-.4-2.06-1.78-2.06A1.63,1.63,0,0,0,739,620l-2.11-.32c.29-1.31.72-4.63.86-6.13h6.77Z"/>
  <path class="cls-9" d="M747.35,624.53v-2.82h2.45v2.82Z"/>
  <path class="cls-9" d="M752.58,624.53v-.14c0-1.82.53-3.39,3.41-5.44,1.49-1.06,1.87-1.33,1.87-2.27a1.31,1.31,0,0,0-1.38-1.49c-1,0-1.42.59-1.58,1.58h-2.35a3.61,3.61,0,0,1,3.94-3.43c2.85,0,3.78,1.76,3.78,3.28,0,1.7-.67,2.42-2.74,3.79-1.41.93-2,1.62-2.21,2.21h5.38l-.3,1.9Zm15.78-7.7a2.75,2.75,0,0,1-2.85,3c-1.7,0-2.83-1-2.83-3a2.77,2.77,0,0,1,2.85-3A2.7,2.7,0,0,1,768.36,616.83Zm-3.91,0c0,1,.38,1.6,1.09,1.6s1.09-.5,1.09-1.6-.45-1.58-1.1-1.58S764.46,615.76,764.46,616.83Zm1,7.7L772,614h1.68l-6.48,10.55Zm11-2.85a2.76,2.76,0,0,1-2.85,3.06c-1.71,0-2.83-1.06-2.83-3a2.76,2.76,0,0,1,2.85-3A2.69,2.69,0,0,1,776.46,621.68Zm-3.92,0c0,1,.38,1.62,1.09,1.62s1.1-.51,1.1-1.62-.45-1.57-1.1-1.57S772.54,620.63,772.54,621.68Z"/>
  <g>
    <path class="cls-10" d="M410.89,643.78h-5.28v2.8h5.83l-.29,2h-7.86v-11h7.83v2h-5.51v2.35h5.28Z"/>
    <path class="cls-10" d="M414.33,637.51h2.38v9.08h5.51l-.27,2h-7.62Z"/>
    <path class="cls-10" d="M432.25,643.78H427v2.8h5.83l-.29,2h-7.86v-11h7.83v2H427v2.35h5.28Z"/>
    <path class="cls-10" d="M444.94,645.13c-.43,2.06-2,3.57-4.75,3.57-3.5,0-5.15-2.48-5.15-5.62s1.71-5.73,5.27-5.73c2.95,0,4.37,1.71,4.64,3.57h-2.38a2.18,2.18,0,0,0-2.34-1.71c-2,0-2.72,1.78-2.72,3.79,0,1.86.66,3.83,2.79,3.83a2.18,2.18,0,0,0,2.26-1.7Z"/>
    <path class="cls-10" d="M450.23,639.46h-3.36v-2H456v2h-3.35v9.08h-2.38Z"/>
    <path class="cls-10" d="M460.71,644.12v4.42h-2.34v-11h4.85c2.4,0,3.7,1.31,3.7,3a2.65,2.65,0,0,1-1.6,2.61c.54.21,1.38.77,1.38,2.75v.54a8.32,8.32,0,0,0,.16,2.1h-2.27a7.89,7.89,0,0,1-.22-2.48v-.16c0-1.2-.3-1.78-2.08-1.78Zm0-1.9h2c1.3,0,1.81-.5,1.81-1.41s-.59-1.41-1.76-1.41h-2Z"/>
    <path class="cls-10" d="M480.16,643c0,3.07-1.84,5.71-5.43,5.71s-5.28-2.51-5.28-5.68,2-5.67,5.43-5.67C478.11,637.35,480.16,639.6,480.16,643Zm-8.24,0c0,2.16.94,3.79,2.9,3.79,2.13,0,2.88-1.78,2.88-3.75s-.86-3.73-2.91-3.73S471.91,640.82,471.91,643Z"/>
    <path class="cls-10" d="M483.18,648.53v-11h3c1.38,2.46,3.92,6.95,4.43,8.15h0c-.13-1.15-.13-3.07-.13-4.88v-3.27h2.16v11h-2.8c-1.18-2.16-4-7.28-4.56-8.56h0c.08,1,.11,3.23.11,5.2v3.36Z"/>
    <path class="cls-10" d="M498.6,637.51v11h-2.38v-11Z"/>
    <path class="cls-10" d="M511.53,645.13c-.43,2.06-2,3.57-4.75,3.57-3.51,0-5.15-2.48-5.15-5.62s1.71-5.73,5.27-5.73c2.94,0,4.37,1.71,4.64,3.57h-2.38a2.18,2.18,0,0,0-2.34-1.71c-2,0-2.72,1.78-2.72,3.79,0,1.86.66,3.83,2.79,3.83a2.18,2.18,0,0,0,2.26-1.7Z"/>
    <path class="cls-10" d="M519.35,637.51h4.39a5,5,0,0,1,5.31,5.38c0,3.22-2,5.65-5.43,5.65h-4.27Zm2.38,9.11h1.79c2.11,0,3.06-1.58,3.06-3.73,0-1.81-.88-3.46-3-3.46h-1.81Z"/>
    <path class="cls-10" d="M539.67,643.78h-5.28v2.8h5.83l-.29,2h-7.86v-11h7.83v2h-5.51v2.35h5.28Z"/>
    <path class="cls-10" d="M545.86,648.53l-3.89-11h2.56l1.63,5.09c.51,1.54.88,2.85,1.14,4h0a40,40,0,0,1,1.18-4l1.73-5.12h2.43l-4,11Z"/>
    <path class="cls-10" d="M557.42,637.51v11H555v-11Z"/>
    <path class="cls-10" d="M570.35,645.13c-.43,2.06-2,3.57-4.75,3.57-3.5,0-5.15-2.48-5.15-5.62s1.71-5.73,5.27-5.73c2.95,0,4.37,1.71,4.64,3.57H568a2.18,2.18,0,0,0-2.34-1.71c-2,0-2.72,1.78-2.72,3.79,0,1.86.66,3.83,2.79,3.83a2.18,2.18,0,0,0,2.26-1.7Z"/>
    <path class="cls-10" d="M580.92,643.78h-5.28v2.8h5.83l-.29,2h-7.86v-11h7.83v2h-5.51v2.35h5.28Z"/>
    <path class="cls-10" d="M585.94,645.3a2.05,2.05,0,0,0,2.32,1.6c1.28,0,1.83-.51,1.83-1.31s-.53-1.3-2.42-1.73c-3-.7-3.75-1.81-3.75-3.3,0-1.92,1.44-3.22,4-3.22,2.93,0,4.1,1.57,4.26,3.19h-2.4c-.13-.69-.5-1.42-1.92-1.42-1,0-1.55.4-1.55,1.18s.46,1.09,2.26,1.49c3.2.77,3.91,2,3.91,3.52,0,2-1.52,3.39-4.43,3.39s-4.29-1.38-4.54-3.39Z"/>
  </g>
  <g>
    <path class="cls-10" d="M596.81,648.53v-2.82h2.45v2.82Z"/>
    <path class="cls-10" d="M601.78,648.53v-2.82h2.45v2.82Z"/>
    <path class="cls-10" d="M606.76,648.53v-2.82h2.45v2.82Z"/>
    <path class="cls-10" d="M611.73,648.53v-2.82h2.45v2.82Z"/>
    <path class="cls-10" d="M616.71,648.53v-2.82h2.45v2.82Z"/>
    <path class="cls-10" d="M621.69,648.53v-2.82h2.45v2.82Z"/>
    <path class="cls-10" d="M626.66,648.53v-2.82h2.45v2.82Z"/>
    <path class="cls-10" d="M631.64,648.53v-2.82h2.45v2.82Z"/>
    <path class="cls-10" d="M636.61,648.53v-2.82h2.45v2.82Z"/>
    <path class="cls-10" d="M641.59,648.53v-2.82H644v2.82Z"/>
    <path class="cls-10" d="M646.57,648.53v-2.82H649v2.82Z"/>
    <path class="cls-10" d="M651.54,648.53v-2.82H654v2.82Z"/>
    <path class="cls-10" d="M656.52,648.53v-2.82H659v2.82Z"/>
    <path class="cls-10" d="M661.49,648.53v-2.82h2.45v2.82Z"/>
    <path class="cls-10" d="M666.47,648.53v-2.82h2.45v2.82Z"/>
    <path class="cls-10" d="M671.45,648.53v-2.82h2.45v2.82Z"/>
    <path class="cls-10" d="M676.42,648.53v-2.82h2.45v2.82Z"/>
    <path class="cls-10" d="M681.4,648.53v-2.82h2.45v2.82Z"/>
    <path class="cls-10" d="M686.37,648.53v-2.82h2.45v2.82Z"/>
    <path class="cls-10" d="M691.35,648.53v-2.82h2.45v2.82Z"/>
    <path class="cls-10" d="M696.32,648.53v-2.82h2.45v2.82Z"/>
    <path class="cls-10" d="M701.3,648.53v-2.82h2.45v2.82Z"/>
    <path class="cls-10" d="M706.28,648.53v-2.82h2.45v2.82Z"/>
    <path class="cls-10" d="M711.25,648.53v-2.82h2.45v2.82Z"/>
    <path class="cls-10" d="M716.23,648.53v-2.82h2.45v2.82Z"/>
    <path class="cls-10" d="M721.2,648.53v-2.82h2.45v2.82Z"/>
    <path class="cls-10" d="M726.18,648.53v-2.82h2.45v2.82Z"/>
    <path class="cls-10" d="M731.16,648.53v-2.82h2.45v2.82Z"/>
  </g>
  <path class="cls-10" d="M741.39,648.53v-2.61h-5v-2l4.63-6.45h2.59v6.61h1.33l-.22,1.81h-1.1v2.61Zm0-6.47c0-1.22,0-1.89,0-2.56-.43.93-2.18,3.25-3,4.61h3Z"/>
  <path class="cls-10" d="M747.13,648.53v-2.82h2.45v2.82Z"/>
  <path class="cls-10" d="M752.14,645.33a2.81,2.81,0,0,1,1.76-2.63,2.46,2.46,0,0,1-1.3-2.29c0-1.73,1.38-3.07,3.83-3.07,2.27,0,3.75,1.26,3.75,3a2.35,2.35,0,0,1-1.33,2.24,2.74,2.74,0,0,1,1.74,2.63c0,2.38-1.82,3.49-4.34,3.49C754,648.73,752.14,647.57,752.14,645.33Zm6.11-.06c0-1.07-.7-1.63-1.89-1.63s-1.87.64-1.87,1.57a1.67,1.67,0,0,0,1.9,1.71C757.53,646.92,758.25,646.34,758.25,645.27Zm-3.46-4.77c0,.75.54,1.3,1.6,1.3s1.57-.48,1.57-1.26-.58-1.41-1.58-1.41S754.79,639.62,754.79,640.5Zm13.57.34a2.75,2.75,0,0,1-2.85,3c-1.7,0-2.83-1-2.83-3a2.77,2.77,0,0,1,2.85-3A2.7,2.7,0,0,1,768.36,640.83Zm-3.91,0c0,1,.38,1.6,1.09,1.6s1.09-.5,1.09-1.6-.45-1.58-1.1-1.58S764.46,639.76,764.46,640.83Zm1,7.7L772,638h1.68l-6.48,10.55Zm11-2.85a2.76,2.76,0,0,1-2.85,3.06c-1.71,0-2.83-1.06-2.83-3a2.76,2.76,0,0,1,2.85-3A2.69,2.69,0,0,1,776.46,645.68Zm-3.92,0c0,1,.38,1.62,1.09,1.62s1.1-.51,1.1-1.62-.45-1.57-1.1-1.57S772.54,644.63,772.54,645.68Z"/>
  <g>
    <path class="cls-11" d="M412.65,669.13c-.43,2.06-2,3.57-4.75,3.57-3.51,0-5.15-2.48-5.15-5.62s1.71-5.73,5.27-5.73c2.94,0,4.37,1.71,4.64,3.57h-2.38a2.18,2.18,0,0,0-2.34-1.71c-2,0-2.72,1.78-2.72,3.79,0,1.86.66,3.83,2.79,3.83a2.18,2.18,0,0,0,2.26-1.7Z"/>
    <path class="cls-11" d="M415.63,661.51H418v4.29h4.45v-4.29h2.38v11h-2.38v-4.77H418v4.77h-2.38Z"/>
    <path class="cls-11" d="M430.81,661.51v11h-2.38v-11Z"/>
    <path class="cls-11" d="M434.38,661.51h2.38v9.08h5.51l-.27,2h-7.62Z"/>
    <path class="cls-11" d="M444.7,661.51h4.39a5,5,0,0,1,5.31,5.38c0,3.22-2,5.65-5.43,5.65H444.7Zm2.38,9.11h1.79c2.11,0,3.06-1.58,3.06-3.73,0-1.81-.88-3.46-3-3.46h-1.81Z"/>
    <path class="cls-11" d="M459.75,668.12v4.42h-2.34v-11h4.85c2.4,0,3.7,1.31,3.7,3a2.65,2.65,0,0,1-1.6,2.61c.54.21,1.38.77,1.38,2.75v.54a8.32,8.32,0,0,0,.16,2.1h-2.27a7.88,7.88,0,0,1-.22-2.48v-.16c0-1.2-.3-1.78-2.08-1.78Zm0-1.9h2c1.3,0,1.81-.5,1.81-1.41s-.59-1.41-1.76-1.41h-2Z"/>
    <path class="cls-11" d="M476.73,667.78h-5.28v2.8h5.83l-.29,2h-7.86v-11H477v2h-5.51v2.35h5.28Z"/>
    <path class="cls-11" d="M480.17,672.53v-11h3c1.38,2.46,3.92,6.95,4.43,8.15h0c-.13-1.15-.13-3.07-.13-4.88v-3.27h2.16v11h-2.8c-1.18-2.16-4-7.28-4.56-8.56h0c.08,1,.11,3.23.11,5.2v3.36Z"/>
    <path class="cls-11" d="M492.7,665.6a21.74,21.74,0,0,0,.75-4.75h2.42a13.55,13.55,0,0,1-1.33,4.75Z"/>
    <path class="cls-11" d="M500.42,669.3a2.05,2.05,0,0,0,2.32,1.6c1.28,0,1.83-.51,1.83-1.31s-.53-1.3-2.42-1.73c-3-.7-3.75-1.81-3.75-3.3,0-1.92,1.44-3.22,4-3.22,2.93,0,4.1,1.57,4.26,3.19h-2.4c-.13-.69-.5-1.42-1.92-1.42-1,0-1.55.4-1.55,1.18s.46,1.09,2.26,1.49c3.2.77,3.91,2,3.91,3.52,0,2-1.52,3.39-4.43,3.39s-4.29-1.38-4.54-3.39Z"/>
    <path class="cls-11" d="M517,663.46h-3.36v-2h9.09v2h-3.35v9.08H517Z"/>
    <path class="cls-11" d="M535.08,667c0,3.07-1.84,5.71-5.43,5.71s-5.28-2.51-5.28-5.68,2-5.67,5.43-5.67C533,661.35,535.08,663.6,535.08,667Zm-8.24,0c0,2.16.94,3.79,2.9,3.79,2.13,0,2.88-1.78,2.88-3.75s-.86-3.73-2.91-3.73S526.84,664.82,526.84,667Z"/>
    <path class="cls-11" d="M540,672.53v-3.91a.62.62,0,0,0-.1-.35l-3.81-6.77h2.71c.85,1.66,2,3.87,2.51,5.07.48-1.15,1.68-3.49,2.51-5.07h2.5l-3.86,6.74a.65.65,0,0,0-.08.35v3.94Z"/>
    <path class="cls-11" d="M549.91,669.3a2.05,2.05,0,0,0,2.32,1.6c1.28,0,1.82-.51,1.82-1.31s-.53-1.3-2.42-1.73c-3-.7-3.75-1.81-3.75-3.3,0-1.92,1.44-3.22,4-3.22,2.93,0,4.1,1.57,4.26,3.19h-2.4c-.13-.69-.5-1.42-1.92-1.42-1,0-1.55.4-1.55,1.18s.46,1.09,2.26,1.49c3.2.77,3.91,2,3.91,3.52,0,2-1.52,3.39-4.43,3.39s-4.29-1.38-4.55-3.39Z"/>
  </g>
  <g>
    <path class="cls-11" d="M562,672.53v-2.82h2.45v2.82Z"/>
    <path class="cls-11" d="M567,672.53v-2.82h2.45v2.82Z"/>
    <path class="cls-11" d="M571.94,672.53v-2.82h2.45v2.82Z"/>
    <path class="cls-11" d="M576.92,672.53v-2.82h2.45v2.82Z"/>
    <path class="cls-11" d="M581.89,672.53v-2.82h2.45v2.82Z"/>
    <path class="cls-11" d="M586.87,672.53v-2.82h2.45v2.82Z"/>
    <path class="cls-11" d="M591.84,672.53v-2.82h2.45v2.82Z"/>
    <path class="cls-11" d="M596.82,672.53v-2.82h2.45v2.82Z"/>
    <path class="cls-11" d="M601.8,672.53v-2.82h2.45v2.82Z"/>
    <path class="cls-11" d="M606.77,672.53v-2.82h2.45v2.82Z"/>
    <path class="cls-11" d="M611.75,672.53v-2.82h2.45v2.82Z"/>
    <path class="cls-11" d="M616.72,672.53v-2.82h2.45v2.82Z"/>
    <path class="cls-11" d="M621.7,672.53v-2.82h2.45v2.82Z"/>
    <path class="cls-11" d="M626.68,672.53v-2.82h2.45v2.82Z"/>
    <path class="cls-11" d="M631.65,672.53v-2.82h2.45v2.82Z"/>
    <path class="cls-11" d="M636.63,672.53v-2.82h2.45v2.82Z"/>
    <path class="cls-11" d="M641.6,672.53v-2.82h2.45v2.82Z"/>
    <path class="cls-11" d="M646.58,672.53v-2.82H649v2.82Z"/>
    <path class="cls-11" d="M651.55,672.53v-2.82H654v2.82Z"/>
    <path class="cls-11" d="M656.53,672.53v-2.82H659v2.82Z"/>
    <path class="cls-11" d="M661.51,672.53v-2.82H664v2.82Z"/>
    <path class="cls-11" d="M666.48,672.53v-2.82h2.45v2.82Z"/>
    <path class="cls-11" d="M671.46,672.53v-2.82h2.45v2.82Z"/>
    <path class="cls-11" d="M676.43,672.53v-2.82h2.45v2.82Z"/>
    <path class="cls-11" d="M681.41,672.53v-2.82h2.45v2.82Z"/>
    <path class="cls-11" d="M686.39,672.53v-2.82h2.45v2.82Z"/>
    <path class="cls-11" d="M691.36,672.53v-2.82h2.45v2.82Z"/>
    <path class="cls-11" d="M696.34,672.53v-2.82h2.45v2.82Z"/>
    <path class="cls-11" d="M701.31,672.53v-2.82h2.45v2.82Z"/>
    <path class="cls-11" d="M706.29,672.53v-2.82h2.45v2.82Z"/>
    <path class="cls-11" d="M711.27,672.53v-2.82h2.45v2.82Z"/>
    <path class="cls-11" d="M716.24,672.53v-2.82h2.45v2.82Z"/>
    <path class="cls-11" d="M721.22,672.53v-2.82h2.45v2.82Z"/>
    <path class="cls-11" d="M726.19,672.53v-2.82h2.45v2.82Z"/>
    <path class="cls-11" d="M731.17,672.53v-2.82h2.45v2.82Z"/>
  </g>
  <path class="cls-11" d="M736.87,664.45a3.53,3.53,0,0,1,3.84-3.11c2.51,0,3.71,1.38,3.71,2.93A2.24,2.24,0,0,1,743,666.5v0a2.62,2.62,0,0,1,1.78,2.66c0,1.73-1.09,3.57-4.15,3.54-2.59,0-3.91-1.62-4-3.27h2.27a1.72,1.72,0,0,0,1.84,1.46,1.55,1.55,0,0,0,1.73-1.68c0-1-.42-1.74-1.94-1.74h-.8v-1.76h.75c1.1,0,1.63-.32,1.63-1.25a1.27,1.27,0,0,0-1.44-1.34,1.47,1.47,0,0,0-1.6,1.31Z"/>
  <path class="cls-11" d="M747.37,672.53v-2.82h2.45v2.82Z"/>
  <path class="cls-11" d="M752.6,672.53v-.14c0-1.82.53-3.39,3.41-5.44,1.49-1.06,1.87-1.33,1.87-2.27a1.31,1.31,0,0,0-1.38-1.49c-1,0-1.42.59-1.58,1.58h-2.35a3.61,3.61,0,0,1,3.94-3.43c2.85,0,3.78,1.76,3.78,3.28,0,1.7-.67,2.42-2.74,3.79-1.41.93-2,1.62-2.21,2.21h5.38l-.3,1.9Zm15.78-7.7a2.75,2.75,0,0,1-2.85,3c-1.7,0-2.83-1-2.83-3a2.77,2.77,0,0,1,2.85-3A2.7,2.7,0,0,1,768.38,664.83Zm-3.91,0c0,1,.38,1.6,1.09,1.6s1.09-.5,1.09-1.6-.45-1.58-1.1-1.58S764.47,663.76,764.47,664.83Zm1,7.7L772,662h1.68l-6.48,10.55Zm11-2.85a2.76,2.76,0,0,1-2.85,3.06c-1.71,0-2.83-1.06-2.83-3a2.76,2.76,0,0,1,2.85-3A2.69,2.69,0,0,1,776.48,669.68Zm-3.92,0c0,1,.38,1.62,1.09,1.62s1.1-.51,1.1-1.62-.45-1.57-1.1-1.57S772.56,668.63,772.56,669.68Z"/>
  <g>
    <path class="cls-12" d="M413.47,691c0,3.07-1.84,5.71-5.43,5.71s-5.28-2.51-5.28-5.68,2-5.67,5.43-5.67C411.42,685.35,413.47,687.6,413.47,691Zm-8.24,0c0,2.16.95,3.79,2.9,3.79,2.13,0,2.88-1.78,2.88-3.75s-.87-3.73-2.91-3.73S405.22,688.82,405.22,691Z"/>
    <path class="cls-12" d="M418.54,687.46h-3.36v-2h9.09v2h-3.35v9.08h-2.38Z"/>
    <path class="cls-12" d="M426.7,685.51h2.38v4.29h4.45v-4.29h2.38v11h-2.38v-4.77h-4.45v4.77H426.7Z"/>
    <path class="cls-12" d="M447.1,691.78h-5.28v2.8h5.83l-.29,2H439.5v-11h7.83v2h-5.51v2.35h5.28Z"/>
    <path class="cls-12" d="M452.86,692.12v4.42h-2.34v-11h4.85c2.4,0,3.7,1.31,3.7,3a2.65,2.65,0,0,1-1.6,2.61c.54.21,1.38.77,1.38,2.75v.54a8.32,8.32,0,0,0,.16,2.1h-2.27a7.91,7.91,0,0,1-.22-2.48v-.16c0-1.2-.3-1.78-2.08-1.78Zm0-1.9h2c1.3,0,1.81-.5,1.81-1.41s-.59-1.41-1.76-1.41h-2Z"/>
  </g>
  <g>
    <path class="cls-12" d="M462.5,696.53v-2.82H465v2.82Z"/>
    <path class="cls-12" d="M467.48,696.53v-2.82h2.45v2.82Z"/>
    <path class="cls-12" d="M472.46,696.53v-2.82h2.45v2.82Z"/>
    <path class="cls-12" d="M477.43,696.53v-2.82h2.45v2.82Z"/>
    <path class="cls-12" d="M482.41,696.53v-2.82h2.45v2.82Z"/>
    <path class="cls-12" d="M487.38,696.53v-2.82h2.45v2.82Z"/>
    <path class="cls-12" d="M492.36,696.53v-2.82h2.45v2.82Z"/>
    <path class="cls-12" d="M497.33,696.53v-2.82h2.45v2.82Z"/>
    <path class="cls-12" d="M502.31,696.53v-2.82h2.45v2.82Z"/>
    <path class="cls-12" d="M507.29,696.53v-2.82h2.45v2.82Z"/>
    <path class="cls-12" d="M512.26,696.53v-2.82h2.45v2.82Z"/>
    <path class="cls-12" d="M517.24,696.53v-2.82h2.45v2.82Z"/>
    <path class="cls-12" d="M522.21,696.53v-2.82h2.45v2.82Z"/>
    <path class="cls-12" d="M527.19,696.53v-2.82h2.45v2.82Z"/>
    <path class="cls-12" d="M532.17,696.53v-2.82h2.45v2.82Z"/>
    <path class="cls-12" d="M537.14,696.53v-2.82h2.45v2.82Z"/>
    <path class="cls-12" d="M542.12,696.53v-2.82h2.45v2.82Z"/>
    <path class="cls-12" d="M547.09,696.53v-2.82h2.45v2.82Z"/>
    <path class="cls-12" d="M552.07,696.53v-2.82h2.45v2.82Z"/>
    <path class="cls-12" d="M557,696.53v-2.82h2.45v2.82Z"/>
    <path class="cls-12" d="M562,696.53v-2.82h2.45v2.82Z"/>
    <path class="cls-12" d="M567,696.53v-2.82h2.45v2.82Z"/>
    <path class="cls-12" d="M572,696.53v-2.82h2.45v2.82Z"/>
    <path class="cls-12" d="M576.95,696.53v-2.82h2.45v2.82Z"/>
    <path class="cls-12" d="M581.92,696.53v-2.82h2.45v2.82Z"/>
    <path class="cls-12" d="M586.9,696.53v-2.82h2.45v2.82Z"/>
    <path class="cls-12" d="M591.88,696.53v-2.82h2.45v2.82Z"/>
    <path class="cls-12" d="M596.85,696.53v-2.82h2.45v2.82Z"/>
    <path class="cls-12" d="M601.83,696.53v-2.82h2.45v2.82Z"/>
    <path class="cls-12" d="M606.8,696.53v-2.82h2.45v2.82Z"/>
    <path class="cls-12" d="M611.78,696.53v-2.82h2.45v2.82Z"/>
    <path class="cls-12" d="M616.76,696.53v-2.82h2.45v2.82Z"/>
    <path class="cls-12" d="M621.73,696.53v-2.82h2.45v2.82Z"/>
    <path class="cls-12" d="M626.71,696.53v-2.82h2.45v2.82Z"/>
    <path class="cls-12" d="M631.68,696.53v-2.82h2.45v2.82Z"/>
    <path class="cls-12" d="M636.66,696.53v-2.82h2.45v2.82Z"/>
    <path class="cls-12" d="M641.63,696.53v-2.82h2.45v2.82Z"/>
    <path class="cls-12" d="M646.61,696.53v-2.82h2.45v2.82Z"/>
    <path class="cls-12" d="M651.59,696.53v-2.82H654v2.82Z"/>
    <path class="cls-12" d="M656.56,696.53v-2.82H659v2.82Z"/>
    <path class="cls-12" d="M661.54,696.53v-2.82H664v2.82Z"/>
    <path class="cls-12" d="M666.51,696.53v-2.82H669v2.82Z"/>
    <path class="cls-12" d="M671.49,696.53v-2.82h2.45v2.82Z"/>
    <path class="cls-12" d="M676.47,696.53v-2.82h2.45v2.82Z"/>
    <path class="cls-12" d="M681.44,696.53v-2.82h2.45v2.82Z"/>
    <path class="cls-12" d="M686.42,696.53v-2.82h2.45v2.82Z"/>
    <path class="cls-12" d="M691.39,696.53v-2.82h2.45v2.82Z"/>
    <path class="cls-12" d="M696.37,696.53v-2.82h2.45v2.82Z"/>
    <path class="cls-12" d="M701.35,696.53v-2.82h2.45v2.82Z"/>
    <path class="cls-12" d="M706.32,696.53v-2.82h2.45v2.82Z"/>
    <path class="cls-12" d="M711.3,696.53v-2.82h2.45v2.82Z"/>
    <path class="cls-12" d="M716.27,696.53v-2.82h2.45v2.82Z"/>
    <path class="cls-12" d="M721.25,696.53v-2.82h2.45v2.82Z"/>
    <path class="cls-12" d="M726.23,696.53v-2.82h2.45v2.82Z"/>
    <path class="cls-12" d="M731.2,696.53v-2.82h2.45v2.82Z"/>
  </g>
  <path class="cls-12" d="M736.73,688.45a3.53,3.53,0,0,1,3.84-3.11c2.51,0,3.71,1.38,3.71,2.93a2.24,2.24,0,0,1-1.39,2.22v0a2.62,2.62,0,0,1,1.78,2.66c0,1.73-1.09,3.57-4.15,3.54-2.59,0-3.91-1.62-4-3.27h2.27a1.72,1.72,0,0,0,1.84,1.46,1.55,1.55,0,0,0,1.73-1.68c0-1-.42-1.74-1.94-1.74h-.8v-1.76h.75c1.1,0,1.63-.32,1.63-1.25a1.27,1.27,0,0,0-1.44-1.34,1.47,1.47,0,0,0-1.6,1.31Z"/>
  <path class="cls-12" d="M747.22,696.53v-2.82h2.45v2.82Z"/>
  <path class="cls-12" d="M760.44,690.95c0,2.83-1,5.78-4.24,5.78S752,694,752,691c0-2.77,1.12-5.67,4.29-5.67S760.44,688,760.44,690.95Zm-6.08,0c0,2.21.4,3.86,1.86,3.86S758,693.14,758,691s-.37-3.78-1.78-3.78S754.36,688.61,754.36,691Zm14-2.16a2.75,2.75,0,0,1-2.85,3c-1.7,0-2.83-1-2.83-3a2.77,2.77,0,0,1,2.85-3A2.7,2.7,0,0,1,768.41,688.83Zm-3.91,0c0,1,.38,1.6,1.09,1.6s1.09-.5,1.09-1.6-.45-1.58-1.1-1.58S764.5,687.76,764.5,688.83Zm1,7.7L772,686h1.68l-6.48,10.55Zm11-2.85a2.76,2.76,0,0,1-2.85,3.06c-1.71,0-2.83-1.06-2.83-3a2.76,2.76,0,0,1,2.85-3A2.69,2.69,0,0,1,776.51,693.68Zm-3.92,0c0,1,.38,1.62,1.09,1.62s1.1-.51,1.1-1.62-.45-1.57-1.1-1.57S772.58,692.63,772.58,693.68Z"/>
  <g>
    <path class="cls-13" d="M412.57,716.39c0-1.87,0-4,.08-5.23h-.08c-.51,2.26-1.62,5.92-2.67,9.38h-2c-.82-3-2-7.2-2.43-9.41h-.08c.1,1.3.14,3.57.14,5.46v4h-2.18v-11h3.55c.86,2.88,1.83,6.5,2.16,8.13h0c.27-1.44,1.47-5.31,2.4-8.13h3.43v11h-2.3Z"/>
    <path class="cls-13" d="M420.52,718l-.85,2.54h-2.35l3.74-11h3l3.92,11h-2.51l-.91-2.54Zm3.52-2c-.79-2.34-1.28-3.83-1.55-4.82h0c-.27,1.09-.82,2.82-1.44,4.82Z"/>
    <path class="cls-13" d="M434.73,717c0,2.54-.83,3.7-3.25,3.7a6.6,6.6,0,0,1-1.49-.14v-1.89a9.67,9.67,0,0,0,1.09.06c1.09,0,1.26-.74,1.26-1.57v-7.65h2.39Z"/>
    <path class="cls-13" d="M448.38,715c0,3.07-1.84,5.71-5.43,5.71s-5.28-2.51-5.28-5.68,2-5.67,5.43-5.67C446.33,709.35,448.38,711.6,448.38,715Zm-8.24,0c0,2.16.94,3.79,2.9,3.79,2.13,0,2.88-1.78,2.88-3.75s-.86-3.73-2.91-3.73S440.14,712.82,440.14,715Z"/>
    <path class="cls-13" d="M453.74,716.12v4.42H451.4v-11h4.85c2.4,0,3.7,1.31,3.7,3a2.65,2.65,0,0,1-1.6,2.61c.54.21,1.38.77,1.38,2.75v.54a8.32,8.32,0,0,0,.16,2.1h-2.27a7.89,7.89,0,0,1-.22-2.48v-.16c0-1.2-.3-1.78-2.08-1.78Zm0-1.9h2c1.3,0,1.81-.5,1.81-1.41s-.59-1.41-1.76-1.41h-2Z"/>
    <path class="cls-13" d="M469.85,718l-.85,2.54h-2.35l3.75-11h3l3.92,11h-2.51l-.91-2.54Zm3.52-2c-.78-2.34-1.28-3.83-1.55-4.82h0c-.27,1.09-.82,2.82-1.44,4.82Z"/>
    <path class="cls-13" d="M479.75,709.51h4.56c2.35,0,3.94,1.31,3.94,3.41,0,2.4-1.81,3.51-4,3.51h-2.13v4.11h-2.38Zm2.38,5H484c1.1,0,1.89-.43,1.89-1.55s-.83-1.57-1.84-1.57h-1.87Z"/>
    <path class="cls-13" d="M490.92,709.51h4.56c2.35,0,3.94,1.31,3.94,3.41,0,2.4-1.81,3.51-4,3.51H493.3v4.11h-2.38Zm2.38,5h1.82c1.1,0,1.89-.43,1.89-1.55s-.83-1.57-1.84-1.57H493.3Z"/>
    <path class="cls-13" d="M502.09,709.51h2.38v9.08H510l-.27,2h-7.62Z"/>
    <path class="cls-13" d="M514.81,709.51v11h-2.38v-11Z"/>
    <path class="cls-13" d="M520.42,718l-.85,2.54h-2.35l3.75-11h3l3.92,11h-2.51l-.91-2.54Zm3.52-2c-.79-2.34-1.28-3.83-1.55-4.82h0c-.27,1.09-.82,2.82-1.44,4.82Z"/>
    <path class="cls-13" d="M530.33,720.53v-11h3c1.38,2.46,3.92,6.95,4.43,8.15h0c-.13-1.15-.13-3.07-.13-4.88v-3.27h2.16v11H537c-1.19-2.16-4-7.28-4.56-8.56h0c.08,1,.11,3.23.11,5.2v3.36Z"/>
    <path class="cls-13" d="M552.75,717.13c-.43,2.06-2,3.57-4.75,3.57-3.5,0-5.15-2.48-5.15-5.62s1.71-5.73,5.27-5.73c2.94,0,4.37,1.71,4.64,3.57h-2.38A2.18,2.18,0,0,0,548,711.2c-2,0-2.72,1.78-2.72,3.79,0,1.86.66,3.83,2.79,3.83a2.18,2.18,0,0,0,2.26-1.7Z"/>
    <path class="cls-13" d="M563.32,715.78H558v2.8h5.83l-.29,2h-7.86v-11h7.83v2H558v2.35h5.28Z"/>
    <path class="cls-13" d="M568.34,717.3a2.05,2.05,0,0,0,2.32,1.6c1.28,0,1.82-.51,1.82-1.31s-.53-1.3-2.42-1.73c-3-.7-3.75-1.81-3.75-3.3,0-1.92,1.44-3.22,4-3.22,2.93,0,4.1,1.57,4.26,3.19h-2.4c-.13-.69-.5-1.42-1.92-1.42-1,0-1.55.4-1.55,1.18s.46,1.09,2.26,1.49c3.2.77,3.91,2,3.91,3.52,0,2-1.52,3.39-4.43,3.39s-4.29-1.38-4.55-3.39Z"/>
  </g>
  <g>
    <path class="cls-13" d="M581.93,720.53v-2.82h2.45v2.82Z"/>
    <path class="cls-13" d="M586.91,720.53v-2.82h2.45v2.82Z"/>
    <path class="cls-13" d="M591.88,720.53v-2.82h2.45v2.82Z"/>
    <path class="cls-13" d="M596.86,720.53v-2.82h2.45v2.82Z"/>
    <path class="cls-13" d="M601.84,720.53v-2.82h2.45v2.82Z"/>
    <path class="cls-13" d="M606.81,720.53v-2.82h2.45v2.82Z"/>
    <path class="cls-13" d="M611.79,720.53v-2.82h2.45v2.82Z"/>
    <path class="cls-13" d="M616.76,720.53v-2.82h2.45v2.82Z"/>
    <path class="cls-13" d="M621.74,720.53v-2.82h2.45v2.82Z"/>
    <path class="cls-13" d="M626.72,720.53v-2.82h2.45v2.82Z"/>
    <path class="cls-13" d="M631.69,720.53v-2.82h2.45v2.82Z"/>
    <path class="cls-13" d="M636.67,720.53v-2.82h2.45v2.82Z"/>
    <path class="cls-13" d="M641.64,720.53v-2.82h2.45v2.82Z"/>
    <path class="cls-13" d="M646.62,720.53v-2.82h2.45v2.82Z"/>
    <path class="cls-13" d="M651.6,720.53v-2.82H654v2.82Z"/>
    <path class="cls-13" d="M656.57,720.53v-2.82H659v2.82Z"/>
    <path class="cls-13" d="M661.55,720.53v-2.82H664v2.82Z"/>
    <path class="cls-13" d="M666.52,720.53v-2.82H669v2.82Z"/>
    <path class="cls-13" d="M671.5,720.53v-2.82h2.45v2.82Z"/>
    <path class="cls-13" d="M676.47,720.53v-2.82h2.45v2.82Z"/>
    <path class="cls-13" d="M681.45,720.53v-2.82h2.45v2.82Z"/>
    <path class="cls-13" d="M686.43,720.53v-2.82h2.45v2.82Z"/>
    <path class="cls-13" d="M691.4,720.53v-2.82h2.45v2.82Z"/>
    <path class="cls-13" d="M696.38,720.53v-2.82h2.45v2.82Z"/>
    <path class="cls-13" d="M701.35,720.53v-2.82h2.45v2.82Z"/>
    <path class="cls-13" d="M706.33,720.53v-2.82h2.45v2.82Z"/>
    <path class="cls-13" d="M711.31,720.53v-2.82h2.45v2.82Z"/>
    <path class="cls-13" d="M716.28,720.53v-2.82h2.45v2.82Z"/>
    <path class="cls-13" d="M721.26,720.53v-2.82h2.45v2.82Z"/>
    <path class="cls-13" d="M726.23,720.53v-2.82h2.45v2.82Z"/>
    <path class="cls-13" d="M731.21,720.53v-2.82h2.45v2.82Z"/>
  </g>
  <path class="cls-13" d="M736.74,720.53v-.14c0-1.82.53-3.39,3.41-5.44,1.49-1.06,1.87-1.33,1.87-2.27a1.31,1.31,0,0,0-1.38-1.49c-1,0-1.42.59-1.58,1.58h-2.35a3.61,3.61,0,0,1,3.94-3.43c2.85,0,3.78,1.76,3.78,3.28,0,1.7-.67,2.42-2.74,3.79-1.41.93-2,1.62-2.21,2.21h5.38l-.3,1.9Z"/>
  <path class="cls-13" d="M747.5,720.53v-2.82h2.45v2.82Z"/>
  <path class="cls-13" d="M758.07,712.16a1.34,1.34,0,0,0-1.49-1.07c-1.55,0-1.94,1.6-2,3.07a3,3,0,0,1,2.55-1.09,3.37,3.37,0,0,1,3.47,3.63,3.75,3.75,0,0,1-4.07,4c-3.14,0-4.26-2.27-4.26-5.55,0-2.43.82-5.83,4.37-5.83,2.48,0,3.47,1.46,3.67,2.82Zm.21,4.72c0-1.07-.45-2-1.76-2-1,0-1.74.56-1.74,1.87,0,1.06.51,2.11,1.74,2.11S758.28,718.12,758.28,716.88Zm10.13-4a2.75,2.75,0,0,1-2.85,3c-1.7,0-2.83-1-2.83-3a2.77,2.77,0,0,1,2.85-3A2.7,2.7,0,0,1,768.41,712.83Zm-3.91,0c0,1,.38,1.6,1.09,1.6s1.09-.5,1.09-1.6-.45-1.58-1.1-1.58S764.51,711.76,764.51,712.83Zm1,7.7L772,710h1.68l-6.48,10.55Zm11-2.85a2.76,2.76,0,0,1-2.85,3.06c-1.71,0-2.83-1.06-2.83-3a2.76,2.76,0,0,1,2.85-3A2.69,2.69,0,0,1,776.51,717.68Zm-3.92,0c0,1,.38,1.62,1.09,1.62s1.1-.51,1.1-1.62-.45-1.57-1.1-1.57S772.59,716.63,772.59,717.68Z"/>
  <g>
    <g class="cls-14">
      <g class="cls-15">
        <path class="cls-16" d="M451.75,357l-114-62a1.21,1.21,0,0,1-.71-1.06l114,62a1.21,1.21,0,0,0,.71,1.06"/>
      </g>
    </g>
    <g class="cls-17">
      <path class="cls-18" d="M673.29,507.88v6.85c0,1.52-1.89,3-4.23,3.35L314.26,567.94c-2.33.33-4.22-.63-4.22-2.16v-6.85Z"/>
    </g>
    <polygon class="cls-16" points="124 464.57 310.04 565.78 310.05 558.93 124.01 457.73 124 464.57"/>
    <polygon class="cls-19" points="124.01 457.73 310.05 558.93 673.29 507.88 487.25 406.68 124.01 457.73"/>
    <polygon class="cls-20" points="124.01 457.73 310.05 558.93 310.08 546.6 124.03 445.39 124.01 457.73"/>
    <polygon class="cls-21" points="124.03 445.39 310.08 546.6 673.31 495.55 487.27 394.34 124.03 445.39"/>
    <polygon class="cls-22" points="310.08 546.6 310.05 558.93 673.29 507.88 673.31 495.55 310.08 546.6"/>
    <polygon class="cls-23" points="310.1 534.25 310.08 546.6 673.31 495.55 673.34 483.2 310.1 534.25"/>
    <polygon class="cls-24" points="124.03 445.39 310.08 546.6 310.1 534.25 124.06 433.04 124.03 445.39"/>
    <polygon class="cls-25" points="124.06 433.04 310.1 534.25 673.34 483.2 487.29 381.99 124.06 433.04"/>
    <polygon class="cls-26" points="310.13 516.44 310.1 534.25 673.34 483.2 673.37 465.39 310.13 516.44"/>
    <polygon class="cls-27" points="124.06 433.04 310.1 534.25 310.13 516.44 124.09 415.23 124.06 433.04"/>
    <polygon class="cls-28" points="124.09 415.23 310.13 516.44 673.37 465.39 487.33 364.18 124.09 415.23"/>
    <polygon class="cls-29" points="310.17 495.87 310.13 516.44 673.37 465.39 673.41 444.82 310.17 495.87"/>
    <polygon class="cls-30" points="124.09 415.23 310.13 516.44 310.17 495.87 124.13 394.67 124.09 415.23"/>
    <polygon class="cls-31" points="124.13 394.67 310.17 495.87 673.41 444.82 487.37 343.62 124.13 394.67"/>
    <polygon class="cls-32" points="310.22 469.83 310.17 495.87 673.41 444.82 673.45 418.78 310.22 469.83"/>
    <polygon class="cls-33" points="124.13 394.67 310.17 495.87 310.22 469.83 124.18 368.63 124.13 394.67"/>
    <polygon class="cls-34" points="124.18 368.63 310.22 469.83 673.45 418.78 487.41 317.58 124.18 368.63"/>
    <polygon class="cls-35" points="310.27 441.04 310.22 469.83 673.45 418.78 673.51 389.99 310.27 441.04"/>
    <polygon class="cls-36" points="124.18 368.63 310.22 469.83 310.27 441.04 124.23 339.84 124.18 368.63"/>
    <polygon class="cls-37" points="124.23 339.84 310.27 441.04 673.51 389.99 487.47 288.79 124.23 339.84"/>
    <polygon class="cls-38" points="310.33 408.14 310.27 441.04 673.51 389.99 673.57 357.09 310.33 408.14"/>
    <polygon class="cls-39" points="124.23 339.84 310.27 441.04 310.33 408.14 124.29 306.94 124.23 339.84"/>
    <polygon class="cls-40" points="124.29 306.94 310.33 408.14 673.57 357.09 487.53 255.89 124.29 306.94"/>
    <polygon class="cls-41" points="310.42 362.91 310.33 408.14 673.57 357.09 673.65 311.86 310.42 362.91"/>
    <polygon class="cls-42" points="124.29 306.94 310.33 408.14 310.42 362.91 124.38 261.7 124.29 306.94"/>
    <polygon class="cls-43" points="124.38 261.7 310.42 362.91 673.65 311.86 487.61 210.65 124.38 261.7"/>
    <polygon class="cls-44" points="310.51 314.92 310.42 362.91 673.65 311.86 673.74 263.87 310.51 314.92"/>
    <polygon class="cls-45" points="124.38 261.7 310.42 362.91 310.51 314.92 124.47 213.72 124.38 261.7"/>
    <polygon class="cls-46" points="124.47 213.72 310.51 314.92 673.74 263.87 487.7 162.67 124.47 213.72"/>
    <polygon class="cls-47" points="310.6 262.84 310.51 314.92 673.74 263.87 673.84 211.79 310.6 262.84"/>
    <polygon class="cls-48" points="124.47 213.72 310.51 314.92 310.6 262.84 124.56 161.64 124.47 213.72"/>
    <polygon class="cls-49" points="124.56 161.64 310.6 262.84 673.84 211.79 487.8 110.59 124.56 161.64"/>
    <polygon class="cls-50" points="310.76 176.48 310.6 262.84 673.84 211.79 674 125.43 310.76 176.48"/>
    <polygon class="cls-51" points="124.56 161.64 310.6 262.84 310.76 176.48 124.72 75.28 124.56 161.64"/>
    <polygon class="cls-52" points="487.96 24.22 124.72 75.28 310.76 176.48 674 125.43 487.96 24.22"/>
  </g>
  <g id="avg_caption">
    <rect class="cls-53" x="563" y="4.75" width="192" height="76.7"/>
    <polyline class="cls-53" points="653.67 33.44 578.67 33.44 578.67 108.44"/>
    <g>
      <path class="cls-54" d="M578.94,18.75h-3.81V17.41h9.21v1.34h-3.83V29.24h-1.58Z"/>
      <path class="cls-54" d="M588.31,16.76V21.9A2.86,2.86,0,0,1,591,20.42c1.38,0,2.91.75,2.91,3.31v5.51h-1.5V24c0-1.46-.61-2.28-1.87-2.28-1.55,0-2.23,1-2.23,2.82v4.71h-1.5V16.76Z"/>
      <path class="cls-54" d="M598.21,25.19c0,1.75.9,3,2.36,3a2,2,0,0,0,2.07-1.34h1.51a3.52,3.52,0,0,1-3.64,2.58c-2.7,0-3.81-2.21-3.81-4.42,0-2.57,1.29-4.61,3.91-4.61,2.79,0,3.69,2.23,3.69,4.06,0,.27,0,.49,0,.71Zm4.59-1c0-1.43-.73-2.57-2.19-2.57s-2.19,1.05-2.35,2.57Z"/>
      <path class="cls-54" d="M619,27.35a13.25,13.25,0,0,0,.12,1.89h-1.43a4.5,4.5,0,0,1-.14-1.12,2.75,2.75,0,0,1-2.67,1.33A2.61,2.61,0,0,1,612,26.81c0-1.92,1.51-2.8,4.08-2.8h1.46v-.73c0-.77-.24-1.68-1.85-1.68-1.43,0-1.68.71-1.84,1.38h-1.45c.12-1.19.85-2.55,3.33-2.55,2.11,0,3.28.87,3.28,2.82ZM617.52,25h-1.39c-1.72,0-2.63.48-2.63,1.68a1.51,1.51,0,0,0,1.68,1.55c2.07,0,2.35-1.39,2.35-3Z"/>
      <path class="cls-54" d="M622.68,20.62c1.16,3.52,2,6.15,2.28,7.22h0c.21-1,1.12-3.54,2.41-7.22h1.51l-3.16,8.62H624.1l-3-8.62Z"/>
      <path class="cls-54" d="M631.95,25.19c0,1.75.9,3,2.36,3a2,2,0,0,0,2.07-1.34h1.51a3.52,3.52,0,0,1-3.64,2.58c-2.7,0-3.81-2.21-3.81-4.42,0-2.57,1.29-4.61,3.91-4.61,2.79,0,3.69,2.23,3.69,4.06,0,.27,0,.49,0,.71Zm4.59-1c0-1.43-.73-2.57-2.19-2.57s-2.19,1.05-2.35,2.57Z"/>
      <path class="cls-54" d="M640.87,23c0-1.21,0-1.89,0-2.35h1.46c0,.24.05.92.05,1.75a3,3,0,0,1,2.89-2V21.9c-1.77.05-2.89,1-2.89,3.16v4.18h-1.5Z"/>
      <path class="cls-54" d="M654.12,27.35a13.25,13.25,0,0,0,.12,1.89h-1.43a4.41,4.41,0,0,1-.14-1.12A2.75,2.75,0,0,1,650,29.44a2.61,2.61,0,0,1-2.91-2.63c0-1.92,1.51-2.8,4.08-2.8h1.46v-.73c0-.77-.24-1.68-1.85-1.68-1.43,0-1.68.71-1.84,1.38H647.5c.12-1.19.85-2.55,3.33-2.55,2.11,0,3.28.87,3.28,2.82ZM652.65,25h-1.39c-1.72,0-2.63.48-2.63,1.68a1.51,1.51,0,0,0,1.68,1.55c2.07,0,2.35-1.39,2.35-3Z"/>
      <path class="cls-54" d="M664.62,28.46c0,2.77-1.14,4.33-4,4.33-2.62,0-3.42-1.46-3.57-2.63h1.51a2,2,0,0,0,2.12,1.44c2,0,2.43-1.24,2.43-3.21v-.7a2.64,2.64,0,0,1-2.69,1.51c-2.12,0-3.57-1.73-3.57-4.27,0-2.8,1.65-4.52,3.72-4.52,1.65,0,2.35.77,2.53,1.34,0-.39.07-1,.09-1.14h1.39c0,.49,0,1.67,0,2.48Zm-3.81-.53c1.85,0,2.4-1.26,2.4-3.16s-.51-3.09-2.35-3.09c-1.6,0-2.41,1.34-2.41,3.2S659.4,27.93,660.81,27.93Z"/>
      <path class="cls-54" d="M668.92,25.19c0,1.75.9,3,2.36,3a2,2,0,0,0,2.07-1.34h1.51a3.52,3.52,0,0,1-3.64,2.58c-2.7,0-3.81-2.21-3.81-4.42,0-2.57,1.29-4.61,3.91-4.61,2.79,0,3.69,2.23,3.69,4.06,0,.27,0,.49,0,.71Zm4.59-1c0-1.43-.73-2.57-2.19-2.57s-2.19,1.05-2.35,2.57Z"/>
      <path class="cls-54" d="M684,26.78a2,2,0,0,0,2.11,1.5c1.26,0,1.75-.54,1.75-1.33s-.39-1.19-2-1.58c-2.46-.6-3-1.36-3-2.53s.9-2.41,3.11-2.41,3.14,1.29,3.25,2.48h-1.43a1.72,1.72,0,0,0-1.87-1.33c-1.21,0-1.58.58-1.58,1.14s.36,1,1.94,1.34c2.62.63,3.14,1.5,3.14,2.77,0,1.51-1.21,2.62-3.35,2.62s-3.33-1.12-3.55-2.67Z"/>
      <path class="cls-54" d="M693.15,25.19c0,1.75.9,3,2.36,3a2,2,0,0,0,2.07-1.34h1.51a3.52,3.52,0,0,1-3.64,2.58c-2.7,0-3.81-2.21-3.81-4.42,0-2.57,1.29-4.61,3.91-4.61,2.79,0,3.69,2.23,3.69,4.06,0,.27,0,.49,0,.71Zm4.59-1c0-1.43-.73-2.57-2.19-2.57s-2.19,1.05-2.35,2.57Z"/>
      <path class="cls-54" d="M702.07,29.24V16.76h1.5V29.24Z"/>
      <path class="cls-54" d="M707.28,29.24V21.83H705.9V20.62h1.38v-1c0-1.58.61-3,2.52-3a3.79,3.79,0,0,1,1,.1V18a3.6,3.6,0,0,0-.75-.08c-.88,0-1.22.54-1.22,1.8v.94h1.73v1.21h-1.73v7.41Z"/>
      <path class="cls-54" d="M716.64,24.21v1.36h-4.45V24.21Z"/>
    </g>
    <g>
      <path class="cls-54" d="M577,47.77a2,2,0,0,0,2.11,1.5c1.26,0,1.75-.54,1.75-1.33s-.39-1.19-2-1.58c-2.46-.6-3-1.36-3-2.53s.9-2.41,3.11-2.41,3.14,1.29,3.25,2.48h-1.43a1.72,1.72,0,0,0-1.87-1.33c-1.21,0-1.58.58-1.58,1.14s.36,1,1.94,1.34c2.62.63,3.14,1.5,3.14,2.77,0,1.51-1.21,2.62-3.35,2.62s-3.33-1.12-3.55-2.67Z"/>
      <path class="cls-54" d="M584.26,41.62h1.5V39.07h1.48v2.55h1.9v1.21h-1.9v5c0,.85.2,1.27,1,1.27a4,4,0,0,0,.75-.07V50.2a4,4,0,0,1-1.29.15c-1.34,0-1.92-.7-1.92-2.12V42.82h-1.5Z"/>
      <path class="cls-54" d="M599,45.9c0,2.5-1.43,4.54-4.06,4.54-2.46,0-4-1.9-4-4.5s1.46-4.52,4.06-4.52C597.39,41.41,599,43.2,599,45.9Zm-6.49,0c0,1.9,1,3.28,2.5,3.28s2.46-1.31,2.46-3.26-.88-3.28-2.5-3.28S592.46,44,592.46,45.92Z"/>
      <path class="cls-54" d="M601.77,44c0-1.21,0-1.89,0-2.35h1.46c0,.24.05.92.05,1.75a3,3,0,0,1,2.89-2v1.48c-1.77.05-2.89,1-2.89,3.16v4.18h-1.5Z"/>
      <path class="cls-54" d="M615,48.35a13.25,13.25,0,0,0,.12,1.89h-1.43a4.41,4.41,0,0,1-.14-1.12,2.75,2.75,0,0,1-2.67,1.33A2.61,2.61,0,0,1,608,47.8c0-1.92,1.51-2.8,4.08-2.8h1.46v-.73c0-.77-.24-1.68-1.85-1.68-1.43,0-1.68.71-1.84,1.38H608.4c.12-1.19.85-2.55,3.33-2.55,2.11,0,3.28.87,3.28,2.82ZM613.55,46h-1.39c-1.72,0-2.63.48-2.63,1.68a1.51,1.51,0,0,0,1.68,1.55c2.07,0,2.35-1.39,2.35-3Z"/>
      <path class="cls-54" d="M625.52,49.45c0,2.77-1.14,4.33-4,4.33-2.62,0-3.42-1.46-3.57-2.63h1.51a2,2,0,0,0,2.13,1.44c2,0,2.43-1.24,2.43-3.21v-.7a2.64,2.64,0,0,1-2.69,1.51c-2.12,0-3.57-1.73-3.57-4.27,0-2.8,1.65-4.52,3.72-4.52,1.65,0,2.35.77,2.53,1.34,0-.39.07-1,.08-1.14h1.39c0,.49,0,1.67,0,2.48Zm-3.81-.53c1.85,0,2.4-1.26,2.4-3.16s-.51-3.09-2.35-3.09c-1.6,0-2.41,1.34-2.41,3.2S620.3,48.93,621.71,48.93Z"/>
      <path class="cls-54" d="M629.82,46.19c0,1.75.9,3,2.36,3a2,2,0,0,0,2.07-1.34h1.51a3.52,3.52,0,0,1-3.64,2.58c-2.7,0-3.81-2.21-3.81-4.42,0-2.57,1.29-4.61,3.91-4.61,2.79,0,3.69,2.23,3.69,4.06,0,.27,0,.49,0,.71Zm4.59-1c0-1.43-.73-2.57-2.19-2.57s-2.19,1.05-2.35,2.57Z"/>
      <path class="cls-54" d="M651.07,47.72c0,.85,0,2,0,2.52h-1.45c0-.22-.05-.75-.07-1.29a2.55,2.55,0,0,1-2.6,1.5c-1.46,0-2.86-.73-2.86-3.16V41.62h1.48V47c0,1.12.36,2.18,1.78,2.18,1.58,0,2.19-.88,2.19-3V41.62h1.5Z"/>
      <path class="cls-54" d="M654.41,43.79c0-.75,0-1.51,0-2.18h1.44A12.87,12.87,0,0,1,655.9,43a2.71,2.71,0,0,1,2.7-1.62c1.63,0,2.89,1,2.89,3.28v5.54H660V44.88c0-1.31-.51-2.18-1.82-2.18-1.63,0-2.28,1.24-2.28,3v4.56h-1.5Z"/>
      <path class="cls-54" d="M664.81,39.61V37.76h1.5v1.85Zm0,2h1.5v8.62h-1.5Z"/>
      <path class="cls-54" d="M668.65,41.62h1.5V39.07h1.48v2.55h1.9v1.21h-1.9v5c0,.85.2,1.27,1,1.27a4,4,0,0,0,.75-.07V50.2a4,4,0,0,1-1.29.15c-1.34,0-1.92-.7-1.92-2.12V42.82h-1.5Z"/>
      <path class="cls-54" d="M681.52,39.61V37.76H683v1.85Zm0,2H683v8.62h-1.5Z"/>
      <path class="cls-54" d="M687.15,47.77a2,2,0,0,0,2.11,1.5c1.26,0,1.75-.54,1.75-1.33s-.39-1.19-2-1.58c-2.46-.6-3-1.36-3-2.53s.9-2.41,3.11-2.41,3.14,1.29,3.25,2.48h-1.43A1.72,1.72,0,0,0,689,42.57c-1.21,0-1.58.58-1.58,1.14s.36,1,1.94,1.34c2.62.63,3.14,1.5,3.14,2.77,0,1.51-1.21,2.62-3.35,2.62s-3.33-1.12-3.55-2.67Z"/>
      <path class="cls-54" d="M701.05,50.23V42.82h-1.38V41.62h1.38v-1c0-1.58.61-3,2.52-3a3.79,3.79,0,0,1,1,.1V39a3.6,3.6,0,0,0-.75-.08c-.88,0-1.22.54-1.22,1.8v.94h1.73v1.21h-1.73v7.41Z"/>
      <path class="cls-54" d="M706.71,39.61V37.76h1.5v1.85Zm0,2h1.5v8.62h-1.5Z"/>
      <path class="cls-54" d="M711.51,50.23V37.76H713V50.23Z"/>
      <path class="cls-54" d="M716.3,50.23V37.76h1.5V50.23Z"/>
      <path class="cls-54" d="M722.12,46.19c0,1.75.9,3,2.36,3a2,2,0,0,0,2.07-1.34h1.51a3.52,3.52,0,0,1-3.64,2.58c-2.7,0-3.81-2.21-3.81-4.42,0-2.57,1.29-4.61,3.91-4.61,2.79,0,3.69,2.23,3.69,4.06,0,.27,0,.49,0,.71Zm4.59-1c0-1.43-.73-2.57-2.19-2.57s-2.19,1.05-2.35,2.57Z"/>
      <path class="cls-54" d="M738.33,37.76v10c0,.8,0,1.6,0,2.43h-1.43a8.49,8.49,0,0,1-.08-1.22,2.69,2.69,0,0,1-2.7,1.43c-2.23,0-3.59-1.8-3.59-4.42s1.48-4.61,3.86-4.61c1.53,0,2.21.61,2.43,1.1V37.76Zm-3.89,11.42c2,0,2.46-1.5,2.46-3.38s-.41-3.13-2.35-3.13c-1.53,0-2.46,1.21-2.46,3.3S733.08,49.18,734.44,49.18Z"/>
    </g>
    <g>
      <path class="cls-54" d="M577,62.61c1.07,4,1.68,6.36,1.84,7.24h0c.15-.8.76-3,2-7.24h1.46c1.34,4.88,1.75,6.29,1.89,7.07h0c.22-.92.56-2.21,1.9-7.07h1.51L585,71.23h-1.62c-.83-3.14-1.67-6.05-1.85-7h0c-.15.94-.92,3.57-1.89,7h-1.67l-2.5-8.62Z"/>
      <path class="cls-54" d="M590.13,60.61V58.75h1.5v1.85Zm0,2h1.5v8.62h-1.5Z"/>
      <path class="cls-54" d="M594,62.61h1.5V60.06h1.48v2.55h1.9v1.21h-1.9v5c0,.85.2,1.27,1,1.27a4,4,0,0,0,.75-.07V71.2a4,4,0,0,1-1.29.15c-1.34,0-1.92-.7-1.92-2.12V63.82H594Z"/>
      <path class="cls-54" d="M602.81,58.75v5.13a2.86,2.86,0,0,1,2.69-1.48c1.38,0,2.91.75,2.91,3.31v5.51h-1.5V66c0-1.46-.61-2.28-1.87-2.28-1.55,0-2.23,1-2.23,2.82v4.71h-1.5V58.75Z"/>
      <path class="cls-54" d="M618.77,58.75v5.13a2.86,2.86,0,0,1,2.69-1.48c1.38,0,2.91.75,2.91,3.31v5.51h-1.5V66c0-1.46-.61-2.28-1.87-2.28-1.55,0-2.23,1-2.23,2.82v4.71h-1.5V58.75Z"/>
      <path class="cls-54" d="M635.16,66.9c0,2.5-1.43,4.54-4.06,4.54-2.46,0-4-1.9-4-4.5s1.46-4.52,4.06-4.52C633.6,62.41,635.16,64.19,635.16,66.9Zm-6.49,0c0,1.9,1,3.28,2.5,3.28s2.46-1.31,2.46-3.26-.88-3.28-2.5-3.28S628.67,65,628.67,66.91Z"/>
      <path class="cls-54" d="M638,64.84c0-.75,0-1.53,0-2.23h1.43c0,.25.07.88.07,1.33a2.66,2.66,0,0,1,2.5-1.53,2.38,2.38,0,0,1,2.4,1.55,2.93,2.93,0,0,1,2.74-1.55c1.41,0,2.72.83,2.72,3.16v5.66h-1.46V65.74c0-1-.36-2-1.7-2s-2,1.05-2,2.58v4.95h-1.46V65.79c0-1.1-.31-2.09-1.67-2.09s-2,1.12-2,2.75v4.78H638Z"/>
      <path class="cls-54" d="M654.13,67.18c0,1.75.9,3,2.36,3a2,2,0,0,0,2.07-1.34h1.51a3.52,3.52,0,0,1-3.64,2.58c-2.7,0-3.81-2.21-3.81-4.42,0-2.57,1.29-4.61,3.91-4.61,2.79,0,3.69,2.23,3.69,4.06,0,.27,0,.49,0,.71Zm4.59-1c0-1.43-.73-2.57-2.19-2.57s-2.19,1.05-2.35,2.57Z"/>
      <path class="cls-54" d="M669.2,68.76a2,2,0,0,0,2.11,1.5c1.26,0,1.75-.54,1.75-1.33s-.39-1.19-2-1.58c-2.46-.6-3-1.36-3-2.53s.9-2.41,3.11-2.41,3.14,1.29,3.25,2.48H673a1.72,1.72,0,0,0-1.87-1.33c-1.21,0-1.58.58-1.58,1.14s.36,1,1.94,1.34c2.62.63,3.14,1.5,3.14,2.77,0,1.51-1.21,2.62-3.35,2.62s-3.33-1.12-3.55-2.67Z"/>
      <path class="cls-54" d="M676.46,62.61H678V60.06h1.48v2.55h1.9v1.21h-1.9v5c0,.85.2,1.27,1,1.27a4,4,0,0,0,.75-.07V71.2a4,4,0,0,1-1.29.15c-1.34,0-1.92-.7-1.92-2.12V63.82h-1.5Z"/>
      <path class="cls-54" d="M690.73,68.71c0,.85,0,2,0,2.52h-1.45c0-.22-.05-.75-.07-1.29a2.55,2.55,0,0,1-2.6,1.5c-1.46,0-2.86-.73-2.86-3.16V62.61h1.48V68c0,1.12.36,2.18,1.79,2.18,1.58,0,2.19-.88,2.19-3V62.61h1.5Z"/>
      <path class="cls-54" d="M696,63.82v7.41h-1.5V63.82H693.1V62.61h1.38v-1c0-1.6.53-3,2.5-3a2.57,2.57,0,0,1,.85.12v1.24a2.6,2.6,0,0,0-.71-.1c-.83,0-1.14.54-1.14,1.7v1.07h3.13v-1c0-1.6.54-3,2.5-3a2.57,2.57,0,0,1,.85.12v1.24a2.59,2.59,0,0,0-.71-.1c-.83,0-1.14.54-1.14,1.7v1.07h1.7v1.21h-1.7v7.41h-1.5V63.82Z"/>
      <path class="cls-54" d="M704.11,71.23V68.71h1.56v2.52Z"/>
    </g>
  </g>
</svg>
