<svg id="genx" xmlns="http://www.w3.org/2000/svg" xmlns:xlink="http://www.w3.org/1999/xlink" viewBox="0 0 798.69 725.76">
  <defs>
    <style>
      .cls-1 {
        fill: none;
      }

      .cls-2 {
        fill: #ffd600;
      }

      .cls-3 {
        fill: #ffb04e;
      }

      .cls-4 {
        fill: #f98675;
      }

      .cls-5 {
        fill: #e95f93;
      }

      .cls-6 {
        fill: #cc34b4;
      }

      .cls-7 {
        fill: #e84524;
      }

      .cls-8 {
        fill: #eb6d20;
      }

      .cls-9 {
        fill: #12e17e;
      }

      .cls-10 {
        fill: #29cef4;
      }

      .cls-11 {
        fill: #a9a9a9;
      }

      .cls-12 {
        fill: #9c02d6;
      }

      .cls-13 {
        fill: #0664ff;
      }

      .cls-14 {
        clip-path: url(#clip-path);
      }

      .cls-15 {
        clip-path: url(#clip-path-2);
      }

      .cls-16 {
        fill: #055ef2;
      }

      .cls-17 {
        clip-path: url(#clip-path-3);
      }

      .cls-18 {
        fill: #0563fc;
      }

      .cls-19 {
        fill: #0561f7;
      }

      .cls-20 {
        fill: #9c03d4;
      }

      .cls-21 {
        fill: #9403cc;
      }

      .cls-22 {
        fill: #9903d1;
      }

      .cls-23 {
        fill: #a8a8a8;
      }

      .cls-24 {
        fill: #a3a3a3;
      }

      .cls-25 {
        fill: #a6a6a6;
      }

      .cls-26 {
        fill: #29ccf2;
      }

      .cls-27 {
        fill: #26c4e8;
      }

      .cls-28 {
        fill: #29c9ed;
      }

      .cls-29 {
        fill: #12de7d;
      }

      .cls-30 {
        fill: #12d678;
      }

      .cls-31 {
        fill: #12db7a;
      }

      .cls-32 {
        fill: #e86b21;
      }

      .cls-33 {
        fill: #e0691f;
      }

      .cls-34 {
        fill: #e56b1f;
      }

      .cls-35 {
        fill: #e54524;
      }

      .cls-36 {
        fill: #de4221;
      }

      .cls-37 {
        fill: #e34224;
      }

      .cls-38 {
        fill: #c933b2;
      }

      .cls-39 {
        fill: #c230ab;
      }

      .cls-40 {
        fill: #c733b0;
      }

      .cls-41 {
        fill: #e85e91;
      }

      .cls-42 {
        fill: #de598c;
      }

      .cls-43 {
        fill: #e35c8f;
      }

      .cls-44 {
        fill: #f78573;
      }

      .cls-45 {
        fill: #ed8070;
      }

      .cls-46 {
        fill: #f28273;
      }

      .cls-47 {
        fill: #fcb04d;
      }

      .cls-48 {
        fill: #f2a84a;
      }

      .cls-49 {
        fill: #f7ab4d;
      }

      .cls-50 {
        fill: #fcd400;
      }

      .cls-51 {
        fill: #f2cc00;
      }

      .cls-52 {
        fill: #f7d100;
      }

      .cls-53 {
        fill: #fff;
      }

      .cls-54 {
        fill: #231f20;
      }
    </style>
    <clipPath id="clip-path">
      <path class="cls-1" d="M131.36,467.24l186,101.21a2.32,2.32,0,0,1-1.35-2L130,465.2a2.32,2.32,0,0,0,1.36,2"/>
    </clipPath>
    <clipPath id="clip-path-2">
      <rect class="cls-1" x="343.04" y="24.52" width="337" height="333"/>
    </clipPath>
    <clipPath id="clip-path-3">
      <rect class="cls-1" x="130" y="25.3" width="550" height="543.7"/>
    </clipPath>
  </defs>
  <title>storage_contents_genx</title>
  <g>
    <g>
      <path class="cls-2" d="M10.31,589.72H12.7V594h4.45v-4.29h2.38v11H17.15V596H12.7v4.77H10.31Z"/>
      <path class="cls-2" d="M33.26,595.19c0,3.07-1.84,5.71-5.43,5.71s-5.28-2.51-5.28-5.68,2-5.67,5.43-5.67C31.21,589.56,33.26,591.81,33.26,595.19Zm-8.24,0c0,2.16.94,3.79,2.9,3.79,2.13,0,2.88-1.78,2.88-3.75s-.86-3.73-2.91-3.73S25,593,25,595.17Z"/>
      <path class="cls-2" d="M38.54,589.72v6.56c0,2.13,1.09,2.75,2.29,2.75,1.36,0,2.21-.74,2.21-2.75v-6.56h2.4v6.45c0,3.78-2.21,4.74-4.64,4.74s-4.64-1-4.64-4.69v-6.5Z"/>
      <path class="cls-2" d="M50.49,597.51a2.05,2.05,0,0,0,2.32,1.6c1.28,0,1.82-.51,1.82-1.31s-.53-1.3-2.42-1.73c-3-.7-3.75-1.81-3.75-3.3,0-1.92,1.44-3.22,4-3.22,2.93,0,4.1,1.57,4.26,3.19h-2.4c-.13-.69-.5-1.42-1.92-1.42-1,0-1.55.4-1.55,1.18s.46,1.09,2.26,1.49c3.2.77,3.91,2,3.91,3.52,0,2-1.52,3.39-4.43,3.39s-4.29-1.38-4.55-3.39Z"/>
      <path class="cls-2" d="M67.64,596H62.36v2.8h5.83l-.29,2H60v-11h7.83v2H62.36V594h5.28Z"/>
      <path class="cls-2" d="M72.89,600.74l-2.82-11h2.54c1,5.06,1.5,7.31,1.63,8.53h0c.42-2,1.49-5.87,2.13-8.53h2.15c.58,2.11,1.68,6.39,2,8.42h0c.37-2.43,1.44-6.71,1.84-8.42h2.31l-3,11H79.29c-.58-2.45-1.55-6-1.94-7.91h0c-.4,2-1.39,5.68-2,7.91Z"/>
      <path class="cls-2" d="M88.84,598.2,88,600.74H85.64l3.75-11h3l3.92,11H93.79l-.91-2.54Zm3.52-2c-.78-2.34-1.28-3.83-1.55-4.82h0c-.27,1.09-.82,2.82-1.44,4.82Z"/>
      <path class="cls-2" d="M101.08,596.33v4.42H98.74v-11h4.85c2.4,0,3.7,1.31,3.7,3a2.65,2.65,0,0,1-1.6,2.61c.54.21,1.38.77,1.38,2.75v.54a8.32,8.32,0,0,0,.16,2.1H105a7.9,7.9,0,0,1-.22-2.48v-.16c0-1.2-.3-1.78-2.08-1.78Zm0-1.9h2c1.3,0,1.81-.5,1.81-1.41s-.59-1.41-1.76-1.41h-2Z"/>
      <path class="cls-2" d="M118.06,596h-5.28v2.8h5.83l-.29,2h-7.86v-11h7.83v2h-5.51V594h5.28Z"/>
    </g>
    <g>
      <path class="cls-2" d="M124.23,600.74v-2.82h2.45v2.82Z"/>
      <path class="cls-2" d="M129.21,600.74v-2.82h2.45v2.82Z"/>
      <path class="cls-2" d="M134.18,600.74v-2.82h2.45v2.82Z"/>
      <path class="cls-2" d="M139.16,600.74v-2.82h2.45v2.82Z"/>
      <path class="cls-2" d="M144.14,600.74v-2.82h2.45v2.82Z"/>
      <path class="cls-2" d="M149.11,600.74v-2.82h2.45v2.82Z"/>
      <path class="cls-2" d="M154.09,600.74v-2.82h2.45v2.82Z"/>
      <path class="cls-2" d="M159.06,600.74v-2.82h2.45v2.82Z"/>
      <path class="cls-2" d="M164,600.74v-2.82h2.45v2.82Z"/>
      <path class="cls-2" d="M169,600.74v-2.82h2.45v2.82Z"/>
      <path class="cls-2" d="M174,600.74v-2.82h2.45v2.82Z"/>
      <path class="cls-2" d="M179,600.74v-2.82h2.45v2.82Z"/>
      <path class="cls-2" d="M183.94,600.74v-2.82h2.45v2.82Z"/>
      <path class="cls-2" d="M188.92,600.74v-2.82h2.45v2.82Z"/>
      <path class="cls-2" d="M193.89,600.74v-2.82h2.45v2.82Z"/>
      <path class="cls-2" d="M198.87,600.74v-2.82h2.45v2.82Z"/>
      <path class="cls-2" d="M203.85,600.74v-2.82h2.45v2.82Z"/>
      <path class="cls-2" d="M208.82,600.74v-2.82h2.45v2.82Z"/>
      <path class="cls-2" d="M213.8,600.74v-2.82h2.45v2.82Z"/>
      <path class="cls-2" d="M218.77,600.74v-2.82h2.45v2.82Z"/>
      <path class="cls-2" d="M223.75,600.74v-2.82h2.45v2.82Z"/>
      <path class="cls-2" d="M228.73,600.74v-2.82h2.45v2.82Z"/>
      <path class="cls-2" d="M233.7,600.74v-2.82h2.45v2.82Z"/>
      <path class="cls-2" d="M238.68,600.74v-2.82h2.45v2.82Z"/>
      <path class="cls-2" d="M243.65,600.74v-2.82h2.45v2.82Z"/>
      <path class="cls-2" d="M248.63,600.74v-2.82h2.45v2.82Z"/>
      <path class="cls-2" d="M253.6,600.74v-2.82h2.45v2.82Z"/>
      <path class="cls-2" d="M258.58,600.74v-2.82H261v2.82Z"/>
      <path class="cls-2" d="M263.56,600.74v-2.82H266v2.82Z"/>
      <path class="cls-2" d="M268.53,600.74v-2.82H271v2.82Z"/>
      <path class="cls-2" d="M273.51,600.74v-2.82H276v2.82Z"/>
      <path class="cls-2" d="M278.48,600.74v-2.82h2.45v2.82Z"/>
      <path class="cls-2" d="M283.46,600.74v-2.82h2.45v2.82Z"/>
      <path class="cls-2" d="M288.44,600.74v-2.82h2.45v2.82Z"/>
      <path class="cls-2" d="M293.41,600.74v-2.82h2.45v2.82Z"/>
      <path class="cls-2" d="M298.39,600.74v-2.82h2.45v2.82Z"/>
      <path class="cls-2" d="M303.36,600.74v-2.82h2.45v2.82Z"/>
      <path class="cls-2" d="M308.34,600.74v-2.82h2.45v2.82Z"/>
      <path class="cls-2" d="M313.32,600.74v-2.82h2.45v2.82Z"/>
      <path class="cls-2" d="M318.29,600.74v-2.82h2.45v2.82Z"/>
      <path class="cls-2" d="M323.27,600.74v-2.82h2.45v2.82Z"/>
      <path class="cls-2" d="M328.24,600.74v-2.82h2.45v2.82Z"/>
    </g>
    <path class="cls-2" d="M334.76,600.74v-.14c0-1.82.53-3.39,3.41-5.44,1.49-1.06,1.87-1.33,1.87-2.27a1.31,1.31,0,0,0-1.38-1.49c-1,0-1.42.59-1.58,1.58h-2.35a3.61,3.61,0,0,1,3.94-3.43c2.85,0,3.78,1.76,3.78,3.28,0,1.7-.67,2.42-2.74,3.79-1.41.93-2,1.62-2.21,2.21h5.38l-.3,1.9Zm18.61-5.59c0,2.83-1,5.78-4.24,5.78s-4.23-2.71-4.23-5.71c0-2.77,1.12-5.67,4.29-5.67S353.37,592.24,353.37,595.16Zm-6.08,0c0,2.21.4,3.86,1.86,3.86s1.82-1.71,1.82-3.89-.37-3.78-1.78-3.78S347.29,592.82,347.29,595.21Z"/>
    <path class="cls-2" d="M355.69,600.74v-2.82h2.45v2.82Z"/>
    <path class="cls-2" d="M367.71,589.72v1.71a22.46,22.46,0,0,0-3.86,9.32h-2.58a20.88,20.88,0,0,1,4-9.14H360v-1.89Zm7.68,3.33a2.75,2.75,0,0,1-2.85,3c-1.7,0-2.83-1-2.83-3a2.77,2.77,0,0,1,2.85-3A2.7,2.7,0,0,1,375.39,593Zm-3.91,0c0,1,.38,1.6,1.09,1.6s1.09-.5,1.09-1.6-.45-1.58-1.1-1.58S371.48,592,371.48,593Zm1,7.7L379,590.2h1.68l-6.48,10.55Zm11-2.85a2.76,2.76,0,0,1-2.85,3.06c-1.71,0-2.83-1.06-2.83-3a2.76,2.76,0,0,1,2.85-3A2.69,2.69,0,0,1,383.49,597.89Zm-3.92,0c0,1,.38,1.62,1.09,1.62s1.1-.51,1.1-1.62-.45-1.57-1.1-1.57S379.57,596.84,379.57,597.89Z"/>
    <g>
      <path class="cls-3" d="M10.31,613.72H18v2H12.65v2.71h5v2h-5v4.42H10.31Z"/>
      <path class="cls-3" d="M23,613.72v6.56c0,2.13,1.09,2.75,2.29,2.75,1.36,0,2.21-.74,2.21-2.75v-6.56h2.4v6.45c0,3.78-2.21,4.74-4.64,4.74s-4.64-1-4.64-4.69v-6.5Z"/>
      <path class="cls-3" d="M35.71,620.33v4.42H33.37v-11h4.85c2.4,0,3.7,1.31,3.7,3a2.65,2.65,0,0,1-1.6,2.61c.54.21,1.38.77,1.38,2.75v.54a8.32,8.32,0,0,0,.16,2.1H39.58a7.9,7.9,0,0,1-.22-2.48v-.16c0-1.2-.3-1.78-2.08-1.78Zm0-1.9h2c1.3,0,1.81-.5,1.81-1.41s-.59-1.41-1.76-1.41h-2Z"/>
      <path class="cls-3" d="M45.08,624.74v-11h3c1.38,2.46,3.92,6.95,4.43,8.15h0c-.13-1.15-.13-3.07-.13-4.88v-3.27h2.16v11h-2.8c-1.18-2.16-4-7.28-4.56-8.56h0c.08,1,.11,3.23.11,5.2v3.36Z"/>
      <path class="cls-3" d="M60.5,613.72v11H58.12v-11Z"/>
      <path class="cls-3" d="M66.26,615.67H62.9v-2H72v2H68.65v9.08H66.26Z"/>
      <path class="cls-3" d="M76.73,613.72v6.56c0,2.13,1.09,2.75,2.29,2.75,1.36,0,2.21-.74,2.21-2.75v-6.56h2.4v6.45c0,3.78-2.21,4.74-4.64,4.74s-4.64-1-4.64-4.69v-6.5Z"/>
      <path class="cls-3" d="M89.45,620.33v4.42H87.11v-11H92c2.4,0,3.7,1.31,3.7,3a2.65,2.65,0,0,1-1.6,2.61c.54.21,1.38.77,1.38,2.75v.54a8.32,8.32,0,0,0,.16,2.1H93.32a7.9,7.9,0,0,1-.22-2.48v-.16c0-1.2-.3-1.78-2.08-1.78Zm0-1.9h2c1.3,0,1.81-.5,1.81-1.41s-.59-1.41-1.76-1.41h-2Z"/>
      <path class="cls-3" d="M106.43,620h-5.28v2.8H107l-.29,2H98.82v-11h7.83v2h-5.51V618h5.28Z"/>
    </g>
    <g>
      <path class="cls-3" d="M109.3,624.74v-2.82h2.45v2.82Z"/>
      <path class="cls-3" d="M114.28,624.74v-2.82h2.45v2.82Z"/>
      <path class="cls-3" d="M119.26,624.74v-2.82h2.45v2.82Z"/>
      <path class="cls-3" d="M124.23,624.74v-2.82h2.45v2.82Z"/>
      <path class="cls-3" d="M129.21,624.74v-2.82h2.45v2.82Z"/>
      <path class="cls-3" d="M134.18,624.74v-2.82h2.45v2.82Z"/>
      <path class="cls-3" d="M139.16,624.74v-2.82h2.45v2.82Z"/>
      <path class="cls-3" d="M144.14,624.74v-2.82h2.45v2.82Z"/>
      <path class="cls-3" d="M149.11,624.74v-2.82h2.45v2.82Z"/>
      <path class="cls-3" d="M154.09,624.74v-2.82h2.45v2.82Z"/>
      <path class="cls-3" d="M159.06,624.74v-2.82h2.45v2.82Z"/>
      <path class="cls-3" d="M164,624.74v-2.82h2.45v2.82Z"/>
      <path class="cls-3" d="M169,624.74v-2.82h2.45v2.82Z"/>
      <path class="cls-3" d="M174,624.74v-2.82h2.45v2.82Z"/>
      <path class="cls-3" d="M179,624.74v-2.82h2.45v2.82Z"/>
      <path class="cls-3" d="M183.94,624.74v-2.82h2.45v2.82Z"/>
      <path class="cls-3" d="M188.92,624.74v-2.82h2.45v2.82Z"/>
      <path class="cls-3" d="M193.89,624.74v-2.82h2.45v2.82Z"/>
      <path class="cls-3" d="M198.87,624.74v-2.82h2.45v2.82Z"/>
      <path class="cls-3" d="M203.85,624.74v-2.82h2.45v2.82Z"/>
      <path class="cls-3" d="M208.82,624.74v-2.82h2.45v2.82Z"/>
      <path class="cls-3" d="M213.8,624.74v-2.82h2.45v2.82Z"/>
      <path class="cls-3" d="M218.77,624.74v-2.82h2.45v2.82Z"/>
      <path class="cls-3" d="M223.75,624.74v-2.82h2.45v2.82Z"/>
      <path class="cls-3" d="M228.73,624.74v-2.82h2.45v2.82Z"/>
      <path class="cls-3" d="M233.7,624.74v-2.82h2.45v2.82Z"/>
      <path class="cls-3" d="M238.68,624.74v-2.82h2.45v2.82Z"/>
      <path class="cls-3" d="M243.65,624.74v-2.82h2.45v2.82Z"/>
      <path class="cls-3" d="M248.63,624.74v-2.82h2.45v2.82Z"/>
      <path class="cls-3" d="M253.6,624.74v-2.82h2.45v2.82Z"/>
      <path class="cls-3" d="M258.58,624.74v-2.82H261v2.82Z"/>
      <path class="cls-3" d="M263.56,624.74v-2.82H266v2.82Z"/>
      <path class="cls-3" d="M268.53,624.74v-2.82H271v2.82Z"/>
      <path class="cls-3" d="M273.51,624.74v-2.82H276v2.82Z"/>
      <path class="cls-3" d="M278.48,624.74v-2.82h2.45v2.82Z"/>
      <path class="cls-3" d="M283.46,624.74v-2.82h2.45v2.82Z"/>
      <path class="cls-3" d="M288.44,624.74v-2.82h2.45v2.82Z"/>
      <path class="cls-3" d="M293.41,624.74v-2.82h2.45v2.82Z"/>
      <path class="cls-3" d="M298.39,624.74v-2.82h2.45v2.82Z"/>
      <path class="cls-3" d="M303.36,624.74v-2.82h2.45v2.82Z"/>
      <path class="cls-3" d="M308.34,624.74v-2.82h2.45v2.82Z"/>
      <path class="cls-3" d="M313.31,624.74v-2.82h2.45v2.82Z"/>
      <path class="cls-3" d="M318.29,624.74v-2.82h2.45v2.82Z"/>
      <path class="cls-3" d="M323.27,624.74v-2.82h2.45v2.82Z"/>
      <path class="cls-3" d="M328.24,624.74v-2.82h2.45v2.82Z"/>
    </g>
    <path class="cls-3" d="M338.36,624.74v-8.26a7,7,0,0,1-2.06.38V615.2a5.54,5.54,0,0,0,2.8-1.49h1.66v11Zm5.3-8.08a3.53,3.53,0,0,1,3.84-3.11c2.51,0,3.71,1.38,3.71,2.93a2.24,2.24,0,0,1-1.39,2.22v0a2.62,2.62,0,0,1,1.78,2.66c0,1.73-1.09,3.57-4.15,3.54-2.59,0-3.91-1.62-4-3.27h2.27a1.72,1.72,0,0,0,1.84,1.46,1.55,1.55,0,0,0,1.73-1.68c0-1-.42-1.74-1.94-1.74h-.8v-1.76h.75c1.1,0,1.63-.32,1.63-1.25a1.27,1.27,0,0,0-1.44-1.34,1.47,1.47,0,0,0-1.6,1.31Z"/>
    <path class="cls-3" d="M354.15,624.74v-2.82h2.45v2.82Z"/>
    <path class="cls-3" d="M359.16,621.54a2.81,2.81,0,0,1,1.76-2.63,2.46,2.46,0,0,1-1.3-2.29c0-1.73,1.38-3.07,3.83-3.07,2.27,0,3.75,1.26,3.75,3a2.35,2.35,0,0,1-1.33,2.24,2.74,2.74,0,0,1,1.74,2.63c0,2.38-1.82,3.49-4.34,3.49C361,624.94,359.16,623.78,359.16,621.54Zm6.11-.06c0-1.07-.7-1.63-1.89-1.63s-1.87.64-1.87,1.57a1.67,1.67,0,0,0,1.9,1.71C364.55,623.13,365.27,622.55,365.27,621.48Zm-3.46-4.77c0,.75.54,1.3,1.6,1.3s1.57-.48,1.57-1.26-.58-1.41-1.58-1.41S361.82,615.83,361.82,616.71Zm13.57.34a2.75,2.75,0,0,1-2.85,3c-1.7,0-2.83-1-2.83-3a2.77,2.77,0,0,1,2.85-3A2.7,2.7,0,0,1,375.39,617Zm-3.91,0c0,1,.38,1.6,1.09,1.6s1.09-.5,1.09-1.6-.45-1.58-1.1-1.58S371.48,616,371.48,617Zm1,7.7L379,614.2h1.68l-6.48,10.55Zm11-2.85a2.76,2.76,0,0,1-2.85,3.06c-1.71,0-2.83-1.06-2.83-3a2.76,2.76,0,0,1,2.85-3A2.69,2.69,0,0,1,383.49,621.89Zm-3.92,0c0,1,.38,1.62,1.09,1.62s1.1-.51,1.1-1.62-.45-1.57-1.1-1.57S379.57,620.84,379.57,621.89Z"/>
    <g>
      <path class="cls-4" d="M10.31,637.72H12.7V642h4.45v-4.29h2.38v11H17.15V644H12.7v4.77H10.31Z"/>
      <path class="cls-4" d="M33.26,643.19c0,3.07-1.84,5.71-5.43,5.71s-5.28-2.51-5.28-5.68,2-5.67,5.43-5.67C31.21,637.56,33.26,639.81,33.26,643.19Zm-8.24,0c0,2.16.94,3.79,2.9,3.79,2.13,0,2.88-1.78,2.88-3.75s-.86-3.73-2.91-3.73S25,641,25,643.17Z"/>
      <path class="cls-4" d="M36.28,637.72H41.1c2.67,0,3.68,1.38,3.68,2.82a2.49,2.49,0,0,1-1.41,2.38,2.65,2.65,0,0,1,1.73,2.53c0,1.89-1.49,3.3-3.83,3.3h-5Zm4.55,4.35c1.14,0,1.6-.51,1.6-1.3s-.61-1.22-1.52-1.22H38.62v2.51Zm-2.21,4.83h2.16c1.3,0,1.87-.54,1.87-1.54s-.58-1.46-1.89-1.46H38.62Z"/>
      <path class="cls-4" d="M48.14,637.72H53c2.67,0,3.68,1.38,3.68,2.82a2.49,2.49,0,0,1-1.41,2.38A2.65,2.65,0,0,1,57,645.45c0,1.89-1.49,3.3-3.83,3.3h-5Zm4.55,4.35c1.14,0,1.6-.51,1.6-1.3s-.61-1.22-1.52-1.22H50.47v2.51Zm-2.21,4.83h2.16c1.3,0,1.87-.54,1.87-1.54s-.58-1.46-1.89-1.46H50.47Z"/>
      <path class="cls-4" d="M62.15,648.74v-3.91a.62.62,0,0,0-.1-.35l-3.81-6.77H61c.85,1.66,2,3.87,2.51,5.07.48-1.15,1.68-3.49,2.51-5.07h2.5l-3.86,6.74a.65.65,0,0,0-.08.35v3.94Z"/>
      <path class="cls-4" d="M77.75,644.33v4.42H75.42v-11h4.85c2.4,0,3.7,1.31,3.7,3a2.65,2.65,0,0,1-1.6,2.61c.54.21,1.38.77,1.38,2.75v.54a8.32,8.32,0,0,0,.16,2.1H81.63a7.9,7.9,0,0,1-.22-2.48v-.16c0-1.2-.3-1.78-2.08-1.78Zm0-1.9h2c1.3,0,1.81-.5,1.81-1.41S81,639.6,79.8,639.6h-2Z"/>
      <path class="cls-4" d="M94.73,644H89.45v2.8h5.83l-.29,2H87.13v-11H95v2H89.45V642h5.28Z"/>
      <path class="cls-4" d="M98.17,637.72h2.38v9.08h5.51l-.27,2H98.17Z"/>
      <path class="cls-4" d="M111,646.2l-.85,2.54H107.8l3.75-11h3l3.92,11h-2.51L115,646.2Zm3.52-2c-.78-2.34-1.28-3.83-1.55-4.82h0c-.27,1.09-.82,2.82-1.44,4.82Z"/>
      <path class="cls-4" d="M122.09,639.67h-3.36v-2h9.09v2h-3.35v9.08h-2.38Z"/>
      <path class="cls-4" d="M137.83,644h-5.28v2.8h5.83l-.29,2h-7.86v-11h7.83v2h-5.51V642h5.28Z"/>
      <path class="cls-4" d="M141.27,637.72h4.39a5,5,0,0,1,5.31,5.38c0,3.22-2,5.65-5.43,5.65h-4.27Zm2.38,9.11h1.79c2.11,0,3.06-1.58,3.06-3.73,0-1.81-.88-3.46-3-3.46h-1.81Z"/>
      <path class="cls-4" d="M169,643.19c0,3.07-1.84,5.71-5.43,5.71s-5.28-2.51-5.28-5.68,2-5.67,5.43-5.67C167,637.56,169,639.81,169,643.19Zm-8.24,0c0,2.16.94,3.79,2.9,3.79,2.13,0,2.88-1.78,2.88-3.75s-.86-3.73-2.91-3.73S160.76,641,160.76,643.17Z"/>
      <path class="cls-4" d="M172,637.72h4.82c2.67,0,3.68,1.38,3.68,2.82a2.49,2.49,0,0,1-1.41,2.38,2.65,2.65,0,0,1,1.73,2.53c0,1.89-1.49,3.3-3.83,3.3h-5Zm4.55,4.35c1.14,0,1.6-.51,1.6-1.3s-.61-1.22-1.52-1.22h-2.29v2.51Zm-2.21,4.83h2.16c1.3,0,1.87-.54,1.87-1.54s-.58-1.46-1.89-1.46h-2.15Z"/>
      <path class="cls-4" d="M187.74,645.21c0,2.54-.83,3.7-3.25,3.7a6.6,6.6,0,0,1-1.49-.14v-1.89a9.66,9.66,0,0,0,1.09.06c1.09,0,1.26-.74,1.26-1.57v-7.65h2.39Z"/>
      <path class="cls-4" d="M198.86,644h-5.28v2.8h5.83l-.29,2h-7.86v-11h7.83v2h-5.51V642h5.28Z"/>
      <path class="cls-4" d="M211.55,645.34c-.43,2.06-2,3.57-4.75,3.57-3.51,0-5.15-2.48-5.15-5.62s1.71-5.73,5.27-5.73c2.94,0,4.37,1.71,4.64,3.57h-2.38a2.18,2.18,0,0,0-2.34-1.71c-2,0-2.72,1.78-2.72,3.79,0,1.86.66,3.83,2.79,3.83a2.18,2.18,0,0,0,2.26-1.7Z"/>
      <path class="cls-4" d="M216.84,639.67h-3.36v-2h9.09v2h-3.35v9.08h-2.38Z"/>
      <path class="cls-4" d="M226.74,645.51a2.05,2.05,0,0,0,2.32,1.6c1.28,0,1.82-.51,1.82-1.31s-.53-1.3-2.42-1.73c-3-.7-3.75-1.81-3.75-3.3,0-1.92,1.44-3.22,4-3.22,2.93,0,4.1,1.57,4.26,3.19h-2.4c-.13-.69-.5-1.42-1.92-1.42-1,0-1.55.4-1.55,1.18s.46,1.09,2.26,1.49c3.2.77,3.91,2,3.91,3.52,0,2-1.52,3.39-4.43,3.39s-4.29-1.38-4.55-3.39Z"/>
    </g>
    <g>
      <path class="cls-4" d="M238.67,648.74v-2.82h2.45v2.82Z"/>
      <path class="cls-4" d="M243.65,648.74v-2.82h2.45v2.82Z"/>
      <path class="cls-4" d="M248.62,648.74v-2.82h2.45v2.82Z"/>
      <path class="cls-4" d="M253.6,648.74v-2.82H256v2.82Z"/>
      <path class="cls-4" d="M258.57,648.74v-2.82H261v2.82Z"/>
      <path class="cls-4" d="M263.55,648.74v-2.82H266v2.82Z"/>
      <path class="cls-4" d="M268.52,648.74v-2.82H271v2.82Z"/>
      <path class="cls-4" d="M273.5,648.74v-2.82h2.45v2.82Z"/>
      <path class="cls-4" d="M278.48,648.74v-2.82h2.45v2.82Z"/>
      <path class="cls-4" d="M283.45,648.74v-2.82h2.45v2.82Z"/>
      <path class="cls-4" d="M288.43,648.74v-2.82h2.45v2.82Z"/>
      <path class="cls-4" d="M293.4,648.74v-2.82h2.45v2.82Z"/>
      <path class="cls-4" d="M298.38,648.74v-2.82h2.45v2.82Z"/>
      <path class="cls-4" d="M303.36,648.74v-2.82h2.45v2.82Z"/>
      <path class="cls-4" d="M308.33,648.74v-2.82h2.45v2.82Z"/>
      <path class="cls-4" d="M313.31,648.74v-2.82h2.45v2.82Z"/>
      <path class="cls-4" d="M318.28,648.74v-2.82h2.45v2.82Z"/>
      <path class="cls-4" d="M323.26,648.74v-2.82h2.45v2.82Z"/>
      <path class="cls-4" d="M328.23,648.74v-2.82h2.45v2.82Z"/>
    </g>
    <path class="cls-4" d="M338.25,648.74v-8.26a7,7,0,0,1-2.06.38V639.2a5.54,5.54,0,0,0,2.8-1.49h1.66v11Zm5.29,0v-.14c0-1.82.53-3.39,3.41-5.44,1.49-1.06,1.87-1.33,1.87-2.27a1.31,1.31,0,0,0-1.38-1.49c-1,0-1.42.59-1.58,1.58H343.5a3.61,3.61,0,0,1,3.94-3.43c2.85,0,3.78,1.76,3.78,3.28,0,1.7-.67,2.42-2.74,3.79-1.41.93-2,1.62-2.21,2.21h5.38l-.3,1.9Z"/>
    <path class="cls-4" d="M354.28,648.74v-2.82h2.45v2.82Z"/>
    <path class="cls-4" d="M361.66,646.1a1.43,1.43,0,0,0,1.52,1.06c1.5,0,1.84-1.58,1.9-3.2a2.93,2.93,0,0,1-2.34.88,3.32,3.32,0,0,1-3.57-3.52,3.72,3.72,0,0,1,4-3.76c3,0,4.23,2.14,4.23,5.15,0,2.85-.69,6.23-4.35,6.23-2.32,0-3.46-1.28-3.68-2.83Zm-.14-4.9a1.68,1.68,0,0,0,1.74,1.9c1.07,0,1.66-.53,1.66-1.82,0-.94-.27-2-1.68-2A1.69,1.69,0,0,0,361.51,641.2Zm13.89-.16a2.75,2.75,0,0,1-2.85,3c-1.7,0-2.83-1-2.83-3a2.77,2.77,0,0,1,2.85-3A2.7,2.7,0,0,1,375.41,641Zm-3.91,0c0,1,.38,1.6,1.09,1.6s1.09-.5,1.09-1.6-.45-1.58-1.1-1.58S371.5,640,371.5,641Zm1,7.7L379,638.2h1.68l-6.48,10.55Zm11-2.85a2.76,2.76,0,0,1-2.85,3.06c-1.71,0-2.83-1.06-2.83-3a2.76,2.76,0,0,1,2.85-3A2.69,2.69,0,0,1,383.51,645.89Zm-3.92,0c0,1,.38,1.62,1.09,1.62s1.1-.51,1.1-1.62-.45-1.57-1.1-1.57S379.58,644.84,379.58,645.89Z"/>
    <g>
      <path class="cls-5" d="M10.33,661.72h4.56c2.35,0,3.94,1.31,3.94,3.41,0,2.4-1.81,3.51-4,3.51H12.71v4.11H10.33Zm2.38,5h1.83c1.1,0,1.89-.43,1.89-1.55s-.83-1.57-1.84-1.57H12.71Z"/>
      <path class="cls-5" d="M29.1,668H23.82v2.8h5.83l-.29,2H21.5v-11h7.83v2H23.82V666H29.1Z"/>
      <path class="cls-5" d="M34.87,668.33v4.42H32.54v-11h4.85c2.4,0,3.7,1.31,3.7,3a2.65,2.65,0,0,1-1.6,2.61c.54.21,1.38.77,1.38,2.75v.54a8.32,8.32,0,0,0,.16,2.1H38.75a7.9,7.9,0,0,1-.22-2.48v-.16c0-1.2-.3-1.78-2.08-1.78Zm0-1.9h2c1.3,0,1.81-.5,1.81-1.41s-.59-1.41-1.76-1.41h-2Z"/>
      <path class="cls-5" d="M45.88,669.51a2.05,2.05,0,0,0,2.32,1.6c1.28,0,1.82-.51,1.82-1.31s-.53-1.3-2.42-1.73c-3-.7-3.75-1.81-3.75-3.3,0-1.92,1.44-3.22,4-3.22,2.93,0,4.1,1.57,4.26,3.19h-2.4c-.13-.69-.5-1.42-1.92-1.42-1,0-1.55.4-1.55,1.18s.46,1.09,2.26,1.49c3.2.77,3.91,2,3.91,3.52,0,2-1.52,3.39-4.43,3.39s-4.29-1.38-4.55-3.39Z"/>
      <path class="cls-5" d="M65.52,667.19c0,3.07-1.84,5.71-5.43,5.71s-5.28-2.51-5.28-5.68,2-5.67,5.43-5.67C63.47,661.56,65.52,663.81,65.52,667.19Zm-8.24,0c0,2.16.94,3.79,2.9,3.79,2.13,0,2.88-1.78,2.88-3.75s-.86-3.73-2.91-3.73S57.27,665,57.27,667.17Z"/>
      <path class="cls-5" d="M68.54,672.74v-11h3c1.38,2.46,3.92,6.95,4.43,8.15h0c-.13-1.15-.13-3.07-.13-4.88v-3.27H78v11h-2.8c-1.18-2.16-4-7.28-4.56-8.56h0c.08,1,.11,3.23.11,5.2v3.36Z"/>
      <path class="cls-5" d="M83.64,670.2l-.85,2.54H80.44l3.75-11h3l3.92,11H88.59l-.91-2.54Zm3.52-2c-.78-2.34-1.28-3.83-1.55-4.82h0c-.27,1.09-.82,2.82-1.44,4.82Z"/>
      <path class="cls-5" d="M93.54,661.72h2.38v9.08h5.51l-.27,2H93.54Z"/>
      <path class="cls-5" d="M111.08,661.72v11H108.7v-11Z"/>
      <path class="cls-5" d="M116.84,663.67h-3.36v-2h9.09v2h-3.35v9.08h-2.38Z"/>
      <path class="cls-5" d="M132.59,668H127.3v2.8h5.83l-.29,2H125v-11h7.83v2H127.3V666h5.28Z"/>
      <path class="cls-5" d="M145.26,668.6c0-1.87,0-4,.08-5.23h-.08c-.51,2.26-1.62,5.92-2.67,9.38h-2c-.82-3-2-7.2-2.43-9.41H138c.1,1.3.14,3.57.14,5.46v4H136v-11h3.55c.86,2.88,1.83,6.5,2.16,8.13h0c.27-1.44,1.47-5.31,2.4-8.13h3.43v11h-2.3Z"/>
      <path class="cls-5" d="M152.81,669.51a2.05,2.05,0,0,0,2.32,1.6c1.28,0,1.82-.51,1.82-1.31s-.53-1.3-2.42-1.73c-3-.7-3.75-1.81-3.75-3.3,0-1.92,1.44-3.22,4-3.22,2.93,0,4.1,1.57,4.26,3.19h-2.4c-.13-.69-.5-1.42-1.92-1.42-1,0-1.55.4-1.55,1.18s.46,1.09,2.26,1.49c3.2.77,3.91,2,3.91,3.52,0,2-1.52,3.39-4.43,3.39s-4.29-1.38-4.55-3.39Z"/>
    </g>
    <g>
      <path class="cls-5" d="M164.06,672.74v-2.82h2.45v2.82Z"/>
      <path class="cls-5" d="M169,672.74v-2.82h2.45v2.82Z"/>
      <path class="cls-5" d="M174,672.74v-2.82h2.45v2.82Z"/>
      <path class="cls-5" d="M179,672.74v-2.82h2.45v2.82Z"/>
      <path class="cls-5" d="M184,672.74v-2.82h2.45v2.82Z"/>
      <path class="cls-5" d="M188.94,672.74v-2.82h2.45v2.82Z"/>
      <path class="cls-5" d="M193.91,672.74v-2.82h2.45v2.82Z"/>
      <path class="cls-5" d="M198.89,672.74v-2.82h2.45v2.82Z"/>
      <path class="cls-5" d="M203.86,672.74v-2.82h2.45v2.82Z"/>
      <path class="cls-5" d="M208.84,672.74v-2.82h2.45v2.82Z"/>
      <path class="cls-5" d="M213.81,672.74v-2.82h2.45v2.82Z"/>
      <path class="cls-5" d="M218.79,672.74v-2.82h2.45v2.82Z"/>
      <path class="cls-5" d="M223.77,672.74v-2.82h2.45v2.82Z"/>
      <path class="cls-5" d="M228.74,672.74v-2.82h2.45v2.82Z"/>
      <path class="cls-5" d="M233.72,672.74v-2.82h2.45v2.82Z"/>
      <path class="cls-5" d="M238.69,672.74v-2.82h2.45v2.82Z"/>
      <path class="cls-5" d="M243.67,672.74v-2.82h2.45v2.82Z"/>
      <path class="cls-5" d="M248.65,672.74v-2.82h2.45v2.82Z"/>
      <path class="cls-5" d="M253.62,672.74v-2.82h2.45v2.82Z"/>
      <path class="cls-5" d="M258.6,672.74v-2.82H261v2.82Z"/>
      <path class="cls-5" d="M263.57,672.74v-2.82H266v2.82Z"/>
      <path class="cls-5" d="M268.55,672.74v-2.82H271v2.82Z"/>
      <path class="cls-5" d="M273.53,672.74v-2.82H276v2.82Z"/>
      <path class="cls-5" d="M278.5,672.74v-2.82H281v2.82Z"/>
      <path class="cls-5" d="M283.48,672.74v-2.82h2.45v2.82Z"/>
      <path class="cls-5" d="M288.45,672.74v-2.82h2.45v2.82Z"/>
      <path class="cls-5" d="M293.43,672.74v-2.82h2.45v2.82Z"/>
      <path class="cls-5" d="M298.4,672.74v-2.82h2.45v2.82Z"/>
      <path class="cls-5" d="M303.38,672.74v-2.82h2.45v2.82Z"/>
      <path class="cls-5" d="M308.36,672.74v-2.82h2.45v2.82Z"/>
      <path class="cls-5" d="M313.33,672.74v-2.82h2.45v2.82Z"/>
      <path class="cls-5" d="M318.31,672.74v-2.82h2.45v2.82Z"/>
      <path class="cls-5" d="M323.28,672.74v-2.82h2.45v2.82Z"/>
      <path class="cls-5" d="M328.26,672.74v-2.82h2.45v2.82Z"/>
    </g>
    <path class="cls-5" d="M338.36,672.74v-8.26a7,7,0,0,1-2.06.38V663.2a5.54,5.54,0,0,0,2.8-1.49h1.66v11Zm5.29,0v-.14c0-1.82.53-3.39,3.41-5.44,1.49-1.06,1.87-1.33,1.87-2.27a1.31,1.31,0,0,0-1.38-1.49c-1,0-1.42.59-1.58,1.58h-2.35a3.61,3.61,0,0,1,3.94-3.43c2.85,0,3.78,1.76,3.78,3.28,0,1.7-.67,2.42-2.74,3.79-1.41.93-2,1.62-2.21,2.21h5.38l-.3,1.9Z"/>
    <path class="cls-5" d="M354.39,672.74v-2.82h2.45v2.82Z"/>
    <path class="cls-5" d="M359.62,672.74v-.14c0-1.82.53-3.39,3.41-5.44,1.49-1.06,1.87-1.33,1.87-2.27a1.31,1.31,0,0,0-1.38-1.49c-1,0-1.42.59-1.58,1.58h-2.35a3.61,3.61,0,0,1,3.94-3.43c2.85,0,3.78,1.76,3.78,3.28,0,1.7-.67,2.42-2.74,3.79-1.41.93-2,1.62-2.21,2.21h5.38l-.3,1.9Zm15.78-7.7a2.75,2.75,0,0,1-2.85,3c-1.7,0-2.83-1-2.83-3a2.77,2.77,0,0,1,2.85-3A2.7,2.7,0,0,1,375.41,665Zm-3.91,0c0,1,.38,1.6,1.09,1.6s1.09-.5,1.09-1.6-.45-1.58-1.1-1.58S371.5,664,371.5,665Zm1,7.7L379,662.2h1.68l-6.48,10.55Zm11-2.85a2.76,2.76,0,0,1-2.85,3.06c-1.71,0-2.83-1.06-2.83-3a2.76,2.76,0,0,1,2.85-3A2.69,2.69,0,0,1,383.5,669.89Zm-3.92,0c0,1,.38,1.62,1.09,1.62s1.1-.51,1.1-1.62-.45-1.57-1.1-1.57S379.58,668.84,379.58,669.89Z"/>
    <g>
      <path class="cls-6" d="M19.69,693.34c-.43,2.06-2,3.57-4.75,3.57-3.51,0-5.15-2.48-5.15-5.62s1.71-5.73,5.27-5.73c2.94,0,4.37,1.71,4.64,3.57H17.31A2.18,2.18,0,0,0,15,687.41c-2,0-2.72,1.78-2.72,3.79,0,1.86.66,3.83,2.79,3.83a2.18,2.18,0,0,0,2.26-1.7Z"/>
      <path class="cls-6" d="M22.66,685.72H25v9.08h5.51l-.27,2H22.66Z"/>
      <path class="cls-6" d="M43,691.19c0,3.07-1.84,5.71-5.43,5.71s-5.28-2.51-5.28-5.68,2-5.67,5.43-5.67C41,685.56,43,687.81,43,691.19Zm-8.24,0c0,2.16.94,3.79,2.9,3.79,2.13,0,2.88-1.78,2.88-3.75s-.86-3.73-2.91-3.73S34.78,689,34.78,691.17Z"/>
      <path class="cls-6" d="M48.11,687.67H44.74v-2h9.09v2H50.49v9.08H48.11Z"/>
      <path class="cls-6" d="M56.26,685.72h2.38V690H63.1v-4.29h2.38v11H63.1V692H58.65v4.77H56.26Z"/>
      <path class="cls-6" d="M71.45,685.72v11H69.06v-11Z"/>
      <path class="cls-6" d="M75,696.74v-11h3c1.38,2.46,3.92,6.95,4.43,8.15h0c-.13-1.15-.13-3.07-.13-4.88v-3.27h2.16v11h-2.8c-1.18-2.16-4-7.28-4.56-8.56h0c.08,1,.11,3.23.11,5.2v3.36Z"/>
      <path class="cls-6" d="M97.68,696.74H95.93a6,6,0,0,1-.19-1.09,3.74,3.74,0,0,1-3.22,1.28c-3.2,0-5-2.43-5-5.57,0-3.31,1.94-5.81,5.41-5.81,2.83,0,4.51,1.6,4.77,3.47H95.32a2.24,2.24,0,0,0-2.42-1.62c-2.27,0-2.91,1.91-2.91,3.84s.74,3.78,2.93,3.78a2.19,2.19,0,0,0,2.42-2.4v-.11H92.92v-2h4.75Z"/>
    </g>
    <g>
      <path class="cls-6" d="M104.33,696.74v-2.82h2.45v2.82Z"/>
      <path class="cls-6" d="M109.3,696.74v-2.82h2.45v2.82Z"/>
      <path class="cls-6" d="M114.28,696.74v-2.82h2.45v2.82Z"/>
      <path class="cls-6" d="M119.26,696.74v-2.82h2.45v2.82Z"/>
      <path class="cls-6" d="M124.23,696.74v-2.82h2.45v2.82Z"/>
      <path class="cls-6" d="M129.21,696.74v-2.82h2.45v2.82Z"/>
      <path class="cls-6" d="M134.18,696.74v-2.82h2.45v2.82Z"/>
      <path class="cls-6" d="M139.16,696.74v-2.82h2.45v2.82Z"/>
      <path class="cls-6" d="M144.14,696.74v-2.82h2.45v2.82Z"/>
      <path class="cls-6" d="M149.11,696.74v-2.82h2.45v2.82Z"/>
      <path class="cls-6" d="M154.09,696.74v-2.82h2.45v2.82Z"/>
      <path class="cls-6" d="M159.06,696.74v-2.82h2.45v2.82Z"/>
      <path class="cls-6" d="M164,696.74v-2.82h2.45v2.82Z"/>
      <path class="cls-6" d="M169,696.74v-2.82h2.45v2.82Z"/>
      <path class="cls-6" d="M174,696.74v-2.82h2.45v2.82Z"/>
      <path class="cls-6" d="M179,696.74v-2.82h2.45v2.82Z"/>
      <path class="cls-6" d="M183.94,696.74v-2.82h2.45v2.82Z"/>
      <path class="cls-6" d="M188.92,696.74v-2.82h2.45v2.82Z"/>
      <path class="cls-6" d="M193.89,696.74v-2.82h2.45v2.82Z"/>
      <path class="cls-6" d="M198.87,696.74v-2.82h2.45v2.82Z"/>
      <path class="cls-6" d="M203.85,696.74v-2.82h2.45v2.82Z"/>
      <path class="cls-6" d="M208.82,696.74v-2.82h2.45v2.82Z"/>
      <path class="cls-6" d="M213.8,696.74v-2.82h2.45v2.82Z"/>
      <path class="cls-6" d="M218.77,696.74v-2.82h2.45v2.82Z"/>
      <path class="cls-6" d="M223.75,696.74v-2.82h2.45v2.82Z"/>
      <path class="cls-6" d="M228.72,696.74v-2.82h2.45v2.82Z"/>
      <path class="cls-6" d="M233.7,696.74v-2.82h2.45v2.82Z"/>
      <path class="cls-6" d="M238.68,696.74v-2.82h2.45v2.82Z"/>
      <path class="cls-6" d="M243.65,696.74v-2.82h2.45v2.82Z"/>
      <path class="cls-6" d="M248.63,696.74v-2.82h2.45v2.82Z"/>
      <path class="cls-6" d="M253.6,696.74v-2.82h2.45v2.82Z"/>
      <path class="cls-6" d="M258.58,696.74v-2.82H261v2.82Z"/>
      <path class="cls-6" d="M263.56,696.74v-2.82H266v2.82Z"/>
      <path class="cls-6" d="M268.53,696.74v-2.82H271v2.82Z"/>
      <path class="cls-6" d="M273.51,696.74v-2.82H276v2.82Z"/>
      <path class="cls-6" d="M278.48,696.74v-2.82h2.45v2.82Z"/>
      <path class="cls-6" d="M283.46,696.74v-2.82h2.45v2.82Z"/>
      <path class="cls-6" d="M288.44,696.74v-2.82h2.45v2.82Z"/>
      <path class="cls-6" d="M293.41,696.74v-2.82h2.45v2.82Z"/>
      <path class="cls-6" d="M298.39,696.74v-2.82h2.45v2.82Z"/>
      <path class="cls-6" d="M303.36,696.74v-2.82h2.45v2.82Z"/>
      <path class="cls-6" d="M308.34,696.74v-2.82h2.45v2.82Z"/>
      <path class="cls-6" d="M313.31,696.74v-2.82h2.45v2.82Z"/>
      <path class="cls-6" d="M318.29,696.74v-2.82h2.45v2.82Z"/>
      <path class="cls-6" d="M323.27,696.74v-2.82h2.45v2.82Z"/>
      <path class="cls-6" d="M328.24,696.74v-2.82h2.45v2.82Z"/>
      <path class="cls-6" d="M333.22,696.74v-2.82h2.45v2.82Z"/>
      <path class="cls-6" d="M338.19,696.74v-2.82h2.45v2.82Z"/>
    </g>
    <path class="cls-6" d="M343.19,693.54a2.81,2.81,0,0,1,1.76-2.63,2.46,2.46,0,0,1-1.3-2.29c0-1.73,1.38-3.07,3.83-3.07,2.27,0,3.75,1.26,3.75,3a2.35,2.35,0,0,1-1.33,2.24,2.74,2.74,0,0,1,1.74,2.63c0,2.38-1.82,3.49-4.34,3.49C345,696.94,343.19,695.78,343.19,693.54Zm6.11-.06c0-1.07-.7-1.63-1.89-1.63s-1.87.64-1.87,1.57a1.67,1.67,0,0,0,1.9,1.71C348.59,695.13,349.31,694.55,349.31,693.48Zm-3.46-4.77c0,.75.54,1.3,1.6,1.3s1.57-.48,1.57-1.26-.58-1.41-1.58-1.41S345.85,687.83,345.85,688.71Z"/>
    <path class="cls-6" d="M354.22,696.74v-2.82h2.45v2.82Z"/>
    <path class="cls-6" d="M367.44,691.16c0,2.83-1,5.78-4.24,5.78s-4.23-2.71-4.23-5.71c0-2.77,1.12-5.67,4.29-5.67S367.44,688.24,367.44,691.16Zm-6.08,0c0,2.21.4,3.86,1.86,3.86s1.82-1.71,1.82-3.89-.37-3.78-1.78-3.78S361.35,688.82,361.35,691.21Zm14-2.16a2.75,2.75,0,0,1-2.85,3c-1.7,0-2.83-1-2.83-3a2.77,2.77,0,0,1,2.85-3A2.7,2.7,0,0,1,375.4,689Zm-3.91,0c0,1,.38,1.6,1.09,1.6s1.09-.5,1.09-1.6-.45-1.58-1.1-1.58S371.49,688,371.49,689Zm1,7.7L379,686.2h1.68l-6.48,10.55Zm11-2.85a2.76,2.76,0,0,1-2.85,3.06c-1.71,0-2.83-1.06-2.83-3a2.76,2.76,0,0,1,2.85-3A2.69,2.69,0,0,1,383.5,693.89Zm-3.92,0c0,1,.38,1.62,1.09,1.62s1.1-.51,1.1-1.62-.45-1.57-1.1-1.57S379.58,692.84,379.58,693.89Z"/>
    <g>
      <path class="cls-7" d="M10.31,709.72H12.7V714h4.45v-4.29h2.38v11H17.15V716H12.7v4.77H10.31Z"/>
      <path class="cls-7" d="M33.26,715.19c0,3.07-1.84,5.71-5.43,5.71s-5.28-2.51-5.28-5.68,2-5.67,5.43-5.67C31.21,709.56,33.26,711.81,33.26,715.19Zm-8.24,0c0,2.16.94,3.79,2.9,3.79,2.13,0,2.88-1.78,2.88-3.75s-.86-3.73-2.91-3.73S25,713,25,715.17Z"/>
      <path class="cls-7" d="M36.28,709.72h2.38v9.08h5.51l-.27,2H36.28Z"/>
      <path class="cls-7" d="M49,709.72v11H46.6v-11Z"/>
      <path class="cls-7" d="M52.55,709.72h4.39a5,5,0,0,1,5.31,5.38c0,3.22-2,5.65-5.43,5.65H52.55Zm2.38,9.11h1.79c2.11,0,3.06-1.58,3.06-3.73,0-1.81-.88-3.46-3-3.46H54.94Z"/>
      <path class="cls-7" d="M66.9,718.2l-.85,2.54H63.7l3.75-11h3l3.92,11H71.85l-.91-2.54Zm3.52-2c-.78-2.34-1.28-3.83-1.55-4.82h0c-.27,1.09-.82,2.82-1.44,4.82Z"/>
      <path class="cls-7" d="M78.3,720.74v-3.91a.62.62,0,0,0-.1-.35l-3.81-6.77H77.1c.85,1.66,2,3.87,2.51,5.07.48-1.15,1.68-3.49,2.51-5.07h2.5l-3.86,6.74a.65.65,0,0,0-.08.35v3.94Z"/>
      <path class="cls-7" d="M93.18,717.51a2.05,2.05,0,0,0,2.32,1.6c1.28,0,1.82-.51,1.82-1.31s-.53-1.3-2.42-1.73c-3-.7-3.75-1.81-3.75-3.3,0-1.92,1.44-3.22,4-3.22,2.93,0,4.1,1.57,4.26,3.19h-2.4c-.13-.69-.5-1.42-1.92-1.42-1,0-1.55.4-1.55,1.18s.46,1.09,2.26,1.49c3.2.77,3.91,2,3.91,3.52,0,2-1.52,3.39-4.43,3.39s-4.29-1.38-4.55-3.39Z"/>
      <path class="cls-7" d="M110.33,716H105v2.8h5.83l-.29,2h-7.86v-11h7.83v2H105V714h5.28Z"/>
      <path class="cls-7" d="M115.94,718.2l-.85,2.54h-2.35l3.75-11h3l3.92,11h-2.51L120,718.2Zm3.52-2c-.78-2.34-1.28-3.83-1.55-4.82h0c-.27,1.09-.82,2.82-1.44,4.82Z"/>
      <path class="cls-7" d="M127.38,717.51a2.05,2.05,0,0,0,2.32,1.6c1.28,0,1.82-.51,1.82-1.31s-.53-1.3-2.42-1.73c-3-.7-3.75-1.81-3.75-3.3,0-1.92,1.44-3.22,4-3.22,2.93,0,4.1,1.57,4.26,3.19h-2.4c-.13-.69-.5-1.42-1.92-1.42-1,0-1.55.4-1.55,1.18s.46,1.09,2.26,1.49c3.2.77,3.91,2,3.91,3.52,0,2-1.52,3.39-4.43,3.39s-4.29-1.38-4.55-3.39Z"/>
      <path class="cls-7" d="M147,715.19c0,3.07-1.84,5.71-5.43,5.71s-5.28-2.51-5.28-5.68,2-5.67,5.43-5.67C145,709.56,147,711.81,147,715.19Zm-8.24,0c0,2.16.94,3.79,2.9,3.79,2.13,0,2.88-1.78,2.88-3.75s-.86-3.73-2.91-3.73S138.78,713,138.78,715.17Z"/>
      <path class="cls-7" d="M150.06,720.74v-11h3c1.38,2.46,3.92,6.95,4.43,8.15h0c-.13-1.15-.13-3.07-.13-4.88v-3.27h2.16v11h-2.8c-1.18-2.16-4-7.28-4.56-8.56h0c.08,1,.11,3.23.11,5.2v3.36Z"/>
      <path class="cls-7" d="M165.16,718.2l-.85,2.54H162l3.75-11h3l3.92,11h-2.51l-.91-2.54Zm3.52-2c-.78-2.34-1.28-3.83-1.55-4.82h0c-.27,1.09-.82,2.82-1.44,4.82Z"/>
      <path class="cls-7" d="M175.06,709.72h2.38v9.08H183l-.27,2h-7.62Z"/>
      <path class="cls-7" d="M192.62,709.72v11h-2.38v-11Z"/>
      <path class="cls-7" d="M198.38,711.67H195v-2h9.09v2h-3.35v9.08h-2.38Z"/>
      <path class="cls-7" d="M214.14,716h-5.28v2.8h5.83l-.29,2h-7.86v-11h7.83v2h-5.51V714h5.28Z"/>
      <path class="cls-7" d="M226.81,716.6c0-1.87,0-4,.08-5.23h-.08c-.51,2.26-1.62,5.92-2.67,9.38h-2c-.82-3-2-7.2-2.43-9.41h-.08c.1,1.3.14,3.57.14,5.46v4h-2.18v-11h3.55c.86,2.88,1.83,6.5,2.16,8.13h0c.27-1.44,1.47-5.31,2.4-8.13h3.43v11h-2.3Z"/>
      <path class="cls-7" d="M234.36,717.51a2.05,2.05,0,0,0,2.32,1.6c1.28,0,1.82-.51,1.82-1.31s-.53-1.3-2.42-1.73c-3-.7-3.75-1.81-3.75-3.3,0-1.92,1.44-3.22,4-3.22,2.93,0,4.1,1.57,4.26,3.19h-2.4c-.13-.69-.5-1.42-1.92-1.42-1,0-1.55.4-1.55,1.18s.46,1.09,2.26,1.49c3.2.77,3.91,2,3.91,3.52,0,2-1.52,3.39-4.43,3.39s-4.29-1.38-4.55-3.39Z"/>
    </g>
    <g>
      <path class="cls-7" d="M243.66,720.74v-2.82h2.45v2.82Z"/>
      <path class="cls-7" d="M248.64,720.74v-2.82h2.45v2.82Z"/>
      <path class="cls-7" d="M253.61,720.74v-2.82h2.45v2.82Z"/>
      <path class="cls-7" d="M258.59,720.74v-2.82H261v2.82Z"/>
      <path class="cls-7" d="M263.56,720.74v-2.82H266v2.82Z"/>
      <path class="cls-7" d="M268.54,720.74v-2.82H271v2.82Z"/>
      <path class="cls-7" d="M273.52,720.74v-2.82H276v2.82Z"/>
      <path class="cls-7" d="M278.49,720.74v-2.82h2.45v2.82Z"/>
      <path class="cls-7" d="M283.47,720.74v-2.82h2.45v2.82Z"/>
      <path class="cls-7" d="M288.44,720.74v-2.82h2.45v2.82Z"/>
      <path class="cls-7" d="M293.42,720.74v-2.82h2.45v2.82Z"/>
      <path class="cls-7" d="M298.4,720.74v-2.82h2.45v2.82Z"/>
      <path class="cls-7" d="M303.37,720.74v-2.82h2.45v2.82Z"/>
      <path class="cls-7" d="M308.35,720.74v-2.82h2.45v2.82Z"/>
      <path class="cls-7" d="M313.32,720.74v-2.82h2.45v2.82Z"/>
      <path class="cls-7" d="M318.3,720.74v-2.82h2.45v2.82Z"/>
      <path class="cls-7" d="M323.27,720.74v-2.82h2.45v2.82Z"/>
      <path class="cls-7" d="M328.25,720.74v-2.82h2.45v2.82Z"/>
      <path class="cls-7" d="M333.23,720.74v-2.82h2.45v2.82Z"/>
      <path class="cls-7" d="M338.2,720.74v-2.82h2.45v2.82Z"/>
    </g>
    <path class="cls-7" d="M350.7,712.37a1.34,1.34,0,0,0-1.49-1.07c-1.55,0-1.94,1.6-2,3.07a3,3,0,0,1,2.55-1.09,3.37,3.37,0,0,1,3.47,3.63,3.75,3.75,0,0,1-4.07,4c-3.14,0-4.26-2.27-4.26-5.55,0-2.43.82-5.83,4.37-5.83,2.48,0,3.47,1.46,3.67,2.82Zm.21,4.72c0-1.07-.45-2-1.76-2-1,0-1.74.56-1.74,1.87,0,1.06.51,2.11,1.74,2.11S350.91,718.33,350.91,717.09Z"/>
    <path class="cls-7" d="M355.69,720.74v-2.82h2.45v2.82Z"/>
    <path class="cls-7" d="M367.71,709.72v1.71a22.46,22.46,0,0,0-3.86,9.32h-2.58a20.88,20.88,0,0,1,4-9.14H360v-1.89Zm7.68,3.33a2.75,2.75,0,0,1-2.85,3c-1.7,0-2.83-1-2.83-3a2.77,2.77,0,0,1,2.85-3A2.7,2.7,0,0,1,375.39,713Zm-3.91,0c0,1,.38,1.6,1.09,1.6s1.09-.5,1.09-1.6-.45-1.58-1.1-1.58S371.49,712,371.49,713Zm1,7.7L379,710.2h1.68l-6.48,10.55Zm11-2.85a2.76,2.76,0,0,1-2.85,3.06c-1.71,0-2.83-1.06-2.83-3a2.76,2.76,0,0,1,2.85-3A2.69,2.69,0,0,1,383.49,717.89Zm-3.92,0c0,1,.38,1.62,1.09,1.62s1.1-.51,1.1-1.62-.45-1.57-1.1-1.57S379.57,716.84,379.57,717.89Z"/>
    <g>
      <path class="cls-8" d="M403.3,589.72h4.82c2.67,0,3.68,1.38,3.68,2.82a2.49,2.49,0,0,1-1.41,2.38,2.65,2.65,0,0,1,1.73,2.53c0,1.89-1.49,3.3-3.83,3.3h-5Zm4.55,4.35c1.14,0,1.6-.51,1.6-1.3s-.61-1.22-1.52-1.22h-2.29v2.51Zm-2.21,4.83h2.16c1.3,0,1.87-.54,1.87-1.54s-.58-1.46-1.89-1.46h-2.15Z"/>
      <path class="cls-8" d="M425.24,595.19c0,3.07-1.84,5.71-5.43,5.71s-5.28-2.51-5.28-5.68,2-5.67,5.43-5.67C423.2,589.56,425.24,591.81,425.24,595.19Zm-8.24,0c0,2.16.94,3.79,2.9,3.79,2.13,0,2.88-1.78,2.88-3.75s-.86-3.73-2.91-3.73S417,593,417,595.17Z"/>
      <path class="cls-8" d="M438.41,595.19c0,3.07-1.84,5.71-5.43,5.71s-5.28-2.51-5.28-5.68,2-5.67,5.43-5.67C436.36,589.56,438.41,591.81,438.41,595.19Zm-8.24,0c0,2.16.94,3.79,2.9,3.79,2.13,0,2.88-1.78,2.88-3.75s-.86-3.73-2.91-3.73S430.17,593,430.17,595.17Z"/>
      <path class="cls-8" d="M441.43,589.72h2.35v4.91c.74-.85,3-3.33,4.4-4.91H451l-4.43,4.58,4.61,6.45h-2.87l-3.39-4.9-1.17,1.1v3.79h-2.35Z"/>
      <path class="cls-8" d="M454.68,597.51a2.05,2.05,0,0,0,2.32,1.6c1.28,0,1.82-.51,1.82-1.31s-.53-1.3-2.42-1.73c-3-.7-3.75-1.81-3.75-3.3,0-1.92,1.44-3.22,4-3.22,2.93,0,4.1,1.57,4.26,3.19h-2.4c-.13-.69-.5-1.42-1.92-1.42-1,0-1.55.4-1.55,1.18s.46,1.09,2.26,1.49c3.2.77,3.91,2,3.91,3.52,0,2-1.52,3.39-4.43,3.39s-4.29-1.38-4.55-3.39Z"/>
      <path class="cls-8" d="M463,601.56l4.43-12h1.9l-4.42,12Z"/>
      <path class="cls-8" d="M486.22,596.6c0-1.87,0-4,.08-5.23h-.08c-.51,2.26-1.62,5.92-2.67,9.38h-2c-.82-3-2-7.2-2.43-9.41H479c.1,1.3.14,3.57.14,5.46v4H477v-11h3.55c.86,2.88,1.82,6.5,2.16,8.13h0c.27-1.44,1.47-5.31,2.4-8.13h3.42v11h-2.3Z"/>
      <path class="cls-8" d="M494.17,598.2l-.85,2.54H491l3.75-11h3l3.92,11h-2.51l-.91-2.54Zm3.52-2c-.78-2.34-1.28-3.83-1.55-4.82h0c-.27,1.09-.82,2.82-1.44,4.82Z"/>
      <path class="cls-8" d="M513.29,600.74h-1.74a6,6,0,0,1-.19-1.09,3.74,3.74,0,0,1-3.22,1.28c-3.2,0-5-2.43-5-5.57,0-3.31,1.94-5.81,5.41-5.81,2.83,0,4.51,1.6,4.77,3.47h-2.38a2.23,2.23,0,0,0-2.42-1.62c-2.27,0-2.91,1.91-2.91,3.84s.74,3.78,2.93,3.78a2.19,2.19,0,0,0,2.42-2.4v-.11h-2.42v-2h4.75Z"/>
      <path class="cls-8" d="M518.82,598.2l-.85,2.54h-2.35l3.75-11h3l3.92,11h-2.51l-.91-2.54Zm3.52-2c-.79-2.34-1.28-3.83-1.55-4.82h0c-.27,1.09-.82,2.82-1.44,4.82Z"/>
      <path class="cls-8" d="M528.29,599l6.07-7.33h-5.79v-2h8.5v1.92l-5.84,7.15h6.16l-.3,2h-8.79Z"/>
      <path class="cls-8" d="M542.42,589.72v11H540v-11Z"/>
      <path class="cls-8" d="M546,600.74v-11h3c1.38,2.46,3.92,6.95,4.43,8.15h0c-.13-1.15-.13-3.07-.13-4.88v-3.27h2.16v11h-2.8c-1.18-2.16-4-7.28-4.56-8.56h0c.08,1,.11,3.23.11,5.2v3.36Z"/>
      <path class="cls-8" d="M566.63,596h-5.28v2.8h5.83l-.29,2H559v-11h7.83v2h-5.51V594h5.28Z"/>
      <path class="cls-8" d="M571.66,597.51a2.05,2.05,0,0,0,2.32,1.6c1.28,0,1.82-.51,1.82-1.31s-.53-1.3-2.42-1.73c-3-.7-3.75-1.81-3.75-3.3,0-1.92,1.44-3.22,4-3.22,2.93,0,4.1,1.57,4.26,3.19h-2.4c-.13-.69-.5-1.42-1.92-1.42-1,0-1.55.4-1.55,1.18s.46,1.09,2.26,1.49c3.2.77,3.91,2,3.91,3.52,0,2-1.52,3.39-4.43,3.39s-4.29-1.38-4.55-3.39Z"/>
    </g>
    <g>
      <path class="cls-8" d="M581.91,600.74v-2.82h2.45v2.82Z"/>
      <path class="cls-8" d="M586.88,600.74v-2.82h2.45v2.82Z"/>
      <path class="cls-8" d="M591.86,600.74v-2.82h2.45v2.82Z"/>
      <path class="cls-8" d="M596.84,600.74v-2.82h2.45v2.82Z"/>
      <path class="cls-8" d="M601.81,600.74v-2.82h2.45v2.82Z"/>
      <path class="cls-8" d="M606.79,600.74v-2.82h2.45v2.82Z"/>
      <path class="cls-8" d="M611.76,600.74v-2.82h2.45v2.82Z"/>
      <path class="cls-8" d="M616.74,600.74v-2.82h2.45v2.82Z"/>
      <path class="cls-8" d="M621.71,600.74v-2.82h2.45v2.82Z"/>
      <path class="cls-8" d="M626.69,600.74v-2.82h2.45v2.82Z"/>
      <path class="cls-8" d="M631.67,600.74v-2.82h2.45v2.82Z"/>
      <path class="cls-8" d="M636.64,600.74v-2.82h2.45v2.82Z"/>
      <path class="cls-8" d="M641.62,600.74v-2.82h2.45v2.82Z"/>
      <path class="cls-8" d="M646.59,600.74v-2.82H649v2.82Z"/>
      <path class="cls-8" d="M651.57,600.74v-2.82H654v2.82Z"/>
      <path class="cls-8" d="M656.55,600.74v-2.82H659v2.82Z"/>
      <path class="cls-8" d="M661.52,600.74v-2.82H664v2.82Z"/>
      <path class="cls-8" d="M666.5,600.74v-2.82h2.45v2.82Z"/>
      <path class="cls-8" d="M671.47,600.74v-2.82h2.45v2.82Z"/>
      <path class="cls-8" d="M676.45,600.74v-2.82h2.45v2.82Z"/>
      <path class="cls-8" d="M681.43,600.74v-2.82h2.45v2.82Z"/>
      <path class="cls-8" d="M686.4,600.74v-2.82h2.45v2.82Z"/>
      <path class="cls-8" d="M691.38,600.74v-2.82h2.45v2.82Z"/>
      <path class="cls-8" d="M696.35,600.74v-2.82h2.45v2.82Z"/>
      <path class="cls-8" d="M701.33,600.74v-2.82h2.45v2.82Z"/>
      <path class="cls-8" d="M706.3,600.74v-2.82h2.45v2.82Z"/>
      <path class="cls-8" d="M711.28,600.74v-2.82h2.45v2.82Z"/>
      <path class="cls-8" d="M716.26,600.74v-2.82h2.45v2.82Z"/>
      <path class="cls-8" d="M721.23,600.74v-2.82h2.45v2.82Z"/>
      <path class="cls-8" d="M726.21,600.74v-2.82h2.45v2.82Z"/>
      <path class="cls-8" d="M731.18,600.74v-2.82h2.45v2.82Z"/>
    </g>
    <path class="cls-8" d="M742.62,592.37a1.34,1.34,0,0,0-1.49-1.07c-1.55,0-1.94,1.6-2,3.07a3,3,0,0,1,2.55-1.09,3.37,3.37,0,0,1,3.47,3.63,3.75,3.75,0,0,1-4.07,4c-3.14,0-4.26-2.27-4.26-5.55,0-2.43.82-5.83,4.37-5.83,2.48,0,3.47,1.46,3.67,2.82Zm.21,4.72c0-1.07-.45-2-1.76-2-1,0-1.74.56-1.74,1.87,0,1.06.51,2.11,1.74,2.11S742.83,598.33,742.83,597.09Z"/>
    <path class="cls-8" d="M747.61,600.74v-2.82h2.45v2.82Z"/>
    <path class="cls-8" d="M760.17,591.59h-4.56c-.08.8-.21,1.71-.29,2.18a3,3,0,0,1,2-.58,3.4,3.4,0,0,1,3.46,3.68,3.81,3.81,0,0,1-4.16,4.07,3.7,3.7,0,0,1-4-3.17h2.29a1.7,1.7,0,0,0,1.76,1.34c1.28,0,1.79-.82,1.79-2,0-1-.4-2.06-1.78-2.06a1.63,1.63,0,0,0-1.74,1.17l-2.11-.32c.29-1.31.72-4.63.86-6.13h6.77Zm8.22,1.46a2.75,2.75,0,0,1-2.85,3c-1.7,0-2.83-1-2.83-3a2.77,2.77,0,0,1,2.85-3A2.7,2.7,0,0,1,768.39,593Zm-3.91,0c0,1,.38,1.6,1.09,1.6s1.09-.5,1.09-1.6-.45-1.58-1.1-1.58S764.49,592,764.49,593Zm1,7.7L772,590.2h1.68l-6.48,10.55Zm11-2.85a2.76,2.76,0,0,1-2.85,3.06c-1.71,0-2.83-1.06-2.83-3a2.76,2.76,0,0,1,2.85-3A2.69,2.69,0,0,1,776.49,597.89Zm-3.92,0c0,1,.38,1.62,1.09,1.62s1.1-.51,1.1-1.62-.45-1.57-1.1-1.57S772.57,596.84,772.57,597.89Z"/>
    <g>
      <path class="cls-9" d="M404.92,621.51a2.05,2.05,0,0,0,2.32,1.6c1.28,0,1.82-.51,1.82-1.31s-.53-1.3-2.42-1.73c-3-.7-3.75-1.81-3.75-3.3,0-1.92,1.44-3.22,4-3.22,2.93,0,4.1,1.57,4.26,3.19h-2.4c-.13-.69-.5-1.42-1.92-1.42-1,0-1.55.4-1.55,1.18s.46,1.09,2.26,1.49c3.2.77,3.91,2,3.91,3.52,0,2-1.52,3.39-4.43,3.39s-4.29-1.38-4.55-3.39Z"/>
      <path class="cls-9" d="M414.47,613.72H419c2.35,0,3.94,1.31,3.94,3.41,0,2.4-1.81,3.51-4,3.51h-2.13v4.11h-2.38Zm2.38,5h1.83c1.1,0,1.89-.43,1.89-1.55s-.83-1.57-1.84-1.57h-1.87Z"/>
      <path class="cls-9" d="M436,619.19c0,3.07-1.84,5.71-5.43,5.71s-5.28-2.51-5.28-5.68,2-5.67,5.43-5.67C433.95,613.56,436,615.81,436,619.19Zm-8.24,0c0,2.16.94,3.79,2.9,3.79,2.13,0,2.88-1.78,2.88-3.75s-.86-3.73-2.91-3.73S427.75,617,427.75,619.17Z"/>
      <path class="cls-9" d="M441.35,620.33v4.42H439v-11h4.85c2.4,0,3.7,1.31,3.7,3a2.65,2.65,0,0,1-1.6,2.61c.54.21,1.38.77,1.38,2.75v.54a8.32,8.32,0,0,0,.16,2.1h-2.27a7.92,7.92,0,0,1-.22-2.48v-.16c0-1.2-.3-1.78-2.08-1.78Zm0-1.9h2c1.3,0,1.81-.5,1.81-1.41s-.59-1.41-1.76-1.41h-2Z"/>
      <path class="cls-9" d="M453,615.67h-3.36v-2h9.09v2h-3.35v9.08H453Z"/>
      <path class="cls-9" d="M463.53,613.72v11h-2.38v-11Z"/>
      <path class="cls-9" d="M467.1,624.74v-11h3c1.38,2.46,3.92,6.95,4.43,8.15h0c-.13-1.15-.13-3.07-.13-4.88v-3.27h2.16v11h-2.8c-1.18-2.16-4-7.28-4.56-8.56h0c.08,1,.11,3.23.11,5.2v3.36Z"/>
      <path class="cls-9" d="M489.76,624.74H488a6,6,0,0,1-.19-1.09,3.74,3.74,0,0,1-3.22,1.28c-3.2,0-5-2.43-5-5.57,0-3.31,1.94-5.81,5.41-5.81,2.83,0,4.51,1.6,4.77,3.47H487.4a2.23,2.23,0,0,0-2.42-1.62c-2.27,0-2.91,1.91-2.91,3.84S482.81,623,485,623a2.19,2.19,0,0,0,2.42-2.4v-.11H485v-2h4.75Z"/>
      <path class="cls-9" d="M505.56,620h-5.28v2.8h5.83l-.29,2H498v-11h7.83v2h-5.51V618h5.28Z"/>
      <path class="cls-9" d="M519,619.19a5.93,5.93,0,0,1-1.66,4.32l2.48,1.7-1.39,1.58-3.07-2.13a6.11,6.11,0,0,1-1.78.24c-3.47,0-5.28-2.51-5.28-5.68s2-5.67,5.43-5.67C517,613.56,519,615.81,519,619.19Zm-8.24,0c0,2.16.94,3.79,2.9,3.79,2.13,0,2.88-1.78,2.88-3.75s-.86-3.73-2.91-3.73S510.76,617,510.76,619.17Z"/>
      <path class="cls-9" d="M524.3,613.72v6.56c0,2.13,1.09,2.75,2.29,2.75,1.36,0,2.21-.74,2.21-2.75v-6.56h2.4v6.45c0,3.78-2.21,4.74-4.64,4.74s-4.64-1-4.64-4.69v-6.5Z"/>
      <path class="cls-9" d="M537.06,613.72v11h-2.38v-11Z"/>
      <path class="cls-9" d="M540.62,613.72h4.56c2.35,0,3.94,1.31,3.94,3.41,0,2.4-1.81,3.51-4,3.51H543v4.11h-2.38Zm2.38,5h1.83c1.1,0,1.89-.43,1.89-1.55s-.83-1.57-1.84-1.57H543Z"/>
      <path class="cls-9" d="M561,620.6c0-1.87,0-4,.08-5.23H561c-.51,2.26-1.62,5.92-2.67,9.38h-2c-.82-3-2-7.2-2.43-9.41h-.08c.1,1.3.14,3.57.14,5.46v4h-2.18v-11h3.55c.86,2.88,1.83,6.5,2.16,8.13h0c.27-1.44,1.47-5.31,2.4-8.13h3.43v11H561Z"/>
      <path class="cls-9" d="M574.54,620h-5.28v2.8h5.83l-.29,2h-7.86v-11h7.83v2h-5.51V618h5.28Z"/>
      <path class="cls-9" d="M578,624.74v-11h3c1.38,2.46,3.92,6.95,4.43,8.15h0c-.13-1.15-.13-3.07-.13-4.88v-3.27h2.16v11h-2.8c-1.18-2.16-4-7.28-4.56-8.56h0c.08,1,.11,3.23.11,5.2v3.36Z"/>
      <path class="cls-9" d="M593.22,615.67h-3.36v-2H599v2h-3.35v9.08h-2.38Z"/>
    </g>
    <g>
      <path class="cls-9" d="M601.81,624.74v-2.82h2.45v2.82Z"/>
      <path class="cls-9" d="M606.79,624.74v-2.82h2.45v2.82Z"/>
      <path class="cls-9" d="M611.77,624.74v-2.82h2.45v2.82Z"/>
      <path class="cls-9" d="M616.74,624.74v-2.82h2.45v2.82Z"/>
      <path class="cls-9" d="M621.72,624.74v-2.82h2.45v2.82Z"/>
      <path class="cls-9" d="M626.69,624.74v-2.82h2.45v2.82Z"/>
      <path class="cls-9" d="M631.67,624.74v-2.82h2.45v2.82Z"/>
      <path class="cls-9" d="M636.65,624.74v-2.82h2.45v2.82Z"/>
      <path class="cls-9" d="M641.62,624.74v-2.82h2.45v2.82Z"/>
      <path class="cls-9" d="M646.6,624.74v-2.82H649v2.82Z"/>
      <path class="cls-9" d="M651.57,624.74v-2.82H654v2.82Z"/>
      <path class="cls-9" d="M656.55,624.74v-2.82H659v2.82Z"/>
      <path class="cls-9" d="M661.53,624.74v-2.82H664v2.82Z"/>
      <path class="cls-9" d="M666.5,624.74v-2.82H669v2.82Z"/>
      <path class="cls-9" d="M671.48,624.74v-2.82h2.45v2.82Z"/>
      <path class="cls-9" d="M676.45,624.74v-2.82h2.45v2.82Z"/>
      <path class="cls-9" d="M681.43,624.74v-2.82h2.45v2.82Z"/>
      <path class="cls-9" d="M686.4,624.74v-2.82h2.45v2.82Z"/>
      <path class="cls-9" d="M691.38,624.74v-2.82h2.45v2.82Z"/>
      <path class="cls-9" d="M696.36,624.74v-2.82h2.45v2.82Z"/>
      <path class="cls-9" d="M701.33,624.74v-2.82h2.45v2.82Z"/>
      <path class="cls-9" d="M706.31,624.74v-2.82h2.45v2.82Z"/>
      <path class="cls-9" d="M711.28,624.74v-2.82h2.45v2.82Z"/>
      <path class="cls-9" d="M716.26,624.74v-2.82h2.45v2.82Z"/>
      <path class="cls-9" d="M721.24,624.74v-2.82h2.45v2.82Z"/>
      <path class="cls-9" d="M726.21,624.74v-2.82h2.45v2.82Z"/>
      <path class="cls-9" d="M731.19,624.74v-2.82h2.45v2.82Z"/>
    </g>
    <path class="cls-9" d="M741.51,624.74v-2.61h-5v-2l4.63-6.45h2.59v6.61h1.33l-.22,1.81h-1.1v2.61Zm0-6.47c0-1.22,0-1.89,0-2.56-.43.93-2.18,3.25-3,4.61h3Z"/>
    <path class="cls-9" d="M747.26,624.74v-2.82h2.45v2.82Z"/>
    <path class="cls-9" d="M754.63,622.1a1.43,1.43,0,0,0,1.52,1.06c1.5,0,1.84-1.58,1.9-3.2a2.93,2.93,0,0,1-2.34.88,3.32,3.32,0,0,1-3.57-3.52,3.72,3.72,0,0,1,4-3.76c3,0,4.23,2.14,4.23,5.15,0,2.85-.69,6.23-4.35,6.23-2.32,0-3.46-1.28-3.68-2.83Zm-.14-4.9a1.68,1.68,0,0,0,1.74,1.9c1.07,0,1.66-.53,1.66-1.82,0-.94-.27-2-1.68-2A1.69,1.69,0,0,0,754.49,617.2Zm13.89-.16a2.75,2.75,0,0,1-2.85,3c-1.7,0-2.83-1-2.83-3a2.77,2.77,0,0,1,2.85-3A2.7,2.7,0,0,1,768.38,617Zm-3.91,0c0,1,.38,1.6,1.09,1.6s1.09-.5,1.09-1.6-.45-1.58-1.1-1.58S764.47,616,764.47,617Zm1,7.7L772,614.2h1.68l-6.48,10.55Zm11-2.85a2.76,2.76,0,0,1-2.85,3.06c-1.71,0-2.83-1.06-2.83-3a2.76,2.76,0,0,1,2.85-3A2.69,2.69,0,0,1,776.48,621.89Zm-3.92,0c0,1,.38,1.62,1.09,1.62s1.1-.51,1.1-1.62-.45-1.57-1.1-1.57S772.56,620.84,772.56,621.89Z"/>
    <g>
      <path class="cls-10" d="M410.91,644h-5.28v2.8h5.83l-.29,2H403.3v-11h7.83v2h-5.51V642h5.28Z"/>
      <path class="cls-10" d="M414.34,637.72h2.38v9.08h5.51l-.27,2h-7.62Z"/>
      <path class="cls-10" d="M432.27,644H427v2.8h5.83l-.29,2h-7.86v-11h7.83v2H427V642h5.28Z"/>
      <path class="cls-10" d="M445,645.34c-.43,2.06-2,3.57-4.75,3.57-3.51,0-5.15-2.48-5.15-5.62s1.71-5.73,5.27-5.73c2.95,0,4.37,1.71,4.64,3.57h-2.38a2.18,2.18,0,0,0-2.34-1.71c-2,0-2.72,1.78-2.72,3.79,0,1.86.66,3.83,2.79,3.83a2.18,2.18,0,0,0,2.26-1.7Z"/>
      <path class="cls-10" d="M450.25,639.67h-3.36v-2H456v2h-3.35v9.08h-2.38Z"/>
      <path class="cls-10" d="M460.75,644.33v4.42h-2.34v-11h4.85c2.4,0,3.7,1.31,3.7,3a2.65,2.65,0,0,1-1.6,2.61c.54.21,1.38.77,1.38,2.75v.54a8.32,8.32,0,0,0,.16,2.1h-2.27a7.88,7.88,0,0,1-.22-2.48v-.16c0-1.2-.3-1.78-2.08-1.78Zm0-1.9h2c1.3,0,1.81-.5,1.81-1.41s-.59-1.41-1.76-1.41h-2Z"/>
      <path class="cls-10" d="M480.19,643.19c0,3.07-1.84,5.71-5.43,5.71s-5.28-2.51-5.28-5.68,2-5.67,5.43-5.67C478.14,637.56,480.19,639.81,480.19,643.19Zm-8.24,0c0,2.16.94,3.79,2.9,3.79,2.13,0,2.88-1.78,2.88-3.75s-.86-3.73-2.91-3.73S471.95,641,471.95,643.17Z"/>
      <path class="cls-10" d="M483.21,648.74v-11h3c1.38,2.46,3.92,6.95,4.43,8.15h0c-.13-1.15-.13-3.07-.13-4.88v-3.27h2.16v11h-2.8c-1.19-2.16-4-7.28-4.56-8.56h0c.08,1,.11,3.23.11,5.2v3.36Z"/>
      <path class="cls-10" d="M498.63,637.72v11h-2.38v-11Z"/>
      <path class="cls-10" d="M511.56,645.34c-.43,2.06-2,3.57-4.75,3.57-3.5,0-5.15-2.48-5.15-5.62s1.71-5.73,5.27-5.73c2.95,0,4.37,1.71,4.64,3.57h-2.38a2.18,2.18,0,0,0-2.34-1.71c-2,0-2.72,1.78-2.72,3.79,0,1.86.66,3.83,2.79,3.83a2.18,2.18,0,0,0,2.26-1.7Z"/>
      <path class="cls-10" d="M519.38,637.72h4.39a5,5,0,0,1,5.31,5.38c0,3.22-2,5.65-5.43,5.65h-4.27Zm2.38,9.11h1.79c2.11,0,3.06-1.58,3.06-3.73,0-1.81-.88-3.46-3-3.46h-1.81Z"/>
      <path class="cls-10" d="M539.71,644h-5.28v2.8h5.83l-.29,2H532.1v-11h7.83v2h-5.51V642h5.28Z"/>
      <path class="cls-10" d="M545.9,648.74l-3.89-11h2.56l1.63,5.09c.51,1.54.88,2.85,1.14,4h0a40.27,40.27,0,0,1,1.18-4l1.73-5.12h2.43l-4,11Z"/>
      <path class="cls-10" d="M557.45,637.72v11h-2.38v-11Z"/>
      <path class="cls-10" d="M570.38,645.34c-.43,2.06-2,3.57-4.75,3.57-3.51,0-5.15-2.48-5.15-5.62s1.71-5.73,5.27-5.73c2.94,0,4.37,1.71,4.64,3.57H568a2.18,2.18,0,0,0-2.34-1.71c-2,0-2.72,1.78-2.72,3.79,0,1.86.66,3.83,2.79,3.83a2.18,2.18,0,0,0,2.26-1.7Z"/>
      <path class="cls-10" d="M581,644h-5.28v2.8h5.83l-.29,2h-7.86v-11h7.83v2h-5.51V642H581Z"/>
      <path class="cls-10" d="M586,645.51a2.05,2.05,0,0,0,2.32,1.6c1.28,0,1.82-.51,1.82-1.31s-.53-1.3-2.42-1.73c-3-.7-3.75-1.81-3.75-3.3,0-1.92,1.44-3.22,4-3.22,2.93,0,4.1,1.57,4.26,3.19h-2.4c-.13-.69-.5-1.42-1.92-1.42-1,0-1.55.4-1.55,1.18s.46,1.09,2.26,1.49c3.2.77,3.91,2,3.91,3.52,0,2-1.52,3.39-4.43,3.39s-4.29-1.38-4.55-3.39Z"/>
    </g>
    <g>
      <path class="cls-10" d="M596.82,648.74v-2.82h2.45v2.82Z"/>
      <path class="cls-10" d="M601.8,648.74v-2.82h2.45v2.82Z"/>
      <path class="cls-10" d="M606.77,648.74v-2.82h2.45v2.82Z"/>
      <path class="cls-10" d="M611.75,648.74v-2.82h2.45v2.82Z"/>
      <path class="cls-10" d="M616.73,648.74v-2.82h2.45v2.82Z"/>
      <path class="cls-10" d="M621.7,648.74v-2.82h2.45v2.82Z"/>
      <path class="cls-10" d="M626.68,648.74v-2.82h2.45v2.82Z"/>
      <path class="cls-10" d="M631.65,648.74v-2.82h2.45v2.82Z"/>
      <path class="cls-10" d="M636.63,648.74v-2.82h2.45v2.82Z"/>
      <path class="cls-10" d="M641.61,648.74v-2.82h2.45v2.82Z"/>
      <path class="cls-10" d="M646.58,648.74v-2.82H649v2.82Z"/>
      <path class="cls-10" d="M651.56,648.74v-2.82H654v2.82Z"/>
      <path class="cls-10" d="M656.53,648.74v-2.82H659v2.82Z"/>
      <path class="cls-10" d="M661.51,648.74v-2.82H664v2.82Z"/>
      <path class="cls-10" d="M666.48,648.74v-2.82h2.45v2.82Z"/>
      <path class="cls-10" d="M671.46,648.74v-2.82h2.45v2.82Z"/>
      <path class="cls-10" d="M676.44,648.74v-2.82h2.45v2.82Z"/>
      <path class="cls-10" d="M681.41,648.74v-2.82h2.45v2.82Z"/>
      <path class="cls-10" d="M686.39,648.74v-2.82h2.45v2.82Z"/>
      <path class="cls-10" d="M691.36,648.74v-2.82h2.45v2.82Z"/>
      <path class="cls-10" d="M696.34,648.74v-2.82h2.45v2.82Z"/>
      <path class="cls-10" d="M701.32,648.74v-2.82h2.45v2.82Z"/>
      <path class="cls-10" d="M706.29,648.74v-2.82h2.45v2.82Z"/>
      <path class="cls-10" d="M711.27,648.74v-2.82h2.45v2.82Z"/>
      <path class="cls-10" d="M716.24,648.74v-2.82h2.45v2.82Z"/>
      <path class="cls-10" d="M721.22,648.74v-2.82h2.45v2.82Z"/>
      <path class="cls-10" d="M726.2,648.74v-2.82h2.45v2.82Z"/>
      <path class="cls-10" d="M731.17,648.74v-2.82h2.45v2.82Z"/>
    </g>
    <path class="cls-10" d="M744.12,639.59h-4.56c-.08.8-.21,1.71-.29,2.18a3,3,0,0,1,2-.58,3.4,3.4,0,0,1,3.46,3.68,3.81,3.81,0,0,1-4.16,4.07,3.7,3.7,0,0,1-4-3.17h2.29a1.7,1.7,0,0,0,1.76,1.34c1.28,0,1.79-.82,1.79-2,0-1-.4-2.06-1.78-2.06a1.63,1.63,0,0,0-1.74,1.17l-2.11-.32c.29-1.31.72-4.63.86-6.13h6.77Z"/>
    <path class="cls-10" d="M747.22,648.74v-2.82h2.45v2.82Z"/>
    <path class="cls-10" d="M760.44,643.16c0,2.83-1,5.78-4.24,5.78s-4.23-2.71-4.23-5.71c0-2.77,1.12-5.67,4.29-5.67S760.44,640.24,760.44,643.16Zm-6.08,0c0,2.21.4,3.86,1.86,3.86s1.82-1.71,1.82-3.89-.37-3.78-1.78-3.78S754.36,640.82,754.36,643.21Zm14-2.16a2.75,2.75,0,0,1-2.85,3c-1.7,0-2.83-1-2.83-3a2.77,2.77,0,0,1,2.85-3A2.7,2.7,0,0,1,768.41,641Zm-3.91,0c0,1,.38,1.6,1.09,1.6s1.09-.5,1.09-1.6-.45-1.58-1.1-1.58S764.5,640,764.5,641Zm1,7.7L772,638.2h1.68l-6.48,10.55Zm11-2.85a2.76,2.76,0,0,1-2.85,3.06c-1.71,0-2.83-1.06-2.83-3a2.76,2.76,0,0,1,2.85-3A2.69,2.69,0,0,1,776.51,645.89Zm-3.92,0c0,1,.38,1.62,1.09,1.62s1.1-.51,1.1-1.62-.45-1.57-1.1-1.57S772.58,644.84,772.58,645.89Z"/>
    <g>
      <path class="cls-11" d="M412.68,669.34c-.43,2.06-2,3.57-4.75,3.57-3.5,0-5.15-2.48-5.15-5.62s1.71-5.73,5.27-5.73c2.94,0,4.37,1.71,4.64,3.57H410.3a2.18,2.18,0,0,0-2.34-1.71c-2,0-2.72,1.78-2.72,3.79,0,1.86.66,3.83,2.79,3.83a2.18,2.18,0,0,0,2.26-1.7Z"/>
      <path class="cls-11" d="M415.66,661.72H418V666h4.45v-4.29h2.38v11h-2.38V668H418v4.77h-2.38Z"/>
      <path class="cls-11" d="M430.84,661.72v11h-2.38v-11Z"/>
      <path class="cls-11" d="M434.41,661.72h2.38v9.08h5.51l-.27,2h-7.62Z"/>
      <path class="cls-11" d="M444.73,661.72h4.38a5,5,0,0,1,5.31,5.38c0,3.22-2,5.65-5.43,5.65h-4.27Zm2.38,9.11h1.79c2.11,0,3.06-1.58,3.06-3.73,0-1.81-.88-3.46-3-3.46h-1.81Z"/>
      <path class="cls-11" d="M459.79,668.33v4.42h-2.34v-11h4.85c2.4,0,3.7,1.31,3.7,3a2.65,2.65,0,0,1-1.6,2.61c.54.21,1.38.77,1.38,2.75v.54a8.32,8.32,0,0,0,.16,2.1h-2.27a7.91,7.91,0,0,1-.22-2.48v-.16c0-1.2-.3-1.78-2.08-1.78Zm0-1.9h2c1.3,0,1.81-.5,1.81-1.41s-.59-1.41-1.76-1.41h-2Z"/>
      <path class="cls-11" d="M476.76,668h-5.28v2.8h5.83l-.29,2h-7.86v-11H477v2h-5.51V666h5.28Z"/>
      <path class="cls-11" d="M480.2,672.74v-11h3c1.38,2.46,3.92,6.95,4.43,8.15h0c-.13-1.15-.13-3.07-.13-4.88v-3.27h2.16v11h-2.8c-1.18-2.16-4-7.28-4.56-8.56h0c.08,1,.11,3.23.11,5.2v3.36Z"/>
      <path class="cls-11" d="M492.73,665.81a21.69,21.69,0,0,0,.75-4.75h2.42a13.59,13.59,0,0,1-1.33,4.75Z"/>
      <path class="cls-11" d="M500.46,669.51a2.05,2.05,0,0,0,2.32,1.6c1.28,0,1.83-.51,1.83-1.31s-.53-1.3-2.42-1.73c-3-.7-3.74-1.81-3.74-3.3,0-1.92,1.44-3.22,4-3.22,2.93,0,4.1,1.57,4.26,3.19h-2.4c-.13-.69-.5-1.42-1.92-1.42-1,0-1.55.4-1.55,1.18s.46,1.09,2.26,1.49c3.2.77,3.91,2,3.91,3.52,0,2-1.52,3.39-4.43,3.39s-4.29-1.38-4.55-3.39Z"/>
      <path class="cls-11" d="M517,663.67h-3.36v-2h9.09v2h-3.35v9.08H517Z"/>
      <path class="cls-11" d="M535.12,667.19c0,3.07-1.84,5.71-5.43,5.71s-5.28-2.51-5.28-5.68,2-5.67,5.43-5.67C533.07,661.56,535.12,663.81,535.12,667.19Zm-8.24,0c0,2.16.95,3.79,2.9,3.79,2.13,0,2.88-1.78,2.88-3.75s-.87-3.73-2.91-3.73S526.87,665,526.87,667.17Z"/>
      <path class="cls-11" d="M540.07,672.74v-3.91a.62.62,0,0,0-.1-.35l-3.81-6.77h2.71c.85,1.66,2,3.87,2.51,5.07.48-1.15,1.68-3.49,2.51-5.07h2.5l-3.86,6.74a.65.65,0,0,0-.08.35v3.94Z"/>
      <path class="cls-11" d="M549.94,669.51a2.05,2.05,0,0,0,2.32,1.6c1.28,0,1.83-.51,1.83-1.31s-.53-1.3-2.42-1.73c-3-.7-3.75-1.81-3.75-3.3,0-1.92,1.44-3.22,4-3.22,2.93,0,4.1,1.57,4.26,3.19h-2.4c-.13-.69-.5-1.42-1.92-1.42-1,0-1.55.4-1.55,1.18s.46,1.09,2.26,1.49c3.2.77,3.91,2,3.91,3.52,0,2-1.52,3.39-4.43,3.39s-4.29-1.38-4.54-3.39Z"/>
    </g>
    <g>
      <path class="cls-11" d="M562,672.74v-2.82h2.45v2.82Z"/>
      <path class="cls-11" d="M567,672.74v-2.82h2.45v2.82Z"/>
      <path class="cls-11" d="M572,672.74v-2.82h2.45v2.82Z"/>
      <path class="cls-11" d="M576.95,672.74v-2.82h2.45v2.82Z"/>
      <path class="cls-11" d="M581.92,672.74v-2.82h2.45v2.82Z"/>
      <path class="cls-11" d="M586.9,672.74v-2.82h2.45v2.82Z"/>
      <path class="cls-11" d="M591.88,672.74v-2.82h2.45v2.82Z"/>
      <path class="cls-11" d="M596.85,672.74v-2.82h2.45v2.82Z"/>
      <path class="cls-11" d="M601.83,672.74v-2.82h2.45v2.82Z"/>
      <path class="cls-11" d="M606.8,672.74v-2.82h2.45v2.82Z"/>
      <path class="cls-11" d="M611.78,672.74v-2.82h2.45v2.82Z"/>
      <path class="cls-11" d="M616.76,672.74v-2.82h2.45v2.82Z"/>
      <path class="cls-11" d="M621.73,672.74v-2.82h2.45v2.82Z"/>
      <path class="cls-11" d="M626.71,672.74v-2.82h2.45v2.82Z"/>
      <path class="cls-11" d="M631.68,672.74v-2.82h2.45v2.82Z"/>
      <path class="cls-11" d="M636.66,672.74v-2.82h2.45v2.82Z"/>
      <path class="cls-11" d="M641.63,672.74v-2.82h2.45v2.82Z"/>
      <path class="cls-11" d="M646.61,672.74v-2.82h2.45v2.82Z"/>
      <path class="cls-11" d="M651.59,672.74v-2.82H654v2.82Z"/>
      <path class="cls-11" d="M656.56,672.74v-2.82H659v2.82Z"/>
      <path class="cls-11" d="M661.54,672.74v-2.82H664v2.82Z"/>
      <path class="cls-11" d="M666.51,672.74v-2.82H669v2.82Z"/>
      <path class="cls-11" d="M671.49,672.74v-2.82h2.45v2.82Z"/>
      <path class="cls-11" d="M676.47,672.74v-2.82h2.45v2.82Z"/>
      <path class="cls-11" d="M681.44,672.74v-2.82h2.45v2.82Z"/>
      <path class="cls-11" d="M686.42,672.74v-2.82h2.45v2.82Z"/>
      <path class="cls-11" d="M691.39,672.74v-2.82h2.45v2.82Z"/>
      <path class="cls-11" d="M696.37,672.74v-2.82h2.45v2.82Z"/>
      <path class="cls-11" d="M701.35,672.74v-2.82h2.45v2.82Z"/>
      <path class="cls-11" d="M706.32,672.74v-2.82h2.45v2.82Z"/>
      <path class="cls-11" d="M711.3,672.74v-2.82h2.45v2.82Z"/>
      <path class="cls-11" d="M716.27,672.74v-2.82h2.45v2.82Z"/>
      <path class="cls-11" d="M721.25,672.74v-2.82h2.45v2.82Z"/>
      <path class="cls-11" d="M726.22,672.74v-2.82h2.45v2.82Z"/>
      <path class="cls-11" d="M731.2,672.74v-2.82h2.45v2.82Z"/>
    </g>
    <path class="cls-11" d="M736.79,664.66a3.53,3.53,0,0,1,3.84-3.11c2.51,0,3.71,1.38,3.71,2.93a2.24,2.24,0,0,1-1.39,2.22v0a2.62,2.62,0,0,1,1.78,2.66c0,1.73-1.09,3.57-4.15,3.54-2.59,0-3.91-1.62-4-3.27h2.27a1.72,1.72,0,0,0,1.84,1.46,1.55,1.55,0,0,0,1.73-1.68c0-1-.42-1.74-1.94-1.74h-.8v-1.76h.75c1.1,0,1.63-.32,1.63-1.25a1.27,1.27,0,0,0-1.44-1.34,1.47,1.47,0,0,0-1.6,1.31Z"/>
    <path class="cls-11" d="M747.29,672.74v-2.82h2.45v2.82Z"/>
    <path class="cls-11" d="M754.67,670.1a1.43,1.43,0,0,0,1.52,1.06c1.5,0,1.84-1.58,1.9-3.2a2.93,2.93,0,0,1-2.34.88,3.32,3.32,0,0,1-3.57-3.52,3.72,3.72,0,0,1,4-3.76c3,0,4.23,2.14,4.23,5.15,0,2.85-.69,6.23-4.35,6.23-2.32,0-3.46-1.28-3.68-2.83Zm-.14-4.9a1.68,1.68,0,0,0,1.74,1.9c1.07,0,1.66-.53,1.66-1.82,0-.94-.27-2-1.68-2A1.69,1.69,0,0,0,754.52,665.2Zm13.89-.16a2.75,2.75,0,0,1-2.85,3c-1.7,0-2.83-1-2.83-3a2.77,2.77,0,0,1,2.85-3A2.7,2.7,0,0,1,768.41,665Zm-3.91,0c0,1,.38,1.6,1.09,1.6s1.09-.5,1.09-1.6-.45-1.58-1.1-1.58S764.51,664,764.51,665Zm1,7.7L772,662.2h1.68l-6.48,10.55Zm11-2.85a2.76,2.76,0,0,1-2.85,3.06c-1.71,0-2.83-1.06-2.83-3a2.76,2.76,0,0,1,2.85-3A2.69,2.69,0,0,1,776.51,669.89Zm-3.92,0c0,1,.38,1.62,1.09,1.62s1.1-.51,1.1-1.62-.45-1.57-1.1-1.57S772.59,668.84,772.59,669.89Z"/>
    <g>
      <path class="cls-12" d="M413.5,691.19c0,3.07-1.84,5.71-5.43,5.71s-5.28-2.51-5.28-5.68,2-5.67,5.43-5.67C411.45,685.56,413.5,687.81,413.5,691.19Zm-8.24,0c0,2.16.94,3.79,2.9,3.79,2.13,0,2.88-1.78,2.88-3.75s-.86-3.73-2.91-3.73S405.26,689,405.26,691.17Z"/>
      <path class="cls-12" d="M418.57,687.67h-3.36v-2h9.09v2H421v9.08h-2.38Z"/>
      <path class="cls-12" d="M426.73,685.72h2.38V690h4.45v-4.29h2.38v11h-2.38V692h-4.45v4.77h-2.38Z"/>
      <path class="cls-12" d="M447.13,692h-5.28v2.8h5.83l-.29,2h-7.86v-11h7.83v2h-5.51V690h5.28Z"/>
      <path class="cls-12" d="M452.91,692.33v4.42h-2.34v-11h4.85c2.4,0,3.7,1.31,3.7,3a2.65,2.65,0,0,1-1.6,2.61c.54.21,1.38.77,1.38,2.75v.54a8.32,8.32,0,0,0,.16,2.1h-2.27a7.88,7.88,0,0,1-.22-2.48v-.16c0-1.2-.3-1.78-2.08-1.78Zm0-1.9h2c1.3,0,1.81-.5,1.81-1.41s-.59-1.41-1.76-1.41h-2Z"/>
    </g>
    <g>
      <path class="cls-12" d="M462.54,696.74v-2.82H465v2.82Z"/>
      <path class="cls-12" d="M467.51,696.74v-2.82H470v2.82Z"/>
      <path class="cls-12" d="M472.49,696.74v-2.82h2.45v2.82Z"/>
      <path class="cls-12" d="M477.46,696.74v-2.82h2.45v2.82Z"/>
      <path class="cls-12" d="M482.44,696.74v-2.82h2.45v2.82Z"/>
      <path class="cls-12" d="M487.42,696.74v-2.82h2.45v2.82Z"/>
      <path class="cls-12" d="M492.39,696.74v-2.82h2.45v2.82Z"/>
      <path class="cls-12" d="M497.37,696.74v-2.82h2.45v2.82Z"/>
      <path class="cls-12" d="M502.34,696.74v-2.82h2.45v2.82Z"/>
      <path class="cls-12" d="M507.32,696.74v-2.82h2.45v2.82Z"/>
      <path class="cls-12" d="M512.29,696.74v-2.82h2.45v2.82Z"/>
      <path class="cls-12" d="M517.27,696.74v-2.82h2.45v2.82Z"/>
      <path class="cls-12" d="M522.25,696.74v-2.82h2.45v2.82Z"/>
      <path class="cls-12" d="M527.22,696.74v-2.82h2.45v2.82Z"/>
      <path class="cls-12" d="M532.2,696.74v-2.82h2.45v2.82Z"/>
      <path class="cls-12" d="M537.17,696.74v-2.82h2.45v2.82Z"/>
      <path class="cls-12" d="M542.15,696.74v-2.82h2.45v2.82Z"/>
      <path class="cls-12" d="M547.13,696.74v-2.82h2.45v2.82Z"/>
      <path class="cls-12" d="M552.1,696.74v-2.82h2.45v2.82Z"/>
      <path class="cls-12" d="M557.08,696.74v-2.82h2.45v2.82Z"/>
      <path class="cls-12" d="M562.05,696.74v-2.82h2.45v2.82Z"/>
      <path class="cls-12" d="M567,696.74v-2.82h2.45v2.82Z"/>
      <path class="cls-12" d="M572,696.74v-2.82h2.45v2.82Z"/>
      <path class="cls-12" d="M577,696.74v-2.82h2.45v2.82Z"/>
      <path class="cls-12" d="M582,696.74v-2.82h2.45v2.82Z"/>
      <path class="cls-12" d="M586.93,696.74v-2.82h2.45v2.82Z"/>
      <path class="cls-12" d="M591.91,696.74v-2.82h2.45v2.82Z"/>
      <path class="cls-12" d="M596.88,696.74v-2.82h2.45v2.82Z"/>
      <path class="cls-12" d="M601.86,696.74v-2.82h2.45v2.82Z"/>
      <path class="cls-12" d="M606.84,696.74v-2.82h2.45v2.82Z"/>
      <path class="cls-12" d="M611.81,696.74v-2.82h2.45v2.82Z"/>
      <path class="cls-12" d="M616.79,696.74v-2.82h2.45v2.82Z"/>
      <path class="cls-12" d="M621.76,696.74v-2.82h2.45v2.82Z"/>
      <path class="cls-12" d="M626.74,696.74v-2.82h2.45v2.82Z"/>
      <path class="cls-12" d="M631.71,696.74v-2.82h2.45v2.82Z"/>
      <path class="cls-12" d="M636.69,696.74v-2.82h2.45v2.82Z"/>
      <path class="cls-12" d="M641.67,696.74v-2.82h2.45v2.82Z"/>
      <path class="cls-12" d="M646.64,696.74v-2.82h2.45v2.82Z"/>
      <path class="cls-12" d="M651.62,696.74v-2.82h2.45v2.82Z"/>
      <path class="cls-12" d="M656.59,696.74v-2.82H659v2.82Z"/>
      <path class="cls-12" d="M661.57,696.74v-2.82H664v2.82Z"/>
      <path class="cls-12" d="M666.55,696.74v-2.82H669v2.82Z"/>
      <path class="cls-12" d="M671.52,696.74v-2.82H674v2.82Z"/>
      <path class="cls-12" d="M676.5,696.74v-2.82h2.45v2.82Z"/>
      <path class="cls-12" d="M681.47,696.74v-2.82h2.45v2.82Z"/>
      <path class="cls-12" d="M686.45,696.74v-2.82h2.45v2.82Z"/>
      <path class="cls-12" d="M691.43,696.74v-2.82h2.45v2.82Z"/>
      <path class="cls-12" d="M696.4,696.74v-2.82h2.45v2.82Z"/>
      <path class="cls-12" d="M701.38,696.74v-2.82h2.45v2.82Z"/>
      <path class="cls-12" d="M706.35,696.74v-2.82h2.45v2.82Z"/>
      <path class="cls-12" d="M711.33,696.74v-2.82h2.45v2.82Z"/>
      <path class="cls-12" d="M716.3,696.74v-2.82h2.45v2.82Z"/>
      <path class="cls-12" d="M721.28,696.74v-2.82h2.45v2.82Z"/>
      <path class="cls-12" d="M726.26,696.74v-2.82h2.45v2.82Z"/>
      <path class="cls-12" d="M731.23,696.74v-2.82h2.45v2.82Z"/>
    </g>
    <path class="cls-12" d="M736.55,696.74v-.14c0-1.82.53-3.39,3.41-5.44,1.49-1.06,1.87-1.33,1.87-2.27a1.31,1.31,0,0,0-1.38-1.49c-1,0-1.42.59-1.58,1.58h-2.35a3.61,3.61,0,0,1,3.94-3.43c2.85,0,3.78,1.76,3.78,3.28,0,1.7-.67,2.42-2.74,3.79-1.41.93-2,1.62-2.21,2.21h5.38l-.3,1.9Z"/>
    <path class="cls-12" d="M747.3,696.74v-2.82h2.45v2.82Z"/>
    <path class="cls-12" d="M754.68,694.1a1.43,1.43,0,0,0,1.52,1.06c1.5,0,1.84-1.58,1.9-3.2a2.93,2.93,0,0,1-2.34.88,3.32,3.32,0,0,1-3.57-3.52,3.72,3.72,0,0,1,4-3.76c3,0,4.23,2.14,4.23,5.15,0,2.85-.69,6.23-4.35,6.23-2.32,0-3.46-1.28-3.68-2.83Zm-.14-4.9a1.68,1.68,0,0,0,1.74,1.9c1.07,0,1.66-.53,1.66-1.82,0-.94-.27-2-1.68-2A1.69,1.69,0,0,0,754.54,689.2Zm13.89-.16a2.75,2.75,0,0,1-2.85,3c-1.7,0-2.83-1-2.83-3a2.77,2.77,0,0,1,2.85-3A2.7,2.7,0,0,1,768.43,689Zm-3.91,0c0,1,.38,1.6,1.09,1.6s1.09-.5,1.09-1.6-.45-1.58-1.1-1.58S764.52,688,764.52,689Zm1,7.7L772,686.2h1.68l-6.48,10.55Zm11-2.85a2.76,2.76,0,0,1-2.85,3.06c-1.71,0-2.83-1.06-2.83-3a2.76,2.76,0,0,1,2.85-3A2.69,2.69,0,0,1,776.53,693.89Zm-3.92,0c0,1,.38,1.62,1.09,1.62s1.1-.51,1.1-1.62-.45-1.57-1.1-1.57S772.6,692.84,772.6,693.89Z"/>
    <g>
      <path class="cls-13" d="M412.6,716.6c0-1.87,0-4,.08-5.23h-.08c-.51,2.26-1.62,5.92-2.67,9.38h-2c-.82-3-2-7.2-2.43-9.41h-.08c.1,1.3.14,3.57.14,5.46v4h-2.18v-11h3.55c.86,2.88,1.82,6.5,2.16,8.13h0c.27-1.44,1.47-5.31,2.4-8.13h3.42v11h-2.3Z"/>
      <path class="cls-13" d="M420.55,718.2l-.85,2.54h-2.35l3.75-11h3l3.92,11H425.5l-.91-2.54Zm3.52-2c-.78-2.34-1.28-3.83-1.55-4.82h0c-.27,1.09-.82,2.82-1.44,4.82Z"/>
      <path class="cls-13" d="M434.76,717.21c0,2.54-.83,3.7-3.25,3.7a6.61,6.61,0,0,1-1.49-.14v-1.89a9.66,9.66,0,0,0,1.09.06c1.09,0,1.26-.74,1.26-1.57v-7.65h2.38Z"/>
      <path class="cls-13" d="M448.41,715.19c0,3.07-1.84,5.71-5.43,5.71s-5.28-2.51-5.28-5.68,2-5.67,5.43-5.67C446.36,709.56,448.41,711.81,448.41,715.19Zm-8.24,0c0,2.16.94,3.79,2.9,3.79,2.13,0,2.88-1.78,2.88-3.75s-.86-3.73-2.91-3.73S440.17,713,440.17,715.17Z"/>
      <path class="cls-13" d="M453.77,716.33v4.42h-2.34v-11h4.85c2.4,0,3.7,1.31,3.7,3a2.65,2.65,0,0,1-1.6,2.61c.54.21,1.38.77,1.38,2.75v.54a8.32,8.32,0,0,0,.16,2.1h-2.27a7.91,7.91,0,0,1-.22-2.48v-.16c0-1.2-.3-1.78-2.08-1.78Zm0-1.9h2c1.3,0,1.81-.5,1.81-1.41s-.59-1.41-1.76-1.41h-2Z"/>
      <path class="cls-13" d="M469.88,718.2l-.85,2.54h-2.35l3.75-11h3l3.92,11h-2.51l-.91-2.54Zm3.52-2c-.79-2.34-1.28-3.83-1.55-4.82h0c-.27,1.09-.82,2.82-1.44,4.82Z"/>
      <path class="cls-13" d="M479.78,709.72h4.56c2.35,0,3.94,1.31,3.94,3.41,0,2.4-1.81,3.51-4,3.51h-2.13v4.11h-2.38Zm2.38,5H484c1.1,0,1.89-.43,1.89-1.55S485,711.6,484,711.6h-1.87Z"/>
      <path class="cls-13" d="M491,709.72h4.56c2.35,0,3.94,1.31,3.94,3.41,0,2.4-1.81,3.51-4,3.51h-2.13v4.11H491Zm2.38,5h1.83c1.1,0,1.89-.43,1.89-1.55s-.83-1.57-1.84-1.57h-1.87Z"/>
      <path class="cls-13" d="M502.12,709.72h2.38v9.08H510l-.27,2h-7.62Z"/>
      <path class="cls-13" d="M514.82,709.72v11h-2.38v-11Z"/>
      <path class="cls-13" d="M520.44,718.2l-.85,2.54h-2.35l3.75-11h3l3.92,11h-2.51l-.91-2.54Zm3.52-2c-.78-2.34-1.28-3.83-1.55-4.82h0c-.27,1.09-.82,2.82-1.44,4.82Z"/>
      <path class="cls-13" d="M530.34,720.74v-11h3c1.38,2.46,3.92,6.95,4.43,8.15h0c-.13-1.15-.13-3.07-.13-4.88v-3.27h2.16v11H537c-1.18-2.16-4-7.28-4.56-8.56h0c.08,1,.11,3.23.11,5.2v3.36Z"/>
      <path class="cls-13" d="M552.76,717.34c-.43,2.06-2,3.57-4.75,3.57-3.5,0-5.15-2.48-5.15-5.62s1.71-5.73,5.27-5.73c2.95,0,4.37,1.71,4.64,3.57h-2.38a2.18,2.18,0,0,0-2.34-1.71c-2,0-2.72,1.78-2.72,3.79,0,1.86.66,3.83,2.79,3.83a2.18,2.18,0,0,0,2.26-1.7Z"/>
      <path class="cls-13" d="M563.34,716h-5.28v2.8h5.83l-.29,2h-7.86v-11h7.83v2h-5.51V714h5.28Z"/>
      <path class="cls-13" d="M568.36,717.51a2.05,2.05,0,0,0,2.32,1.6c1.28,0,1.83-.51,1.83-1.31s-.53-1.3-2.42-1.73c-3-.7-3.75-1.81-3.75-3.3,0-1.92,1.44-3.22,4-3.22,2.93,0,4.1,1.57,4.26,3.19h-2.4c-.13-.69-.5-1.42-1.92-1.42-1,0-1.55.4-1.55,1.18s.46,1.09,2.26,1.49c3.2.77,3.91,2,3.91,3.52,0,2-1.52,3.39-4.43,3.39s-4.29-1.38-4.54-3.39Z"/>
    </g>
    <g>
      <path class="cls-13" d="M582,720.74v-2.82h2.45v2.82Z"/>
      <path class="cls-13" d="M586.94,720.74v-2.82h2.45v2.82Z"/>
      <path class="cls-13" d="M591.92,720.74v-2.82h2.45v2.82Z"/>
      <path class="cls-13" d="M596.89,720.74v-2.82h2.45v2.82Z"/>
      <path class="cls-13" d="M601.87,720.74v-2.82h2.45v2.82Z"/>
      <path class="cls-13" d="M606.85,720.74v-2.82h2.45v2.82Z"/>
      <path class="cls-13" d="M611.82,720.74v-2.82h2.45v2.82Z"/>
      <path class="cls-13" d="M616.8,720.74v-2.82h2.45v2.82Z"/>
      <path class="cls-13" d="M621.77,720.74v-2.82h2.45v2.82Z"/>
      <path class="cls-13" d="M626.75,720.74v-2.82h2.45v2.82Z"/>
      <path class="cls-13" d="M631.73,720.74v-2.82h2.45v2.82Z"/>
      <path class="cls-13" d="M636.7,720.74v-2.82h2.45v2.82Z"/>
      <path class="cls-13" d="M641.68,720.74v-2.82h2.45v2.82Z"/>
      <path class="cls-13" d="M646.65,720.74v-2.82h2.45v2.82Z"/>
      <path class="cls-13" d="M651.63,720.74v-2.82h2.45v2.82Z"/>
      <path class="cls-13" d="M656.61,720.74v-2.82h2.45v2.82Z"/>
      <path class="cls-13" d="M661.58,720.74v-2.82H664v2.82Z"/>
      <path class="cls-13" d="M666.56,720.74v-2.82H669v2.82Z"/>
      <path class="cls-13" d="M671.53,720.74v-2.82H674v2.82Z"/>
      <path class="cls-13" d="M676.51,720.74v-2.82H679v2.82Z"/>
      <path class="cls-13" d="M681.48,720.74v-2.82h2.45v2.82Z"/>
      <path class="cls-13" d="M686.46,720.74v-2.82h2.45v2.82Z"/>
      <path class="cls-13" d="M691.44,720.74v-2.82h2.45v2.82Z"/>
      <path class="cls-13" d="M696.41,720.74v-2.82h2.45v2.82Z"/>
      <path class="cls-13" d="M701.39,720.74v-2.82h2.45v2.82Z"/>
      <path class="cls-13" d="M706.36,720.74v-2.82h2.45v2.82Z"/>
      <path class="cls-13" d="M711.34,720.74v-2.82h2.45v2.82Z"/>
      <path class="cls-13" d="M716.32,720.74v-2.82h2.45v2.82Z"/>
      <path class="cls-13" d="M721.29,720.74v-2.82h2.45v2.82Z"/>
      <path class="cls-13" d="M726.27,720.74v-2.82h2.45v2.82Z"/>
      <path class="cls-13" d="M731.24,720.74v-2.82h2.45v2.82Z"/>
    </g>
    <path class="cls-13" d="M736.78,720.74v-.14c0-1.82.53-3.39,3.41-5.44,1.49-1.06,1.87-1.33,1.87-2.27a1.31,1.31,0,0,0-1.38-1.49c-1,0-1.42.59-1.58,1.58h-2.35a3.61,3.61,0,0,1,3.94-3.43c2.85,0,3.78,1.76,3.78,3.28,0,1.7-.67,2.42-2.74,3.79-1.41.93-2,1.62-2.21,2.21h5.38l-.3,1.9Z"/>
    <path class="cls-13" d="M747.53,720.74v-2.82H750v2.82Z"/>
    <path class="cls-13" d="M758.11,712.37a1.34,1.34,0,0,0-1.49-1.07c-1.55,0-1.94,1.6-2,3.07a3,3,0,0,1,2.55-1.09,3.37,3.37,0,0,1,3.47,3.63,3.75,3.75,0,0,1-4.07,4c-3.14,0-4.26-2.27-4.26-5.55,0-2.43.82-5.83,4.37-5.83,2.48,0,3.47,1.46,3.67,2.82Zm.21,4.72c0-1.07-.45-2-1.76-2-1,0-1.74.56-1.74,1.87,0,1.06.51,2.11,1.74,2.11S758.31,718.33,758.31,717.09Zm10.13-4a2.75,2.75,0,0,1-2.85,3c-1.7,0-2.83-1-2.83-3a2.77,2.77,0,0,1,2.85-3A2.7,2.7,0,0,1,768.44,713Zm-3.91,0c0,1,.38,1.6,1.09,1.6s1.09-.5,1.09-1.6-.45-1.58-1.1-1.58S764.54,712,764.54,713Zm1,7.7L772,710.2h1.68l-6.48,10.55Zm11-2.85a2.76,2.76,0,0,1-2.85,3.06c-1.71,0-2.83-1.06-2.83-3a2.76,2.76,0,0,1,2.85-3A2.69,2.69,0,0,1,776.54,717.89Zm-3.92,0c0,1,.38,1.62,1.09,1.62s1.1-.51,1.1-1.62-.45-1.57-1.1-1.57S772.62,716.84,772.62,717.89Z"/>
  </g>
  <g>
    <g class="cls-14">
      <g class="cls-15">
        <path class="cls-16" d="M457.87,358l-114-62a1.42,1.42,0,0,1-.83-1.25l114,62a1.42,1.42,0,0,0,.83,1.25"/>
      </g>
    </g>
    <g class="cls-17">
      <path class="cls-18" d="M679.29,509v6.39c0,1.78-2.18,3.51-4.86,3.89L320.87,568.93c-2.67.38-4.84-.75-4.83-2.52V560Z"/>
    </g>
    <polygon class="cls-16" points="130 465.2 316.04 566.4 316.05 560.01 130.01 458.81 130 465.2"/>
    <polygon class="cls-19" points="130.01 458.81 316.05 560.01 679.29 508.96 493.25 407.76 130.01 458.81"/>
    <polygon class="cls-20" points="316.07 548.8 316.05 560.01 679.29 508.96 679.31 497.75 316.07 548.8"/>
    <polygon class="cls-21" points="130.01 458.81 316.05 560.01 316.07 548.8 130.03 447.6 130.01 458.81"/>
    <polygon class="cls-22" points="130.03 447.6 316.07 548.8 679.31 497.75 493.27 396.55 130.03 447.6"/>
    <polygon class="cls-23" points="316.11 532.81 316.07 548.8 679.31 497.75 679.34 481.76 316.11 532.81"/>
    <polygon class="cls-24" points="130.03 447.6 316.07 548.8 316.1 532.81 130.06 431.61 130.03 447.6"/>
    <polygon class="cls-25" points="130.06 431.61 316.11 532.81 679.34 481.76 493.3 380.56 130.06 431.61"/>
    <polygon class="cls-26" points="316.14 513.6 316.11 532.81 679.34 481.76 679.38 462.56 316.14 513.6"/>
    <polygon class="cls-27" points="130.06 431.61 316.11 532.81 316.14 513.6 130.1 412.4 130.06 431.61"/>
    <polygon class="cls-28" points="130.1 412.4 316.14 513.6 679.38 462.56 493.33 361.35 130.1 412.4"/>
    <polygon class="cls-29" points="316.18 494.39 316.14 513.6 679.38 462.56 679.41 443.35 316.18 494.39"/>
    <polygon class="cls-30" points="130.1 412.4 316.14 513.6 316.18 494.39 130.13 393.19 130.1 412.4"/>
    <polygon class="cls-31" points="130.13 393.19 316.18 494.39 679.41 443.35 493.37 342.14 130.13 393.19"/>
    <polygon class="cls-32" points="316.22 468.79 316.17 494.39 679.41 443.35 679.46 417.74 316.22 468.79"/>
    <polygon class="cls-33" points="130.13 393.19 316.18 494.39 316.22 468.79 130.18 367.59 130.13 393.19"/>
    <polygon class="cls-34" points="130.18 367.59 316.22 468.79 679.46 417.74 493.42 316.54 130.18 367.59"/>
    <polygon class="cls-35" points="316.27 443.19 316.22 468.79 679.46 417.74 679.51 392.14 316.27 443.19"/>
    <polygon class="cls-36" points="130.18 367.59 316.22 468.79 316.27 443.19 130.23 341.99 130.18 367.59"/>
    <polygon class="cls-37" points="130.23 341.99 316.27 443.19 679.51 392.14 493.46 290.94 130.23 341.99"/>
    <polygon class="cls-38" points="316.33 411.19 316.27 443.19 679.51 392.14 679.57 360.14 316.33 411.19"/>
    <polygon class="cls-39" points="130.23 341.99 316.27 443.19 316.33 411.19 130.29 309.99 130.23 341.99"/>
    <polygon class="cls-40" points="130.29 309.99 316.33 411.19 679.57 360.14 493.52 258.94 130.29 309.99"/>
    <polygon class="cls-41" points="316.42 363.18 316.33 411.19 679.57 360.14 679.66 312.13 316.42 363.18"/>
    <polygon class="cls-42" points="130.29 309.99 316.33 411.19 316.42 363.18 130.38 261.98 130.29 309.99"/>
    <polygon class="cls-43" points="130.38 261.98 316.42 363.18 679.66 312.13 493.61 210.93 130.38 261.98"/>
    <polygon class="cls-44" points="316.51 311.98 316.42 363.18 679.66 312.13 679.75 260.93 316.51 311.98"/>
    <polygon class="cls-45" points="130.38 261.98 316.42 363.18 316.51 311.98 130.47 210.77 130.38 261.98"/>
    <polygon class="cls-46" points="130.47 210.77 316.51 311.98 679.75 260.93 493.71 159.72 130.47 210.77"/>
    <polygon class="cls-47" points="316.61 259.18 316.51 311.98 679.75 260.93 679.85 208.13 316.61 259.18"/>
    <polygon class="cls-48" points="130.47 210.77 316.51 311.98 316.61 259.18 130.57 157.97 130.47 210.77"/>
    <polygon class="cls-49" points="130.57 157.97 316.61 259.18 679.85 208.13 493.81 106.92 130.57 157.97"/>
    <polygon class="cls-50" points="316.76 177.56 316.61 259.18 679.85 208.13 680 126.51 316.76 177.56"/>
    <polygon class="cls-51" points="130.57 157.97 316.61 259.18 316.76 177.56 130.72 76.35 130.57 157.97"/>
    <polygon class="cls-52" points="493.96 25.3 130.72 76.35 316.76 177.56 680 126.51 493.96 25.3"/>
  </g>
  <rect class="cls-53" x="600" y="130.22" width="182" height="100"/>
  <polygon class="cls-53" points="615.67 180 615.67 255 690.67 180 615.67 180"/>
  <g>
    <path class="cls-54" d="M623.15,155.22h-1.21a6.28,6.28,0,0,1-.15-1.6,3.93,3.93,0,0,1-3.67,1.75c-3.42,0-5.22-2.58-5.22-6,0-3.54,1.94-6.2,5.51-6.2,2.75,0,4.47,1.5,4.81,3.6h-1.56a3.07,3.07,0,0,0-3.28-2.29c-2.74,0-3.83,2.19-3.83,4.83,0,2.43,1.09,4.71,3.76,4.71s3.31-1.77,3.31-3.76v-.14h-3.33v-1.34h4.86Z"/>
    <path class="cls-54" d="M627.61,151.18c0,1.75.9,3,2.36,3a2,2,0,0,0,2.07-1.34h1.51a3.52,3.52,0,0,1-3.64,2.58c-2.7,0-3.81-2.21-3.81-4.42,0-2.57,1.29-4.61,3.91-4.61,2.79,0,3.69,2.23,3.69,4.06,0,.27,0,.49,0,.71Zm4.59-1c0-1.43-.73-2.57-2.19-2.57s-2.19,1.05-2.35,2.57Z"/>
    <path class="cls-54" d="M636.53,148.78c0-.75,0-1.51,0-2.18H638A13.13,13.13,0,0,1,638,148a2.7,2.7,0,0,1,2.7-1.62c1.63,0,2.89,1,2.89,3.28v5.54h-1.5v-5.35c0-1.31-.51-2.18-1.82-2.18-1.63,0-2.28,1.24-2.28,3v4.56h-1.5Z"/>
    <path class="cls-54" d="M651.3,150.19v1.36h-4.45v-1.36Z"/>
    <path class="cls-54" d="M660.84,155.22l-3.14-4.86h0l-3.16,4.86h-1.73l4-6-3.84-5.85h1.82l3,4.61h0l3.06-4.61h1.73l-3.93,5.71,4.06,6.12Z"/>
    <path class="cls-54" d="M677.18,152.71c0,.85,0,2,0,2.52h-1.45c0-.22-.05-.75-.07-1.29a2.55,2.55,0,0,1-2.6,1.5c-1.46,0-2.86-.73-2.86-3.16v-5.66h1.48V152c0,1.12.36,2.18,1.79,2.18,1.58,0,2.19-.88,2.19-3v-4.49h1.5Z"/>
    <path class="cls-54" d="M681.36,152.76a2,2,0,0,0,2.11,1.5c1.26,0,1.75-.54,1.75-1.33s-.39-1.19-2-1.58c-2.46-.59-3-1.36-3-2.53s.9-2.41,3.11-2.41,3.15,1.29,3.25,2.48h-1.43a1.72,1.72,0,0,0-1.87-1.33c-1.21,0-1.58.58-1.58,1.14s.36,1,1.94,1.34c2.62.63,3.14,1.5,3.14,2.77,0,1.51-1.21,2.62-3.35,2.62s-3.33-1.12-3.55-2.67Z"/>
    <path class="cls-54" d="M690.52,151.18c0,1.75.9,3,2.36,3a2,2,0,0,0,2.07-1.34h1.51a3.52,3.52,0,0,1-3.64,2.58c-2.7,0-3.81-2.21-3.81-4.42,0-2.57,1.29-4.61,3.91-4.61,2.79,0,3.69,2.23,3.69,4.06,0,.27,0,.49,0,.71Zm4.59-1c0-1.43-.73-2.57-2.19-2.57s-2.19,1.05-2.35,2.57Z"/>
    <path class="cls-54" d="M699.45,149c0-1.21,0-1.89,0-2.35h1.46c0,.24.05.92.05,1.75a3,3,0,0,1,2.89-2v1.48c-1.77.05-2.89,1-2.89,3.16v4.18h-1.5Z"/>
    <path class="cls-54" d="M707.16,152.76a2,2,0,0,0,2.11,1.5c1.26,0,1.75-.54,1.75-1.33s-.39-1.19-2-1.58c-2.46-.59-3-1.36-3-2.53s.9-2.41,3.11-2.41,3.14,1.29,3.25,2.48h-1.43a1.72,1.72,0,0,0-1.87-1.33c-1.21,0-1.58.58-1.58,1.14s.36,1,1.94,1.34c2.62.63,3.14,1.5,3.14,2.77,0,1.51-1.21,2.62-3.35,2.62s-3.33-1.12-3.55-2.67Z"/>
    <path class="cls-54" d="M727.24,153.34a13.4,13.4,0,0,0,.12,1.89h-1.43a4.41,4.41,0,0,1-.14-1.12,2.74,2.74,0,0,1-2.67,1.33,2.61,2.61,0,0,1-2.91-2.63c0-1.92,1.51-2.8,4.08-2.8h1.46v-.73c0-.76-.24-1.68-1.85-1.68-1.43,0-1.68.71-1.84,1.38h-1.44c.12-1.19.85-2.55,3.33-2.55,2.11,0,3.28.87,3.28,2.82ZM725.78,151h-1.39c-1.72,0-2.63.48-2.63,1.68a1.51,1.51,0,0,0,1.68,1.55c2.07,0,2.35-1.39,2.35-3Z"/>
    <path class="cls-54" d="M730.57,149c0-1.21,0-1.89,0-2.35H732c0,.24.05.92.05,1.75a3,3,0,0,1,2.89-2v1.48c-1.77.05-2.89,1-2.89,3.16v4.18h-1.5Z"/>
    <path class="cls-54" d="M738.24,151.18c0,1.75.9,3,2.36,3a2,2,0,0,0,2.07-1.34h1.51a3.52,3.52,0,0,1-3.64,2.58c-2.7,0-3.81-2.21-3.81-4.42,0-2.57,1.29-4.61,3.91-4.61,2.79,0,3.69,2.23,3.69,4.06,0,.27,0,.49,0,.71Zm4.59-1c0-1.43-.73-2.57-2.19-2.57s-2.19,1.05-2.35,2.57Z"/>
  </g>
  <g>
    <path class="cls-54" d="M619.7,174.33a13.25,13.25,0,0,0,.12,1.89h-1.43a4.41,4.41,0,0,1-.14-1.12,2.75,2.75,0,0,1-2.67,1.33,2.61,2.61,0,0,1-2.91-2.63c0-1.92,1.51-2.8,4.08-2.8h1.46v-.73c0-.76-.24-1.68-1.85-1.68-1.43,0-1.68.71-1.84,1.38h-1.45c.12-1.19.85-2.55,3.33-2.55,2.11,0,3.28.87,3.28,2.82ZM618.24,172h-1.39c-1.72,0-2.63.48-2.63,1.68a1.51,1.51,0,0,0,1.68,1.55c2.07,0,2.35-1.39,2.35-3Z"/>
    <path class="cls-54" d="M623,169.83c0-.75,0-1.53,0-2.23h1.43c0,.25.07.88.07,1.33a2.66,2.66,0,0,1,2.5-1.53,2.38,2.38,0,0,1,2.4,1.55,2.93,2.93,0,0,1,2.74-1.55c1.41,0,2.72.83,2.72,3.16v5.66H633.4v-5.49c0-1-.36-2-1.7-2s-2,1.05-2,2.58v4.95h-1.46v-5.44c0-1.1-.31-2.09-1.67-2.09s-2,1.12-2,2.75v4.78H623Z"/>
    <path class="cls-54" d="M645.71,171.89c0,2.5-1.43,4.54-4.06,4.54-2.46,0-4-1.9-4-4.5s1.46-4.52,4.06-4.52C644.15,167.4,645.71,169.18,645.71,171.89Zm-6.49,0c0,1.9,1,3.28,2.5,3.28s2.46-1.31,2.46-3.26-.88-3.28-2.5-3.28S639.22,169.95,639.22,171.9Z"/>
    <path class="cls-54" d="M648.53,169.78c0-.75,0-1.51,0-2.18H650A12.88,12.88,0,0,1,650,169a2.7,2.7,0,0,1,2.7-1.62c1.63,0,2.89,1,2.89,3.28v5.54h-1.5v-5.35c0-1.31-.51-2.18-1.82-2.18-1.63,0-2.28,1.24-2.28,3v4.56h-1.5Z"/>
    <path class="cls-54" d="M666.11,175.44c0,2.77-1.14,4.33-4,4.33-2.62,0-3.42-1.46-3.57-2.63h1.51a2,2,0,0,0,2.13,1.44c2,0,2.43-1.24,2.43-3.21v-.7a2.64,2.64,0,0,1-2.69,1.51c-2.12,0-3.57-1.73-3.57-4.27,0-2.8,1.65-4.52,3.72-4.52,1.65,0,2.35.76,2.53,1.34,0-.39.07-1,.08-1.14h1.39c0,.49,0,1.67,0,2.48Zm-3.81-.53c1.85,0,2.4-1.26,2.4-3.16s-.51-3.09-2.35-3.09c-1.6,0-2.41,1.34-2.41,3.2S660.89,174.91,662.3,174.91Z"/>
    <path class="cls-54" d="M673.86,167.6h1.5v-2.55h1.48v2.55h1.9v1.21h-1.9v5c0,.85.21,1.27,1,1.27a3.89,3.89,0,0,0,.75-.07v1.12a4,4,0,0,1-1.29.15c-1.34,0-1.92-.7-1.92-2.12v-5.41h-1.5Z"/>
    <path class="cls-54" d="M682.7,163.74v5.13a2.86,2.86,0,0,1,2.69-1.48c1.38,0,2.91.75,2.91,3.31v5.51h-1.5V171c0-1.46-.61-2.28-1.87-2.28-1.55,0-2.23,1-2.23,2.82v4.71h-1.5V163.74Z"/>
    <path class="cls-54" d="M692.58,172.17c0,1.75.9,3,2.36,3a2,2,0,0,0,2.07-1.34h1.51a3.52,3.52,0,0,1-3.64,2.58c-2.7,0-3.81-2.21-3.81-4.42,0-2.57,1.29-4.61,3.91-4.61,2.79,0,3.69,2.23,3.69,4.06,0,.27,0,.49,0,.71Zm4.59-1c0-1.43-.73-2.57-2.19-2.57s-2.19,1.05-2.35,2.57Z"/>
    <path class="cls-54" d="M708.4,163.74v5.13a2.86,2.86,0,0,1,2.69-1.48c1.38,0,2.91.75,2.91,3.31v5.51h-1.5V171c0-1.46-.61-2.28-1.87-2.28-1.55,0-2.23,1-2.23,2.82v4.71h-1.5V163.74Z"/>
    <path class="cls-54" d="M717.31,165.6v-1.85h1.5v1.85Zm0,2h1.5v8.62h-1.5Z"/>
    <path class="cls-54" d="M729.35,175.44c0,2.77-1.14,4.33-4,4.33-2.62,0-3.42-1.46-3.57-2.63h1.51a2,2,0,0,0,2.13,1.44c2,0,2.43-1.24,2.43-3.21v-.7a2.64,2.64,0,0,1-2.69,1.51c-2.12,0-3.57-1.73-3.57-4.27,0-2.8,1.65-4.52,3.72-4.52,1.65,0,2.35.76,2.53,1.34,0-.39.07-1,.08-1.14h1.39c0,.49,0,1.67,0,2.48Zm-3.81-.53c1.85,0,2.4-1.26,2.4-3.16s-.51-3.09-2.35-3.09c-1.6,0-2.41,1.34-2.41,3.2S724.13,174.91,725.54,174.91Z"/>
    <path class="cls-54" d="M734.18,163.74v5.13a2.86,2.86,0,0,1,2.69-1.48c1.38,0,2.91.75,2.91,3.31v5.51h-1.5V171c0-1.46-.61-2.28-1.87-2.28-1.55,0-2.23,1-2.23,2.82v4.71h-1.5V163.74Z"/>
    <path class="cls-54" d="M744.07,172.17c0,1.75.9,3,2.36,3a2,2,0,0,0,2.07-1.34H750a3.52,3.52,0,0,1-3.64,2.58c-2.7,0-3.81-2.21-3.81-4.42,0-2.57,1.29-4.61,3.91-4.61,2.79,0,3.69,2.23,3.69,4.06,0,.27,0,.49,0,.71Zm4.59-1c0-1.43-.73-2.57-2.19-2.57s-2.19,1.05-2.35,2.57Z"/>
    <path class="cls-54" d="M753.81,173.76a2,2,0,0,0,2.11,1.5c1.26,0,1.75-.54,1.75-1.33s-.39-1.19-2-1.58c-2.46-.59-3-1.36-3-2.53s.9-2.41,3.11-2.41,3.15,1.29,3.25,2.48h-1.43a1.72,1.72,0,0,0-1.87-1.33c-1.21,0-1.58.58-1.58,1.14s.36,1,1.94,1.34c2.62.63,3.14,1.5,3.14,2.77,0,1.51-1.21,2.62-3.35,2.62s-3.33-1.12-3.55-2.67Z"/>
    <path class="cls-54" d="M761.07,167.6h1.5v-2.55H764v2.55h1.9v1.21H764v5c0,.85.21,1.27,1,1.27a3.89,3.89,0,0,0,.75-.07v1.12a4,4,0,0,1-1.29.15c-1.34,0-1.92-.7-1.92-2.12v-5.41h-1.5Z"/>
  </g>
  <g>
    <path class="cls-54" d="M613.28,200.6V190.7c0-.71,0-1.44,0-2.11h1.45c0,.29.05.8.05,1.36a3,3,0,0,1,2.82-1.56c2,0,3.43,1.67,3.43,4.28,0,3.09-1.65,4.74-3.74,4.74a2.62,2.62,0,0,1-2.52-1.28v4.45Zm3.91-10.93c-1.79,0-2.5,1.12-2.5,3.23s.58,3.26,2.38,3.26c1.58,0,2.41-1.29,2.41-3.42C619.48,190.91,618.65,189.67,617.18,189.67Z"/>
    <path class="cls-54" d="M624.87,193.17c0,1.75.9,3,2.36,3a2,2,0,0,0,2.07-1.34h1.51a3.52,3.52,0,0,1-3.64,2.58c-2.7,0-3.81-2.21-3.81-4.42,0-2.57,1.29-4.61,3.91-4.61,2.79,0,3.69,2.23,3.69,4.06,0,.27,0,.49,0,.71Zm4.59-1c0-1.43-.73-2.57-2.19-2.57s-2.19,1.05-2.35,2.57Z"/>
    <path class="cls-54" d="M633.81,190.94c0-1.21,0-1.89,0-2.35h1.46c0,.24.05.92.05,1.75a3,3,0,0,1,2.89-2v1.48c-1.77.05-2.89,1-2.89,3.16v4.18h-1.5Z"/>
    <path class="cls-54" d="M647.36,194.58a3.41,3.41,0,0,1-3.55,2.84c-2.38,0-3.84-1.7-3.84-4.47,0-2.43,1.38-4.56,3.94-4.56a3.21,3.21,0,0,1,3.45,2.87h-1.48a1.91,1.91,0,0,0-2-1.63c-1.51,0-2.38,1.31-2.38,3.26s.83,3.28,2.33,3.28a2.05,2.05,0,0,0,2.06-1.6Z"/>
    <path class="cls-54" d="M651,193.17c0,1.75.9,3,2.36,3a2,2,0,0,0,2.07-1.34H657a3.52,3.52,0,0,1-3.64,2.58c-2.7,0-3.81-2.21-3.81-4.42,0-2.57,1.29-4.61,3.91-4.61,2.79,0,3.69,2.23,3.69,4.06,0,.27,0,.49,0,.71Zm4.59-1c0-1.43-.73-2.57-2.19-2.57s-2.19,1.05-2.35,2.57Z"/>
    <path class="cls-54" d="M660,190.77c0-.75,0-1.51,0-2.18h1.44a12.88,12.88,0,0,1,.07,1.41,2.7,2.7,0,0,1,2.7-1.62c1.63,0,2.89,1,2.89,3.28v5.54h-1.5v-5.35c0-1.31-.51-2.18-1.82-2.18-1.63,0-2.28,1.24-2.28,3v4.56H660Z"/>
    <path class="cls-54" d="M669.29,188.6h1.5V186h1.48v2.55h1.9v1.21h-1.9v5c0,.85.2,1.27,1,1.27a3.89,3.89,0,0,0,.75-.07v1.12a4,4,0,0,1-1.29.15c-1.34,0-1.92-.7-1.92-2.12V189.8h-1.5Z"/>
    <path class="cls-54" d="M683.18,195.33a13.25,13.25,0,0,0,.12,1.89h-1.43a4.5,4.5,0,0,1-.14-1.12,2.75,2.75,0,0,1-2.67,1.33,2.61,2.61,0,0,1-2.91-2.63c0-1.92,1.51-2.8,4.08-2.8h1.46v-.73c0-.76-.24-1.68-1.85-1.68-1.43,0-1.68.71-1.84,1.38h-1.45c.12-1.19.85-2.55,3.33-2.55,2.11,0,3.28.87,3.28,2.82ZM681.71,193h-1.39c-1.72,0-2.63.48-2.63,1.68a1.51,1.51,0,0,0,1.68,1.55c2.07,0,2.35-1.39,2.35-3Z"/>
    <path class="cls-54" d="M693.68,196.43c0,2.77-1.14,4.33-4,4.33-2.62,0-3.42-1.46-3.57-2.63h1.51a2,2,0,0,0,2.12,1.44c2,0,2.43-1.24,2.43-3.21v-.7a2.64,2.64,0,0,1-2.69,1.51c-2.12,0-3.57-1.73-3.57-4.27,0-2.8,1.65-4.52,3.72-4.52,1.65,0,2.35.76,2.53,1.34,0-.39.07-1,.09-1.14h1.39c0,.49,0,1.67,0,2.48Zm-3.81-.53c1.85,0,2.4-1.26,2.4-3.16s-.51-3.09-2.35-3.09c-1.6,0-2.41,1.34-2.41,3.2S688.46,195.91,689.88,195.91Z"/>
    <path class="cls-54" d="M698,193.17c0,1.75.9,3,2.36,3a2,2,0,0,0,2.07-1.34h1.51a3.52,3.52,0,0,1-3.64,2.58c-2.7,0-3.81-2.21-3.81-4.42,0-2.57,1.29-4.61,3.91-4.61,2.79,0,3.69,2.23,3.69,4.06,0,.27,0,.49,0,.71Zm4.59-1c0-1.43-.73-2.57-2.19-2.57s-2.19,1.05-2.35,2.57Z"/>
    <path class="cls-54" d="M711.21,188.6h1.5V186h1.48v2.55h1.9v1.21h-1.9v5c0,.85.2,1.27,1,1.27a3.88,3.88,0,0,0,.75-.07v1.12a4,4,0,0,1-1.29.15c-1.34,0-1.92-.7-1.92-2.12V189.8h-1.5Z"/>
    <path class="cls-54" d="M725.9,192.88c0,2.5-1.43,4.54-4.06,4.54-2.46,0-4-1.9-4-4.5s1.46-4.52,4.06-4.52C724.33,188.39,725.9,190.18,725.9,192.88Zm-6.49,0c0,1.9,1,3.28,2.5,3.28s2.46-1.31,2.46-3.26-.88-3.28-2.5-3.28S719.4,190.94,719.4,192.9Z"/>
  </g>
  <g>
    <path class="cls-54" d="M614,215.75a2,2,0,0,0,2.11,1.5c1.26,0,1.75-.54,1.75-1.33s-.39-1.19-2-1.58c-2.46-.59-3-1.36-3-2.53s.9-2.41,3.11-2.41,3.14,1.29,3.25,2.48h-1.43a1.72,1.72,0,0,0-1.87-1.33c-1.21,0-1.58.58-1.58,1.14s.36,1,1.94,1.34c2.62.63,3.14,1.5,3.14,2.77,0,1.51-1.21,2.62-3.35,2.62s-3.33-1.12-3.55-2.67Z"/>
    <path class="cls-54" d="M621.26,209.59h1.5V207h1.48v2.55h1.9v1.21h-1.9v5c0,.85.2,1.27,1,1.27a3.87,3.87,0,0,0,.75-.07v1.12a4,4,0,0,1-1.29.15c-1.34,0-1.92-.7-1.92-2.12V210.8h-1.5Z"/>
    <path class="cls-54" d="M636,213.88c0,2.5-1.43,4.54-4.06,4.54-2.46,0-4-1.9-4-4.5s1.46-4.52,4.06-4.52C634.39,209.39,636,211.17,636,213.88Zm-6.49,0c0,1.9,1,3.28,2.5,3.28s2.46-1.31,2.46-3.26-.88-3.28-2.5-3.28S629.46,211.94,629.46,213.89Z"/>
    <path class="cls-54" d="M638.77,211.94c0-1.21,0-1.89,0-2.35h1.46c0,.24.05.92.05,1.75a3,3,0,0,1,2.89-2v1.48c-1.77.05-2.89,1-2.89,3.16v4.18h-1.5Z"/>
    <path class="cls-54" d="M646.44,214.16c0,1.75.9,3,2.36,3a2,2,0,0,0,2.07-1.34h1.51a3.52,3.52,0,0,1-3.64,2.58c-2.7,0-3.81-2.21-3.81-4.42,0-2.57,1.29-4.61,3.91-4.61,2.79,0,3.69,2.23,3.69,4.06,0,.27,0,.49,0,.71Zm4.59-1c0-1.43-.73-2.57-2.19-2.57s-2.19,1.05-2.35,2.57Z"/>
    <path class="cls-54" d="M661,218.21V210.8h-1.38v-1.21H661v-1c0-1.58.61-3,2.52-3a3.82,3.82,0,0,1,1,.1v1.28a3.54,3.54,0,0,0-.75-.08c-.88,0-1.22.54-1.22,1.8v.93h1.73v1.21h-1.73v7.41Z"/>
    <path class="cls-54" d="M673.49,215.69c0,.85,0,2,0,2.52h-1.45c0-.22-.05-.75-.07-1.29a2.55,2.55,0,0,1-2.6,1.5c-1.46,0-2.86-.73-2.86-3.16v-5.66H668v5.35c0,1.12.36,2.18,1.79,2.18,1.58,0,2.19-.88,2.19-3v-4.49h1.5Z"/>
    <path class="cls-54" d="M676.84,211.94c0-1.21,0-1.89,0-2.35h1.46c0,.24.05.92.05,1.75a3,3,0,0,1,2.89-2v1.48c-1.77.05-2.89,1-2.89,3.16v4.18h-1.5Z"/>
    <path class="cls-54" d="M683.67,211.77c0-.75,0-1.51,0-2.18h1.44a12.88,12.88,0,0,1,.07,1.41,2.7,2.7,0,0,1,2.7-1.62c1.63,0,2.89,1,2.89,3.28v5.54h-1.5v-5.35c0-1.31-.51-2.18-1.82-2.18-1.63,0-2.28,1.24-2.28,3v4.56h-1.5Z"/>
    <path class="cls-54" d="M694.07,207.59v-1.85h1.5v1.85Zm0,2h1.5v8.62h-1.5Z"/>
    <path class="cls-54" d="M697.92,209.59h1.5V207h1.48v2.55h1.9v1.21h-1.9v5c0,.85.21,1.27,1,1.27a3.89,3.89,0,0,0,.75-.07v1.12a4,4,0,0,1-1.29.15c-1.34,0-1.92-.7-1.92-2.12V210.8h-1.5Z"/>
    <path class="cls-54" d="M712.2,215.69c0,.85,0,2,0,2.52h-1.44c0-.22-.05-.75-.07-1.29a2.55,2.55,0,0,1-2.6,1.5c-1.46,0-2.86-.73-2.86-3.16v-5.66h1.48v5.35c0,1.12.36,2.18,1.78,2.18,1.58,0,2.19-.88,2.19-3v-4.49h1.5Z"/>
    <path class="cls-54" d="M715.54,211.94c0-1.21,0-1.89,0-2.35H717c0,.24.05.92.05,1.75a3,3,0,0,1,2.89-2v1.48c-1.77.05-2.89,1-2.89,3.16v4.18h-1.5Z"/>
    <path class="cls-54" d="M723.21,214.16c0,1.75.9,3,2.36,3a2,2,0,0,0,2.07-1.34h1.51a3.52,3.52,0,0,1-3.64,2.58c-2.7,0-3.81-2.21-3.81-4.42,0-2.57,1.29-4.61,3.91-4.61,2.79,0,3.69,2.23,3.69,4.06,0,.27,0,.49,0,.71Zm4.59-1c0-1.43-.73-2.57-2.19-2.57s-2.19,1.05-2.35,2.57Z"/>
    <path class="cls-54" d="M731.95,218.21v-2.52h1.56v2.52Z"/>
  </g>
</svg>
