<svg id="genx" xmlns="http://www.w3.org/2000/svg" xmlns:xlink="http://www.w3.org/1999/xlink" viewBox="0 0 773.76 639.04"><defs><style>.cls-1,.cls-87{fill:none;}.cls-12,.cls-15,.cls-16,.cls-18,.cls-2,.cls-29,.cls-30,.cls-32,.cls-36,.cls-37,.cls-39,.cls-43,.cls-44,.cls-46,.cls-52,.cls-53,.cls-55,.cls-61,.cls-66,.cls-69,.cls-70,.cls-73,.cls-79,.cls-81,.cls-82,.cls-84{font-size:16px;font-family:AcuminPro-Bold, Acumin Pro;font-weight:700;}.cls-11,.cls-2{fill:#ffd600;}.cls-18,.cls-3,.cls-39,.cls-46{letter-spacing:0.06em;}.cls-16,.cls-37,.cls-4,.cls-70,.cls-79{letter-spacing:0.06em;}.cls-5{letter-spacing:0.06em;}.cls-6{letter-spacing:0.06em;}.cls-7{letter-spacing:0.07em;}.cls-8{letter-spacing:0.03em;}.cls-9{letter-spacing:0.07em;}.cls-10,.cls-30,.cls-44,.cls-53{letter-spacing:0.06em;}.cls-12,.cls-15,.cls-16,.cls-17{fill:#ffb04e;}.cls-12,.cls-59{letter-spacing:0.06em;}.cls-13{letter-spacing:0.06em;}.cls-14{letter-spacing:0em;}.cls-18,.cls-29,.cls-30,.cls-31{fill:#f98675;}.cls-19{letter-spacing:0.07em;}.cls-20{letter-spacing:0.05em;}.cls-21,.cls-66{letter-spacing:0.07em;}.cls-22{letter-spacing:0.09em;}.cls-23{letter-spacing:0em;}.cls-24{letter-spacing:0.06em;}.cls-25{letter-spacing:0.06em;}.cls-26{letter-spacing:0.07em;}.cls-27{letter-spacing:0.07em;}.cls-28{letter-spacing:0em;}.cls-32,.cls-36,.cls-37,.cls-38{fill:#e95f93;}.cls-32{letter-spacing:0.05em;}.cls-33{letter-spacing:0.07em;}.cls-34{letter-spacing:0.07em;}.cls-35{letter-spacing:0.06em;}.cls-39,.cls-43,.cls-44,.cls-45{fill:#cc34b4;}.cls-40{letter-spacing:0.05em;}.cls-41{letter-spacing:0.05em;}.cls-42{letter-spacing:0.06em;}.cls-46,.cls-52,.cls-53,.cls-54{fill:#e84524;}.cls-47{letter-spacing:0.03em;}.cls-48{letter-spacing:0em;}.cls-49{letter-spacing:0.08em;}.cls-50{letter-spacing:0.05em;}.cls-51{letter-spacing:0.06em;}.cls-55,.cls-60{fill:#eb6d20;}.cls-56{letter-spacing:0.03em;}.cls-57{letter-spacing:0.04em;}.cls-58{letter-spacing:0.09em;}.cls-61,.cls-65{fill:#12e17e;}.cls-62{letter-spacing:0.06em;}.cls-63{letter-spacing:0.06em;}.cls-64{letter-spacing:0.04em;}.cls-66,.cls-69,.cls-70,.cls-72{fill:#29cef4;}.cls-67{letter-spacing:0.06em;}.cls-68{letter-spacing:0.08em;}.cls-71{letter-spacing:0em;}.cls-73,.cls-79,.cls-80{fill:#a9a9a9;}.cls-74{letter-spacing:0.07em;}.cls-75{letter-spacing:0.06em;}.cls-76{letter-spacing:0.05em;}.cls-77{letter-spacing:0.03em;}.cls-78{letter-spacing:0.05em;}.cls-81,.cls-82,.cls-83{fill:#9c02d6;}.cls-82{letter-spacing:-0.19em;}.cls-84,.cls-86{fill:#0664ff;}.cls-85{letter-spacing:0.08em;}.cls-87{stroke:#fff;stroke-dasharray:12.22 12.22;}.cls-88{fill:#fff;}.cls-89{clip-path:url(#clip-path);}.cls-90{clip-path:url(#clip-path-2);}.cls-91{fill:#055ef1;}.cls-92{fill:#0561f6;}.cls-93{fill:#9b03d3;}.cls-94{fill:#9303cb;}.cls-95{fill:#9803d0;}.cls-96{fill:#a7a7a7;}.cls-97{fill:#a2a2a2;}.cls-98{fill:#a5a5a5;}.cls-99{fill:#29cbf1;}.cls-100{fill:#26c3e7;}.cls-101{fill:#29c8ec;}.cls-102{fill:#12dd7d;}.cls-103{fill:#12d578;}.cls-104{fill:#12da7a;}.cls-105{fill:#e76b21;}.cls-106{fill:#df691f;}.cls-107{fill:#e46b1f;}.cls-108{fill:#e44524;}.cls-109{fill:#dd4221;}.cls-110{fill:#e24224;}.cls-111{fill:#c833b1;}.cls-112{fill:#c130aa;}.cls-113{fill:#c633af;}.cls-114{fill:#e75e90;}.cls-115{fill:#dd598b;}.cls-116{fill:#e25c8e;}.cls-117{fill:#f68473;}.cls-118{fill:#ec8070;}.cls-119{fill:#f18173;}.cls-120{fill:#fbaf4d;}.cls-121{fill:#f1a74a;}.cls-122{fill:#f6aa4d;}.cls-123{fill:#fbd300;}.cls-124{fill:#f1cb00;}.cls-125{fill:#f6d000;}.cls-126{fill:#0563fb;}.cls-127,.cls-142,.cls-160,.cls-168{font-size:17px;fill:#231f20;font-family:AcuminPro-Regular, Acumin Pro;}.cls-128{letter-spacing:0.06em;}.cls-129{letter-spacing:0.06em;}.cls-130,.cls-168{letter-spacing:0.06em;}.cls-131,.cls-160{letter-spacing:0.06em;}.cls-132{letter-spacing:0.05em;}.cls-133{letter-spacing:0.06em;}.cls-134{letter-spacing:0.03em;}.cls-135,.cls-142{letter-spacing:0.05em;}.cls-136{letter-spacing:0.06em;}.cls-137{letter-spacing:0.05em;}.cls-138{letter-spacing:0.06em;}.cls-139{letter-spacing:0.06em;}.cls-140{letter-spacing:0.05em;}.cls-141{letter-spacing:0.06em;}.cls-143{letter-spacing:0.05em;}.cls-144{letter-spacing:0.05em;}.cls-145{letter-spacing:0.06em;}.cls-146{letter-spacing:0.06em;}.cls-147{letter-spacing:0.07em;}.cls-148{letter-spacing:0.05em;}.cls-149{letter-spacing:0.05em;}.cls-150{letter-spacing:0em;}.cls-151{letter-spacing:0.05em;}.cls-152{letter-spacing:0.05em;}.cls-153{letter-spacing:0.05em;}.cls-154{letter-spacing:0.06em;}.cls-155{letter-spacing:0.05em;}.cls-156{letter-spacing:0.08em;}.cls-157{letter-spacing:0.06em;}.cls-158{letter-spacing:0.05em;}.cls-159{letter-spacing:0.05em;}.cls-161{letter-spacing:0.06em;}.cls-162{letter-spacing:0.05em;}.cls-163{letter-spacing:0.05em;}.cls-164{letter-spacing:0.05em;}.cls-165{letter-spacing:0.04em;}.cls-166{letter-spacing:0.06em;}.cls-167{letter-spacing:0em;}.cls-169{letter-spacing:0.05em;}.cls-170{letter-spacing:0.05em;}.cls-171{letter-spacing:0.05em;}.cls-172{letter-spacing:0.06em;}.cls-173{letter-spacing:0em;}</style><clipPath id="clip-path" transform="translate(-9 -85.96)"><path class="cls-1" d="M196.67,401.89l83.83,45.6a.67.67,0,0,1-.43-.56l-83.83-45.6a.67.67,0,0,0,.43.56"/></clipPath><clipPath id="clip-path-2" transform="translate(-9 -85.96)"><rect class="cls-1" x="196.61" y="180.01" width="279" height="182"/></clipPath></defs><title>storage_contents_genx</title><text class="cls-2" transform="translate(0 514.78)"><tspan class="cls-3">H</tspan><tspan class="cls-4" x="12.78" y="0">O</tspan><tspan class="cls-5" x="25.98" y="0">U</tspan><tspan class="cls-6" x="38.56" y="0">S</tspan><tspan class="cls-7" x="49.73" y="0">E</tspan><tspan class="cls-8" x="60.8" y="0">W</tspan><tspan class="cls-4" x="76.46" y="0">A</tspan><tspan class="cls-9" x="88.43" y="0">R</tspan><tspan x="100.14" y="0">E</tspan></text><text class="cls-2" transform="translate(111.02 514.78)"> </text><text class="cls-2" transform="translate(114.45 514.78)"><tspan class="cls-10">.........................................</tspan><tspan x="204.01" y="0">.</tspan></text><path class="cls-11" d="M334.76,600.74v-.14c0-1.82.53-3.39,3.41-5.44,1.49-1.06,1.87-1.33,1.87-2.27a1.31,1.31,0,0,0-1.38-1.49c-1,0-1.42.59-1.58,1.58h-2.35a3.61,3.61,0,0,1,3.94-3.43c2.85,0,3.78,1.76,3.78,3.28,0,1.7-.67,2.42-2.74,3.79-1.41.93-2,1.62-2.21,2.21h5.38l-.3,1.9Zm18.61-5.59c0,2.83-1,5.78-4.24,5.78s-4.23-2.71-4.23-5.71c0-2.77,1.12-5.67,4.29-5.67S353.37,592.24,353.37,595.16Zm-6.08,0c0,2.21.4,3.86,1.86,3.86s1.82-1.71,1.82-3.89-.37-3.78-1.78-3.78S347.29,592.82,347.29,595.21Z" transform="translate(-9 -85.96)"/><text class="cls-2" transform="translate(345.9 514.78)">.</text><path class="cls-11" d="M367.71,589.72v1.71a22.46,22.46,0,0,0-3.86,9.32h-2.58a20.88,20.88,0,0,1,4-9.14H360v-1.89Zm7.68,3.33a2.75,2.75,0,0,1-2.85,3c-1.7,0-2.83-1-2.83-3a2.77,2.77,0,0,1,2.85-3A2.7,2.7,0,0,1,375.39,593Zm-3.91,0c0,1,.38,1.6,1.09,1.6s1.09-.5,1.09-1.6-.45-1.58-1.1-1.58S371.48,592,371.48,593Zm1,7.7L379,590.2h1.68l-6.48,10.55Zm11-2.85a2.76,2.76,0,0,1-2.85,3.06c-1.71,0-2.83-1.06-2.83-3a2.76,2.76,0,0,1,2.85-3A2.69,2.69,0,0,1,383.49,597.89Zm-3.92,0c0,1,.38,1.62,1.09,1.62s1.1-.51,1.1-1.62-.45-1.57-1.1-1.57S379.57,596.84,379.57,597.89Z" transform="translate(-9 -85.96)"/><text class="cls-12" transform="translate(0 538.78)">FU<tspan class="cls-9" x="23.06" y="0">R</tspan><tspan class="cls-4" x="34.77" y="0">N</tspan><tspan class="cls-13" x="47.81" y="0">I</tspan><tspan x="53.74" y="0">TU</tspan><tspan class="cls-9" x="76.8" y="0">R</tspan><tspan class="cls-14" x="88.51" y="0">E</tspan></text><text class="cls-15" transform="translate(99.39 538.78)"> </text><text class="cls-16" transform="translate(99.52 538.78)">............................................<tspan class="cls-14" x="218.94" y="0">.</tspan></text><path class="cls-17" d="M338.36,624.74v-8.26a7,7,0,0,1-2.06.38V615.2a5.54,5.54,0,0,0,2.8-1.49h1.66v11Zm5.3-8.08a3.53,3.53,0,0,1,3.84-3.11c2.51,0,3.71,1.38,3.71,2.93a2.24,2.24,0,0,1-1.39,2.22v0a2.62,2.62,0,0,1,1.78,2.66c0,1.73-1.09,3.57-4.15,3.54-2.59,0-3.91-1.62-4-3.27h2.27a1.72,1.72,0,0,0,1.84,1.46,1.55,1.55,0,0,0,1.73-1.68c0-1-.42-1.74-1.94-1.74h-.8v-1.76h.75c1.1,0,1.63-.32,1.63-1.25a1.27,1.27,0,0,0-1.44-1.34,1.47,1.47,0,0,0-1.6,1.31Z" transform="translate(-9 -85.96)"/><text class="cls-15" transform="translate(344.37 538.78)">.</text><path class="cls-17" d="M359.16,621.54a2.81,2.81,0,0,1,1.76-2.63,2.46,2.46,0,0,1-1.3-2.29c0-1.73,1.38-3.07,3.83-3.07,2.27,0,3.75,1.26,3.75,3a2.35,2.35,0,0,1-1.33,2.24,2.74,2.74,0,0,1,1.74,2.63c0,2.38-1.82,3.49-4.34,3.49C361,624.94,359.16,623.78,359.16,621.54Zm6.11-.06c0-1.07-.7-1.63-1.89-1.63s-1.87.64-1.87,1.57a1.67,1.67,0,0,0,1.9,1.71C364.55,623.13,365.27,622.55,365.27,621.48Zm-3.46-4.77c0,.75.54,1.3,1.6,1.3s1.57-.48,1.57-1.26-.58-1.41-1.58-1.41S361.82,615.83,361.82,616.71Zm13.57.34a2.75,2.75,0,0,1-2.85,3c-1.7,0-2.83-1-2.83-3a2.77,2.77,0,0,1,2.85-3A2.7,2.7,0,0,1,375.39,617Zm-3.91,0c0,1,.38,1.6,1.09,1.6s1.09-.5,1.09-1.6-.45-1.58-1.1-1.58S371.48,616,371.48,617Zm1,7.7L379,614.2h1.68l-6.48,10.55Zm11-2.85a2.76,2.76,0,0,1-2.85,3.06c-1.71,0-2.83-1.06-2.83-3a2.76,2.76,0,0,1,2.85-3A2.69,2.69,0,0,1,383.49,621.89Zm-3.92,0c0,1,.38,1.62,1.09,1.62s1.1-.51,1.1-1.62-.45-1.57-1.1-1.57S379.57,620.84,379.57,621.89Z" transform="translate(-9 -85.96)"/><text class="cls-18" transform="translate(0 562.78)">HO<tspan class="cls-19" x="25.97" y="0">B</tspan><tspan class="cls-20" x="37.82" y="0">B</tspan><tspan class="cls-10" x="49.41" y="0">Y </tspan><tspan class="cls-9" x="65.1" y="0">R</tspan><tspan class="cls-21" x="76.81" y="0">E</tspan><tspan class="cls-22" x="87.85" y="0">L</tspan><tspan class="cls-23" x="98.62" y="0">A</tspan><tspan x="109.57" y="0">T</tspan><tspan class="cls-21" x="119.92" y="0">E</tspan><tspan class="cls-4" x="130.96" y="0">D O</tspan><tspan class="cls-24" x="161.73" y="0">B</tspan><tspan class="cls-25" x="173.52" y="0">J</tspan><tspan class="cls-26" x="180.94" y="0">E</tspan><tspan class="cls-19" x="191.87" y="0">C</tspan><tspan class="cls-27" x="204.32" y="0">T</tspan><tspan class="cls-28" x="214.81" y="0">S</tspan></text><text class="cls-29" transform="translate(226.04 562.78)"> </text><text class="cls-30" transform="translate(228.88 562.78)">..................<tspan class="cls-14" x="89.57" y="0">.</tspan></text><path class="cls-31" d="M338.25,648.74v-8.26a7,7,0,0,1-2.06.38V639.2a5.54,5.54,0,0,0,2.8-1.49h1.66v11Zm5.29,0v-.14c0-1.82.53-3.39,3.41-5.44,1.49-1.06,1.87-1.33,1.87-2.27a1.31,1.31,0,0,0-1.38-1.49c-1,0-1.42.59-1.58,1.58H343.5a3.61,3.61,0,0,1,3.94-3.43c2.85,0,3.78,1.76,3.78,3.28,0,1.7-.67,2.42-2.74,3.79-1.41.93-2,1.62-2.21,2.21h5.38l-.3,1.9Z" transform="translate(-9 -85.96)"/><text class="cls-29" transform="translate(344.5 562.78)">.</text><path class="cls-31" d="M361.66,646.1a1.43,1.43,0,0,0,1.52,1.06c1.5,0,1.84-1.58,1.9-3.2a2.93,2.93,0,0,1-2.34.88,3.32,3.32,0,0,1-3.57-3.52,3.72,3.72,0,0,1,4-3.76c3,0,4.23,2.14,4.23,5.15,0,2.85-.69,6.23-4.35,6.23-2.32,0-3.46-1.28-3.68-2.83Zm-.14-4.9a1.68,1.68,0,0,0,1.74,1.9c1.07,0,1.66-.53,1.66-1.82,0-.94-.27-2-1.68-2A1.69,1.69,0,0,0,361.51,641.2Zm13.89-.16a2.75,2.75,0,0,1-2.85,3c-1.7,0-2.83-1-2.83-3a2.77,2.77,0,0,1,2.85-3A2.7,2.7,0,0,1,375.41,641Zm-3.91,0c0,1,.38,1.6,1.09,1.6s1.09-.5,1.09-1.6-.45-1.58-1.1-1.58S371.5,640,371.5,641Zm1,7.7L379,638.2h1.68l-6.48,10.55Zm11-2.85a2.76,2.76,0,0,1-2.85,3.06c-1.71,0-2.83-1.06-2.83-3a2.76,2.76,0,0,1,2.85-3A2.69,2.69,0,0,1,383.51,645.89Zm-3.92,0c0,1,.38,1.62,1.09,1.62s1.1-.51,1.1-1.62-.45-1.57-1.1-1.57S379.58,644.84,379.58,645.89Z" transform="translate(-9 -85.96)"/><text class="cls-32" transform="translate(0.02 586.78)">P<tspan class="cls-21" x="11.17" y="0">E</tspan><tspan class="cls-33" x="22.21" y="0">R</tspan><tspan class="cls-13" x="33.94" y="0">S</tspan><tspan class="cls-3" x="45.02" y="0">O</tspan><tspan class="cls-4" x="58.21" y="0">NA</tspan><tspan class="cls-3" x="83.22" y="0">L</tspan><tspan class="cls-4" x="93.54" y="0"> </tspan><tspan class="cls-13" x="98.37" y="0">I</tspan><tspan class="cls-3" x="104.3" y="0">T</tspan><tspan class="cls-34" x="114.65" y="0">E</tspan><tspan class="cls-35" x="125.68" y="0">M</tspan><tspan class="cls-28" x="140.86" y="0">S</tspan></text><text class="cls-36" transform="translate(152.11 586.78)"> </text><text class="cls-37" transform="translate(154.27 586.78)">.................................<tspan class="cls-14" x="164.2" y="0">.</tspan></text><path class="cls-38" d="M338.36,672.74v-8.26a7,7,0,0,1-2.06.38V663.2a5.54,5.54,0,0,0,2.8-1.49h1.66v11Zm5.29,0v-.14c0-1.82.53-3.39,3.41-5.44,1.49-1.06,1.87-1.33,1.87-2.27a1.31,1.31,0,0,0-1.38-1.49c-1,0-1.42.59-1.58,1.58h-2.35a3.61,3.61,0,0,1,3.94-3.43c2.85,0,3.78,1.76,3.78,3.28,0,1.7-.67,2.42-2.74,3.79-1.41.93-2,1.62-2.21,2.21h5.38l-.3,1.9Z" transform="translate(-9 -85.96)"/><text class="cls-36" transform="translate(344.61 586.78)">.</text><path class="cls-38" d="M359.62,672.74v-.14c0-1.82.53-3.39,3.41-5.44,1.49-1.06,1.87-1.33,1.87-2.27a1.31,1.31,0,0,0-1.38-1.49c-1,0-1.42.59-1.58,1.58h-2.35a3.61,3.61,0,0,1,3.94-3.43c2.85,0,3.78,1.76,3.78,3.28,0,1.7-.67,2.42-2.74,3.79-1.41.93-2,1.62-2.21,2.21h5.38l-.3,1.9Zm15.78-7.7a2.75,2.75,0,0,1-2.85,3c-1.7,0-2.83-1-2.83-3a2.77,2.77,0,0,1,2.85-3A2.7,2.7,0,0,1,375.41,665Zm-3.91,0c0,1,.38,1.6,1.09,1.6s1.09-.5,1.09-1.6-.45-1.58-1.1-1.58S371.5,664,371.5,665Zm1,7.7L379,662.2h1.68l-6.48,10.55Zm11-2.85a2.76,2.76,0,0,1-2.85,3.06c-1.71,0-2.83-1.06-2.83-3a2.76,2.76,0,0,1,2.85-3A2.69,2.69,0,0,1,383.5,669.89Zm-3.92,0c0,1,.38,1.62,1.09,1.62s1.1-.51,1.1-1.62-.45-1.57-1.1-1.57S379.58,668.84,379.58,669.89Z" transform="translate(-9 -85.96)"/><text class="cls-39" transform="translate(0.02 610.78)">C<tspan class="cls-40" x="12.34" y="0">L</tspan><tspan class="cls-41" x="22.53" y="0">O</tspan><tspan class="cls-42" x="35.57" y="0">TH</tspan><tspan x="58.74" y="0">I</tspan><tspan class="cls-25" x="64.69" y="0">N</tspan><tspan class="cls-14" x="77.74" y="0">G</tspan></text><text class="cls-43" transform="translate(90.75 610.78)"> </text><text class="cls-44" transform="translate(94.54 610.78)">...............................................<tspan class="cls-14" x="233.87" y="0">.</tspan></text><path class="cls-45" d="M343.19,693.54a2.81,2.81,0,0,1,1.76-2.63,2.46,2.46,0,0,1-1.3-2.29c0-1.73,1.38-3.07,3.83-3.07,2.27,0,3.75,1.26,3.75,3a2.35,2.35,0,0,1-1.33,2.24,2.74,2.74,0,0,1,1.74,2.63c0,2.38-1.82,3.49-4.34,3.49C345,696.94,343.19,695.78,343.19,693.54Zm6.11-.06c0-1.07-.7-1.63-1.89-1.63s-1.87.64-1.87,1.57a1.67,1.67,0,0,0,1.9,1.71C348.59,695.13,349.31,694.55,349.31,693.48Zm-3.46-4.77c0,.75.54,1.3,1.6,1.3s1.57-.48,1.57-1.26-.58-1.41-1.58-1.41S345.85,687.83,345.85,688.71Z" transform="translate(-9 -85.96)"/><text class="cls-43" transform="translate(344.43 610.78)">.</text><path class="cls-45" d="M367.44,691.16c0,2.83-1,5.78-4.24,5.78s-4.23-2.71-4.23-5.71c0-2.77,1.12-5.67,4.29-5.67S367.44,688.24,367.44,691.16Zm-6.08,0c0,2.21.4,3.86,1.86,3.86s1.82-1.71,1.82-3.89-.37-3.78-1.78-3.78S361.35,688.82,361.35,691.21Zm14-2.16a2.75,2.75,0,0,1-2.85,3c-1.7,0-2.83-1-2.83-3a2.77,2.77,0,0,1,2.85-3A2.7,2.7,0,0,1,375.4,689Zm-3.91,0c0,1,.38,1.6,1.09,1.6s1.09-.5,1.09-1.6-.45-1.58-1.1-1.58S371.49,688,371.49,689Zm1,7.7L379,686.2h1.68l-6.48,10.55Zm11-2.85a2.76,2.76,0,0,1-2.85,3.06c-1.71,0-2.83-1.06-2.83-3a2.76,2.76,0,0,1,2.85-3A2.69,2.69,0,0,1,383.5,693.89Zm-3.92,0c0,1,.38,1.62,1.09,1.62s1.1-.51,1.1-1.62-.45-1.57-1.1-1.57S379.58,692.84,379.58,693.89Z" transform="translate(-9 -85.96)"/><text class="cls-46" transform="translate(0 634.78)">HOLI<tspan class="cls-47" x="42.24" y="0">D</tspan><tspan class="cls-48" x="54.53" y="0">A</tspan><tspan class="cls-4" x="65.55" y="0">Y </tspan><tspan class="cls-6" x="81.25" y="0">S</tspan><tspan class="cls-49" x="92.42" y="0">E</tspan><tspan class="cls-50" x="103.57" y="0">A</tspan><tspan class="cls-13" x="115.45" y="0">S</tspan><tspan class="cls-4" x="126.54" y="0">ONAL </tspan><tspan class="cls-51" x="179.92" y="0">I</tspan><tspan class="cls-42" x="185.85" y="0">T</tspan><tspan class="cls-34" x="196.22" y="0">E</tspan><tspan class="cls-35" x="207.25" y="0">M</tspan><tspan class="cls-28" x="222.43" y="0">S</tspan></text><text class="cls-52" transform="translate(233.68 634.78)"> </text><text class="cls-53" transform="translate(233.88 634.78)">...................<tspan class="cls-14" x="94.54" y="0">.</tspan></text><path class="cls-54" d="M350.7,712.37a1.34,1.34,0,0,0-1.49-1.07c-1.55,0-1.94,1.6-2,3.07a3,3,0,0,1,2.55-1.09,3.37,3.37,0,0,1,3.47,3.63,3.75,3.75,0,0,1-4.07,4c-3.14,0-4.26-2.27-4.26-5.55,0-2.43.82-5.83,4.37-5.83,2.48,0,3.47,1.46,3.67,2.82Zm.21,4.72c0-1.07-.45-2-1.76-2-1,0-1.74.56-1.74,1.87,0,1.06.51,2.11,1.74,2.11S350.91,718.33,350.91,717.09Z" transform="translate(-9 -85.96)"/><text class="cls-52" transform="translate(345.9 634.78)">.</text><path class="cls-54" d="M367.71,709.72v1.71a22.46,22.46,0,0,0-3.86,9.32h-2.58a20.88,20.88,0,0,1,4-9.14H360v-1.89Zm7.68,3.33a2.75,2.75,0,0,1-2.85,3c-1.7,0-2.83-1-2.83-3a2.77,2.77,0,0,1,2.85-3A2.7,2.7,0,0,1,375.39,713Zm-3.91,0c0,1,.38,1.6,1.09,1.6s1.09-.5,1.09-1.6-.45-1.58-1.1-1.58S371.49,712,371.49,713Zm1,7.7L379,710.2h1.68l-6.48,10.55Zm11-2.85a2.76,2.76,0,0,1-2.85,3.06c-1.71,0-2.83-1.06-2.83-3a2.76,2.76,0,0,1,2.85-3A2.69,2.69,0,0,1,383.49,717.89Zm-3.92,0c0,1,.38,1.62,1.09,1.62s1.1-.51,1.1-1.62-.45-1.57-1.1-1.57S379.57,716.84,379.57,717.89Z" transform="translate(-9 -85.96)"/><text class="cls-55" transform="translate(392.99 514.78)"><tspan class="cls-5">B</tspan><tspan class="cls-13" x="11.78" y="0">O</tspan><tspan class="cls-3" x="24.94" y="0">O</tspan><tspan class="cls-40" x="38.13" y="0">K</tspan><tspan class="cls-56" x="49.76" y="0">S</tspan><tspan class="cls-4" x="60.42" y="0">/ M</tspan><tspan class="cls-57" x="88.8" y="0">A</tspan><tspan class="cls-19" x="100.38" y="0">G</tspan><tspan class="cls-58" x="113.45" y="0">A</tspan><tspan class="cls-59" x="125.84" y="0">Z</tspan><tspan class="cls-3" x="136.73" y="0">I</tspan><tspan class="cls-4" x="142.69" y="0">N</tspan><tspan class="cls-9" x="155.73" y="0">E</tspan><tspan x="166.73" y="0">S</tspan></text><text class="cls-55" transform="translate(570.96 514.78)"> </text><text class="cls-55" transform="translate(572.12 514.78)"><tspan class="cls-4">..............................</tspan><tspan x="149.28" y="0">.</tspan></text><path class="cls-60" d="M742.62,592.37a1.34,1.34,0,0,0-1.49-1.07c-1.55,0-1.94,1.6-2,3.07a3,3,0,0,1,2.55-1.09,3.37,3.37,0,0,1,3.47,3.63,3.75,3.75,0,0,1-4.07,4c-3.14,0-4.26-2.27-4.26-5.55,0-2.43.82-5.83,4.37-5.83,2.48,0,3.47,1.46,3.67,2.82Zm.21,4.72c0-1.07-.45-2-1.76-2-1,0-1.74.56-1.74,1.87,0,1.06.51,2.11,1.74,2.11S742.83,598.33,742.83,597.09Z" transform="translate(-9 -85.96)"/><text class="cls-55" transform="translate(737.82 514.78)">.</text><path class="cls-60" d="M760.17,591.59h-4.56c-.08.8-.21,1.71-.29,2.18a3,3,0,0,1,2-.58,3.4,3.4,0,0,1,3.46,3.68,3.81,3.81,0,0,1-4.16,4.07,3.7,3.7,0,0,1-4-3.17h2.29a1.7,1.7,0,0,0,1.76,1.34c1.28,0,1.79-.82,1.79-2,0-1-.4-2.06-1.78-2.06a1.63,1.63,0,0,0-1.74,1.17l-2.11-.32c.29-1.31.72-4.63.86-6.13h6.77Zm8.22,1.46a2.75,2.75,0,0,1-2.85,3c-1.7,0-2.83-1-2.83-3a2.77,2.77,0,0,1,2.85-3A2.7,2.7,0,0,1,768.39,593Zm-3.91,0c0,1,.38,1.6,1.09,1.6s1.09-.5,1.09-1.6-.45-1.58-1.1-1.58S764.49,592,764.49,593Zm1,7.7L772,590.2h1.68l-6.48,10.55Zm11-2.85a2.76,2.76,0,0,1-2.85,3.06c-1.71,0-2.83-1.06-2.83-3a2.76,2.76,0,0,1,2.85-3A2.69,2.69,0,0,1,776.49,597.89Zm-3.92,0c0,1,.38,1.62,1.09,1.62s1.1-.51,1.1-1.62-.45-1.57-1.1-1.57S772.57,596.84,772.57,597.89Z" transform="translate(-9 -85.96)"/><text class="cls-61" transform="translate(392.99 538.78)"><tspan class="cls-6">S</tspan><tspan class="cls-62" x="11.17" y="0">P</tspan><tspan class="cls-3" x="22.53" y="0">O</tspan><tspan class="cls-7" x="35.71" y="0">R</tspan><tspan class="cls-3" x="47.49" y="0">TI</tspan><tspan class="cls-25" x="63.79" y="0">N</tspan><tspan class="cls-10" x="76.85" y="0">G </tspan><tspan class="cls-63" x="94.65" y="0">E</tspan><tspan class="cls-4" x="105.54" y="0">Q</tspan><tspan class="cls-59" x="118.75" y="0">U</tspan><tspan class="cls-51" x="131.37" y="0">I</tspan><tspan class="cls-64" x="137.31" y="0">P</tspan><tspan class="cls-5" x="148.48" y="0">M</tspan><tspan class="cls-21" x="163.63" y="0">E</tspan><tspan class="cls-42" x="174.67" y="0">N</tspan><tspan x="187.71" y="0">T</tspan></text><text class="cls-61" transform="translate(591.17 538.78)"> </text><text class="cls-61" transform="translate(592.03 538.78)"><tspan class="cls-4">..........................</tspan><tspan x="129.37" y="0">.</tspan></text><path class="cls-65" d="M741.51,624.74v-2.61h-5v-2l4.63-6.45h2.59v6.61h1.33l-.22,1.81h-1.1v2.61Zm0-6.47c0-1.22,0-1.89,0-2.56-.43.93-2.18,3.25-3,4.61h3Z" transform="translate(-9 -85.96)"/><text class="cls-61" transform="translate(737.47 538.78)">.</text><path class="cls-65" d="M754.63,622.1a1.43,1.43,0,0,0,1.52,1.06c1.5,0,1.84-1.58,1.9-3.2a2.93,2.93,0,0,1-2.34.88,3.32,3.32,0,0,1-3.57-3.52,3.72,3.72,0,0,1,4-3.76c3,0,4.23,2.14,4.23,5.15,0,2.85-.69,6.23-4.35,6.23-2.32,0-3.46-1.28-3.68-2.83Zm-.14-4.9a1.68,1.68,0,0,0,1.74,1.9c1.07,0,1.66-.53,1.66-1.82,0-.94-.27-2-1.68-2A1.69,1.69,0,0,0,754.49,617.2Zm13.89-.16a2.75,2.75,0,0,1-2.85,3c-1.7,0-2.83-1-2.83-3a2.77,2.77,0,0,1,2.85-3A2.7,2.7,0,0,1,768.38,617Zm-3.91,0c0,1,.38,1.6,1.09,1.6s1.09-.5,1.09-1.6-.45-1.58-1.1-1.58S764.47,616,764.47,617Zm1,7.7L772,614.2h1.68l-6.48,10.55Zm11-2.85a2.76,2.76,0,0,1-2.85,3.06c-1.71,0-2.83-1.06-2.83-3a2.76,2.76,0,0,1,2.85-3A2.69,2.69,0,0,1,776.48,621.89Zm-3.92,0c0,1,.38,1.62,1.09,1.62s1.1-.51,1.1-1.62-.45-1.57-1.1-1.57S772.56,620.84,772.56,621.89Z" transform="translate(-9 -85.96)"/><text class="cls-66" transform="translate(392.99 562.78)">E<tspan class="cls-3" x="11.04" y="0">L</tspan><tspan class="cls-26" x="21.36" y="0">E</tspan><tspan class="cls-19" x="32.29" y="0">C</tspan><tspan class="cls-42" x="44.74" y="0">T</tspan><tspan class="cls-59" x="55.1" y="0">R</tspan><tspan class="cls-3" x="66.72" y="0">O</tspan><tspan class="cls-4" x="79.9" y="0">N</tspan><tspan class="cls-3" x="92.94" y="0">I</tspan><tspan class="cls-10" x="98.9" y="0">C </tspan><tspan class="cls-67" x="116.08" y="0">D</tspan><tspan class="cls-68" x="128.8" y="0">E</tspan><tspan class="cls-26" x="140" y="0">V</tspan><tspan class="cls-3" x="151.76" y="0">IC</tspan><tspan class="cls-9" x="170.05" y="0">E</tspan><tspan class="cls-28" x="181.05" y="0">S</tspan></text><text class="cls-69" transform="translate(585.26 562.78)"> </text><text class="cls-70" transform="translate(587.04 562.78)">...........................<tspan class="cls-71" x="134.35" y="0">.</tspan></text><path class="cls-72" d="M744.12,639.59h-4.56c-.08.8-.21,1.71-.29,2.18a3,3,0,0,1,2-.58,3.4,3.4,0,0,1,3.46,3.68,3.81,3.81,0,0,1-4.16,4.07,3.7,3.7,0,0,1-4-3.17h2.29a1.7,1.7,0,0,0,1.76,1.34c1.28,0,1.79-.82,1.79-2,0-1-.4-2.06-1.78-2.06a1.63,1.63,0,0,0-1.74,1.17l-2.11-.32c.29-1.31.72-4.63.86-6.13h6.77Z" transform="translate(-9 -85.96)"/><text class="cls-69" transform="translate(737.44 562.78)">.</text><path class="cls-72" d="M760.44,643.16c0,2.83-1,5.78-4.24,5.78s-4.23-2.71-4.23-5.71c0-2.77,1.12-5.67,4.29-5.67S760.44,640.24,760.44,643.16Zm-6.08,0c0,2.21.4,3.86,1.86,3.86s1.82-1.71,1.82-3.89-.37-3.78-1.78-3.78S754.36,640.82,754.36,643.21Zm14-2.16a2.75,2.75,0,0,1-2.85,3c-1.7,0-2.83-1-2.83-3a2.77,2.77,0,0,1,2.85-3A2.7,2.7,0,0,1,768.41,641Zm-3.91,0c0,1,.38,1.6,1.09,1.6s1.09-.5,1.09-1.6-.45-1.58-1.1-1.58S764.5,640,764.5,641Zm1,7.7L772,638.2h1.68l-6.48,10.55Zm11-2.85a2.76,2.76,0,0,1-2.85,3.06c-1.71,0-2.83-1.06-2.83-3a2.76,2.76,0,0,1,2.85-3A2.69,2.69,0,0,1,776.51,645.89Zm-3.92,0c0,1,.38,1.62,1.09,1.62s1.1-.51,1.1-1.62-.45-1.57-1.1-1.57S772.58,644.84,772.58,645.89Z" transform="translate(-9 -85.96)"/><text class="cls-73" transform="translate(393.01 586.78)"><tspan class="cls-67">C</tspan><tspan class="cls-4" x="12.34" y="0">H</tspan><tspan class="cls-3" x="25.14" y="0">ILD</tspan><tspan class="cls-9" x="54.13" y="0">R</tspan><tspan class="cls-74" x="65.84" y="0">EN</tspan><tspan class="cls-75" x="90.11" y="0">’</tspan><tspan class="cls-3" x="95.52" y="0">S</tspan><tspan class="cls-4" x="106.62" y="0"> </tspan><tspan class="cls-76" x="111.45" y="0">T</tspan><tspan class="cls-77" x="121.63" y="0">O</tspan><tspan class="cls-78" x="134.32" y="0">Y</tspan><tspan x="145.01" y="0">S</tspan></text><text class="cls-73" transform="translate(549.21 586.78)"> </text><text class="cls-79" transform="translate(552.24 586.78)">..................................<tspan class="cls-71" x="169.18" y="0">.</tspan></text><path class="cls-80" d="M736.79,664.66a3.53,3.53,0,0,1,3.84-3.11c2.51,0,3.71,1.38,3.71,2.93a2.24,2.24,0,0,1-1.39,2.22v0a2.62,2.62,0,0,1,1.78,2.66c0,1.73-1.09,3.57-4.15,3.54-2.59,0-3.91-1.62-4-3.27h2.27a1.72,1.72,0,0,0,1.84,1.46,1.55,1.55,0,0,0,1.73-1.68c0-1-.42-1.74-1.94-1.74h-.8v-1.76h.75c1.1,0,1.63-.32,1.63-1.25a1.27,1.27,0,0,0-1.44-1.34,1.47,1.47,0,0,0-1.6,1.31Z" transform="translate(-9 -85.96)"/><text class="cls-73" transform="translate(737.5 586.78)">.</text><path class="cls-80" d="M754.67,670.1a1.43,1.43,0,0,0,1.52,1.06c1.5,0,1.84-1.58,1.9-3.2a2.93,2.93,0,0,1-2.34.88,3.32,3.32,0,0,1-3.57-3.52,3.72,3.72,0,0,1,4-3.76c3,0,4.23,2.14,4.23,5.15,0,2.85-.69,6.23-4.35,6.23-2.32,0-3.46-1.28-3.68-2.83Zm-.14-4.9a1.68,1.68,0,0,0,1.74,1.9c1.07,0,1.66-.53,1.66-1.82,0-.94-.27-2-1.68-2A1.69,1.69,0,0,0,754.52,665.2Zm13.89-.16a2.75,2.75,0,0,1-2.85,3c-1.7,0-2.83-1-2.83-3a2.77,2.77,0,0,1,2.85-3A2.7,2.7,0,0,1,768.41,665Zm-3.91,0c0,1,.38,1.6,1.09,1.6s1.09-.5,1.09-1.6-.45-1.58-1.1-1.58S764.51,664,764.51,665Zm1,7.7L772,662.2h1.68l-6.48,10.55Zm11-2.85a2.76,2.76,0,0,1-2.85,3.06c-1.71,0-2.83-1.06-2.83-3a2.76,2.76,0,0,1,2.85-3A2.69,2.69,0,0,1,776.51,669.89Zm-3.92,0c0,1,.38,1.62,1.09,1.62s1.1-.51,1.1-1.62-.45-1.57-1.1-1.57S772.59,668.84,772.59,669.89Z" transform="translate(-9 -85.96)"/><text class="cls-81" transform="translate(393.02 610.78)"><tspan class="cls-78">O</tspan><tspan class="cls-4" x="13.02" y="0">TH</tspan><tspan class="cls-21" x="36.19" y="0">E</tspan><tspan x="47.23" y="0">R</tspan></text><text class="cls-82" transform="translate(451.84 610.78)"> <tspan class="cls-10" x="0.91" y="0">......................................................</tspan><tspan class="cls-71" x="269.61" y="0">.</tspan></text><path class="cls-83" d="M736.55,696.74v-.14c0-1.82.53-3.39,3.41-5.44,1.49-1.06,1.87-1.33,1.87-2.27a1.31,1.31,0,0,0-1.38-1.49c-1,0-1.42.59-1.58,1.58h-2.35a3.61,3.61,0,0,1,3.94-3.43c2.85,0,3.78,1.76,3.78,3.28,0,1.7-.67,2.42-2.74,3.79-1.41.93-2,1.62-2.21,2.21h5.38l-.3,1.9Z" transform="translate(-9 -85.96)"/><text class="cls-81" transform="translate(737.52 610.78)">.</text><path class="cls-83" d="M754.68,694.1a1.43,1.43,0,0,0,1.52,1.06c1.5,0,1.84-1.58,1.9-3.2a2.93,2.93,0,0,1-2.34.88,3.32,3.32,0,0,1-3.57-3.52,3.72,3.72,0,0,1,4-3.76c3,0,4.23,2.14,4.23,5.15,0,2.85-.69,6.23-4.35,6.23-2.32,0-3.46-1.28-3.68-2.83Zm-.14-4.9a1.68,1.68,0,0,0,1.74,1.9c1.07,0,1.66-.53,1.66-1.82,0-.94-.27-2-1.68-2A1.69,1.69,0,0,0,754.54,689.2Zm13.89-.16a2.75,2.75,0,0,1-2.85,3c-1.7,0-2.83-1-2.83-3a2.77,2.77,0,0,1,2.85-3A2.7,2.7,0,0,1,768.43,689Zm-3.91,0c0,1,.38,1.6,1.09,1.6s1.09-.5,1.09-1.6-.45-1.58-1.1-1.58S764.52,688,764.52,689Zm1,7.7L772,686.2h1.68l-6.48,10.55Zm11-2.85a2.76,2.76,0,0,1-2.85,3.06c-1.71,0-2.83-1.06-2.83-3a2.76,2.76,0,0,1,2.85-3A2.69,2.69,0,0,1,776.53,693.89Zm-3.92,0c0,1,.38,1.62,1.09,1.62s1.1-.51,1.1-1.62-.45-1.57-1.1-1.57S772.6,692.84,772.6,693.89Z" transform="translate(-9 -85.96)"/><text class="cls-84" transform="translate(393.04 634.78)"><tspan class="cls-4">M</tspan><tspan class="cls-85" x="15.14" y="0">A</tspan><tspan class="cls-3" x="27.5" y="0">JO</tspan><tspan class="cls-4" x="48.08" y="0">R A</tspan><tspan class="cls-64" x="76.43" y="0">PP</tspan><tspan class="cls-3" x="98.77" y="0">L</tspan><tspan class="cls-51" x="109.09" y="0">I</tspan><tspan class="cls-4" x="115.02" y="0">A</tspan><tspan class="cls-25" x="126.99" y="0">N</tspan><tspan class="cls-67" x="140.05" y="0">C</tspan><tspan class="cls-9" x="152.38" y="0">E</tspan><tspan x="163.39" y="0">S</tspan></text><text class="cls-84" transform="translate(567.62 634.78)"> </text><text class="cls-84" transform="translate(572.18 634.78)"><tspan class="cls-10">..............................</tspan><tspan x="149.28" y="0">.</tspan></text><path class="cls-86" d="M736.78,720.74v-.14c0-1.82.53-3.39,3.41-5.44,1.49-1.06,1.87-1.33,1.87-2.27a1.31,1.31,0,0,0-1.38-1.49c-1,0-1.42.59-1.58,1.58h-2.35a3.61,3.61,0,0,1,3.94-3.43c2.85,0,3.78,1.76,3.78,3.28,0,1.7-.67,2.42-2.74,3.79-1.41.93-2,1.62-2.21,2.21h5.38l-.3,1.9Z" transform="translate(-9 -85.96)"/><text class="cls-84" transform="translate(737.74 634.78)">.</text><path class="cls-86" d="M758.11,712.37a1.34,1.34,0,0,0-1.49-1.07c-1.55,0-1.94,1.6-2,3.07a3,3,0,0,1,2.55-1.09,3.37,3.37,0,0,1,3.47,3.63,3.75,3.75,0,0,1-4.07,4c-3.14,0-4.26-2.27-4.26-5.55,0-2.43.82-5.83,4.37-5.83,2.48,0,3.47,1.46,3.67,2.82Zm.21,4.72c0-1.07-.45-2-1.76-2-1,0-1.74.56-1.74,1.87,0,1.06.51,2.11,1.74,2.11S758.31,718.33,758.31,717.09Zm10.13-4a2.75,2.75,0,0,1-2.85,3c-1.7,0-2.83-1-2.83-3a2.77,2.77,0,0,1,2.85-3A2.7,2.7,0,0,1,768.44,713Zm-3.91,0c0,1,.38,1.6,1.09,1.6s1.09-.5,1.09-1.6-.45-1.58-1.1-1.58S764.54,712,764.54,713Zm1,7.7L772,710.2h1.68l-6.48,10.55Zm11-2.85a2.76,2.76,0,0,1-2.85,3.06c-1.71,0-2.83-1.06-2.83-3a2.76,2.76,0,0,1,2.85-3A2.69,2.69,0,0,1,776.54,717.89Zm-3.92,0c0,1,.38,1.62,1.09,1.62s1.1-.51,1.1-1.62-.45-1.57-1.1-1.57S772.62,716.84,772.62,717.89Z" transform="translate(-9 -85.96)"/><line class="cls-87" x1="187.31" y1="128.45" x2="514.52" y2="85.37"/><path class="cls-88" d="M338.91,174.67l-4.52.6c0,.8,0,1.73,0,2.2a3,3,0,0,1,1.92-.83,3.4,3.4,0,0,1,3.91,3.2,3.81,3.81,0,0,1-3.6,4.57,3.7,3.7,0,0,1-4.4-2.62l2.27-.3a1.7,1.7,0,0,0,1.92,1.1c1.27-.17,1.67-1,1.51-2.27-.13-1-.67-2-2-1.82a1.63,1.63,0,0,0-1.58,1.39l-2.14,0c.11-1.34.11-4.68.06-6.19l6.71-.88Zm3,1.86a21.75,21.75,0,0,0,.12-4.81l2.4-.32a13.55,13.55,0,0,1-.7,4.89Zm17.55,4.68-2.84-3.55h0l-1.89,4.17-2.55.34,2.91-6-4.24-5,2.75-.36,2.68,3.33h0l1.81-3.92,2.51-.33-2.84,5.67,4.45,5.24Zm10.94-1.44-1.08-8.19a7,7,0,0,1-2,.65l-.22-1.65a5.54,5.54,0,0,0,2.58-1.84l1.65-.22,1.44,10.93Zm13-7.34c.37,2.81-.21,5.86-3.45,6.28s-4.54-2.13-4.94-5.11c-.36-2.75.37-5.76,3.51-6.18S383,169.53,383.35,172.42Zm-6,.84c.29,2.19.9,3.77,2.34,3.58s1.59-1.94,1.3-4.09-.86-3.7-2.25-3.51S377,170.89,377.33,173.26Zm8.16-2.48a21.75,21.75,0,0,0,.12-4.81l2.4-.32a13.55,13.55,0,0,1-.7,4.89Z" transform="translate(-9 -85.96)"/><g class="cls-89"><g class="cls-90"><path class="cls-91" d="M253.52,361.85l-57-31a.46.46,0,0,1-.29-.38l57,31a.46.46,0,0,0,.29.38" transform="translate(-9 -85.96)"/></g></g><polygon class="cls-91" points="271.08 360.97 187.25 315.37 187.25 312.48 271.08 358.08 271.08 360.97"/><polygon class="cls-92" points="271.08 358.08 187.25 312.48 514.6 266.47 598.43 312.07 271.08 358.08"/><polygon class="cls-93" points="598.44 307.02 598.43 312.07 271.08 358.08 271.09 353.03 598.44 307.02"/><polygon class="cls-94" points="271.08 358.08 187.25 312.48 187.26 307.43 271.09 353.03 271.08 358.08"/><polygon class="cls-95" points="271.09 353.03 187.26 307.43 514.61 261.42 598.44 307.02 271.09 353.03"/><polygon class="cls-96" points="598.46 299.81 598.44 307.02 271.09 353.03 271.1 345.82 598.46 299.81"/><polygon class="cls-97" points="271.09 353.03 187.26 307.43 187.27 300.22 271.11 345.82 271.09 353.03"/><polygon class="cls-98" points="271.11 345.82 187.27 300.22 514.63 254.21 598.46 299.81 271.11 345.82"/><polygon class="cls-99" points="598.47 291.16 598.46 299.81 271.11 345.82 271.12 337.17 598.47 291.16"/><polygon class="cls-100" points="271.11 345.82 187.27 300.22 187.29 291.57 271.12 337.17 271.11 345.82"/><polygon class="cls-101" points="271.12 337.17 187.29 291.57 514.64 245.56 598.47 291.16 271.12 337.17"/><polygon class="cls-102" points="598.49 282.51 598.47 291.16 271.12 337.17 271.14 328.52 598.49 282.51"/><polygon class="cls-103" points="271.12 337.17 187.29 291.57 187.31 282.92 271.14 328.52 271.12 337.17"/><polygon class="cls-104" points="271.14 328.52 187.31 282.92 514.66 236.91 598.49 282.51 271.14 328.52"/><polygon class="cls-105" points="598.51 270.98 598.49 282.51 271.14 328.52 271.16 316.98 598.51 270.98"/><polygon class="cls-106" points="271.14 328.52 187.31 282.92 187.33 271.38 271.16 316.99 271.14 328.52"/><polygon class="cls-107" points="271.16 316.98 187.33 271.38 514.68 225.37 598.51 270.98 271.16 316.98"/><polygon class="cls-108" points="598.53 259.44 598.51 270.98 271.16 316.98 271.18 305.45 598.53 259.44"/><polygon class="cls-109" points="271.16 316.98 187.33 271.38 187.35 259.84 271.18 305.45 271.16 316.98"/><polygon class="cls-110" points="271.18 305.45 187.35 259.85 514.7 213.84 598.53 259.44 271.18 305.45"/><polygon class="cls-111" points="598.56 245.02 598.53 259.44 271.18 305.45 271.21 291.02 598.56 245.02"/><polygon class="cls-112" points="271.18 305.45 187.35 259.85 187.38 245.42 271.21 291.02 271.18 305.45"/><polygon class="cls-113" points="271.21 291.02 187.38 245.42 514.73 199.41 598.56 245.02 271.21 291.02"/><polygon class="cls-114" points="598.6 223.38 598.56 245.02 271.21 291.02 271.25 269.39 598.6 223.38"/><polygon class="cls-115" points="271.21 291.02 187.38 245.42 187.42 223.78 271.25 269.39 271.21 291.02"/><polygon class="cls-116" points="271.25 269.39 187.42 223.78 514.77 177.78 598.6 223.38 271.25 269.39"/><polygon class="cls-117" points="598.64 200.31 598.6 223.38 271.25 269.39 271.29 246.31 598.64 200.31"/><polygon class="cls-118" points="271.25 269.39 187.42 223.78 187.46 200.71 271.29 246.31 271.25 269.39"/><polygon class="cls-119" points="271.29 246.31 187.46 200.71 514.81 154.71 598.64 200.31 271.29 246.31"/><polygon class="cls-120" points="598.69 176.51 598.64 200.31 271.29 246.31 271.33 222.52 598.69 176.51"/><polygon class="cls-121" points="271.29 246.31 187.46 200.71 187.5 176.91 271.33 222.52 271.29 246.31"/><polygon class="cls-122" points="271.33 222.52 187.5 176.91 514.86 130.91 598.69 176.51 271.33 222.52"/><polygon class="cls-123" points="598.75 139.74 598.69 176.51 271.33 222.52 271.4 185.75 598.75 139.74"/><polygon class="cls-124" points="271.33 222.52 187.5 176.91 187.57 140.14 271.4 185.75 271.33 222.52"/><polygon class="cls-125" points="271.4 185.75 187.57 140.14 514.92 94.14 598.75 139.74 271.4 185.75"/><path class="cls-126" d="M284.45,447.75c-2.42.34-4.37,0-4.37-.82V444l327.35-46v2.89" transform="translate(-9 -85.96)"/><path class="cls-126" d="M607.43,400.92c0,.79-2,1.71-4.36,2L284.45,447.75" transform="translate(-9 -85.96)"/><g id="genx_caption"><rect class="cls-88" x="541.77" width="232" height="141.49"/><polyline class="cls-88" points="632.43 91.27 557.43 91.27 557.43 166.27"/><text class="cls-127" transform="translate(553.76 24.49)"><tspan class="cls-128">M</tspan><tspan class="cls-129" x="15.73" y="0">o</tspan><tspan class="cls-130" x="26.03" y="0">s</tspan><tspan class="cls-131" x="35.12" y="0">t </tspan><tspan class="cls-6" x="46.89" y="0">G</tspan><tspan class="cls-132" x="60.33" y="0">e</tspan><tspan class="cls-133" x="70.14" y="0">n</tspan><tspan class="cls-134" x="80.75" y="0">-</tspan><tspan class="cls-131" x="87.7" y="0">X </tspan><tspan class="cls-135" x="103.87" y="0">u</tspan><tspan class="cls-136" x="114.24" y="0">s</tspan><tspan class="cls-137" x="123.25" y="0">e</tspan><tspan class="cls-138" x="133.06" y="0">r</tspan><tspan class="cls-139" x="140.04" y="0">s </tspan><tspan class="cls-140" x="154.43" y="0">o</tspan><tspan class="cls-141" x="164.66" y="0">p</tspan><tspan x="175.28" y="0">t </tspan></text><text class="cls-142" transform="translate(553.76 45.49)">f<tspan class="cls-143" x="5.71" y="0">o</tspan><tspan class="cls-139" x="15.95" y="0">r </tspan><tspan class="cls-144" x="28.27" y="0">t</tspan><tspan class="cls-143" x="34.51" y="0">h</tspan><tspan class="cls-145" x="45.02" y="0">e</tspan><tspan class="cls-131" x="54.91" y="0" xml:space="preserve"> 5</tspan><tspan class="cls-146" x="70.51" y="0">’</tspan><tspan class="cls-131" x="74.92" y="0" xml:space="preserve"> x </tspan><tspan class="cls-133" x="94.28" y="0">1</tspan><tspan class="cls-147" x="101.45" y="0">0</tspan><tspan class="cls-138" x="112.18" y="0">’</tspan><tspan class="cls-131" x="116.58" y="0"> </tspan><tspan x="121.9" y="0">s</tspan><tspan class="cls-148" x="130.85" y="0">i</tspan><tspan class="cls-149" x="135.66" y="0">z</tspan><tspan class="cls-150" x="144.14" y="0">e </tspan></text><text class="cls-127" transform="translate(713.28 45.49)"> </text><text class="cls-127" transform="translate(553.76 66.48)"><tspan class="cls-151">a</tspan><tspan class="cls-140" x="9.76" y="0">n</tspan><tspan class="cls-131" x="20.26" y="0">d </tspan><tspan class="cls-152" x="36.31" y="0">w</tspan><tspan class="cls-153" x="50.17" y="0">i</tspan><tspan class="cls-152" x="55.11" y="0">t</tspan><tspan class="cls-139" x="61.35" y="0">h b</tspan><tspan class="cls-154" x="88.04" y="0">o</tspan><tspan class="cls-143" x="98.38" y="0">om</tspan><tspan class="cls-132" x="123.88" y="0">e</tspan><tspan class="cls-145" x="133.69" y="0">r</tspan><tspan x="140.67" y="0">s </tspan></text><text class="cls-127" transform="translate(553.76 87.48)"><tspan class="cls-155">r</tspan><tspan class="cls-132" x="6.78" y="0">e</tspan><tspan class="cls-131" x="16.59" y="0">p</tspan><tspan class="cls-140" x="27.3" y="0">o</tspan><tspan class="cls-156" x="37.54" y="0">r</tspan><tspan class="cls-151" x="44.91" y="0">t</tspan><tspan class="cls-157" x="51.1" y="0">e</tspan><tspan class="cls-131" x="61.03" y="0">d </tspan><tspan class="cls-152" x="77.08" y="0">t</tspan><tspan class="cls-140" x="83.32" y="0">h</tspan><tspan class="cls-131" x="93.82" y="0">e </tspan><tspan class="cls-148" x="109.05" y="0">h</tspan><tspan class="cls-158" x="119.46" y="0">i</tspan><tspan class="cls-159" x="124.39" y="0">g</tspan><tspan class="cls-143" x="134.83" y="0">h</tspan><tspan class="cls-146" x="145.33" y="0">e</tspan><tspan class="cls-130" x="155.22" y="0">s</tspan><tspan x="164.32" y="0">t </tspan></text><text class="cls-160" transform="translate(553.76 108.47)">p<tspan class="cls-137" x="10.71" y="0">e</tspan><tspan class="cls-151" x="20.52" y="0">r</tspan><tspan class="cls-133" x="27.27" y="0">c</tspan><tspan class="cls-161" x="36.86" y="0">e</tspan><tspan class="cls-155" x="46.68" y="0">n</tspan><tspan class="cls-162" x="57.1" y="0">t</tspan><tspan class="cls-163" x="63.46" y="0">a</tspan><tspan class="cls-140" x="73.29" y="0">g</tspan><tspan class="cls-146" x="83.81" y="0">e</tspan><tspan x="93.7" y="0"> </tspan><tspan class="cls-143" x="99.02" y="0">o</tspan><tspan class="cls-139" x="109.26" y="0">f </tspan><tspan class="cls-164" x="120.41" y="0">c</tspan><tspan class="cls-158" x="129.88" y="0">u</tspan><tspan class="cls-24" x="140.25" y="0">s</tspan><tspan class="cls-165" x="149.34" y="0">t</tspan><tspan class="cls-140" x="155.51" y="0">om</tspan><tspan class="cls-141" x="181.01" y="0">e</tspan><tspan class="cls-166" x="190.84" y="0">r</tspan><tspan class="cls-167" x="197.83" y="0">s </tspan></text><text class="cls-168" transform="translate(553.76 129.47)">s<tspan class="cls-165" x="9.09" y="0">t</tspan><tspan class="cls-143" x="15.27" y="0">o</tspan><tspan class="cls-169" x="25.5" y="0">r</tspan><tspan class="cls-151" x="32.32" y="0">i</tspan><tspan class="cls-170" x="37.11" y="0">n</tspan><tspan class="cls-131" x="47.58" y="0">g </tspan><tspan class="cls-133" x="63.56" y="0">f</tspan><tspan class="cls-159" x="69.36" y="0">u</tspan><tspan class="cls-171" x="79.63" y="0">r</tspan><tspan class="cls-148" x="86.46" y="0">n</tspan><tspan class="cls-132" x="96.86" y="0">i</tspan><tspan class="cls-169" x="101.81" y="0">t</tspan><tspan class="cls-159" x="108.07" y="0">ur</tspan><tspan class="cls-172" x="125.12" y="0">e</tspan><tspan class="cls-173" x="135.08" y="0">. </tspan></text></g></svg>