<svg id="millennials" xmlns="http://www.w3.org/2000/svg" xmlns:xlink="http://www.w3.org/1999/xlink" viewBox="0 0 767.53 733.94"><defs><style>.cls-1,.cls-2{fill:none;}.cls-2{stroke:#fff;stroke-dasharray:11.96 11.96;}.cls-3{fill:#fff;}.cls-4{clip-path:url(#clip-path);}.cls-5{clip-path:url(#clip-path-2);}.cls-6{fill:#055ef1;}.cls-17,.cls-20,.cls-21,.cls-23,.cls-34,.cls-35,.cls-37,.cls-41,.cls-42,.cls-44,.cls-48,.cls-49,.cls-51,.cls-57,.cls-58,.cls-60,.cls-66,.cls-7,.cls-71,.cls-73,.cls-75,.cls-78,.cls-85,.cls-87,.cls-88,.cls-90{font-size:16px;font-family:AcuminPro-Bold, Acumin Pro;font-weight:700;}.cls-16,.cls-7{fill:#ffd600;}.cls-23,.cls-44,.cls-51,.cls-8{letter-spacing:0.06em;}.cls-21,.cls-35,.cls-42,.cls-75,.cls-85,.cls-9{letter-spacing:0.06em;}.cls-10{letter-spacing:0.06em;}.cls-11{letter-spacing:0.06em;}.cls-12{letter-spacing:0.07em;}.cls-13{letter-spacing:0.03em;}.cls-14{letter-spacing:0.07em;}.cls-15,.cls-49,.cls-58{letter-spacing:0.06em;}.cls-17,.cls-20,.cls-21,.cls-22{fill:#ffb04e;}.cls-17,.cls-64{letter-spacing:0.06em;}.cls-18{letter-spacing:0.06em;}.cls-19{letter-spacing:0em;}.cls-23,.cls-34,.cls-35,.cls-36{fill:#f98675;}.cls-24{letter-spacing:0.07em;}.cls-25{letter-spacing:0.05em;}.cls-26{letter-spacing:0.07em;}.cls-27{letter-spacing:0.09em;}.cls-28{letter-spacing:0em;}.cls-29{letter-spacing:0.06em;}.cls-30{letter-spacing:0.06em;}.cls-31{letter-spacing:0.07em;}.cls-32{letter-spacing:0.07em;}.cls-33{letter-spacing:0em;}.cls-37,.cls-41,.cls-42,.cls-43{fill:#e95f93;}.cls-37{letter-spacing:0.05em;}.cls-38{letter-spacing:0.07em;}.cls-39{letter-spacing:0.07em;}.cls-40,.cls-66{letter-spacing:0.06em;}.cls-44,.cls-48,.cls-49,.cls-50{fill:#cc34b4;}.cls-45{letter-spacing:0.05em;}.cls-46{letter-spacing:0.05em;}.cls-47{letter-spacing:0.06em;}.cls-51,.cls-57,.cls-58,.cls-59{fill:#e84524;}.cls-52{letter-spacing:0.03em;}.cls-53{letter-spacing:0em;}.cls-54{letter-spacing:0.08em;}.cls-55{letter-spacing:0.05em;}.cls-56{letter-spacing:0.06em;}.cls-60,.cls-65{fill:#eb6d20;}.cls-61{letter-spacing:0.03em;}.cls-62{letter-spacing:0.04em;}.cls-63{letter-spacing:0.09em;}.cls-66,.cls-71,.cls-72{fill:#12e17e;}.cls-67{letter-spacing:0.06em;}.cls-68{letter-spacing:0.06em;}.cls-69{letter-spacing:0.06em;}.cls-70{letter-spacing:0.04em;}.cls-73,.cls-75,.cls-77{fill:#29cef4;}.cls-74{letter-spacing:0.08em;}.cls-76{letter-spacing:0em;}.cls-78,.cls-85,.cls-86{fill:#a9a9a9;}.cls-79{letter-spacing:0.06em;}.cls-80{letter-spacing:0.07em;}.cls-81{letter-spacing:0.06em;}.cls-82{letter-spacing:0.05em;}.cls-83{letter-spacing:0.03em;}.cls-84{letter-spacing:0.05em;}.cls-87,.cls-88,.cls-89{fill:#9c02d6;}.cls-88{letter-spacing:-0.19em;}.cls-90,.cls-92{fill:#0664ff;}.cls-91{letter-spacing:0.08em;}.cls-93{fill:#0563fb;}.cls-94{fill:#0561f6;}.cls-95{fill:#9303cb;}.cls-96{fill:#9803d0;}.cls-97{fill:#9b03d3;}.cls-98{fill:#a7a7a7;}.cls-99{fill:#a2a2a2;}.cls-100{fill:#a5a5a5;}.cls-101{fill:#29cbf1;}.cls-102{fill:#26c3e7;}.cls-103{fill:#29c8ec;}.cls-104{fill:#12dd7d;}.cls-105{fill:#12d578;}.cls-106{fill:#12da7a;}.cls-107{fill:#e76b21;}.cls-108{fill:#df691f;}.cls-109{fill:#e46b1f;}.cls-110{fill:#e44524;}.cls-111{fill:#dd4221;}.cls-112{fill:#e24224;}.cls-113{fill:#c833b1;}.cls-114{fill:#c130aa;}.cls-115{fill:#c633af;}.cls-116{fill:#e75e90;}.cls-117{fill:#dd598b;}.cls-118{fill:#e25c8e;}.cls-119{fill:#f68473;}.cls-120{fill:#ec8070;}.cls-121{fill:#f18173;}.cls-122{fill:#fbaf4d;}.cls-123{fill:#f1a74a;}.cls-124{fill:#f6aa4d;}.cls-125{fill:#fbd300;}.cls-126{fill:#f1cb00;}.cls-127{fill:#f6d000;}.cls-128{font-size:17px;fill:#231f20;font-family:AcuminPro-Regular, Acumin Pro;}.cls-129{letter-spacing:0.05em;}.cls-130{letter-spacing:0.05em;}.cls-131{letter-spacing:0.05em;}.cls-132{letter-spacing:0.05em;}.cls-133{letter-spacing:0.05em;}.cls-134{letter-spacing:0.04em;}.cls-135{letter-spacing:0.05em;}.cls-136{letter-spacing:0.06em;}.cls-137{letter-spacing:0.06em;}.cls-138{letter-spacing:0.04em;}.cls-139{letter-spacing:0.05em;}.cls-140{letter-spacing:0.05em;}.cls-141{letter-spacing:0.05em;}.cls-142{letter-spacing:0.05em;}.cls-143{letter-spacing:0.06em;}.cls-144{letter-spacing:0.06em;}.cls-145{letter-spacing:0.05em;}.cls-146{letter-spacing:0.06em;}.cls-147{letter-spacing:0.04em;}.cls-148{letter-spacing:0.04em;}.cls-149{letter-spacing:0.06em;}.cls-150{letter-spacing:0.05em;}.cls-151{letter-spacing:0.05em;}.cls-152{letter-spacing:0.05em;}.cls-153{letter-spacing:0.07em;}</style><clipPath id="clip-path" transform="translate(-9 8.94)"><path class="cls-1" d="M258.23,399l91.64,49.85a1.16,1.16,0,0,1-.68-1L257.55,398a1.17,1.17,0,0,0,.68,1"/></clipPath><clipPath id="clip-path-2" transform="translate(-9 8.94)"><rect class="cls-1" x="257.78" y="181.05" width="168" height="166"/></clipPath></defs><title>storage_contents_millennials</title><line class="cls-2" x1="248.11" y1="205.44" x2="426.01" y2="182.02"/><path class="cls-3" d="M328.5,166.51l-4.52.6c0,.8,0,1.73,0,2.2a3,3,0,0,1,1.92-.83,3.4,3.4,0,0,1,3.91,3.2,3.81,3.81,0,0,1-3.6,4.57,3.7,3.7,0,0,1-4.4-2.62l2.27-.3a1.7,1.7,0,0,0,1.92,1.1c1.27-.17,1.67-1,1.51-2.27-.13-1-.67-2-2-1.82a1.63,1.63,0,0,0-1.58,1.39l-2.14,0c.11-1.34.11-4.68.06-6.19l6.71-.88Zm3,1.86a21.75,21.75,0,0,0,.12-4.81l2.4-.32a13.55,13.55,0,0,1-.7,4.89ZM349,173l-2.84-3.55h0l-1.89,4.17-2.55.34,2.91-6-4.24-5,2.75-.36L345.8,166h0l1.81-3.92,2.51-.33-2.84,5.67,4.45,5.24Zm15.32-11.25-4.52.6c0,.8,0,1.73,0,2.2a3,3,0,0,1,1.92-.83,3.4,3.4,0,0,1,3.91,3.2,3.81,3.81,0,0,1-3.6,4.57,3.7,3.7,0,0,1-4.4-2.62l2.27-.3a1.7,1.7,0,0,0,1.92,1.1c1.27-.17,1.67-1,1.51-2.27-.13-1-.67-2-2-1.82a1.63,1.63,0,0,0-1.58,1.39l-2.14,0c.11-1.34.11-4.68.06-6.19l6.71-.88Zm3,1.86a21.75,21.75,0,0,0,.12-4.81l2.4-.32a13.55,13.55,0,0,1-.7,4.89Z" transform="translate(-9 8.94)"/><g class="cls-4"><g class="cls-5"><path class="cls-6" d="M315,347.72l-57-31a.73.73,0,0,1-.42-.64l57,31a.73.73,0,0,0,.42.63" transform="translate(-9 8.94)"/></g></g><text class="cls-7" transform="translate(0 609.68)"><tspan class="cls-8">H</tspan><tspan class="cls-9" x="12.78" y="0">O</tspan><tspan class="cls-10" x="25.98" y="0">U</tspan><tspan class="cls-11" x="38.56" y="0">S</tspan><tspan class="cls-12" x="49.73" y="0">E</tspan><tspan class="cls-13" x="60.8" y="0">W</tspan><tspan class="cls-9" x="76.46" y="0">A</tspan><tspan class="cls-14" x="88.43" y="0">R</tspan><tspan x="100.14" y="0">E</tspan></text><text class="cls-7" transform="translate(111.02 609.68)"> </text><text class="cls-7" transform="translate(114.45 609.68)"><tspan class="cls-15">.........................................</tspan><tspan x="204.01" y="0">.</tspan></text><path class="cls-16" d="M333.45,600.74v-.14c0-1.82.53-3.39,3.41-5.44,1.49-1.06,1.87-1.33,1.87-2.27a1.31,1.31,0,0,0-1.38-1.49c-1,0-1.42.59-1.58,1.58h-2.35a3.61,3.61,0,0,1,3.94-3.43c2.85,0,3.78,1.76,3.78,3.28,0,1.7-.67,2.42-2.74,3.79-1.41.93-2,1.62-2.21,2.21h5.38l-.3,1.9Zm15,0v-2.61h-5v-2l4.63-6.45h2.59v6.61H352l-.22,1.81h-1.1v2.61Zm0-6.47c0-1.22,0-1.89,0-2.56-.43.93-2.18,3.25-3,4.61h3Z" transform="translate(-9 8.94)"/><text class="cls-7" transform="translate(344.43 609.68)">.</text><path class="cls-16" d="M367.44,595.16c0,2.83-1,5.78-4.24,5.78s-4.23-2.71-4.23-5.71c0-2.77,1.12-5.67,4.29-5.67S367.44,592.24,367.44,595.16Zm-6.08,0c0,2.21.4,3.86,1.86,3.86s1.82-1.71,1.82-3.89-.37-3.78-1.78-3.78S361.35,592.82,361.35,595.21Zm14-2.16a2.75,2.75,0,0,1-2.85,3c-1.7,0-2.83-1-2.83-3a2.77,2.77,0,0,1,2.85-3A2.7,2.7,0,0,1,375.4,593Zm-3.91,0c0,1,.38,1.6,1.09,1.6s1.09-.5,1.09-1.6-.45-1.58-1.1-1.58S371.49,592,371.49,593Zm1,7.7L379,590.2h1.68l-6.48,10.55Zm11-2.85a2.76,2.76,0,0,1-2.85,3.06c-1.71,0-2.83-1.06-2.83-3a2.76,2.76,0,0,1,2.85-3A2.69,2.69,0,0,1,383.5,597.89Zm-3.92,0c0,1,.38,1.62,1.09,1.62s1.1-.51,1.1-1.62-.45-1.57-1.1-1.57S379.58,596.84,379.58,597.89Z" transform="translate(-9 8.94)"/><text class="cls-17" transform="translate(0 633.68)">FU<tspan class="cls-14" x="23.06" y="0">R</tspan><tspan class="cls-9" x="34.77" y="0">N</tspan><tspan class="cls-18" x="47.81" y="0">I</tspan><tspan x="53.74" y="0">TU</tspan><tspan class="cls-14" x="76.8" y="0">R</tspan><tspan class="cls-19" x="88.51" y="0">E</tspan></text><text class="cls-20" transform="translate(99.39 633.68)"> </text><text class="cls-21" transform="translate(99.52 633.68)">............................................<tspan class="cls-19" x="218.94" y="0">.</tspan></text><path class="cls-22" d="M338.25,624.74v-8.26a7,7,0,0,1-2.06.38V615.2a5.54,5.54,0,0,0,2.8-1.49h1.66v11Zm5.29,0v-.14c0-1.82.53-3.39,3.41-5.44,1.49-1.06,1.87-1.33,1.87-2.27a1.31,1.31,0,0,0-1.38-1.49c-1,0-1.42.59-1.58,1.58H343.5a3.61,3.61,0,0,1,3.94-3.43c2.85,0,3.78,1.76,3.78,3.28,0,1.7-.67,2.42-2.74,3.79-1.41.93-2,1.62-2.21,2.21h5.38l-.3,1.9Z" transform="translate(-9 8.94)"/><text class="cls-20" transform="translate(344.5 633.68)">.</text><path class="cls-22" d="M361.66,622.1a1.43,1.43,0,0,0,1.52,1.06c1.5,0,1.84-1.58,1.9-3.2a2.93,2.93,0,0,1-2.34.88,3.32,3.32,0,0,1-3.57-3.52,3.72,3.72,0,0,1,4-3.76c3,0,4.23,2.14,4.23,5.15,0,2.85-.69,6.23-4.35,6.23-2.32,0-3.46-1.28-3.68-2.83Zm-.14-4.9a1.68,1.68,0,0,0,1.74,1.9c1.07,0,1.66-.53,1.66-1.82,0-.94-.27-2-1.68-2A1.69,1.69,0,0,0,361.51,617.2Zm13.89-.16a2.75,2.75,0,0,1-2.85,3c-1.7,0-2.83-1-2.83-3a2.77,2.77,0,0,1,2.85-3A2.7,2.7,0,0,1,375.41,617Zm-3.91,0c0,1,.38,1.6,1.09,1.6s1.09-.5,1.09-1.6-.45-1.58-1.1-1.58S371.5,616,371.5,617Zm1,7.7L379,614.2h1.68l-6.48,10.55Zm11-2.85a2.76,2.76,0,0,1-2.85,3.06c-1.71,0-2.83-1.06-2.83-3a2.76,2.76,0,0,1,2.85-3A2.69,2.69,0,0,1,383.51,621.89Zm-3.92,0c0,1,.38,1.62,1.09,1.62s1.1-.51,1.1-1.62-.45-1.57-1.1-1.57S379.58,620.84,379.58,621.89Z" transform="translate(-9 8.94)"/><text class="cls-23" transform="translate(0.02 657.68)">HO<tspan class="cls-24" x="25.97" y="0">B</tspan><tspan class="cls-25" x="37.82" y="0">B</tspan><tspan class="cls-15" x="49.41" y="0">Y </tspan><tspan class="cls-14" x="65.1" y="0">R</tspan><tspan class="cls-26" x="76.81" y="0">E</tspan><tspan class="cls-27" x="87.85" y="0">L</tspan><tspan class="cls-28" x="98.62" y="0">A</tspan><tspan x="109.57" y="0">T</tspan><tspan class="cls-26" x="119.92" y="0">E</tspan><tspan class="cls-9" x="130.96" y="0">D O</tspan><tspan class="cls-29" x="161.73" y="0">B</tspan><tspan class="cls-30" x="173.52" y="0">J</tspan><tspan class="cls-31" x="180.94" y="0">E</tspan><tspan class="cls-24" x="191.87" y="0">C</tspan><tspan class="cls-32" x="204.32" y="0">T</tspan><tspan class="cls-33" x="214.81" y="0">S</tspan></text><text class="cls-34" transform="translate(226.05 657.68)"> </text><text class="cls-35" transform="translate(228.9 657.68)">...................<tspan class="cls-19" x="94.54" y="0">.</tspan></text><path class="cls-36" d="M341.64,648.74v-8.26a7,7,0,0,1-2.06.38V639.2a5.54,5.54,0,0,0,2.8-1.49H344v11Zm7.15,0v-8.26a7,7,0,0,1-2.06.38V639.2a5.54,5.54,0,0,0,2.8-1.49h1.66v11Z" transform="translate(-9 8.94)"/><text class="cls-34" transform="translate(344.61 657.68)">.</text><path class="cls-36" d="M359.62,648.74v-.14c0-1.82.53-3.39,3.41-5.44,1.49-1.06,1.87-1.33,1.87-2.27a1.31,1.31,0,0,0-1.38-1.49c-1,0-1.42.59-1.58,1.58h-2.35a3.61,3.61,0,0,1,3.94-3.43c2.85,0,3.78,1.76,3.78,3.28,0,1.7-.67,2.42-2.74,3.79-1.41.93-2,1.62-2.21,2.21h5.38l-.3,1.9Zm15.78-7.7a2.75,2.75,0,0,1-2.85,3c-1.7,0-2.83-1-2.83-3a2.77,2.77,0,0,1,2.85-3A2.7,2.7,0,0,1,375.41,641Zm-3.91,0c0,1,.38,1.6,1.09,1.6s1.09-.5,1.09-1.6-.45-1.58-1.1-1.58S371.5,640,371.5,641Zm1,7.7L379,638.2h1.68l-6.48,10.55Zm11-2.85a2.76,2.76,0,0,1-2.85,3.06c-1.71,0-2.83-1.06-2.83-3a2.76,2.76,0,0,1,2.85-3A2.69,2.69,0,0,1,383.5,645.89Zm-3.92,0c0,1,.38,1.62,1.09,1.62s1.1-.51,1.1-1.62-.45-1.57-1.1-1.57S379.58,644.84,379.58,645.89Z" transform="translate(-9 8.94)"/><text class="cls-37" transform="translate(0.02 681.68)">P<tspan class="cls-26" x="11.17" y="0">E</tspan><tspan class="cls-38" x="22.21" y="0">R</tspan><tspan class="cls-18" x="33.94" y="0">S</tspan><tspan class="cls-8" x="45.02" y="0">O</tspan><tspan class="cls-9" x="58.21" y="0">NA</tspan><tspan class="cls-8" x="83.22" y="0">L</tspan><tspan class="cls-9" x="93.54" y="0"> </tspan><tspan class="cls-18" x="98.37" y="0">I</tspan><tspan class="cls-8" x="104.3" y="0">T</tspan><tspan class="cls-39" x="114.65" y="0">E</tspan><tspan class="cls-40" x="125.68" y="0">M</tspan><tspan class="cls-33" x="140.86" y="0">S</tspan></text><text class="cls-41" transform="translate(152.11 681.68)"> </text><text class="cls-42" transform="translate(154.27 681.68)">.................................<tspan class="cls-19" x="164.2" y="0">.</tspan></text><path class="cls-43" d="M338.67,672.74v-8.26a7,7,0,0,1-2.06.38V663.2a5.54,5.54,0,0,0,2.8-1.49h1.66v11Zm13.84-5.59c0,2.83-1,5.78-4.24,5.78s-4.23-2.71-4.23-5.71c0-2.77,1.12-5.67,4.29-5.67S352.5,664.24,352.5,667.16Zm-6.08,0c0,2.21.4,3.86,1.86,3.86s1.82-1.71,1.82-3.89-.37-3.78-1.78-3.78S346.42,664.82,346.42,667.21Z" transform="translate(-9 8.94)"/><text class="cls-41" transform="translate(345.04 681.68)">.</text><path class="cls-43" d="M364.62,672.74v-2.61h-5v-2l4.63-6.45h2.59v6.61h1.33l-.22,1.81h-1.1v2.61Zm0-6.47c0-1.22,0-1.89,0-2.56-.43.93-2.18,3.25-3,4.61h3ZM375.4,665a2.75,2.75,0,0,1-2.85,3c-1.7,0-2.83-1-2.83-3a2.77,2.77,0,0,1,2.85-3A2.7,2.7,0,0,1,375.4,665Zm-3.91,0c0,1,.38,1.6,1.09,1.6s1.09-.5,1.09-1.6-.45-1.58-1.1-1.58S371.5,664,371.5,665Zm1,7.7L379,662.2h1.68l-6.48,10.55Zm11-2.85a2.76,2.76,0,0,1-2.85,3.06c-1.71,0-2.83-1.06-2.83-3a2.76,2.76,0,0,1,2.85-3A2.69,2.69,0,0,1,383.5,669.89Zm-3.92,0c0,1,.38,1.62,1.09,1.62s1.1-.51,1.1-1.62-.45-1.57-1.1-1.57S379.58,668.84,379.58,669.89Z" transform="translate(-9 8.94)"/><text class="cls-44" transform="translate(0.02 705.68)">C<tspan class="cls-45" x="12.34" y="0">L</tspan><tspan class="cls-46" x="22.53" y="0">O</tspan><tspan class="cls-47" x="35.57" y="0">TH</tspan><tspan x="58.74" y="0">I</tspan><tspan class="cls-30" x="64.69" y="0">N</tspan><tspan class="cls-19" x="77.74" y="0">G</tspan></text><text class="cls-48" transform="translate(90.75 705.68)"> </text><text class="cls-49" transform="translate(94.54 705.68)">...............................................<tspan class="cls-19" x="233.87" y="0">.</tspan></text><path class="cls-50" d="M346.47,694.1a1.43,1.43,0,0,0,1.52,1.06c1.5,0,1.84-1.58,1.9-3.2a2.93,2.93,0,0,1-2.34.88,3.32,3.32,0,0,1-3.57-3.52,3.72,3.72,0,0,1,4-3.76c3,0,4.23,2.14,4.23,5.15,0,2.85-.69,6.23-4.35,6.23-2.32,0-3.46-1.28-3.68-2.83Zm-.14-4.9a1.68,1.68,0,0,0,1.74,1.9c1.07,0,1.66-.53,1.66-1.82,0-.94-.27-2-1.68-2A1.69,1.69,0,0,0,346.33,689.2Z" transform="translate(-9 8.94)"/><text class="cls-48" transform="translate(344.77 705.68)">.</text><path class="cls-50" d="M359.66,688.66a3.53,3.53,0,0,1,3.84-3.11c2.51,0,3.71,1.38,3.71,2.93a2.24,2.24,0,0,1-1.39,2.22v0a2.62,2.62,0,0,1,1.78,2.66c0,1.73-1.09,3.57-4.15,3.54-2.59,0-3.91-1.62-4-3.27h2.27a1.72,1.72,0,0,0,1.84,1.46,1.55,1.55,0,0,0,1.73-1.68c0-1-.42-1.74-1.94-1.74h-.8v-1.76h.75c1.1,0,1.63-.32,1.63-1.25a1.27,1.27,0,0,0-1.44-1.34,1.47,1.47,0,0,0-1.6,1.31Zm15.74.38a2.75,2.75,0,0,1-2.85,3c-1.7,0-2.83-1-2.83-3a2.77,2.77,0,0,1,2.85-3A2.7,2.7,0,0,1,375.4,689Zm-3.91,0c0,1,.38,1.6,1.09,1.6s1.09-.5,1.09-1.6-.45-1.58-1.1-1.58S371.49,688,371.49,689Zm1,7.7L379,686.2h1.68l-6.48,10.55Zm11-2.85a2.76,2.76,0,0,1-2.85,3.06c-1.71,0-2.83-1.06-2.83-3a2.76,2.76,0,0,1,2.85-3A2.69,2.69,0,0,1,383.5,693.89Zm-3.92,0c0,1,.38,1.62,1.09,1.62s1.1-.51,1.1-1.62-.45-1.57-1.1-1.57S379.57,692.84,379.57,693.89Z" transform="translate(-9 8.94)"/><text class="cls-51" transform="translate(0 729.68)">HOLI<tspan class="cls-52" x="42.24" y="0">D</tspan><tspan class="cls-53" x="54.53" y="0">A</tspan><tspan class="cls-9" x="65.55" y="0">Y </tspan><tspan class="cls-11" x="81.25" y="0">S</tspan><tspan class="cls-54" x="92.42" y="0">E</tspan><tspan class="cls-55" x="103.57" y="0">A</tspan><tspan class="cls-18" x="115.45" y="0">S</tspan><tspan class="cls-9" x="126.54" y="0">ONAL </tspan><tspan class="cls-56" x="179.92" y="0">I</tspan><tspan class="cls-47" x="185.85" y="0">T</tspan><tspan class="cls-39" x="196.22" y="0">E</tspan><tspan class="cls-40" x="207.25" y="0">M</tspan><tspan class="cls-33" x="222.43" y="0">S</tspan></text><text class="cls-57" transform="translate(233.69 729.68)"> </text><text class="cls-58" transform="translate(233.88 729.68)">...................<tspan class="cls-19" x="94.54" y="0">.</tspan></text><path class="cls-59" d="M349.82,712.37a1.34,1.34,0,0,0-1.49-1.07c-1.55,0-1.94,1.6-2,3.07a3,3,0,0,1,2.55-1.09,3.37,3.37,0,0,1,3.47,3.63,3.75,3.75,0,0,1-4.07,4c-3.14,0-4.26-2.27-4.26-5.55,0-2.43.82-5.83,4.37-5.83,2.48,0,3.47,1.46,3.67,2.82Zm.21,4.72c0-1.07-.45-2-1.76-2-1,0-1.74.56-1.74,1.87,0,1.06.51,2.11,1.74,2.11S350,718.33,350,717.09Z" transform="translate(-9 8.94)"/><text class="cls-57" transform="translate(345.02 729.68)">.</text><path class="cls-59" d="M364.6,720.74v-2.61h-5v-2l4.63-6.45h2.59v6.61h1.33l-.22,1.81h-1.1v2.61Zm0-6.47c0-1.22,0-1.89,0-2.56-.43.93-2.18,3.25-3,4.61h3ZM375.39,713a2.75,2.75,0,0,1-2.85,3c-1.7,0-2.83-1-2.83-3a2.77,2.77,0,0,1,2.85-3A2.7,2.7,0,0,1,375.39,713Zm-3.91,0c0,1,.38,1.6,1.09,1.6s1.09-.5,1.09-1.6-.45-1.58-1.1-1.58S371.48,712,371.48,713Zm1,7.7L379,710.2h1.68l-6.48,10.55Zm11-2.85a2.76,2.76,0,0,1-2.85,3.06c-1.71,0-2.83-1.06-2.83-3a2.76,2.76,0,0,1,2.85-3A2.69,2.69,0,0,1,383.49,717.89Zm-3.92,0c0,1,.38,1.62,1.09,1.62s1.1-.51,1.1-1.62-.45-1.57-1.1-1.57S379.56,716.84,379.56,717.89Z" transform="translate(-9 8.94)"/><text class="cls-60" transform="translate(392.99 609.68)"><tspan class="cls-10">B</tspan><tspan class="cls-18" x="11.78" y="0">O</tspan><tspan class="cls-8" x="24.94" y="0">O</tspan><tspan class="cls-45" x="38.13" y="0">K</tspan><tspan class="cls-61" x="49.76" y="0">S</tspan><tspan class="cls-9" x="60.42" y="0">/ M</tspan><tspan class="cls-62" x="88.8" y="0">A</tspan><tspan class="cls-24" x="100.38" y="0">G</tspan><tspan class="cls-63" x="113.45" y="0">A</tspan><tspan class="cls-64" x="125.84" y="0">Z</tspan><tspan class="cls-8" x="136.73" y="0">I</tspan><tspan class="cls-9" x="142.69" y="0">N</tspan><tspan class="cls-14" x="155.73" y="0">E</tspan><tspan x="166.73" y="0">S</tspan></text><text class="cls-60" transform="translate(570.96 609.68)"> </text><text class="cls-60" transform="translate(572.12 609.68)"><tspan class="cls-9">..............................</tspan><tspan x="149.28" y="0">.</tspan></text><path class="cls-65" d="M743.69,592.37a1.34,1.34,0,0,0-1.49-1.07c-1.55,0-1.94,1.6-2,3.07a3,3,0,0,1,2.55-1.09,3.37,3.37,0,0,1,3.47,3.63,3.75,3.75,0,0,1-4.07,4c-3.14,0-4.26-2.27-4.26-5.55,0-2.43.82-5.83,4.37-5.83,2.48,0,3.47,1.46,3.67,2.82Zm.21,4.72c0-1.07-.45-2-1.76-2-1,0-1.74.56-1.74,1.87,0,1.06.51,2.11,1.74,2.11S743.9,598.33,743.9,597.09Z" transform="translate(-9 8.94)"/><text class="cls-60" transform="translate(738.9 609.68)">.</text><path class="cls-65" d="M760.7,589.72v1.71a22.46,22.46,0,0,0-3.86,9.32h-2.58a20.88,20.88,0,0,1,4-9.14H753v-1.89Zm7.68,3.33a2.75,2.75,0,0,1-2.85,3c-1.7,0-2.83-1-2.83-3a2.77,2.77,0,0,1,2.85-3A2.7,2.7,0,0,1,768.38,593Zm-3.91,0c0,1,.38,1.6,1.09,1.6s1.09-.5,1.09-1.6-.45-1.58-1.1-1.58S764.48,592,764.48,593Zm1,7.7L772,590.2h1.68l-6.48,10.55Zm11-2.85a2.76,2.76,0,0,1-2.85,3.06c-1.71,0-2.83-1.06-2.83-3a2.76,2.76,0,0,1,2.85-3A2.69,2.69,0,0,1,776.48,597.89Zm-3.92,0c0,1,.38,1.62,1.09,1.62s1.1-.51,1.1-1.62-.45-1.57-1.1-1.57S772.56,596.84,772.56,597.89Z" transform="translate(-9 8.94)"/><text class="cls-66" transform="translate(392.99 633.68)">S<tspan class="cls-67" x="11.17" y="0">P</tspan><tspan class="cls-8" x="22.53" y="0">O</tspan><tspan class="cls-12" x="35.71" y="0">R</tspan><tspan class="cls-8" x="47.49" y="0">TI</tspan><tspan class="cls-30" x="63.79" y="0">N</tspan><tspan class="cls-15" x="76.85" y="0">G </tspan><tspan class="cls-68" x="94.65" y="0">E</tspan><tspan class="cls-8" x="105.54" y="0">Q</tspan><tspan class="cls-69" x="118.73" y="0">U</tspan><tspan class="cls-18" x="131.36" y="0">I</tspan><tspan class="cls-70" x="137.29" y="0">P</tspan><tspan class="cls-10" x="148.46" y="0">M</tspan><tspan class="cls-39" x="163.61" y="0">E</tspan><tspan class="cls-9" x="174.64" y="0">N</tspan><tspan class="cls-33" x="187.68" y="0">T</tspan></text><text class="cls-71" transform="translate(591.16 633.68)"> </text><text class="cls-71" transform="translate(592.02 633.68)"><tspan class="cls-15">..........................</tspan><tspan x="129.37" y="0">.</tspan></text><path class="cls-72" d="M744.28,615.59h-4.56c-.08.8-.21,1.71-.29,2.18a3,3,0,0,1,2-.58,3.4,3.4,0,0,1,3.46,3.68,3.81,3.81,0,0,1-4.16,4.07,3.7,3.7,0,0,1-4-3.17H739a1.7,1.7,0,0,0,1.76,1.34c1.28,0,1.79-.82,1.79-2,0-1-.4-2.06-1.78-2.06a1.63,1.63,0,0,0-1.74,1.17l-2.11-.32c.29-1.31.72-4.63.86-6.13h6.77Z" transform="translate(-9 8.94)"/><text class="cls-71" transform="translate(737.6 633.68)">.</text><path class="cls-72" d="M752.62,624.74v-.14c0-1.82.53-3.39,3.41-5.44,1.49-1.06,1.87-1.33,1.87-2.27a1.31,1.31,0,0,0-1.38-1.49c-1,0-1.42.59-1.58,1.58h-2.35a3.61,3.61,0,0,1,3.94-3.43c2.85,0,3.78,1.76,3.78,3.28,0,1.7-.67,2.42-2.74,3.79-1.41.93-2,1.62-2.21,2.21h5.38l-.3,1.9Zm15.78-7.7a2.75,2.75,0,0,1-2.85,3c-1.7,0-2.83-1-2.83-3a2.77,2.77,0,0,1,2.85-3A2.7,2.7,0,0,1,768.39,617Zm-3.91,0c0,1,.38,1.6,1.09,1.6s1.09-.5,1.09-1.6-.45-1.58-1.1-1.58S764.49,616,764.49,617Zm1,7.7L772,614.2h1.68l-6.48,10.55Zm11-2.85a2.76,2.76,0,0,1-2.85,3.06c-1.71,0-2.83-1.06-2.83-3a2.76,2.76,0,0,1,2.85-3A2.69,2.69,0,0,1,776.49,621.89Zm-3.92,0c0,1,.38,1.62,1.09,1.62s1.1-.51,1.1-1.62-.45-1.57-1.1-1.57S772.57,620.84,772.57,621.89Z" transform="translate(-9 8.94)"/><text class="cls-73" transform="translate(393.01 657.68)"><tspan class="cls-26">E</tspan><tspan class="cls-8" x="11.04" y="0">L</tspan><tspan class="cls-31" x="21.36" y="0">E</tspan><tspan class="cls-24" x="32.29" y="0">C</tspan><tspan class="cls-8" x="44.74" y="0">T</tspan><tspan class="cls-64" x="55.09" y="0">R</tspan><tspan class="cls-8" x="66.7" y="0">O</tspan><tspan class="cls-47" x="79.89" y="0">N</tspan><tspan class="cls-8" x="92.93" y="0">I</tspan><tspan class="cls-15" x="98.88" y="0">C </tspan><tspan class="cls-8" x="116.06" y="0">D</tspan><tspan class="cls-74" x="128.78" y="0">E</tspan><tspan class="cls-31" x="139.98" y="0">V</tspan><tspan class="cls-8" x="151.74" y="0">IC</tspan><tspan class="cls-14" x="170.03" y="0">E</tspan><tspan x="181.04" y="0">S</tspan></text><text class="cls-73" transform="translate(585.28 657.68)"> </text><text class="cls-75" transform="translate(587.05 657.68)">...........................<tspan class="cls-76" x="134.35" y="0">.</tspan></text><path class="cls-77" d="M742.07,648.74v-2.61h-5v-2l4.63-6.45h2.59v6.61h1.33l-.22,1.81h-1.1v2.61Zm0-6.47c0-1.22,0-1.89,0-2.56-.43.93-2.18,3.25-3,4.61h3Z" transform="translate(-9 8.94)"/><text class="cls-73" transform="translate(738.03 657.68)">.</text><path class="cls-77" d="M757.61,648.74v-2.61h-5v-2l4.63-6.45h2.59v6.61h1.33l-.22,1.81h-1.1v2.61Zm0-6.47c0-1.22,0-1.89,0-2.56-.43.93-2.18,3.25-3,4.61h3ZM768.39,641a2.75,2.75,0,0,1-2.85,3c-1.7,0-2.83-1-2.83-3a2.77,2.77,0,0,1,2.85-3A2.7,2.7,0,0,1,768.39,641Zm-3.91,0c0,1,.38,1.6,1.09,1.6s1.09-.5,1.09-1.6-.45-1.58-1.1-1.58S764.49,640,764.49,641Zm1,7.7L772,638.2h1.68l-6.48,10.55Zm11-2.85a2.76,2.76,0,0,1-2.85,3.06c-1.71,0-2.83-1.06-2.83-3a2.76,2.76,0,0,1,2.85-3A2.69,2.69,0,0,1,776.49,645.89Zm-3.92,0c0,1,.38,1.62,1.09,1.62s1.1-.51,1.1-1.62-.45-1.57-1.1-1.57S772.57,644.84,772.57,645.89Z" transform="translate(-9 8.94)"/><text class="cls-78" transform="translate(393.01 681.68)"><tspan class="cls-79">C</tspan><tspan class="cls-9" x="12.34" y="0">H</tspan><tspan class="cls-8" x="25.14" y="0">ILD</tspan><tspan class="cls-14" x="54.13" y="0">R</tspan><tspan class="cls-80" x="65.84" y="0">EN</tspan><tspan class="cls-81" x="90.11" y="0">’</tspan><tspan class="cls-8" x="95.52" y="0">S</tspan><tspan class="cls-9" x="106.62" y="0"> </tspan><tspan class="cls-82" x="111.45" y="0">T</tspan><tspan class="cls-83" x="121.63" y="0">O</tspan><tspan class="cls-84" x="134.32" y="0">Y</tspan><tspan x="145.01" y="0">S</tspan></text><text class="cls-78" transform="translate(549.21 681.68)"> </text><text class="cls-85" transform="translate(552.24 681.68)">..................................<tspan class="cls-76" x="169.18" y="0">.</tspan></text><path class="cls-86" d="M736.79,664.66a3.53,3.53,0,0,1,3.84-3.11c2.51,0,3.71,1.38,3.71,2.93a2.24,2.24,0,0,1-1.39,2.22v0a2.62,2.62,0,0,1,1.78,2.66c0,1.73-1.09,3.57-4.15,3.54-2.59,0-3.91-1.62-4-3.27h2.27a1.72,1.72,0,0,0,1.84,1.46,1.55,1.55,0,0,0,1.73-1.68c0-1-.42-1.74-1.94-1.74h-.8v-1.76h.75c1.1,0,1.63-.32,1.63-1.25a1.27,1.27,0,0,0-1.44-1.34,1.47,1.47,0,0,0-1.6,1.31Z" transform="translate(-9 8.94)"/><text class="cls-78" transform="translate(737.5 681.68)">.</text><path class="cls-86" d="M754.67,670.1a1.43,1.43,0,0,0,1.52,1.06c1.5,0,1.84-1.58,1.9-3.2a2.93,2.93,0,0,1-2.34.88,3.32,3.32,0,0,1-3.57-3.52,3.72,3.72,0,0,1,4-3.76c3,0,4.23,2.14,4.23,5.15,0,2.85-.69,6.23-4.35,6.23-2.32,0-3.46-1.28-3.68-2.83Zm-.14-4.9a1.68,1.68,0,0,0,1.74,1.9c1.07,0,1.66-.53,1.66-1.82,0-.94-.27-2-1.68-2A1.69,1.69,0,0,0,754.52,665.2Zm13.89-.16a2.75,2.75,0,0,1-2.85,3c-1.7,0-2.83-1-2.83-3a2.77,2.77,0,0,1,2.85-3A2.7,2.7,0,0,1,768.41,665Zm-3.91,0c0,1,.38,1.6,1.09,1.6s1.09-.5,1.09-1.6-.45-1.58-1.1-1.58S764.5,664,764.5,665Zm1,7.7L772,662.2h1.68l-6.48,10.55Zm11-2.85a2.76,2.76,0,0,1-2.85,3.06c-1.71,0-2.83-1.06-2.83-3a2.76,2.76,0,0,1,2.85-3A2.69,2.69,0,0,1,776.51,669.89Zm-3.92,0c0,1,.38,1.62,1.09,1.62s1.1-.51,1.1-1.62-.45-1.57-1.1-1.57S772.59,668.84,772.59,669.89Z" transform="translate(-9 8.94)"/><text class="cls-87" transform="translate(393.02 705.68)"><tspan class="cls-84">O</tspan><tspan class="cls-9" x="13.02" y="0">TH</tspan><tspan class="cls-26" x="36.19" y="0">E</tspan><tspan x="47.23" y="0">R</tspan></text><text class="cls-88" transform="translate(451.84 705.68)"> <tspan class="cls-15" x="0.91" y="0">......................................................</tspan><tspan class="cls-76" x="269.61" y="0">.</tspan></text><path class="cls-89" d="M736.44,696.74v-.14c0-1.82.53-3.39,3.41-5.44,1.49-1.06,1.87-1.33,1.87-2.27a1.31,1.31,0,0,0-1.38-1.49c-1,0-1.42.59-1.58,1.58h-2.35a3.61,3.61,0,0,1,3.94-3.43c2.85,0,3.78,1.76,3.78,3.28,0,1.7-.67,2.42-2.74,3.79-1.41.93-2,1.62-2.21,2.21h5.38l-.3,1.9Z" transform="translate(-9 8.94)"/><text class="cls-87" transform="translate(737.41 705.68)">.</text><path class="cls-89" d="M752.2,693.54a2.81,2.81,0,0,1,1.76-2.63,2.46,2.46,0,0,1-1.3-2.29c0-1.73,1.38-3.07,3.83-3.07,2.27,0,3.75,1.26,3.75,3a2.35,2.35,0,0,1-1.33,2.24,2.74,2.74,0,0,1,1.74,2.63c0,2.38-1.82,3.49-4.34,3.49C754.06,696.94,752.2,695.78,752.2,693.54Zm6.11-.06c0-1.07-.7-1.63-1.89-1.63s-1.87.64-1.87,1.57a1.67,1.67,0,0,0,1.9,1.71C757.59,695.13,758.31,694.55,758.31,693.48Zm-3.46-4.77c0,.75.54,1.3,1.6,1.3s1.57-.48,1.57-1.26-.58-1.41-1.58-1.41S754.86,687.83,754.86,688.71Zm13.57.34a2.75,2.75,0,0,1-2.85,3c-1.7,0-2.83-1-2.83-3a2.77,2.77,0,0,1,2.85-3A2.7,2.7,0,0,1,768.43,689Zm-3.91,0c0,1,.38,1.6,1.09,1.6s1.09-.5,1.09-1.6-.45-1.58-1.1-1.58S764.52,688,764.52,689Zm1,7.7L772,686.2h1.68l-6.48,10.55Zm11-2.85a2.76,2.76,0,0,1-2.85,3.06c-1.71,0-2.83-1.06-2.83-3a2.76,2.76,0,0,1,2.85-3A2.69,2.69,0,0,1,776.53,693.89Zm-3.92,0c0,1,.38,1.62,1.09,1.62s1.1-.51,1.1-1.62-.45-1.57-1.1-1.57S772.6,692.84,772.6,693.89Z" transform="translate(-9 8.94)"/><text class="cls-90" transform="translate(393.04 729.68)"><tspan class="cls-9">M</tspan><tspan class="cls-91" x="15.14" y="0">A</tspan><tspan class="cls-8" x="27.5" y="0">JO</tspan><tspan class="cls-9" x="48.08" y="0">R A</tspan><tspan class="cls-70" x="76.43" y="0">PP</tspan><tspan class="cls-8" x="98.77" y="0">L</tspan><tspan class="cls-56" x="109.09" y="0">I</tspan><tspan class="cls-9" x="115.02" y="0">A</tspan><tspan class="cls-30" x="126.99" y="0">N</tspan><tspan class="cls-79" x="140.05" y="0">C</tspan><tspan class="cls-14" x="152.38" y="0">E</tspan><tspan x="163.39" y="0">S</tspan></text><text class="cls-90" transform="translate(567.62 729.68)"> </text><text class="cls-90" transform="translate(572.18 729.68)"><tspan class="cls-15">..............................</tspan><tspan x="149.28" y="0">.</tspan></text><path class="cls-92" d="M738,720.74v-.14c0-1.82.53-3.39,3.41-5.44,1.49-1.06,1.87-1.33,1.87-2.27a1.31,1.31,0,0,0-1.38-1.49c-1,0-1.42.59-1.58,1.58h-2.35a3.61,3.61,0,0,1,3.94-3.43c2.85,0,3.78,1.76,3.78,3.28,0,1.7-.67,2.42-2.74,3.79-1.41.93-2,1.62-2.21,2.21h5.38l-.3,1.9Z" transform="translate(-9 8.94)"/><text class="cls-90" transform="translate(738.94 729.68)">.</text><path class="cls-92" d="M760.75,709.72v1.71a22.46,22.46,0,0,0-3.86,9.32h-2.58a20.88,20.88,0,0,1,4-9.14h-5.22v-1.89Zm7.68,3.33a2.75,2.75,0,0,1-2.85,3c-1.7,0-2.83-1-2.83-3a2.77,2.77,0,0,1,2.85-3A2.7,2.7,0,0,1,768.43,713Zm-3.91,0c0,1,.38,1.6,1.09,1.6s1.09-.5,1.09-1.6-.45-1.58-1.1-1.58S764.53,712,764.53,713Zm1,7.7L772,710.2h1.68l-6.48,10.55Zm11-2.85a2.76,2.76,0,0,1-2.85,3.06c-1.71,0-2.83-1.06-2.83-3a2.76,2.76,0,0,1,2.85-3A2.69,2.69,0,0,1,776.53,717.89Zm-3.92,0c0,1,.38,1.62,1.09,1.62s1.1-.51,1.1-1.62-.45-1.57-1.1-1.57S772.61,716.84,772.61,717.89Z" transform="translate(-9 8.94)"/><path class="cls-93" d="M351.65,449.12c-1.37.19-2.46-.38-2.46-1.27V443.8l178.9-25.14v4.06c0,.89-1.1,1.77-2.46,2" transform="translate(-9 8.94)"/><polygon class="cls-6" points="340.19 456.79 248.55 406.94 248.56 402.88 340.2 452.73 340.19 456.79"/><polygon class="cls-94" points="340.2 452.74 248.56 402.88 427.46 377.74 519.1 427.59 340.2 452.74"/><polygon class="cls-95" points="340.2 452.74 248.56 402.88 248.57 398.02 340.2 447.87 340.2 452.74"/><polygon class="cls-96" points="340.2 447.87 248.57 398.02 427.47 372.88 519.11 422.73 340.2 447.87"/><polygon class="cls-97" points="519.11 422.73 519.1 427.59 340.2 452.74 340.2 447.87 519.11 422.73"/><polygon class="cls-98" points="519.12 415.43 519.11 422.73 340.2 447.87 340.22 440.57 519.12 415.43"/><polygon class="cls-99" points="340.2 447.87 248.57 398.02 248.58 390.72 340.22 440.57 340.2 447.87"/><polygon class="cls-100" points="340.22 440.57 248.58 390.72 427.49 365.58 519.12 415.43 340.22 440.57"/><polygon class="cls-101" points="519.14 406.5 519.12 415.43 340.22 440.57 340.24 431.64 519.14 406.5"/><polygon class="cls-102" points="340.22 440.57 248.58 390.72 248.6 381.79 340.24 431.64 340.22 440.57"/><polygon class="cls-103" points="340.24 431.64 248.6 381.79 427.5 356.65 519.14 406.5 340.24 431.64"/><polygon class="cls-104" points="519.16 396.75 519.14 406.5 340.24 431.64 340.25 421.9 519.16 396.75"/><polygon class="cls-105" points="340.24 431.64 248.6 381.79 248.62 372.05 340.25 421.9 340.24 431.64"/><polygon class="cls-106" points="340.25 421.9 248.62 372.05 427.52 346.9 519.16 396.75 340.25 421.9"/><polygon class="cls-107" points="519.18 383.78 519.16 396.75 340.25 421.9 340.28 408.92 519.18 383.78"/><polygon class="cls-108" points="340.25 421.9 248.62 372.05 248.64 359.07 340.28 408.92 340.25 421.9"/><polygon class="cls-109" points="340.28 408.92 248.64 359.07 427.54 333.93 519.18 383.78 340.28 408.92"/><polygon class="cls-110" points="519.2 371.6 519.18 383.78 340.28 408.92 340.3 396.74 519.2 371.6"/><polygon class="cls-111" points="340.28 408.92 248.64 359.07 248.66 346.89 340.3 396.74 340.28 408.92"/><polygon class="cls-112" points="340.3 396.74 248.66 346.89 427.57 321.75 519.2 371.6 340.3 396.74"/><polygon class="cls-113" points="519.24 352.94 519.2 371.6 340.3 396.74 340.33 378.08 519.24 352.94"/><polygon class="cls-114" points="340.3 396.74 248.66 346.89 248.7 328.24 340.33 378.08 340.3 396.74"/><polygon class="cls-115" points="340.33 378.08 248.7 328.24 427.6 303.09 519.24 352.94 340.33 378.08"/><polygon class="cls-116" points="519.27 333.48 519.24 352.94 340.33 378.08 340.37 358.62 519.27 333.48"/><polygon class="cls-117" points="340.33 378.08 248.7 328.24 248.73 308.77 340.37 358.62 340.33 378.08"/><polygon class="cls-118" points="340.37 358.62 248.73 308.77 427.64 283.63 519.27 333.48 340.37 358.62"/><polygon class="cls-119" points="519.32 311.56 519.27 333.48 340.37 358.62 340.41 336.71 519.32 311.56"/><polygon class="cls-120" points="340.37 358.62 248.73 308.77 248.78 286.86 340.41 336.71 340.37 358.62"/><polygon class="cls-121" points="340.41 336.71 248.77 286.86 427.68 261.71 519.32 311.56 340.41 336.71"/><polygon class="cls-122" points="519.36 286.41 519.32 311.56 340.41 336.71 340.46 311.56 519.36 286.41"/><polygon class="cls-123" points="340.41 336.71 248.77 286.86 248.82 261.7 340.46 311.56 340.41 336.71"/><polygon class="cls-124" points="340.46 311.56 248.82 261.7 427.73 236.56 519.36 286.41 340.46 311.56"/><polygon class="cls-125" points="519.45 240.17 519.36 286.41 340.46 311.56 340.54 265.31 519.45 240.17"/><polygon class="cls-126" points="340.46 311.56 248.82 261.7 248.91 215.46 340.54 265.31 340.46 311.56"/><polygon class="cls-127" points="340.54 265.31 248.91 215.46 427.81 190.32 519.45 240.17 340.54 265.31"/><text class="cls-128" transform="translate(627.95 14.42)"> </text><text class="cls-128" transform="translate(570.44 204.41)"> </text><text class="cls-128" transform="translate(633.49 56.41)"> </text><g id="mil_caption"><rect class="cls-3" x="480" y="158.61" width="192" height="99.5"/><polyline class="cls-3" points="570.67 210.11 495.67 210.11 495.67 285.11"/><text class="cls-128" transform="translate(492 183.42)"><tspan class="cls-129">M</tspan><tspan class="cls-130" x="15.61" y="0">il</tspan><tspan class="cls-131" x="25.19" y="0">l</tspan><tspan class="cls-132" x="30.12" y="0">e</tspan><tspan class="cls-133" x="39.93" y="0">n</tspan><tspan class="cls-134" x="50.34" y="0">n</tspan><tspan class="cls-129" x="60.72" y="0">i</tspan><tspan class="cls-130" x="65.6" y="0">a</tspan><tspan class="cls-135" x="75.36" y="0">l</tspan><tspan class="cls-136" x="80.26" y="0">s </tspan><tspan class="cls-137" x="94.64" y="0">s</tspan><tspan class="cls-138" x="103.73" y="0">t</tspan><tspan class="cls-139" x="109.9" y="0">o</tspan><tspan class="cls-140" x="120.14" y="0">r</tspan><tspan x="126.92" y="0">e</tspan></text><text class="cls-128" transform="translate(492 204.41)"><tspan class="cls-141">t</tspan><tspan class="cls-142" x="6.24" y="0">h</tspan><tspan class="cls-143" x="16.74" y="0">e</tspan><tspan class="cls-136" x="26.64" y="0"> </tspan><tspan class="cls-142" x="31.96" y="0">m</tspan><tspan class="cls-144" x="47.23" y="0">o</tspan><tspan class="cls-29" x="57.53" y="0">s</tspan><tspan x="66.62" y="0">t </tspan></text><text class="cls-128" transform="translate(492 225.41)"><tspan class="cls-145">h</tspan><tspan class="cls-135" x="10.47" y="0">o</tspan><tspan class="cls-131" x="20.69" y="0">u</tspan><tspan class="cls-146" x="31.06" y="0">s</tspan><tspan class="cls-147" x="40.07" y="0">e</tspan><tspan class="cls-148" x="49.67" y="0">w</tspan><tspan class="cls-130" x="63.34" y="0">a</tspan><tspan class="cls-140" x="73.1" y="0">r</tspan><tspan class="cls-143" x="79.88" y="0">e</tspan><tspan class="cls-136" x="89.78" y="0"> </tspan><tspan class="cls-139" x="95.1" y="0">o</tspan><tspan class="cls-149" x="105.33" y="0">f </tspan><tspan class="cls-130" x="116.48" y="0">al</tspan><tspan x="131.03" y="0">l </tspan></text><text class="cls-128" transform="translate(492 246.4)"><tspan class="cls-141">t</tspan><tspan class="cls-142" x="6.24" y="0">h</tspan><tspan class="cls-143" x="16.74" y="0">e</tspan><tspan class="cls-136" x="26.64" y="0"> </tspan><tspan class="cls-142" x="31.96" y="0">g</tspan><tspan class="cls-150" x="42.48" y="0">e</tspan><tspan class="cls-142" x="52.29" y="0">n</tspan><tspan class="cls-150" x="62.8" y="0">e</tspan><tspan class="cls-129" x="72.61" y="0">ra</tspan><tspan class="cls-141" x="89.28" y="0">t</tspan><tspan class="cls-151" x="95.52" y="0">i</tspan><tspan class="cls-139" x="100.45" y="0">o</tspan><tspan class="cls-152" x="110.69" y="0">n</tspan><tspan class="cls-153" x="121.14" y="0">s</tspan><tspan x="130.46" y="0">. </tspan></text></g></svg>