<svg id="greatest" xmlns="http://www.w3.org/2000/svg" xmlns:xlink="http://www.w3.org/1999/xlink" viewBox="0 0 798.69 725.76">
  <defs>
    <style>
      .cls-1 {
        fill: none;
      }

      .cls-2 {
        clip-path: url(#clip-path);
      }

      .cls-3 {
        fill: #055ef1;
      }

      .cls-4 {
        clip-path: url(#clip-path-2);
      }

      .cls-5 {
        fill: #055ef2;
      }

      .cls-6 {
        clip-path: url(#clip-path-3);
      }

      .cls-7 {
        fill: #0563fc;
      }

      .cls-8 {
        fill: #0561f7;
      }

      .cls-9 {
        fill: #9c03d4;
      }

      .cls-10 {
        fill: #9403cc;
      }

      .cls-11 {
        fill: #9903d1;
      }

      .cls-12 {
        fill: #a8a8a8;
      }

      .cls-13 {
        fill: #a3a3a3;
      }

      .cls-14 {
        fill: #a6a6a6;
      }

      .cls-15 {
        fill: #29ccf2;
      }

      .cls-16 {
        fill: #26c4e8;
      }

      .cls-17 {
        fill: #29c9ed;
      }

      .cls-18 {
        fill: #12de7d;
      }

      .cls-19 {
        fill: #12d678;
      }

      .cls-20 {
        fill: #12db7a;
      }

      .cls-21 {
        fill: #e86b21;
      }

      .cls-22 {
        fill: #e0691f;
      }

      .cls-23 {
        fill: #e56b1f;
      }

      .cls-24 {
        fill: #e54524;
      }

      .cls-25 {
        fill: #de4221;
      }

      .cls-26 {
        fill: #e34224;
      }

      .cls-27 {
        fill: #c933b2;
      }

      .cls-28 {
        fill: #c230ab;
      }

      .cls-29 {
        fill: #c733b0;
      }

      .cls-30 {
        fill: #e85e91;
      }

      .cls-31 {
        fill: #de598c;
      }

      .cls-32 {
        fill: #e35c8f;
      }

      .cls-33 {
        fill: #f78573;
      }

      .cls-34 {
        fill: #ed8070;
      }

      .cls-35 {
        fill: #f28273;
      }

      .cls-36 {
        fill: #fcb04d;
      }

      .cls-37 {
        fill: #f2a84a;
      }

      .cls-38 {
        fill: #f7ab4d;
      }

      .cls-39 {
        fill: #fcd400;
      }

      .cls-40 {
        fill: #f2cc00;
      }

      .cls-41 {
        fill: #f7d100;
      }

      .cls-42 {
        clip-path: url(#clip-path-4);
      }

      .cls-43 {
        fill: #ffd600;
      }

      .cls-44 {
        fill: #ffb04e;
      }

      .cls-45 {
        fill: #f98675;
      }

      .cls-46 {
        fill: #e95f93;
      }

      .cls-47 {
        fill: #cc34b4;
      }

      .cls-48 {
        fill: #e84524;
      }

      .cls-49 {
        fill: #eb6d20;
      }

      .cls-50 {
        fill: #12e17e;
      }

      .cls-51 {
        fill: #29cef4;
      }

      .cls-52 {
        fill: #a9a9a9;
      }

      .cls-53 {
        fill: #9c02d6;
      }

      .cls-54 {
        fill: #0664ff;
      }

      .cls-55 {
        fill: #fff;
      }

      .cls-56 {
        fill: #231f20;
      }
    </style>
    <clipPath id="clip-path">
      <path class="cls-1" d="M240.5,506.11l81.88,44.54a1.76,1.76,0,0,1-1-1.54l-80.87-44Z"/>
    </clipPath>
    <clipPath id="clip-path-2">
      <path class="cls-1" d="M226.39,521.5l84.68,46.07a1.79,1.79,0,0,1-1-1.57l-83.65-45.5Z"/>
    </clipPath>
    <clipPath id="clip-path-3">
      <rect class="cls-1" x="124" y="24.16" width="550" height="543.84"/>
    </clipPath>
    <clipPath id="clip-path-4">
      <rect class="cls-1" x="9" y="14.2" width="768" height="707.3"/>
    </clipPath>
  </defs>
  <title>storage_contents_greatest</title>
  <g>
    <g class="cls-2">
      <path class="cls-3" d="M355.15,550.82l-114-62a1.1,1.1,0,0,1-.64-1l114,62a1.1,1.1,0,0,0,.64,1"/>
    </g>
    <g class="cls-4">
      <path class="cls-5" d="M341,567.74l-114-62a1.1,1.1,0,0,1-.64-1l114,62a1.1,1.1,0,0,0,.64,1"/>
    </g>
    <g class="cls-6">
      <path class="cls-7" d="M673.28,512.47v2.47c0,1.37-1.65,2.7-3.69,3l-355.86,50c-2,.29-3.68-.58-3.68-2v-2.47Z"/>
    </g>
    <polygon class="cls-5" points="124 464.79 310.04 565.99 310.05 563.52 124 462.32 124 464.79"/>
    <polygon class="cls-8" points="124 462.32 310.05 563.52 673.28 512.47 487.24 411.27 124 462.32"/>
    <polygon class="cls-9" points="310.06 553.64 310.05 563.52 673.28 512.47 673.3 502.6 310.06 553.64"/>
    <polygon class="cls-10" points="124 462.32 310.05 563.52 310.06 553.64 124.02 452.44 124 462.32"/>
    <polygon class="cls-11" points="124.02 452.44 310.06 553.64 673.3 502.6 487.26 401.39 124.02 452.44"/>
    <polygon class="cls-12" points="310.08 547.05 310.06 553.64 673.3 502.6 673.31 496 310.08 547.05"/>
    <polygon class="cls-13" points="124.02 452.44 310.06 553.64 310.07 547.05 124.03 445.85 124.02 452.44"/>
    <polygon class="cls-14" points="124.03 445.85 310.08 547.05 673.31 496 487.27 394.8 124.03 445.85"/>
    <polygon class="cls-15" points="310.11 527.28 310.08 547.05 673.31 496 673.35 476.23 310.11 527.28"/>
    <polygon class="cls-16" points="124.03 445.85 310.08 547.05 310.11 527.28 124.07 426.07 124.03 445.85"/>
    <polygon class="cls-17" points="124.07 426.07 310.11 527.28 673.35 476.23 487.31 375.02 124.07 426.07"/>
    <polygon class="cls-18" points="310.16 504.22 310.11 527.28 673.35 476.23 673.39 453.17 310.16 504.22"/>
    <polygon class="cls-19" points="124.07 426.07 310.11 527.28 310.16 504.22 124.11 403.01 124.07 426.07"/>
    <polygon class="cls-20" points="124.11 403.01 310.16 504.22 673.39 453.17 487.35 351.96 124.11 403.01"/>
    <polygon class="cls-21" points="310.2 479.5 310.16 504.22 673.39 453.17 673.44 428.45 310.2 479.5"/>
    <polygon class="cls-22" points="124.11 403.01 310.16 504.22 310.2 479.5 124.16 378.3 124.11 403.01"/>
    <polygon class="cls-23" points="124.16 378.3 310.2 479.5 673.44 428.45 487.39 327.25 124.16 378.3"/>
    <polygon class="cls-24" points="310.27 439.97 310.2 479.5 673.44 428.45 673.51 388.92 310.27 439.97"/>
    <polygon class="cls-25" points="124.16 378.3 310.2 479.5 310.27 439.97 124.23 338.77 124.16 378.3"/>
    <polygon class="cls-26" points="124.23 338.77 310.27 439.97 673.51 388.92 487.47 287.72 124.23 338.77"/>
    <polygon class="cls-27" points="310.34 407.03 310.27 439.97 673.51 388.92 673.57 355.98 310.34 407.03"/>
    <polygon class="cls-28" points="124.23 338.77 310.27 439.97 310.34 407.03 124.3 305.83 124.23 338.77"/>
    <polygon class="cls-29" points="124.3 305.83 310.34 407.03 673.57 355.98 487.53 254.78 124.3 305.83"/>
    <polygon class="cls-30" points="310.42 359.26 310.34 407.03 673.57 355.98 673.66 308.21 310.42 359.26"/>
    <polygon class="cls-31" points="124.3 305.83 310.34 407.03 310.42 359.25 124.38 258.05 124.3 305.83"/>
    <polygon class="cls-32" points="124.38 258.05 310.42 359.26 673.66 308.21 487.62 207 124.38 258.05"/>
    <polygon class="cls-33" points="310.51 311.5 310.42 359.26 673.66 308.21 673.75 260.45 310.51 311.5"/>
    <polygon class="cls-34" points="124.38 258.05 310.42 359.26 310.51 311.5 124.47 210.29 124.38 258.05"/>
    <polygon class="cls-35" points="124.47 210.29 310.51 311.5 673.75 260.44 487.71 159.24 124.47 210.29"/>
    <polygon class="cls-36" points="310.61 258.78 310.51 311.5 673.75 260.45 673.85 207.73 310.61 258.78"/>
    <polygon class="cls-37" points="124.47 210.29 310.51 311.5 310.61 258.78 124.57 157.58 124.47 210.29"/>
    <polygon class="cls-38" points="124.57 157.58 310.61 258.78 673.85 207.73 487.81 106.53 124.57 157.58"/>
    <polygon class="cls-39" points="310.76 176.41 310.61 258.78 673.85 207.73 674 125.36 310.76 176.41"/>
    <polygon class="cls-40" points="124.57 157.58 310.61 258.78 310.76 176.41 124.72 75.21 124.57 157.58"/>
    <polygon class="cls-41" points="487.96 24.16 124.72 75.21 310.76 176.41 674 125.36 487.96 24.16"/>
  </g>
  <g class="cls-42">
    <g>
      <path class="cls-43" d="M10.31,589.63H12.7v4.29h4.45v-4.29h2.38v11H17.15v-4.77H12.7v4.77H10.31Z"/>
      <path class="cls-43" d="M33.26,595.11c0,3.07-1.84,5.71-5.43,5.71s-5.28-2.51-5.28-5.68,2-5.67,5.43-5.67C31.21,589.47,33.26,591.73,33.26,595.11Zm-8.24,0c0,2.16.94,3.79,2.9,3.79,2.13,0,2.88-1.78,2.88-3.75s-.86-3.73-2.91-3.73S25,592.95,25,595.09Z"/>
      <path class="cls-43" d="M38.54,589.63v6.56c0,2.13,1.09,2.75,2.29,2.75,1.36,0,2.21-.74,2.21-2.75v-6.56h2.4v6.45c0,3.78-2.21,4.74-4.64,4.74s-4.64-1-4.64-4.69v-6.5Z"/>
      <path class="cls-43" d="M50.49,597.43a2.05,2.05,0,0,0,2.32,1.6c1.28,0,1.82-.51,1.82-1.31s-.53-1.3-2.42-1.73c-3-.7-3.75-1.81-3.75-3.3,0-1.92,1.44-3.22,4-3.22,2.93,0,4.1,1.57,4.26,3.19h-2.4c-.13-.69-.5-1.42-1.92-1.42-1,0-1.55.4-1.55,1.18s.46,1.09,2.26,1.49c3.2.77,3.91,2,3.91,3.52,0,2-1.52,3.39-4.43,3.39s-4.29-1.38-4.55-3.39Z"/>
      <path class="cls-43" d="M67.64,595.91H62.36v2.8h5.83l-.29,2H60v-11h7.83v2H62.36v2.35h5.28Z"/>
      <path class="cls-43" d="M72.89,600.66l-2.82-11h2.54c1,5.06,1.5,7.31,1.63,8.53h0c.42-2,1.49-5.87,2.13-8.53h2.15c.58,2.11,1.68,6.39,2,8.42h0c.37-2.43,1.44-6.71,1.84-8.42h2.31l-3,11H79.29c-.58-2.45-1.55-6-1.94-7.91h0c-.4,2-1.39,5.68-2,7.91Z"/>
      <path class="cls-43" d="M88.84,598.12,88,600.66H85.64l3.75-11h3l3.92,11H93.79l-.91-2.54Zm3.52-2c-.78-2.34-1.28-3.83-1.55-4.82h0c-.27,1.09-.82,2.82-1.44,4.82Z"/>
      <path class="cls-43" d="M101.08,596.24v4.42H98.74v-11h4.85c2.4,0,3.7,1.31,3.7,3a2.65,2.65,0,0,1-1.6,2.61c.54.21,1.38.77,1.38,2.75v.54a8.33,8.33,0,0,0,.16,2.1H105a7.9,7.9,0,0,1-.22-2.48V598c0-1.2-.3-1.78-2.08-1.78Zm0-1.9h2c1.3,0,1.81-.5,1.81-1.41s-.59-1.41-1.76-1.41h-2Z"/>
      <path class="cls-43" d="M118.06,595.91h-5.28v2.8h5.83l-.29,2h-7.86v-11h7.83v2h-5.51v2.35h5.28Z"/>
    </g>
  </g>
  <g>
    <path class="cls-43" d="M124.23,600.66v-2.82h2.45v2.82Z"/>
    <path class="cls-43" d="M129.2,600.66v-2.82h2.45v2.82Z"/>
    <path class="cls-43" d="M134.18,600.66v-2.82h2.45v2.82Z"/>
    <path class="cls-43" d="M139.15,600.66v-2.82h2.45v2.82Z"/>
    <path class="cls-43" d="M144.13,600.66v-2.82h2.45v2.82Z"/>
    <path class="cls-43" d="M149.11,600.66v-2.82h2.45v2.82Z"/>
    <path class="cls-43" d="M154.08,600.66v-2.82h2.45v2.82Z"/>
    <path class="cls-43" d="M159.06,600.66v-2.82h2.45v2.82Z"/>
    <path class="cls-43" d="M164,600.66v-2.82h2.45v2.82Z"/>
    <path class="cls-43" d="M169,600.66v-2.82h2.45v2.82Z"/>
    <path class="cls-43" d="M174,600.66v-2.82h2.45v2.82Z"/>
    <path class="cls-43" d="M179,600.66v-2.82h2.45v2.82Z"/>
    <path class="cls-43" d="M183.94,600.66v-2.82h2.45v2.82Z"/>
    <path class="cls-43" d="M188.91,600.66v-2.82h2.45v2.82Z"/>
    <path class="cls-43" d="M193.89,600.66v-2.82h2.45v2.82Z"/>
    <path class="cls-43" d="M198.86,600.66v-2.82h2.45v2.82Z"/>
    <path class="cls-43" d="M203.84,600.66v-2.82h2.45v2.82Z"/>
    <path class="cls-43" d="M208.82,600.66v-2.82h2.45v2.82Z"/>
    <path class="cls-43" d="M213.79,600.66v-2.82h2.45v2.82Z"/>
    <path class="cls-43" d="M218.77,600.66v-2.82h2.45v2.82Z"/>
    <path class="cls-43" d="M223.74,600.66v-2.82h2.45v2.82Z"/>
    <path class="cls-43" d="M228.72,600.66v-2.82h2.45v2.82Z"/>
    <path class="cls-43" d="M233.7,600.66v-2.82h2.45v2.82Z"/>
    <path class="cls-43" d="M238.67,600.66v-2.82h2.45v2.82Z"/>
    <path class="cls-43" d="M243.65,600.66v-2.82h2.45v2.82Z"/>
    <path class="cls-43" d="M248.62,600.66v-2.82h2.45v2.82Z"/>
    <path class="cls-43" d="M253.6,600.66v-2.82H256v2.82Z"/>
    <path class="cls-43" d="M258.58,600.66v-2.82H261v2.82Z"/>
    <path class="cls-43" d="M263.55,600.66v-2.82H266v2.82Z"/>
    <path class="cls-43" d="M268.53,600.66v-2.82H271v2.82Z"/>
    <path class="cls-43" d="M273.5,600.66v-2.82H276v2.82Z"/>
    <path class="cls-43" d="M278.48,600.66v-2.82h2.45v2.82Z"/>
    <path class="cls-43" d="M283.45,600.66v-2.82h2.45v2.82Z"/>
    <path class="cls-43" d="M288.43,600.66v-2.82h2.45v2.82Z"/>
    <path class="cls-43" d="M293.41,600.66v-2.82h2.45v2.82Z"/>
    <path class="cls-43" d="M298.38,600.66v-2.82h2.45v2.82Z"/>
    <path class="cls-43" d="M303.36,600.66v-2.82h2.45v2.82Z"/>
    <path class="cls-43" d="M308.33,600.66v-2.82h2.45v2.82Z"/>
    <path class="cls-43" d="M313.31,600.66v-2.82h2.45v2.82Z"/>
    <path class="cls-43" d="M318.29,600.66v-2.82h2.45v2.82Z"/>
    <path class="cls-43" d="M323.26,600.66v-2.82h2.45v2.82Z"/>
    <path class="cls-43" d="M328.24,600.66v-2.82h2.45v2.82Z"/>
  </g>
  <path class="cls-43" d="M336.43,600.66v-.14c0-1.82.53-3.39,3.41-5.44,1.49-1.06,1.87-1.33,1.87-2.27a1.31,1.31,0,0,0-1.38-1.49c-1,0-1.42.59-1.58,1.58H336.4a3.61,3.61,0,0,1,3.94-3.43c2.85,0,3.78,1.76,3.78,3.28,0,1.7-.67,2.42-2.74,3.79-1.41.93-2,1.62-2.21,2.21h5.38l-.3,1.9Zm12.18,0V592.4a7,7,0,0,1-2.06.38v-1.66a5.54,5.54,0,0,0,2.8-1.49H351v11Z"/>
  <path class="cls-43" d="M354.21,600.66v-2.82h2.45v2.82Z"/>
  <path class="cls-43" d="M367.43,595.08c0,2.83-1,5.78-4.24,5.78s-4.23-2.71-4.23-5.71c0-2.77,1.12-5.67,4.29-5.67S367.43,592.16,367.43,595.08Zm-6.08,0c0,2.21.4,3.86,1.86,3.86s1.82-1.71,1.82-3.89-.37-3.78-1.78-3.78S361.35,592.74,361.35,595.12Zm14-2.16a2.75,2.75,0,0,1-2.85,3c-1.7,0-2.83-1-2.83-3a2.77,2.77,0,0,1,2.85-3A2.7,2.7,0,0,1,375.39,593Zm-3.91,0c0,1,.38,1.6,1.09,1.6s1.09-.5,1.09-1.6-.45-1.58-1.1-1.58S371.49,591.89,371.49,593Zm1,7.7L379,590.11h1.68l-6.48,10.55Zm11-2.85a2.76,2.76,0,0,1-2.85,3.06c-1.71,0-2.83-1.06-2.83-3a2.76,2.76,0,0,1,2.85-3A2.69,2.69,0,0,1,383.49,597.81Zm-3.92,0c0,1,.38,1.62,1.09,1.62s1.1-.51,1.1-1.62-.45-1.57-1.1-1.57S379.57,596.76,379.57,597.81Z"/>
  <g class="cls-42">
    <g>
      <path class="cls-44" d="M10.31,613.63H18v2H12.65v2.71h5v2h-5v4.42H10.31Z"/>
      <path class="cls-44" d="M23,613.63v6.56c0,2.13,1.09,2.75,2.29,2.75,1.36,0,2.21-.74,2.21-2.75v-6.56h2.4v6.45c0,3.78-2.21,4.74-4.64,4.74s-4.64-1-4.64-4.69v-6.5Z"/>
      <path class="cls-44" d="M35.71,620.24v4.42H33.37v-11h4.85c2.4,0,3.7,1.31,3.7,3a2.65,2.65,0,0,1-1.6,2.61c.54.21,1.38.77,1.38,2.75v.54a8.33,8.33,0,0,0,.16,2.1H39.58a7.9,7.9,0,0,1-.22-2.48V622c0-1.2-.3-1.78-2.08-1.78Zm0-1.9h2c1.3,0,1.81-.5,1.81-1.41s-.59-1.41-1.76-1.41h-2Z"/>
      <path class="cls-44" d="M45.08,624.66v-11h3c1.38,2.46,3.92,6.95,4.43,8.15h0c-.13-1.15-.13-3.07-.13-4.88v-3.27h2.16v11h-2.8c-1.18-2.16-4-7.28-4.56-8.56h0c.08,1,.11,3.23.11,5.2v3.36Z"/>
      <path class="cls-44" d="M60.5,613.63v11H58.12v-11Z"/>
      <path class="cls-44" d="M66.26,615.59H62.9v-2H72v2H68.65v9.08H66.26Z"/>
      <path class="cls-44" d="M76.73,613.63v6.56c0,2.13,1.09,2.75,2.29,2.75,1.36,0,2.21-.74,2.21-2.75v-6.56h2.4v6.45c0,3.78-2.21,4.74-4.64,4.74s-4.64-1-4.64-4.69v-6.5Z"/>
      <path class="cls-44" d="M89.45,620.24v4.42H87.11v-11H92c2.4,0,3.7,1.31,3.7,3a2.65,2.65,0,0,1-1.6,2.61c.54.21,1.38.77,1.38,2.75v.54a8.33,8.33,0,0,0,.16,2.1H93.32a7.9,7.9,0,0,1-.22-2.48V622c0-1.2-.3-1.78-2.08-1.78Zm0-1.9h2c1.3,0,1.81-.5,1.81-1.41s-.59-1.41-1.76-1.41h-2Z"/>
      <path class="cls-44" d="M106.43,619.91h-5.28v2.8H107l-.29,2H98.82v-11h7.83v2h-5.51v2.35h5.28Z"/>
    </g>
  </g>
  <g>
    <path class="cls-44" d="M109.31,624.66v-2.82h2.45v2.82Z"/>
    <path class="cls-44" d="M114.29,624.66v-2.82h2.45v2.82Z"/>
    <path class="cls-44" d="M119.26,624.66v-2.82h2.45v2.82Z"/>
    <path class="cls-44" d="M124.24,624.66v-2.82h2.45v2.82Z"/>
    <path class="cls-44" d="M129.21,624.66v-2.82h2.45v2.82Z"/>
    <path class="cls-44" d="M134.19,624.66v-2.82h2.45v2.82Z"/>
    <path class="cls-44" d="M139.16,624.66v-2.82h2.45v2.82Z"/>
    <path class="cls-44" d="M144.14,624.66v-2.82h2.45v2.82Z"/>
    <path class="cls-44" d="M149.12,624.66v-2.82h2.45v2.82Z"/>
    <path class="cls-44" d="M154.09,624.66v-2.82h2.45v2.82Z"/>
    <path class="cls-44" d="M159.07,624.66v-2.82h2.45v2.82Z"/>
    <path class="cls-44" d="M164,624.66v-2.82h2.45v2.82Z"/>
    <path class="cls-44" d="M169,624.66v-2.82h2.45v2.82Z"/>
    <path class="cls-44" d="M174,624.66v-2.82h2.45v2.82Z"/>
    <path class="cls-44" d="M179,624.66v-2.82h2.45v2.82Z"/>
    <path class="cls-44" d="M183.95,624.66v-2.82h2.45v2.82Z"/>
    <path class="cls-44" d="M188.92,624.66v-2.82h2.45v2.82Z"/>
    <path class="cls-44" d="M193.9,624.66v-2.82h2.45v2.82Z"/>
    <path class="cls-44" d="M198.88,624.66v-2.82h2.45v2.82Z"/>
    <path class="cls-44" d="M203.85,624.66v-2.82h2.45v2.82Z"/>
    <path class="cls-44" d="M208.83,624.66v-2.82h2.45v2.82Z"/>
    <path class="cls-44" d="M213.8,624.66v-2.82h2.45v2.82Z"/>
    <path class="cls-44" d="M218.78,624.66v-2.82h2.45v2.82Z"/>
    <path class="cls-44" d="M223.75,624.66v-2.82h2.45v2.82Z"/>
    <path class="cls-44" d="M228.73,624.66v-2.82h2.45v2.82Z"/>
    <path class="cls-44" d="M233.71,624.66v-2.82h2.45v2.82Z"/>
    <path class="cls-44" d="M238.68,624.66v-2.82h2.45v2.82Z"/>
    <path class="cls-44" d="M243.66,624.66v-2.82h2.45v2.82Z"/>
    <path class="cls-44" d="M248.63,624.66v-2.82h2.45v2.82Z"/>
    <path class="cls-44" d="M253.61,624.66v-2.82h2.45v2.82Z"/>
    <path class="cls-44" d="M258.59,624.66v-2.82H261v2.82Z"/>
    <path class="cls-44" d="M263.56,624.66v-2.82H266v2.82Z"/>
    <path class="cls-44" d="M268.54,624.66v-2.82H271v2.82Z"/>
    <path class="cls-44" d="M273.51,624.66v-2.82H276v2.82Z"/>
    <path class="cls-44" d="M278.49,624.66v-2.82h2.45v2.82Z"/>
    <path class="cls-44" d="M283.46,624.66v-2.82h2.45v2.82Z"/>
    <path class="cls-44" d="M288.44,624.66v-2.82h2.45v2.82Z"/>
    <path class="cls-44" d="M293.42,624.66v-2.82h2.45v2.82Z"/>
    <path class="cls-44" d="M298.39,624.66v-2.82h2.45v2.82Z"/>
    <path class="cls-44" d="M303.37,624.66v-2.82h2.45v2.82Z"/>
    <path class="cls-44" d="M308.34,624.66v-2.82h2.45v2.82Z"/>
    <path class="cls-44" d="M313.32,624.66v-2.82h2.45v2.82Z"/>
    <path class="cls-44" d="M318.3,624.66v-2.82h2.45v2.82Z"/>
    <path class="cls-44" d="M323.27,624.66v-2.82h2.45v2.82Z"/>
    <path class="cls-44" d="M328.25,624.66v-2.82h2.45v2.82Z"/>
  </g>
  <path class="cls-44" d="M338.83,624.66V616.4a7,7,0,0,1-2.06.38v-1.66a5.54,5.54,0,0,0,2.8-1.49h1.66v11Zm5.3-8.08a3.53,3.53,0,0,1,3.84-3.11c2.51,0,3.71,1.38,3.71,2.93a2.24,2.24,0,0,1-1.39,2.22v0a2.62,2.62,0,0,1,1.78,2.66c0,1.73-1.09,3.57-4.15,3.54-2.59,0-3.91-1.62-4-3.27h2.27A1.72,1.72,0,0,0,348,623a1.55,1.55,0,0,0,1.73-1.68c0-1-.42-1.74-1.94-1.74H347v-1.76h.75c1.1,0,1.63-.32,1.63-1.25a1.27,1.27,0,0,0-1.44-1.34,1.47,1.47,0,0,0-1.6,1.31Z"/>
  <path class="cls-44" d="M354.62,624.66v-2.82h2.45v2.82Z"/>
  <path class="cls-44" d="M367.18,615.51h-4.56c-.08.8-.21,1.71-.29,2.18a3,3,0,0,1,2-.58,3.4,3.4,0,0,1,3.46,3.68,3.81,3.81,0,0,1-4.16,4.07,3.7,3.7,0,0,1-4-3.17h2.29a1.7,1.7,0,0,0,1.76,1.34c1.28,0,1.79-.82,1.79-2,0-1-.4-2.06-1.78-2.06a1.63,1.63,0,0,0-1.74,1.17l-2.11-.32c.29-1.31.72-4.63.86-6.13h6.77Zm8.22,1.46a2.75,2.75,0,0,1-2.85,3c-1.7,0-2.83-1-2.83-3a2.77,2.77,0,0,1,2.85-3A2.7,2.7,0,0,1,375.41,617Zm-3.91,0c0,1,.38,1.6,1.09,1.6s1.09-.5,1.09-1.6-.45-1.58-1.1-1.58S371.5,615.89,371.5,617Zm1,7.7L379,614.11h1.68l-6.48,10.55Zm11-2.85a2.76,2.76,0,0,1-2.85,3.06c-1.71,0-2.83-1.06-2.83-3a2.76,2.76,0,0,1,2.85-3A2.69,2.69,0,0,1,383.51,621.81Zm-3.92,0c0,1,.38,1.62,1.09,1.62s1.1-.51,1.1-1.62-.45-1.57-1.1-1.57S379.59,620.76,379.59,621.81Z"/>
  <g class="cls-42">
    <g>
      <path class="cls-45" d="M10.31,637.63H12.7v4.29h4.45v-4.29h2.38v11H17.15v-4.77H12.7v4.77H10.31Z"/>
      <path class="cls-45" d="M33.26,643.11c0,3.07-1.84,5.71-5.43,5.71s-5.28-2.51-5.28-5.68,2-5.67,5.43-5.67C31.21,637.47,33.26,639.73,33.26,643.11Zm-8.24,0c0,2.16.94,3.79,2.9,3.79,2.13,0,2.88-1.78,2.88-3.75s-.86-3.73-2.91-3.73S25,640.95,25,643.09Z"/>
      <path class="cls-45" d="M36.28,637.63H41.1c2.67,0,3.68,1.38,3.68,2.82a2.49,2.49,0,0,1-1.41,2.38,2.65,2.65,0,0,1,1.73,2.53c0,1.89-1.49,3.3-3.83,3.3h-5ZM40.83,642c1.14,0,1.6-.51,1.6-1.3s-.61-1.22-1.52-1.22H38.62V642Zm-2.21,4.83h2.16c1.3,0,1.87-.54,1.87-1.54s-.58-1.46-1.89-1.46H38.62Z"/>
      <path class="cls-45" d="M48.14,637.63H53c2.67,0,3.68,1.38,3.68,2.82a2.49,2.49,0,0,1-1.41,2.38A2.65,2.65,0,0,1,57,645.36c0,1.89-1.49,3.3-3.83,3.3h-5ZM52.68,642c1.14,0,1.6-.51,1.6-1.3s-.61-1.22-1.52-1.22H50.47V642Zm-2.21,4.83h2.16c1.3,0,1.87-.54,1.87-1.54s-.58-1.46-1.89-1.46H50.47Z"/>
      <path class="cls-45" d="M62.15,648.66v-3.91a.62.62,0,0,0-.1-.35l-3.81-6.77H61c.85,1.66,2,3.87,2.51,5.07.48-1.15,1.68-3.49,2.51-5.07h2.5l-3.86,6.74a.65.65,0,0,0-.08.35v3.94Z"/>
      <path class="cls-45" d="M77.75,644.24v4.42H75.42v-11h4.85c2.4,0,3.7,1.31,3.7,3a2.65,2.65,0,0,1-1.6,2.61c.54.21,1.38.77,1.38,2.75v.54a8.33,8.33,0,0,0,.16,2.1H81.63a7.9,7.9,0,0,1-.22-2.48V646c0-1.2-.3-1.78-2.08-1.78Zm0-1.9h2c1.3,0,1.81-.5,1.81-1.41s-.59-1.41-1.76-1.41h-2Z"/>
      <path class="cls-45" d="M94.73,643.91H89.45v2.8h5.83l-.29,2H87.13v-11H95v2H89.45v2.35h5.28Z"/>
      <path class="cls-45" d="M98.17,637.63h2.38v9.08h5.51l-.27,2H98.17Z"/>
      <path class="cls-45" d="M111,646.12l-.85,2.54H107.8l3.75-11h3l3.92,11h-2.51l-.91-2.54Zm3.52-2c-.78-2.34-1.28-3.83-1.55-4.82h0c-.27,1.09-.82,2.82-1.44,4.82Z"/>
      <path class="cls-45" d="M122.09,639.59h-3.36v-2h9.09v2h-3.35v9.08h-2.38Z"/>
      <path class="cls-45" d="M137.83,643.91h-5.28v2.8h5.83l-.29,2h-7.86v-11h7.83v2h-5.51v2.35h5.28Z"/>
      <path class="cls-45" d="M141.27,637.63h4.39A5,5,0,0,1,151,643c0,3.22-2,5.65-5.43,5.65h-4.27Zm2.38,9.11h1.79c2.11,0,3.06-1.58,3.06-3.73,0-1.81-.88-3.46-3-3.46h-1.81Z"/>
      <path class="cls-45" d="M169,643.11c0,3.07-1.84,5.71-5.43,5.71s-5.28-2.51-5.28-5.68,2-5.67,5.43-5.67C167,637.47,169,639.73,169,643.11Zm-8.24,0c0,2.16.94,3.79,2.9,3.79,2.13,0,2.88-1.78,2.88-3.75s-.86-3.73-2.91-3.73S160.76,640.95,160.76,643.09Z"/>
      <path class="cls-45" d="M172,637.63h4.82c2.67,0,3.68,1.38,3.68,2.82a2.49,2.49,0,0,1-1.41,2.38,2.65,2.65,0,0,1,1.73,2.53c0,1.89-1.49,3.3-3.83,3.3h-5Zm4.55,4.35c1.14,0,1.6-.51,1.6-1.3s-.61-1.22-1.52-1.22h-2.29V642Zm-2.21,4.83h2.16c1.3,0,1.87-.54,1.87-1.54s-.58-1.46-1.89-1.46h-2.15Z"/>
      <path class="cls-45" d="M187.74,645.12c0,2.54-.83,3.7-3.25,3.7a6.6,6.6,0,0,1-1.49-.14v-1.89a9.66,9.66,0,0,0,1.09.06c1.09,0,1.26-.74,1.26-1.57v-7.65h2.39Z"/>
      <path class="cls-45" d="M198.86,643.91h-5.28v2.8h5.83l-.29,2h-7.86v-11h7.83v2h-5.51v2.35h5.28Z"/>
      <path class="cls-45" d="M211.55,645.25c-.43,2.06-2,3.57-4.75,3.57-3.51,0-5.15-2.48-5.15-5.62s1.71-5.73,5.27-5.73c2.94,0,4.37,1.71,4.64,3.57h-2.38a2.18,2.18,0,0,0-2.34-1.71c-2,0-2.72,1.78-2.72,3.79,0,1.86.66,3.83,2.79,3.83a2.18,2.18,0,0,0,2.26-1.7Z"/>
      <path class="cls-45" d="M216.84,639.59h-3.36v-2h9.09v2h-3.35v9.08h-2.38Z"/>
      <path class="cls-45" d="M226.74,645.43a2.05,2.05,0,0,0,2.32,1.6c1.28,0,1.82-.51,1.82-1.31s-.53-1.3-2.42-1.73c-3-.7-3.75-1.81-3.75-3.3,0-1.92,1.44-3.22,4-3.22,2.93,0,4.1,1.57,4.26,3.19h-2.4c-.13-.69-.5-1.42-1.92-1.42-1,0-1.55.4-1.55,1.18s.46,1.09,2.26,1.49c3.2.77,3.91,2,3.91,3.52,0,2-1.52,3.39-4.43,3.39s-4.29-1.38-4.55-3.39Z"/>
    </g>
  </g>
  <g>
    <path class="cls-45" d="M238.67,648.66v-2.82h2.45v2.82Z"/>
    <path class="cls-45" d="M243.65,648.66v-2.82h2.45v2.82Z"/>
    <path class="cls-45" d="M248.62,648.66v-2.82h2.45v2.82Z"/>
    <path class="cls-45" d="M253.6,648.66v-2.82H256v2.82Z"/>
    <path class="cls-45" d="M258.57,648.66v-2.82H261v2.82Z"/>
    <path class="cls-45" d="M263.55,648.66v-2.82H266v2.82Z"/>
    <path class="cls-45" d="M268.53,648.66v-2.82H271v2.82Z"/>
    <path class="cls-45" d="M273.5,648.66v-2.82H276v2.82Z"/>
    <path class="cls-45" d="M278.48,648.66v-2.82h2.45v2.82Z"/>
    <path class="cls-45" d="M283.45,648.66v-2.82h2.45v2.82Z"/>
    <path class="cls-45" d="M288.43,648.66v-2.82h2.45v2.82Z"/>
    <path class="cls-45" d="M293.41,648.66v-2.82h2.45v2.82Z"/>
    <path class="cls-45" d="M298.38,648.66v-2.82h2.45v2.82Z"/>
    <path class="cls-45" d="M303.36,648.66v-2.82h2.45v2.82Z"/>
    <path class="cls-45" d="M308.33,648.66v-2.82h2.45v2.82Z"/>
    <path class="cls-45" d="M313.31,648.66v-2.82h2.45v2.82Z"/>
    <path class="cls-45" d="M318.29,648.66v-2.82h2.45v2.82Z"/>
    <path class="cls-45" d="M323.26,648.66v-2.82h2.45v2.82Z"/>
    <path class="cls-45" d="M328.24,648.66v-2.82h2.45v2.82Z"/>
  </g>
  <path class="cls-45" d="M338.18,648.66V640.4a7,7,0,0,1-2.06.38v-1.66a5.54,5.54,0,0,0,2.8-1.49h1.66v11Zm5.29,0v-.14c0-1.82.53-3.39,3.41-5.44,1.49-1.06,1.87-1.33,1.87-2.27a1.31,1.31,0,0,0-1.38-1.49c-1,0-1.42.59-1.58,1.58h-2.35a3.61,3.61,0,0,1,3.94-3.43c2.85,0,3.78,1.76,3.78,3.28,0,1.7-.67,2.42-2.74,3.79-1.41.93-2,1.62-2.21,2.21h5.38l-.3,1.9Z"/>
  <path class="cls-45" d="M354.21,648.66v-2.82h2.45v2.82Z"/>
  <path class="cls-45" d="M367.43,643.08c0,2.83-1,5.78-4.24,5.78s-4.23-2.71-4.23-5.71c0-2.77,1.12-5.67,4.29-5.67S367.43,640.16,367.43,643.08Zm-6.08,0c0,2.21.4,3.86,1.86,3.86s1.82-1.71,1.82-3.89-.37-3.78-1.78-3.78S361.34,640.74,361.34,643.12Zm14-2.16a2.75,2.75,0,0,1-2.85,3c-1.7,0-2.83-1-2.83-3a2.77,2.77,0,0,1,2.85-3A2.7,2.7,0,0,1,375.39,641Zm-3.91,0c0,1,.38,1.6,1.09,1.6s1.09-.5,1.09-1.6-.45-1.58-1.1-1.58S371.48,639.89,371.48,641Zm1,7.7L379,638.11h1.68l-6.48,10.55Zm11-2.85a2.76,2.76,0,0,1-2.85,3.06c-1.71,0-2.83-1.06-2.83-3a2.76,2.76,0,0,1,2.85-3A2.69,2.69,0,0,1,383.49,645.81Zm-3.92,0c0,1,.38,1.62,1.09,1.62s1.1-.51,1.1-1.62-.45-1.57-1.1-1.57S379.57,644.76,379.57,645.81Z"/>
  <g class="cls-42">
    <g>
      <path class="cls-46" d="M10.31,661.63h4.56c2.35,0,3.94,1.31,3.94,3.41,0,2.4-1.81,3.51-4,3.51H12.7v4.11H10.31Zm2.38,5h1.83c1.1,0,1.89-.43,1.89-1.55s-.83-1.57-1.84-1.57H12.7Z"/>
      <path class="cls-46" d="M29.08,667.91H23.8v2.8h5.83l-.29,2H21.48v-11h7.83v2H23.8v2.35h5.28Z"/>
      <path class="cls-46" d="M34.86,668.24v4.42H32.52v-11h4.85c2.4,0,3.7,1.31,3.7,3a2.65,2.65,0,0,1-1.6,2.61c.54.21,1.38.77,1.38,2.75v.54a8.33,8.33,0,0,0,.16,2.1H38.73a7.9,7.9,0,0,1-.22-2.48V670c0-1.2-.3-1.78-2.08-1.78Zm0-1.9h2c1.3,0,1.81-.5,1.81-1.41s-.59-1.41-1.76-1.41h-2Z"/>
      <path class="cls-46" d="M45.86,669.43a2.05,2.05,0,0,0,2.32,1.6c1.28,0,1.82-.51,1.82-1.31s-.53-1.3-2.42-1.73c-3-.7-3.75-1.81-3.75-3.3,0-1.92,1.44-3.22,4-3.22,2.93,0,4.1,1.57,4.26,3.19h-2.4c-.13-.69-.5-1.42-1.92-1.42-1,0-1.55.4-1.55,1.18s.46,1.09,2.26,1.49c3.2.77,3.91,2,3.91,3.52,0,2-1.52,3.39-4.43,3.39s-4.29-1.38-4.55-3.39Z"/>
      <path class="cls-46" d="M65.5,667.11c0,3.07-1.84,5.71-5.43,5.71s-5.28-2.51-5.28-5.68,2-5.67,5.43-5.67C63.45,661.47,65.5,663.73,65.5,667.11Zm-8.24,0c0,2.16.94,3.79,2.9,3.79,2.13,0,2.88-1.78,2.88-3.75s-.86-3.73-2.91-3.73S57.26,664.95,57.26,667.09Z"/>
      <path class="cls-46" d="M68.52,672.66v-11h3c1.38,2.46,3.92,6.95,4.43,8.15h0c-.13-1.15-.13-3.07-.13-4.88v-3.27H78v11h-2.8c-1.18-2.16-4-7.28-4.56-8.56h0c.08,1,.11,3.23.11,5.2v3.36Z"/>
      <path class="cls-46" d="M83.63,670.12l-.85,2.54H80.42l3.75-11h3l3.92,11H88.57l-.91-2.54Zm3.52-2c-.78-2.34-1.28-3.83-1.55-4.82h0c-.27,1.09-.82,2.82-1.44,4.82Z"/>
      <path class="cls-46" d="M93.53,661.63h2.38v9.08h5.51l-.27,2H93.53Z"/>
      <path class="cls-46" d="M111.06,661.63v11h-2.38v-11Z"/>
      <path class="cls-46" d="M116.82,663.59h-3.36v-2h9.09v2h-3.35v9.08h-2.38Z"/>
      <path class="cls-46" d="M132.57,667.91h-5.28v2.8h5.83l-.29,2H125v-11h7.83v2h-5.51v2.35h5.28Z"/>
      <path class="cls-46" d="M145.24,668.52c0-1.87,0-4,.08-5.23h-.08c-.51,2.26-1.62,5.92-2.67,9.38h-2c-.82-3-2-7.2-2.43-9.41H138c.1,1.3.14,3.57.14,5.46v4H136v-11h3.55c.86,2.88,1.82,6.5,2.16,8.13h0c.27-1.44,1.47-5.31,2.4-8.13h3.43v11h-2.3Z"/>
      <path class="cls-46" d="M152.79,669.43a2.05,2.05,0,0,0,2.32,1.6c1.28,0,1.82-.51,1.82-1.31s-.53-1.3-2.42-1.73c-3-.7-3.75-1.81-3.75-3.3,0-1.92,1.44-3.22,4-3.22,2.93,0,4.1,1.57,4.26,3.19h-2.4c-.13-.69-.5-1.42-1.92-1.42-1,0-1.55.4-1.55,1.18s.46,1.09,2.26,1.49c3.2.77,3.91,2,3.91,3.52,0,2-1.52,3.39-4.43,3.39s-4.29-1.38-4.55-3.39Z"/>
    </g>
  </g>
  <g>
    <path class="cls-46" d="M164,672.66v-2.82h2.45v2.82Z"/>
    <path class="cls-46" d="M169,672.66v-2.82h2.45v2.82Z"/>
    <path class="cls-46" d="M174,672.66v-2.82h2.45v2.82Z"/>
    <path class="cls-46" d="M179,672.66v-2.82h2.45v2.82Z"/>
    <path class="cls-46" d="M183.94,672.66v-2.82h2.45v2.82Z"/>
    <path class="cls-46" d="M188.92,672.66v-2.82h2.45v2.82Z"/>
    <path class="cls-46" d="M193.89,672.66v-2.82h2.45v2.82Z"/>
    <path class="cls-46" d="M198.87,672.66v-2.82h2.45v2.82Z"/>
    <path class="cls-46" d="M203.84,672.66v-2.82h2.45v2.82Z"/>
    <path class="cls-46" d="M208.82,672.66v-2.82h2.45v2.82Z"/>
    <path class="cls-46" d="M213.79,672.66v-2.82h2.45v2.82Z"/>
    <path class="cls-46" d="M218.77,672.66v-2.82h2.45v2.82Z"/>
    <path class="cls-46" d="M223.75,672.66v-2.82h2.45v2.82Z"/>
    <path class="cls-46" d="M228.72,672.66v-2.82h2.45v2.82Z"/>
    <path class="cls-46" d="M233.7,672.66v-2.82h2.45v2.82Z"/>
    <path class="cls-46" d="M238.67,672.66v-2.82h2.45v2.82Z"/>
    <path class="cls-46" d="M243.65,672.66v-2.82h2.45v2.82Z"/>
    <path class="cls-46" d="M248.63,672.66v-2.82h2.45v2.82Z"/>
    <path class="cls-46" d="M253.6,672.66v-2.82h2.45v2.82Z"/>
    <path class="cls-46" d="M258.58,672.66v-2.82H261v2.82Z"/>
    <path class="cls-46" d="M263.55,672.66v-2.82H266v2.82Z"/>
    <path class="cls-46" d="M268.53,672.66v-2.82H271v2.82Z"/>
    <path class="cls-46" d="M273.5,672.66v-2.82H276v2.82Z"/>
    <path class="cls-46" d="M278.48,672.66v-2.82h2.45v2.82Z"/>
    <path class="cls-46" d="M283.46,672.66v-2.82h2.45v2.82Z"/>
    <path class="cls-46" d="M288.43,672.66v-2.82h2.45v2.82Z"/>
    <path class="cls-46" d="M293.41,672.66v-2.82h2.45v2.82Z"/>
    <path class="cls-46" d="M298.38,672.66v-2.82h2.45v2.82Z"/>
    <path class="cls-46" d="M303.36,672.66v-2.82h2.45v2.82Z"/>
    <path class="cls-46" d="M308.34,672.66v-2.82h2.45v2.82Z"/>
    <path class="cls-46" d="M313.31,672.66v-2.82h2.45v2.82Z"/>
    <path class="cls-46" d="M318.29,672.66v-2.82h2.45v2.82Z"/>
    <path class="cls-46" d="M323.26,672.66v-2.82h2.45v2.82Z"/>
    <path class="cls-46" d="M328.24,672.66v-2.82h2.45v2.82Z"/>
  </g>
  <path class="cls-46" d="M338.5,672.66V664.4a7,7,0,0,1-2.06.38v-1.66a5.54,5.54,0,0,0,2.8-1.49h1.66v11Zm5.29,0v-.14c0-1.82.53-3.39,3.41-5.44,1.49-1.06,1.87-1.33,1.87-2.27a1.31,1.31,0,0,0-1.38-1.49c-1,0-1.42.59-1.58,1.58h-2.35a3.61,3.61,0,0,1,3.94-3.43c2.85,0,3.78,1.76,3.78,3.28,0,1.7-.67,2.42-2.74,3.79-1.41.93-2,1.62-2.21,2.21h5.38l-.3,1.9Z"/>
  <path class="cls-46" d="M354.53,672.66v-2.82H357v2.82Z"/>
  <path class="cls-46" d="M359.65,664.58a3.53,3.53,0,0,1,3.84-3.11c2.51,0,3.71,1.38,3.71,2.93a2.24,2.24,0,0,1-1.39,2.22v0a2.62,2.62,0,0,1,1.78,2.66c0,1.73-1.09,3.57-4.15,3.54-2.59,0-3.91-1.62-4-3.27h2.27a1.72,1.72,0,0,0,1.84,1.46,1.55,1.55,0,0,0,1.73-1.68c0-1-.42-1.74-1.94-1.74h-.8v-1.76h.75c1.1,0,1.63-.32,1.63-1.25a1.27,1.27,0,0,0-1.44-1.34,1.47,1.47,0,0,0-1.6,1.31Zm15.74.38a2.75,2.75,0,0,1-2.85,3c-1.7,0-2.83-1-2.83-3a2.77,2.77,0,0,1,2.85-3A2.7,2.7,0,0,1,375.39,665Zm-3.91,0c0,1,.38,1.6,1.09,1.6s1.09-.5,1.09-1.6-.45-1.58-1.1-1.58S371.49,663.89,371.49,665Zm1,7.7L379,662.11h1.68l-6.48,10.55Zm11-2.85a2.76,2.76,0,0,1-2.85,3.06c-1.71,0-2.83-1.06-2.83-3a2.76,2.76,0,0,1,2.85-3A2.69,2.69,0,0,1,383.49,669.81Zm-3.92,0c0,1,.38,1.62,1.09,1.62s1.1-.51,1.1-1.62-.45-1.57-1.1-1.57S379.57,668.76,379.57,669.81Z"/>
  <g class="cls-42">
    <g>
      <path class="cls-47" d="M19.68,693.25c-.43,2.06-2,3.57-4.75,3.57-3.51,0-5.15-2.48-5.15-5.62s1.71-5.73,5.27-5.73c2.94,0,4.37,1.71,4.64,3.57H17.29A2.18,2.18,0,0,0,15,687.33c-2,0-2.72,1.78-2.72,3.79,0,1.86.66,3.83,2.79,3.83a2.18,2.18,0,0,0,2.26-1.7Z"/>
      <path class="cls-47" d="M22.65,685.63H25v9.08h5.51l-.27,2H22.65Z"/>
      <path class="cls-47" d="M43,691.11c0,3.07-1.84,5.71-5.43,5.71s-5.28-2.51-5.28-5.68,2-5.67,5.43-5.67C41,685.47,43,687.73,43,691.11Zm-8.24,0c0,2.16.94,3.79,2.9,3.79,2.13,0,2.88-1.78,2.88-3.75s-.86-3.73-2.91-3.73S34.76,688.95,34.76,691.09Z"/>
      <path class="cls-47" d="M48.09,687.59H44.73v-2h9.09v2H50.47v9.08H48.09Z"/>
      <path class="cls-47" d="M56.25,685.63h2.38v4.29h4.45v-4.29h2.38v11H63.08v-4.77H58.63v4.77H56.25Z"/>
      <path class="cls-47" d="M71.43,685.63v11H69v-11Z"/>
      <path class="cls-47" d="M75,696.66v-11h3c1.38,2.46,3.92,6.95,4.43,8.15h0c-.13-1.15-.13-3.07-.13-4.88v-3.27h2.16v11h-2.8c-1.18-2.16-4-7.28-4.56-8.56h0c.08,1,.11,3.23.11,5.2v3.36Z"/>
      <path class="cls-47" d="M97.66,696.66H95.92a6,6,0,0,1-.19-1.09,3.74,3.74,0,0,1-3.22,1.28c-3.2,0-5-2.43-5-5.57,0-3.31,1.94-5.81,5.41-5.81,2.83,0,4.51,1.6,4.77,3.47H95.31a2.24,2.24,0,0,0-2.42-1.62c-2.27,0-2.91,1.91-2.91,3.84s.74,3.78,2.93,3.78a2.19,2.19,0,0,0,2.42-2.4v-.11H92.91v-2h4.75Z"/>
    </g>
  </g>
  <g>
    <path class="cls-47" d="M104.32,696.66v-2.82h2.45v2.82Z"/>
    <path class="cls-47" d="M109.29,696.66v-2.82h2.45v2.82Z"/>
    <path class="cls-47" d="M114.27,696.66v-2.82h2.45v2.82Z"/>
    <path class="cls-47" d="M119.25,696.66v-2.82h2.45v2.82Z"/>
    <path class="cls-47" d="M124.22,696.66v-2.82h2.45v2.82Z"/>
    <path class="cls-47" d="M129.2,696.66v-2.82h2.45v2.82Z"/>
    <path class="cls-47" d="M134.17,696.66v-2.82h2.45v2.82Z"/>
    <path class="cls-47" d="M139.15,696.66v-2.82h2.45v2.82Z"/>
    <path class="cls-47" d="M144.13,696.66v-2.82h2.45v2.82Z"/>
    <path class="cls-47" d="M149.1,696.66v-2.82h2.45v2.82Z"/>
    <path class="cls-47" d="M154.08,696.66v-2.82h2.45v2.82Z"/>
    <path class="cls-47" d="M159.05,696.66v-2.82h2.45v2.82Z"/>
    <path class="cls-47" d="M164,696.66v-2.82h2.45v2.82Z"/>
    <path class="cls-47" d="M169,696.66v-2.82h2.45v2.82Z"/>
    <path class="cls-47" d="M174,696.66v-2.82h2.45v2.82Z"/>
    <path class="cls-47" d="M179,696.66v-2.82h2.45v2.82Z"/>
    <path class="cls-47" d="M183.93,696.66v-2.82h2.45v2.82Z"/>
    <path class="cls-47" d="M188.91,696.66v-2.82h2.45v2.82Z"/>
    <path class="cls-47" d="M193.88,696.66v-2.82h2.45v2.82Z"/>
    <path class="cls-47" d="M198.86,696.66v-2.82h2.45v2.82Z"/>
    <path class="cls-47" d="M203.84,696.66v-2.82h2.45v2.82Z"/>
    <path class="cls-47" d="M208.81,696.66v-2.82h2.45v2.82Z"/>
    <path class="cls-47" d="M213.79,696.66v-2.82h2.45v2.82Z"/>
    <path class="cls-47" d="M218.76,696.66v-2.82h2.45v2.82Z"/>
    <path class="cls-47" d="M223.74,696.66v-2.82h2.45v2.82Z"/>
    <path class="cls-47" d="M228.71,696.66v-2.82h2.45v2.82Z"/>
    <path class="cls-47" d="M233.69,696.66v-2.82h2.45v2.82Z"/>
    <path class="cls-47" d="M238.67,696.66v-2.82h2.45v2.82Z"/>
    <path class="cls-47" d="M243.64,696.66v-2.82h2.45v2.82Z"/>
    <path class="cls-47" d="M248.62,696.66v-2.82h2.45v2.82Z"/>
    <path class="cls-47" d="M253.59,696.66v-2.82H256v2.82Z"/>
    <path class="cls-47" d="M258.57,696.66v-2.82H261v2.82Z"/>
    <path class="cls-47" d="M263.55,696.66v-2.82H266v2.82Z"/>
    <path class="cls-47" d="M268.52,696.66v-2.82H271v2.82Z"/>
    <path class="cls-47" d="M273.5,696.66v-2.82h2.45v2.82Z"/>
    <path class="cls-47" d="M278.47,696.66v-2.82h2.45v2.82Z"/>
    <path class="cls-47" d="M283.45,696.66v-2.82h2.45v2.82Z"/>
    <path class="cls-47" d="M288.42,696.66v-2.82h2.45v2.82Z"/>
    <path class="cls-47" d="M293.4,696.66v-2.82h2.45v2.82Z"/>
    <path class="cls-47" d="M298.38,696.66v-2.82h2.45v2.82Z"/>
    <path class="cls-47" d="M303.35,696.66v-2.82h2.45v2.82Z"/>
    <path class="cls-47" d="M308.33,696.66v-2.82h2.45v2.82Z"/>
    <path class="cls-47" d="M313.3,696.66v-2.82h2.45v2.82Z"/>
    <path class="cls-47" d="M318.28,696.66v-2.82h2.45v2.82Z"/>
    <path class="cls-47" d="M323.26,696.66v-2.82h2.45v2.82Z"/>
    <path class="cls-47" d="M328.23,696.66v-2.82h2.45v2.82Z"/>
    <path class="cls-47" d="M333.21,696.66v-2.82h2.45v2.82Z"/>
    <path class="cls-47" d="M338.18,696.66v-2.82h2.45v2.82Z"/>
  </g>
  <path class="cls-47" d="M343.58,693.46a2.81,2.81,0,0,1,1.76-2.63,2.46,2.46,0,0,1-1.3-2.29c0-1.73,1.38-3.07,3.83-3.07,2.27,0,3.75,1.26,3.75,3a2.35,2.35,0,0,1-1.33,2.24,2.74,2.74,0,0,1,1.74,2.63c0,2.38-1.82,3.49-4.34,3.49C345.44,696.85,343.58,695.7,343.58,693.46Zm6.11-.06c0-1.07-.7-1.63-1.89-1.63s-1.87.64-1.87,1.57a1.67,1.67,0,0,0,1.9,1.71C349,695,349.7,694.47,349.7,693.4Zm-3.46-4.77c0,.75.54,1.3,1.6,1.3s1.57-.48,1.57-1.26-.58-1.41-1.58-1.41S346.24,687.75,346.24,688.63Z"/>
  <path class="cls-47" d="M354.61,696.66v-2.82h2.45v2.82Z"/>
  <path class="cls-47" d="M367.17,687.51h-4.56c-.08.8-.21,1.71-.29,2.18a3,3,0,0,1,2-.58,3.4,3.4,0,0,1,3.46,3.68,3.81,3.81,0,0,1-4.16,4.07,3.7,3.7,0,0,1-4-3.17h2.29a1.7,1.7,0,0,0,1.76,1.34c1.28,0,1.79-.82,1.79-2,0-1-.4-2.06-1.78-2.06a1.63,1.63,0,0,0-1.74,1.17l-2.11-.32c.29-1.31.72-4.63.86-6.13h6.77Zm8.22,1.46a2.75,2.75,0,0,1-2.85,3c-1.7,0-2.83-1-2.83-3a2.77,2.77,0,0,1,2.85-3A2.7,2.7,0,0,1,375.39,689Zm-3.91,0c0,1,.38,1.6,1.09,1.6s1.09-.5,1.09-1.6-.45-1.58-1.1-1.58S371.49,687.89,371.49,689Zm1,7.7L379,686.11h1.68l-6.48,10.55Zm11-2.85a2.76,2.76,0,0,1-2.85,3.06c-1.71,0-2.83-1.06-2.83-3a2.76,2.76,0,0,1,2.85-3A2.69,2.69,0,0,1,383.49,693.81Zm-3.92,0c0,1,.38,1.62,1.09,1.62s1.1-.51,1.1-1.62-.45-1.57-1.1-1.57S379.57,692.76,379.57,693.81Z"/>
  <g class="cls-42">
    <g>
      <path class="cls-48" d="M10.31,709.63H12.7v4.29h4.45v-4.29h2.38v11H17.15v-4.77H12.7v4.77H10.31Z"/>
      <path class="cls-48" d="M33.26,715.11c0,3.07-1.84,5.71-5.43,5.71s-5.28-2.51-5.28-5.68,2-5.67,5.43-5.67C31.21,709.47,33.26,711.73,33.26,715.11Zm-8.24,0c0,2.16.94,3.79,2.9,3.79,2.13,0,2.88-1.78,2.88-3.75s-.86-3.73-2.91-3.73S25,712.95,25,715.09Z"/>
      <path class="cls-48" d="M36.28,709.63h2.38v9.08h5.51l-.27,2H36.28Z"/>
      <path class="cls-48" d="M49,709.63v11H46.6v-11Z"/>
      <path class="cls-48" d="M52.55,709.63h4.39A5,5,0,0,1,62.25,715c0,3.22-2,5.65-5.43,5.65H52.55Zm2.38,9.11h1.79c2.11,0,3.06-1.58,3.06-3.73,0-1.81-.88-3.46-3-3.46H54.94Z"/>
      <path class="cls-48" d="M66.9,718.12l-.85,2.54H63.7l3.75-11h3l3.92,11H71.85l-.91-2.54Zm3.52-2c-.78-2.34-1.28-3.83-1.55-4.82h0c-.27,1.09-.82,2.82-1.44,4.82Z"/>
      <path class="cls-48" d="M78.3,720.66v-3.91a.62.62,0,0,0-.1-.35l-3.81-6.77H77.1c.85,1.66,2,3.87,2.51,5.07.48-1.15,1.68-3.49,2.51-5.07h2.5l-3.86,6.74a.65.65,0,0,0-.08.35v3.94Z"/>
      <path class="cls-48" d="M93.18,717.43A2.05,2.05,0,0,0,95.5,719c1.28,0,1.82-.51,1.82-1.31s-.53-1.3-2.42-1.73c-3-.7-3.75-1.81-3.75-3.3,0-1.92,1.44-3.22,4-3.22,2.93,0,4.1,1.57,4.26,3.19h-2.4c-.13-.69-.5-1.42-1.92-1.42-1,0-1.55.4-1.55,1.18s.46,1.09,2.26,1.49c3.2.77,3.91,2,3.91,3.52,0,2-1.52,3.39-4.43,3.39s-4.29-1.38-4.55-3.39Z"/>
      <path class="cls-48" d="M110.33,715.91H105v2.8h5.83l-.29,2h-7.86v-11h7.83v2H105v2.35h5.28Z"/>
      <path class="cls-48" d="M115.94,718.12l-.85,2.54h-2.35l3.75-11h3l3.92,11h-2.51l-.91-2.54Zm3.52-2c-.78-2.34-1.28-3.83-1.55-4.82h0c-.27,1.09-.82,2.82-1.44,4.82Z"/>
      <path class="cls-48" d="M127.38,717.43a2.05,2.05,0,0,0,2.32,1.6c1.28,0,1.82-.51,1.82-1.31s-.53-1.3-2.42-1.73c-3-.7-3.75-1.81-3.75-3.3,0-1.92,1.44-3.22,4-3.22,2.93,0,4.1,1.57,4.26,3.19h-2.4c-.13-.69-.5-1.42-1.92-1.42-1,0-1.55.4-1.55,1.18s.46,1.09,2.26,1.49c3.2.77,3.91,2,3.91,3.52,0,2-1.52,3.39-4.43,3.39s-4.29-1.38-4.55-3.39Z"/>
      <path class="cls-48" d="M147,715.11c0,3.07-1.84,5.71-5.43,5.71s-5.28-2.51-5.28-5.68,2-5.67,5.43-5.67C145,709.47,147,711.73,147,715.11Zm-8.24,0c0,2.16.94,3.79,2.9,3.79,2.13,0,2.88-1.78,2.88-3.75s-.86-3.73-2.91-3.73S138.78,712.95,138.78,715.09Z"/>
      <path class="cls-48" d="M150,720.66v-11h3c1.38,2.46,3.92,6.95,4.43,8.15h0c-.13-1.15-.13-3.07-.13-4.88v-3.27h2.16v11h-2.8c-1.18-2.16-4-7.28-4.56-8.56h0c.08,1,.11,3.23.11,5.2v3.36Z"/>
      <path class="cls-48" d="M165.14,718.12l-.85,2.54h-2.35l3.75-11h3l3.92,11h-2.51l-.91-2.54Zm3.52-2c-.78-2.34-1.28-3.83-1.55-4.82h0c-.27,1.09-.82,2.82-1.44,4.82Z"/>
      <path class="cls-48" d="M175,709.63h2.38v9.08h5.51l-.27,2H175Z"/>
      <path class="cls-48" d="M192.6,709.63v11h-2.38v-11Z"/>
      <path class="cls-48" d="M198.36,711.59H195v-2h9.09v2h-3.35v9.08h-2.38Z"/>
      <path class="cls-48" d="M214.12,715.91h-5.28v2.8h5.83l-.29,2h-7.86v-11h7.83v2h-5.51v2.35h5.28Z"/>
      <path class="cls-48" d="M226.79,716.52c0-1.87,0-4,.08-5.23h-.08c-.51,2.26-1.62,5.92-2.67,9.38h-2c-.82-3-2-7.2-2.43-9.41h-.08c.1,1.3.14,3.57.14,5.46v4h-2.18v-11h3.55c.86,2.88,1.82,6.5,2.16,8.13h0c.27-1.44,1.47-5.31,2.4-8.13h3.43v11h-2.3Z"/>
      <path class="cls-48" d="M234.34,717.43a2.05,2.05,0,0,0,2.32,1.6c1.28,0,1.82-.51,1.82-1.31s-.53-1.3-2.42-1.73c-3-.7-3.75-1.81-3.75-3.3,0-1.92,1.44-3.22,4-3.22,2.93,0,4.1,1.57,4.26,3.19h-2.4c-.13-.69-.5-1.42-1.92-1.42-1,0-1.55.4-1.55,1.18s.46,1.09,2.26,1.49c3.2.77,3.91,2,3.91,3.52,0,2-1.52,3.39-4.43,3.39s-4.29-1.38-4.55-3.39Z"/>
    </g>
    <g>
      <path class="cls-48" d="M243.66,720.66v-2.82h2.45v2.82Z"/>
      <path class="cls-48" d="M248.64,720.66v-2.82h2.45v2.82Z"/>
      <path class="cls-48" d="M253.61,720.66v-2.82h2.45v2.82Z"/>
      <path class="cls-48" d="M258.59,720.66v-2.82H261v2.82Z"/>
      <path class="cls-48" d="M263.56,720.66v-2.82H266v2.82Z"/>
      <path class="cls-48" d="M268.54,720.66v-2.82H271v2.82Z"/>
      <path class="cls-48" d="M273.52,720.66v-2.82H276v2.82Z"/>
      <path class="cls-48" d="M278.49,720.66v-2.82h2.45v2.82Z"/>
      <path class="cls-48" d="M283.47,720.66v-2.82h2.45v2.82Z"/>
      <path class="cls-48" d="M288.44,720.66v-2.82h2.45v2.82Z"/>
      <path class="cls-48" d="M293.42,720.66v-2.82h2.45v2.82Z"/>
      <path class="cls-48" d="M298.4,720.66v-2.82h2.45v2.82Z"/>
      <path class="cls-48" d="M303.37,720.66v-2.82h2.45v2.82Z"/>
      <path class="cls-48" d="M308.35,720.66v-2.82h2.45v2.82Z"/>
      <path class="cls-48" d="M313.32,720.66v-2.82h2.45v2.82Z"/>
      <path class="cls-48" d="M318.3,720.66v-2.82h2.45v2.82Z"/>
      <path class="cls-48" d="M323.27,720.66v-2.82h2.45v2.82Z"/>
      <path class="cls-48" d="M328.25,720.66v-2.82h2.45v2.82Z"/>
      <path class="cls-48" d="M333.23,720.66v-2.82h2.45v2.82Z"/>
      <path class="cls-48" d="M338.2,720.66v-2.82h2.45v2.82Z"/>
    </g>
    <path class="cls-48" d="M346.2,718a1.43,1.43,0,0,0,1.52,1.06c1.5,0,1.84-1.58,1.9-3.2a2.93,2.93,0,0,1-2.34.88,3.32,3.32,0,0,1-3.57-3.52,3.72,3.72,0,0,1,4-3.76c3,0,4.23,2.14,4.23,5.15,0,2.85-.69,6.23-4.35,6.23-2.32,0-3.46-1.28-3.68-2.83Zm-.14-4.9a1.68,1.68,0,0,0,1.74,1.9c1.07,0,1.66-.53,1.66-1.82,0-.94-.27-2-1.68-2A1.69,1.69,0,0,0,346.06,713.12Z"/>
    <path class="cls-48" d="M354.28,720.66v-2.82h2.45v2.82Z"/>
    <path class="cls-48" d="M361.64,718a1.43,1.43,0,0,0,1.52,1.06c1.5,0,1.84-1.58,1.9-3.2a2.93,2.93,0,0,1-2.34.88,3.32,3.32,0,0,1-3.57-3.52,3.72,3.72,0,0,1,4-3.76c3,0,4.23,2.14,4.23,5.15,0,2.85-.69,6.23-4.35,6.23-2.32,0-3.46-1.28-3.68-2.83Zm-.14-4.9a1.68,1.68,0,0,0,1.74,1.9c1.07,0,1.66-.53,1.66-1.82,0-.94-.27-2-1.68-2A1.69,1.69,0,0,0,361.5,713.12Zm13.89-.16a2.75,2.75,0,0,1-2.85,3c-1.7,0-2.83-1-2.83-3a2.77,2.77,0,0,1,2.85-3A2.7,2.7,0,0,1,375.39,713Zm-3.91,0c0,1,.38,1.6,1.09,1.6s1.09-.5,1.09-1.6-.45-1.58-1.1-1.58S371.48,711.89,371.48,713Zm1,7.7L379,710.11h1.68l-6.48,10.55Zm11-2.85a2.76,2.76,0,0,1-2.85,3.06c-1.71,0-2.83-1.06-2.83-3a2.76,2.76,0,0,1,2.85-3A2.69,2.69,0,0,1,383.49,717.81Zm-3.92,0c0,1,.38,1.62,1.09,1.62s1.1-.51,1.1-1.62-.45-1.57-1.1-1.57S379.57,716.76,379.57,717.81Z"/>
  </g>
  <g>
    <path class="cls-49" d="M403.31,589.63h4.82c2.67,0,3.68,1.38,3.68,2.82a2.49,2.49,0,0,1-1.41,2.38,2.65,2.65,0,0,1,1.73,2.53c0,1.89-1.49,3.3-3.83,3.3h-5Zm4.55,4.35c1.14,0,1.6-.51,1.6-1.3s-.61-1.22-1.52-1.22h-2.29V594Zm-2.21,4.83h2.16c1.3,0,1.87-.54,1.87-1.54s-.58-1.46-1.89-1.46h-2.15Z"/>
    <path class="cls-49" d="M425.25,595.11c0,3.07-1.84,5.71-5.43,5.71s-5.28-2.51-5.28-5.68,2-5.67,5.43-5.67C423.2,589.47,425.25,591.73,425.25,595.11Zm-8.24,0c0,2.16.94,3.79,2.9,3.79,2.13,0,2.88-1.78,2.88-3.75s-.86-3.73-2.91-3.73S417,592.95,417,595.09Z"/>
    <path class="cls-49" d="M438.42,595.11c0,3.07-1.84,5.71-5.43,5.71s-5.28-2.51-5.28-5.68,2-5.67,5.43-5.67C436.37,589.47,438.42,591.73,438.42,595.11Zm-8.24,0c0,2.16.94,3.79,2.9,3.79,2.13,0,2.88-1.78,2.88-3.75s-.86-3.73-2.91-3.73S430.18,592.95,430.18,595.09Z"/>
    <path class="cls-49" d="M441.44,589.63h2.35v4.91c.74-.85,3-3.33,4.4-4.91H451l-4.43,4.58,4.61,6.45h-2.87l-3.39-4.9-1.17,1.1v3.79h-2.35Z"/>
    <path class="cls-49" d="M454.69,597.43A2.05,2.05,0,0,0,457,599c1.28,0,1.82-.51,1.82-1.31s-.53-1.3-2.42-1.73c-3-.7-3.75-1.81-3.75-3.3,0-1.92,1.44-3.22,4-3.22,2.93,0,4.1,1.57,4.26,3.19h-2.4c-.13-.69-.5-1.42-1.92-1.42-1,0-1.55.4-1.55,1.18s.46,1.09,2.26,1.49c3.2.77,3.91,2,3.91,3.52,0,2-1.52,3.39-4.43,3.39s-4.29-1.38-4.55-3.39Z"/>
    <path class="cls-49" d="M463,601.48l4.43-12h1.9l-4.42,12Z"/>
    <path class="cls-49" d="M486.23,596.52c0-1.87,0-4,.08-5.23h-.08c-.51,2.26-1.62,5.92-2.67,9.38h-2c-.82-3-2-7.2-2.43-9.41H479c.1,1.3.14,3.57.14,5.46v4H477v-11h3.55c.86,2.88,1.82,6.5,2.16,8.13h0c.27-1.44,1.47-5.31,2.4-8.13h3.42v11h-2.3Z"/>
    <path class="cls-49" d="M494.18,598.12l-.85,2.54H491l3.75-11h3l3.92,11h-2.51l-.91-2.54Zm3.52-2c-.78-2.34-1.28-3.83-1.55-4.82h0c-.27,1.09-.82,2.82-1.44,4.82Z"/>
    <path class="cls-49" d="M513.3,600.66h-1.74a6,6,0,0,1-.19-1.09,3.74,3.74,0,0,1-3.22,1.28c-3.2,0-5-2.43-5-5.57,0-3.31,1.94-5.81,5.41-5.81,2.83,0,4.51,1.6,4.77,3.47h-2.38a2.23,2.23,0,0,0-2.42-1.62c-2.27,0-2.91,1.91-2.91,3.84s.74,3.78,2.93,3.78a2.19,2.19,0,0,0,2.42-2.4v-.11h-2.42v-2h4.75Z"/>
    <path class="cls-49" d="M518.83,598.12l-.85,2.54h-2.35l3.75-11h3l3.92,11h-2.51l-.91-2.54Zm3.52-2c-.79-2.34-1.28-3.83-1.55-4.82h0c-.27,1.09-.82,2.82-1.44,4.82Z"/>
    <path class="cls-49" d="M528.3,598.92l6.07-7.33h-5.79v-2h8.5v1.92l-5.84,7.15h6.16l-.3,2H528.3Z"/>
    <path class="cls-49" d="M542.43,589.63v11H540v-11Z"/>
    <path class="cls-49" d="M546,600.66v-11h3c1.38,2.46,3.92,6.95,4.43,8.15h0c-.13-1.15-.13-3.07-.13-4.88v-3.27h2.16v11h-2.8c-1.18-2.16-4-7.28-4.56-8.56h0c.08,1,.11,3.23.11,5.2v3.36Z"/>
    <path class="cls-49" d="M566.64,595.91h-5.28v2.8h5.83l-.29,2H559v-11h7.83v2h-5.51v2.35h5.28Z"/>
    <path class="cls-49" d="M571.66,597.43A2.05,2.05,0,0,0,574,599c1.28,0,1.82-.51,1.82-1.31s-.53-1.3-2.42-1.73c-3-.7-3.75-1.81-3.75-3.3,0-1.92,1.44-3.22,4-3.22,2.93,0,4.1,1.57,4.26,3.19h-2.4c-.13-.69-.5-1.42-1.92-1.42-1,0-1.55.4-1.55,1.18s.46,1.09,2.26,1.49c3.2.77,3.91,2,3.91,3.52,0,2-1.52,3.39-4.43,3.39s-4.29-1.38-4.55-3.39Z"/>
  </g>
  <g>
    <path class="cls-49" d="M581.92,600.66v-2.82h2.45v2.82Z"/>
    <path class="cls-49" d="M586.89,600.66v-2.82h2.45v2.82Z"/>
    <path class="cls-49" d="M591.87,600.66v-2.82h2.45v2.82Z"/>
    <path class="cls-49" d="M596.84,600.66v-2.82h2.45v2.82Z"/>
    <path class="cls-49" d="M601.82,600.66v-2.82h2.45v2.82Z"/>
    <path class="cls-49" d="M606.79,600.66v-2.82h2.45v2.82Z"/>
    <path class="cls-49" d="M611.77,600.66v-2.82h2.45v2.82Z"/>
    <path class="cls-49" d="M616.75,600.66v-2.82h2.45v2.82Z"/>
    <path class="cls-49" d="M621.72,600.66v-2.82h2.45v2.82Z"/>
    <path class="cls-49" d="M626.7,600.66v-2.82h2.45v2.82Z"/>
    <path class="cls-49" d="M631.67,600.66v-2.82h2.45v2.82Z"/>
    <path class="cls-49" d="M636.65,600.66v-2.82h2.45v2.82Z"/>
    <path class="cls-49" d="M641.63,600.66v-2.82h2.45v2.82Z"/>
    <path class="cls-49" d="M646.6,600.66v-2.82h2.45v2.82Z"/>
    <path class="cls-49" d="M651.58,600.66v-2.82H654v2.82Z"/>
    <path class="cls-49" d="M656.55,600.66v-2.82H659v2.82Z"/>
    <path class="cls-49" d="M661.53,600.66v-2.82H664v2.82Z"/>
    <path class="cls-49" d="M666.51,600.66v-2.82H669v2.82Z"/>
    <path class="cls-49" d="M671.48,600.66v-2.82h2.45v2.82Z"/>
    <path class="cls-49" d="M676.46,600.66v-2.82h2.45v2.82Z"/>
    <path class="cls-49" d="M681.43,600.66v-2.82h2.45v2.82Z"/>
    <path class="cls-49" d="M686.41,600.66v-2.82h2.45v2.82Z"/>
    <path class="cls-49" d="M691.38,600.66v-2.82h2.45v2.82Z"/>
    <path class="cls-49" d="M696.36,600.66v-2.82h2.45v2.82Z"/>
    <path class="cls-49" d="M701.34,600.66v-2.82h2.45v2.82Z"/>
    <path class="cls-49" d="M706.31,600.66v-2.82h2.45v2.82Z"/>
    <path class="cls-49" d="M711.29,600.66v-2.82h2.45v2.82Z"/>
    <path class="cls-49" d="M716.26,600.66v-2.82h2.45v2.82Z"/>
    <path class="cls-49" d="M721.24,600.66v-2.82h2.45v2.82Z"/>
    <path class="cls-49" d="M726.22,600.66v-2.82h2.45v2.82Z"/>
    <path class="cls-49" d="M731.19,600.66v-2.82h2.45v2.82Z"/>
  </g>
  <g class="cls-42">
    <path class="cls-49" d="M742.62,592.29a1.34,1.34,0,0,0-1.49-1.07c-1.55,0-1.94,1.6-2,3.07a3,3,0,0,1,2.55-1.09,3.37,3.37,0,0,1,3.47,3.63,3.75,3.75,0,0,1-4.07,4c-3.14,0-4.26-2.27-4.26-5.55,0-2.43.82-5.83,4.37-5.83,2.48,0,3.47,1.46,3.67,2.82Zm.21,4.72c0-1.07-.45-2-1.76-2-1,0-1.74.56-1.74,1.87,0,1.06.51,2.11,1.74,2.11S742.83,598.24,742.83,597Z"/>
    <path class="cls-49" d="M747.61,600.66v-2.82h2.45v2.82Z"/>
    <path class="cls-49" d="M760.18,591.51h-4.56c-.08.8-.21,1.71-.29,2.18a3,3,0,0,1,2-.58,3.4,3.4,0,0,1,3.46,3.68,3.81,3.81,0,0,1-4.16,4.07,3.7,3.7,0,0,1-4-3.17h2.29a1.7,1.7,0,0,0,1.76,1.34c1.28,0,1.79-.82,1.79-2,0-1-.4-2.06-1.78-2.06a1.63,1.63,0,0,0-1.74,1.17l-2.11-.32c.29-1.31.72-4.63.86-6.13h6.77ZM768.4,593a2.75,2.75,0,0,1-2.85,3c-1.7,0-2.83-1-2.83-3a2.77,2.77,0,0,1,2.85-3A2.7,2.7,0,0,1,768.4,593Zm-3.91,0c0,1,.38,1.6,1.09,1.6s1.09-.5,1.09-1.6-.45-1.58-1.1-1.58S764.49,591.89,764.49,593Zm1,7.7L772,590.11h1.68l-6.48,10.55Zm11-2.85a2.76,2.76,0,0,1-2.85,3.06c-1.71,0-2.83-1.06-2.83-3a2.76,2.76,0,0,1,2.85-3A2.69,2.69,0,0,1,776.5,597.81Zm-3.92,0c0,1,.38,1.62,1.09,1.62s1.1-.51,1.1-1.62-.45-1.57-1.1-1.57S772.58,596.76,772.58,597.81Z"/>
  </g>
  <g>
    <path class="cls-50" d="M404.93,621.43a2.05,2.05,0,0,0,2.32,1.6c1.28,0,1.82-.51,1.82-1.31s-.53-1.3-2.42-1.73c-3-.7-3.75-1.81-3.75-3.3,0-1.92,1.44-3.22,4-3.22,2.93,0,4.1,1.57,4.26,3.19h-2.4c-.13-.69-.5-1.42-1.92-1.42-1,0-1.55.4-1.55,1.18s.46,1.09,2.26,1.49c3.2.77,3.91,2,3.91,3.52,0,2-1.52,3.39-4.43,3.39s-4.29-1.38-4.55-3.39Z"/>
    <path class="cls-50" d="M414.48,613.63H419c2.35,0,3.94,1.31,3.94,3.41,0,2.4-1.81,3.51-4,3.51h-2.13v4.11h-2.38Zm2.38,5h1.83c1.1,0,1.89-.43,1.89-1.55s-.83-1.57-1.84-1.57h-1.87Z"/>
    <path class="cls-50" d="M436,619.11c0,3.07-1.84,5.71-5.43,5.71s-5.28-2.51-5.28-5.68,2-5.67,5.43-5.67C434,613.47,436,615.73,436,619.11Zm-8.24,0c0,2.16.94,3.79,2.9,3.79,2.13,0,2.88-1.78,2.88-3.75s-.86-3.73-2.91-3.73S427.76,616.95,427.76,619.09Z"/>
    <path class="cls-50" d="M441.36,620.24v4.42H439v-11h4.85c2.4,0,3.7,1.31,3.7,3a2.65,2.65,0,0,1-1.6,2.61c.54.21,1.38.77,1.38,2.75v.54a8.33,8.33,0,0,0,.16,2.1h-2.27a7.92,7.92,0,0,1-.22-2.48V622c0-1.2-.3-1.78-2.08-1.78Zm0-1.9h2c1.3,0,1.81-.5,1.81-1.41s-.59-1.41-1.76-1.41h-2Z"/>
    <path class="cls-50" d="M453,615.59h-3.36v-2h9.09v2h-3.35v9.08H453Z"/>
    <path class="cls-50" d="M463.54,613.63v11h-2.38v-11Z"/>
    <path class="cls-50" d="M467.1,624.66v-11h3c1.38,2.46,3.92,6.95,4.43,8.15h0c-.13-1.15-.13-3.07-.13-4.88v-3.27h2.16v11h-2.8c-1.18-2.16-4-7.28-4.56-8.56h0c.08,1,.11,3.23.11,5.2v3.36Z"/>
    <path class="cls-50" d="M489.76,624.66H488a6,6,0,0,1-.19-1.09,3.74,3.74,0,0,1-3.22,1.28c-3.2,0-5-2.43-5-5.57,0-3.31,1.94-5.81,5.41-5.81,2.83,0,4.51,1.6,4.77,3.47h-2.38a2.23,2.23,0,0,0-2.42-1.62c-2.27,0-2.91,1.91-2.91,3.84s.74,3.78,2.93,3.78a2.19,2.19,0,0,0,2.42-2.4v-.11H485v-2h4.75Z"/>
    <path class="cls-50" d="M505.57,619.91h-5.28v2.8h5.83l-.29,2H498v-11h7.83v2h-5.51v2.35h5.28Z"/>
    <path class="cls-50" d="M519,619.11a5.93,5.93,0,0,1-1.66,4.32l2.48,1.7-1.39,1.58-3.07-2.13a6.11,6.11,0,0,1-1.78.24c-3.47,0-5.28-2.51-5.28-5.68s2-5.67,5.43-5.67C517,613.47,519,615.73,519,619.11Zm-8.24,0c0,2.16.94,3.79,2.9,3.79,2.13,0,2.88-1.78,2.88-3.75s-.86-3.73-2.91-3.73S510.77,616.95,510.77,619.09Z"/>
    <path class="cls-50" d="M524.3,613.63v6.56c0,2.13,1.09,2.75,2.29,2.75,1.36,0,2.21-.74,2.21-2.75v-6.56h2.4v6.45c0,3.78-2.21,4.74-4.64,4.74s-4.64-1-4.64-4.69v-6.5Z"/>
    <path class="cls-50" d="M537.07,613.63v11h-2.38v-11Z"/>
    <path class="cls-50" d="M540.62,613.63h4.56c2.35,0,3.94,1.31,3.94,3.41,0,2.4-1.81,3.51-4,3.51H543v4.11h-2.38Zm2.38,5h1.83c1.1,0,1.89-.43,1.89-1.55s-.83-1.57-1.84-1.57H543Z"/>
    <path class="cls-50" d="M561,620.52c0-1.87,0-4,.08-5.23H561c-.51,2.26-1.62,5.92-2.67,9.38h-2c-.82-3-2-7.2-2.43-9.41h-.08c.1,1.3.14,3.57.14,5.46v4h-2.18v-11h3.55c.86,2.88,1.83,6.5,2.16,8.13h0c.27-1.44,1.47-5.31,2.4-8.13h3.43v11H561Z"/>
    <path class="cls-50" d="M574.55,619.91h-5.28v2.8h5.83l-.29,2h-7.86v-11h7.83v2h-5.51v2.35h5.28Z"/>
    <path class="cls-50" d="M578,624.66v-11h3c1.38,2.46,3.92,6.95,4.43,8.15h0c-.13-1.15-.13-3.07-.13-4.88v-3.27h2.16v11h-2.8c-1.18-2.16-4-7.28-4.56-8.56h0c.08,1,.11,3.23.11,5.2v3.36Z"/>
    <path class="cls-50" d="M593.23,615.59h-3.36v-2H599v2h-3.35v9.08h-2.38Z"/>
  </g>
  <g>
    <path class="cls-50" d="M601.82,624.66v-2.82h2.45v2.82Z"/>
    <path class="cls-50" d="M606.8,624.66v-2.82h2.45v2.82Z"/>
    <path class="cls-50" d="M611.78,624.66v-2.82h2.45v2.82Z"/>
    <path class="cls-50" d="M616.75,624.66v-2.82h2.45v2.82Z"/>
    <path class="cls-50" d="M621.73,624.66v-2.82h2.45v2.82Z"/>
    <path class="cls-50" d="M626.7,624.66v-2.82h2.45v2.82Z"/>
    <path class="cls-50" d="M631.68,624.66v-2.82h2.45v2.82Z"/>
    <path class="cls-50" d="M636.65,624.66v-2.82h2.45v2.82Z"/>
    <path class="cls-50" d="M641.63,624.66v-2.82h2.45v2.82Z"/>
    <path class="cls-50" d="M646.61,624.66v-2.82h2.45v2.82Z"/>
    <path class="cls-50" d="M651.58,624.66v-2.82H654v2.82Z"/>
    <path class="cls-50" d="M656.56,624.66v-2.82H659v2.82Z"/>
    <path class="cls-50" d="M661.53,624.66v-2.82H664v2.82Z"/>
    <path class="cls-50" d="M666.51,624.66v-2.82H669v2.82Z"/>
    <path class="cls-50" d="M671.49,624.66v-2.82h2.45v2.82Z"/>
    <path class="cls-50" d="M676.46,624.66v-2.82h2.45v2.82Z"/>
    <path class="cls-50" d="M681.44,624.66v-2.82h2.45v2.82Z"/>
    <path class="cls-50" d="M686.41,624.66v-2.82h2.45v2.82Z"/>
    <path class="cls-50" d="M691.39,624.66v-2.82h2.45v2.82Z"/>
    <path class="cls-50" d="M696.37,624.66v-2.82h2.45v2.82Z"/>
    <path class="cls-50" d="M701.34,624.66v-2.82h2.45v2.82Z"/>
    <path class="cls-50" d="M706.32,624.66v-2.82h2.45v2.82Z"/>
    <path class="cls-50" d="M711.29,624.66v-2.82h2.45v2.82Z"/>
    <path class="cls-50" d="M716.27,624.66v-2.82h2.45v2.82Z"/>
    <path class="cls-50" d="M721.24,624.66v-2.82h2.45v2.82Z"/>
    <path class="cls-50" d="M726.22,624.66v-2.82h2.45v2.82Z"/>
    <path class="cls-50" d="M731.2,624.66v-2.82h2.45v2.82Z"/>
  </g>
  <g class="cls-42">
    <path class="cls-50" d="M744.06,615.51H739.5c-.08.8-.21,1.71-.29,2.18a3,3,0,0,1,2-.58,3.4,3.4,0,0,1,3.46,3.68,3.81,3.81,0,0,1-4.16,4.07,3.7,3.7,0,0,1-4-3.17h2.29a1.7,1.7,0,0,0,1.76,1.34c1.28,0,1.79-.82,1.79-2,0-1-.4-2.06-1.78-2.06a1.63,1.63,0,0,0-1.74,1.17l-2.11-.32c.29-1.31.72-4.63.86-6.13h6.77Z"/>
    <path class="cls-50" d="M747.17,624.66v-2.82h2.45v2.82Z"/>
    <path class="cls-50" d="M752.17,621.46a2.81,2.81,0,0,1,1.76-2.63,2.46,2.46,0,0,1-1.3-2.29c0-1.73,1.38-3.07,3.83-3.07,2.27,0,3.75,1.26,3.75,3a2.35,2.35,0,0,1-1.33,2.24,2.74,2.74,0,0,1,1.74,2.63c0,2.38-1.82,3.49-4.34,3.49C754,624.85,752.17,623.7,752.17,621.46Zm6.11-.06c0-1.07-.7-1.63-1.89-1.63s-1.87.64-1.87,1.57a1.67,1.67,0,0,0,1.9,1.71C757.57,623,758.29,622.47,758.29,621.4Zm-3.46-4.77c0,.75.54,1.3,1.6,1.3s1.57-.48,1.57-1.26-.58-1.41-1.58-1.41S754.83,615.75,754.83,616.63Zm13.57.34a2.75,2.75,0,0,1-2.85,3c-1.7,0-2.83-1-2.83-3a2.77,2.77,0,0,1,2.85-3A2.7,2.7,0,0,1,768.4,617Zm-3.91,0c0,1,.38,1.6,1.09,1.6s1.09-.5,1.09-1.6-.45-1.58-1.1-1.58S764.49,615.89,764.49,617Zm1,7.7L772,614.11h1.68l-6.48,10.55Zm11-2.85a2.76,2.76,0,0,1-2.85,3.06c-1.71,0-2.83-1.06-2.83-3a2.76,2.76,0,0,1,2.85-3A2.69,2.69,0,0,1,776.5,621.81Zm-3.92,0c0,1,.38,1.62,1.09,1.62s1.1-.51,1.1-1.62-.45-1.57-1.1-1.57S772.58,620.76,772.58,621.81Z"/>
  </g>
  <g>
    <path class="cls-51" d="M410.92,643.91h-5.28v2.8h5.83l-.29,2h-7.86v-11h7.83v2h-5.51v2.35h5.28Z"/>
    <path class="cls-51" d="M414.35,637.63h2.38v9.08h5.51l-.27,2h-7.62Z"/>
    <path class="cls-51" d="M432.28,643.91H427v2.8h5.83l-.29,2h-7.86v-11h7.83v2H427v2.35h5.28Z"/>
    <path class="cls-51" d="M445,645.25c-.43,2.06-2,3.57-4.75,3.57-3.51,0-5.15-2.48-5.15-5.62s1.71-5.73,5.27-5.73c2.95,0,4.37,1.71,4.64,3.57h-2.38a2.18,2.18,0,0,0-2.34-1.71c-2,0-2.72,1.78-2.72,3.79,0,1.86.66,3.83,2.79,3.83a2.18,2.18,0,0,0,2.26-1.7Z"/>
    <path class="cls-51" d="M450.26,639.59H446.9v-2H456v2h-3.35v9.08h-2.38Z"/>
    <path class="cls-51" d="M460.75,644.24v4.42h-2.34v-11h4.85c2.4,0,3.7,1.31,3.7,3a2.65,2.65,0,0,1-1.6,2.61c.54.21,1.38.77,1.38,2.75v.54a8.33,8.33,0,0,0,.16,2.1h-2.27a7.88,7.88,0,0,1-.22-2.48V646c0-1.2-.3-1.78-2.08-1.78Zm0-1.9h2c1.3,0,1.81-.5,1.81-1.41s-.59-1.41-1.76-1.41h-2Z"/>
    <path class="cls-51" d="M480.2,643.11c0,3.07-1.84,5.71-5.43,5.71s-5.28-2.51-5.28-5.68,2-5.67,5.43-5.67C478.15,637.47,480.2,639.73,480.2,643.11Zm-8.24,0c0,2.16.94,3.79,2.9,3.79,2.13,0,2.88-1.78,2.88-3.75s-.86-3.73-2.91-3.73S472,640.95,472,643.09Z"/>
    <path class="cls-51" d="M483.22,648.66v-11h3c1.38,2.46,3.92,6.95,4.43,8.15h0c-.13-1.15-.13-3.07-.13-4.88v-3.27h2.16v11h-2.8c-1.19-2.16-4-7.28-4.56-8.56h0c.08,1,.11,3.23.11,5.2v3.36Z"/>
    <path class="cls-51" d="M498.64,637.63v11h-2.38v-11Z"/>
    <path class="cls-51" d="M511.57,645.25c-.43,2.06-2,3.57-4.75,3.57-3.5,0-5.15-2.48-5.15-5.62s1.71-5.73,5.27-5.73c2.95,0,4.37,1.71,4.64,3.57h-2.38a2.18,2.18,0,0,0-2.34-1.71c-2,0-2.72,1.78-2.72,3.79,0,1.86.66,3.83,2.79,3.83a2.18,2.18,0,0,0,2.26-1.7Z"/>
    <path class="cls-51" d="M519.39,637.63h4.39a5,5,0,0,1,5.31,5.38c0,3.22-2,5.65-5.43,5.65h-4.27Zm2.38,9.11h1.79c2.11,0,3.06-1.58,3.06-3.73,0-1.81-.88-3.46-3-3.46h-1.81Z"/>
    <path class="cls-51" d="M539.71,643.91h-5.28v2.8h5.83l-.29,2h-7.86v-11h7.83v2h-5.51v2.35h5.28Z"/>
    <path class="cls-51" d="M545.9,648.66l-3.89-11h2.56l1.63,5.09c.51,1.54.88,2.85,1.14,4h0a40.27,40.27,0,0,1,1.18-4l1.73-5.12h2.43l-4,11Z"/>
    <path class="cls-51" d="M557.46,637.63v11h-2.38v-11Z"/>
    <path class="cls-51" d="M570.39,645.25c-.43,2.06-2,3.57-4.75,3.57-3.51,0-5.15-2.48-5.15-5.62s1.71-5.73,5.27-5.73c2.94,0,4.37,1.71,4.64,3.57H568a2.18,2.18,0,0,0-2.34-1.71c-2,0-2.72,1.78-2.72,3.79,0,1.86.66,3.83,2.79,3.83a2.18,2.18,0,0,0,2.26-1.7Z"/>
    <path class="cls-51" d="M581,643.91h-5.28v2.8h5.83l-.29,2h-7.86v-11h7.83v2h-5.51v2.35H581Z"/>
    <path class="cls-51" d="M586,645.43a2.05,2.05,0,0,0,2.32,1.6c1.28,0,1.82-.51,1.82-1.31s-.53-1.3-2.42-1.73c-3-.7-3.75-1.81-3.75-3.3,0-1.92,1.44-3.22,4-3.22,2.93,0,4.1,1.57,4.26,3.19h-2.4c-.13-.69-.5-1.42-1.92-1.42-1,0-1.55.4-1.55,1.18s.46,1.09,2.26,1.49c3.2.77,3.91,2,3.91,3.52,0,2-1.52,3.39-4.43,3.39s-4.29-1.38-4.55-3.39Z"/>
  </g>
  <g>
    <path class="cls-51" d="M596.83,648.66v-2.82h2.45v2.82Z"/>
    <path class="cls-51" d="M601.81,648.66v-2.82h2.45v2.82Z"/>
    <path class="cls-51" d="M606.78,648.66v-2.82h2.45v2.82Z"/>
    <path class="cls-51" d="M611.76,648.66v-2.82h2.45v2.82Z"/>
    <path class="cls-51" d="M616.73,648.66v-2.82h2.45v2.82Z"/>
    <path class="cls-51" d="M621.71,648.66v-2.82h2.45v2.82Z"/>
    <path class="cls-51" d="M626.69,648.66v-2.82h2.45v2.82Z"/>
    <path class="cls-51" d="M631.66,648.66v-2.82h2.45v2.82Z"/>
    <path class="cls-51" d="M636.64,648.66v-2.82h2.45v2.82Z"/>
    <path class="cls-51" d="M641.61,648.66v-2.82h2.45v2.82Z"/>
    <path class="cls-51" d="M646.59,648.66v-2.82H649v2.82Z"/>
    <path class="cls-51" d="M651.56,648.66v-2.82H654v2.82Z"/>
    <path class="cls-51" d="M656.54,648.66v-2.82H659v2.82Z"/>
    <path class="cls-51" d="M661.52,648.66v-2.82H664v2.82Z"/>
    <path class="cls-51" d="M666.49,648.66v-2.82h2.45v2.82Z"/>
    <path class="cls-51" d="M671.47,648.66v-2.82h2.45v2.82Z"/>
    <path class="cls-51" d="M676.44,648.66v-2.82h2.45v2.82Z"/>
    <path class="cls-51" d="M681.42,648.66v-2.82h2.45v2.82Z"/>
    <path class="cls-51" d="M686.4,648.66v-2.82h2.45v2.82Z"/>
    <path class="cls-51" d="M691.37,648.66v-2.82h2.45v2.82Z"/>
    <path class="cls-51" d="M696.35,648.66v-2.82h2.45v2.82Z"/>
    <path class="cls-51" d="M701.32,648.66v-2.82h2.45v2.82Z"/>
    <path class="cls-51" d="M706.3,648.66v-2.82h2.45v2.82Z"/>
    <path class="cls-51" d="M711.28,648.66v-2.82h2.45v2.82Z"/>
    <path class="cls-51" d="M716.25,648.66v-2.82h2.45v2.82Z"/>
    <path class="cls-51" d="M721.23,648.66v-2.82h2.45v2.82Z"/>
    <path class="cls-51" d="M726.2,648.66v-2.82h2.45v2.82Z"/>
    <path class="cls-51" d="M731.18,648.66v-2.82h2.45v2.82Z"/>
  </g>
  <g class="cls-42">
    <path class="cls-51" d="M744.45,639.51h-4.56c-.08.8-.21,1.71-.29,2.18a3,3,0,0,1,2-.58,3.4,3.4,0,0,1,3.46,3.68,3.81,3.81,0,0,1-4.16,4.07,3.7,3.7,0,0,1-4-3.17h2.29a1.7,1.7,0,0,0,1.76,1.34c1.28,0,1.79-.82,1.79-2,0-1-.4-2.06-1.78-2.06a1.63,1.63,0,0,0-1.74,1.17l-2.11-.32c.29-1.31.72-4.63.86-6.13h6.77Z"/>
    <path class="cls-51" d="M747.55,648.66v-2.82H750v2.82Z"/>
    <path class="cls-51" d="M752.67,640.58a3.53,3.53,0,0,1,3.84-3.11c2.51,0,3.71,1.38,3.71,2.93a2.24,2.24,0,0,1-1.39,2.22v0a2.62,2.62,0,0,1,1.78,2.66c0,1.73-1.09,3.57-4.15,3.54-2.59,0-3.91-1.62-4-3.27h2.27a1.72,1.72,0,0,0,1.84,1.46,1.55,1.55,0,0,0,1.73-1.68c0-1-.42-1.74-1.94-1.74h-.8v-1.76h.75c1.1,0,1.63-.32,1.63-1.25a1.27,1.27,0,0,0-1.44-1.34,1.47,1.47,0,0,0-1.6,1.31Zm15.75.38a2.75,2.75,0,0,1-2.85,3c-1.7,0-2.83-1-2.83-3a2.77,2.77,0,0,1,2.85-3A2.7,2.7,0,0,1,768.41,641Zm-3.91,0c0,1,.38,1.6,1.09,1.6s1.09-.5,1.09-1.6-.45-1.58-1.1-1.58S764.51,639.89,764.51,641Zm1,7.7L772,638.11h1.68l-6.48,10.55Zm11-2.85a2.76,2.76,0,0,1-2.85,3.06c-1.71,0-2.83-1.06-2.83-3a2.76,2.76,0,0,1,2.85-3A2.69,2.69,0,0,1,776.51,645.81Zm-3.92,0c0,1,.38,1.62,1.09,1.62s1.1-.51,1.1-1.62-.45-1.57-1.1-1.57S772.59,644.76,772.59,645.81Z"/>
  </g>
  <g>
    <path class="cls-52" d="M412.68,669.25c-.43,2.06-2,3.57-4.75,3.57-3.5,0-5.15-2.48-5.15-5.62s1.71-5.73,5.27-5.73c2.94,0,4.37,1.71,4.64,3.57h-2.38a2.18,2.18,0,0,0-2.34-1.71c-2,0-2.72,1.78-2.72,3.79,0,1.86.66,3.83,2.79,3.83a2.18,2.18,0,0,0,2.26-1.7Z"/>
    <path class="cls-52" d="M415.65,661.63H418v4.29h4.45v-4.29h2.38v11h-2.38v-4.77H418v4.77h-2.38Z"/>
    <path class="cls-52" d="M430.83,661.63v11h-2.38v-11Z"/>
    <path class="cls-52" d="M434.4,661.63h2.38v9.08h5.51l-.27,2H434.4Z"/>
    <path class="cls-52" d="M444.72,661.63h4.38a5,5,0,0,1,5.31,5.38c0,3.22-2,5.65-5.43,5.65h-4.27Zm2.38,9.11h1.79c2.11,0,3.06-1.58,3.06-3.73,0-1.81-.88-3.46-3-3.46h-1.81Z"/>
    <path class="cls-52" d="M459.78,668.24v4.42h-2.34v-11h4.85c2.4,0,3.7,1.31,3.7,3a2.65,2.65,0,0,1-1.6,2.61c.54.21,1.38.77,1.38,2.75v.54a8.33,8.33,0,0,0,.16,2.1h-2.27a7.91,7.91,0,0,1-.22-2.48V670c0-1.2-.3-1.78-2.08-1.78Zm0-1.9h2c1.3,0,1.81-.5,1.81-1.41s-.59-1.41-1.76-1.41h-2Z"/>
    <path class="cls-52" d="M476.75,667.91h-5.28v2.8h5.83l-.29,2h-7.86v-11H477v2h-5.51v2.35h5.28Z"/>
    <path class="cls-52" d="M480.19,672.66v-11h3c1.38,2.46,3.92,6.95,4.43,8.15h0c-.13-1.15-.13-3.07-.13-4.88v-3.27h2.16v11h-2.8c-1.18-2.16-4-7.28-4.56-8.56h0c.08,1,.11,3.23.11,5.2v3.36Z"/>
    <path class="cls-52" d="M492.72,665.73a21.69,21.69,0,0,0,.75-4.75h2.42a13.59,13.59,0,0,1-1.33,4.75Z"/>
    <path class="cls-52" d="M500.45,669.43a2.05,2.05,0,0,0,2.32,1.6c1.28,0,1.83-.51,1.83-1.31s-.53-1.3-2.42-1.73c-3-.7-3.74-1.81-3.74-3.3,0-1.92,1.44-3.22,4-3.22,2.93,0,4.1,1.57,4.26,3.19h-2.4c-.13-.69-.5-1.42-1.92-1.42-1,0-1.55.4-1.55,1.18s.46,1.09,2.26,1.49c3.2.77,3.91,2,3.91,3.52,0,2-1.52,3.39-4.43,3.39s-4.29-1.38-4.55-3.39Z"/>
    <path class="cls-52" d="M517,663.59h-3.36v-2h9.09v2h-3.35v9.08H517Z"/>
    <path class="cls-52" d="M535.11,667.11c0,3.07-1.84,5.71-5.43,5.71s-5.28-2.51-5.28-5.68,2-5.67,5.43-5.67C533.06,661.47,535.11,663.73,535.11,667.11Zm-8.24,0c0,2.16.95,3.79,2.9,3.79,2.13,0,2.88-1.78,2.88-3.75s-.87-3.73-2.91-3.73S526.86,664.95,526.86,667.09Z"/>
    <path class="cls-52" d="M540.06,672.66v-3.91a.62.62,0,0,0-.1-.35l-3.81-6.77h2.71c.85,1.66,2,3.87,2.51,5.07.48-1.15,1.68-3.49,2.51-5.07h2.5l-3.86,6.74a.65.65,0,0,0-.08.35v3.94Z"/>
    <path class="cls-52" d="M549.94,669.43a2.05,2.05,0,0,0,2.32,1.6c1.28,0,1.83-.51,1.83-1.31s-.53-1.3-2.42-1.73c-3-.7-3.75-1.81-3.75-3.3,0-1.92,1.44-3.22,4-3.22,2.93,0,4.1,1.57,4.26,3.19h-2.4c-.13-.69-.5-1.42-1.92-1.42-1,0-1.55.4-1.55,1.18s.46,1.09,2.26,1.49c3.2.77,3.91,2,3.91,3.52,0,2-1.52,3.39-4.43,3.39s-4.29-1.38-4.54-3.39Z"/>
  </g>
  <g>
    <path class="cls-52" d="M562,672.66v-2.82h2.45v2.82Z"/>
    <path class="cls-52" d="M567,672.66v-2.82h2.45v2.82Z"/>
    <path class="cls-52" d="M572,672.66v-2.82h2.45v2.82Z"/>
    <path class="cls-52" d="M576.94,672.66v-2.82h2.45v2.82Z"/>
    <path class="cls-52" d="M581.92,672.66v-2.82h2.45v2.82Z"/>
    <path class="cls-52" d="M586.89,672.66v-2.82h2.45v2.82Z"/>
    <path class="cls-52" d="M591.87,672.66v-2.82h2.45v2.82Z"/>
    <path class="cls-52" d="M596.84,672.66v-2.82h2.45v2.82Z"/>
    <path class="cls-52" d="M601.82,672.66v-2.82h2.45v2.82Z"/>
    <path class="cls-52" d="M606.8,672.66v-2.82h2.45v2.82Z"/>
    <path class="cls-52" d="M611.77,672.66v-2.82h2.45v2.82Z"/>
    <path class="cls-52" d="M616.75,672.66v-2.82h2.45v2.82Z"/>
    <path class="cls-52" d="M621.72,672.66v-2.82h2.45v2.82Z"/>
    <path class="cls-52" d="M626.7,672.66v-2.82h2.45v2.82Z"/>
    <path class="cls-52" d="M631.68,672.66v-2.82h2.45v2.82Z"/>
    <path class="cls-52" d="M636.65,672.66v-2.82h2.45v2.82Z"/>
    <path class="cls-52" d="M641.63,672.66v-2.82h2.45v2.82Z"/>
    <path class="cls-52" d="M646.6,672.66v-2.82h2.45v2.82Z"/>
    <path class="cls-52" d="M651.58,672.66v-2.82H654v2.82Z"/>
    <path class="cls-52" d="M656.55,672.66v-2.82H659v2.82Z"/>
    <path class="cls-52" d="M661.53,672.66v-2.82H664v2.82Z"/>
    <path class="cls-52" d="M666.51,672.66v-2.82H669v2.82Z"/>
    <path class="cls-52" d="M671.48,672.66v-2.82h2.45v2.82Z"/>
    <path class="cls-52" d="M676.46,672.66v-2.82h2.45v2.82Z"/>
    <path class="cls-52" d="M681.43,672.66v-2.82h2.45v2.82Z"/>
    <path class="cls-52" d="M686.41,672.66v-2.82h2.45v2.82Z"/>
    <path class="cls-52" d="M691.39,672.66v-2.82h2.45v2.82Z"/>
    <path class="cls-52" d="M696.36,672.66v-2.82h2.45v2.82Z"/>
    <path class="cls-52" d="M701.34,672.66v-2.82h2.45v2.82Z"/>
    <path class="cls-52" d="M706.31,672.66v-2.82h2.45v2.82Z"/>
    <path class="cls-52" d="M711.29,672.66v-2.82h2.45v2.82Z"/>
    <path class="cls-52" d="M716.26,672.66v-2.82h2.45v2.82Z"/>
    <path class="cls-52" d="M721.24,672.66v-2.82h2.45v2.82Z"/>
    <path class="cls-52" d="M726.22,672.66v-2.82h2.45v2.82Z"/>
    <path class="cls-52" d="M731.19,672.66v-2.82h2.45v2.82Z"/>
  </g>
  <g class="cls-42">
    <path class="cls-52" d="M742.2,672.66V664.4a7,7,0,0,1-2.06.38v-1.66a5.54,5.54,0,0,0,2.8-1.49h1.66v11Z"/>
    <path class="cls-52" d="M747.8,672.66v-2.82h2.45v2.82Z"/>
    <path class="cls-52" d="M757.6,672.66v-2.61h-5v-2l4.63-6.45h2.59v6.61h1.33l-.22,1.81h-1.1v2.61Zm0-6.47c0-1.22,0-1.89,0-2.56-.43.93-2.18,3.25-3,4.61h3ZM768.38,665a2.75,2.75,0,0,1-2.85,3c-1.7,0-2.83-1-2.83-3a2.77,2.77,0,0,1,2.85-3A2.7,2.7,0,0,1,768.38,665Zm-3.91,0c0,1,.38,1.6,1.09,1.6s1.09-.5,1.09-1.6-.45-1.58-1.1-1.58S764.48,663.89,764.48,665Zm1,7.7L772,662.11h1.68l-6.48,10.55Zm11-2.85a2.76,2.76,0,0,1-2.85,3.06c-1.71,0-2.83-1.06-2.83-3a2.76,2.76,0,0,1,2.85-3A2.69,2.69,0,0,1,776.48,669.81Zm-3.92,0c0,1,.38,1.62,1.09,1.62s1.1-.51,1.1-1.62-.45-1.57-1.1-1.57S772.56,668.76,772.56,669.81Z"/>
  </g>
  <g>
    <path class="cls-53" d="M413.48,691.11c0,3.07-1.84,5.71-5.43,5.71s-5.28-2.51-5.28-5.68,2-5.67,5.43-5.67C411.43,685.47,413.48,687.73,413.48,691.11Zm-8.24,0c0,2.16.94,3.79,2.9,3.79,2.13,0,2.88-1.78,2.88-3.75s-.86-3.73-2.91-3.73S405.23,688.95,405.23,691.09Z"/>
    <path class="cls-53" d="M418.54,687.59h-3.36v-2h9.09v2h-3.35v9.08h-2.38Z"/>
    <path class="cls-53" d="M426.71,685.63h2.38v4.29h4.45v-4.29h2.38v11h-2.38v-4.77h-4.45v4.77h-2.38Z"/>
    <path class="cls-53" d="M447.11,691.91h-5.28v2.8h5.83l-.29,2H439.5v-11h7.83v2h-5.51v2.35h5.28Z"/>
    <path class="cls-53" d="M452.87,692.24v4.42h-2.34v-11h4.85c2.4,0,3.7,1.31,3.7,3a2.65,2.65,0,0,1-1.6,2.61c.54.21,1.38.77,1.38,2.75v.54a8.33,8.33,0,0,0,.16,2.1h-2.27a7.92,7.92,0,0,1-.22-2.48V694c0-1.2-.3-1.78-2.08-1.78Zm0-1.9h2c1.3,0,1.81-.5,1.81-1.41s-.59-1.41-1.76-1.41h-2Z"/>
  </g>
  <g>
    <path class="cls-53" d="M462.51,696.66v-2.82H465v2.82Z"/>
    <path class="cls-53" d="M467.49,696.66v-2.82h2.45v2.82Z"/>
    <path class="cls-53" d="M472.46,696.66v-2.82h2.45v2.82Z"/>
    <path class="cls-53" d="M477.44,696.66v-2.82h2.45v2.82Z"/>
    <path class="cls-53" d="M482.42,696.66v-2.82h2.45v2.82Z"/>
    <path class="cls-53" d="M487.39,696.66v-2.82h2.45v2.82Z"/>
    <path class="cls-53" d="M492.37,696.66v-2.82h2.45v2.82Z"/>
    <path class="cls-53" d="M497.34,696.66v-2.82h2.45v2.82Z"/>
    <path class="cls-53" d="M502.32,696.66v-2.82h2.45v2.82Z"/>
    <path class="cls-53" d="M507.29,696.66v-2.82h2.45v2.82Z"/>
    <path class="cls-53" d="M512.27,696.66v-2.82h2.45v2.82Z"/>
    <path class="cls-53" d="M517.25,696.66v-2.82h2.45v2.82Z"/>
    <path class="cls-53" d="M522.22,696.66v-2.82h2.45v2.82Z"/>
    <path class="cls-53" d="M527.2,696.66v-2.82h2.45v2.82Z"/>
    <path class="cls-53" d="M532.17,696.66v-2.82h2.45v2.82Z"/>
    <path class="cls-53" d="M537.15,696.66v-2.82h2.45v2.82Z"/>
    <path class="cls-53" d="M542.13,696.66v-2.82h2.45v2.82Z"/>
    <path class="cls-53" d="M547.1,696.66v-2.82h2.45v2.82Z"/>
    <path class="cls-53" d="M552.08,696.66v-2.82h2.45v2.82Z"/>
    <path class="cls-53" d="M557.05,696.66v-2.82h2.45v2.82Z"/>
    <path class="cls-53" d="M562,696.66v-2.82h2.45v2.82Z"/>
    <path class="cls-53" d="M567,696.66v-2.82h2.45v2.82Z"/>
    <path class="cls-53" d="M572,696.66v-2.82h2.45v2.82Z"/>
    <path class="cls-53" d="M577,696.66v-2.82h2.45v2.82Z"/>
    <path class="cls-53" d="M581.93,696.66v-2.82h2.45v2.82Z"/>
    <path class="cls-53" d="M586.91,696.66v-2.82h2.45v2.82Z"/>
    <path class="cls-53" d="M591.88,696.66v-2.82h2.45v2.82Z"/>
    <path class="cls-53" d="M596.86,696.66v-2.82h2.45v2.82Z"/>
    <path class="cls-53" d="M601.84,696.66v-2.82h2.45v2.82Z"/>
    <path class="cls-53" d="M606.81,696.66v-2.82h2.45v2.82Z"/>
    <path class="cls-53" d="M611.79,696.66v-2.82h2.45v2.82Z"/>
    <path class="cls-53" d="M616.76,696.66v-2.82h2.45v2.82Z"/>
    <path class="cls-53" d="M621.74,696.66v-2.82h2.45v2.82Z"/>
    <path class="cls-53" d="M626.72,696.66v-2.82h2.45v2.82Z"/>
    <path class="cls-53" d="M631.69,696.66v-2.82h2.45v2.82Z"/>
    <path class="cls-53" d="M636.67,696.66v-2.82h2.45v2.82Z"/>
    <path class="cls-53" d="M641.64,696.66v-2.82h2.45v2.82Z"/>
    <path class="cls-53" d="M646.62,696.66v-2.82h2.45v2.82Z"/>
    <path class="cls-53" d="M651.59,696.66v-2.82H654v2.82Z"/>
    <path class="cls-53" d="M656.57,696.66v-2.82H659v2.82Z"/>
    <path class="cls-53" d="M661.55,696.66v-2.82H664v2.82Z"/>
    <path class="cls-53" d="M666.52,696.66v-2.82H669v2.82Z"/>
    <path class="cls-53" d="M671.5,696.66v-2.82h2.45v2.82Z"/>
    <path class="cls-53" d="M676.47,696.66v-2.82h2.45v2.82Z"/>
    <path class="cls-53" d="M681.45,696.66v-2.82h2.45v2.82Z"/>
    <path class="cls-53" d="M686.43,696.66v-2.82h2.45v2.82Z"/>
    <path class="cls-53" d="M691.4,696.66v-2.82h2.45v2.82Z"/>
    <path class="cls-53" d="M696.38,696.66v-2.82h2.45v2.82Z"/>
    <path class="cls-53" d="M701.35,696.66v-2.82h2.45v2.82Z"/>
    <path class="cls-53" d="M706.33,696.66v-2.82h2.45v2.82Z"/>
    <path class="cls-53" d="M711.31,696.66v-2.82h2.45v2.82Z"/>
    <path class="cls-53" d="M716.28,696.66v-2.82h2.45v2.82Z"/>
    <path class="cls-53" d="M721.26,696.66v-2.82h2.45v2.82Z"/>
    <path class="cls-53" d="M726.23,696.66v-2.82h2.45v2.82Z"/>
    <path class="cls-53" d="M731.21,696.66v-2.82h2.45v2.82Z"/>
  </g>
  <g class="cls-42">
    <path class="cls-53" d="M736.73,696.66v-.14c0-1.82.53-3.39,3.41-5.44,1.49-1.06,1.87-1.33,1.87-2.27a1.31,1.31,0,0,0-1.38-1.49c-1,0-1.42.59-1.58,1.58H736.7a3.61,3.61,0,0,1,3.94-3.43c2.85,0,3.78,1.76,3.78,3.28,0,1.7-.67,2.42-2.74,3.79-1.41.93-2,1.62-2.21,2.21h5.38l-.3,1.9Z"/>
    <path class="cls-53" d="M747.48,696.66v-2.82h2.45v2.82Z"/>
    <path class="cls-53" d="M758.06,688.29a1.34,1.34,0,0,0-1.49-1.07c-1.55,0-1.94,1.6-2,3.07a3,3,0,0,1,2.55-1.09,3.37,3.37,0,0,1,3.47,3.63,3.75,3.75,0,0,1-4.07,4c-3.14,0-4.26-2.27-4.26-5.55,0-2.43.82-5.83,4.37-5.83,2.48,0,3.47,1.46,3.67,2.82Zm.21,4.72c0-1.07-.45-2-1.76-2-1,0-1.74.56-1.74,1.87,0,1.06.51,2.11,1.74,2.11S758.27,694.24,758.27,693Zm10.13-4a2.75,2.75,0,0,1-2.85,3c-1.7,0-2.83-1-2.83-3a2.77,2.77,0,0,1,2.85-3A2.7,2.7,0,0,1,768.4,689Zm-3.91,0c0,1,.38,1.6,1.09,1.6s1.09-.5,1.09-1.6-.45-1.58-1.1-1.58S764.49,687.89,764.49,689Zm1,7.7L772,686.11h1.68l-6.48,10.55Zm11-2.85a2.76,2.76,0,0,1-2.85,3.06c-1.71,0-2.83-1.06-2.83-3a2.76,2.76,0,0,1,2.85-3A2.69,2.69,0,0,1,776.5,693.81Zm-3.92,0c0,1,.38,1.62,1.09,1.62s1.1-.51,1.1-1.62-.45-1.57-1.1-1.57S772.57,692.76,772.57,693.81Z"/>
    <g>
      <path class="cls-54" d="M412.57,716.52c0-1.87,0-4,.08-5.23h-.08c-.51,2.26-1.62,5.92-2.67,9.38h-2c-.82-3-2-7.2-2.43-9.41h-.08c.1,1.3.14,3.57.14,5.46v4h-2.18v-11h3.55c.86,2.88,1.83,6.5,2.16,8.13h0c.27-1.44,1.47-5.31,2.4-8.13h3.42v11h-2.3Z"/>
      <path class="cls-54" d="M420.52,718.12l-.85,2.54h-2.35l3.75-11h3l3.92,11h-2.51l-.91-2.54Zm3.52-2c-.79-2.34-1.28-3.83-1.55-4.82h0c-.27,1.09-.82,2.82-1.44,4.82Z"/>
      <path class="cls-54" d="M434.73,717.12c0,2.54-.83,3.7-3.25,3.7a6.59,6.59,0,0,1-1.49-.14v-1.89a9.64,9.64,0,0,0,1.09.06c1.09,0,1.26-.74,1.26-1.57v-7.65h2.39Z"/>
      <path class="cls-54" d="M448.38,715.11c0,3.07-1.84,5.71-5.43,5.71s-5.28-2.51-5.28-5.68,2-5.67,5.43-5.67C446.33,709.47,448.38,711.73,448.38,715.11Zm-8.24,0c0,2.16.95,3.79,2.9,3.79,2.13,0,2.88-1.78,2.88-3.75s-.87-3.73-2.91-3.73S440.14,712.95,440.14,715.09Z"/>
      <path class="cls-54" d="M453.74,716.24v4.42H451.4v-11h4.85c2.4,0,3.7,1.31,3.7,3a2.65,2.65,0,0,1-1.6,2.61c.54.21,1.38.77,1.38,2.75v.54a8.33,8.33,0,0,0,.16,2.1h-2.27a7.88,7.88,0,0,1-.22-2.48V718c0-1.2-.3-1.78-2.08-1.78Zm0-1.9h2c1.3,0,1.81-.5,1.81-1.41s-.59-1.41-1.76-1.41h-2Z"/>
      <path class="cls-54" d="M469.85,718.12l-.85,2.54h-2.35l3.74-11h3l3.92,11h-2.51l-.91-2.54Zm3.52-2c-.79-2.34-1.28-3.83-1.55-4.82h0c-.27,1.09-.82,2.82-1.44,4.82Z"/>
      <path class="cls-54" d="M479.75,709.63h4.56c2.35,0,3.94,1.31,3.94,3.41,0,2.4-1.81,3.51-4,3.51h-2.13v4.11h-2.38Zm2.38,5H484c1.1,0,1.89-.43,1.89-1.55s-.83-1.57-1.84-1.57h-1.87Z"/>
      <path class="cls-54" d="M490.92,709.63h4.56c2.35,0,3.94,1.31,3.94,3.41,0,2.4-1.81,3.51-4,3.51H493.3v4.11h-2.38Zm2.38,5h1.83c1.1,0,1.89-.43,1.89-1.55s-.83-1.57-1.84-1.57H493.3Z"/>
      <path class="cls-54" d="M502.09,709.63h2.38v9.08H510l-.27,2h-7.62Z"/>
      <path class="cls-54" d="M514.81,709.63v11h-2.38v-11Z"/>
      <path class="cls-54" d="M520.42,718.12l-.85,2.54h-2.35l3.75-11h3l3.92,11h-2.51l-.91-2.54Zm3.52-2c-.78-2.34-1.28-3.83-1.55-4.82h0c-.27,1.09-.82,2.82-1.44,4.82Z"/>
      <path class="cls-54" d="M530.33,720.66v-11h3c1.38,2.46,3.92,6.95,4.43,8.15h0c-.13-1.15-.13-3.07-.13-4.88v-3.27h2.16v11H537c-1.18-2.16-4-7.28-4.56-8.56h0c.08,1,.11,3.23.11,5.2v3.36Z"/>
      <path class="cls-54" d="M552.75,717.25c-.43,2.06-2,3.57-4.75,3.57-3.5,0-5.15-2.48-5.15-5.62s1.71-5.73,5.27-5.73c2.95,0,4.37,1.71,4.64,3.57h-2.38a2.18,2.18,0,0,0-2.34-1.71c-2,0-2.72,1.78-2.72,3.79,0,1.86.66,3.83,2.79,3.83a2.18,2.18,0,0,0,2.26-1.7Z"/>
      <path class="cls-54" d="M563.32,715.91H558v2.8h5.83l-.29,2h-7.86v-11h7.83v2H558v2.35h5.28Z"/>
      <path class="cls-54" d="M568.34,717.43a2.05,2.05,0,0,0,2.32,1.6c1.28,0,1.83-.51,1.83-1.31s-.53-1.3-2.42-1.73c-3-.7-3.75-1.81-3.75-3.3,0-1.92,1.44-3.22,4-3.22,2.93,0,4.1,1.57,4.26,3.19h-2.4c-.13-.69-.5-1.42-1.92-1.42-1,0-1.55.4-1.55,1.18s.46,1.09,2.26,1.49c3.2.77,3.91,2,3.91,3.52,0,2-1.52,3.39-4.43,3.39s-4.29-1.38-4.54-3.39Z"/>
    </g>
    <g>
      <path class="cls-54" d="M581.93,720.66v-2.82h2.45v2.82Z"/>
      <path class="cls-54" d="M586.91,720.66v-2.82h2.45v2.82Z"/>
      <path class="cls-54" d="M591.88,720.66v-2.82h2.45v2.82Z"/>
      <path class="cls-54" d="M596.86,720.66v-2.82h2.45v2.82Z"/>
      <path class="cls-54" d="M601.84,720.66v-2.82h2.45v2.82Z"/>
      <path class="cls-54" d="M606.81,720.66v-2.82h2.45v2.82Z"/>
      <path class="cls-54" d="M611.79,720.66v-2.82h2.45v2.82Z"/>
      <path class="cls-54" d="M616.76,720.66v-2.82h2.45v2.82Z"/>
      <path class="cls-54" d="M621.74,720.66v-2.82h2.45v2.82Z"/>
      <path class="cls-54" d="M626.72,720.66v-2.82h2.45v2.82Z"/>
      <path class="cls-54" d="M631.69,720.66v-2.82h2.45v2.82Z"/>
      <path class="cls-54" d="M636.67,720.66v-2.82h2.45v2.82Z"/>
      <path class="cls-54" d="M641.64,720.66v-2.82h2.45v2.82Z"/>
      <path class="cls-54" d="M646.62,720.66v-2.82h2.45v2.82Z"/>
      <path class="cls-54" d="M651.6,720.66v-2.82H654v2.82Z"/>
      <path class="cls-54" d="M656.57,720.66v-2.82H659v2.82Z"/>
      <path class="cls-54" d="M661.55,720.66v-2.82H664v2.82Z"/>
      <path class="cls-54" d="M666.52,720.66v-2.82H669v2.82Z"/>
      <path class="cls-54" d="M671.5,720.66v-2.82h2.45v2.82Z"/>
      <path class="cls-54" d="M676.47,720.66v-2.82h2.45v2.82Z"/>
      <path class="cls-54" d="M681.45,720.66v-2.82h2.45v2.82Z"/>
      <path class="cls-54" d="M686.43,720.66v-2.82h2.45v2.82Z"/>
      <path class="cls-54" d="M691.4,720.66v-2.82h2.45v2.82Z"/>
      <path class="cls-54" d="M696.38,720.66v-2.82h2.45v2.82Z"/>
      <path class="cls-54" d="M701.35,720.66v-2.82h2.45v2.82Z"/>
      <path class="cls-54" d="M706.33,720.66v-2.82h2.45v2.82Z"/>
      <path class="cls-54" d="M711.31,720.66v-2.82h2.45v2.82Z"/>
      <path class="cls-54" d="M716.28,720.66v-2.82h2.45v2.82Z"/>
      <path class="cls-54" d="M721.26,720.66v-2.82h2.45v2.82Z"/>
      <path class="cls-54" d="M726.23,720.66v-2.82h2.45v2.82Z"/>
      <path class="cls-54" d="M731.21,720.66v-2.82h2.45v2.82Z"/>
    </g>
    <path class="cls-54" d="M741.95,720.66V712.4a7,7,0,0,1-2.06.38v-1.66a5.54,5.54,0,0,0,2.8-1.49h1.66v11Z"/>
    <path class="cls-54" d="M747.54,720.66v-2.82H750v2.82Z"/>
    <path class="cls-54" d="M752.66,712.58a3.53,3.53,0,0,1,3.84-3.11c2.51,0,3.71,1.38,3.71,2.93a2.24,2.24,0,0,1-1.39,2.22v0a2.62,2.62,0,0,1,1.78,2.66c0,1.73-1.09,3.57-4.15,3.54-2.59,0-3.91-1.62-4-3.27h2.27a1.72,1.72,0,0,0,1.84,1.46,1.55,1.55,0,0,0,1.73-1.68c0-1-.42-1.74-1.94-1.74h-.8v-1.76h.75c1.1,0,1.63-.32,1.63-1.25a1.27,1.27,0,0,0-1.44-1.34,1.47,1.47,0,0,0-1.6,1.31Zm15.75.38a2.75,2.75,0,0,1-2.85,3c-1.7,0-2.83-1-2.83-3a2.77,2.77,0,0,1,2.85-3A2.7,2.7,0,0,1,768.41,713Zm-3.91,0c0,1,.38,1.6,1.09,1.6s1.09-.5,1.09-1.6-.45-1.58-1.1-1.58S764.51,711.89,764.51,713Zm1,7.7L772,710.11h1.68l-6.48,10.55Zm11-2.85a2.76,2.76,0,0,1-2.85,3.06c-1.71,0-2.83-1.06-2.83-3a2.76,2.76,0,0,1,2.85-3A2.69,2.69,0,0,1,776.51,717.81Zm-3.92,0c0,1,.38,1.62,1.09,1.62s1.1-.51,1.1-1.62-.45-1.57-1.1-1.57S772.59,716.76,772.59,717.81Z"/>
  </g>
  <g id="greatest_caption">
    <rect class="cls-55" x="585" y="273.37" width="192" height="121.7"/>
    <polyline class="cls-55" points="675.67 347.06 600.67 347.06 600.67 422.06"/>
    <g>
      <path class="cls-56" d="M600.94,287.38h-3.81V286h9.21v1.34h-3.83v10.49h-1.58Z"/>
      <path class="cls-56" d="M610.31,285.39v5.13A2.86,2.86,0,0,1,613,289c1.38,0,2.91.75,2.91,3.31v5.51h-1.5v-5.25c0-1.46-.61-2.28-1.87-2.28-1.55,0-2.23,1-2.23,2.82v4.71h-1.5V285.39Z"/>
      <path class="cls-56" d="M620.21,293.82c0,1.75.9,3,2.36,3a2,2,0,0,0,2.07-1.34h1.51a3.52,3.52,0,0,1-3.64,2.58c-2.7,0-3.81-2.21-3.81-4.42,0-2.57,1.29-4.61,3.91-4.61,2.79,0,3.69,2.23,3.69,4.06,0,.27,0,.49,0,.71Zm4.59-1c0-1.43-.73-2.57-2.19-2.57s-2.19,1.05-2.35,2.57Z"/>
      <path class="cls-56" d="M644.43,297.86h-1.21a6.22,6.22,0,0,1-.15-1.6A3.93,3.93,0,0,1,639.4,298c-3.42,0-5.22-2.58-5.22-5.95,0-3.54,1.94-6.2,5.51-6.2,2.75,0,4.47,1.5,4.81,3.6h-1.56a3.07,3.07,0,0,0-3.28-2.29c-2.74,0-3.82,2.19-3.82,4.83,0,2.43,1.09,4.71,3.76,4.71s3.31-1.77,3.31-3.76v-.14h-3.33v-1.34h4.86Z"/>
      <path class="cls-56" d="M647.93,291.59c0-1.21,0-1.89,0-2.35h1.46c0,.24.05.92.05,1.75a3,3,0,0,1,2.89-2v1.48c-1.77.05-2.89,1-2.89,3.16v4.18h-1.5Z"/>
      <path class="cls-56" d="M655.6,293.82c0,1.75.9,3,2.36,3a2,2,0,0,0,2.07-1.34h1.51a3.52,3.52,0,0,1-3.64,2.58c-2.7,0-3.81-2.21-3.81-4.42,0-2.57,1.29-4.61,3.91-4.61,2.79,0,3.69,2.23,3.69,4.06,0,.27,0,.49,0,.71Zm4.59-1c0-1.43-.73-2.57-2.19-2.57s-2.19,1.05-2.35,2.57Z"/>
      <path class="cls-56" d="M670.95,296a13.25,13.25,0,0,0,.12,1.89h-1.43a4.51,4.51,0,0,1-.14-1.12,2.75,2.75,0,0,1-2.67,1.33,2.61,2.61,0,0,1-2.91-2.63c0-1.92,1.51-2.8,4.08-2.8h1.46v-.73c0-.76-.24-1.68-1.85-1.68-1.43,0-1.68.71-1.84,1.38h-1.45c.12-1.19.85-2.55,3.33-2.55,2.11,0,3.28.87,3.28,2.82Zm-1.46-2.31h-1.39c-1.72,0-2.63.48-2.63,1.68a1.51,1.51,0,0,0,1.68,1.55c2.07,0,2.35-1.39,2.35-3Z"/>
      <path class="cls-56" d="M673.24,289.25h1.5V286.7h1.48v2.55h1.9v1.21h-1.9v5c0,.85.2,1.28,1,1.28a4,4,0,0,0,.75-.07v1.12a4,4,0,0,1-1.29.15c-1.34,0-1.92-.7-1.92-2.12v-5.41h-1.5Z"/>
      <path class="cls-56" d="M681.42,293.82c0,1.75.9,3,2.36,3a2,2,0,0,0,2.07-1.34h1.51a3.52,3.52,0,0,1-3.64,2.58c-2.7,0-3.81-2.21-3.81-4.42,0-2.57,1.29-4.61,3.91-4.61,2.79,0,3.69,2.23,3.69,4.06,0,.27,0,.49,0,.71Zm4.59-1c0-1.43-.73-2.57-2.19-2.57s-2.19,1.05-2.35,2.57Z"/>
      <path class="cls-56" d="M691.16,295.4a2,2,0,0,0,2.11,1.5c1.26,0,1.75-.54,1.75-1.33s-.39-1.19-2-1.58c-2.46-.59-3-1.36-3-2.53s.9-2.41,3.11-2.41,3.14,1.29,3.25,2.48h-1.43a1.72,1.72,0,0,0-1.87-1.33c-1.21,0-1.58.58-1.58,1.14s.36,1,1.94,1.34c2.62.63,3.15,1.5,3.15,2.77,0,1.51-1.21,2.62-3.35,2.62s-3.33-1.12-3.55-2.67Z"/>
      <path class="cls-56" d="M698.42,289.25h1.5V286.7h1.48v2.55h1.9v1.21h-1.9v5c0,.85.2,1.28,1,1.28a4,4,0,0,0,.75-.07v1.12a4,4,0,0,1-1.29.15c-1.34,0-1.92-.7-1.92-2.12v-5.41h-1.5Z"/>
    </g>
    <g>
      <path class="cls-56" d="M605.38,318.08c0,2.77-1.14,4.33-4,4.33-2.62,0-3.42-1.46-3.57-2.63h1.51a2,2,0,0,0,2.12,1.45c2,0,2.43-1.24,2.43-3.21v-.7a2.64,2.64,0,0,1-2.69,1.51c-2.12,0-3.57-1.73-3.57-4.27,0-2.8,1.65-4.52,3.72-4.52,1.65,0,2.35.77,2.53,1.34,0-.39.07-1,.09-1.14h1.39c0,.49,0,1.67,0,2.48Zm-3.81-.53c1.85,0,2.4-1.26,2.4-3.16s-.51-3.09-2.35-3.09c-1.6,0-2.41,1.34-2.41,3.2S600.16,317.55,601.57,317.55Z"/>
      <path class="cls-56" d="M609.68,314.81c0,1.75.9,3,2.36,3a2,2,0,0,0,2.07-1.34h1.51a3.52,3.52,0,0,1-3.64,2.58c-2.7,0-3.81-2.21-3.81-4.42,0-2.57,1.29-4.61,3.91-4.61,2.79,0,3.69,2.23,3.69,4.06,0,.27,0,.49,0,.71Zm4.59-1c0-1.43-.73-2.57-2.19-2.57s-2.19,1.05-2.35,2.57Z"/>
      <path class="cls-56" d="M618.61,312.42c0-.75,0-1.51,0-2.18H620a12.88,12.88,0,0,1,.07,1.41,2.71,2.71,0,0,1,2.7-1.62c1.63,0,2.89,1,2.89,3.28v5.54h-1.5V313.5c0-1.31-.51-2.18-1.82-2.18-1.63,0-2.28,1.24-2.28,3v4.56h-1.5Z"/>
      <path class="cls-56" d="M630,314.81c0,1.75.9,3,2.36,3a2,2,0,0,0,2.07-1.34h1.51a3.52,3.52,0,0,1-3.64,2.58c-2.7,0-3.81-2.21-3.81-4.42,0-2.57,1.29-4.61,3.91-4.61,2.79,0,3.69,2.23,3.69,4.06,0,.27,0,.49,0,.71Zm4.59-1c0-1.43-.73-2.57-2.19-2.57s-2.19,1.05-2.35,2.57Z"/>
      <path class="cls-56" d="M638.92,312.59c0-1.21,0-1.89,0-2.35h1.46c0,.24.05.92.05,1.75a3,3,0,0,1,2.89-2v1.48c-1.77.05-2.89,1-2.89,3.16v4.18h-1.5Z"/>
      <path class="cls-56" d="M652.16,317a13.25,13.25,0,0,0,.12,1.89h-1.43a4.5,4.5,0,0,1-.14-1.12,2.75,2.75,0,0,1-2.67,1.33,2.61,2.61,0,0,1-2.91-2.63c0-1.92,1.51-2.8,4.08-2.8h1.46v-.73c0-.77-.24-1.68-1.85-1.68-1.43,0-1.68.71-1.84,1.38h-1.45c.12-1.19.85-2.55,3.33-2.55,2.11,0,3.28.87,3.28,2.82Zm-1.46-2.31h-1.39c-1.72,0-2.63.48-2.63,1.68a1.51,1.51,0,0,0,1.68,1.55c2.07,0,2.35-1.39,2.35-3Z"/>
      <path class="cls-56" d="M654.46,310.24H656v-2.55h1.48v2.55h1.9v1.21h-1.9v5c0,.85.2,1.27,1,1.27a4,4,0,0,0,.75-.07v1.12a4,4,0,0,1-1.29.15c-1.34,0-1.92-.7-1.92-2.12v-5.41h-1.5Z"/>
      <path class="cls-56" d="M661.8,308.23v-1.85h1.5v1.85Zm0,2h1.5v8.62h-1.5Z"/>
      <path class="cls-56" d="M674.14,314.52c0,2.5-1.43,4.54-4.06,4.54-2.46,0-4-1.9-4-4.5s1.46-4.52,4.06-4.52C672.58,310,674.14,311.82,674.14,314.52Zm-6.49,0c0,1.9,1,3.28,2.5,3.28s2.46-1.31,2.46-3.26-.88-3.28-2.5-3.28S667.65,312.59,667.65,314.54Z"/>
      <path class="cls-56" d="M677,312.42c0-.75,0-1.51,0-2.18h1.45a13.13,13.13,0,0,1,.07,1.41,2.7,2.7,0,0,1,2.7-1.62c1.63,0,2.89,1,2.89,3.28v5.54h-1.5V313.5c0-1.31-.51-2.18-1.82-2.18-1.63,0-2.28,1.24-2.28,3v4.56H677Z"/>
      <path class="cls-56" d="M693.66,316.39a2,2,0,0,0,2.11,1.5c1.26,0,1.75-.54,1.75-1.33s-.39-1.19-2-1.58c-2.46-.6-3-1.36-3-2.53s.9-2.41,3.11-2.41,3.14,1.29,3.25,2.48h-1.43a1.72,1.72,0,0,0-1.87-1.33c-1.21,0-1.58.58-1.58,1.14s.36,1,1.94,1.34c2.62.63,3.14,1.5,3.14,2.77,0,1.51-1.21,2.62-3.35,2.62s-3.33-1.12-3.55-2.67Z"/>
      <path class="cls-56" d="M700.92,310.24h1.5v-2.55h1.48v2.55h1.9v1.21h-1.9v5c0,.85.2,1.27,1,1.27a4,4,0,0,0,.75-.07v1.12a4,4,0,0,1-1.29.15c-1.34,0-1.92-.7-1.92-2.12v-5.41h-1.5Z"/>
      <path class="cls-56" d="M715.61,314.52c0,2.5-1.43,4.54-4.06,4.54-2.46,0-4-1.9-4-4.5S709,310,711.65,310C714,310,715.61,311.82,715.61,314.52Zm-6.49,0c0,1.9,1,3.28,2.5,3.28s2.46-1.31,2.46-3.26-.88-3.28-2.5-3.28S709.11,312.59,709.11,314.54Z"/>
      <path class="cls-56" d="M718.43,312.59c0-1.21,0-1.89,0-2.35h1.46c0,.24.05.92.05,1.75a3,3,0,0,1,2.89-2v1.48c-1.77.05-2.89,1-2.89,3.16v4.18h-1.5Z"/>
      <path class="cls-56" d="M726.1,314.81c0,1.75.9,3,2.36,3a2,2,0,0,0,2.07-1.34H732a3.52,3.52,0,0,1-3.64,2.58c-2.7,0-3.81-2.21-3.81-4.42,0-2.57,1.29-4.61,3.91-4.61,2.79,0,3.69,2.23,3.69,4.06,0,.27,0,.49,0,.71Zm4.59-1c0-1.43-.73-2.57-2.19-2.57s-2.19,1.05-2.35,2.57Z"/>
      <path class="cls-56" d="M739.32,310.24h1.5v-2.55h1.48v2.55h1.9v1.21h-1.9v5c0,.85.2,1.27,1,1.27a4,4,0,0,0,.75-.07v1.12a4,4,0,0,1-1.29.15c-1.34,0-1.92-.7-1.92-2.12v-5.41h-1.5Z"/>
      <path class="cls-56" d="M748.16,306.38v5.13a2.86,2.86,0,0,1,2.69-1.48c1.38,0,2.91.75,2.91,3.32v5.51h-1.5v-5.25c0-1.46-.61-2.28-1.87-2.28-1.55,0-2.23,1-2.23,2.82v4.71h-1.5V306.38Z"/>
      <path class="cls-56" d="M758.06,314.81c0,1.75.9,3,2.36,3a2,2,0,0,0,2.07-1.34H764a3.52,3.52,0,0,1-3.64,2.58c-2.7,0-3.81-2.21-3.81-4.42,0-2.57,1.29-4.61,3.91-4.61,2.79,0,3.69,2.23,3.69,4.06,0,.27,0,.49,0,.71Zm4.59-1c0-1.43-.73-2.57-2.19-2.57s-2.19,1.05-2.35,2.57Z"/>
    </g>
    <g>
      <path class="cls-56" d="M599.77,327.38v5.13a2.86,2.86,0,0,1,2.69-1.48c1.38,0,2.91.75,2.91,3.31v5.51h-1.5V334.6c0-1.46-.61-2.28-1.87-2.28-1.55,0-2.23,1-2.23,2.82v4.71h-1.5V327.38Z"/>
      <path class="cls-56" d="M608.68,329.23v-1.85h1.5v1.85Zm0,2h1.5v8.62h-1.5Z"/>
      <path class="cls-56" d="M620.71,339.07c0,2.77-1.14,4.33-4,4.33-2.62,0-3.42-1.46-3.57-2.63h1.51a2,2,0,0,0,2.12,1.44c2,0,2.43-1.24,2.43-3.21v-.7a2.64,2.64,0,0,1-2.69,1.51c-2.12,0-3.57-1.73-3.57-4.27,0-2.8,1.65-4.52,3.72-4.52,1.65,0,2.35.76,2.53,1.34,0-.39.07-1,.09-1.14h1.39c0,.49,0,1.67,0,2.48Zm-3.81-.53c1.85,0,2.4-1.26,2.4-3.16s-.51-3.09-2.35-3.09c-1.6,0-2.41,1.34-2.41,3.2S615.5,338.55,616.91,338.55Z"/>
      <path class="cls-56" d="M625.54,327.38v5.13a2.86,2.86,0,0,1,2.69-1.48c1.38,0,2.91.75,2.91,3.31v5.51h-1.5V334.6c0-1.46-.61-2.28-1.87-2.28-1.55,0-2.23,1-2.23,2.82v4.71H624V327.38Z"/>
      <path class="cls-56" d="M635.44,335.81c0,1.75.9,3,2.36,3a2,2,0,0,0,2.07-1.34h1.51a3.52,3.52,0,0,1-3.64,2.58c-2.7,0-3.81-2.21-3.81-4.42,0-2.57,1.29-4.61,3.91-4.61,2.79,0,3.69,2.23,3.69,4.06,0,.27,0,.49,0,.71Zm4.59-1c0-1.43-.73-2.57-2.19-2.57s-2.19,1.05-2.35,2.57Z"/>
      <path class="cls-56" d="M645.18,337.39a2,2,0,0,0,2.11,1.5c1.26,0,1.75-.54,1.75-1.33s-.39-1.19-2-1.58c-2.46-.59-3-1.36-3-2.53s.9-2.41,3.11-2.41,3.15,1.29,3.25,2.48H649a1.72,1.72,0,0,0-1.87-1.33c-1.21,0-1.58.58-1.58,1.14s.36,1,1.94,1.34c2.62.63,3.14,1.5,3.14,2.77,0,1.51-1.21,2.62-3.35,2.62s-3.33-1.12-3.55-2.67Z"/>
      <path class="cls-56" d="M652.44,331.24h1.5v-2.55h1.48v2.55h1.9v1.21h-1.9v5c0,.85.21,1.27,1,1.27a3.89,3.89,0,0,0,.75-.07v1.12a4,4,0,0,1-1.29.15c-1.34,0-1.92-.7-1.92-2.12v-5.41h-1.5Z"/>
      <path class="cls-56" d="M665.3,343.24v-9.89c0-.71,0-1.44,0-2.11h1.45c0,.29.05.8.05,1.36a3,3,0,0,1,2.82-1.56c2,0,3.43,1.67,3.43,4.28,0,3.09-1.65,4.74-3.74,4.74a2.62,2.62,0,0,1-2.52-1.28v4.45Zm3.91-10.93c-1.79,0-2.5,1.12-2.5,3.23s.58,3.26,2.38,3.26c1.58,0,2.41-1.29,2.41-3.42C671.51,333.55,670.68,332.31,669.21,332.31Z"/>
      <path class="cls-56" d="M676.9,335.81c0,1.75.9,3,2.36,3a2,2,0,0,0,2.07-1.34h1.51a3.52,3.52,0,0,1-3.64,2.58c-2.7,0-3.81-2.21-3.81-4.42,0-2.57,1.29-4.61,3.91-4.61,2.79,0,3.69,2.23,3.69,4.06,0,.27,0,.49,0,.71Zm4.59-1c0-1.43-.73-2.57-2.19-2.57s-2.19,1.05-2.35,2.57Z"/>
      <path class="cls-56" d="M685.84,333.58c0-1.21,0-1.89,0-2.35h1.46c0,.24.05.92.05,1.75a3,3,0,0,1,2.89-2v1.48c-1.77.05-2.89,1-2.89,3.16v4.18h-1.5Z"/>
      <path class="cls-56" d="M699.39,337.22a3.41,3.41,0,0,1-3.55,2.84c-2.38,0-3.84-1.7-3.84-4.47,0-2.43,1.38-4.56,3.94-4.56a3.21,3.21,0,0,1,3.45,2.87h-1.48a1.91,1.91,0,0,0-2-1.63c-1.51,0-2.38,1.31-2.38,3.26s.83,3.28,2.33,3.28a2.05,2.05,0,0,0,2.06-1.6Z"/>
      <path class="cls-56" d="M703.06,335.81c0,1.75.9,3,2.36,3a2,2,0,0,0,2.07-1.34H709a3.52,3.52,0,0,1-3.64,2.58c-2.7,0-3.81-2.21-3.81-4.42,0-2.57,1.29-4.61,3.91-4.61,2.79,0,3.69,2.23,3.69,4.06,0,.27,0,.49,0,.71Zm4.59-1c0-1.43-.73-2.57-2.19-2.57s-2.19,1.05-2.35,2.57Z"/>
      <path class="cls-56" d="M712,333.41c0-.75,0-1.51,0-2.18h1.45a13.11,13.11,0,0,1,.07,1.41,2.7,2.7,0,0,1,2.7-1.62c1.63,0,2.89,1,2.89,3.28v5.54h-1.5V334.5c0-1.31-.51-2.18-1.82-2.18-1.63,0-2.28,1.24-2.28,3v4.56H712Z"/>
      <path class="cls-56" d="M721.32,331.24h1.5v-2.55h1.48v2.55h1.9v1.21h-1.9v5c0,.85.2,1.27,1,1.27a3.89,3.89,0,0,0,.75-.07v1.12a4,4,0,0,1-1.29.15c-1.34,0-1.92-.7-1.92-2.12v-5.41h-1.5Z"/>
      <path class="cls-56" d="M735.21,338a13.4,13.4,0,0,0,.12,1.89H733.9a4.44,4.44,0,0,1-.14-1.12,2.74,2.74,0,0,1-2.67,1.33,2.61,2.61,0,0,1-2.91-2.63c0-1.92,1.51-2.8,4.08-2.8h1.46v-.73c0-.76-.24-1.68-1.85-1.68-1.43,0-1.68.71-1.83,1.38h-1.45c.12-1.19.85-2.55,3.33-2.55,2.11,0,3.28.87,3.28,2.82Zm-1.46-2.31h-1.39c-1.72,0-2.63.48-2.63,1.68a1.51,1.51,0,0,0,1.68,1.55c2.07,0,2.35-1.39,2.35-3Z"/>
      <path class="cls-56" d="M745.71,339.07c0,2.77-1.14,4.33-4,4.33-2.62,0-3.42-1.46-3.57-2.63h1.51a2,2,0,0,0,2.13,1.44c2,0,2.43-1.24,2.43-3.21v-.7a2.64,2.64,0,0,1-2.69,1.51c-2.12,0-3.57-1.73-3.57-4.27,0-2.8,1.65-4.52,3.72-4.52,1.65,0,2.35.76,2.53,1.34,0-.39.07-1,.08-1.14h1.39c0,.49,0,1.67,0,2.48Zm-3.81-.53c1.85,0,2.4-1.26,2.4-3.16s-.51-3.09-2.35-3.09c-1.6,0-2.41,1.34-2.41,3.2S740.5,338.55,741.91,338.55Z"/>
      <path class="cls-56" d="M750,335.81c0,1.75.9,3,2.36,3a2,2,0,0,0,2.07-1.34H756a3.52,3.52,0,0,1-3.64,2.58c-2.7,0-3.81-2.21-3.81-4.42,0-2.57,1.29-4.61,3.91-4.61,2.79,0,3.69,2.23,3.69,4.06,0,.27,0,.49,0,.71Zm4.59-1c0-1.43-.73-2.57-2.19-2.57s-2.19,1.05-2.35,2.57Z"/>
    </g>
    <g>
      <path class="cls-56" d="M605.69,356.51c0,2.5-1.43,4.54-4.06,4.54-2.46,0-4-1.9-4-4.5s1.46-4.52,4.06-4.52C604.12,352,605.69,353.81,605.69,356.51Zm-6.49,0c0,1.9,1,3.28,2.5,3.28s2.46-1.31,2.46-3.26-.88-3.28-2.5-3.28S599.19,354.58,599.19,356.53Z"/>
      <path class="cls-56" d="M608.76,360.85v-7.41h-1.38v-1.21h1.38v-1c0-1.58.61-3,2.52-3a3.82,3.82,0,0,1,1,.1v1.28a3.55,3.55,0,0,0-.75-.08c-.88,0-1.22.54-1.22,1.8v.93H612v1.21h-1.73v7.41Z"/>
      <path class="cls-56" d="M621.16,348.37v5.13a2.86,2.86,0,0,1,2.69-1.48c1.38,0,2.91.75,2.91,3.31v5.51h-1.5v-5.25c0-1.46-.61-2.28-1.87-2.28-1.55,0-2.23,1-2.23,2.82v4.71h-1.5V348.37Z"/>
      <path class="cls-56" d="M637.56,356.51c0,2.5-1.43,4.54-4.06,4.54-2.46,0-4-1.9-4-4.5S631,352,633.6,352C636,352,637.56,353.81,637.56,356.51Zm-6.49,0c0,1.9,1,3.28,2.5,3.28s2.46-1.31,2.46-3.26-.88-3.28-2.5-3.28S631.07,354.58,631.07,356.53Z"/>
      <path class="cls-56" d="M640.38,360.85V348.37h1.5v12.48Z"/>
      <path class="cls-56" d="M645.18,350.22v-1.85h1.5v1.85Zm0,2h1.5v8.62h-1.5Z"/>
      <path class="cls-56" d="M657.28,348.37v10c0,.8,0,1.6,0,2.43h-1.43a8.48,8.48,0,0,1-.08-1.22,2.69,2.69,0,0,1-2.7,1.43c-2.23,0-3.59-1.8-3.59-4.42S651,352,653.35,352c1.53,0,2.21.61,2.43,1.11v-4.76Zm-3.89,11.42c2,0,2.46-1.5,2.46-3.38s-.41-3.13-2.35-3.13c-1.53,0-2.46,1.21-2.46,3.3S652,359.79,653.39,359.79Z"/>
      <path class="cls-56" d="M667.11,359a13.25,13.25,0,0,0,.12,1.89H665.8a4.41,4.41,0,0,1-.14-1.12,2.75,2.75,0,0,1-2.67,1.33,2.61,2.61,0,0,1-2.91-2.63c0-1.92,1.51-2.8,4.08-2.8h1.46v-.73c0-.76-.24-1.68-1.85-1.68-1.43,0-1.68.71-1.84,1.38h-1.45c.12-1.19.85-2.55,3.33-2.55,2.11,0,3.28.87,3.28,2.82Zm-1.46-2.31h-1.39c-1.72,0-2.63.48-2.63,1.68a1.51,1.51,0,0,0,1.68,1.55c2.07,0,2.35-1.39,2.35-3Z"/>
      <path class="cls-56" d="M670.81,352.23c1.39,4.13,2.16,6.41,2.4,7.29h0c.27-1,.88-3,2.29-7.29H677l-3.09,9c-.87,2.53-1.53,3.16-3.28,3.16-.27,0-.59,0-.93-.05v-1.29c.22,0,.48,0,.71,0,1.09,0,1.5-.48,2-1.9l-3.23-9Z"/>
    </g>
    <g>
      <path class="cls-56" d="M605.45,369.37v10c0,.8,0,1.6,0,2.43H604a8.48,8.48,0,0,1-.08-1.22,2.69,2.69,0,0,1-2.7,1.43c-2.23,0-3.59-1.8-3.59-4.42s1.48-4.61,3.86-4.61c1.53,0,2.21.61,2.43,1.11v-4.76Zm-3.89,11.42c2,0,2.46-1.5,2.46-3.38s-.41-3.13-2.35-3.13c-1.53,0-2.46,1.21-2.46,3.3S600.2,380.79,601.56,380.79Z"/>
      <path class="cls-56" d="M609.75,377.8c0,1.75.9,3,2.36,3a2,2,0,0,0,2.07-1.34h1.51a3.52,3.52,0,0,1-3.64,2.58c-2.7,0-3.81-2.21-3.81-4.42,0-2.57,1.29-4.61,3.91-4.61,2.79,0,3.69,2.23,3.69,4.06,0,.27,0,.49,0,.71Zm4.59-1c0-1.43-.73-2.57-2.19-2.57s-2.19,1.05-2.35,2.57Z"/>
      <path class="cls-56" d="M625.54,379.21A3.41,3.41,0,0,1,622,382c-2.38,0-3.84-1.7-3.84-4.47,0-2.43,1.38-4.56,3.94-4.56a3.21,3.21,0,0,1,3.45,2.87h-1.48a1.91,1.91,0,0,0-2-1.63c-1.51,0-2.38,1.31-2.38,3.26s.83,3.28,2.33,3.28a2.05,2.05,0,0,0,2.06-1.6Z"/>
      <path class="cls-56" d="M635.72,377.51c0,2.5-1.43,4.54-4.06,4.54-2.46,0-4-1.9-4-4.5s1.46-4.52,4.06-4.52C634.16,373,635.72,374.81,635.72,377.51Zm-6.49,0c0,1.9,1,3.28,2.5,3.28s2.46-1.31,2.46-3.26-.88-3.28-2.5-3.28S629.23,375.57,629.23,377.53Z"/>
      <path class="cls-56" d="M638.55,375.57c0-1.21,0-1.89,0-2.35H640c0,.24.05.92.05,1.75a3,3,0,0,1,2.89-2v1.48c-1.77.05-2.89,1-2.89,3.16v4.18h-1.5Z"/>
      <path class="cls-56" d="M651.81,380a13.4,13.4,0,0,0,.12,1.89H650.5a4.44,4.44,0,0,1-.14-1.12,2.74,2.74,0,0,1-2.67,1.33,2.61,2.61,0,0,1-2.91-2.63c0-1.92,1.51-2.8,4.08-2.8h1.46v-.73c0-.76-.24-1.68-1.85-1.68-1.43,0-1.68.71-1.84,1.38h-1.44c.12-1.19.85-2.55,3.33-2.55,2.11,0,3.28.87,3.28,2.82Zm-1.46-2.31H649c-1.72,0-2.63.48-2.63,1.68a1.51,1.51,0,0,0,1.68,1.55c2.07,0,2.35-1.39,2.35-3Z"/>
      <path class="cls-56" d="M654.12,373.22h1.5v-2.55h1.48v2.55H659v1.21h-1.9v5c0,.85.2,1.27,1,1.27a3.89,3.89,0,0,0,.75-.07v1.12a4,4,0,0,1-1.29.15c-1.34,0-1.92-.7-1.92-2.12v-5.41h-1.5Z"/>
      <path class="cls-56" d="M661.46,371.22v-1.85H663v1.85Zm0,2H663v8.62h-1.5Z"/>
      <path class="cls-56" d="M673.8,377.51c0,2.5-1.43,4.54-4.06,4.54-2.46,0-4-1.9-4-4.5s1.46-4.52,4.06-4.52C672.24,373,673.8,374.81,673.8,377.51Zm-6.49,0c0,1.9,1,3.28,2.5,3.28s2.46-1.31,2.46-3.26-.88-3.28-2.5-3.28S667.31,375.57,667.31,377.53Z"/>
      <path class="cls-56" d="M676.63,375.4c0-.75,0-1.51,0-2.18h1.45a13.13,13.13,0,0,1,.07,1.41,2.7,2.7,0,0,1,2.7-1.62c1.63,0,2.89,1,2.89,3.28v5.54h-1.5v-5.35c0-1.31-.51-2.18-1.82-2.18-1.63,0-2.28,1.24-2.28,3v4.56h-1.5Z"/>
      <path class="cls-56" d="M687.81,379.38a2,2,0,0,0,2.11,1.5c1.26,0,1.75-.54,1.75-1.33s-.39-1.19-2-1.58c-2.46-.59-3-1.36-3-2.53s.9-2.41,3.11-2.41,3.14,1.29,3.25,2.48h-1.43a1.72,1.72,0,0,0-1.87-1.33c-1.21,0-1.58.58-1.58,1.14s.36,1,1.94,1.34c2.62.63,3.14,1.5,3.14,2.77,0,1.51-1.21,2.62-3.35,2.62s-3.33-1.12-3.55-2.67Z"/>
      <path class="cls-56" d="M696.06,381.84v-2.52h1.56v2.52Z"/>
    </g>
  </g>
</svg>
